<svg xmlns="http://www.w3.org/2000/svg" fill="none" viewBox="0 0 940 137">
  <symbol id="timeline">
    <path stroke="currentColor" stroke-linecap="round" stroke-width="3" d="M2 93.567c11.616-1.2895 25.7722-15.9794 34.2703-22.9155 27.7328-22.6356 59.2038-48.87 93.1327-61.46146 21.864-8.1138 73.743-17.02852 71.789 20.06766-.467 8.8673-5.938 15.6284-11.6 22.0546-7.649 8.6797-15.384 17.4134-24.46 24.6376-11.92 9.4874-26.446 19.6692-40.104 26.4921-12.358 6.174 1.282-7.7922 4.773-10.7956 16.195-13.9338 34.666-28.8135 55.813-34.3072 7.288-1.8931 19.893-4.4036 27.046-.7285 6.952 3.5725 4.209 17.4639 1.723 22.6507-3.727 7.7761-9.277 15.045-12.86 22.6506-.387.822 10.782-5.8968 11.866-6.6892 12.027-8.7979 25.045-16.2294 38.247-23.1143 30.388-15.8473 59.601-25.223 93.862-25.0349 17.074.0937 35.87 4.1754 38.579 24.1077 1.738 12.7852.501 21.2273-8.087 31.1277-3.032 3.496-8.618 8.244-13.655 7.948-7.237-.425 10.23-18.6272 10.805-19.0742 17.439-13.5518 37.981-18.5598 59.724-20.7962 26.611-2.737 62.99-3.3923 73.247 27.3529 2.136 6.4005 5.417 16.1885 4.044 23.0485-.546 2.725-4.792 3.094-.531.198 4.33-2.942 9.111-5.412 13.788-7.749 56.168-28.0596 68.078-42.8504 144.539-42.8504 81.322 0 110.579 49.0234 211.289 49.0234 28.711 0 45.918-4.725 57.472-7.41"/>
    <path stroke="currentColor" stroke-linecap="round" stroke-width="3" d="M906.663 104.801c3.193 0 6.146 1.519 9.207 2.353 3.531.963 6.808 2.837 10.341 3.809 3.284.902 5.815 1.504 9.207.882.437-.08 3.178-.737 2.464.164-2.015 2.539-5.055 4.432-7.586 6.456-4.346 3.475-8.257 7.299-12.238 11.179-1.729 1.686-3.445 3.671-4.684 5.753"/>
  </symbol>
</svg>