<svg xmlns="http://www.w3.org/2000/svg" fill="none" viewBox="0 0 345 197">
  <path fill="#E2D2BB" d="M25.8066 173.054c3.8125-9.319 9.4999-19.265 9.7632-29.531-6.6096-3.008-12.1277-11.936-15.5996-17.838-4.8153-8.185-11.42836-15.526-15.88058-24.431C1.66282 96.4009 1.375 94.4849 1.375 88.3602V70.9871c0-11.7396 9.4569-21.5188 17.1021-29.5886 2.6674-2.8155 5.0394-6.3671 7.3295-9.5009 1.459-1.9965 4.2907-2.3208 6.1079-3.9361 4.026-3.5786 15.3415-7.9986 20.4954-8.5508 5.503-.5896 10.2334-3.463 15.8805-3.6647 6.6489-.2374 14.9869-1.8285 21.3098-3.9361 6.2081-2.06926 13.9758-3.21204 20.4958-3.39314 12.805-.3557 25.73-2.09159 38.412-3.9361 35.133-5.110138 68.004-1.49598 103.019 2.44309 16.073 1.80807 32.087 5.59975 47.642 10.04385 10.411 2.9745 20.838 9.0878 27.146 18.0517 2.993 4.2525 6.811 7.9215 9.773 12.2155 2.427 3.5188 2.82 7.4701 4.886 10.9939 3.8 6.4813 2.632 15.5912 2.443 22.938-.544 21.2403-5.667 39.8643-20.495 55.2413-17.385 18.028-35.163 36.094-56.736 49.405-17.428 10.753-37.135 10.795-57.142 9.229-29.61-2.317-58.631-6.369-87.683-11.944-18.495-3.55-36.4915-6.864-54.0207-13.437-5.1515-1.932-14.6589-8.365-14.6589-14.659 0-6.373-5.5309 3.088-8.2796 5.837-8.72 8.719-16.8184 18.14-26.8748 25.381-1.4442 1.04-3.9717 3.851-1.493.271 3.1108-4.493 7.6529-8.256 9.7726-13.437Z"/>
  <path stroke="#E2D2BB" stroke-linecap="round" stroke-width="2" d="M35.5792 142.787c0 10.527-5.869 20.725-9.7726 30.267-2.1197 5.181-6.6618 8.944-9.7726 13.437-2.4787 3.58.0488.769 1.493-.271 10.0564-7.241 18.1548-16.662 26.8748-25.381 2.7487-2.749 8.2796-12.21 8.2796-5.837 0 6.294 9.5074 12.727 14.6589 14.659 17.5292 6.573 35.5257 9.887 54.0207 13.437 29.052 5.575 58.073 9.627 87.683 11.944 20.007 1.566 39.714 1.524 57.142-9.229 21.573-13.311 39.351-31.377 56.736-49.405 14.828-15.377 19.951-34.001 20.495-55.2413.189-7.3468 1.357-16.4567-2.443-22.938-2.066-3.5238-2.459-7.4751-4.886-10.9939-2.962-4.294-6.78-7.963-9.773-12.2155-6.308-8.9639-16.735-15.0772-27.146-18.0517-15.555-4.4441-31.569-8.23578-47.642-10.04385-35.015-3.93907-67.886-7.553228-103.019-2.44309-12.682 1.84451-25.607 3.5804-38.412 3.9361-6.52.1811-14.2877 1.32388-20.4958 3.39314-6.3229 2.1076-14.6609 3.6987-21.3098 3.9361-5.6471.2017-10.3775 3.0751-15.8805 3.6647-5.1539.5522-16.4694 4.9722-20.4954 8.5508-1.8172 1.6153-4.6489 1.9396-6.1079 3.9361-2.2901 3.1338-4.6621 6.6854-7.3295 9.5009C10.8319 49.4683 1.375 59.2475 1.375 70.9871v17.3731c0 6.1247.28782 8.0407 2.71462 12.8938 4.45222 8.905 11.06528 16.246 15.88058 24.431 3.6854 6.265 9.6762 15.939 16.8306 18.324"/>
</svg>
