<svg xmlns="http://www.w3.org/2000/svg" fill="none" viewBox="0 0 369 342">
  <path stroke="#E2D2BB" stroke-linecap="round" stroke-width="3" d="M41.2858 3.93553c4.2403 4.24676 8.1178 11.05267 9.4482 16.88207.9884 4.3305 1.0387 14.3889 5.5831 16.9896 1.3993.8009-3.1954 3.4369-4.4557 4.4625-4.6986 3.8234-7.9017 8.2791-11.5956 12.9035-7.1807 8.9894-14.9973 17.2175-20.024 27.6888-4.459 9.2888-10.1102 18.401-12.56188 28.495-2.5758 10.606-2.57731 21.681-4.56309 32.42-2.944473 15.925.6902 32.72 2.63049 48.442C7.9444 210.023 18.6795 226.16 27.7575 241.038c10.917 17.891 26.469 34.618 42.0878 48.442 9.7411 8.621 18.9535 17.289 30.4387 23.656 13.326 7.388 26.979 13.232 41.282 18.441 12.87 4.687 26.259 10.494 40.263 7.689 8.18-1.639 17.363-.484 25.661-.484h36.504c15.279 0 28.338-1.343 42.518-7.527 14.025-6.118 28.207-15.743 38.867-26.829 13.683-14.231 29.557-29.993 34.786-49.84 1.912-7.254 4.606-14.818 5.583-22.258 1.714-13.043 1.182-26.343 1.182-39.464 0-13.507-4.223-25.79-8.644-38.334-2.933-8.325-10.678-12.2-16.695-17.796-10.563-9.823-24.787-14.704-36.505-22.527-7.784-5.197-17.848-9.167-26.627-12.097-10.055-3.3572-19.483-8.3253-29.526-11.6134-5.291-1.7326-11.192-5.1639-16.749-5.2689-4.805-.0908-10.735 1.1243-15.031-1.5055-6.147-3.7621-12.807-6.322-18.897-10.1077-6.422-3.9925-13.145-8.6309-19.97-11.8282-11.295-5.291-21.257-12.9914-33.176-17.2047-8.589-3.0357-17.704-7.7421-27.057-7.7421-7.25 0-14.565-1.6634-21.9028-1.9355-3.218-.1194-13.0271.1825-15.6755-1.5055-5.5859-3.56-10.306-8.4161-15.5145-12.4733-3.314-2.5815-6.9202-4.5113-9.9315-7.5271C50.3737 8.73602 44.199 2 37.4205 2"/>
</svg>
