<svg xmlns="http://www.w3.org/2000/svg" fill="none" viewBox="0 0 378 135">
  <path stroke="#E2D2BB" stroke-linecap="round" stroke-width="3" d="M342.938 4.24603c-7.816 0-14.677-2.61322-22.377-2.61322H81.6786c-13.4477 0-27.371 5.06894-40.177 7.91225C29.5745 12.1932 12.0699 15.6191 5.53848 27.0391c-3.25596 5.693-3.92325 13.554-3.92325 20.325v9.7996c0 3.8003 3.49688 7.2722 3.92325 11.1062.63101 5.6741 8.32962 12.0362 11.76972 16.3326 4.1374 5.1673 9.0103 6.3965 14.3853 8.7833 6.0791 2.6995 13.7575 3.5627 20.2701 5.0087 5.5954 1.2423-2.3384 15.4375-3.9959 17.5665-4.2081 5.406-7.5934 10.445-13.6587 14.01-9.6957 5.698 8.5419 1.903 11.7697.29 8.1071-4.05 13.5596-10.06 20.6334-14.953 1.8737-1.296 4.9624-7.241 7.8465-4.936 2.537 2.028 6.8144 3.197 10.0987 3.702 9.5023 1.46 22.0327 4.872 30.7317 8.783 14.562 6.547 35.501 9.437 51.584 9.437 30.614 0 62.97 1.626 92.559-7.55 24.634-7.638 51.576-9.727 73.961-23.809 3.192-2.008 8.083-2.7074 10.753-5.2263 2.812-2.6535 6.248-4.9522 9.808-6.5331 7.573-3.3631 12.121-10.1584 16.928-16.3326 10.168-13.0622 3.667-32.154-2.543-45.8039-2.904-6.3821-8.316-15.8143-16.347-16.26-4.218-.2342-12.098-3.43048-15.693-5.22646"/>
</svg>
