<svg xmlns="http://www.w3.org/2000/svg" fill="none" viewBox="0 0 343 209">
  <path stroke="#E2D2BB" stroke-linecap="round" stroke-width="2" d="M241.344 3.13561c-18.016 0-36.083-.40598-54.089.06786-14.428.37967-28.523 3.02607-42.891 3.66465-7.752.34453-16.242.48993-23.889 1.76445-12.518 2.08623-25.9702 4.47113-38.5477 5.56483-8.7273.7589-17.4001 5.1229-26.2639 6.1077-8.5444.9494-16.9986 8.3251-24.4316 12.1476-4.4761 2.302-7.2211 5.8064-11.2657 8.5509-3.4252 2.3241-8.2121 4.1651-10.72276 7.6007C-.706554 62.2196-1.25951 84.2827 5.5786 99.3664 14.975 120.093 34.84 130.114 56.2742 133.841c8.7468 1.521 17.5839 6.473 26.2639 7.262 10.6802.971 21.1209 3.564 31.6929 4.886 9.791 1.224 11.311 15.708 13.506 24.227 2.982 11.58 3.664 22.657 3.664 34.475 0 7.353 2.093-4.98 2.715-7.329 2.212-8.357 4.615-16.685 4.615-25.653v-11.605c0-1.922.349-4.229-.068-6.107-.731-3.29-1.668-2.383 2.511-1.222 5.547 1.541 12.143.611 17.849.611h35.222c9.499 0 18.803.026 28.232-1.289 10.335-1.443 20.12-6.199 29.861-9.705 13.263-4.775 26.513-10.813 39.09-17.102 8.317-4.158 16.694-7.833 23.482-14.387 11.246-10.858 26.603-24.8884 26.603-41.8038 0-13.5345-5.261-30.8979-16.491-39.6325-9.632-7.4915-23.422-12.7676-35.29-15.405-8.691-1.9313-17.068-7.26145-26.4-7.26145-9.382 0-18.411-4.88619-28.096-4.88619"/>
</svg>
