<svg xmlns="http://www.w3.org/2000/svg" fill="none" viewBox="0 0 554 378">
  <path fill="#E2D2BB" stroke="#E2D2BB" stroke-linecap="round" stroke-width="3" d="M9.64863 330.299c-2.26565 3.019-5.40656 7.385-5.80766 11.192v.933c-5.70622 0 3.59094.291 5.13355-.052 2.45448-.545 7.21268-2.035 9.33378-3.212 2.2481-1.248 5.9561-1.841 8.4003-2.384 3.8819-.862 7.2786-4.232 10.7338-5.959 7.8835-3.938 14.8286-12.992 22.9195-6.062 1.7297 1.482 2.8591 3.6 4.6669 5.078 3.1297 2.559 7.5076 3.693 11.0449 5.544 8.9859 4.704 19.6884 6.393 29.0383 10.311 16.036 6.72 33.483 10.959 50.558 14.042 17.383 3.139 34.876 7.485 52.061 11.607 9.814 2.353 18.273 4.663 28.416 4.663 32.111 0 63.79-.152 95.775-3.834 34.552-3.979 66.579-15.174 97.796-30.157 16.311-7.828 34.638-16.469 48.225-28.653 2.584-2.318 2.97-5.559 5.289-7.876 4.186-4.183 7.538-11.076 10.163-16.322 12.002-23.986 22.878-48.545 34.172-72.851 16.609-35.746 29.177-79.907 22.712-119.5887-2.157-13.2405-5.102-21.9894-14.623-31.5033-11.231-11.2229-23.698-20.6284-36.194-30.3635-4.578-3.5665-11.28-6.6861-16.593-9.1194-9.476-4.3399-17.493-11.4452-27.172-15.85531-17.856-8.13635-36.124-7.87585-55.38-7.87585h-.146c-35.497 0-70.975 0-106.466.72541-33.693.68865-67.296 1.16985-100.908 3.73066-17.608 1.34153-35.699 1.78801-52.995 5.59599-7.767 1.7102-14.235 5.8049-21.882 7.6686-6.804 1.6582-13.051 3.4901-19.3935 6.5287C74.1491 37.9292 56.4239 56.9839 44.702 81.2775c-4.8188 9.987-11.7235 23.2525-11.9265 34.6125-.1986 11.112.8183 22.118.9334 33.161.1421 13.63.5746 26.697 2.5927 40.209 2.1536 14.418 5.8077 27.092 5.8077 41.762 0 18.835.458 37.913-1.1408 56.686-.5616 6.593-1.5689 10.373-6.8448 14.404-5.4912 4.196-9.9167 9.028-14.4154 14.197-3.6701 4.218-6.6793 9.487-10.05967 13.99Z"/>
</svg>
