<svg xmlns="http://www.w3.org/2000/svg" fill="none" viewBox="0 0 427 222">
    <path stroke="#E2D2BB" fill="none" stroke-linecap="round" stroke-width="3" d="M298.05 8.53662c-22.484 0-44.62-3.26831-67.181-3.26831h-53.383C149.362 5.26831 121.85 2 93.7812 2c-21.7793 0-38.3843.16334-57.1954 12.2562C20.1892 24.7968 4.23961 41.7068 3.90274 61.919c-.18052 10.8309-4.707294 23.1092.90786 33.3186 8.1003 14.7274 19.9991 25.7184 31.7752 37.4944 11.1892 11.189 27.5141 18.034 41.0354 26.147 18.2699 10.962 39.7188 16.517 60.9178 17.885 26.815 1.73 58.387 3.214 84.34-3.995 8.324-2.312 20.25-1.101 27.781-4.448 2.755-1.225 6.191-6.195 6.537-.545.391 6.386 2.836 13.275 5.265 19.247 3.583 8.807 7.808 20.235 7.808 29.868 0 9.912 2.782-5.23 3.631-7.353 4.66-11.649 2.905-25.885 2.905-38.312 0-9.867 2.827-7.047 11.076-9.442 15.417-4.476 31.384-9.627 44.486-19.156 25.552-18.583 56.22-30.392 75.171-56.923 7.018-9.8261 25.142-32.4163 13.073-44.4853-13.757-13.7568-30.455-17.808-48.117-23.6952-12.611-4.2036-28.392-4.0854-41.761-4.0854-12.764 0-26.608-4.90248-39.22-4.90248"/>
</svg>
