<svg xmlns="http://www.w3.org/2000/svg" fill="none" viewBox="0 0 362 115">
  <path stroke="#E2D2BB" stroke-linecap="round" stroke-width="2" d="M1.40234 1.89844C2.41247 10.9894 11.6494 20.1531 17.5543 26.0579c2.6697 2.6696-1.7894 12.8145-3.2575 15.5408-2.0198 3.751-1.6049 16.3466.5429 19.8841 5.329 8.7769 15.0955 15.3862 24.4316 19.2054 13.5414 5.5395 26.4038 12.5336 40.3122 17.1696 12.7961 4.2652 26.3565 7.2532 39.6335 9.6362 6.632 1.191 13.314.449 19.952 1.629 4.987.887 11.159 1.493 16.22 1.493 9.004 0 17.736 2.443 26.807 2.443h24.432c9.491 0 20.021.967 29.046-2.443 10.291-3.887 23.325-8.551 34.476-8.551 11.995 0 17.859-12.9971 27.825-16.8299 8.66-3.3307 27.061-5.6872 32.032-14.3871 1.218-2.1304 1.222-3.776 1.222-6.1756 0-9.0683 4.201-6.5828 12.759-6.5828 2.552 0 12.944.7431 14.048-3.1217 1.113-3.8956 2.511-7.4783 2.511-11.5369 0-6.2719-2.24-5.8192-4.887-10.451-1.777-3.1106-8.051-7.0912-10.994-8.8223-5.478-3.2224-11.617-6.2883-17.713-8.1436-17.487-5.3221-34.822-5.2757-52.867-7.05783-16.013-1.58153-31.82-2.17164-47.913-2.17164-17.404 0-34.588-1.22155-51.985-1.22155-17.048 0-33.912-2.4431-50.899-2.4431-13.059 0-25.8483.29168-38.8192 1.28942-9.7187.74757-21.2015.63459-30.6074 2.986-9.2411 2.31022-19.0355 1.83232-28.6392 1.83232-9.3601 0-15.1456-3.60257-22.59928-7.32928"/>
</svg>
