<svg xmlns="http://www.w3.org/2000/svg" fill="none" viewBox="0 0 321 256">
  <path fill="#E2D2BB" d="M169.772 55.9468c1.703 1.7035 4.419 3.4065 6.197 5.4979 14.736.0369 30.077 1.2206 45.245 1.2206 14.864 0 28.759 1.3495 43.23 5.1577 8.293 2.1823 15.848 6.9919 23.821 10.1117 6.705 2.6236 13.181 5.8514 18.324 10.9939 13.51 13.5104 12.826 30.8584 12.826 48.8614 0 12.033-1.282 22.976-4.208 34.679-3.131 12.526-6.373 17.535-16.287 25.245-11.075 8.613-24.297 15.813-37.598 20.156-20.344 6.642-40.245 15.609-59.789 24.295-25.752 11.445-50.37 12.283-77.978 12.283h-.384c-16.25.001-30.9.001-46.1716-4.886-10.2778-3.289-21.7667-8.732-30.4038-15.066-24.6712-18.091-36.3212-46.39-42.89098-75.057-3.093351-13.498-1.90023-27.75-1.90023-41.533 0-9.316 2.00398-14.42 7.32948-21.9874C17.6657 83.7947 29.9641 72.2661 45.1705 69.9268c25.5799-3.9353 51.8429.9072 77.5025 2.5109 6.683.4177 13.83 2.1156 20.563 1.1537 1.397-.1996-1.398-3.7593-1.9-4.8183-3.25-6.8599-5.736-15.2308-7.872-22.5308-3.934-13.4409-11-26.1485-14.388-39.70029-1.747-6.988602-.457-5.547278 3.801-1.28941 9.659 9.6588 18.996 19.1021 27.96 29.5886 6.134 7.175 12.256 14.4273 18.935 21.1056Z"/>
  <path stroke="#E2D2BB" stroke-linecap="round" stroke-width="2" d="M177.712 65.1084c-.397-3.9702-5.344-6.5654-7.94-9.1616-6.679-6.6783-12.801-13.9306-18.935-21.1056-8.964-10.4865-18.301-19.9298-27.96-29.5886-4.258-4.257868-5.548-5.699192-3.801 1.28941 3.388 13.55179 10.454 26.25939 14.388 39.70029 2.136 7.3 4.622 15.6709 7.872 22.5308.502 1.059 3.297 4.6187 1.9 4.8183-6.733.9619-13.88-.736-20.563-1.1537-25.6596-1.6037-51.9226-6.4462-77.5025-2.511-15.2064 2.3394-27.5048 13.868-36.03663 25.9919-5.3255 7.5674-7.32948 12.6714-7.32948 21.9874 0 13.783-1.193121 28.035 1.90023 41.533 6.56978 28.667 18.21978 56.966 42.89098 75.057 8.6371 6.334 20.126 11.777 30.4038 15.066 15.3918 4.925 30.1526 4.886 46.5556 4.886 27.608 0 52.226-.838 77.978-12.283 19.544-8.686 39.445-17.653 59.789-24.295 13.301-4.343 26.523-11.543 37.598-20.156 9.914-7.71 13.156-12.719 16.287-25.245 2.926-11.703 4.208-22.646 4.208-34.679 0-18.003.684-35.351-12.826-48.8614-5.143-5.1425-11.619-8.3703-18.324-10.9939-7.973-3.1198-15.528-7.9294-23.821-10.1117-14.471-3.8082-28.366-5.1577-43.23-5.1577-15.408 0-30.996-1.2215-45.945-1.2215"/>
</svg>
