<svg xmlns="http://www.w3.org/2000/svg" fill="none" viewBox="0 0 411 322">
  <path fill="#E2D2BB" stroke="#E2D2BB" stroke-linecap="round" stroke-width="3" d="M359.18 20.8061C375.386 16.9299 388.956 2 406.482 2l1.526 1.59675c-7.056 3.69152-9.155 22.83975-9.155 30.33825 0 10.1492-1.159 24.4176 2.712 33.5317 2.585 6.0858.339 17.4181.339 23.9512v35.1281c0 31.786-7.2 61.854-22.379 89.241-16.874 30.444-41.465 59.099-68.325 80.369-22.618 17.912-46.202 23.597-74.09 23.597h-45.437c-17.271 0-36.151 1.718-52.897-3.903-16.711-5.609-38.248-10.626-52.3885-21.645-12.7779-9.958-24.7034-20.277-35.7733-32.29-12.1403-13.175-18.0601-28.348-27.4657-43.112-5.7153-8.971-8.1081-19.277-13.39377-28.387-4.22589-7.283-7.48513-16.944-7.62937-25.548-.27587-16.455-.30696-32.284 2.71266-48.434 1.54036-8.239 5.12936-16.099 8.30758-23.7742 3.1364-7.5741 6.9805-18.7381 12.207-24.8383 16.292-19.016 38.9565-32.4517 62.2217-39.0316 20.1377-5.6955 40.4277-4.4354 61.3737-4.4354 19.49 0 38.263 3.1935 57.644 3.1935 26.312 0 52.702.6256 79.007 0 12.546-.2984 25.009-3.1935 37.808-3.1935 10.959 0 25.073-.989 35.773-3.5484Z"/>
</svg>
