<svg xmlns="http://www.w3.org/2000/svg" fill="none" viewBox="0 0 474 319">
  <path fill="#E2D2BB" stroke="#E2D2BB" stroke-linecap="round" stroke-width="3" d="M148.295 8.91939h75.119l1.489-1.48914c3.057-6.11387 16.911-.89751 22.337-3.30919 6.562-2.91635 16.623-1.15822 23.826-1.15822 11.022 0 23.351.17759 33.92 3.30919 17.221 5.10247 34.924 6.57117 52.533 10.09307 30.446 6.0892 75.013-.8729 91.086 31.2719 4.964 9.9273 8.624 21.1826 13.816 30.5273 4.217 7.5911 4.586 15.7161 7.859 23.0817 3.446 7.754.331 23.116.331 31.603 0 9.005 2.195 22.225-2.234 30.196-4.379 7.883-5.878 16.302-12.657 23.082-3.648 3.648-6.891 8.008-10.424 11.913-9.317 10.298-7.917 13.125-9.018 26.887-.97 12.13-7.909 25.532-16.298 34.168-13.352 13.745-34.502 18.218-52.037 25.232l-.671.269c-15.751 6.301-31.567 12.627-47.891 17.353-9.173 2.655-17.814 4.923-27.136 6.618-9.952 1.81-20.128 6.264-30.113 7.032-42.349 3.258-86.185.01-122.441-23.743-8.53-5.589-16.275-12.091-24.653-17.87-5.939-4.096-12.632-8.22-15.9671-14.891-4.1813-8.363-11.2888-16.112-16.2151-24.323-2.6378-4.396-2.6937-3.971-8.3557-3.971-10.0965 0-20.0391-.976-29.7828-1.489-13.5739-.714-26.2411-7.403-39.46215-10.341-7.08177-1.574-1.66299-1.573 2.60938-1.572h.28616c4.44361 0 8.41931 1.489 13.07131 1.489 7.8856 0 15.7729.511 23.4953-1.158 6.9106-1.494 16.0197-3.309 23.0817-3.309 8.0194 0 4.5172.275 0-2.234-4.4403-2.467-9.7742-3.818-13.4023-7.446-7.3824-7.382-13.5367-10.679-17.456-21.261-2.5473-6.878-6.051-12.861-8.273-20.021-2.5919-8.352-3.3092-16.195-3.3092-24.902V119.86c0-7.218 4.2599-13.965 5.6257-20.9304 3.0023-15.3119 15.2794-28.9133 25.0671-40.2068 12.7594-14.7224 24.991-28.3012 41.7786-38.2212C113.67 11.1417 130.255 8.91939 148.295 8.91939Z"/>
</svg>
