<svg xmlns="http://www.w3.org/2000/svg" fill="none" viewBox="0 0 375 396">
  <path stroke="#E2D2BB" stroke-linecap="round" stroke-width="3" d="M114.593 3.55452V55.1991c0 7.3644 1.809 9.6442-5.523 10.6225-12.9102 1.7227-24.7557 4.0582-36.4171 9.5862-7.3912 3.5038-12.5736 10.4289-19.4166 13.4725-14.2797 6.3515-23.672 22.6847-31.0664 35.8407-6.4614 11.495-12.54918 22.711-16.65511 35.495-4.4256 13.779-3.82999 31.671-2.67517 46.117 1.26985 15.885 9.13698 34.869 16.22358 49.054 8.5252 17.063 15.9942 34.206 27.5284 49.744 19.954 26.882 44.7052 55.551 76.6304 68.054 26.804 10.496 59.736 25.894 88.281 19.172 21.065-4.96 42.062-15.304 61.529-25.045 11.67-5.84 22.481-13.344 31.756-22.627 9.873-9.88 16.774-21.394 25.371-32.645 23.045-30.158 40.732-65.669 40.732-104.153v-56.653c0-9.059 1.553-18.185 1.553-27.636 0-4.483 1.474-11.795-.345-15.891-3.107-6.997-9.024-12.4851-14.325-17.7903-19.418-19.4329-48.412-25.2499-74.214-30.054-8.153-1.5181-16.831-3.2136-24.854-5.3545-9.127-2.4359-18.769-1.0819-27.614-3.5408-12.042-3.3477-27.443-.7773-40.041-.7773-10.337 0-21.965-1.4272-32.102.8636-5.242 1.1845-8.673 2.2454-14.067 2.2454-6.256 0-6.795-4.0181-8.888-9.6725-2.233-6.0342-9.38-18.944-14.411-22.9724-4.735-3.7909-5.193-13.25863-6.99-18.6542"/>
</svg>
