<svg xmlns="http://www.w3.org/2000/svg" fill="none" viewBox="0 0 293 229">
  <path fill="#E2D2BB" d="M249.17 227.341c.036.245.067.49.092.735l-.092-.735c-1.225-8.173-8.999-15.678-11.161-23.782-1.358-5.087-3.522-14.085-7.112-18.27-3.613-4.212-24.624 4.243-29.305 4.763-9.295 1.032-18.228 3.403-27.585 4.216-22.597 1.963-46.986.983-68.769-4.138-19.7383-4.64-44.5426-13.175-60.017-26.703-15.0107-13.123-29.6485-25.702-36.18186-45.285-4.30297-12.898-7.34578-25.085-7.34578-38.7273 0-16.4246 6.6348-27.1885 19.69294-37.1654 6.0999-4.6605 11.9524-11.044 19.3803-13.4295 10.7092-3.4392 22.5012-8.2951 32.6653-12.961C100.255 3.54529 129.511 1.80469 158.455 1.80469c23.81 0 45.845 1.89372 68.3 10.61871 16.6 6.4497 34.541 13.848 48.451 25.2193 10.071 8.2328 16.255 24.9794 16.255 37.9461 0 18.1966-.536 31.8672-11.253 47.3932-5.23 7.577-11.511 13.741-16.88 21.082-2.712 3.708-8.763 10.996-12.66 13.429-7.425 4.637-7.033 19.305-7.033 27.015 0 11.506 4.22 21.334 4.22 32.325l1.315 10.508Z"/>
  <path stroke="#E2D2BB" stroke-linecap="round" stroke-width="3" d="M249.262 228.076c-.847-8.46-9.026-16.171-11.253-24.517-1.358-5.087-3.522-14.085-7.112-18.27-3.613-4.212-24.624 4.243-29.305 4.763-9.295 1.032-18.228 3.403-27.585 4.216-22.597 1.963-46.986.983-68.769-4.138-19.7383-4.64-44.5426-13.175-60.017-26.703-15.0107-13.123-29.6485-25.702-36.18186-45.285-4.30297-12.898-7.34578-25.085-7.34578-38.7273 0-16.4246 6.6348-27.1885 19.69294-37.1654 6.0999-4.6605 11.9524-11.044 19.3803-13.4295 10.7092-3.4392 22.5012-8.2951 32.6653-12.961C100.255 3.54529 129.511 1.80469 158.455 1.80469c23.81 0 45.845 1.89372 68.3 10.61871 16.6 6.4497 34.541 13.848 48.451 25.2193 10.071 8.2328 16.255 24.9794 16.255 37.9461 0 18.1966-.536 31.8672-11.253 47.3932-5.23 7.577-11.511 13.741-16.88 21.082-2.712 3.708-8.763 10.996-12.66 13.429-7.425 4.637-7.033 19.305-7.033 27.015 0 11.506 4.22 21.334 4.22 32.325l1.407 11.243Z"/>
</svg>
