<svg xmlns="http://www.w3.org/2000/svg" fill="none" viewBox="0 0 480 307">
  <path stroke="#E2D2BB" stroke-linecap="round" stroke-width="3" d="M128.202 5.4638c-22.168 0-44.7302-1.2809-64.0693 11.6118-6.358 4.2387-13.4277 8.4321-20.0143 12.137-7.2739 4.0915-12.1871 10.1691-18.614 15.1129-3.838 2.9523-9.009 9.8751-11.7869 13.8875-3.3863 4.8914-5.90121 9.7759-7.35217 15.5797-3.87668 15.5067-4.20127 33.3133-4.20127 49.3063 0 21.218 12.85904 39.186 24.15724 56.134 4.9785 7.467 13.9124 13.971 21.0064 19.489 6.22 4.838 11.4886 10.304 18.0887 14.704 22.2864 14.858 47.6866 24.09 72.2386 34.427 1.648.695 3.603-.227 5.251.467 2.747 1.157 5.379 2.701 8.17 3.735 3.992 1.478 6.983 3.542 11.261 4.493 10.04 2.231 18.608 11.403 28.884 12.545 3.633.404 8.249 2.743 11.787 3.968 4.616 1.598 8.297 1.371 12.895 2.392 7.858 1.746 16.483.992 24.683.992 8.222 0 16.85-1.05 24.741-1.05 4.391 0 8.243-2.101 12.545-2.101 1.814 0 9.897-3.667 10.211-3.384 3.222 2.9 5.22 6.737 8.17 9.686 3.023 3.024 8.883 6.665 12.662 8.87 7.23 4.218 14.739 7.626 22.523 11.086 3.635 1.616 8.071 1.742 11.554 3.676 5.833 3.241 2.563 1.171-.526-1.575-4.714-4.191-10.622-6.726-13.887-12.604-1.033-1.858-2.296-2.278-3.151-4.201-.872-1.963-2.196-4.099-3.501-5.777-2.182-2.806-9.248-11.697-7.586-15.229 2.571-5.462 15.231-9.008 20.19-11.554 9.003-4.623 16.68-11.725 25.791-16.28 7.547-3.774 13.938-9.456 21.24-13.771 7.323-4.327 13.804-9.528 21.006-14.062 12.069-7.6 23.742-16.492 34.894-25.616 8.745-7.156 16.128-13.748 22.64-23.516 4.714-7.071 6.598-14.673 9.453-22.523 1.402-3.856 1.571-8.329 2.334-12.37 1.273-6.748 4.155-12.939 5.018-19.84 1.152-9.2168 2.227-15.3086 0-24.2154-1.641-6.5639-5.775-13.3176-8.169-19.781-1.743-4.7064-4.854-11.5047-7.586-15.7547-3.137-4.8798-5.435-11.6984-10.036-15.463-14.434-11.8096-31.265-13.1289-49.598-13.1289-6.221 0-12.453-.1131-18.673 0-4.775.0868-9.038 1.5208-13.887.8169-16.638-2.4152-33.532-7.54614-49.774-11.84525-19.365-5.126234-37.501-2.62579-57.125-2.62579h-32.677c-10.038 0-21.406-1.44886-31.276.52515-15.147 3.02939-31.585 2.62579-47.03 2.62579-9.622 0-19.635 2.10064-29.176 2.10064"/>
</svg>
