<svg xmlns="http://www.w3.org/2000/svg" fill="none" viewBox="0 0 387 344">
  <path stroke="#E2D2BB" stroke-linecap="round" stroke-width="3" d="M359.141 13.9081c0 23.2906-21.378 36.1288-40.191 46.0307-18.155 9.5553-36.483 18.8932-57.882 18.8932-29.345 0-59.144 3.5521-88.283-2.7481-13.794-2.9826-29.84-.0481-43.883-1.8035-11.725-1.4655-24.503-.0859-36.3268-.0859-16.9942 0-30.8756 7.1077-45.6872 14.5134-11.2889 5.6445-23.3311 11.0972-29.7138 22.5861-13.06281 23.513-15.62377 48.579-15.11456 75.057.22198 11.544 5.64472 21.095 9.27486 31.603 3.604 10.433 7.233 20.296 11.6794 30.401 9.3239 21.191 23.0249 39.857 39.3322 56.165 25.086 25.086 58.0679 37.099 93.4349 37.099h53.073c13.017 0 21.065-4.375 32.806-7.729 11.359-3.246 22.691-12.958 30.916-20.954 12.865-12.508 26.556-23.774 37.872-37.701 8.256-10.161 15.137-18.798 18.979-31.861 3.35-11.388 8.658-20.146 15.029-30.057 13.034-20.275 32.118-40.186 34.866-64.924 1.345-12.106 6.098-23.231 6.098-35.553 0-7.677-8.376-13.4475-14.6-17.0042-3.656-2.0892-13.131-8.6209-15.114-12.3664-4.111-7.7639 2.076-11.2767 3.521-17.7768 1.988-8.9469 7.643-17.5243 7.643-27.0516V19.3184c0-6.23-4.27-9.97635-4.638-16.23093-.214-3.651283-2.729 2.98231-3.005 3.95039-.936 3.27374-.086 8.13404-.086 11.50764"/>
</svg>
