<svg xmlns="http://www.w3.org/2000/svg" fill="none" viewBox="0 0 388 241">
  <path fill="#E2D2BB" stroke="#E2D2BB" stroke-linecap="round" stroke-width="3" d="M20.9593 30.0068c-4.7436-6.9117-8.1273-14.6589-8.1273-23.11125l.1497.14958c-1.0039-1.43808-1.854-3.67625-1.4782-4.99044.3517-1.229854 3.8972 1.53345 4.767 2.03003 3.1146 1.77824 8.1609 4.86711 10.5497 7.65168 2.2328 2.6026 8.0122 3.8394 9.9247 7.1832 2.2691 3.9676 8.3346 7.5676 11.9564 10.4625 5.8118 4.6454 25.4422 1.4054 32.7434 1.4054 8.9371 0 17.3529.0459 25.9443 2.4986 8.474 2.4189 17.47 1.2063 26.101 2.8108 20.049 3.7267 41.61 7.3394 62.127 7.3394 28.272 0 55.894 5.7112 83.773 9.8378 25.647 3.7962 50.765 9.8968 75.333 17.5677 13.805 4.3103 21.269 11.3729 28.758 23.3454 4.125 6.5928 2.11 17.8328 2.11 25.1408 0 9.895 1.861 21.721-2.501 30.92-11.201 23.627-34.138 31.881-55.171 46.066-16.709 11.269-39.123 18.196-57.672 25.61-12.687 5.07-25.847 8.166-38.683 12.726-12.302 4.371-23.653 4.139-36.572 4.139-13.682 0-27.121-.529-40.715-2.109-11.896-1.382-24.146-1.316-35.244-6.324-17.12-7.725-35.1894-12.349-52.0454-21.081-26.5275-13.743-44.7412-33.681-58.06292-59.808-8.61075-16.888-7.34577-34.192-7.34577-52.6251 0-19.8215 8.91039-36.6181 20.78699-52.0002 4.5332-5.8713 2.4112-9.2721-1.4066-14.8349Z"/>
</svg>
