<svg xmlns="http://www.w3.org/2000/svg" fill="none" viewBox="0 0 364 294">
  <path fill="#E2D2BB" stroke="#E2D2BB" stroke-linecap="round" stroke-width="2" d="M36.2357 34.9252C63.7524 11.5149 98.4229 3.62594 134.865 3.62594h-6.498c4.209-2.691196 12.191-1.24643 17.184-1.24643h21.155c13.713 0 28.235 4.56608 41.806 6.3014 21.976 2.81019 43.571 7.77919 64.116 15.44189 13.412 5.0023 26.891 10.2073 40.289 15.6496 7.091 2.8801 13.74 6.8626 20.795 9.9715 4.269 1.8812 8.992 2.7791 11.697 6.9939 6.609 10.2996 14.84 19.9042 16.823 32.2687 1.685 10.5029.072 22.5665.072 33.1685 0 13.382-1.442 26.498-4.549 39.609-2.054 8.669-3.408 17.952-8.447 25.344-5.625 8.251-13.82 14.224-21.3 21.397-9.298 8.918-18.674 16.06-30.109 22.228-.757.409.691 1.704.722 2.493.08 1.979 0 3.975 0 5.955v6.856c0 11.273-6.099 23.002-10.397 33.307-1.511 3.624-4.952 9.646-5.199 13.434-.081 1.249 0-4.148 0-5.263 0-8.228-.638-16.072-1.371-24.167-.494-5.443-3.112-10.276-4.477-15.511-2.255-8.652 1.328-10.446-11.192-9.625-20.857 1.368-37.125 2.895-57.545-2.701-24.798-6.795-55.502-5.208-80.073-12.459-10.511-3.102-20.743-6.438-30.2534-11.91-5.4095-3.113-12.1879-4.737-17.9063-7.479-5.605-2.688-11.3885-5.304-16.6789-8.587-10.8076-6.706-23.0401-9.729-33.2855-17.45-7.4137-5.586-7.193-19.142-13.6464-25.695-3.835-3.894-7.66986-13.008-9.09758-18.142-2.70366-9.724-6.49827-17.668-6.49827-27.976 0-11.952-.175047-23.3251 5.19862-34.2766C13.1167 57.4589 24.1114 45.2402 36.2357 34.9252Z"/>
</svg>
