<svg xmlns="http://www.w3.org/2000/svg" fill="none" viewBox="0 0 256 214">
  <path stroke="#E2D2BB" stroke-linecap="round" stroke-width="2" d="M153.052 51.1891H85.0506c-24.2454 0-53.6586 12.3329-69.6301 31.0816C7.62677 91.4196 4.2729 97.5722 2.52606 109.145c-1.64042 10.867-2.181799 23.301.27146 34.067C5.56781 155.37 15.296 167.376 23.8358 176.058c12.7405 12.953 27.2945 22.183 44.1126 28.91 27.2408 10.896 61.3326 6.244 89.9896 6.244 28.769 0 52.144-21.748 70.852-40.99 7.772-7.994 11.471-19.847 15.609-29.996 2.793-6.848 8.402-16.733 8.822-24.295.455-8.187 1.222-16.9217 1.222-25.5845 0-10.4634-3.854-13.1225-12.284-18.3911-2.857-1.7856-21.22-4.5727-21.852-6.7864-1.522-5.3268 3.808-11.4424 4.818-16.4909 1.705-8.5235 2.443-16.8913 2.443-25.5846 0-6.7593-1.327-12.3575-2.511-18.86614-.928-5.104586-2.375-3.567142-2.375.54291 0 8.54413-4.954 19.06983-10.994 25.10963-5.3 5.2991-13.902 13.6079-21.378 15.2693-8.133 1.8073-15.856 4.8183-24.432 4.8183h-20.156"/>
</svg>
