<svg xmlns="http://www.w3.org/2000/svg" fill="none" viewBox="0 0 304 240">
  <path stroke="#E2D2BB" stroke-linecap="round" stroke-width="3" d="M34.2832 3.67175c3.4853 2.96519 6.6723 7.71725 7.7658 11.78745.8123 3.0237.8537 10.0467 4.5888 11.8626 1.1501.5592-2.6264 2.3997-3.6623 3.1158-3.8618 2.6696-6.4945 5.7807-9.5306 9.0096-5.9019 6.2766-12.3265 12.0216-16.458 19.333-3.665 6.4856-8.30982 12.848-10.32489 19.8961-2.1171 7.4049-2.11834 15.1379-3.75049 22.6367-2.420114 11.118.56729 22.845 2.16204 33.823 1.80583 12.431 10.62914 23.698 18.09064 34.086 8.9728 12.492 21.7553 24.172 34.5927 33.824 8.0063 6.019 15.5781 12.071 25.0179 16.517 10.9531 5.159 22.1742 9.239 33.9312 12.876 10.577 3.273 21.582 7.327 33.092 5.368 6.723-1.144 14.271-.337 21.091-.337h30.004c12.558 0 23.291-.938 34.946-5.256 11.528-4.271 23.184-10.992 31.945-18.732 11.247-9.937 24.294-20.942 28.592-34.8 1.571-5.065 3.786-10.346 4.589-15.541 1.408-9.107.971-18.393.971-27.554 0-9.431-3.471-18.008-7.104-26.766-2.412-5.813-8.777-8.519-13.723-12.4259-8.681-6.8587-20.372-10.2666-30.003-15.7292-6.398-3.6287-14.67-6.4002-21.886-8.4465-8.265-2.3439-16.013-5.8127-24.268-8.1086-4.349-1.2097-9.198-3.6056-13.766-3.6789-3.949-.0634-8.823.7851-12.355-1.0511-5.052-2.6268-10.526-4.4142-15.531-7.0575-5.279-2.7876-10.804-6.0263-16.414-8.2587-9.283-3.6943-17.471-9.071-27.268-12.0128-7.059-2.1196-14.551-5.4057-22.2383-5.4057-5.959 0-11.9711-1.1614-18.0024-1.3514-2.6449-.0834-10.7072.1274-12.884-1.0511-4.5911-2.4857-8.4706-5.8764-12.7516-8.7093-2.7238-1.8024-5.6878-3.1498-8.1629-5.2555-3.826-3.25523-8.9011-7.95849-14.4724-7.95849"/>
</svg>
