<svg width="298" height="113" viewBox="0 0 298 113" fill="none" xmlns="http://www.w3.org/2000/svg">
<path d="M1 1C1.83253 10.0675 9.44542 19.2076 14.3122 25.0971C16.5125 27.7598 12.8373 37.8785 11.6274 40.5978C9.96267 44.3391 10.3046 56.9022 12.0748 60.4305C16.4669 69.1848 24.5162 75.777 32.2109 79.5864C43.3714 85.1116 53.9723 92.0875 65.4354 96.7116C75.9817 100.966 87.1579 103.947 98.1005 106.323C103.567 107.511 109.074 106.771 114.545 107.948C118.655 108.832 123.742 109.437 127.913 109.437C135.333 109.437 142.531 111.874 150.007 111.874C156.719 111.874 163.431 111.874 170.143 111.874C177.965 111.874 186.644 112.838 194.082 109.437C202.564 105.56 213.306 100.908 222.497 100.908C232.383 100.908 237.216 87.9445 245.429 84.1215C252.567 80.7994 267.733 78.449 271.83 69.7715C272.833 67.6466 272.837 66.0053 272.837 63.6119C272.837 54.567 276.299 57.0461 283.352 57.0461C285.456 57.0461 294.02 57.7873 294.93 53.9324C295.848 50.0469 297 46.4734 297 42.4254C297 36.1696 295.154 36.6211 292.973 32.0013C291.508 28.8987 286.337 24.9284 283.912 23.2018C279.396 19.9877 274.337 16.9297 269.313 15.0792C254.9 9.77089 240.613 9.81717 225.741 8.03961C212.543 6.46216 199.515 5.87357 186.252 5.87357C171.907 5.87357 157.745 4.65518 143.407 4.65518C129.356 4.65518 115.457 2.21839 101.457 2.21839C90.6937 2.21839 80.153 2.50932 69.4626 3.50448C61.4526 4.25012 51.9887 4.13743 44.2366 6.48277C36.6202 8.78703 28.5479 8.31036 20.6327 8.31036C12.9183 8.31036 8.14994 4.71709 2.0068 1" stroke="#E2D2BB" stroke-width="2" stroke-linecap="round"/>
</svg>
