<svg xmlns="http://www.w3.org/2000/svg" fill="none" viewBox="0 0 302 130">
  <path fill="#E2D2BB" d="M76.3614 14.0616C102.763.834754 132.802 3.87971 161.746 4.24586c3.536-3.683588 6.227-3.22794 11.438-3.22794h11.39c8.337 0 17.506.68218 25.63 2.49099 12.38 2.7565 25.336 3.50625 37.653 7.47299 3.995 1.2866 8.016 2.5391 11.979 3.9403 4.041 1.4293 8.764 2.156 12.611 4.0308 7.31 3.5631 16.906 6.976 20.747 14.6742 2.043 4.0923 4.143 8.0837 6.103 12.2285 2.237 4.7331 1.627 9.9254 1.627 15.0365 0 6.7772-1.143 11.3185-5.289 16.3953-6.731 8.243-14.976 14.5578-23.55 20.7431-7.94 5.7284-16.044 14.9164-25.674 17.7544-14.902 4.391-29.829 7.902-45.067 11.141-22.145 4.707-43.555.789-64.864-5.616-14.119-4.244-27.523-11.903-40.5915-18.569-9.4834-4.8376-18.3475-11.1836-26.8498-17.573-5.4651-4.1068-12.1929-8.3403-16.2727-13.8589-1.9833-2.6828-7.4252-9.1487-10.984-9.1487-9.882 0-19.1098-.0286-28.5224-3.0798-2.9218-.9472-9.89106-5.6393-11.57165-8.3335-1.35997-2.1802-.54077-.8152 1.03964-.8152h5.74063c7.49218 0 15.03238-.8153 22.64608-.8153 3.5364 0 8.8307.9306 12.1593-.1811 1.2187-.407 1.9602-4.8215 2.5765-5.9331 3.3192-5.9862 5.6548-12.1878 10.6225-17.1652 5.5826-5.5936 12.8846-8.2666 19.8888-11.7756Z"/>
  <path stroke="#E2D2BB" stroke-linecap="round" stroke-width="2" d="M166.675 4.27885c-30.444 0-62.41-4.1966152-90.3136 9.78275-7.0042 3.509-14.3062 6.182-19.8888 11.7756-4.9677 4.9774-7.3033 11.179-10.6225 17.1652-.6163 1.1116-1.3578 5.5261-2.5765 5.9331-3.3286 1.1117-8.6229.1811-12.1593.1811-7.6137 0-15.1539.8153-22.64608.8153H2.72759c-1.58041 0-2.39961-1.365-1.03964.8152 1.68059 2.6942 8.64985 7.3863 11.57165 8.3335 9.4126 3.0512 18.6404 3.0798 28.5224 3.0798 3.5588 0 9.0007 6.4659 10.984 9.1487 4.0798 5.5186 10.8076 9.7521 16.2727 13.8589 8.5023 6.3894 17.3664 12.7354 26.8498 17.573 13.0685 6.666 26.4725 14.325 40.5915 18.569 21.309 6.405 42.719 10.323 64.864 5.616 15.238-3.239 30.165-6.75 45.067-11.141 9.63-2.838 17.734-12.026 25.674-17.7544 8.574-6.1853 16.819-12.5001 23.55-20.7431 4.146-5.0768 5.289-9.6181 5.289-16.3953 0-5.1111.61-10.3034-1.627-15.0365-1.96-4.1448-4.06-8.1362-6.103-12.2285-3.841-7.6982-13.437-11.1111-20.747-14.6742-3.846-1.8748-8.57-2.6015-12.611-4.0308-3.963-1.4012-7.984-2.6537-11.979-3.9403-12.317-3.96674-25.273-4.71649-37.653-7.47299-8.124-1.80881-17.293-2.49099-25.63-2.49099h-11.39c-5.581 0-8.271-.5226-12.205 4.07617"/>
</svg>
