<svg width="303" height="164" viewBox="0 0 303 164" fill="none" xmlns="http://www.w3.org/2000/svg">
<path d="M257.361 162.477C257.399 162.651 257.431 162.825 257.456 163L257.361 162.477C256.098 156.661 248.076 151.322 245.845 145.556C244.444 141.936 242.211 135.533 238.507 132.556C234.778 129.559 213.098 135.575 208.268 135.944C198.676 136.679 189.459 138.366 179.803 138.944C156.487 140.341 131.321 139.644 108.843 136C88.4766 132.698 62.882 126.626 46.9145 117C31.4255 107.663 16.3213 98.7117 9.57983 84.7778C5.13976 75.6007 2 66.9292 2 57.2222C2 45.5355 8.8462 37.8767 22.3204 30.7778C28.6146 27.4616 34.6536 22.9196 42.3182 21.2222C53.3686 18.7751 65.5363 15.32 76.0243 12C103.702 3.2385 133.89 2 163.757 2C188.325 2 211.062 3.34745 234.233 9.55556C251.362 14.1448 269.874 19.409 284.228 27.5C294.62 33.3579 301 45.2738 301 54.5C301 67.4475 300.447 77.1749 289.388 88.2222C283.992 93.6136 277.511 97.9989 271.971 103.222C269.172 105.861 262.929 111.046 258.908 112.778C251.246 116.077 251.65 126.514 251.65 132C251.65 140.187 256.005 147.18 256.005 155L257.361 162.477Z" fill="#E2D2BB"/>
<path d="M257.456 163C256.583 156.98 248.143 151.494 245.845 145.556C244.444 141.936 242.211 135.533 238.507 132.556C234.778 129.559 213.098 135.575 208.268 135.944C198.676 136.679 189.459 138.366 179.803 138.944C156.487 140.341 131.321 139.644 108.843 136C88.4766 132.698 62.882 126.626 46.9145 117C31.4255 107.663 16.3213 98.7117 9.57983 84.7778C5.13976 75.6007 2 66.9292 2 57.2222C2 45.5355 8.8462 37.8767 22.3204 30.7778C28.6146 27.4616 34.6536 22.9196 42.3182 21.2222C53.3686 18.7751 65.5363 15.32 76.0243 12C103.702 3.2385 133.89 2 163.757 2C188.325 2 211.062 3.34745 234.233 9.55556C251.362 14.1448 269.874 19.409 284.228 27.5C294.62 33.3579 301 45.2738 301 54.5C301 67.4475 300.447 77.1749 289.388 88.2222C283.992 93.6136 277.511 97.9989 271.971 103.222C269.172 105.861 262.929 111.046 258.908 112.778C251.246 116.077 251.65 126.514 251.65 132C251.65 140.187 256.005 147.18 256.005 155L257.456 163Z" stroke="#E2D2BB" stroke-width="3" stroke-linecap="round"/>
</svg>
