<svg xmlns="http://www.w3.org/2000/svg" fill="none" viewBox="0 0 287 279">
  <path stroke="#E2D2BB" stroke-linecap="round" stroke-width="3" d="M47.0389 61.4772c-7.5582 0-18.8473 12.7132-22.9534 18.5482-2.5918 3.6831-5.492 8.5181-8.3467 11.7086-3.9408 4.4044-3.9373 8.1938-5.79633 13.505-4.18886 11.969-6.3076 25.005-7.7091 37.619-.78305 7.047-.05797 14.633-.05797 21.736 0 5.11-1.336586 12.219.23186 17.099 4.1531 12.921 9.38524 28.165 18.78004 38.603 4.3166 4.797 8.4457 9.999 12.2882 15.187 1.9401 2.619 7.8016 8.22 10.9551 9.622 7.7413 3.44 15.873 10.071 23.2432 14.606 7.3036 4.495 16.839 7.468 25.272 8.405 21.1642 2.352 42.0432 8.289 63.4122 8.289 13.19 0 27.116 1.475 39.82-2.609 13.176-4.235 25.579-9.466 37.908-15.824 11.284-5.818 23.534-8.389 29.735-20.171 11.127-21.14 16.58-46.219 18.954-69.961 1.96-19.6 3.839-39.014-.985-58.311-1.75-7.001-7.554-12.8822-10.433-19.36-2.172-4.8851-7.974-7.4224-10.666-11.9984-3.553-6.0408-12.525-14.1587-18.548-17.5049-7.633-4.2406-14.258-9.6219-23.359-9.6219-4.924 0-9.635-2.0867-14.723-2.0867-4.302 0-8.607-1.0433-13.041-1.0433-8.361 0-16.611-3.13-24.809-3.13-4.374 0-8.398-2.0867-12.752-2.0867h-22.431c-5.569 0-5.899.1371-9.448-4.5211-4.217-5.5348-7.334-12.4353-10.666-18.4323-1.455-2.62-2.741-4.8685-3.593-7.7671-.416-1.4132-5.848-10.68198-5.971-10.37542-2.2232 5.55924-.058 16.28102-.058 22.31582 0 5.626-1.162 12.7673.058 18.2584 1.13 5.0848-.033 2.1312-3.7092 4.1734-2.4502 1.3612-8.6028 1.565-11.4767 1.565-5.6698 0-10.968 1.7976-16.1717 2.0867-2.9859.1658-13.8998 2.5071-15.6501 4.695-3.079 3.8487-9.3057 5.5696-11.4767 9.9117"/>
</svg>
