<svg xmlns="http://www.w3.org/2000/svg" fill="none" viewBox="0 0 304 262">
  <path stroke="#E2D2BB" stroke-linecap="round" stroke-width="3" d="M281.439 11.3666c0 17.6933-16.727 27.4461-31.447 34.9683-14.205 7.259-28.546 14.3527-45.289 14.3527-22.961 0-46.276 2.6985-69.075-2.0876-10.793-2.2658-23.348-.0365-34.336-1.3701-9.1736-1.1133-19.1717-.0652-28.423-.0652-13.2968 0-24.1581 5.3995-35.7471 11.0255-8.8329 4.2879-18.2551 8.4302-23.2491 17.1579C3.65202 103.21 1.64824 122.252 2.04666 142.367c.17369 8.77 4.41661 16.026 7.25694 24.009 2.8199 7.925 5.6594 15.417 9.1384 23.094 7.2953 16.098 18.0154 30.279 30.7747 42.667 19.6282 19.057 45.4346 28.183 73.1073 28.183h41.525c10.185 0 16.483-3.323 25.669-5.871 8.888-2.466 17.754-9.844 24.189-15.919 10.066-9.501 20.779-18.06 29.633-28.64 6.46-7.719 11.843-14.28 14.85-24.204 2.62-8.651 6.774-15.305 11.759-22.833 10.198-15.403 25.13-30.529 27.28-49.321 1.053-9.197 4.771-17.6485 4.771-27.0096 0-5.8317-6.553-10.2155-11.423-12.9174-2.861-1.5871-10.275-6.5491-11.826-9.3944-3.216-5.8981 1.625-8.5666 2.755-13.5046 1.556-6.7967 5.98-13.3128 5.98-20.5504V15.4767c0-4.7328-3.34-7.57882-3.628-12.33027-.168-2.773781-2.136 2.26559-2.352 3.00102-.732 2.48694-.067 6.17925-.067 8.74205"/>
</svg>
