<svg xmlns="http://www.w3.org/2000/svg" fill="none" viewBox="0 0 304 191">
  <path fill="#E2D2BB" stroke="#E2D2BB" stroke-linecap="round" stroke-width="3" d="M17.1694 24.297c-3.7004-5.4524-6.34-11.5639-6.34-18.23168l.1168.118c-.7832-1.13445-1.44635-2.90007-1.15318-3.9368.27438-.97019 3.04018 1.2097 3.71868 1.60143 2.4297 1.4028 6.3663 3.83951 8.2298 6.03618 1.7418 2.05307 6.2502 3.02877 7.7421 5.66657 1.7702 3.13 6.5018 5.9699 9.3271 8.2536 4.5338 3.6646 19.8474 1.1087 25.543 1.1087 6.9718 0 13.5368.0361 20.2392 1.971 6.6103 1.9082 13.6277.9516 20.3611 2.2173 15.64 2.9399 32.46 5.7898 48.465 5.7898 22.054 0 43.602 4.5055 65.35 7.7608 20.007 2.9947 39.602 7.8072 58.767 13.8586 10.77 3.4003 16.592 8.9717 22.434 18.4165 3.218 5.2011 1.646 14.0673 1.646 19.8331 0 7.8049 1.452 17.1339-1.95 24.3909-8.739 18.639-26.632 25.15-43.039 36.34-13.035 8.89-30.52 14.355-44.99 20.203-9.897 4-20.163 6.443-30.176 10.04-9.597 3.447-18.452 3.264-28.53 3.264-10.673 0-21.157-.417-31.761-1.663-9.281-1.09-18.836-1.038-27.4938-4.989-13.3551-6.094-27.4511-9.741-40.6004-16.63-20.694-10.842-34.9024-26.57-45.29452-47.181-6.71719-13.322-5.73039-26.9725-5.73039-41.5139 0-15.6365 6.95095-28.8868 16.21581-41.0213 3.5363-4.6316 1.881-7.3144-1.0973-11.7028Z"/>
</svg>
