<svg xmlns="http://www.w3.org/2000/svg" fill="none" viewBox="0 0 302 215">
  <path fill="#E2D2BB" stroke="#E2D2BB" stroke-linecap="round" stroke-width="2" d="M30.2009 24.9931C53.0047 7.93767 81.7372 2.19026 111.938 2.19026h-5.386c3.489-1.960652 10.104-.90808 14.242-.90808h17.532c11.363 0 23.399 3.32658 34.645 4.59083 18.212 2.04731 36.109 5.66749 53.135 11.25009 11.115 3.6444 22.285 7.4365 33.389 11.4014 5.876 2.0982 11.386 4.9997 17.233 7.2646 3.538 1.3705 7.452 2.0247 9.694 5.0953 5.477 7.5037 12.298 14.5011 13.942 23.5091 1.396 7.6519.059 16.4407.059 24.165 0 9.7488-1.194 19.3045-3.769 28.8565-1.703 6.316-2.825 13.079-7.001 18.464-4.662 6.011-11.453 10.363-17.652 15.589-7.706 6.497-15.476 11.7-24.952 16.194-.627.298.572 1.241.598 1.816.066 1.442 0 2.896 0 4.339v4.994c0 8.213-5.054 16.758-8.616 24.266-1.253 2.64-4.104 7.028-4.308 9.787-.068.91 0-3.022 0-3.834 0-5.994-.529-11.709-1.137-17.607-.409-3.965-2.579-7.486-3.71-11.3-1.869-6.303 1.101-7.611-9.275-7.012-17.285.996-30.767 2.109-47.69-1.968-20.551-4.95-45.995-3.795-66.359-9.077-8.7102-2.26-17.1895-4.69-25.0711-8.677-4.483-2.268-10.1005-3.451-14.8395-5.449-4.645-1.958-9.438-3.864-13.8223-6.255-8.9566-4.887-19.094-7.089-27.5847-12.714-6.1439-4.07-5.961-13.945-11.3091-18.72-3.1782-2.837-6.35626-9.476-7.53945-13.2171-2.24061-7.0841-5.38531-12.8721-5.38531-20.3813 0-8.7078-.145068-16.9936 4.30824-24.9721C11.0415 41.4098 20.1531 32.508 30.2009 24.9931Z"/>
</svg>
