<svg width="266" height="181" viewBox="0 0 266 181" fill="none" xmlns="http://www.w3.org/2000/svg">
<path d="M159.333 43.5374C135.71 43.5374 112.088 43.5374 88.4646 43.5374C63.1968 43.5374 32.5433 53.99 15.8983 69.8803C7.77594 77.6344 4.28064 82.849 2.46014 92.6572C0.750546 101.868 0.186338 112.406 2.74305 121.531C5.63016 131.835 15.7686 142.011 24.6685 149.369C37.9462 160.347 53.1139 168.17 70.6413 173.872C99.0308 183.107 134.56 179.163 164.426 179.163C194.407 179.163 218.768 160.731 238.265 144.423C246.365 137.648 250.219 127.601 254.532 119C257.443 113.196 263.289 104.818 263.727 98.4089C264.201 91.4699 265 84.067 265 76.7249C265 67.8568 260.984 65.603 252.198 61.1377C249.221 59.6243 230.083 57.2621 229.424 55.3859C227.838 50.8712 233.393 45.688 234.446 41.4092C236.222 34.1852 236.992 27.0931 236.992 19.7252C236.992 13.9964 235.608 9.25166 234.375 3.73533C233.408 -0.591028 231.9 0.71202 231.9 4.19546C231.9 11.437 226.736 20.3579 220.442 25.4769C214.919 29.9682 205.954 37.0102 198.163 38.4183C189.687 39.95 181.637 42.502 172.701 42.502C165.699 42.502 158.697 42.502 151.695 42.502" stroke="#E2D2BB" stroke-width="2" stroke-linecap="round"/>
</svg>
