<svg width="262" height="263" viewBox="0 0 262 263" fill="none" xmlns="http://www.w3.org/2000/svg">
<path d="M130.853 65.8111C130.853 29.5614 160.324 0.384766 196.574 0.384766C232.823 0.384766 262 29.8561 262 65.8111C262 102.061 232.529 131.237 196.574 131.237C232.823 131.237 262 160.709 262 196.664C262 232.913 232.529 262.09 196.574 262.09C160.324 262.385 130.853 233.208 130.853 196.958C130.853 233.208 101.381 262.385 65.4263 262.385C29.1766 262.385 0 232.913 0 196.958C0 160.709 29.4713 131.532 65.4263 131.532C29.1766 131.532 0 102.061 0 66.1058C0 29.8561 29.4713 0.679479 65.4263 0.679479C101.676 0.384765 130.853 29.5614 130.853 65.8111Z" fill="#7D6779"/>
</svg>
