<svg width="262" height="263" viewBox="0 0 262 263" fill="none" xmlns="http://www.w3.org/2000/svg">
<path d="M130.853 65.816C130.853 29.5663 160.324 0.389648 196.574 0.389648C232.823 0.389648 262 29.861 262 65.816C262 102.066 232.529 131.242 196.574 131.242C232.823 131.242 262 160.714 262 196.669C262 232.918 232.529 262.095 196.574 262.095C160.324 262.39 130.853 233.213 130.853 196.963C130.853 233.213 101.381 262.39 65.4263 262.39C29.1766 262.39 0 232.918 0 196.963C0 160.714 29.4713 131.537 65.4263 131.537C29.1766 131.537 0 102.066 0 66.1107C0 29.861 29.4713 0.684361 65.4263 0.684361C101.676 0.389648 130.853 29.5663 130.853 65.816Z" fill="#7583A5"/>
</svg>
