<svg xmlns="http://www.w3.org/2000/svg" fill="none" viewBox="0 0 455 455">
  <path fill="#3C4C48" d="M0 0h455v455H0z"/>
  <path fill="#E2D2BB" d="M111.046 123.366c2.268 0 3.996 2.106 3.564 4.374l-2.592 13.284h.81l6.804-13.176c1.35-2.754 4.212-4.482 7.29-4.482 2.16 0 3.456 2.43 2.322 4.266l-9.288 14.742c1.566 1.674 2.484 5.292 2.808 12.042.108 2.592.216 4.59.378 6.264.216 2.268-1.404 4.32-3.672 4.32-2.484 0-4.752-1.782-4.914-4.266-.108-1.566-.162-3.456-.216-5.778-.108-5.022-.81-7.182-3.024-7.182h-.27l-2.646 12.852c-.54 2.538-2.754 4.374-5.346 4.374-2.322 0-4.05-2.106-3.618-4.374l6.318-32.886c.486-2.538 2.7-4.374 5.292-4.374Zm33.197 26.622.378-8.532c.108-2.268.432-7.074.54-10.152h-.108c-.918 3.078-2.322 7.992-3.078 10.098l-2.97 8.586h5.238Zm-7.344 6.588-1.512 4.266c-.918 2.484-3.294 4.158-5.94 4.158-2.106 0-3.564-2.16-2.754-4.104l13.014-32.508c1.242-3.024 4.158-5.022 7.398-5.022 2.97 0 5.346 2.43 5.346 5.4v31.806c0 2.43-1.944 4.428-4.428 4.428-2.376 0-4.32-1.998-4.212-4.428l.108-3.996h-7.02Zm33.21-33.21c2.268 0 3.996 2.106 3.564 4.374l-2.592 13.284h.81l6.804-13.176c1.35-2.754 4.212-4.482 7.29-4.482 2.16 0 3.456 2.43 2.322 4.266l-9.288 14.742c1.566 1.674 2.484 5.292 2.808 12.042.108 2.592.216 4.59.378 6.264.216 2.268-1.404 4.32-3.672 4.32-2.484 0-4.752-1.782-4.914-4.266-.108-1.566-.162-3.456-.216-5.778-.108-5.022-.81-7.182-3.024-7.182h-.27l-2.646 12.852c-.54 2.538-2.754 4.374-5.346 4.374-2.322 0-4.05-2.106-3.618-4.374l6.318-32.886c.486-2.538 2.7-4.374 5.292-4.374Zm43.348 0c2.376 0 4.158 2.16 3.726 4.482l-2.322 12.042h7.074l2.268-12.042c.486-2.592 2.808-4.482 5.454-4.482 2.376 0 4.158 2.16 3.672 4.482l-6.21 32.67c-.486 2.592-2.808 4.482-5.454 4.482-2.376 0-4.158-2.16-3.726-4.482l2.268-12.312h-6.912l-2.376 12.312c-.486 2.592-2.754 4.482-5.4 4.482-2.376 0-4.158-2.16-3.726-4.482l6.264-32.67c.486-2.592 2.754-4.482 5.4-4.482Zm37.257 26.622.378-8.532c.108-2.268.432-7.074.54-10.152h-.108c-.918 3.078-2.322 7.992-3.078 10.098l-2.97 8.586h5.238Zm-7.344 6.588-1.512 4.266c-.918 2.484-3.294 4.158-5.94 4.158-2.106 0-3.564-2.16-2.754-4.104l13.014-32.508c1.242-3.024 4.158-5.022 7.398-5.022 2.97 0 5.346 2.43 5.346 5.4v31.806c0 2.43-1.944 4.428-4.428 4.428-2.376 0-4.32-1.998-4.212-4.428l.108-3.996h-7.02Zm37.043-42.876c2.484 0 2.916 3.402 5.454 3.402 2.808 0 3.348-3.402 6.102-3.402 1.458 0 3.024 1.026 2.268 2.592-1.458 2.916-3.942 4.86-8.586 4.86-4.59 0-6.912-1.944-7.668-4.86-.324-1.404.972-2.592 2.43-2.592Zm-4.158 9.666c2.16 0 3.834 1.998 3.402 4.158-1.404 8.1-3.672 16.74-5.292 22.302h.216c2.484-5.454 4.428-8.856 5.94-11.502l6.156-11.232c1.242-2.268 3.672-3.726 6.318-3.726 2.214 0 3.888 1.998 3.456 4.212l-6.372 33.318c-.486 2.376-2.538 4.104-4.968 4.104-2.16 0-3.78-1.998-3.294-4.104 1.566-8.154 3.726-17.226 4.914-22.086h-.216c-2.43 6.21-7.614 15.282-11.664 22.464-1.296 2.268-3.78 3.726-6.426 3.726-2.214 0-3.888-2.052-3.456-4.212l6.318-33.264c.432-2.43 2.538-4.158 4.968-4.158Zm31.642 8.64h-2.808c-2.268 0-3.996-2.052-3.564-4.32.486-2.484 2.7-4.32 5.238-4.32h14.634c2.268 0 3.996 2.106 3.564 4.32-.486 2.538-2.7 4.32-5.238 4.32h-2.7l-5.508 28.512c-.486 2.592-2.808 4.482-5.454 4.482-2.322 0-4.104-2.16-3.672-4.482l5.508-28.512Zm27.473-8.64c2.214 0 3.834 1.998 3.402 4.158l-.486 2.592c-1.512 7.83-3.348 14.58-4.806 19.71h.216c2.484-5.454 4.482-8.856 5.94-11.502l6.156-11.232c1.296-2.268 3.726-3.726 6.318-3.726 2.214 0 3.888 1.998 3.456 4.212l-6.372 33.318c-.432 2.376-2.538 4.104-4.968 4.104-2.16 0-3.726-1.998-3.294-4.104l.648-3.078c1.62-8.154 3.132-14.418 4.32-19.008h-.27c-1.296 3.078-3.186 7.398-5.886 12.15l-5.778 10.314c-1.296 2.268-3.78 3.726-6.372 3.726-2.268 0-3.942-2.052-3.51-4.212l6.318-33.264c.432-2.43 2.538-4.158 4.968-4.158Zm-228.902 54c5.184 0 9.072 4.698 8.1 9.828l-5.238 27.324c-.486 2.592-2.754 4.482-5.4 4.482-2.376 0-4.1584-2.16-3.726-4.482l5.562-29.106h-6.7504l-5.562 29.106c-.486 2.592-2.754 4.482-5.4 4.482-2.376 0-4.158-2.16-3.726-4.482l5.238-27.324c1.08-5.67 6.048-9.828 11.8264-9.828h5.076Zm23.245 34.182c5.184 0 7.506-17.334 7.506-22.518 0-1.566-.378-4.158-2.592-4.158-5.022 0-7.776 14.634-7.776 22.032 0 1.782.27 4.644 2.808 4.644h.054Zm-1.35 7.938c-9.504 0-10.908-9.18-10.908-13.77 0-8.694 2.808-19.224 8.64-24.84 2.538-2.43 5.67-3.996 9.72-3.996 9.504 0 10.8 8.316 10.8 13.176 0 9.342-2.916 20.088-8.64 25.542-2.538 2.484-5.67 3.888-9.558 3.888h-.054Zm35.644-28.566c-1.458 7.29-3.186 13.446-6.642 19.98h8.424l4.86-25.434h-5.616l-1.026 5.454Zm7.398-13.554c5.184 0 9.126 4.698 8.1 9.828l-4.536 23.706c1.89.324 3.078 1.944 2.7 3.726l-2.376 10.098c-.486 2.052-2.322 3.564-4.428 3.564-1.944 0-3.402-1.728-3.078-3.618l.972-5.67h-16.686l-1.35 5.886c-.486 1.944-2.268 3.402-4.32 3.402-1.836 0-3.24-1.674-2.97-3.456l1.458-10.638c.216-1.782 1.62-3.186 3.402-3.348 1.89-3.51 3.456-6.804 4.698-10.314 1.566-4.374 2.7-8.91 3.51-13.338 1.026-5.67 5.994-9.828 11.772-9.828h3.132Zm28.356 13.554c-1.458 7.29-3.186 13.446-6.642 19.98h8.424l4.86-25.434h-5.616l-1.026 5.454Zm7.398-13.554c5.184 0 9.126 4.698 8.1 9.828l-4.536 23.706c1.89.324 3.078 1.944 2.7 3.726l-2.376 10.098c-.486 2.052-2.322 3.564-4.428 3.564-1.944 0-3.402-1.728-3.078-3.618l.972-5.67h-16.686l-1.35 5.886c-.486 1.944-2.268 3.402-4.32 3.402-1.836 0-3.24-1.674-2.97-3.456l1.458-10.638c.216-1.782 1.62-3.186 3.402-3.348 1.89-3.51 3.456-6.804 4.698-10.314 1.566-4.374 2.7-8.91 3.51-13.338 1.026-5.67 5.994-9.828 11.772-9.828h3.132Zm31.958 20.034c-.432 2.214-2.376 3.834-4.644 3.834h-4.806l-1.944 9.666h5.832c2.16 0 3.78 1.944 3.348 4.05-.486 2.376-2.538 4.05-4.914 4.05h-5.4c-4.968 0-8.64-4.482-7.722-9.342l4.428-23.274c1.026-5.238 5.616-9.018 10.908-9.018h5.076c2.106 0 3.726 1.944 3.294 4.05-.486 2.322-2.538 3.996-4.914 3.996h-4.914l-1.728 8.154h4.968c1.998 0 3.51 1.836 3.132 3.834Zm17.624-.324h1.08c5.292 0 6.534-5.238 6.534-8.37 0-2.43-1.188-4.104-3.564-4.104-.702 0-1.296 0-1.674.108l-2.376 12.366Zm-7.182-9.288c1.134-5.886 5.832-10.8 11.88-10.584 2.808.108 6.804.756 9.396 3.51 1.836 1.998 2.646 5.184 2.646 7.344 0 6.318-3.078 10.8-5.832 13.014-2.97 2.376-7.236 3.456-10.746 3.456h-1.62l-1.944 10.098c-.486 2.538-2.7 4.374-5.292 4.374-2.322 0-4.05-2.106-3.618-4.374l5.13-26.838Zm31.996-10.422c2.43 0 4.536 1.836 4.806 4.266l1.566 13.392h.972l2.592-13.446c.432-2.43 2.592-4.212 5.076-4.212 2.214 0 3.888 2.052 3.456 4.212l-2.754 13.446h1.08l7.074-13.338c1.404-2.646 4.158-4.32 7.182-4.32 2.106 0 3.348 2.322 2.16 4.104l-10.206 15.552c1.836 2.052 2.7 5.832 2.916 10.206.108 3.24.216 5.616.378 7.506.216 2.214-1.35 4.266-3.564 4.266-2.538 0-4.86-1.782-5.022-4.32-.054-1.512-.108-3.186-.162-5.238-.108-5.508-1.026-7.668-2.646-7.668h-.378l-2.43 12.96c-.486 2.484-2.646 4.266-5.184 4.266-2.268 0-3.942-2.052-3.456-4.266l2.7-13.284h-.702c-1.782 0-3.726 2.484-5.616 7.992-.54 1.674-1.188 3.618-1.836 5.346-1.026 2.646-3.672 4.212-6.48 4.212-2.052 0-3.348-2.16-2.538-3.996.972-2.268 1.944-4.86 2.754-7.128 2.268-6.48 4.698-9.45 8.046-11.124l-3.186-15.174c-.432-2.16 1.188-4.212 3.402-4.212Zm44.885 0c2.268 0 3.996 2.106 3.564 4.374l-2.592 13.284h.81l6.804-13.176c1.35-2.754 4.212-4.482 7.29-4.482 2.16 0 3.456 2.43 2.322 4.266l-9.288 14.742c1.566 1.674 2.484 5.292 2.808 12.042.108 2.592.216 4.59.378 6.264.216 2.268-1.404 4.32-3.672 4.32-2.484 0-4.752-1.782-4.914-4.266-.108-1.566-.162-3.456-.216-5.778-.108-5.022-.81-7.182-3.024-7.182h-.27l-2.646 12.852c-.54 2.538-2.754 4.374-5.346 4.374-2.322 0-4.05-2.106-3.618-4.374l6.318-32.886c.486-2.538 2.7-4.374 5.292-4.374Zm25.57 0c2.808 0 5.184 2.106 5.508 4.914.378 4.59 1.512 11.502 1.566 15.336h.324c.864-3.888 3.726-10.854 5.238-15.444.972-2.862 3.726-4.806 6.75-4.806 2.322 0 3.888 2.484 2.862 4.59l-9.234 19.548c-2.484 5.292-4.752 10.044-7.614 13.446-2.538 2.916-5.616 4.536-9.558 4.536-2.376 0-3.564-2.376-3.294-4.32.216-1.89 2.16-2.862 3.942-3.564 1.782-.756 3.294-2.862 3.996-4.698.378-1.08.432-1.782.324-2.484l-4.752-22.194c-.54-2.484 1.35-4.86 3.942-4.86ZM88.015 247.782h.864c4.158 0 6.102-2.43 6.102-5.886 0-1.728-.648-4.104-3.24-4.104-.648 0-1.404 0-1.944.216l-1.782 9.774Zm-3.564 18.306c.486.054 1.026.054 1.566.054 3.726 0 6.318-2.7 6.318-6.588 0-3.186-1.458-5.076-4.374-5.076h-1.242l-2.268 11.61Zm-3.996-24.3c1.134-5.94 5.886-10.8 11.88-10.584 3.24.162 6.48.81 8.856 3.078 1.836 1.728 2.592 4.158 2.592 6.75 0 5.022-3.726 9.126-7.884 10.422v.216c4.05 1.404 5.454 5.292 5.454 8.802s-1.944 6.858-4.428 8.91c-2.916 2.268-6.75 3.564-12.42 3.78-5.346.162-9.072-4.968-8.1-10.26l4.05-21.114Zm50.939-10.422c2.214 0 3.834 1.998 3.402 4.158l-.486 2.592c-1.512 7.83-3.348 14.58-4.806 19.71h.216c2.484-5.454 4.482-8.856 5.94-11.502l6.156-11.232c1.296-2.268 3.726-3.726 6.318-3.726 2.214 0 3.888 1.998 3.456 4.212l-6.372 33.318c-.432 2.376-2.538 4.104-4.968 4.104-2.16 0-3.726-1.998-3.294-4.104l.648-3.078c1.62-8.154 3.132-14.418 4.32-19.008h-.27c-1.296 3.078-3.186 7.398-5.886 12.15l-5.778 10.314c-1.296 2.268-3.78 3.726-6.372 3.726-2.268 0-3.942-2.052-3.51-4.212l6.318-33.264c.432-2.43 2.538-4.158 4.968-4.158Zm34.233 0c2.376 0 4.158 2.16 3.726 4.482l-2.322 12.042h7.074l2.268-12.042c.486-2.592 2.808-4.482 5.454-4.482 2.376 0 4.158 2.16 3.672 4.482l-6.21 32.67c-.486 2.592-2.808 4.482-5.454 4.482-2.376 0-4.158-2.16-3.726-4.482l2.268-12.312h-6.912l-2.376 12.312c-.486 2.592-2.754 4.482-5.4 4.482-2.376 0-4.158-2.16-3.726-4.482l6.264-32.67c.486-2.592 2.754-4.482 5.4-4.482Zm31.317 8.64h-2.808c-2.268 0-3.996-2.052-3.564-4.32.486-2.484 2.7-4.32 5.238-4.32h14.634c2.268 0 3.996 2.106 3.564 4.32-.486 2.538-2.7 4.32-5.238 4.32h-2.7l-5.508 28.512c-.486 2.592-2.808 4.482-5.454 4.482-2.322 0-4.104-2.16-3.672-4.482l5.508-28.512Zm37.031 11.394c-.432 2.214-2.376 3.834-4.644 3.834h-4.806l-1.944 9.666h5.832c2.16 0 3.78 1.944 3.348 4.05-.486 2.376-2.538 4.05-4.914 4.05h-5.4c-4.968 0-8.64-4.482-7.722-9.342l4.428-23.274c1.026-5.238 5.616-9.018 10.908-9.018h5.076c2.106 0 3.726 1.944 3.294 4.05-.486 2.322-2.538 3.996-4.914 3.996h-4.914l-1.728 8.154h4.968c1.998 0 3.51 1.836 3.132 3.834Zm17.625-.324h1.08c5.292 0 6.534-5.238 6.534-8.37 0-2.43-1.188-4.104-3.564-4.104-.702 0-1.296 0-1.674.108l-2.376 12.366Zm-7.182-9.288c1.134-5.886 5.832-10.8 11.88-10.584 2.808.108 6.804.756 9.396 3.51 1.836 1.998 2.646 5.184 2.646 7.344 0 6.318-3.078 10.8-5.832 13.014-2.97 2.376-7.236 3.456-10.746 3.456h-1.62l-1.944 10.098c-.486 2.538-2.7 4.374-5.292 4.374-2.322 0-4.05-2.106-3.618-4.374l5.13-26.838Zm37.33-10.422c2.376 0 4.158 2.16 3.726 4.482l-2.322 12.042h7.074l2.268-12.042c.486-2.592 2.808-4.482 5.454-4.482 2.376 0 4.158 2.16 3.672 4.482l-6.21 32.67c-.486 2.592-2.808 4.482-5.454 4.482-2.376 0-4.158-2.16-3.726-4.482l2.268-12.312h-6.912l-2.376 12.312c-.486 2.592-2.754 4.482-5.4 4.482-2.376 0-4.158-2.16-3.726-4.482l6.264-32.67c.486-2.592 2.754-4.482 5.4-4.482Zm43.089 20.034c-.432 2.214-2.376 3.834-4.644 3.834h-4.806l-1.944 9.666h5.832c2.16 0 3.78 1.944 3.348 4.05-.486 2.376-2.538 4.05-4.914 4.05h-5.4c-4.968 0-8.64-4.482-7.722-9.342l4.428-23.274c1.026-5.238 5.616-9.018 10.908-9.018h5.076c2.106 0 3.726 1.944 3.294 4.05-.486 2.322-2.538 3.996-4.914 3.996h-4.914l-1.728 8.154h4.968c1.998 0 3.51 1.836 3.132 3.834Zm14.384-11.394h-2.808c-2.268 0-3.996-2.052-3.564-4.32.486-2.484 2.7-4.32 5.238-4.32h14.634c2.268 0 3.996 2.106 3.564 4.32-.486 2.538-2.7 4.32-5.238 4.32h-2.7l-5.508 28.512c-.486 2.592-2.808 4.482-5.454 4.482-2.322 0-4.104-2.16-3.672-4.482l5.508-28.512Zm37.032 11.394c-.432 2.214-2.376 3.834-4.644 3.834h-4.806l-1.944 9.666h5.832c2.16 0 3.78 1.944 3.348 4.05-.486 2.376-2.538 4.05-4.914 4.05h-5.4c-4.968 0-8.64-4.482-7.722-9.342l4.428-23.274c1.026-5.238 5.616-9.018 10.908-9.018h5.076c2.106 0 3.726 1.944 3.294 4.05-.486 2.322-2.538 3.996-4.914 3.996h-4.914l-1.728 8.154h4.968c1.998 0 3.51 1.836 3.132 3.834Zm-270.988 68.634c.432.108 1.08.108 1.62.108 3.456 0 5.994-3.51 5.994-7.614 0-2.484-.81-5.184-3.726-5.184-.594 0-1.026.054-1.674.27l-2.214 12.42Zm14.58-34.668c2.214 0 3.942 1.998 3.564 4.266-.378 2.43-2.484 4.212-4.968 4.212h-8.262l-1.296 6.75c1.188-.324 2.322-.378 3.51-.378 5.994 0 10.098 4.914 10.098 10.962 0 4.32-1.242 7.722-3.402 10.26-3.186 3.78-8.262 5.67-14.148 5.886-5.4001.216-9.1261-4.968-8.1541-10.26l4.1581-21.87c1.08-5.67 6.048-9.828 11.826-9.828h7.074Zm27.831 20.034c-.432 2.214-2.376 3.834-4.644 3.834h-4.806l-1.944 9.666h5.832c2.16 0 3.78 1.944 3.348 4.05-.486 2.376-2.538 4.05-4.914 4.05h-5.4c-4.968 0-8.64-4.482-7.722-9.342l4.428-23.274c1.026-5.238 5.616-9.018 10.908-9.018h5.076c2.106 0 3.726 1.944 3.294 4.05-.486 2.322-2.538 3.996-4.914 3.996h-4.914l-1.728 8.154h4.968c1.998 0 3.51 1.836 3.132 3.834Zm24.428 17.172c-.162 2.43-1.782 4.644-4.212 4.752-.594.054-1.188.054-1.836.054-11.34 0-12.636-10.152-12.636-14.094 0-10.908 3.456-18.414 7.938-22.95 3.672-3.726 8.37-5.346 12.906-5.346.324 0 .702.054 1.026.054 2.322.162 3.402 2.7 2.7 4.86-.648 2.214-3.024 3.186-5.292 3.402-1.728.162-3.834 1.404-5.292 3.294-2.376 3.24-4.266 8.208-4.266 14.796 0 4.698 1.404 7.776 5.022 7.776h.27c1.998-.054 3.78 1.404 3.672 3.402Zm27.809-37.206c5.184 0 9.072 4.698 8.1 9.828l-5.238 27.324c-.486 2.592-2.754 4.482-5.4 4.482-2.376 0-4.158-2.16-3.726-4.482l5.562-29.106h-6.75l-5.562 29.106c-.486 2.592-2.754 4.482-5.4 4.482-2.376 0-4.158-2.16-3.726-4.482l5.238-27.324c1.08-5.67 6.048-9.828 11.826-9.828h5.076Zm32.587 0c5.184 0 9.072 4.698 8.154 9.828l-5.184 27.27c-.486 2.646-2.754 4.536-5.454 4.536-2.376 0-4.158-2.16-3.726-4.536l5.562-29.052h-5.454l-1.998 9.612c-1.62 7.668-3.726 16.794-8.802 21.438-1.188 1.08-2.484 2.052-4.266 2.646-2.214.702-4.212-1.08-4.644-3.294-.378-2.214 1.08-4.212 2.808-5.616 3.186-2.646 4.59-8.1 6.102-14.418l1.782-8.64c1.134-5.67 6.102-9.774 11.934-9.774h3.186Zm25.57 26.622.378-8.532c.108-2.268.432-7.074.54-10.152h-.108c-.918 3.078-2.322 7.992-3.078 10.098l-2.97 8.586h5.238Zm-7.344 6.588-1.512 4.266c-.918 2.484-3.294 4.158-5.94 4.158-2.106 0-3.564-2.16-2.754-4.104l13.014-32.508c1.242-3.024 4.158-5.022 7.398-5.022 2.97 0 5.346 2.43 5.346 5.4v31.806c0 2.43-1.944 4.428-4.428 4.428-2.376 0-4.32-1.998-4.212-4.428l.108-3.996h-7.02Zm27.982-24.57H275.9c-2.268 0-3.996-2.052-3.564-4.32.486-2.484 2.7-4.32 5.238-4.32h14.634c2.268 0 3.996 2.106 3.564 4.32-.486 2.538-2.7 4.32-5.238 4.32h-2.7l-5.508 28.512c-.486 2.592-2.808 4.482-5.454 4.482-2.322 0-4.104-2.16-3.672-4.482l5.508-28.512Zm27.852-8.64c2.376 0 4.158 2.16 3.726 4.482l-2.322 12.042h7.074l2.268-12.042c.486-2.592 2.808-4.482 5.454-4.482 2.376 0 4.158 2.16 3.672 4.482l-6.21 32.67c-.486 2.592-2.808 4.482-5.454 4.482-2.376 0-4.158-2.16-3.726-4.482l2.268-12.312h-6.912l-2.376 12.312c-.486 2.592-2.754 4.482-5.4 4.482-2.376 0-4.158-2.16-3.726-4.482l6.264-32.67c.486-2.592 2.754-4.482 5.4-4.482Zm34.934 34.182c5.184 0 7.506-17.334 7.506-22.518 0-1.566-.378-4.158-2.592-4.158-5.022 0-7.776 14.634-7.776 22.032 0 1.782.27 4.644 2.808 4.644h.054Zm-1.35 7.938c-9.504 0-10.908-9.18-10.908-13.77 0-8.694 2.808-19.224 8.64-24.84 2.538-2.43 5.67-3.996 9.72-3.996 9.504 0 10.8 8.316 10.8 13.176 0 9.342-2.916 20.088-8.64 25.542-2.538 2.484-5.67 3.888-9.558 3.888h-.054ZM129.374 393.14c-1.932 0-3.402-1.47-3.402-5.04 0-3.584 1.47-5.04 3.402-5.04 1.932 0 3.402 1.456 3.402 5.04 0 3.57-1.47 5.04-3.402 5.04Zm0-1.092c1.162 0 2.17-1.106 2.17-3.948 0-2.856-1.008-3.962-2.17-3.962s-2.156 1.106-2.156 3.962c0 2.842 1.008 3.948 2.156 3.948Zm8.402-6.188c1.61 0 2.842 1.302 2.842 3.626 0 2.338-1.232 3.64-2.87 3.64-.826 0-1.596-.434-1.932-.966h-.056v3.92h-1.218V386h1.218v.098l-.042.798h.056c.308-.532 1.12-1.036 2.002-1.036Zm-.21 6.23c1.008 0 1.834-.994 1.834-2.604 0-1.596-.826-2.59-1.834-2.59s-1.806.938-1.806 2.59c0 1.666.798 2.604 1.806 2.604Zm10.726-6.09v7h-1.176v-5.278h-.056L144.316 393h-1.498v-7h1.19v5.292h.056l2.73-5.292h1.498Zm7.771 0v1.008h-3.262V393h-1.232v-7h4.494Zm8.416 0v7h-1.176v-5.278h-.056L160.503 393h-1.498v-7h1.19v5.292h.056l2.73-5.292h1.498Zm6.89 0h1.246v7h-1.246v-3.01h-3.038V393h-1.26v-7h1.26v2.996h3.038V386Zm9.2 5.124c0 .728.056 1.498.168 1.764V393h-1.162c-.056-.224-.126-.518-.154-.882h-.056c-.35.588-1.05 1.008-2.044 1.008-1.344 0-2.366-.672-2.366-2.072 0-1.316.994-2.226 2.688-2.226.63 0 1.218.182 1.722.49v-.77c0-1.204-.798-1.652-1.596-1.652-.742 0-1.372.378-1.596 1.106l-1.218-.168c.182-1.19 1.372-1.974 2.758-1.974 1.442 0 2.856.658 2.856 2.66v2.604Zm-3.122.98c.966 0 1.876-.574 1.918-1.834-.532-.308-1.162-.462-1.638-.462-.938 0-1.554.462-1.554 1.232s.56 1.064 1.274 1.064ZM188.97 386v7h-1.218v-6.006h-2.52v4.424c0 1.036-.686 1.722-1.75 1.722-.476 0-.798-.098-1.12-.238v-1.022c.28.154.588.224.896.224.504 0 .756-.392.756-.812V386h4.956Zm5.392 2.184c1.89 0 2.716.952 2.716 2.408 0 1.428-.826 2.408-2.716 2.408h-3.052v-7h1.218v2.184h1.834Zm-.014 3.836c.91 0 1.484-.49 1.484-1.428 0-.924-.574-1.428-1.484-1.428h-1.82v2.856h1.82Zm9.396-6.02h1.246v7h-1.246v-3.01h-3.038V393h-1.26v-7h1.26v2.996h3.038V386Zm5.154 2.184c1.89 0 2.716.952 2.716 2.408 0 1.428-.826 2.408-2.716 2.408h-1.904v-7h1.218v2.184h.686Zm3.514-2.184h1.218v7h-1.218v-7Zm-3.528 6.02c.91 0 1.484-.49 1.484-1.428 0-.924-.574-1.428-1.484-1.428h-.672v2.856h.672Zm11.313-8.862c0 1.05-.686 1.82-1.778 1.82-1.106 0-1.806-.77-1.806-1.82h.91c.028.588.308 1.008.896 1.008.574 0 .84-.42.868-1.008h.91Zm.938 2.842v7h-1.176v-5.278h-.056L217.159 393h-1.498v-7h1.19v5.292h.056l2.73-5.292h1.498Zm15.166 2.31c-.182-.798-.742-1.4-1.61-1.4-1.302 0-2.002 1.176-2.002 2.604 0 1.526.756 2.562 2.03 2.562.868 0 1.414-.56 1.582-1.316l1.232.168c-.224 1.302-1.274 2.198-2.856 2.198-2.058 0-3.22-1.512-3.22-3.64 0-2.058 1.19-3.626 3.206-3.626 1.54 0 2.618.882 2.87 2.282l-1.232.168Zm9.06-2.31v7h-1.246v-6.006h-2.842V393h-1.26v-7h5.348Zm5.419 7.14c-1.876 0-3.108-1.47-3.108-3.64s1.232-3.64 3.108-3.64c1.862 0 3.108 1.47 3.108 3.64s-1.246 3.64-3.108 3.64Zm0-1.05c1.19 0 1.89-1.19 1.89-2.59 0-1.414-.7-2.604-1.89-2.604s-1.89 1.19-1.89 2.604c0 1.4.7 2.59 1.89 2.59Zm9.802-3.78c-.182-.798-.742-1.4-1.61-1.4-1.302 0-2.002 1.176-2.002 2.604 0 1.526.756 2.562 2.03 2.562.868 0 1.414-.56 1.582-1.316l1.232.168c-.224 1.302-1.274 2.198-2.856 2.198-2.058 0-3.22-1.512-3.22-3.64 0-2.058 1.19-3.626 3.206-3.626 1.54 0 2.618.882 2.87 2.282l-1.232.168Zm6.386 4.83c-1.876 0-3.108-1.47-3.108-3.64s1.232-3.64 3.108-3.64c1.862 0 3.108 1.47 3.108 3.64s-1.246 3.64-3.108 3.64Zm0-1.05c1.19 0 1.89-1.19 1.89-2.59 0-1.414-.7-2.604-1.89-2.604s-1.89 1.19-1.89 2.604c0 1.4.7 2.59 1.89 2.59Zm8.332-5.782c1.582 0 2.898 1.204 2.898 3.402 0 2.226-1.246 3.43-2.996 3.43-1.932 0-3.248-1.372-3.248-4.802 0-3.584 1.806-5.138 3.78-5.138h.882c.574 0 .952-.042 1.19-.168h.084v1.092c-.28.098-.742.154-1.344.154h-.77c-1.484 0-2.464 1.218-2.632 3.374h.056c.448-.952 1.162-1.344 2.1-1.344Zm-.126 5.768c1.064 0 1.792-.77 1.792-2.352 0-1.582-.728-2.366-1.792-2.366s-1.792.798-1.792 2.366.728 2.352 1.792 2.352ZM292.775 386h1.246v7h-1.246v-3.01h-3.038V393h-1.26v-7h1.26v2.996h3.038V386Zm9.2 5.124c0 .728.056 1.498.168 1.764V393h-1.162c-.056-.224-.126-.518-.154-.882h-.056c-.35.588-1.05 1.008-2.044 1.008-1.344 0-2.366-.672-2.366-2.072 0-1.316.994-2.226 2.688-2.226.63 0 1.218.182 1.722.49v-.77c0-1.204-.798-1.652-1.596-1.652-.742 0-1.372.378-1.596 1.106l-1.218-.168c.182-1.19 1.372-1.974 2.758-1.974 1.442 0 2.856.658 2.856 2.66v2.604Zm-3.122.98c.966 0 1.876-.574 1.918-1.834-.532-.308-1.162-.462-1.638-.462-.938 0-1.554.462-1.554 1.232s.56 1.064 1.274 1.064Zm10.376-8.946c0 1.05-.686 1.82-1.778 1.82-1.106 0-1.806-.77-1.806-1.82h.91c.028.588.308 1.008.896 1.008.574 0 .84-.42.868-1.008h.91Zm.938 2.842v7h-1.176v-5.278h-.056L306.191 393h-1.498v-7h1.19v5.292h.056l2.73-5.292h1.498Zm8.443 0v1.008h-2.45V393h-1.246v-5.992h-2.45V386h6.146Zm7.744 0v7h-1.176v-5.278h-.056L322.378 393h-1.498v-7h1.19v5.292h.056l2.73-5.292h1.498Zm-183.131 19.31c-.182-.798-.742-1.4-1.61-1.4-1.302 0-2.002 1.176-2.002 2.604 0 1.526.756 2.562 2.03 2.562.868 0 1.414-.56 1.582-1.316l1.232.168c-.224 1.302-1.274 2.198-2.856 2.198-2.058 0-3.22-1.512-3.22-3.64 0-2.058 1.19-3.626 3.206-3.626 1.54 0 2.618.882 2.87 2.282l-1.232.168Zm6.386 4.83c-1.876 0-3.108-1.47-3.108-3.64s1.232-3.64 3.108-3.64c1.862 0 3.108 1.47 3.108 3.64s-1.246 3.64-3.108 3.64Zm0-1.05c1.19 0 1.89-1.19 1.89-2.59 0-1.414-.7-2.604-1.89-2.604s-1.89 1.19-1.89 2.604c0 1.4.7 2.59 1.89 2.59Zm8.331-5.782c1.582 0 2.898 1.204 2.898 3.402 0 2.226-1.246 3.43-2.996 3.43-1.932 0-3.248-1.372-3.248-4.802 0-3.584 1.806-5.138 3.78-5.138h.882c.574 0 .952-.042 1.19-.168h.084v1.092c-.28.098-.742.154-1.344.154h-.77c-1.484 0-2.464 1.218-2.632 3.374h.056c.448-.952 1.162-1.344 2.1-1.344Zm-.126 5.768c1.064 0 1.792-.77 1.792-2.352 0-1.582-.728-2.366-1.792-2.366s-1.792.798-1.792 2.366.728 2.352 1.792 2.352Zm8.136 0c.798 0 1.358-.392 1.666-1.106l1.218.168c-.294 1.204-1.47 1.988-2.898 1.988-1.974 0-3.276-1.456-3.276-3.584 0-2.226 1.316-3.682 3.178-3.682 1.666 0 2.996 1.19 2.996 3.08 0 .196-.042.49-.084.672h-4.9c.042 1.638.98 2.464 2.1 2.464Zm-.084-5.194c-.98 0-1.68.686-1.918 1.75h3.682c-.084-1.078-.784-1.75-1.764-1.75Zm9.732 1.428c-.182-.798-.742-1.4-1.61-1.4-1.302 0-2.002 1.176-2.002 2.604 0 1.526.756 2.562 2.03 2.562.868 0 1.414-.56 1.582-1.316l1.232.168c-.224 1.302-1.274 2.198-2.856 2.198-2.058 0-3.22-1.512-3.22-3.64 0-2.058 1.19-3.626 3.206-3.626 1.54 0 2.618.882 2.87 2.282l-1.232.168Zm6.54 3.766c.798 0 1.358-.392 1.666-1.106l1.218.168c-.294 1.204-1.47 1.988-2.898 1.988-1.974 0-3.276-1.456-3.276-3.584 0-2.226 1.316-3.682 3.178-3.682 1.666 0 2.996 1.19 2.996 3.08 0 .196-.042.49-.084.672h-4.9c.042 1.638.98 2.464 2.1 2.464Zm-.085-5.194c-.979 0-1.679.686-1.917 1.75h3.682c-.084-1.078-.784-1.75-1.765-1.75Zm10.992 5.11h.49v2.8h-1.106V410h-4.718v1.792h-1.106v-2.8h.434c.574 0 1.064-.378 1.148-1.47l.364-4.522h4.494v5.992Zm-4.214 0h2.968v-4.998h-2.072l-.266 3.514c-.07.7-.294 1.162-.63 1.428v.056ZM199.697 403h1.246v7h-1.246v-3.01h-3.038V410h-1.26v-7h1.26v2.996h3.038V403Zm9.298 0v7h-1.176v-5.278h-.056L205.019 410h-1.498v-7h1.19v5.292h.056l2.73-5.292h1.498Zm4.86 3.262 3.752 3.738h-1.652l-2.94-2.884h-.056V410h-1.232v-7h1.232v2.548h.056l2.744-2.548h1.666l-3.57 3.262Zm8.597 3.878c-1.876 0-3.108-1.47-3.108-3.64s1.232-3.64 3.108-3.64c1.862 0 3.108 1.47 3.108 3.64s-1.246 3.64-3.108 3.64Zm0-1.05c1.19 0 1.89-1.19 1.89-2.59 0-1.414-.7-2.604-1.89-2.604s-1.89 1.19-1.89 2.604c0 1.4.7 2.59 1.89 2.59Zm9.844-2.702c.84.266 1.246.994 1.246 1.736 0 1.036-.672 1.876-2.408 1.876h-3.36v-7h3.108c1.624 0 2.366.742 2.366 1.89 0 .686-.406 1.19-.952 1.442v.056Zm-1.54-2.422h-1.806v1.988h1.834c.742 0 1.26-.224 1.26-1.022 0-.784-.518-.966-1.288-.966Zm.21 5.068c.826 0 1.344-.238 1.344-1.022 0-.7-.462-1.092-1.372-1.092h-1.988v2.114h2.016Zm15.768 1.106c-1.876 0-3.108-1.47-3.108-3.64s1.232-3.64 3.108-3.64c1.862 0 3.108 1.47 3.108 3.64s-1.246 3.64-3.108 3.64Zm0-1.05c1.19 0 1.89-1.19 1.89-2.59 0-1.414-.7-2.604-1.89-2.604s-1.89 1.19-1.89 2.604c0 1.4.7 2.59 1.89 2.59Zm11.173-6.09v1.008h-2.45V410h-1.246v-5.992h-2.45V403h6.146Zm15.18-2.8h1.19v9.8h-6.524v-9.8h1.19v8.708h1.484V400.2h1.19v8.708h1.47V400.2Zm8.752 2.8v7h-1.176v-5.278h-.056L277.863 410h-1.498v-7h1.19v5.292h.056l2.73-5.292h1.498Zm8.611 0v7h-1.106v-5.012h-.056L287.86 410h-1.302l-1.428-4.984h-.056V410h-1.12v-7h1.61l1.61 5.586h.056l1.624-5.586h1.596Zm4.846 7.14c-1.876 0-3.108-1.47-3.108-3.64s1.232-3.64 3.108-3.64c1.862 0 3.108 1.47 3.108 3.64s-1.246 3.64-3.108 3.64Zm0-1.05c1.19 0 1.89-1.19 1.89-2.59 0-1.414-.7-2.604-1.89-2.604s-1.89 1.19-1.89 2.604c0 1.4.7 2.59 1.89 2.59Zm9.62-6.09h1.246v7h-1.246v-3.01h-3.038V410h-1.26v-7h1.26v2.996h3.038V403Zm9.2 5.124c0 .728.056 1.498.168 1.764V410h-1.162c-.056-.224-.126-.518-.154-.882h-.056c-.35.588-1.05 1.008-2.044 1.008-1.344 0-2.366-.672-2.366-2.072 0-1.316.993-2.226 2.688-2.226.63 0 1.218.182 1.722.49v-.77c0-1.204-.798-1.652-1.596-1.652-.742 0-1.372.378-1.596 1.106l-1.218-.168c.182-1.19 1.372-1.974 2.758-1.974 1.442 0 2.856.658 2.856 2.66v2.604Zm-3.122.98c.966 0 1.876-.574 1.918-1.834-.532-.308-1.162-.462-1.638-.462-.938 0-1.554.462-1.554 1.232s.56 1.064 1.274 1.064Z"/>
  <circle cx="227.5" cy="39.5" r="10.5" fill="#E2D2BB"/>
  <path fill="#3C4C48" d="M227.77 37.686c1.918 0 3.57 1.246 3.57 3.22 0 2.072-1.652 3.234-3.57 3.234-2.338 0-4.074-1.316-4.074-4.76 0-3.682 1.876-5.32 4.186-5.32 1.512 0 3.178.7 3.458 2.478l-1.638.196c-.168-.686-.784-1.204-1.792-1.204-1.162 0-2.506 1.008-2.66 3.36h.056c.546-.812 1.4-1.204 2.464-1.204Zm-.112 5.026c1.204 0 2.058-.63 2.058-1.792s-.854-1.82-2.058-1.82c-1.204 0-2.058.658-2.058 1.82 0 1.134.952 1.792 2.058 1.792Z"/>
</svg>