<svg xmlns="http://www.w3.org/2000/svg" fill="none" viewBox="0 0 455 455">
  <path fill="#E2D2BB" d="M0 0h455v455H0z"/>
  <path fill="#DE8E59" d="M102.609 152.672c-3.5037-.912-6.9597-2.064-9.5037-3.12 1.2-1.104 2.4-2.064 3.648-3.024.144-9.408.192-18.912.192-28.32-1.44-.912-3.408-1.824-5.424-2.592 1.872-1.68 3.792-3.216 5.856-4.608 2.304.816 4.5117 1.92 6.1437 3.072-.192 1.296-.432 4.368-.432 6.672 1.152-3.168 3.216-6.816 5.76-9.744 3.36.384 7.872 1.92 10.32 3.408-.336 2.112-.624 4.224-.72 6.336 1.152-3.168 3.216-6.816 5.76-9.744 4.656.528 10.8 3.36 14.208 6.336-1.008.96-2.4 2.016-3.456 2.784-1.584 9.072-1.488 19.2-.72 24.336.24 1.776.432 2.064 4.704 4.08-1.776 1.632-3.888 3.12-5.952 4.272-1.392-.624-3.888-2.016-5.28-3.12-.672-7.008-.672-20.064 1.008-29.136.288-1.488-3.408-3.12-6.048-3.6-2.544 3.792-3.984 9.36-3.984 17.904 0 5.088.096 10.176.24 15.264-2.16.912-4.416 1.728-6.816 2.448.192-5.184.288-10.464.288-15.648V119.6c0-1.152-2.688-2.304-5.088-2.688-2.544 3.84-3.984 9.36-3.984 17.952 0 2.976.096 5.904.192 8.88-.912.672-1.872 1.296-2.832 1.872 2.256.864 4.992 1.728 7.776 2.448-1.872 1.728-3.792 3.216-5.856 4.608Zm53.055 5.232c-5.328-2.016-10.992-3.696-15.744-4.56 1.872-1.728 3.792-3.216 5.856-4.608 4.032.72 8.832 2.16 13.392 3.984.72-3.12 1.2-6.816 1.536-10.752-1.44 1.248-2.976 2.4-4.56 3.456-5.136-.96-10.08-2.448-13.824-4.08 2.448-6.24 3.264-15.264 2.064-20.688 1.104-.768 2.208-1.44 3.312-2.112-2.736-1.104-5.856-2.112-8.928-2.976 1.872-1.728 3.792-3.216 5.856-4.608 3.552 1.008 7.2 2.208 10.272 3.552-1.296 1.2-2.64 2.304-4.032 3.312.912 5.472-.192 13.344-2.976 18.768 3.504 1.488 8.112 2.928 12.912 3.984.624-8.592.384-18.192-.48-25.248 1.92-1.632 4.56-3.36 6.72-4.32 1.44 11.088.768 28.944-1.968 41.136-2.544 2.16-6.048 4.272-9.408 5.76Zm25.458-5.232c-4.224-.576-8.352-1.776-11.377-3.264 1.489-1.872 3.121-3.552 4.897-5.088 2.688 1.296 6.24 2.496 9.936 3.264 1.68-3.072 1.968-7.248 1.536-10.704-.192-1.344-.432-1.584-1.68-2.112-2.784-1.056-6.288-2.16-9.888-2.976 1.824-1.584 3.744-2.928 5.856-4.128l2.88.72c1.296-1.728 1.68-5.232 1.2-8.4-.24-1.296-.48-1.536-1.728-1.968-3.264-.96-7.344-1.824-11.568-2.4 1.824-1.728 3.744-3.264 5.856-4.608 5.136.672 9.888 1.776 13.488 3.072 1.44 4.848-.048 10.224-5.664 14.736 2.736.768 5.328 1.68 7.344 2.592 1.44 7.152-1.056 13.392-6.192 17.856-1.488 1.296-3.12 2.448-4.896 3.408Zm28.889 0c-5.136-.672-10.176-2.064-13.872-3.84 1.2-1.104 2.4-2.112 3.648-3.024.288-9.216.288-18.384-.048-27.6-1.44-.912-3.408-1.824-5.424-2.592 1.872-1.68 3.792-3.216 5.856-4.608 2.4 1.056 4.704 2.304 6.384 3.552-.192 4.752-.24 9.504-.24 14.304 1.392-1.104 2.88-2.112 4.416-3.024 3.696.48 7.632 1.536 10.368 2.688 1.44 8.304-.72 15.984-6.192 20.736-1.488 1.296-3.12 2.448-4.896 3.408Zm-6.336-7.728c2.832 1.056 6.192 1.968 9.696 2.688 1.824-3.936 2.064-9.312 1.584-13.632-.144-1.344-.384-1.584-1.632-2.064-2.016-.672-4.464-1.296-7.008-1.728 0 4.272.096 8.544.24 12.816-.912.672-1.872 1.296-2.88 1.92Zm15.072-29.376c1.872-1.728 3.792-3.216 5.856-4.608 3.552 1.008 7.2 2.208 10.272 3.552-1.2 1.104-2.4 2.112-3.648 3.024-.288 8.688-.288 17.568.048 26.352-.96.672-1.92 1.296-2.928 1.92 2.064.816 4.464 1.68 6.912 2.4-1.872 1.728-3.792 3.216-5.856 4.608-3.168-.912-6.24-2.064-8.544-3.12 1.2-1.104 2.4-2.112 3.648-3.024.288-8.64.288-17.424-.048-26.064 1.008-.72 2.064-1.44 3.168-2.064-2.736-1.104-5.856-2.112-8.88-2.976Zm28.596-1.488c-.192 6.048-.288 12.144-.24 18.192 3.264-3.696 7.248-8.832 10.608-13.536-2.448-1.392-4.896-2.544-7.344-3.456 1.92-1.632 3.936-3.024 6.144-4.272 2.784 1.056 5.568 2.352 8.256 4.032-3.696 4.944-8.448 10.56-11.568 13.92 3.168.912 6.864 2.304 9.6 3.744-.528 3.408-.72 10.608-.096 13.728 1.104.72 2.352 1.248 3.456 1.632-1.872 1.728-3.792 3.216-5.856 4.608-1.2-.336-2.64-.96-3.792-1.728-.48-2.688-.48-9.696.144-13.776-2.544-1.296-6.336-2.736-9.552-3.6.048 3.408.144 6.768.24 10.176-.912.672-1.872 1.296-2.832 1.872 2.256.864 4.992 1.728 7.776 2.448-1.872 1.728-3.792 3.216-5.856 4.608-3.504-.912-6.96-2.064-9.504-3.12 1.2-1.104 2.4-2.112 3.648-3.024.288-9.456.288-18.864-.048-28.32-1.44-.912-3.408-1.824-5.424-2.592 1.872-1.68 3.792-3.216 5.856-4.608 2.4.816 4.704 1.92 6.384 3.072Zm31.193 38.544c-4.032-.624-8.064-1.488-11.328-2.448 1.344-1.872 2.832-3.552 4.416-5.088l1.92.528c1.008-2.592 2.016-5.376 2.88-8.16-2.4-.336-4.752-.624-6.912-.816 1.056-1.68 2.208-3.264 3.456-4.608 1.536.144 3.168.384 4.896.624 1.248-4.56 2.208-9.072 2.688-12.912 1.008-.672 1.968-1.296 3.024-1.824-3.312-.96-6.96-1.728-10.704-2.352 1.872-1.68 3.792-3.216 5.856-4.608 6.384 1.008 12.624 2.688 17.136 4.56.432 4.8.72 10.368.72 16.368 0 4.512-.048 8.304-.288 11.904-.864.672-1.824 1.248-2.784 1.872 2.064.816 4.464 1.68 6.912 2.4-1.872 1.728-3.792 3.216-5.856 4.608-3.168-.912-6.24-2.064-8.544-3.12 1.2-1.104 2.448-2.16 3.744-3.12.24-2.4.384-6.096.48-9.696-.72 1.056-1.44 2.064-2.208 2.88-2.544-.624-5.424-1.152-8.304-1.68-1.296 3.12-2.688 5.904-4.032 8.208 2.304.528 4.752 1.008 7.248 1.392-1.344 1.872-2.832 3.552-4.416 5.088Zm2.976-19.344c3.024.576 6.048 1.248 8.736 1.968v-.864c0-4.32-.192-8.592-.576-12.912-.144-1.344-.336-1.584-1.584-2.112-.768-.288-1.584-.576-2.448-.816-.864 4.608-2.352 9.84-4.128 14.736Zm45.998 19.392c-3.168-.912-6.24-2.064-8.544-3.12 1.2-1.104 2.448-2.16 3.744-3.12.288-2.928.48-7.776.48-12.048 0-4.32-.192-8.592-.576-12.912-.144-1.344-.336-1.584-1.584-2.112-1.2-.432-2.496-.864-3.888-1.248-1.152 11.52-4.608 25.92-8.88 34.704-2.784-.336-5.664-1.152-7.632-2.16.48-2.592 1.2-5.472 1.824-7.536 1.104.672 2.784 1.344 4.368 1.872 3.408-8.544 5.664-17.952 6.816-25.776.72-.528 1.44-1.008 2.256-1.488-3.121-.864-6.576-1.584-10.08-2.16 1.872-1.68 3.792-3.216 5.856-4.608 6.384 1.008 12.624 2.688 17.136 4.56.432 4.8.72 10.368.72 16.368 0 4.512-.048 8.304-.288 11.904-.864.672-1.824 1.248-2.784 1.872 2.064.816 4.464 1.68 6.912 2.4-1.872 1.728-3.792 3.216-5.856 4.608Zm23.066 0c-5.664-.72-11.232-2.208-15.312-4.08 1.2-1.104 2.4-2.112 3.648-3.024.288-9.12.288-18.24-.048-27.36-1.44-.912-3.408-1.824-5.424-2.592 1.872-1.68 3.792-3.216 5.856-4.608 2.4 1.056 4.704 2.304 6.384 3.552-.192 4.752-.24 9.504-.24 14.304 1.392-1.104 2.88-2.112 4.416-3.024 4.224.576 8.688 1.824 11.808 3.168 1.44 8.112-.768 15.552-6.192 20.256-1.488 1.296-3.12 2.448-4.896 3.408Zm-7.728-8.016c3.168 1.2 7.056 2.256 11.088 2.976 1.776-3.744 2.064-8.976 1.584-13.152-.144-1.344-.384-1.584-1.632-2.112-2.4-.864-5.376-1.632-8.448-2.16 0 4.176.096 8.4.24 12.576-.912.672-1.872 1.296-2.832 1.872ZM77.452 158.96c3.552 1.008 7.2 2.208 10.272 3.552-1.2 1.104-2.4 2.112-3.648 3.024-.096 3.696-.192 7.392-.192 11.136 3.888.384 7.92.96 11.424 1.584 0-4.848-.048-9.648-.24-14.448 2.16-1.536 4.416-2.88 6.816-4.128-.144 5.328-.24 10.656-.24 16.032v17.28c0 1.344.144 1.632 1.344 2.304 1.056.576 2.208 1.056 3.024 1.344-1.776 1.584-3.744 2.976-5.856 4.128-1.392-.576-3.456-1.872-5.088-3.12.192-5.76.24-11.616.24-17.376-.576.816-1.2 1.632-1.824 2.304-2.928-.432-6.24-.816-9.6-1.152.048 3.456.096 6.864.24 10.32-.96.672-1.92 1.296-2.928 1.92 2.064.816 4.464 1.68 6.912 2.4-1.872 1.728-3.792 3.216-5.856 4.608-3.168-.912-6.24-2.064-8.544-3.12 1.2-1.104 2.4-2.112 3.648-3.024.144-4.56.24-9.12.192-13.632-1.92-.144-3.744-.24-5.472-.336 1.056-1.68 2.208-3.264 3.456-4.608l1.968.144c-.048-2.496-.096-4.992-.192-7.488 1.008-.72 2.064-1.44 3.168-2.064-2.736-1.104-5.856-2.112-8.88-2.976 1.872-1.728 3.792-3.216 5.856-4.608Zm43.824 41.712c-5.136-.672-10.176-2.064-13.872-3.84 1.2-1.104 2.4-2.112 3.648-3.024.288-9.216.288-18.384-.048-27.6-1.44-.912-3.408-1.824-5.424-2.592 1.872-1.68 3.792-3.216 5.856-4.608 2.4 1.056 4.704 2.304 6.384 3.552-.192 4.752-.24 9.504-.24 14.304 1.392-1.104 2.88-2.112 4.416-3.024 3.696.48 7.632 1.536 10.368 2.688 1.44 8.304-.72 15.984-6.192 20.736-1.488 1.296-3.12 2.448-4.896 3.408Zm-6.336-7.728c2.832 1.056 6.192 1.968 9.696 2.688 1.824-3.936 2.064-9.312 1.584-13.632-.144-1.344-.384-1.584-1.632-2.064-2.016-.672-4.464-1.296-7.008-1.728 0 4.272.096 8.544.24 12.816-.912.672-1.872 1.296-2.88 1.92Zm15.072-29.376c1.872-1.728 3.792-3.216 5.856-4.608 3.552 1.008 7.2 2.208 10.272 3.552-1.2 1.104-2.4 2.112-3.648 3.024-.288 8.688-.288 17.568.048 26.352-.96.672-1.92 1.296-2.928 1.92 2.064.816 4.464 1.68 6.912 2.4-1.872 1.728-3.792 3.216-5.856 4.608-3.168-.912-6.24-2.064-8.544-3.12 1.2-1.104 2.4-2.112 3.648-3.024.288-8.64.288-17.424-.048-26.064 1.008-.72 2.064-1.44 3.168-2.064-2.736-1.104-5.856-2.112-8.88-2.976Zm43.188 37.2c-1.584-.624-3.888-2.112-5.568-3.504-1.488 1.248-3.024 2.4-4.656 3.504-4.944-.96-9.744-2.448-13.344-4.08 2.448-8.448 3.264-20.688 2.064-28.032 1.104-.768 2.208-1.44 3.312-2.112-2.736-1.104-5.856-2.112-8.928-2.976 1.872-1.728 3.792-3.216 5.856-4.608 3.552 1.008 7.2 2.208 10.272 3.552-1.296 1.2-2.64 2.304-4.032 3.36.96 7.488-.192 18.576-3.12 26.016 3.456 1.536 8.208 3.024 13.056 4.128.192-5.376.24-10.8.24-16.176 0-5.376-.048-10.704-.24-16.032 2.16-1.536 4.416-2.88 6.816-4.128-.144 5.328-.24 10.656-.24 16.032v17.28c0 1.344.144 1.632 1.344 2.304 1.056.576 2.208 1.056 3.024 1.344-1.776 1.584-3.744 2.976-5.856 4.128Zm-16.272-47.472c1.152-1.2 2.832-2.544 4.272-3.504 1.488 2.304 3.072 3.264 4.848 3.264 1.584 0 3.12-.72 4.464-2.832.72.432 1.632 1.104 2.112 1.632-1.872 3.696-4.512 5.808-8.16 5.808-3.12 0-5.952-1.632-7.536-4.368Zm34.772 22.848c-1.008-2.688-1.872-7.44-1.968-11.136 1.872-2.112 4.32-4.32 6.816-6.048 7.056.48 15.216 1.776 21.744 3.648-.816 1.92-1.968 4.032-2.928 5.472-2.352-.72-4.848-1.344-7.44-1.92-.24 8.352-.192 16.752.096 25.104-.912.672-1.872 1.296-2.88 1.872 2.592 1.008 5.616 2.064 8.784 2.928-1.872 1.728-3.792 3.216-5.856 4.608-3.888-1.056-7.632-2.4-10.464-3.6 1.2-1.104 2.4-2.112 3.648-3.024.288-8.64.288-17.28-.048-25.92 1.248-.912 2.592-1.728 3.936-2.544-3.6-.672-7.296-1.2-10.992-1.632.336 2.736 1.008 5.808 2.112 8.64-1.296 1.392-3.408 2.976-4.56 3.552Zm43.183 29.76c-5.328-2.016-10.992-3.696-15.744-4.56 1.872-1.728 3.792-3.216 5.856-4.608 4.032.72 8.832 2.16 13.392 3.984.72-3.12 1.2-6.816 1.536-10.752-1.44 1.248-2.976 2.4-4.56 3.456-5.136-.96-10.08-2.448-13.824-4.08 2.448-6.24 3.264-15.264 2.064-20.688 1.104-.768 2.208-1.44 3.312-2.112-2.736-1.104-5.856-2.112-8.928-2.976 1.872-1.728 3.792-3.216 5.856-4.608 3.552 1.008 7.2 2.208 10.272 3.552-1.296 1.2-2.64 2.304-4.032 3.312.912 5.472-.192 13.344-2.976 18.768 3.504 1.488 8.112 2.928 12.912 3.984.624-8.592.384-18.192-.48-25.248 1.92-1.632 4.56-3.36 6.72-4.32 1.44 11.088.768 28.944-1.968 41.136-2.544 2.16-6.048 4.272-9.408 5.76Zm35.921-37.776c-.528-1.248-.768-1.536-2.016-2.016-2.016-.768-4.464-1.536-7.056-2.208-.144 7.68-.24 15.36-.192 23.04 2.784.96 5.856 1.824 9.072 2.448 2.496-4.8 2.832-13.92.192-21.264Zm-21.264-4.512c1.872-1.68 3.792-3.216 5.856-4.608 2.4 1.056 4.656 2.304 6.336 3.504 1.488-1.248 2.976-2.4 4.608-3.504 3.84.864 7.488 2.016 10.224 3.264 3.792 9.696 1.872 23.184-4.512 28.752-1.488 1.296-3.12 2.448-4.896 3.408-1.872-.24-3.744-.624-5.568-1.008l.192 9.024c-2.16.912-4.416 1.728-6.816 2.448.096-4.464.192-8.928.24-13.392-1.392-.48-2.688-1.056-3.84-1.632 1.248-1.152 2.544-2.208 3.84-3.168 0-6.864-.048-13.68-.24-20.496-1.44-.912-3.408-1.824-5.424-2.592Zm58.234 37.056c-5.52-.72-10.848-2.208-14.832-4.08 1.2-1.104 2.4-2.112 3.648-3.024.288-8.304.288-16.656-.048-24.96 1.44-1.008 2.88-1.92 4.416-2.832-3.264-.816-6.672-1.584-10.128-2.208 1.872-1.68 3.792-3.216 5.856-4.608 8.16 1.392 16.128 3.696 21.936 6.24 3.888 12.864 1.92 25.2-5.952 32.064-1.488 1.296-3.12 2.448-4.896 3.408Zm-7.296-8.016c3.12 1.2 6.816 2.256 10.704 2.976 3.6-6.816 4.128-16.896 1.632-24.576-.48-1.248-.72-1.536-1.968-2.016-2.256-.912-4.8-1.776-7.536-2.592-.288 8.112-.24 16.272.048 24.336-.912.672-1.872 1.296-2.88 1.872Zm49.203 8.016c-3.168-.912-6.24-2.064-8.544-3.12 1.2-1.104 2.448-2.16 3.744-3.12.288-2.928.48-7.776.48-12.048 0-4.32-.192-8.592-.576-12.912-.144-1.344-.336-1.584-1.584-2.112-1.2-.432-2.496-.864-3.888-1.248-1.152 11.52-4.608 25.92-8.88 34.704-2.784-.336-5.664-1.152-7.632-2.16.48-2.592 1.2-5.472 1.824-7.536 1.104.672 2.784 1.344 4.368 1.872 3.408-8.544 5.664-17.952 6.816-25.776.72-.528 1.44-1.008 2.256-1.488-3.12-.864-6.576-1.584-10.08-2.16 1.872-1.68 3.792-3.216 5.856-4.608 6.384 1.008 12.624 2.688 17.136 4.56.432 4.8.72 10.368.72 16.368 0 4.512-.048 8.304-.288 11.904-.864.672-1.824 1.248-2.784 1.872 2.064.816 4.464 1.68 6.912 2.4-1.872 1.728-3.792 3.216-5.856 4.608Zm28.491.096c-1.392-.576-3.456-1.872-5.088-3.12.144-5.136.24-10.32.24-15.456-2.352 6.672-6.096 13.872-9.984 18.624-2.784-.336-5.664-1.152-7.632-2.16.48-2.592 1.2-5.472 1.824-7.536 1.488.816 3.696 1.728 5.76 2.352 2.448-2.64 4.416-5.424 5.952-7.968-3.312-.768-7.296-1.92-10.032-3.12-3.312-6.768-.72-15.504 4.512-20.112 1.488-1.296 3.12-2.448 4.896-3.408 5.088.768 10.08 2.064 14.88 3.84-1.152 1.056-2.352 2.064-3.648 2.976-.096 3.312-.192 6.672-.192 10.032v17.28c0 1.344.144 1.632 1.344 2.304 1.056.576 2.208 1.056 3.024 1.344-1.776 1.584-3.744 2.976-5.856 4.128Zm-13.296-23.712c.576 1.2.864 1.44 2.112 1.872 1.872.528 4.032 1.104 6.336 1.584v-.672c0-3.6-.048-7.2-.24-10.752.96-.672 1.968-1.344 2.976-1.968-3.216-1.296-7.056-2.448-11.04-3.216-1.824 3.12-2.112 8.544-.144 13.152ZM87.742 253.904c-5.328-2.016-10.992-3.696-15.744-4.56 1.872-1.728 3.792-3.216 5.856-4.608 4.032.72 8.832 2.16 13.392 3.984.72-3.12 1.2-6.816 1.536-10.752-1.44 1.248-2.976 2.4-4.56 3.456-5.136-.96-10.08-2.448-13.824-4.08 2.448-6.24 3.264-15.264 2.064-20.688 1.104-.768 2.208-1.44 3.312-2.112-2.736-1.104-5.856-2.112-8.928-2.976 1.872-1.728 3.792-3.216 5.856-4.608 3.552 1.008 7.2 2.208 10.272 3.552-1.296 1.2-2.64 2.304-4.032 3.312.912 5.472-.192 13.344-2.976 18.768 3.504 1.488 8.112 2.928 12.912 3.984.624-8.592.384-18.192-.48-25.248 1.92-1.632 4.56-3.36 6.72-4.32 1.44 11.088.768 28.944-1.968 41.136-2.544 2.16-6.048 4.272-9.408 5.76Zm25.602-5.232c-3.504-.912-6.96-2.064-9.504-3.12 1.2-1.104 2.4-2.064 3.648-3.024.144-9.408.192-18.912.192-28.32-1.44-.912-3.408-1.824-5.424-2.592 1.872-1.68 3.792-3.216 5.856-4.608 2.304.816 4.512 1.92 6.144 3.072-.192 1.296-.432 4.368-.432 6.672 1.152-3.168 3.216-6.816 5.76-9.744 5.136.528 11.904 3.36 15.648 6.336-1.008.96-2.4 2.016-3.456 2.784-1.584 9.072-1.488 19.2-.72 24.336.24 1.776.432 2.064 4.704 4.08-1.776 1.632-3.888 3.12-5.952 4.272-1.392-.624-3.888-2.016-5.28-3.12-.672-7.008-.672-20.064 1.008-29.136.288-1.536-4.32-3.216-7.488-3.648-2.544 3.84-3.984 9.36-3.984 17.952 0 2.976.096 5.904.192 8.88-.912.672-1.872 1.296-2.832 1.872 2.256.864 4.992 1.728 7.776 2.448-1.872 1.728-3.792 3.216-5.856 4.608Zm43.788-32.544c-.528-1.248-.768-1.536-2.016-2.016-2.016-.768-4.464-1.536-7.056-2.208-.144 7.68-.24 15.36-.192 23.04 2.784.96 5.856 1.824 9.072 2.448 2.496-4.8 2.832-13.92.192-21.264Zm-21.264-4.512c1.872-1.68 3.792-3.216 5.856-4.608 2.4 1.056 4.656 2.304 6.336 3.504 1.488-1.248 2.976-2.4 4.608-3.504 3.84.864 7.488 2.016 10.224 3.264 3.792 9.696 1.872 23.184-4.512 28.752-1.488 1.296-3.12 2.448-4.896 3.408-1.872-.24-3.744-.624-5.568-1.008l.192 9.024c-2.16.912-4.416 1.728-6.816 2.448.096-4.464.192-8.928.24-13.392-1.392-.48-2.688-1.056-3.84-1.632 1.248-1.152 2.544-2.208 3.84-3.168 0-6.864-.048-13.68-.24-20.496-1.44-.912-3.408-1.824-5.424-2.592Zm42.074 37.008c-4.032-.624-8.064-1.488-11.328-2.448 1.344-1.872 2.832-3.552 4.416-5.088l1.92.528c1.008-2.592 2.016-5.376 2.88-8.16-2.4-.336-4.752-.624-6.912-.816 1.056-1.68 2.208-3.264 3.456-4.608 1.536.144 3.168.384 4.896.624 1.248-4.56 2.208-9.072 2.688-12.912 1.008-.672 1.968-1.296 3.024-1.824-3.312-.96-6.96-1.728-10.704-2.352 1.872-1.68 3.792-3.216 5.856-4.608 6.384 1.008 12.624 2.688 17.136 4.56.432 4.8.72 10.368.72 16.368 0 4.512-.048 8.304-.288 11.904-.864.672-1.824 1.248-2.784 1.872 2.064.816 4.464 1.68 6.912 2.4-1.872 1.728-3.792 3.216-5.856 4.608-3.168-.912-6.24-2.064-8.544-3.12 1.2-1.104 2.448-2.16 3.744-3.12.24-2.4.384-6.096.48-9.696-.72 1.056-1.44 2.064-2.208 2.88-2.544-.624-5.424-1.152-8.304-1.68-1.296 3.12-2.688 5.904-4.032 8.208 2.304.528 4.752 1.008 7.248 1.392-1.344 1.872-2.832 3.552-4.416 5.088Zm2.976-19.344c3.024.576 6.048 1.248 8.736 1.968v-.864c0-4.32-.192-8.592-.576-12.912-.144-1.344-.336-1.584-1.584-2.112-.768-.288-1.584-.576-2.448-.816-.864 4.608-2.352 9.84-4.128 14.736Zm36.446 19.392c-5.664-.72-11.232-2.208-15.312-4.08 1.2-1.104 2.4-2.112 3.648-3.024.288-9.12.288-18.24-.048-27.36-1.44-.912-3.408-1.824-5.424-2.592 1.872-1.68 3.792-3.216 5.856-4.608 2.4 1.056 4.656 2.304 6.336 3.504 1.488-1.248 2.976-2.4 4.608-3.504 3.696.816 7.152 1.92 9.744 3.072 1.392 4.704.048 9.84-5.088 14.256 2.496.864 4.944 1.968 6.768 3.072 1.44 7.152-1.056 13.392-6.192 17.856-1.488 1.296-3.12 2.448-4.896 3.408Zm-7.728-8.016c3.216 1.2 7.104 2.256 11.184 3.024 1.68-3.12 1.968-7.344 1.536-10.8-.192-1.344-.384-1.632-1.584-2.304-1.824-.912-4.08-1.872-6.384-2.592 1.68-1.392 3.408-2.592 5.232-3.744 1.248-1.776 1.584-5.184 1.104-8.256-.24-1.296-.48-1.536-1.728-2.064-1.872-.672-4.176-1.392-6.576-2.016-.288 8.976-.288 17.904.048 26.88-.912.672-1.872 1.296-2.832 1.872Zm47.889 8.016c-3.168-.912-6.24-2.064-8.544-3.12 1.2-1.104 2.448-2.16 3.744-3.12.288-2.928.48-7.776.48-12.048 0-4.32-.192-8.592-.576-12.912-.144-1.344-.336-1.584-1.584-2.112-1.2-.432-2.496-.864-3.888-1.248-1.152 11.52-4.608 25.92-8.88 34.704-2.784-.336-5.664-1.152-7.632-2.16.48-2.592 1.2-5.472 1.824-7.536 1.104.672 2.784 1.344 4.368 1.872 3.408-8.544 5.664-17.952 6.816-25.776.72-.528 1.44-1.008 2.256-1.488-3.12-.864-6.576-1.584-10.08-2.16 1.872-1.68 3.792-3.216 5.856-4.608 6.384 1.008 12.624 2.688 17.136 4.56.432 4.8.72 10.368.72 16.368 0 4.512-.048 8.304-.288 11.904-.864.672-1.824 1.248-2.784 1.872 2.064.816 4.464 1.68 6.912 2.4-1.872 1.728-3.792 3.216-5.856 4.608Zm26.186 0c-7.44-1.296-14.64-3.312-20.064-5.52 1.2-1.104 2.4-2.112 3.648-3.024.336-2.592.576-7.68.576-12.144 0-4.752-.24-9.456-.72-14.208 2.928-2.4 7.056-5.04 10.32-6.816 3.6 1.152 7.776 2.256 11.712 3.072-1.872 1.728-3.792 3.216-5.856 4.608-3.216-.624-6.576-1.44-9.648-2.4.336 3.984.528 8.448.528 13.248v1.776c.72-1.2 1.488-2.304 2.304-3.312 3.6 0 8.256.192 11.808.576-1.056 2.016-2.208 3.84-3.456 5.328-3.168-.288-7.248-.528-10.656-.576-.048 2.544-.144 4.896-.288 7.152-1.152.864-2.352 1.632-3.648 2.4 5.328 2.016 12.192 3.888 19.296 5.232-1.872 1.728-3.792 3.216-5.856 4.608Zm11.991-41.712c3.552 1.008 7.2 2.208 10.272 3.552-1.2 1.104-2.4 2.112-3.648 3.024-.096 3.696-.192 7.392-.192 11.136 3.888.384 7.92.96 11.424 1.584 0-4.848-.048-9.648-.24-14.448 2.16-1.536 4.416-2.88 6.816-4.128-.144 5.328-.24 10.656-.24 16.032v17.28c0 1.344.144 1.632 1.344 2.304 1.056.576 2.208 1.056 3.024 1.344-1.776 1.584-3.744 2.976-5.856 4.128-1.392-.576-3.456-1.872-5.088-3.12.192-5.76.24-11.616.24-17.376-.576.816-1.2 1.632-1.824 2.304-2.928-.432-6.24-.816-9.6-1.152.048 3.456.096 6.864.24 10.32-.96.672-1.92 1.296-2.928 1.92 2.064.816 4.464 1.68 6.912 2.4-1.872 1.728-3.792 3.216-5.856 4.608-3.168-.912-6.24-2.064-8.544-3.12 1.2-1.104 2.4-2.112 3.648-3.024.144-4.56.24-9.12.192-13.632-1.92-.144-3.744-.24-5.472-.336 1.056-1.68 2.208-3.264 3.456-4.608l1.968.144c-.048-2.496-.096-4.992-.192-7.488 1.008-.72 2.064-1.44 3.168-2.064-2.736-1.104-5.856-2.112-8.88-2.976 1.872-1.728 3.792-3.216 5.856-4.608Zm55.248 41.808c-1.584-.624-3.888-2.112-5.568-3.504-1.488 1.248-3.024 2.4-4.656 3.504-4.944-.96-9.744-2.448-13.344-4.08 2.448-8.448 3.264-20.688 2.064-28.032 1.104-.768 2.208-1.44 3.312-2.112-2.736-1.104-5.856-2.112-8.928-2.976 1.872-1.728 3.792-3.216 5.856-4.608 3.552 1.008 7.2 2.208 10.272 3.552-1.296 1.2-2.64 2.304-4.032 3.36.96 7.488-.192 18.576-3.12 26.016 3.456 1.536 8.208 3.024 13.056 4.128.192-5.376.24-10.8.24-16.176 0-5.376-.048-10.704-.24-16.032 2.16-1.536 4.416-2.88 6.816-4.128-.144 5.328-.24 10.656-.24 16.032v17.28c0 1.344.144 1.632 1.344 2.304 1.056.576 2.208 1.056 3.024 1.344-1.776 1.584-3.744 2.976-5.856 4.128Zm27.972 0c-1.392-.576-3.456-1.872-5.088-3.12.144-5.136.24-10.32.24-15.456-2.352 6.672-6.096 13.872-9.984 18.624-2.784-.336-5.664-1.152-7.632-2.16.48-2.592 1.2-5.472 1.824-7.536 1.488.816 3.696 1.728 5.76 2.352 2.448-2.64 4.416-5.424 5.952-7.968-3.312-.768-7.296-1.92-10.032-3.12-3.312-6.768-.72-15.504 4.512-20.112 1.488-1.296 3.12-2.448 4.896-3.408 5.088.768 10.08 2.064 14.88 3.84-1.152 1.056-2.352 2.064-3.648 2.976-.096 3.312-.192 6.672-.192 10.032v17.28c0 1.344.144 1.632 1.344 2.304 1.056.576 2.208 1.056 3.024 1.344-1.776 1.584-3.744 2.976-5.856 4.128Zm-13.296-23.712c.576 1.2.864 1.44 2.112 1.872 1.872.528 4.032 1.104 6.336 1.584v-.672c0-3.6-.048-7.2-.24-10.752.96-.672 1.968-1.344 2.976-1.968-3.216-1.296-7.056-2.448-11.04-3.216-1.824 3.12-2.112 8.544-.144 13.152ZM97.8228 254.96c3.5522 1.152 7.6322 2.256 11.5202 3.072-1.872 1.728-3.792 3.216-5.856 4.608-3.12-.624-6.3362-1.392-9.3602-2.352-.624 4.8-1.008 10.368-1.008 15.936 0 3.36.192 6.672.528 9.84.192 1.344.384 1.632 1.584 2.16 3.456 1.536 7.8722 2.976 12.3842 3.984-1.872 1.68-3.792 3.216-5.856 4.608-5.3282-1.056-10.4642-2.832-14.2562-4.8-.48-3.792-.72-7.92-.72-12 0-8.016.672-15.024 2.064-19.824 2.736-2.064 5.712-3.696 8.976-5.232Zm37.3582 41.712c-3.168-.912-6.24-2.064-8.544-3.12 1.2-1.104 2.448-2.16 3.744-3.12.288-2.928.48-7.776.48-12.048 0-4.32-.192-8.592-.576-12.912-.144-1.344-.336-1.584-1.584-2.112-1.2-.432-2.496-.864-3.888-1.248-1.152 11.52-4.608 25.92-8.88 34.704-2.784-.336-5.664-1.152-7.632-2.16.48-2.592 1.2-5.472 1.824-7.536 1.104.672 2.784 1.344 4.368 1.872 3.408-8.544 5.664-17.952 6.816-25.776.72-.528 1.44-1.008 2.256-1.488-3.12-.864-6.576-1.584-10.08-2.16 1.872-1.68 3.792-3.216 5.856-4.608 6.384 1.008 12.624 2.688 17.136 4.56.432 4.8.72 10.368.72 16.368 0 4.512-.048 8.304-.288 11.904-.864.672-1.824 1.248-2.784 1.872 2.064.816 4.464 1.68 6.912 2.4-1.872 1.728-3.792 3.216-5.856 4.608ZM154.6 254.96c5.136.96 10.128 2.544 13.776 4.32.48 3.936.72 8.256.72 12.48 0 8.016-.672 15.024-2.064 19.824-2.736 2.064-5.712 3.696-8.976 5.232-5.136-.96-10.128-2.544-13.776-4.32-.48-3.936-.72-8.256-.72-12.48 0-8.016.672-15.024 2.064-19.824 2.736-2.064 5.712-3.696 8.976-5.232Zm-4.704 21.264c0 3.504.192 7.008.528 10.32.192 1.344.384 1.632 1.584 2.16 2.784 1.104 6.144 2.16 9.696 3.024.672-4.896 1.056-10.512 1.056-16.176 0-3.504-.192-7.008-.528-10.32-.192-1.344-.384-1.632-1.584-2.16-2.784-1.104-6.144-2.208-9.696-3.024-.672 4.848-1.056 10.512-1.056 16.176Zm59.265 20.448c-1.2-.336-2.64-.96-3.792-1.728-.432-2.544-.48-8.784-.048-13.2.192-1.344 0-1.632-1.2-2.208-2.112-.96-4.8-1.968-7.2-2.64 0 6.24.096 12.48.24 18.672-2.16 1.008-4.416 1.872-6.816 2.688.192-7.344.24-14.688.24-22.032-2.688 1.584-5.808 3.6-8.448 5.472.192 4.128.144 8.64-.096 11.328-2.256 1.536-4.56 2.784-6.816 3.792.288-4.656.288-9.792.096-15.216 2.448-1.248 5.424-2.64 7.968-3.696-2.496-.864-5.328-2.112-7.44-3.408.384-3.792.672-9.888.672-12.96-1.296-.816-2.736-1.488-4.032-1.92 1.872-1.728 3.792-3.216 5.856-4.608 1.44.432 3.12 1.2 4.464 2.16-.432 4.608-.816 10.128-.816 11.904 0 1.968 1.632 2.736 8.592 5.136 0-5.76-.096-11.52-.24-17.28 2.16-1.008 4.416-1.872 6.816-2.688-.144 6.768-.24 13.584-.24 20.4 2.496-2.064 5.328-4.656 7.824-7.152.96-.96 1.008-1.248.24-2.4-1.584-2.352-3.168-4.32-4.8-5.808 1.968-1.584 3.984-2.976 6.144-4.272 2.304 2.544 4.608 5.712 6.816 9.792-3.216 2.736-7.2 5.856-10.176 7.968 2.928.912 6.24 2.16 8.688 3.456-.528 3.504-.72 10.992-.096 14.208 1.104.72 2.352 1.248 3.456 1.632-1.872 1.728-3.792 3.216-5.856 4.608Zm12.666-41.712c3.552 1.008 7.2 2.208 10.272 3.552-1.2 1.104-2.4 2.112-3.648 3.024-.096 3.696-.192 7.392-.192 11.136 3.888.384 7.92.96 11.424 1.584 0-4.848-.048-9.648-.24-14.448 2.16-1.536 4.416-2.88 6.816-4.128-.144 5.328-.24 10.656-.24 16.032v17.28c0 1.344.144 1.632 1.344 2.304 1.056.576 2.208 1.056 3.024 1.344-1.776 1.584-3.744 2.976-5.856 4.128-1.392-.576-3.456-1.872-5.088-3.12.192-5.76.24-11.616.24-17.376-.576.816-1.2 1.632-1.824 2.304-2.928-.432-6.24-.816-9.6-1.152.048 3.456.096 6.864.24 10.32-.96.672-1.92 1.296-2.928 1.92 2.064.816 4.464 1.68 6.912 2.4-1.872 1.728-3.792 3.216-5.856 4.608-3.168-.912-6.24-2.064-8.544-3.12 1.2-1.104 2.4-2.112 3.648-3.024.144-4.56.24-9.12.192-13.632-1.92-.144-3.744-.24-5.472-.336 1.056-1.68 2.208-3.264 3.456-4.608l1.968.144c-.048-2.496-.096-4.992-.192-7.488 1.008-.72 2.064-1.44 3.168-2.064-2.736-1.104-5.856-2.112-8.88-2.976 1.872-1.728 3.792-3.216 5.856-4.608Zm43.824 41.712c-5.136-.672-10.176-2.064-13.872-3.84 1.2-1.104 2.4-2.112 3.648-3.024.288-9.216.288-18.384-.048-27.6-1.44-.912-3.408-1.824-5.424-2.592 1.872-1.68 3.792-3.216 5.856-4.608 2.4 1.056 4.704 2.304 6.384 3.552-.192 4.752-.24 9.504-.24 14.304 1.392-1.104 2.88-2.112 4.416-3.024 3.696.48 7.632 1.536 10.368 2.688 1.44 8.304-.72 15.984-6.192 20.736-1.488 1.296-3.12 2.448-4.896 3.408Zm-6.336-7.728c2.832 1.056 6.192 1.968 9.696 2.688 1.824-3.936 2.064-9.312 1.584-13.632-.144-1.344-.384-1.584-1.632-2.064-2.016-.672-4.464-1.296-7.008-1.728 0 4.272.096 8.544.24 12.816-.912.672-1.872 1.296-2.88 1.92Zm15.072-29.376c1.872-1.728 3.792-3.216 5.856-4.608 3.552 1.008 7.2 2.208 10.272 3.552-1.2 1.104-2.4 2.112-3.648 3.024-.288 8.688-.288 17.568.048 26.352-.96.672-1.92 1.296-2.928 1.92 2.064.816 4.464 1.68 6.912 2.4-1.872 1.728-3.792 3.216-5.856 4.608-3.168-.912-6.24-2.064-8.544-3.12 1.2-1.104 2.4-2.112 3.648-3.024.288-8.64.288-17.424-.048-26.064 1.008-.72 2.064-1.44 3.168-2.064-2.736-1.104-5.856-2.112-8.88-2.976Zm27.3 37.104c-3.504-.912-6.96-2.064-9.504-3.12 1.2-1.104 2.4-2.064 3.648-3.024.144-9.408.192-18.912.192-28.32-1.44-.912-3.408-1.824-5.424-2.592 1.872-1.68 3.792-3.216 5.856-4.608 2.304.816 4.512 1.92 6.144 3.072-.192 1.296-.432 4.368-.432 6.672 1.152-3.168 3.216-6.816 5.76-9.744 3.36.384 7.872 1.92 10.32 3.408-.336 2.112-.624 4.224-.72 6.336 1.152-3.168 3.216-6.816 5.76-9.744 4.656.528 10.8 3.36 14.208 6.336-1.008.96-2.4 2.016-3.456 2.784-1.584 9.072-1.488 19.2-.72 24.336.24 1.776.432 2.064 4.704 4.08-1.776 1.632-3.888 3.12-5.952 4.272-1.392-.624-3.888-2.016-5.28-3.12-.672-7.008-.672-20.064 1.008-29.136.288-1.488-3.408-3.12-6.048-3.6-2.544 3.792-3.984 9.36-3.984 17.904 0 5.088.096 10.176.24 15.264-2.16.912-4.416 1.728-6.816 2.448.192-5.184.288-10.464.288-15.648V263.6c0-1.152-2.688-2.304-5.088-2.688-2.544 3.84-3.984 9.36-3.984 17.952 0 2.976.096 5.904.192 8.88-.912.672-1.872 1.296-2.832 1.872 2.256.864 4.992 1.728 7.776 2.448-1.872 1.728-3.792 3.216-5.856 4.608Zm63.279.096c-1.584-.624-3.888-2.112-5.568-3.504-1.488 1.248-3.024 2.4-4.656 3.504-4.944-.96-9.744-2.448-13.344-4.08 2.448-8.448 3.264-20.688 2.064-28.032 1.104-.768 2.208-1.44 3.312-2.112-2.736-1.104-5.856-2.112-8.928-2.976 1.872-1.728 3.792-3.216 5.856-4.608 3.552 1.008 7.2 2.208 10.272 3.552-1.296 1.2-2.64 2.304-4.032 3.36.96 7.488-.192 18.576-3.12 26.016 3.456 1.536 8.208 3.024 13.056 4.128.192-5.376.24-10.8.24-16.176 0-5.376-.048-10.704-.24-16.032 2.16-1.536 4.416-2.88 6.816-4.128-.144 5.328-.24 10.656-.24 16.032v17.28c0 1.344.144 1.632 1.344 2.304 1.056.576 2.208 1.056 3.024 1.344-1.776 1.584-3.744 2.976-5.856 4.128Zm-261.178 29.088c-3.552-.336-8.2076-.576-11.8076-.576 1.056-1.968 2.208-3.792 3.456-5.328 3.168 0 7.1516.144 10.5116.432-.096-2.736-.336-5.472-.624-8.064-.192-1.344-.432-1.584-1.728-1.968-3.6476-1.056-8.3036-2.064-13.0556-2.736 1.872-1.68 3.792-3.216 5.856-4.608 5.6636.72 11.0396 1.968 15.0236 3.36.624 4.224.912 8.88.912 13.44 0 7.92-.672 14.88-2.064 19.632-2.736 2.064-5.712 3.696-8.976 5.232-4.5596-.576-9.0716-1.776-12.3356-3.264 1.536-1.872 3.168-3.552 4.896-5.088 2.976 1.344 6.9596 2.544 11.0876 3.36.672-4.848 1.056-10.464 1.056-16.08v-.864c-.72 1.152-1.44 2.208-2.208 3.12Zm22.423 18.816c-3.504-.912-6.96-2.064-9.504-3.12 1.2-1.104 2.4-2.064 3.648-3.024.144-9.408.192-18.912.192-28.32-1.44-.912-3.408-1.824-5.424-2.592 1.872-1.68 3.792-3.216 5.856-4.608 2.304.816 4.512 1.92 6.144 3.072-.192 1.296-.432 4.368-.432 6.672 1.152-3.168 3.216-6.816 5.76-9.744 3.36.384 7.872 1.92 10.32 3.408-.336 2.112-.624 4.224-.72 6.336 1.152-3.168 3.216-6.816 5.76-9.744 4.656.528 10.8 3.36 14.208 6.336-1.008.96-2.4 2.016-3.456 2.784-1.584 9.072-1.488 19.2-.72 24.336.24 1.776.432 2.064 4.704 4.08-1.776 1.632-3.888 3.12-5.952 4.272-1.392-.624-3.888-2.016-5.28-3.12-.672-7.008-.672-20.064 1.008-29.136.288-1.488-3.408-3.12-6.048-3.6-2.544 3.792-3.984 9.36-3.984 17.904 0 5.088.096 10.176.24 15.264-2.16.912-4.416 1.728-6.816 2.448.192-5.184.288-10.464.288-15.648V311.6c0-1.152-2.688-2.304-5.088-2.688-2.544 3.84-3.984 9.36-3.984 17.952 0 2.976.096 5.904.192 8.88-.912.672-1.872 1.296-2.832 1.872 2.256.864 4.992 1.728 7.776 2.448-1.872 1.728-3.792 3.216-5.856 4.608Zm49.646-41.712c5.136.96 10.128 2.544 13.776 4.32.48 3.936.72 8.256.72 12.48 0 8.016-.672 15.024-2.064 19.824-2.736 2.064-5.712 3.696-8.976 5.232-5.136-.96-10.128-2.544-13.776-4.32-.48-3.936-.72-8.256-.72-12.48 0-8.016.672-15.024 2.064-19.824 2.736-2.064 5.712-3.696 8.976-5.232Zm-4.704 21.264c0 3.504.192 7.008.528 10.32.192 1.344.384 1.632 1.584 2.16 2.784 1.104 6.144 2.16 9.696 3.024.672-4.896 1.056-10.512 1.056-16.176 0-3.504-.192-7.008-.528-10.32-.192-1.344-.384-1.632-1.584-2.16-2.784-1.104-6.144-2.208-9.696-3.024-.672 4.848-1.056 10.512-1.056 16.176Zm48.946 20.544c-1.584-.624-3.888-2.112-5.568-3.504-1.488 1.248-3.024 2.4-4.656 3.504-4.944-.96-9.744-2.448-13.344-4.08 2.448-8.448 3.264-20.688 2.064-28.032 1.104-.768 2.208-1.44 3.312-2.112-2.736-1.104-5.856-2.112-8.928-2.976 1.872-1.728 3.792-3.216 5.856-4.608 3.552 1.008 7.2 2.208 10.272 3.552-1.296 1.2-2.64 2.304-4.032 3.36.96 7.488-.192 18.576-3.12 26.016 3.456 1.536 8.208 3.024 13.056 4.128.192-5.376.24-10.8.24-16.176 0-5.376-.048-10.704-.24-16.032 2.16-1.536 4.416-2.88 6.816-4.128-.144 5.328-.24 10.656-.24 16.032v17.28c0 1.344.144 1.632 1.344 2.304 1.056.576 2.208 1.056 3.024 1.344-1.776 1.584-3.744 2.976-5.856 4.128Zm-9.552 4.224c.912-1.392 1.968-2.688 3.072-3.792 3.792.24 7.968 1.056 11.616 2.544-.72 1.392-1.728 3.168-2.592 4.416-4.08-1.68-8.832-2.88-12.096-3.168Zm42.083-4.224c-1.584-.624-3.888-2.112-5.568-3.504-1.488 1.248-3.024 2.4-4.656 3.504-4.944-.96-9.744-2.448-13.344-4.08 2.448-8.448 3.264-20.688 2.064-28.032 1.104-.768 2.208-1.44 3.312-2.112-2.736-1.104-5.856-2.112-8.928-2.976 1.872-1.728 3.792-3.216 5.856-4.608 3.552 1.008 7.2 2.208 10.272 3.552-1.296 1.2-2.64 2.304-4.032 3.36.96 7.488-.192 18.576-3.12 26.016 3.456 1.536 8.208 3.024 13.056 4.128.192-5.376.24-10.8.24-16.176 0-5.376-.048-10.704-.24-16.032 2.16-1.536 4.416-2.88 6.816-4.128-.144 5.328-.24 10.656-.24 16.032v17.28c0 1.344.144 1.632 1.344 2.304 1.056.576 2.208 1.056 3.024 1.344-1.776 1.584-3.744 2.976-5.856 4.128Zm27.971 0c-1.392-.576-3.456-1.872-5.088-3.12.144-5.136.24-10.32.24-15.456-2.352 6.672-6.096 13.872-9.984 18.624-2.784-.336-5.664-1.152-7.632-2.16.48-2.592 1.2-5.472 1.824-7.536 1.488.816 3.696 1.728 5.76 2.352 2.448-2.64 4.416-5.424 5.952-7.968-3.312-.768-7.296-1.92-10.032-3.12-3.312-6.768-.72-15.504 4.512-20.112 1.488-1.296 3.12-2.448 4.896-3.408 5.088.768 10.08 2.064 14.88 3.84-1.152 1.056-2.352 2.064-3.648 2.976-.096 3.312-.192 6.672-.192 10.032v17.28c0 1.344.144 1.632 1.344 2.304 1.056.576 2.208 1.056 3.024 1.344-1.776 1.584-3.744 2.976-5.856 4.128Zm-13.296-23.712c.576 1.2.864 1.44 2.112 1.872 1.872.528 4.032 1.104 6.336 1.584v-.672c0-3.6-.048-7.2-.24-10.752.96-.672 1.968-1.344 2.976-1.968-3.216-1.296-7.056-2.448-11.04-3.216-1.824 3.12-2.112 8.544-.144 13.152Zm29.953 23.616c-3.504-.912-6.96-2.064-9.504-3.12 1.2-1.104 2.4-2.064 3.648-3.024.144-9.408.192-18.912.192-28.32-1.44-.912-3.408-1.824-5.424-2.592 1.872-1.68 3.792-3.216 5.856-4.608 2.304.816 4.512 1.92 6.144 3.072-.192 1.296-.432 4.368-.432 6.672 1.152-3.168 3.216-6.816 5.76-9.744 3.36.384 7.872 1.92 10.32 3.408-.336 2.112-.624 4.224-.72 6.336 1.152-3.168 3.216-6.816 5.76-9.744 4.656.528 10.8 3.36 14.208 6.336-1.008.96-2.4 2.016-3.456 2.784-1.584 9.072-1.488 19.2-.72 24.336.24 1.776.432 2.064 4.704 4.08-1.776 1.632-3.888 3.12-5.952 4.272-1.392-.624-3.888-2.016-5.28-3.12-.672-7.008-.672-20.064 1.008-29.136.288-1.488-3.408-3.12-6.048-3.6-2.544 3.792-3.984 9.36-3.984 17.904 0 5.088.096 10.176.24 15.264-2.16.912-4.416 1.728-6.816 2.448.192-5.184.288-10.464.288-15.648V311.6c0-1.152-2.688-2.304-5.088-2.688-2.544 3.84-3.984 9.36-3.984 17.952 0 2.976.096 5.904.192 8.88-.912.672-1.872 1.296-2.832 1.872 2.256.864 4.992 1.728 7.776 2.448-1.872 1.728-3.792 3.216-5.856 4.608Zm63.278.096c-1.584-.624-3.888-2.112-5.568-3.504-1.488 1.248-3.024 2.4-4.656 3.504-4.944-.96-9.744-2.448-13.344-4.08 2.448-8.448 3.264-20.688 2.064-28.032 1.104-.768 2.208-1.44 3.312-2.112-2.736-1.104-5.856-2.112-8.928-2.976 1.872-1.728 3.792-3.216 5.856-4.608 3.552 1.008 7.2 2.208 10.272 3.552-1.296 1.2-2.64 2.304-4.032 3.36.96 7.488-.192 18.576-3.12 26.016 3.456 1.536 8.208 3.024 13.056 4.128.192-5.376.24-10.8.24-16.176 0-5.376-.048-10.704-.24-16.032 2.16-1.536 4.416-2.88 6.816-4.128-.144 5.328-.24 10.656-.24 16.032v17.28c0 1.344.144 1.632 1.344 2.304 1.056.576 2.208 1.056 3.024 1.344-1.776 1.584-3.744 2.976-5.856 4.128ZM104.161 383.2h-1.624l-3.3458 7.882h-.056V383.2h-1.218v9.8h1.624l3.3598-7.854h.056V393h1.204v-9.8Zm7.394 2.8h-4.494v7h1.232v-5.992h3.262V386Zm5.685 7.14c1.862 0 3.108-1.47 3.108-3.64s-1.246-3.64-3.108-3.64c-1.876 0-3.108 1.47-3.108 3.64s1.232 3.64 3.108 3.64Zm0-1.05c-1.19 0-1.89-1.19-1.89-2.59 0-1.414.7-2.604 1.89-2.604s1.89 1.19 1.89 2.604c0 1.4-.7 2.59-1.89 2.59Zm8.402-6.23c-.882 0-1.694.504-2.002 1.036h-.056l.042-.798V386h-1.218v10.08h1.218v-3.92h.056c.336.532 1.106.966 1.932.966 1.638 0 2.87-1.302 2.87-3.64 0-2.324-1.232-3.626-2.842-3.626Zm-.21 6.23c-1.008 0-1.806-.938-1.806-2.604 0-1.652.798-2.59 1.806-2.59s1.834.994 1.834 2.59c0 1.61-.826 2.604-1.834 2.604Zm8.234-3.906h-1.834V386h-1.218v7h3.052c1.89 0 2.716-.98 2.716-2.408 0-1.456-.826-2.408-2.716-2.408Zm-.014 3.836h-1.82v-2.856h1.82c.91 0 1.484.504 1.484 1.428 0 .938-.574 1.428-1.484 1.428Zm18.693-6.02h-1.498l-2.73 5.292h-.056V386h-1.19v7h1.498l2.744-5.278h.056V393h1.176v-7Zm13.192-2.94c-1.33 0-2.772.868-3.01 2.716l1.26.168c.252-1.33 1.092-1.778 1.764-1.778 1.022 0 2.17.952 2.352 3.332h-3.066v1.064h3.08c-.098 2.604-1.274 3.472-2.296 3.472-.77 0-1.596-.504-1.834-1.722l-1.26.168c.238 1.778 1.68 2.66 3.08 2.66 1.988 0 3.584-1.386 3.584-4.942 0-3.612-1.68-5.138-3.654-5.138Zm11.328 8.932V386h-4.494l-.364 4.522c-.084 1.092-.574 1.47-1.148 1.47h-.434v2.8h1.106V393h4.718v1.792h1.106v-2.8h-.49Zm-4.214 0v-.056c.336-.266.56-.728.63-1.428l.266-3.514h2.072v4.998h-2.968ZM183.852 386l-1.778 5.264h-.056l-1.96-5.264h-1.33l2.716 6.874-1.148 3.206h1.232l3.57-10.08h-1.246Zm8.864 5.124v-2.604c0-2.002-1.414-2.66-2.856-2.66-1.386 0-2.576.784-2.758 1.974l1.218.168c.224-.728.854-1.106 1.596-1.106.798 0 1.596.448 1.596 1.652v.77c-.504-.308-1.092-.49-1.722-.49-1.694 0-2.688.91-2.688 2.226 0 1.4 1.022 2.072 2.366 2.072.994 0 1.694-.42 2.044-1.008h.056c.028.364.098.658.154.882h1.162v-.112c-.112-.266-.168-1.036-.168-1.764Zm-3.122.98c-.714 0-1.274-.294-1.274-1.064s.616-1.232 1.554-1.232c.476 0 1.106.154 1.638.462-.042 1.26-.952 1.834-1.918 1.834Zm8.892-6.244c-.882 0-1.694.504-2.002 1.036h-.056l.042-.798V386h-1.218v10.08h1.218v-3.92h.056c.336.532 1.106.966 1.932.966 1.638 0 2.87-1.302 2.87-3.64 0-2.324-1.232-3.626-2.842-3.626Zm-.21 6.23c-1.008 0-1.806-.938-1.806-2.604 0-1.652.798-2.59 1.806-2.59s1.834.994 1.834 2.59c0 1.61-.826 2.604-1.834 2.604Zm10.964-.098V386h-4.494l-.364 4.522c-.084 1.092-.574 1.47-1.148 1.47h-.434v2.8h1.106V393h4.718v1.792h1.106v-2.8h-.49Zm-4.214 0v-.056c.336-.266.56-.728.63-1.428l.266-3.514h2.072v4.998h-2.968ZM225.133 386h-5.348v7h1.26v-6.006h2.842V393h1.246v-7Zm5.728-.14c-.882 0-1.694.504-2.002 1.036h-.056l.042-.798V386h-1.218v10.08h1.218v-3.92h.056c.336.532 1.106.966 1.932.966 1.638 0 2.87-1.302 2.87-3.64 0-2.324-1.232-3.626-2.842-3.626Zm-.21 6.23c-1.008 0-1.806-.938-1.806-2.604 0-1.652.798-2.59 1.806-2.59s1.834.994 1.834 2.59c0 1.61-.826 2.604-1.834 2.604Zm7.996 1.05c1.862 0 3.108-1.47 3.108-3.64s-1.246-3.64-3.108-3.64c-1.876 0-3.108 1.47-3.108 3.64s1.232 3.64 3.108 3.64Zm0-1.05c-1.19 0-1.89-1.19-1.89-2.59 0-1.414.7-2.604 1.89-2.604s1.89 1.19 1.89 2.604c0 1.4-.7 2.59-1.89 2.59Zm9.843-2.702v-.056c.546-.252.952-.756.952-1.442 0-1.148-.742-1.89-2.366-1.89h-3.108v7h3.36c1.736 0 2.408-.84 2.408-1.876 0-.742-.406-1.47-1.246-1.736Zm-1.54-2.422c.77 0 1.288.182 1.288.966 0 .798-.518 1.022-1.26 1.022h-1.834v-1.988h1.806Zm.21 5.068h-2.016v-2.114h1.988c.91 0 1.372.392 1.372 1.092 0 .784-.518 1.022-1.344 1.022Zm7.828.042c-1.12 0-2.058-.826-2.1-2.464h4.9c.042-.182.084-.476.084-.672 0-1.89-1.33-3.08-2.996-3.08-1.862 0-3.178 1.456-3.178 3.682 0 2.128 1.302 3.584 3.276 3.584 1.428 0 2.604-.784 2.898-1.988l-1.218-.168c-.308.714-.868 1.106-1.666 1.106Zm-.084-5.194c.98 0 1.68.672 1.764 1.75h-3.682c.238-1.064.938-1.75 1.918-1.75Zm10.992 5.11V386h-4.494l-.364 4.522c-.084 1.092-.574 1.47-1.148 1.47h-.434v2.8h1.106V393h4.718v1.792h1.106v-2.8h-.49Zm-4.214 0v-.056c.336-.266.56-.728.63-1.428l.266-3.514h2.072v4.998h-2.968ZM272.884 386l-1.778 5.264h-.056L269.09 386h-1.33l2.716 6.874-1.148 3.206h1.232l3.57-10.08h-1.246Zm9.311 0h-6.146v1.008h2.45V393h1.246v-5.992h2.45V386Zm13.108 7.14c1.862 0 3.108-1.47 3.108-3.64s-1.246-3.64-3.108-3.64c-1.876 0-3.108 1.47-3.108 3.64s1.232 3.64 3.108 3.64Zm0-1.05c-1.19 0-1.89-1.19-1.89-2.59 0-1.414.7-2.604 1.89-2.604s1.89 1.19 1.89 2.604c0 1.4-.7 2.59-1.89 2.59Zm11.174-6.09h-6.146v1.008h2.45V393h1.246v-5.992h2.45V386Zm15.515 0h-4.494v7h1.232v-5.992h3.262V386Zm7.212 0v2.996h-3.038V386h-1.26v7h1.26v-3.01h3.038V393h1.246v-7h-1.246Zm6.722 6.076c-1.12 0-2.058-.826-2.1-2.464h4.9c.042-.182.084-.476.084-.672 0-1.89-1.33-3.08-2.996-3.08-1.862 0-3.178 1.456-3.178 3.682 0 2.128 1.302 3.584 3.276 3.584 1.428 0 2.604-.784 2.898-1.988l-1.218-.168c-.308.714-.868 1.106-1.666 1.106Zm-.084-5.194c.98 0 1.68.672 1.764 1.75h-3.682c.238-1.064.938-1.75 1.918-1.75Zm9.773 2.506v-.056c.546-.252.952-.756.952-1.442 0-1.148-.742-1.89-2.366-1.89h-3.108v7h3.36c1.736 0 2.408-.84 2.408-1.876 0-.742-.406-1.47-1.246-1.736Zm-1.54-2.422c.77 0 1.288.182 1.288.966 0 .798-.518 1.022-1.26 1.022h-1.834v-1.988h1.806Zm.21 5.068h-2.016v-2.114h1.988c.91 0 1.372.392 1.372 1.092 0 .784-.518 1.022-1.344 1.022Zm10.306-.91v-2.604c0-2.002-1.414-2.66-2.856-2.66-1.386 0-2.576.784-2.758 1.974l1.218.168c.224-.728.854-1.106 1.596-1.106.798 0 1.596.448 1.596 1.652v.77c-.504-.308-1.092-.49-1.722-.49-1.694 0-2.688.91-2.688 2.226 0 1.4 1.022 2.072 2.366 2.072.994 0 1.694-.42 2.044-1.008h.056c.028.364.098.658.154.882h1.162v-.112c-.112-.266-.168-1.036-.168-1.764Zm-3.122.98c-.714 0-1.274-.294-1.274-1.064s.616-1.232 1.554-1.232c.476 0 1.106.154 1.638.462-.042 1.26-.952 1.834-1.918 1.834ZM79.4948 403h-1.498l-2.73 5.292h-.056V403h-1.19v7h1.498l2.744-5.278h.056V410h1.176v-7Zm16.5375 0h-6.146v1.008h2.45V410h1.246v-5.992h2.45V403Zm5.3217-.14c-.882 0-1.694.504-2.002 1.036h-.056l.042-.798V403H98.12v10.08h1.218v-3.92h.056c.336.532 1.106.966 1.932.966 1.638 0 2.87-1.302 2.87-3.64 0-2.324-1.232-3.626-2.842-3.626Zm-.21 6.23c-1.008 0-1.806-.938-1.806-2.604 0-1.652.798-2.59 1.806-2.59s1.834.994 1.834 2.59c0 1.61-.826 2.604-1.834 2.604Zm8.15-.014c-1.12 0-2.058-.826-2.1-2.464h4.9c.042-.182.084-.476.084-.672 0-1.89-1.33-3.08-2.996-3.08-1.862 0-3.178 1.456-3.178 3.682 0 2.128 1.302 3.584 3.276 3.584 1.428 0 2.604-.784 2.898-1.988l-1.218-.168c-.308.714-.868 1.106-1.666 1.106Zm-.084-5.194c.98 0 1.68.672 1.764 1.75h-3.682c.238-1.064.938-1.75 1.918-1.75Zm9.774 2.506v-.056c.546-.252.952-.756.952-1.442 0-1.148-.742-1.89-2.366-1.89h-3.108v7h3.36c1.736 0 2.408-.84 2.408-1.876 0-.742-.406-1.47-1.246-1.736Zm-1.54-2.422c.77 0 1.288.182 1.288.966 0 .798-.518 1.022-1.26 1.022h-1.834v-1.988h1.806Zm.21 5.068h-2.016v-2.114h1.988c.91 0 1.372.392 1.372 1.092 0 .784-.518 1.022-1.344 1.022Zm7.673 1.106c1.862 0 3.108-1.47 3.108-3.64s-1.246-3.64-3.108-3.64c-1.876 0-3.108 1.47-3.108 3.64s1.232 3.64 3.108 3.64Zm0-1.05c-1.19 0-1.89-1.19-1.89-2.59 0-1.414.7-2.604 1.89-2.604s1.89 1.19 1.89 2.604c0 1.4-.7 2.59-1.89 2.59Zm10.502-6.09h-4.494v7h1.232v-5.992h3.262V403Zm8.416 0h-1.498l-2.73 5.292h-.056V403h-1.19v7h1.498l2.744-5.278h.056V410h1.176v-7Zm12.953 3.262 3.57-3.262h-1.666l-2.744 2.548h-.056V403h-1.232v7h1.232v-2.884h.056l2.94 2.884h1.652l-3.752-3.738Zm18.4-.952 1.232-.168c-.252-1.4-1.33-2.282-2.87-2.282-2.016 0-3.206 1.568-3.206 3.626 0 2.128 1.162 3.64 3.22 3.64 1.582 0 2.632-.896 2.856-2.198l-1.232-.168c-.168.756-.714 1.316-1.582 1.316-1.274 0-2.03-1.036-2.03-2.562 0-1.428.7-2.604 2.002-2.604.868 0 1.428.602 1.61 1.4Zm9.06-2.31h-5.348v7h1.26v-6.006h2.842V410h1.246v-7Zm5.419 7.14c1.862 0 3.108-1.47 3.108-3.64s-1.246-3.64-3.108-3.64c-1.876 0-3.108 1.47-3.108 3.64s1.232 3.64 3.108 3.64Zm0-1.05c-1.19 0-1.89-1.19-1.89-2.59 0-1.414.7-2.604 1.89-2.604s1.89 1.19 1.89 2.604c0 1.4-.7 2.59-1.89 2.59Zm7.59-2.828 3.57-3.262h-1.666l-2.744 2.548h-.056V403h-1.232v7h1.232v-2.884h.056l2.94 2.884h1.652l-3.752-3.738Zm8.598 3.878c1.862 0 3.108-1.47 3.108-3.64s-1.246-3.64-3.108-3.64c-1.876 0-3.108 1.47-3.108 3.64s1.232 3.64 3.108 3.64Zm0-1.05c-1.19 0-1.89-1.19-1.89-2.59 0-1.414.7-2.604 1.89-2.604s1.89 1.19 1.89 2.604c0 1.4-.7 2.59-1.89 2.59Zm9.886-8.932h-.91c-.028.588-.294 1.008-.868 1.008-.588 0-.868-.42-.896-1.008h-.91c0 1.05.7 1.82 1.806 1.82 1.092 0 1.778-.77 1.778-1.82Zm.938 2.842h-1.498l-2.73 5.292h-.056V403h-1.19v7h1.498l2.744-5.278h.056V410h1.176v-7Zm7.071 2.31 1.232-.168c-.252-1.4-1.33-2.282-2.87-2.282-2.016 0-3.206 1.568-3.206 3.626 0 2.128 1.162 3.64 3.22 3.64 1.582 0 2.632-.896 2.856-2.198l-1.232-.168c-.168.756-.714 1.316-1.582 1.316-1.274 0-2.03-1.036-2.03-2.562 0-1.428.7-2.604 2.002-2.604.868 0 1.428.602 1.61 1.4Zm9.466-2.31h-6.146v1.008h2.45V410h1.246v-5.992h2.45V403Zm6.764 3.388v-.056c.546-.252.952-.756.952-1.442 0-1.148-.742-1.89-2.366-1.89h-3.108v7h3.36c1.736 0 2.408-.84 2.408-1.876 0-.742-.406-1.47-1.246-1.736Zm-1.54-2.422c.77 0 1.288.182 1.288.966 0 .798-.518 1.022-1.26 1.022h-1.834v-1.988h1.806Zm.21 5.068h-2.016v-2.114h1.988c.91 0 1.372.392 1.372 1.092 0 .784-.518 1.022-1.344 1.022ZM249.464 403h-1.498l-2.73 5.292h-.056V403h-1.19v7h1.498l2.744-5.278h.056V410h1.176v-7Zm6.567-.14c-1.372 0-2.156 1.05-2.254 3.136h-1.05V403h-1.26v7h1.26v-3.01h1.05c.098 2.1.868 3.15 2.254 3.15 1.484 0 2.282-1.218 2.282-3.64s-.798-3.64-2.282-3.64Zm0 6.23c-.714 0-1.078-.854-1.078-2.59 0-1.75.364-2.604 1.078-2.604.714 0 1.078.868 1.078 2.604 0 1.722-.364 2.59-1.078 2.59Zm17.714-6.09h-1.498l-2.73 5.292h-.056V403h-1.19v7h1.498l2.744-5.278h.056V410h1.176v-7Zm16.425 5.992V403h-4.494l-.364 4.522c-.084 1.092-.574 1.47-1.148 1.47h-.434v2.8h1.106V410h4.718v1.792h1.106v-2.8h-.49Zm-4.214 0v-.056c.336-.266.56-.728.63-1.428l.266-3.514h2.072v4.998h-2.968Zm11.972-.868v-2.604c0-2.002-1.414-2.66-2.856-2.66-1.386 0-2.576.784-2.758 1.974l1.218.168c.224-.728.854-1.106 1.596-1.106.798 0 1.596.448 1.596 1.652v.77c-.504-.308-1.092-.49-1.722-.49-1.694 0-2.688.91-2.688 2.226 0 1.4 1.022 2.072 2.366 2.072.994 0 1.694-.42 2.044-1.008h.056c.028.364.098.658.154.882h1.162v-.112c-.112-.266-.168-1.036-.168-1.764Zm-3.122.98c-.714 0-1.274-.294-1.274-1.064s.616-1.232 1.554-1.232c.476 0 1.106.154 1.638.462-.042 1.26-.952 1.834-1.918 1.834Zm9.914-2.688 2.156-3.416h-1.26l-1.652 2.716V403h-1.134v2.716h-.014L301.164 403h-1.246l2.142 3.416-2.24 3.584h1.26l1.736-2.8h.014v2.8h1.134v-2.8l1.736 2.8h1.26l-2.24-3.584Zm6.918 2.66c-1.12 0-2.058-.826-2.1-2.464h4.9c.042-.182.084-.476.084-.672 0-1.89-1.33-3.08-2.996-3.08-1.862 0-3.178 1.456-3.178 3.682 0 2.128 1.302 3.584 3.276 3.584 1.428 0 2.604-.784 2.898-1.988l-1.218-.168c-.308.714-.868 1.106-1.666 1.106Zm-.085-5.194c.981 0 1.681.672 1.765 1.75h-3.682c.238-1.064.938-1.75 1.917-1.75Zm17.644-.882v2.996h-3.038V403h-1.26v7h1.26v-3.01h3.038V410h1.246v-7h-1.246Zm9.2 5.124v-2.604c0-2.002-1.414-2.66-2.856-2.66-1.386 0-2.576.784-2.758 1.974l1.218.168c.224-.728.854-1.106 1.596-1.106.798 0 1.596.448 1.596 1.652v.77c-.504-.308-1.092-.49-1.722-.49-1.694 0-2.688.91-2.688 2.226 0 1.4 1.022 2.072 2.366 2.072.994 0 1.694-.42 2.044-1.008h.056c.028.364.098.658.154.882h1.162v-.112c-.112-.266-.168-1.036-.168-1.764Zm-3.122.98c-.714 0-1.274-.294-1.274-1.064s.616-1.232 1.554-1.232c.476 0 1.106.154 1.638.462-.042 1.26-.952 1.834-1.918 1.834Zm11.552-.112V403h-4.494l-.364 4.522c-.084 1.092-.574 1.47-1.148 1.47h-.434v2.8h1.106V410h4.718v1.792h1.106v-2.8h-.49Zm-4.214 0v-.056c.336-.266.56-.728.63-1.428l.265-3.514h2.073v4.998h-2.968Zm9.493.084c-1.12 0-2.058-.826-2.1-2.464h4.9c.042-.182.084-.476.084-.672 0-1.89-1.33-3.08-2.996-3.08-1.862 0-3.178 1.456-3.178 3.682 0 2.128 1.302 3.584 3.276 3.584 1.428 0 2.604-.784 2.898-1.988l-1.218-.168c-.308.714-.868 1.106-1.666 1.106Zm-.084-5.194c.98 0 1.68.672 1.764 1.75h-3.682c.238-1.064.938-1.75 1.918-1.75Zm9.354 2.534 2.156-3.416h-1.26l-1.652 2.716V403h-1.134v2.716h-.014L357.82 403h-1.246l2.142 3.416-2.24 3.584h1.26l1.736-2.8h.014v2.8h1.134v-2.8l1.736 2.8h1.26l-2.24-3.584Zm9.732 2.576V403h-4.494l-.364 4.522c-.084 1.092-.574 1.47-1.148 1.47h-.434v2.8h1.106V410h4.718v1.792h1.106v-2.8h-.49Zm-4.214 0v-.056c.336-.266.56-.728.63-1.428l.266-3.514h2.072v4.998h-2.968Zm9.494.084c-1.12 0-2.058-.826-2.1-2.464h4.9c.042-.182.084-.476.084-.672 0-1.89-1.33-3.08-2.996-3.08-1.862 0-3.178 1.456-3.178 3.682 0 2.128 1.302 3.584 3.276 3.584 1.428 0 2.604-.784 2.898-1.988l-1.218-.168c-.308.714-.868 1.106-1.666 1.106Zm-.085-5.194c.981 0 1.681.672 1.765 1.75h-3.682c.238-1.064.938-1.75 1.917-1.75Z"/>
  <circle cx="227.5" cy="39.5" r="10.5" fill="#DE8E59"/>
  <path fill="#E2D2BB" d="M229.646 38.82v.056c1.008.406 1.638 1.232 1.638 2.408 0 2.016-1.89 2.856-3.738 2.856-2.114 0-3.794-1.064-3.878-2.814l1.68-.182c.084.896.924 1.596 2.142 1.596 1.064 0 2.17-.532 2.17-1.526 0-.98-.798-1.554-1.96-1.554h-.882v-1.372h.84c1.092 0 1.708-.532 1.708-1.358 0-.84-.798-1.428-1.778-1.428-1.078 0-1.946.532-2.072 1.526l-1.68-.196c.21-1.82 1.834-2.772 3.724-2.772 1.778 0 3.43 1.036 3.43 2.66 0 1.078-.574 1.764-1.344 2.1Z"/>
</svg>