<svg xmlns="http://www.w3.org/2000/svg" fill="none" viewBox="0 0 455 455">
  <path fill="#3C4C48" d="M0 0h455v455H0z"/>
  <path fill="#E2D2BB" d="M127.275 176.146h17.928c2.16 0 5.562-.594 6.75-1.188v7.776h-1.404v-1.404c0-1.458-1.08-2.592-2.538-2.646h-9.612v31.104c.162 1.566 1.296 2.862 2.97 2.862h1.134v1.404h-12.474v-1.404h1.134c1.512 0 2.808-1.242 2.862-2.808v-31.158h-9.558c-1.458.054-2.538 1.188-2.538 2.646v1.404h-1.458v-7.776c1.296.594 4.59 1.188 6.804 1.188Zm48.393-.702c11.448 0 19.44 7.83 19.44 19.656 0 11.826-7.992 19.656-19.44 19.656s-19.44-7.83-19.44-19.656c0-11.826 7.992-19.656 19.44-19.656Zm0 36.828c8.748 0 14.526-6.858 14.526-17.172s-5.778-17.172-14.526-17.172c-8.694 0-14.472 6.858-14.472 17.172s5.778 17.172 14.472 17.172Zm25.05 6.534-.054-.378c3.24-1.026 2.592-3.672 1.728-4.806-.702-.81-1.782-1.728-1.188-3.078.594-1.512 3.186-1.62 4.05.486 1.728 4.05-1.188 7.614-4.536 7.776Zm25.518-38.394v-.108c-.108-.756-.432-1.404-.918-1.944-.54-.594-1.242-.864-2.052-.864h-1.134v-1.404h12.474v1.404h-1.134c-.81 0-1.512.27-2.052.864-.486.486-.756 1.08-.918 1.728v.162c-.162 2.43-.216 4.428-.216 6.102v.432c.162 4.698 2.43 7.668 6.588 7.668h9.828v-13.986c-.162-1.566-1.296-2.916-2.97-2.916h-1.134v-1.404h12.474v1.404h-1.134c-1.674 0-2.808 1.35-2.97 2.916v29.268c.162 1.566 1.296 2.862 2.97 2.862h1.134V214h-12.474v-1.404h1.134c1.674 0 2.808-1.296 2.97-2.862v-12.798h-9.882c-3.564 0-6.372-.918-8.37-2.808-1.944-1.89-2.7-6.426-2.214-13.716Zm38.306-4.266h17.928c2.16 0 5.562-.594 6.75-1.188v7.776h-1.404v-1.404c0-1.458-1.08-2.592-2.538-2.646h-9.612v31.104c.162 1.566 1.296 2.862 2.97 2.862h1.134v1.404h-12.474v-1.404h1.134c1.512 0 2.808-1.242 2.862-2.808v-31.158h-9.558c-1.458.054-2.538 1.188-2.538 2.646v1.404h-1.458v-7.776c1.296.594 4.59 1.188 6.804 1.188Zm48.393-.702c11.448 0 19.44 7.83 19.44 19.656 0 11.826-7.992 19.656-19.44 19.656s-19.44-7.83-19.44-19.656c0-11.826 7.992-19.656 19.44-19.656Zm0 36.828c8.748 0 14.526-6.858 14.526-17.172s-5.778-17.172-14.526-17.172c-8.694 0-14.472 6.858-14.472 17.172s5.778 17.172 14.472 17.172Zm-206.223 54.324.162 1.404H95.5881v-1.404h1.026c1.296 0 2.376-1.08 2.43-2.376v-29.052c-.054-1.35-1.134-2.484-2.376-2.484h-11.88c-1.242 0-2.268 1.08-2.322 2.376v29.16c.054 1.296 1.134 2.376 2.43 2.376h1.026V268h-11.232v-1.404h1.026c1.296 0 2.376-1.08 2.43-2.376v-30.132c-.054-1.296-1.134-2.376-2.43-2.376h-1.026v-1.458h32.0759v1.458h-1.026c-1.296 0-2.376 1.026-2.43 2.268v30.24c.054 1.296 1.134 2.376 2.43 2.376h.972Zm25.819-37.152c11.448 0 19.44 7.83 19.44 19.656 0 11.826-7.992 19.656-19.44 19.656s-19.44-7.83-19.44-19.656c0-11.826 7.992-19.656 19.44-19.656Zm0 36.828c8.748 0 14.526-6.858 14.526-17.172s-5.778-17.172-14.526-17.172c-8.694 0-14.472 6.858-14.472 17.172s5.778 17.172 14.472 17.172Zm62.688-36.828 4.05 34.236c.378 1.782 1.782 2.916 3.456 2.916h1.296V268h-12.366v-1.35h1.296c.864 0 1.62-.81 1.62-1.674v-.108l-2.214-24.894-10.422 23.112c-.27.594-.54 1.242-.756 1.89-.432 1.134-.864 2.538-1.026 3.78h-1.134l-12.96-28.026-2.16 24.138v.108c0 .864.756 1.674 1.62 1.674h1.242V268h-11.124v-1.404h1.296c1.674 0 3.078-1.134 3.456-2.916l3.996-34.236h1.134l14.418 31.212 14.148-31.212h1.134Zm32.814 0c11.448 0 19.44 7.83 19.44 19.656 0 11.826-7.992 19.656-19.44 19.656s-19.44-7.83-19.44-19.656c0-11.826 7.992-19.656 19.44-19.656Zm0 36.828c8.748 0 14.526-6.858 14.526-17.172s-5.778-17.172-14.526-17.172c-8.694 0-14.472 6.858-14.472 17.172s5.778 17.172 14.472 17.172Zm50.268-26.676h-1.458c-1.566-4.05-3.78-6.912-9.072-6.912h-7.128v30.996c.162 1.566 1.296 2.862 2.97 2.862h1.134V268h-12.474v-1.458h1.134c1.674 0 2.808-1.296 2.97-2.862v-29.214c-.162-1.566-1.296-2.862-2.97-2.862h-1.134V230.2h22.68l3.348 9.396Zm21.321-10.152 14.148 34.02v-.054c1.026 2.214 2.754 3.078 4.212 3.078h.918v1.404h-12.798v-1.404h.918c.918 0 1.782-.594 1.782-1.728 0-.324-.054-.648-.162-.972l-3.294-8.694h-13.554l-3.456 8.748v-.054c-.108.378-.162.702-.162.972 0 1.134.918 1.782 1.836 1.782h.918v1.404h-11.502v-1.404h.918c1.458 0 3.186-.864 4.212-3.024h-.054l11.988-28.35c.378-.81.702-1.566.972-2.268.486-1.242.972-2.646.972-3.456h1.188Zm-6.912 23.166h11.718l-5.724-15.228-5.994 15.228Zm54.589 5.994-3.456 9.504h-22.68v-1.404h1.134c1.674 0 2.808-1.242 2.97-2.916v-29.484c-.162-1.458-1.404-2.592-2.916-2.592h-1.134v-1.404h15.876c2.16 0 5.562-.594 6.75-1.188v7.776h-1.404v-1.404c0-1.458-1.08-2.538-2.538-2.7h-10.26v15.39h8.424c1.242-.054 2.16-.972 2.16-2.214v-1.188h1.404v9.18h-1.404v-1.242c0-1.134-.972-2.106-2.052-2.16h-8.478v14.958h7.074c5.292 0 7.506-2.862 9.072-6.912h1.458Zm10.214-28.458h17.928c2.16 0 5.562-.594 6.75-1.188v7.776h-1.404v-1.404c0-1.458-1.08-2.592-2.538-2.646h-9.612v31.104c.162 1.566 1.296 2.862 2.97 2.862h1.134v1.404h-12.474v-1.404h1.134c1.512 0 2.808-1.242 2.862-2.808v-31.158h-9.558c-1.458.054-2.538 1.188-2.538 2.646v1.404h-1.458v-7.776c1.296.594 4.59 1.188 6.804 1.188ZM84.9268 383.2h-1.624l-3.346 7.882h-.056V383.2h-1.218v9.8h1.624l3.36-7.854h.056V393h1.204v-9.8Zm7.9254 2.8h-4.956v5.292c0 .42-.252.812-.756.812-.308 0-.616-.07-.896-.224v1.022c.322.14.644.238 1.12.238 1.064 0 1.75-.686 1.75-1.722v-4.424h2.52V393h1.218v-7Zm5.3918 2.184H96.41V386h-1.218v7h3.052c1.89 0 2.716-.98 2.716-2.408 0-1.456-.826-2.408-2.716-2.408Zm-.014 3.836h-1.82v-2.856h1.82c.91 0 1.484.504 1.484 1.428 0 .938-.574 1.428-1.484 1.428Zm10.656-6.02h-3.22c-1.68 0-2.576.826-2.576 2.086 0 .91.336 1.442 1.064 1.806v.056c-.546.182-.742.658-.784 1.232l-.042.644c-.028.42-.056.826-.196 1.078V393h1.232c.126-.322.154-.658.196-1.106l.042-.616c.042-.588.476-1.036 1.26-1.036h1.82V393h1.204v-7Zm-3.08 3.262c-.784 0-1.484-.294-1.484-1.148 0-.84.7-1.134 1.484-1.134h1.876v2.282h-1.876Zm7.575 2.128V393h.84c0 .714-.308.952-.84.952h-.21v.952h.322c.994 0 1.512-.476 1.512-1.624v-1.89h-1.624Zm18.12-8.33c-1.358 0-2.184 1.05-2.268 4.41h-.91v-4.27h-1.204v9.8h1.204v-4.424h.896c.07 3.472.896 4.564 2.282 4.564 1.442 0 2.282-1.19 2.282-5.04 0-3.864-.84-5.04-2.282-5.04Zm0 8.988c-.7 0-1.106-.98-1.106-3.948 0-2.982.406-3.962 1.106-3.962.714 0 1.12.98 1.12 3.962 0 2.968-.406 3.948-1.12 3.948Zm7.282-6.188c-.882 0-1.694.504-2.002 1.036h-.056l.042-.798V386h-1.218v10.08h1.218v-3.92h.056c.336.532 1.106.966 1.932.966 1.638 0 2.87-1.302 2.87-3.64 0-2.324-1.232-3.626-2.842-3.626Zm-.21 6.23c-1.008 0-1.806-.938-1.806-2.604 0-1.652.798-2.59 1.806-2.59s1.834.994 1.834 2.59c0 1.61-.826 2.604-1.834 2.604Zm10.627-.966v-2.604c0-2.002-1.414-2.66-2.856-2.66-1.386 0-2.576.784-2.758 1.974l1.218.168c.224-.728.854-1.106 1.596-1.106.798 0 1.596.448 1.596 1.652v.77c-.504-.308-1.092-.49-1.722-.49-1.694 0-2.688.91-2.688 2.226 0 1.4 1.022 2.072 2.366 2.072.994 0 1.694-.42 2.044-1.008h.056c.028.364.098.658.154.882h1.162v-.112c-.112-.266-.168-1.036-.168-1.764Zm-3.122.98c-.714 0-1.274-.294-1.274-1.064s.616-1.232 1.554-1.232c.476 0 1.106.154 1.638.462-.042 1.26-.952 1.834-1.918 1.834ZM165.486 386h-1.498l-2.73 5.292h-.056V386h-1.19v7h1.498l2.744-5.278h.056V393h1.176v-7Zm16.733 4.48-1.26-.168c-.224 1.218-1.05 1.722-1.834 1.722-1.078 0-2.296-.952-2.296-3.864 0-2.87 1.26-4.004 2.38-4.004.672 0 1.512.448 1.75 1.778l1.26-.168c-.224-1.848-1.68-2.716-2.996-2.716-1.988 0-3.668 1.526-3.668 5.138 0 3.556 1.596 4.942 3.598 4.942 1.386 0 2.828-.882 3.066-2.66Zm7.45.644v-2.604c0-2.002-1.414-2.66-2.856-2.66-1.386 0-2.576.784-2.758 1.974l1.218.168c.224-.728.854-1.106 1.596-1.106.798 0 1.596.448 1.596 1.652v.77c-.504-.308-1.092-.49-1.722-.49-1.694 0-2.688.91-2.688 2.226 0 1.4 1.022 2.072 2.366 2.072.994 0 1.694-.42 2.044-1.008h.056c.028.364.098.658.154.882h1.162v-.112c-.112-.266-.168-1.036-.168-1.764Zm-3.122.98c-.714 0-1.274-.294-1.274-1.064s.616-1.232 1.554-1.232c.476 0 1.106.154 1.638.462-.042 1.26-.952 1.834-1.918 1.834Zm10.67-6.104v5.992h-1.512V386h-1.148v5.992h-1.498V386h-1.162v7h6.482v-7h-1.162Zm8.64 5.124v-2.604c0-2.002-1.414-2.66-2.856-2.66-1.386 0-2.576.784-2.758 1.974l1.218.168c.224-.728.854-1.106 1.596-1.106.798 0 1.596.448 1.596 1.652v.77c-.504-.308-1.092-.49-1.722-.49-1.694 0-2.688.91-2.688 2.226 0 1.4 1.022 2.072 2.366 2.072.994 0 1.694-.42 2.044-1.008h.056c.028.364.098.658.154.882h1.162v-.112c-.112-.266-.168-1.036-.168-1.764Zm-3.122.98c-.714 0-1.274-.294-1.274-1.064s.616-1.232 1.554-1.232c.476 0 1.106.154 1.638.462-.042 1.26-.952 1.834-1.918 1.834Zm16.677 1.036c1.862 0 3.108-1.47 3.108-3.64s-1.246-3.64-3.108-3.64c-1.876 0-3.108 1.47-3.108 3.64s1.232 3.64 3.108 3.64Zm0-1.05c-1.19 0-1.89-1.19-1.89-2.59 0-1.414.7-2.604 1.89-2.604s1.89 1.19 1.89 2.604c0 1.4-.7 2.59-1.89 2.59Zm19.156-.098V386h-4.494l-.364 4.522c-.084 1.092-.574 1.47-1.148 1.47h-.434v2.8h1.106V393h4.718v1.792h1.106v-2.8h-.49Zm-4.214 0v-.056c.336-.266.56-.728.63-1.428l.266-3.514h2.072v4.998h-2.968Zm9.339 1.148c1.862 0 3.108-1.47 3.108-3.64s-1.246-3.64-3.108-3.64c-1.876 0-3.108 1.47-3.108 3.64s1.232 3.64 3.108 3.64Zm0-1.05c-1.19 0-1.89-1.19-1.89-2.59 0-1.414.7-2.604 1.89-2.604s1.89 1.19 1.89 2.604c0 1.4-.7 2.59-1.89 2.59Zm9.802-3.78 1.232-.168c-.252-1.4-1.33-2.282-2.87-2.282-2.016 0-3.206 1.568-3.206 3.626 0 2.128 1.162 3.64 3.22 3.64 1.582 0 2.632-.896 2.856-2.198l-1.232-.168c-.168.756-.714 1.316-1.582 1.316-1.274 0-2.03-1.036-2.03-2.562 0-1.428.7-2.604 2.002-2.604.868 0 1.428.602 1.61 1.4Zm9.466-2.31h-6.146v1.008h2.45V393h1.246v-5.992h2.45V386Zm6.876 0-1.778 5.264h-.056l-1.96-5.264h-1.33l2.716 6.874-1.148 3.206h1.232l3.57-10.08h-1.246Zm8.905 0h-5.348v7h1.26v-6.006h2.842V393h1.246v-7Zm6.946 0v2.996h-3.038V386h-1.26v7h1.26v-3.01h3.038V393h1.246v-7h-1.246Zm5.154 2.184h-.686V386h-1.218v7h1.904c1.89 0 2.716-.98 2.716-2.408 0-1.456-.826-2.408-2.716-2.408Zm3.514-2.184v7h1.218v-7h-1.218Zm-3.528 6.02h-.672v-2.856h.672c.91 0 1.484.504 1.484 1.428 0 .938-.574 1.428-1.484 1.428Zm12.798.98-2.562-3.64 2.352-3.36h-1.428l-1.61 2.394h-.056L298.726 386h-1.428l2.352 3.36-2.562 3.64h1.428l1.806-2.688h.056l1.82 2.688h1.428Zm14.619-4.69 1.232-.168c-.252-1.4-1.33-2.282-2.87-2.282-2.016 0-3.206 1.568-3.206 3.626 0 2.128 1.162 3.64 3.22 3.64 1.582 0 2.632-.896 2.856-2.198l-1.232-.168c-.168.756-.714 1.316-1.582 1.316-1.274 0-2.03-1.036-2.03-2.562 0-1.428.7-2.604 2.002-2.604.868 0 1.428.602 1.61 1.4Zm9.06-2.31h-5.348v7h1.26v-6.006h2.842V393h1.246v-7Zm5.42 7.14c1.862 0 3.108-1.47 3.108-3.64s-1.246-3.64-3.108-3.64c-1.876 0-3.108 1.47-3.108 3.64s1.232 3.64 3.108 3.64Zm0-1.05c-1.19 0-1.89-1.19-1.89-2.59 0-1.414.7-2.604 1.89-2.604s1.89 1.19 1.89 2.604c0 1.4-.7 2.59-1.89 2.59Zm9.801-3.78 1.232-.168c-.252-1.4-1.33-2.282-2.87-2.282-2.016 0-3.206 1.568-3.206 3.626 0 2.128 1.162 3.64 3.22 3.64 1.582 0 2.632-.896 2.856-2.198l-1.232-.168c-.168.756-.714 1.316-1.582 1.316-1.274 0-2.03-1.036-2.03-2.562 0-1.428.7-2.604 2.002-2.604.868 0 1.428.602 1.61 1.4Zm6.386 4.83c1.862 0 3.108-1.47 3.108-3.64s-1.246-3.64-3.108-3.64c-1.876 0-3.108 1.47-3.108 3.64s1.232 3.64 3.108 3.64Zm0-1.05c-1.19 0-1.89-1.19-1.89-2.59 0-1.414.7-2.604 1.89-2.604s1.89 1.19 1.89 2.604c0 1.4-.7 2.59-1.89 2.59Zm8.332-5.782c-.938 0-1.652.392-2.1 1.344h-.056c.168-2.156 1.148-3.374 2.632-3.374h.77c.602 0 1.064-.056 1.344-.154v-1.092h-.084c-.238.126-.616.168-1.19.168h-.882c-1.974 0-3.78 1.554-3.78 5.138 0 3.43 1.316 4.802 3.248 4.802 1.75 0 2.996-1.204 2.996-3.43 0-2.198-1.316-3.402-2.898-3.402Zm-.126 5.768c-1.064 0-1.792-.784-1.792-2.352 0-1.568.728-2.366 1.792-2.366s1.792.784 1.792 2.366-.728 2.352-1.792 2.352Zm10.614-.952v-2.604c0-2.002-1.414-2.66-2.856-2.66-1.386 0-2.576.784-2.758 1.974l1.218.168c.224-.728.854-1.106 1.596-1.106.798 0 1.596.448 1.596 1.652v.77c-.504-.308-1.092-.49-1.722-.49-1.694 0-2.688.91-2.688 2.226 0 1.4 1.022 2.072 2.366 2.072.994 0 1.694-.42 2.044-1.008h.056c.028.364.098.658.154.882h1.162v-.112c-.112-.266-.168-1.036-.168-1.764Zm-3.122.98c-.714 0-1.274-.294-1.274-1.064s.616-1.232 1.554-1.232c.476 0 1.106.154 1.638.462-.042 1.26-.952 1.834-1.918 1.834Zm11.859.896-2.562-3.64 2.352-3.36h-1.428l-1.61 2.394h-.056L371.569 386h-1.428l2.352 3.36-2.562 3.64h1.428l1.806-2.688h.056l1.82 2.688h1.428Zm-272.715 12.31 1.232-.168c-.252-1.4-1.33-2.282-2.87-2.282-2.016 0-3.206 1.568-3.206 3.626 0 2.128 1.162 3.64 3.22 3.64 1.582 0 2.632-.896 2.856-2.198l-1.232-.168c-.168.756-.714 1.316-1.582 1.316-1.274 0-2.03-1.036-2.03-2.562 0-1.428.7-2.604 2.002-2.604.868 0 1.428.602 1.61 1.4Zm9.018 2.814v-2.604c0-2.002-1.414-2.66-2.856-2.66-1.386 0-2.576.784-2.758 1.974l1.218.168c.224-.728.854-1.106 1.596-1.106.798 0 1.596.448 1.596 1.652v.77c-.504-.308-1.092-.49-1.722-.49-1.694 0-2.688.91-2.688 2.226 0 1.4 1.022 2.072 2.366 2.072.994 0 1.694-.42 2.044-1.008h.056c.028.364.098.658.154.882h1.162v-.112c-.112-.266-.168-1.036-.168-1.764Zm-3.122.98c-.714 0-1.274-.294-1.274-1.064s.616-1.232 1.554-1.232c.476 0 1.106.154 1.638.462-.042 1.26-.952 1.834-1.918 1.834ZM121.482 403h-1.596l-1.624 5.586h-.056l-1.61-5.586h-1.61v7h1.12v-4.984h.056L117.59 410h1.302l1.428-5.012h.056V410h1.106v-7Zm4.845 7.14c1.862 0 3.108-1.47 3.108-3.64s-1.246-3.64-3.108-3.64c-1.876 0-3.108 1.47-3.108 3.64s1.232 3.64 3.108 3.64Zm0-1.05c-1.19 0-1.89-1.19-1.89-2.59 0-1.414.7-2.604 1.89-2.604s1.89 1.19 1.89 2.604c0 1.4-.7 2.59-1.89 2.59Zm10.768-6.09h-5.348v7h1.26v-6.006h2.842V410h1.246v-7Zm5.42 7.14c1.862 0 3.108-1.47 3.108-3.64s-1.246-3.64-3.108-3.64c-1.876 0-3.108 1.47-3.108 3.64s1.232 3.64 3.108 3.64Zm0-1.05c-1.19 0-1.89-1.19-1.89-2.59 0-1.414.7-2.604 1.89-2.604s1.89 1.19 1.89 2.604c0 1.4-.7 2.59-1.89 2.59Zm11.062-.098V403h-4.494l-.364 4.522c-.084 1.092-.574 1.47-1.148 1.47h-.434v2.8h1.106V410h4.718v1.792h1.106v-2.8h-.49Zm-4.214 0v-.056c.336-.266.56-.728.63-1.428l.265-3.514h2.073v4.998h-2.968Zm12.307 0V403h-4.494l-.364 4.522c-.084 1.092-.574 1.47-1.148 1.47h-.434v2.8h1.106V410h4.718v1.792h1.106v-2.8h-.49Zm-4.214 0v-.056c.336-.266.56-.728.63-1.428l.266-3.514h2.072v4.998h-2.968Zm9.494.084c-1.12 0-2.058-.826-2.1-2.464h4.9c.042-.182.084-.476.084-.672 0-1.89-1.33-3.08-2.996-3.08-1.862 0-3.178 1.456-3.178 3.682 0 2.128 1.302 3.584 3.276 3.584 1.428 0 2.604-.784 2.898-1.988l-1.218-.168c-.308.714-.868 1.106-1.666 1.106Zm-.084-5.194c.98 0 1.68.672 1.764 1.75h-3.682c.238-1.064.938-1.75 1.918-1.75Zm8.332-1.022c-.882 0-1.694.504-2.002 1.036h-.056l.042-.798V403h-1.218v10.08h1.218v-3.92h.056c.336.532 1.106.966 1.932.966 1.638 0 2.87-1.302 2.87-3.64 0-2.324-1.232-3.626-2.842-3.626Zm-.21 6.23c-1.008 0-1.806-.938-1.806-2.604 0-1.652.798-2.59 1.806-2.59s1.834.994 1.834 2.59c0 1.61-.826 2.604-1.834 2.604Zm9.326-2.674L186.47 403h-1.26l-1.652 2.716V403h-1.134v2.716h-.014L180.758 403h-1.246l2.142 3.416-2.24 3.584h1.26l1.736-2.8h.014v2.8h1.134v-2.8l1.736 2.8h1.26l-2.24-3.584Zm6.259-.154 3.57-3.262h-1.666l-2.744 2.548h-.056V403h-1.232v7h1.232v-2.884h.056l2.94 2.884h1.652l-3.752-3.738ZM201.901 403h-1.498l-2.73 5.292h-.056V403h-1.19v7h1.498l2.744-5.278h.056V410h1.176v-7Zm15.208 3.388v-.056c.546-.252.952-.756.952-1.442 0-1.148-.742-1.89-2.366-1.89h-3.108v7h3.36c1.736 0 2.408-.84 2.408-1.876 0-.742-.406-1.47-1.246-1.736Zm-1.54-2.422c.77 0 1.288.182 1.288.966 0 .798-.518 1.022-1.26 1.022h-1.834v-1.988h1.806Zm.21 5.068h-2.016v-2.114h1.988c.91 0 1.372.392 1.372 1.092 0 .784-.518 1.022-1.344 1.022ZM233.072 403v2.996h-3.038V403h-1.26v7h1.26v-3.01h3.038V410h1.246v-7h-1.246Zm9.2 5.124v-2.604c0-2.002-1.414-2.66-2.856-2.66-1.386 0-2.576.784-2.758 1.974l1.218.168c.224-.728.854-1.106 1.596-1.106.798 0 1.596.448 1.596 1.652v.77c-.504-.308-1.092-.49-1.722-.49-1.694 0-2.688.91-2.688 2.226 0 1.4 1.022 2.072 2.366 2.072.994 0 1.694-.42 2.044-1.008h.056c.028.364.098.658.154.882h1.162v-.112c-.112-.266-.168-1.036-.168-1.764Zm-3.122.98c-.714 0-1.274-.294-1.274-1.064s.616-1.232 1.554-1.232c.476 0 1.106.154 1.638.462-.042 1.26-.952 1.834-1.918 1.834ZM249.232 403v1.694c0 1.4-.868 2.156-1.834 2.156-.84 0-1.414-.518-1.414-1.89v-1.946h-1.218v2.156c0 2.03 1.134 2.716 2.506 2.716 1.204 0 1.806-.812 1.904-1.05h.056V410h1.26v-7h-1.26Zm9.227 5.124v-2.604c0-2.002-1.414-2.66-2.856-2.66-1.386 0-2.576.784-2.758 1.974l1.218.168c.224-.728.854-1.106 1.596-1.106.798 0 1.596.448 1.596 1.652v.77c-.504-.308-1.092-.49-1.722-.49-1.694 0-2.688.91-2.688 2.226 0 1.4 1.022 2.072 2.366 2.072.994 0 1.694-.42 2.044-1.008h.056c.028.364.098.658.154.882h1.162v-.112c-.112-.266-.168-1.036-.168-1.764Zm-3.122.98c-.714 0-1.274-.294-1.274-1.064s.616-1.232 1.554-1.232c.476 0 1.106.154 1.638.462-.042 1.26-.952 1.834-1.918 1.834ZM266.861 403h-4.956v5.292c0 .42-.252.812-.756.812-.308 0-.616-.07-.896-.224v1.022c.322.14.644.238 1.12.238 1.064 0 1.75-.686 1.75-1.722v-4.424h2.52V410h1.218v-7Zm5.308 6.076c-1.12 0-2.058-.826-2.1-2.464h4.9c.042-.182.084-.476.084-.672 0-1.89-1.33-3.08-2.996-3.08-1.862 0-3.178 1.456-3.178 3.682 0 2.128 1.302 3.584 3.276 3.584 1.428 0 2.604-.784 2.898-1.988l-1.218-.168c-.308.714-.868 1.106-1.666 1.106Zm-.084-5.194c.98 0 1.68.672 1.764 1.75h-3.682c.238-1.064.938-1.75 1.918-1.75Zm18.749 4.242v-2.604c0-2.002-1.414-2.66-2.856-2.66-1.386 0-2.576.784-2.758 1.974l1.218.168c.224-.728.854-1.106 1.596-1.106.798 0 1.596.448 1.596 1.652v.77c-.504-.308-1.092-.49-1.722-.49-1.694 0-2.688.91-2.688 2.226 0 1.4 1.022 2.072 2.366 2.072.994 0 1.694-.42 2.044-1.008h.056c.028.364.098.658.154.882h1.162v-.112c-.112-.266-.168-1.036-.168-1.764Zm-3.122.98c-.714 0-1.274-.294-1.274-1.064s.616-1.232 1.554-1.232c.476 0 1.106.154 1.638.462-.042 1.26-.952 1.834-1.918 1.834Zm11.552-.112V403h-4.494l-.364 4.522c-.084 1.092-.574 1.47-1.148 1.47h-.434v2.8h1.106V410h4.718v1.792h1.106v-2.8h-.49Zm-4.214 0v-.056c.336-.266.56-.728.63-1.428l.266-3.514h2.072v4.998h-2.968Zm11.972-.868v-2.604c0-2.002-1.414-2.66-2.856-2.66-1.386 0-2.576.784-2.758 1.974l1.218.168c.224-.728.854-1.106 1.596-1.106.798 0 1.596.448 1.596 1.652v.77c-.504-.308-1.092-.49-1.722-.49-1.694 0-2.688.91-2.688 2.226 0 1.4 1.022 2.072 2.366 2.072.994 0 1.694-.42 2.044-1.008h.056c.028.364.098.658.154.882h1.162v-.112c-.112-.266-.168-1.036-.168-1.764Zm-3.122.98c-.714 0-1.274-.294-1.274-1.064s.616-1.232 1.554-1.232c.476 0 1.106.154 1.638.462-.042 1.26-.952 1.834-1.918 1.834ZM315.158 403h-5.348v7h1.26v-6.006h2.842V410h1.246v-7Zm8.499 0h-6.146v1.008h2.45V410h1.246v-5.992h2.45V403Zm7.646 5.124v-2.604c0-2.002-1.414-2.66-2.856-2.66-1.386 0-2.576.784-2.758 1.974l1.218.168c.224-.728.854-1.106 1.596-1.106.798 0 1.596.448 1.596 1.652v.77c-.504-.308-1.092-.49-1.722-.49-1.694 0-2.688.91-2.688 2.226 0 1.4 1.022 2.072 2.366 2.072.994 0 1.694-.42 2.044-1.008h.056c.028.364.098.658.154.882h1.162v-.112c-.112-.266-.168-1.036-.168-1.764Zm-3.122.98c-.714 0-1.274-.294-1.274-1.064s.616-1.232 1.554-1.232c.476 0 1.106.154 1.638.462-.042 1.26-.952 1.834-1.918 1.834Zm11.258-.112V403h-1.246v5.992h-2.842V403h-1.26v7h4.69v1.792h1.106v-2.8h-.448Zm8.15-5.992h-1.498l-2.73 5.292h-.056V403h-1.19v7h1.498l2.744-5.278h.056V410h1.176v-7Zm8.093 0h-1.498l-2.73 5.292h-.056V403h-1.19v7h1.498l2.744-5.278h.056V410h1.176v-7Z"/>
  <circle cx="227.5" cy="39.5" r="10.5" fill="#E2D2BB"/>
  <path fill="#3C4C48" d="M228.47 42.67h2.59V44h-7.028v-1.33h2.828v-6.678h-.056l-2.716 1.162v-1.582l3.122-1.372h1.26v8.47Z"/>
</svg>