<svg fill="none" height="235" width="343" xmlns="http://www.w3.org/2000/svg"><path d="m59.1386 131.94c-2.46 0-6.12-.66-7.56-1.32v8.64h1.62v-1.56c0-1.62 1.2-2.88 2.82-2.94h10.62v34.62c-.06 1.74-1.5 3.12-3.18 3.12h-1.26v1.56h13.86v-1.56h-1.26c-1.86 0-3.12-1.44-3.3-3.18v-34.56h10.68c1.62.06 2.82 1.32 2.82 2.94v1.56h1.56v-8.64c-1.32.66-5.1 1.32-7.5 1.32zm53.7694-.78c-12.72 0-21.5996 8.7-21.5996 21.84s8.8796 21.84 21.5996 21.84 21.6-8.7 21.6-21.84-8.88-21.84-21.6-21.84zm0 40.92c-9.66 0-16.0796-7.62-16.0796-19.08s6.4196-19.08 16.0796-19.08c9.72 0 16.14 7.62 16.14 19.08s-6.42 19.08-16.14 19.08zm27.834 7.26c3.72-.18 6.96-4.14 5.04-8.64-.96-2.34-3.84-2.22-4.5-.54-.66 1.5.54 2.52 1.32 3.42.96 1.26 1.68 4.2-1.92 5.34zm28.354-42.66c-.54 8.1.3 13.14 2.46 15.24 2.22 2.1 5.34 3.12 9.3 3.12h10.98v14.22c-.18 1.74-1.44 3.18-3.3 3.18h-1.26v1.56h13.86v-1.56h-1.26c-1.86 0-3.12-1.44-3.3-3.18v-32.52c.18-1.74 1.44-3.24 3.3-3.24h1.26v-1.56h-13.86v1.56h1.26c1.86 0 3.12 1.5 3.3 3.24v15.54h-10.92c-4.62 0-7.14-3.3-7.32-8.52v-.48c0-1.86.06-4.08.24-6.78v-.18c.18-.72.48-1.38 1.02-1.92.6-.66 1.38-.96 2.28-.96h1.26v-1.56h-13.86v1.56h1.26c.9 0 1.68.3 2.28.96.54.6.9 1.32 1.02 2.16zm42.562-4.74c-2.46 0-6.12-.66-7.56-1.32v8.64h1.62v-1.56c0-1.62 1.2-2.88 2.82-2.94h10.62v34.62c-.06 1.74-1.5 3.12-3.18 3.12h-1.26v1.56h13.86v-1.56h-1.26c-1.86 0-3.12-1.44-3.3-3.18v-34.56h10.68c1.62.06 2.82 1.32 2.82 2.94v1.56h1.56v-8.64c-1.32.66-5.1 1.32-7.5 1.32zm53.77-.78c-12.72 0-21.6 8.7-21.6 21.84s8.88 21.84 21.6 21.84 21.6-8.7 21.6-21.84-8.88-21.84-21.6-21.84zm0 40.92c-9.66 0-16.08-7.62-16.08-19.08s6.42-19.08 16.08-19.08c9.72 0 16.14 7.62 16.14 19.08s-6.42 19.08-16.14 19.08zm-229.1367 60.36h-1.08c-1.44 0-2.64-1.2-2.7-2.64v-33.6c.06-1.38 1.26-2.52 2.7-2.52h1.14v-1.62h-35.64005v1.62h1.14c1.44 0 2.64 1.2 2.7 2.64v33.48c-.06 1.44-1.26 2.64-2.7 2.64h-1.14v1.56h12.48005v-1.56h-1.14c-1.44 0-2.64005-1.2-2.70005-2.64v-32.4c.06-1.44 1.20005-2.64 2.58005-2.64h13.2c1.38 0 2.58 1.26 2.64 2.76v32.28c-.06 1.44-1.26 2.64-2.7 2.64h-1.14v1.56h12.54zm28.6875-41.28c-12.72 0-21.6 8.7-21.6 21.84s8.88 21.84 21.6 21.84 21.6-8.7 21.6-21.84-8.88-21.84-21.6-21.84zm0 40.92c-9.66 0-16.08-7.62-16.08-19.08s6.42-19.08 16.08-19.08c9.72 0 16.14 7.62 16.14 19.08s-6.42 19.08-16.14 19.08zm69.6532-40.92h-1.26l-15.72 34.68-16.02-34.68h-1.26l-4.4398 38.04c-.42 1.98-1.98 3.24-3.84 3.24h-1.44v1.56h12.3598v-1.5h-1.38c-.96 0-1.7998-.9-1.7998-1.86v-.12l2.3998-26.82 14.4 31.14h1.26c.18-1.38.66-2.94 1.14-4.2.24-.72.54-1.44.84-2.1l11.58-25.68 2.46 27.66v.12c0 .96-.84 1.86-1.8 1.86h-1.44v1.5h13.74v-1.56h-1.44c-1.86 0-3.42-1.26-3.84-3.24zm36.46 0c-12.72 0-21.6 8.7-21.6 21.84s8.88 21.84 21.6 21.84 21.6-8.7 21.6-21.84-8.88-21.84-21.6-21.84zm0 40.92c-9.66 0-16.08-7.62-16.08-19.08s6.42-19.08 16.08-19.08c9.72 0 16.14 7.62 16.14 19.08s-6.42 19.08-16.14 19.08zm55.853-29.64-3.72-10.44h-25.2v1.56h1.26c1.86 0 3.12 1.44 3.3 3.18v32.46c-.18 1.74-1.44 3.18-3.3 3.18h-1.26v1.62h13.86v-1.62h-1.26c-1.86 0-3.12-1.44-3.3-3.18v-34.44h7.92c5.88 0 8.34 3.18 10.08 7.68zm23.69-11.28h-1.32c0 .9-.54 2.46-1.08 3.84-.3.78-.66 1.62-1.08 2.52l-13.32 31.5h.06c-1.14 2.4-3.06 3.36-4.68 3.36h-1.02v1.56h12.78v-1.56h-1.02c-1.02 0-2.04-.72-2.04-1.98 0-.3.06-.66.18-1.08v.06l3.84-9.72h15.06l3.66 9.66c.12.36.18.72.18 1.08 0 1.26-.96 1.92-1.98 1.92h-1.02v1.56h14.22v-1.56h-1.02c-1.62 0-3.54-.96-4.68-3.42v.06zm-7.68 25.74 6.66-16.92 6.36 16.92zm60.655 6.66h-1.62c-1.74 4.5-4.2 7.68-10.08 7.68h-7.86v-16.62h9.42c1.2.06 2.28 1.14 2.28 2.4v1.38h1.56v-10.2h-1.56v1.32c0 1.38-1.02 2.4-2.4 2.46h-9.36v-17.1h11.4c1.62.18 2.82 1.38 2.82 3v1.56h1.56v-8.64c-1.32.66-5.1 1.32-7.5 1.32h-17.64v1.56h1.26c1.68 0 3.06 1.26 3.24 2.88v32.76c-.18 1.86-1.44 3.24-3.3 3.24h-1.26v1.56h25.2zm11.349-31.62c-2.46 0-6.12-.66-7.56-1.32v8.64h1.62v-1.56c0-1.62 1.2-2.88 2.82-2.94h10.62v34.62c-.06 1.74-1.5 3.12-3.18 3.12h-1.26v1.56h13.86v-1.56h-1.26c-1.86 0-3.12-1.44-3.3-3.18v-34.56h10.68c1.62.06 2.82 1.32 2.82 2.94v1.56h1.56v-8.64c-1.32.66-5.1 1.32-7.5 1.32zm-137.011-148.88v-.9h-1.26c-1.86 0-3.3-1.38-3.3-3.24v-38.760003h-1.38c-2.46 2.820003-5.34 3.360003-8.46 3.840003v.96h2.28c1.86 0 2.76.96 2.76 2.94v30.96c0 1.86-1.44 3.24-3.3 3.24h-1.26v.9z" fill="#e2d2bb"/></svg>