<svg fill="none" height="296" width="298" xmlns="http://www.w3.org/2000/svg"><path d="m124.478 108.46v-14.28c0-1.2-.18-2.32-.54-3.36s-1-1.98-1.92-2.82h12.72c-.92.84-1.56 1.78-1.92 2.82s-.54 2.16-.54 3.36v29.64c0 1.2.18 2.32.54 3.36s1 1.98 1.92 2.82h-12.72c.92-.84 1.56-1.78 1.92-2.82s.54-2.16.54-3.36v-13.92c-1.16.4-2.44.6-3.84.6-1.68 0-3.26-.24-4.74-.72-1.44-.48-2.7-1.22-3.78-2.22-1.04-1.04-1.86-2.34-2.46-3.9-.56-1.6-.82-3.52-.78-5.76v-3.72c0-1.2-.18-2.32-.54-3.36s-1-1.98-1.92-2.82h12.72c-.92.84-1.56 1.78-1.92 2.82s-.54 2.16-.54 3.36v6.12c-.16 2.88.28 5.12 1.32 6.72 1.04 1.56 2.8 2.16 5.28 1.8.4-.08.8-.2 1.2-.36zm37.206-3.36c-.52-1.8-1.1-3.58-1.74-5.34-.6-1.76-1.24-3.36-1.92-4.8-.68-1.48-1.4-2.74-2.16-3.78s-1.52-1.72-2.28-2.04v34.68c0 1.2.18 2.32.54 3.36s1 1.98 1.92 2.82h-12.72c.92-.84 1.56-1.78 1.92-2.82s.54-2.16.54-3.36v-34.68c-.8.32-1.58 1-2.34 2.04-.72 1.04-1.44 2.3-2.16 3.78-.68 1.44-1.32 3.04-1.92 4.8s-1.16 3.54-1.68 5.34l-.48-.06.6-17.04h23.76l.6 17.04zm3.284 3.3c0-6.84 1.22-12.04 3.66-15.6 2.44-3.6 5.72-5.4 9.84-5.4 2.04 0 3.88.56 5.52 1.68 1.68 1.12 3.1 2.68 4.26 4.68 1.2 1.96 2.12 4.3 2.76 7.02s.96 5.66.96 8.82c0 6.84-1.22 12.06-3.66 15.66-2.44 3.56-5.72 5.34-9.84 5.34-2.04 0-3.9-.56-5.58-1.68-1.64-1.12-3.06-2.66-4.26-4.62-1.16-2-2.06-4.36-2.7-7.08s-.96-5.66-.96-8.82zm6.3-12.36c0 2.48.14 5 .42 7.56.32 2.56.74 5.04 1.26 7.44s1.12 4.66 1.8 6.78c.72 2.12 1.48 3.98 2.28 5.58.84 1.56 1.7 2.8 2.58 3.72.88.88 1.76 1.32 2.64 1.32 2.28-.08 3.42-2.24 3.42-6.48 0-2.48-.16-5-.48-7.56-.28-2.56-.68-5.04-1.2-7.44s-1.12-4.64-1.8-6.72c-.68-2.12-1.44-3.96-2.28-5.52-.8-1.6-1.64-2.86-2.52-3.78s-1.76-1.38-2.64-1.38c-1.16 0-2.04.56-2.64 1.68-.56 1.08-.84 2.68-.84 4.8zm-142.746 45.96c-.92.84-1.56 1.78-1.92 2.82s-.54 2.16-.54 3.36v29.64c0 1.2.18 2.32.54 3.36s1 1.98 1.92 2.82h-12.72c.92-.84 1.56-1.78 1.92-2.82s.54-2.16.54-3.36v-34.62h-7.86l.06 34.62c0 1.2.18 2.32.54 3.36s1 1.98 1.92 2.82h-12.720047c.919997-.84 1.559997-1.78 1.919997-2.82s.54-2.16.54-3.36v-29.64c0-1.2-.18-2.32-.54-3.36s-1-1.98-1.919997-2.82zm2.3831 20.4c0-6.84 1.22-12.04 3.66-15.6 2.44-3.6 5.72-5.4 9.84-5.4 2.04 0 3.88.56 5.52 1.68 1.68 1.12 3.1 2.68 4.26 4.68 1.2 1.96 2.12 4.3 2.76 7.02s.96 5.66.96 8.82c0 6.84-1.22 12.06-3.66 15.66-2.44 3.56-5.72 5.34-9.84 5.34-2.04 0-3.9-.56-5.58-1.68-1.64-1.12-3.06-2.66-4.26-4.62-1.16-2-2.06-4.36-2.7-7.08s-.96-5.66-.96-8.82zm6.3-12.36c0 2.48.14 5 .42 7.56.32 2.56.74 5.04 1.26 7.44s1.12 4.66 1.8 6.78c.72 2.12 1.48 3.98 2.28 5.58.84 1.56 1.7 2.8 2.58 3.72.88.88 1.76 1.32 2.64 1.32 2.28-.08 3.42-2.24 3.42-6.48 0-2.48-.16-5-.48-7.56-.28-2.56-.68-5.04-1.2-7.44s-1.12-4.64-1.8-6.72c-.68-2.12-1.44-3.96-2.28-5.52-.8-1.6-1.64-2.86-2.52-3.78s-1.76-1.38-2.64-1.38c-1.16 0-2.04.56-2.64 1.68-.56 1.08-.84 2.68-.84 4.8zm23.114 12.48c0-3.24.3-6.16.9-8.76.64-2.64 1.54-4.86 2.7-6.66 1.16-1.84 2.56-3.26 4.2-4.26 1.68-1 3.58-1.5 5.7-1.5 1.16 0 2.26.16 3.3.48 1.04.28 2.02.6 2.94.96.6.24 1.2.3 1.8.18.64-.12 1.2-.36 1.68-.72l-1.14 16.32-.42-.06c-.52-1.68-1.16-3.4-1.92-5.16-.72-1.8-1.56-3.42-2.52-4.86-.96-1.48-2.04-2.7-3.24-3.66s-2.54-1.44-4.02-1.44c-.68 0-1.26.2-1.74.6s-.88.96-1.2 1.68c-.28.68-.5 1.48-.66 2.4-.12.92-.18 1.92-.18 3 0 3.44.22 6.78.66 10.02.48 3.24 1.18 6.12 2.1 8.64.92 2.48 2.06 4.48 3.42 6 1.36 1.48 2.96 2.22 4.8 2.22 1.8 0 3.22-.96 4.26-2.88 1.08-1.96 1.84-5.02 2.28-9.18l.66.06c-.2 3.12-.54 5.84-1.02 8.16s-1.16 4.26-2.04 5.82-2 2.74-3.36 3.54c-1.32.76-2.9 1.14-4.74 1.14-1.92 0-3.68-.58-5.28-1.74s-3-2.74-4.2-4.74c-1.16-2-2.08-4.34-2.76-7.02-.64-2.68-.96-5.54-.96-8.58zm27.4304 21.48 3.18-43.5h.48l13.8595 26.16 10.86-26.16h.6l3.18 43.5h-10.44c1.48-1.2 2.16-2.78 2.04-4.74l-1.32-21-7.8 18.78h-.48l-10.8595-20.58-.48 6.66c-.16 2.28-.12 4.36.12 6.24s.72 3.64 1.44 5.28c.76 1.6 1.76 3.12 3 4.56s2.76 2.88 4.56 4.32l-.06.48zm34.9135-21.6c0-6.84 1.22-12.04 3.66-15.6 2.44-3.6 5.72-5.4 9.84-5.4 2.04 0 3.88.56 5.52 1.68 1.68 1.12 3.1 2.68 4.26 4.68 1.2 1.96 2.12 4.3 2.76 7.02s.96 5.66.96 8.82c0 6.84-1.22 12.06-3.66 15.66-2.44 3.56-5.72 5.34-9.84 5.34-2.04 0-3.9-.56-5.58-1.68-1.64-1.12-3.06-2.66-4.26-4.62-1.16-2-2.06-4.36-2.7-7.08s-.96-5.66-.96-8.82zm6.3-12.36c0 2.48.14 5 .42 7.56.32 2.56.74 5.04 1.26 7.44s1.12 4.66 1.8 6.78c.72 2.12 1.48 3.98 2.28 5.58.84 1.56 1.7 2.8 2.58 3.72.88.88 1.76 1.32 2.64 1.32 2.28-.08 3.42-2.24 3.42-6.48 0-2.48-.16-5-.48-7.56-.28-2.56-.68-5.04-1.2-7.44s-1.12-4.64-1.8-6.72c-.68-2.12-1.44-3.96-2.28-5.52-.8-1.6-1.64-2.86-2.52-3.78s-1.76-1.38-2.64-1.38c-1.16 0-2.04.56-2.64 1.68-.56 1.08-.84 2.68-.84 4.8zm48.014 9.06c-.52-1.8-1.1-3.58-1.74-5.34-.6-1.76-1.24-3.36-1.92-4.8-.68-1.48-1.4-2.74-2.16-3.78s-1.52-1.72-2.28-2.04v34.68c0 1.2.18 2.32.54 3.36s1 1.98 1.92 2.82h-12.72c.92-.84 1.56-1.78 1.92-2.82s.54-2.16.54-3.36v-34.68c-.8.32-1.58 1-2.34 2.04-.72 1.04-1.44 2.3-2.16 3.78-.68 1.44-1.32 3.04-1.92 4.8s-1.16 3.54-1.68 5.34l-.48-.06.6-17.04h23.76l.6 17.04zm14.864-17.1c1.64 0 3.2.2 4.68.6 1.52.36 2.84 1 3.96 1.92 1.16.92 2.06 2.14 2.7 3.66.68 1.52 1.02 3.42 1.02 5.7 0 1.88-.3 3.66-.9 5.34-.56 1.68-1.42 3.08-2.58 4.2-1.12 1.12-2.54 1.9-4.26 2.34-1.72.4-3.7.26-5.94-.42v12.48c0 1.2.18 2.32.54 3.36s1 1.98 1.92 2.82h-12.72c.92-.84 1.56-1.78 1.92-2.82s.54-2.16.54-3.36v-29.64c0-1.2-.18-2.32-.54-3.36s-1-1.98-1.92-2.82zm-1.32 22.08c2.04.24 3.5-.46 4.38-2.1.92-1.64 1.38-4.24 1.38-7.8s-.44-6.3-1.32-8.22-2.36-2.88-4.44-2.88zm38.118-5.34c-.6-1.88-1.28-3.68-2.04-5.4-.72-1.76-1.54-3.34-2.46-4.74s-1.96-2.58-3.12-3.54c-1.12-.96-2.38-1.62-3.78-1.98v17.1l5.64-7.8.42.06 1.32 18.96-.42.06-6.66-9.78-.3.12v21.06c1.2-.24 2.34-.8 3.42-1.68s2.06-1.98 2.94-3.3c.92-1.32 1.74-2.78 2.46-4.38.76-1.64 1.42-3.34 1.98-5.1l.48.06-.66 15.54h-20.88c.92-.84 1.56-1.78 1.92-2.82s.54-2.16.54-3.36v-29.64c0-1.2-.18-2.32-.54-3.36s-1-1.98-1.92-2.82h21.66l.48 16.68zm28.494.36c-.52-1.8-1.1-3.58-1.74-5.34-.6-1.76-1.24-3.36-1.92-4.8-.68-1.48-1.4-2.74-2.16-3.78s-1.52-1.72-2.28-2.04v34.68c0 1.2.18 2.32.54 3.36s1 1.98 1.92 2.82h-12.72c.92-.84 1.56-1.78 1.92-2.82s.54-2.16.54-3.36v-34.68c-.8.32-1.58 1-2.34 2.04-.72 1.04-1.44 2.3-2.16 3.78-.68 1.44-1.32 3.04-1.92 4.8s-1.16 3.54-1.68 5.34l-.48-.06.6-17.04h23.76l.6 17.04zm13.544 23.82c2.52 0 4.32-.92 5.4-2.76s1.62-4.56 1.62-8.16c0-1.84-.12-3.52-.36-5.04-.2-1.52-.58-2.82-1.14-3.9-.52-1.08-1.24-1.92-2.16-2.52-.88-.64-2-.96-3.36-.96zm0-24.48c1.68 0 3.4.22 5.16.66 1.8.44 3.42 1.18 4.86 2.22 1.44 1 2.62 2.34 3.54 4.02s1.38 3.72 1.38 6.12v1.02c0 .4-.02.7-.06.9-.12 1.96-.54 3.62-1.26 4.98-.68 1.32-1.56 2.4-2.64 3.24s-2.34 1.46-3.78 1.86c-1.44.36-2.98.54-4.62.54h-12.84c.92-.84 1.56-1.78 1.92-2.82s.54-2.16.54-3.36v-29.64c0-1.2-.18-2.32-.54-3.36s-1-1.98-1.92-2.82h12.72c-.92.84-1.56 1.78-1.92 2.82s-.54 2.16-.54 3.36zm18.837 22.14c0-1.2.38-2.14 1.14-2.82.8-.72 1.72-1.08 2.76-1.08s1.94.36 2.7 1.08c.8.72 1.2 1.72 1.2 3 0 2.28-.68 4.4-2.04 6.36-1.36 2-3.18 3.54-5.46 4.62l-.24-.54c1.4-.76 2.52-1.82 3.36-3.18.88-1.32 1.46-2.58 1.74-3.78-.32.16-.74.24-1.26.24-1.04 0-1.96-.34-2.76-1.02-.76-.72-1.14-1.68-1.14-2.88zm-199.7231 35.88v-14.28c0-1.2-.18-2.32-.54-3.36s-1-1.98-1.92-2.82h12.7201c-.9201.84-1.5601 1.78-1.9201 2.82s-.54 2.16-.54 3.36v29.64c0 1.2.18 2.32.54 3.36s1 1.98 1.9201 2.82h-12.7201c.92-.84 1.56-1.78 1.92-2.82s.54-2.16.54-3.36v-13.92c-1.16.4-2.44.6-3.84.6-1.68 0-3.26-.24-4.74-.72-1.44-.48-2.7-1.22-3.78-2.22-1.04-1.04-1.86-2.34-2.46-3.9-.56-1.6-.82-3.52-.78-5.76v-3.72c0-1.2-.18-2.32-.54-3.36s-1-1.98-1.92-2.82h12.72c-.92.84-1.56 1.78-1.92 2.82s-.54 2.16-.54 3.36v6.12c-.16 2.88.28 5.12 1.32 6.72 1.04 1.56 2.8 2.16 5.28 1.8.4-.08.8-.2 1.2-.36zm37.2051-3.36c-.52-1.8-1.1-3.58-1.74-5.34-.6-1.76-1.24-3.36-1.92-4.8-.68-1.48-1.4-2.74-2.16-3.78s-1.52-1.72-2.28-2.04v34.68c0 1.2.18 2.32.54 3.36s1 1.98 1.92 2.82h-12.72c.92-.84 1.56-1.78 1.92-2.82s.54-2.16.54-3.36v-34.68c-.8.32-1.58 1-2.34 2.04-.72 1.04-1.44 2.3-2.16 3.78-.68 1.44-1.32 3.04-1.92 4.8s-1.16 3.54-1.68 5.34l-.48-.06.6-17.04h23.76l.6 17.04zm3.284 3.3c0-6.84 1.22-12.04 3.66-15.6 2.44-3.6 5.72-5.4 9.84-5.4 2.04 0 3.88.56 5.52 1.68 1.68 1.12 3.1 2.68 4.26 4.68 1.2 1.96 2.12 4.3 2.76 7.02s.96 5.66.96 8.82c0 6.84-1.22 12.06-3.66 15.66-2.44 3.56-5.72 5.34-9.84 5.34-2.04 0-3.9-.56-5.58-1.68-1.64-1.12-3.06-2.66-4.26-4.62-1.16-2-2.06-4.36-2.7-7.08s-.96-5.66-.96-8.82zm6.3-12.36c0 2.48.14 5 .42 7.56.32 2.56.74 5.04 1.26 7.44s1.12 4.66 1.8 6.78c.72 2.12 1.48 3.98 2.28 5.58.84 1.56 1.7 2.8 2.58 3.72.88.88 1.76 1.32 2.64 1.32 2.28-.08 3.42-2.24 3.42-6.48 0-2.48-.16-5-.48-7.56-.28-2.56-.68-5.04-1.2-7.44s-1.12-4.64-1.8-6.72c-.68-2.12-1.44-3.96-2.28-5.52-.8-1.6-1.64-2.86-2.52-3.78s-1.76-1.38-2.64-1.38c-1.16 0-2.04.56-2.64 1.68-.56 1.08-.84 2.68-.84 4.8zm33.374 32.88c2.52 0 4.32-.92 5.4-2.76s1.62-4.56 1.62-8.16c0-1.84-.12-3.52-.36-5.04-.2-1.52-.58-2.82-1.14-3.9-.52-1.08-1.24-1.92-2.16-2.52-.88-.64-2-.96-3.36-.96zm0-39.9v15.42c1.68 0 3.4.22 5.16.66 1.8.44 3.42 1.18 4.86 2.22 1.44 1 2.62 2.34 3.54 4.02s1.38 3.72 1.38 6.12v1.02c0 .4-.02.7-.06.9-.12 1.96-.54 3.62-1.26 4.98-.68 1.32-1.56 2.4-2.64 3.24s-2.34 1.46-3.78 1.86c-1.44.36-2.98.54-4.62.54h-12.84c.92-.84 1.56-1.78 1.92-2.82s.54-2.16.54-3.36v-29.64c0-1.2-.18-2.32-.54-3.36s-1-1.98-1.92-2.82h22.68l.48 16.32-.48.06c-.8-1.96-1.58-3.84-2.34-5.64s-1.62-3.4-2.58-4.8c-.92-1.4-1.98-2.54-3.18-3.42s-2.64-1.38-4.32-1.5zm27.598 39.9c2.52 0 4.32-.92 5.4-2.76s1.62-4.56 1.62-8.16c0-1.84-.12-3.52-.36-5.04-.2-1.52-.58-2.82-1.14-3.9-.52-1.08-1.24-1.92-2.16-2.52-.88-.64-2-.96-3.36-.96zm0-24.48c1.68 0 3.4.22 5.16.66 1.8.44 3.42 1.18 4.86 2.22 1.44 1 2.62 2.34 3.54 4.02s1.38 3.72 1.38 6.12v1.02c0 .4-.02.7-.06.9-.12 1.96-.54 3.62-1.26 4.98-.68 1.32-1.56 2.4-2.64 3.24s-2.34 1.46-3.78 1.86c-1.44.36-2.98.54-4.62.54h-12.84c.92-.84 1.56-1.78 1.92-2.82s.54-2.16.54-3.36v-29.64c0-1.2-.18-2.32-.54-3.36s-1-1.98-1.92-2.82h12.72c-.92.84-1.56 1.78-1.92 2.82s-.54 2.16-.54 3.36zm26.46 19.38c0 1.2.18 2.32.54 3.36s1 1.98 1.92 2.82h-12.72c.92-.84 1.56-1.78 1.92-2.82s.54-2.16.54-3.36v-29.64c0-1.2-.18-2.32-.54-3.36s-1-1.98-1.92-2.82h12.72c-.92.84-1.56 1.78-1.92 2.82s-.54 2.16-.54 3.36zm-199.7866 38.58c0-6.84 1.22-12.04 3.66-15.6 2.44-3.6 5.72-5.4 9.84-5.4 2.04 0 3.88.56 5.52 1.68 1.68 1.12 3.1 2.68 4.26 4.68 1.2 1.96 2.12 4.3 2.76 7.02s.96 5.66.96 8.82c0 6.84-1.22 12.06-3.66 15.66-2.44 3.56-5.72 5.34-9.84 5.34-2.04 0-3.9-.56-5.58-1.68-1.64-1.12-3.06-2.66-4.26-4.62-1.16-2-2.06-4.36-2.7-7.08s-.96-5.66-.96-8.82zm6.3-12.36c0 2.48.14 5 .42 7.56.32 2.56.74 5.04 1.26 7.44s1.12 4.66 1.8 6.78c.72 2.12 1.48 3.98 2.28 5.58.84 1.56 1.7 2.8 2.58 3.72.88.88 1.76 1.32 2.64 1.32 2.28-.08 3.42-2.24 3.42-6.48 0-2.48-.16-5-.48-7.56-.28-2.56-.68-5.04-1.2-7.44s-1.12-4.64-1.8-6.72c-.68-2.12-1.44-3.96-2.28-5.52-.8-1.6-1.64-2.86-2.52-3.78s-1.76-1.38-2.64-1.38c-1.16 0-2.04.56-2.64 1.68-.56 1.08-.84 2.68-.84 4.8zm48.0141 9.06c-.52-1.8-1.1-3.58-1.74-5.34-.6-1.76-1.24-3.36-1.92-4.8-.68-1.48-1.4-2.74-2.16-3.78s-1.52-1.72-2.28-2.04v34.68c0 1.2.18 2.32.54 3.36s1 1.98 1.92 2.82h-12.72c.92-.84 1.56-1.78 1.92-2.82s.54-2.16.54-3.36v-34.68c-.8.32-1.58 1-2.34 2.04-.72 1.04-1.44 2.3-2.16 3.78-.68 1.44-1.32 3.04-1.92 4.8s-1.16 3.54-1.68 5.34l-.48-.06.6-17.04h23.76l.6 17.04zm19.6035.78c1.32.32 2.52.78 3.6 1.38s2 1.4 2.76 2.4c.8.96 1.42 2.14 1.86 3.54.44 1.36.66 2.96.66 4.8 0 2.24-.32 4.12-.96 5.64s-1.52 2.76-2.64 3.72c-1.12.92-2.44 1.6-3.96 2.04-1.48.4-3.08.6-4.8.6h-12.84c.92-.84 1.56-1.78 1.92-2.82s.54-2.16.54-3.36v-29.64c0-1.2-.18-2.32-.54-3.36s-1-1.98-1.92-2.82h12.72c1.68 0 3.24.18 4.68.54 1.48.32 2.74.86 3.78 1.62 1.08.76 1.92 1.72 2.52 2.88s.9 2.54.9 4.14c0 1.28-.22 2.44-.66 3.48-.44 1-1.04 1.86-1.8 2.58-.72.72-1.6 1.32-2.64 1.8-1 .44-2.06.72-3.18.84zm.36-8.46c0-5.56-2.14-8.34-6.42-8.34v15.36c2.48.44 4.16.06 5.04-1.14.92-1.2 1.38-3.16 1.38-5.88zm-6.42 31.5c2.52 0 4.32-.92 5.4-2.76 1.08-1.88 1.62-4.6 1.62-8.16 0-1.84-.1-3.42-.3-4.74-.16-1.36-.5-2.5-1.02-3.42-.52-.96-1.24-1.74-2.16-2.34-.88-.64-2.06-1.18-3.54-1.62zm18.701-17.34c.08.52.16 1.1.24 1.74.08.6.18 1.24.3 1.92.24 1.2.48 2.38.72 3.54.24 1.12.52 2 .84 2.64.36.64.76.92 1.2.84.48-.08 1.06-.78 1.74-2.1.56-1.08 1.06-2.58 1.5-4.5s.8-4.04 1.08-6.36c.32-2.36.54-4.8.66-7.32.16-2.56.22-5 .18-7.32-.04-1.32-.2-2.52-.48-3.6-.24-1.12-.7-2.14-1.38-3.06l21 .06c-.92.84-1.54 1.78-1.86 2.82s-.52 2.16-.6 3.36l.06 29.58c0 1.2.18 2.32.54 3.36s1 1.98 1.92 2.82h-12.72c.92-.84 1.56-1.78 1.92-2.82s.54-2.16.54-3.36v-34.56h-7.08c0 1.2-.04 2.7-.12 4.5-.04 1.76-.12 3.72-.24 5.88-.12 2.12-.3 4.34-.54 6.66s-.54 4.6-.9 6.84-.82 4.4-1.38 6.48c-.52 2.04-1.16 3.86-1.92 5.46-.72 1.56-1.56 2.82-2.52 3.78s-2.06 1.5-3.3 1.62c-.28.04-.46.04-.54 0-.04 0-.2-.04-.48-.12zm51.117-6.84c-.6-1.88-1.28-3.68-2.04-5.4-.72-1.76-1.54-3.34-2.46-4.74s-1.96-2.58-3.12-3.54c-1.12-.96-2.38-1.62-3.78-1.98v17.1l5.64-7.8.42.06 1.32 18.96-.42.06-6.66-9.78-.3.12v21.06c1.2-.24 2.34-.8 3.42-1.68s2.06-1.98 2.94-3.3c.92-1.32 1.74-2.78 2.46-4.38.76-1.64 1.42-3.34 1.98-5.1l.48.06-.66 15.54h-20.88c.92-.84 1.56-1.78 1.92-2.82s.54-2.16.54-3.36v-29.64c0-1.2-.18-2.32-.54-3.36s-1-1.98-1.92-2.82h21.66l.48 16.68zm21.054 3.72v-14.28c0-1.2-.18-2.32-.54-3.36s-1-1.98-1.92-2.82h12.72c-.92.84-1.56 1.78-1.92 2.82s-.54 2.16-.54 3.36v29.64c0 1.2.18 2.32.54 3.36s1 1.98 1.92 2.82h-12.72c.92-.84 1.56-1.78 1.92-2.82s.54-2.16.54-3.36v-13.92c-1.16.4-2.44.6-3.84.6-1.68 0-3.26-.24-4.74-.72-1.44-.48-2.7-1.22-3.78-2.22-1.04-1.04-1.86-2.34-2.46-3.9-.56-1.6-.82-3.52-.78-5.76v-3.72c0-1.2-.18-2.32-.54-3.36s-1-1.98-1.92-2.82h12.72c-.92.84-1.56 1.78-1.92 2.82s-.54 2.16-.54 3.36v6.12c-.16 2.88.28 5.12 1.32 6.72 1.04 1.56 2.8 2.16 5.28 1.8.4-.08.8-.2 1.2-.36zm22.566 20.46c2.52 0 4.32-.92 5.4-2.76s1.62-4.56 1.62-8.16c0-1.84-.12-3.52-.36-5.04-.2-1.52-.58-2.82-1.14-3.9-.52-1.08-1.24-1.92-2.16-2.52-.88-.64-2-.96-3.36-.96zm0-24.48c1.68 0 3.4.22 5.16.66 1.8.44 3.42 1.18 4.86 2.22 1.44 1 2.62 2.34 3.54 4.02s1.38 3.72 1.38 6.12v1.02c0 .4-.02.7-.06.9-.12 1.96-.54 3.62-1.26 4.98-.68 1.32-1.56 2.4-2.64 3.24s-2.34 1.46-3.78 1.86c-1.44.36-2.98.54-4.62.54h-12.84c.92-.84 1.56-1.78 1.92-2.82s.54-2.16.54-3.36v-29.64c0-1.2-.18-2.32-.54-3.36s-1-1.98-1.92-2.82h12.72c-.92.84-1.56 1.78-1.92 2.82s-.54 2.16-.54 3.36zm17.337 4.08c0-3.24.3-6.16.9-8.76.64-2.64 1.54-4.86 2.7-6.66 1.16-1.84 2.56-3.26 4.2-4.26 1.68-1 3.58-1.5 5.7-1.5 1.16 0 2.26.16 3.3.48 1.04.28 2.02.6 2.94.96.6.24 1.2.3 1.8.18.64-.12 1.2-.36 1.68-.72l-1.14 16.32-.42-.06c-.52-1.68-1.16-3.4-1.92-5.16-.72-1.8-1.56-3.42-2.52-4.86-.96-1.48-2.04-2.7-3.24-3.66s-2.54-1.44-4.02-1.44c-.68 0-1.26.2-1.74.6s-.88.96-1.2 1.68c-.28.68-.5 1.48-.66 2.4-.12.92-.18 1.92-.18 3 0 3.44.22 6.78.66 10.02.48 3.24 1.18 6.12 2.1 8.64.92 2.48 2.06 4.48 3.42 6 1.36 1.48 2.96 2.22 4.8 2.22 1.8 0 3.22-.96 4.26-2.88 1.08-1.96 1.84-5.02 2.28-9.18l.66.06c-.2 3.12-.54 5.84-1.02 8.16s-1.16 4.26-2.04 5.82-2 2.74-3.36 3.54c-1.32.76-2.9 1.14-4.74 1.14-1.92 0-3.68-.58-5.28-1.74s-3-2.74-4.2-4.74c-1.16-2-2.08-4.34-2.76-7.02-.64-2.68-.96-5.54-.96-8.58zm38.471-2.1c-1.48.2-2.92.14-4.32-.18-1.36-.32-2.58-.86-3.66-1.62-1.04-.8-1.88-1.8-2.52-3-.6-1.24-.9-2.64-.9-4.2 0-1.6.3-3 .9-4.2.64-1.2 1.5-2.18 2.58-2.94s2.34-1.32 3.78-1.68c1.48-.4 3.06-.6 4.74-.6h13.08c-.92.84-1.56 1.78-1.92 2.82s-.54 2.16-.54 3.36v29.64c0 1.2.18 2.32.54 3.36s1 1.98 1.92 2.82h-12.72c.92-.84 1.56-1.78 1.92-2.82s.54-2.16.54-3.36v-17.94c-.76.52-1.42 1.1-1.98 1.74s-1.12 1.42-1.68 2.34c-.52.88-1.08 1.94-1.68 3.18-.56 1.2-1.2 2.66-1.92 4.38l-6.66 15.54-.54-.06 2.22-25.92c1.68.2 3.24.22 4.68.06 1.48-.16 2.86-.4 4.14-.72zm-3.36-9c0 2.72.52 4.76 1.56 6.12s2.78 1.72 5.22 1.08v-15.54c-2.4 0-4.14.7-5.22 2.1-1.04 1.4-1.56 3.48-1.56 6.24zm-120.255-256.74c.52.32 1.08.52 1.68.6s1.2-.04 1.8-.36c1-.52 2.2-1.04 3.6-1.56 1.44-.56 2.94-.84 4.5-.84s3.02.219999 4.38.66c1.4.4 2.62 1.08 3.66 2.04s1.86 2.2 2.46 3.72.9 3.36.9 5.52c0 2.28-.44 4.42-1.32 6.42-.88 1.96-2.08 3.86-3.6 5.7-1.48 1.8-3.22 3.58-5.22 5.34-1.96 1.76-4.04 3.54-6.24 5.34h9.48c1.2 0 2.32-.18 3.36-.54s1.98-1 2.82-1.92l-.78 10.26h-21.42v-.48l9.24-13.26c1.08-1.56 2-3.04 2.76-4.44s1.36-2.76 1.8-4.08c.48-1.36.82-2.7 1.02-4.02.2-1.36.3-2.76.3-4.2 0-3.52-.32-6.18-.96-7.98-.64-1.84-1.72-2.76-3.24-2.76-1.2 0-2.26.72-3.18 2.16-.88 1.4-1.66 3.12-2.34 5.16-.68 2-1.24 4.1-1.68 6.3-.4 2.2-.72 4.08-.96 5.64h-.54l-2.28-18.42z" fill="#e2d2bb"/></svg>