<svg xmlns="http://www.w3.org/2000/svg" width="354" height="340" fill="none">
  <path fill="#DE8E59" d="M35.9979 114.756c2.322-1.566 4.482-3.24 6.588-5.184-3.132-.81-6.21-1.782-8.748-2.754 1.08-.648 2.16-1.35 3.186-2.106-.108-3.348-.216-6.642-.216-9.99 0-9.666 1.62-15.876 4.482-20.196 2.7.432 5.724 1.728 5.724 3.024v19.494c0 5.832-.108 11.772-.324 17.604 2.7-.81 5.238-1.728 7.668-2.754-.162-5.724-.27-11.448-.27-17.172 0-9.612 1.62-15.876 4.482-20.142 2.97.54 7.128 2.376 6.804 4.05-1.89 10.206-1.89 24.894-1.134 32.778 1.566 1.242 4.374 2.808 5.94 3.51 2.322-1.296 4.698-2.97 6.696-4.806-4.806-2.268-5.022-2.592-5.292-4.59-.864-5.778-.972-17.172.81-27.378 1.188-.864 2.754-2.052 3.888-3.132-3.834-3.348-10.746-6.534-15.984-7.128-2.862 3.294-5.184 7.398-6.48 10.962.108-2.376.432-4.752.81-7.128-2.754-1.674-7.83-3.402-11.61-3.834-2.862 3.294-5.184 7.398-6.48 10.962 0-2.592.27-6.048.486-7.506-1.836-1.296-4.32-2.538-6.912-3.456-2.322 1.566-4.482 3.294-6.588 5.184 2.268.864 4.482 1.89 6.102 2.916 0 10.584-.054 21.276-.216 31.86-1.404 1.08-2.754 2.16-4.104 3.402 2.862 1.188 6.75 2.484 10.692 3.51Zm59.6865 5.886c3.78-1.674 7.7216-4.05 10.5836-6.48 3.078-13.716 3.834-33.804 2.214-46.278-2.43 1.08-5.4 3.024-7.56 4.86.972 7.938 1.242 18.738.54 28.404-5.3996-1.188-10.5836-2.808-14.5256-4.482 3.132-6.102 4.374-14.958 3.348-21.114 1.566-1.134 3.078-2.376 4.536-3.726-3.456-1.512-7.56-2.862-11.556-3.996-2.322 1.566-4.482 3.24-6.588 5.184 3.456.972 6.966 2.106 10.044 3.348-1.242.756-2.484 1.512-3.726 2.376 1.35 6.102.432 16.254-2.322 23.274 4.212 1.836 9.774 3.51 15.552 4.59 1.782-1.188 3.51-2.484 5.1296-3.888-.378 4.428-.918 8.586-1.7276 12.096-5.13-2.052-10.53-3.672-15.066-4.482-2.322 1.566-4.482 3.24-6.588 5.184 5.346.972 11.718 2.862 17.712 5.13Zm28.6396-5.886c1.998-1.08 3.834-2.376 5.508-3.834 5.778-5.022 8.586-12.042 6.966-20.088-2.268-1.026-5.184-2.052-8.262-2.916 6.318-5.076 7.992-11.124 6.372-16.578-4.05-1.458-9.396-2.7-15.174-3.456-2.376 1.512-4.536 3.24-6.588 5.184 4.752.648 9.342 1.62 13.014 2.7 1.404.486 1.674.756 1.944 2.214.54 3.564.108 7.506-1.35 9.45l-3.24-.81c-2.376 1.35-4.536 2.862-6.588 4.644 4.05.918 7.992 2.16 11.124 3.348 1.404.594 1.674.864 1.89 2.376.486 3.888.162 8.586-1.728 12.042-4.158-.864-8.154-2.214-11.178-3.672-1.998 1.728-3.834 3.618-5.508 5.724 3.402 1.674 8.046 3.024 12.798 3.672Zm32.501 0c1.998-1.08 3.834-2.376 5.508-3.834 6.156-5.346 8.586-13.986 6.966-23.328-3.078-1.296-7.506-2.484-11.664-3.024-1.728 1.026-3.402 2.16-4.968 3.402 0-5.4.054-10.746.27-16.092-1.89-1.404-4.482-2.808-7.182-3.996-2.322 1.566-4.482 3.294-6.588 5.184 2.268.864 4.482 1.89 6.102 2.916.378 10.368.378 20.682.054 31.05-1.404 1.026-2.754 2.16-4.104 3.402 4.158 1.998 9.828 3.564 15.606 4.32Zm-7.128-8.694c1.134-.702 2.214-1.404 3.24-2.16-.162-4.806-.27-9.612-.27-14.418 2.862.486 5.616 1.188 7.884 1.944 1.404.54 1.674.81 1.836 2.322.54 4.86.27 10.908-1.782 15.336-3.942-.81-7.722-1.836-10.908-3.024Zm16.956-33.048c3.402.972 6.912 2.106 9.99 3.348-1.242.702-2.43 1.512-3.564 2.322.378 9.72.378 19.602.054 29.322-1.404 1.026-2.754 2.16-4.104 3.402 2.592 1.188 6.048 2.484 9.612 3.51 2.322-1.566 4.482-3.24 6.588-5.184-2.754-.81-5.454-1.782-7.776-2.7 1.134-.702 2.214-1.404 3.294-2.16-.378-9.882-.378-19.872-.054-29.646 1.404-1.026 2.754-2.16 4.104-3.402-3.456-1.512-7.56-2.862-11.556-3.996-2.322 1.566-4.482 3.24-6.588 5.184Zm32.17-1.674c-1.89-1.296-4.482-2.538-7.182-3.456-2.322 1.566-4.482 3.294-6.588 5.184 2.268.864 4.482 1.89 6.102 2.916.378 10.638.378 21.222.054 31.86-1.404 1.026-2.754 2.16-4.104 3.402 2.862 1.188 6.75 2.484 10.692 3.51 2.322-1.566 4.482-3.24 6.588-5.184-3.132-.81-6.21-1.782-8.748-2.754 1.08-.648 2.16-1.35 3.186-2.106-.108-3.834-.216-7.614-.27-11.448 3.618.972 7.884 2.592 10.746 4.05-.702 4.59-.702 12.474-.162 15.498 1.296.864 2.916 1.566 4.266 1.944 2.322-1.566 4.482-3.24 6.588-5.184-1.242-.432-2.646-1.026-3.888-1.836-.702-3.51-.486-11.61.108-15.444-3.078-1.62-7.236-3.186-10.8-4.212 3.51-3.78 8.856-10.098 13.014-15.66-3.024-1.89-6.156-3.348-9.288-4.536-2.484 1.404-4.752 2.97-6.912 4.806 2.754 1.026 5.508 2.322 8.262 3.888-3.78 5.292-8.262 11.07-11.934 15.228-.054-6.804.054-13.662.27-20.466Zm35.092 43.362c1.782-1.728 3.456-3.618 4.968-5.724-2.808-.432-5.562-.972-8.154-1.566 1.512-2.592 3.078-5.724 4.536-9.234 3.24.594 6.48 1.188 9.342 1.89.864-.918 1.674-2.052 2.484-3.24-.108 4.05-.27 8.208-.54 10.908-1.458 1.08-2.862 2.268-4.212 3.51 2.592 1.188 6.048 2.484 9.612 3.51 2.322-1.566 4.482-3.24 6.588-5.184-2.754-.81-5.454-1.782-7.776-2.7 1.08-.702 2.16-1.35 3.132-2.106.27-4.05.324-8.316.324-13.392 0-6.75-.324-13.014-.81-18.414-5.076-2.106-12.096-3.996-19.278-5.13-2.322 1.566-4.482 3.294-6.588 5.184 4.212.702 8.316 1.566 12.042 2.646-1.188.594-2.268 1.296-3.402 2.052-.54 4.32-1.62 9.396-3.024 14.526-1.944-.27-3.78-.54-5.508-.702-1.404 1.512-2.7 3.294-3.888 5.184 2.43.216 5.076.54 7.776.918-.972 3.132-2.106 6.264-3.24 9.18l-2.16-.594c-1.782 1.728-3.456 3.618-4.968 5.724 3.672 1.08 8.208 2.052 12.744 2.754Zm3.348-21.762c1.998-5.508 3.672-11.394 4.644-16.578.972.27 1.89.594 2.754.918 1.404.594 1.62.864 1.782 2.376.432 4.86.648 9.666.648 14.526v.972c-3.024-.81-6.426-1.566-9.828-2.214Zm51.748 21.816c2.322-1.566 4.482-3.24 6.588-5.184-2.754-.81-5.454-1.782-7.776-2.7 1.08-.702 2.16-1.35 3.132-2.106.27-4.05.324-8.316.324-13.392 0-6.75-.324-13.014-.81-18.414-5.076-2.106-12.096-3.996-19.278-5.13-2.322 1.566-4.482 3.294-6.588 5.184 3.942.648 7.83 1.458 11.34 2.43-.918.54-1.728 1.08-2.538 1.674-1.296 8.802-3.834 19.386-7.668 28.998-1.782-.594-3.672-1.35-4.914-2.106-.702 2.322-1.512 5.562-2.052 8.478 2.214 1.134 5.454 2.052 8.586 2.43 4.806-9.882 8.694-26.082 9.99-39.042 1.566.432 3.024.918 4.374 1.404 1.404.594 1.62.864 1.782 2.376.432 4.86.648 9.666.648 14.526 0 4.806-.216 10.26-.54 13.554-1.458 1.08-2.862 2.268-4.212 3.51 2.592 1.188 6.048 2.484 9.612 3.51Zm25.949 0c1.998-1.08 3.834-2.376 5.508-3.834 6.102-5.292 8.586-13.662 6.966-22.788-3.51-1.512-8.532-2.916-13.284-3.564-1.728 1.026-3.402 2.16-4.968 3.402 0-5.4.054-10.746.27-16.092-1.89-1.404-4.482-2.808-7.182-3.996-2.322 1.566-4.482 3.294-6.588 5.184 2.268.864 4.482 1.89 6.102 2.916.378 10.26.378 20.52.054 30.78-1.404 1.026-2.754 2.16-4.104 3.402 4.59 2.106 10.854 3.78 17.226 4.59Zm-8.694-9.018c1.08-.648 2.16-1.35 3.186-2.106-.162-4.698-.27-9.45-.27-14.148 3.456.594 6.804 1.458 9.504 2.43 1.404.594 1.674.864 1.836 2.376.54 4.698.216 10.584-1.782 14.796-4.536-.81-8.91-1.998-12.474-3.348ZM7.696 121.83c-2.322 1.566-4.482 3.24-6.588 5.184 3.402.972 6.912 2.106 9.99 3.348-1.242.702-2.43 1.512-3.564 2.322.108 2.808.162 5.616.216 8.424l-2.214-.162c-1.404 1.512-2.7 3.294-3.888 5.184 1.944.108 3.996.216 6.156.378.054 5.076-.054 10.206-.216 15.336-1.404 1.026-2.754 2.16-4.104 3.402 2.592 1.188 6.048 2.484 9.612 3.51 2.322-1.566 4.482-3.24 6.588-5.184-2.754-.81-5.454-1.782-7.776-2.7 1.134-.702 2.214-1.404 3.294-2.16-.162-3.888-.216-7.722-.27-11.61 3.78.378 7.506.81 10.8 1.296.702-.756 1.404-1.674 2.052-2.592 0 6.48-.054 13.068-.27 19.548 1.836 1.404 4.158 2.862 5.724 3.51 2.376-1.296 4.59-2.862 6.588-4.644-.918-.324-2.214-.864-3.402-1.512-1.35-.756-1.512-1.08-1.512-2.592v-19.44c0-6.048.108-12.042.27-18.036-2.7 1.404-5.238 2.916-7.668 4.644.216 5.4.27 10.8.27 16.254-3.942-.702-8.478-1.35-12.852-1.782 0-4.212.108-8.37.216-12.528 1.404-1.026 2.754-2.16 4.104-3.402-3.456-1.512-7.56-2.862-11.556-3.996Zm49.3024 46.926c1.998-1.08 3.834-2.376 5.508-3.834 6.156-5.346 8.586-13.986 6.966-23.328-3.078-1.296-7.506-2.484-11.664-3.024-1.728 1.026-3.402 2.16-4.968 3.402 0-5.4.054-10.746.27-16.092-1.89-1.404-4.482-2.808-7.182-3.996-2.322 1.566-4.482 3.294-6.588 5.184 2.268.864 4.482 1.89 6.102 2.916.378 10.368.378 20.682.054 31.05-1.404 1.026-2.754 2.16-4.104 3.402 4.158 1.998 9.828 3.564 15.606 4.32Zm-7.128-8.694c1.134-.702 2.214-1.404 3.24-2.16-.162-4.806-.27-9.612-.27-14.418 2.862.486 5.616 1.188 7.884 1.944 1.404.54 1.674.81 1.836 2.322.54 4.86.27 10.908-1.782 15.336-3.942-.81-7.722-1.836-10.908-3.024Zm16.956-33.048c3.402.972 6.912 2.106 9.99 3.348-1.242.702-2.43 1.512-3.564 2.322.378 9.72.378 19.602.054 29.322-1.404 1.026-2.754 2.16-4.104 3.402 2.592 1.188 6.048 2.484 9.612 3.51 2.322-1.566 4.482-3.24 6.588-5.184-2.754-.81-5.454-1.782-7.776-2.7 1.134-.702 2.214-1.404 3.294-2.16-.378-9.882-.378-19.872-.054-29.646 1.404-1.026 2.754-2.16 4.104-3.402-3.456-1.512-7.56-2.862-11.556-3.996-2.322 1.566-4.482 3.24-6.588 5.184Zm48.5866 41.85c2.376-1.296 4.59-2.862 6.588-4.644-.918-.324-2.214-.864-3.402-1.512-1.35-.756-1.512-1.08-1.512-2.592v-19.44c0-6.048.108-12.042.27-18.036-2.7 1.404-5.238 2.916-7.668 4.644.216 5.994.27 11.988.27 18.036 0 6.048-.054 12.15-.27 18.198-5.454-1.242-10.8001-2.916-14.6881-4.644 3.294-8.37 4.59-20.844 3.51-29.268 1.5661-1.188 3.0781-2.43 4.5361-3.78-3.4561-1.512-7.5601-2.862-11.5561-3.996-2.322 1.566-4.482 3.24-6.588 5.184 3.456.972 6.966 2.106 10.044 3.348-1.242.756-2.484 1.512-3.726 2.376 1.35 8.262.432 22.032-2.322 31.536 4.05 1.836 9.45 3.51 15.0121 4.59 1.836-1.242 3.564-2.538 5.238-3.942 1.89 1.566 4.482 3.24 6.264 3.942Zm-18.3061-53.406c1.782 3.078 4.9681 4.914 8.4781 4.914 4.104 0 7.074-2.376 9.18-6.534-.54-.594-1.566-1.35-2.376-1.836-1.512 2.376-3.24 3.186-5.022 3.186-1.998 0-3.78-1.08-5.454-3.672-1.62 1.08-3.5101 2.592-4.8061 3.942Zm39.1181 25.704c1.296-.648 3.672-2.43 5.13-3.996-1.242-3.186-1.998-6.642-2.376-9.72 4.158.486 8.316 1.08 12.366 1.836-1.512.918-3.024 1.836-4.428 2.862.378 9.72.378 19.44.054 29.16-1.404 1.026-2.754 2.16-4.104 3.402 3.186 1.35 7.398 2.862 11.772 4.05 2.322-1.566 4.482-3.24 6.588-5.184-3.564-.972-6.966-2.16-9.882-3.294 1.134-.648 2.214-1.35 3.24-2.106-.324-9.396-.378-18.846-.108-28.242 2.916.648 5.724 1.35 8.37 2.16 1.08-1.62 2.376-3.996 3.294-6.156-7.344-2.106-16.524-3.564-24.462-4.104-2.808 1.944-5.562 4.428-7.668 6.804.108 4.158 1.08 9.504 2.214 12.528Zm48.58 33.48c3.78-1.674 7.722-4.05 10.584-6.48 3.078-13.716 3.834-33.804 2.214-46.278-2.43 1.08-5.4 3.024-7.56 4.86.972 7.938 1.242 18.738.54 28.404-5.4-1.188-10.584-2.808-14.526-4.482 3.132-6.102 4.374-14.958 3.348-21.114 1.566-1.134 3.078-2.376 4.536-3.726-3.456-1.512-7.56-2.862-11.556-3.996-2.322 1.566-4.482 3.24-6.588 5.184 3.456.972 6.966 2.106 10.044 3.348-1.242.756-2.484 1.512-3.726 2.376 1.35 6.102.432 16.254-2.322 23.274 4.212 1.836 9.774 3.51 15.552 4.59 1.782-1.188 3.51-2.484 5.13-3.888-.378 4.428-.918 8.586-1.728 12.096-5.13-2.052-10.53-3.672-15.066-4.482-2.322 1.566-4.482 3.24-6.588 5.184 5.346.972 11.718 2.862 17.712 5.13Zm40.412-42.498c2.97 8.262 2.592 18.522-.216 23.922-3.618-.702-7.074-1.674-10.206-2.754-.054-8.64.054-17.28.216-25.92 2.916.756 5.67 1.62 7.938 2.484 1.404.54 1.674.864 2.268 2.268Zm-23.922-5.076c2.268.864 4.482 1.89 6.102 2.916.216 7.668.27 15.336.27 23.058-1.458 1.08-2.916 2.268-4.32 3.564 1.296.648 2.754 1.296 4.32 1.836-.054 5.022-.162 10.044-.27 15.066 2.7-.81 5.238-1.728 7.668-2.754l-.216-10.152c2.052.432 4.158.864 6.264 1.134 1.998-1.08 3.834-2.376 5.508-3.834 7.182-6.264 9.342-21.438 5.076-32.346-3.078-1.404-7.182-2.7-11.502-3.672-1.836 1.242-3.51 2.538-5.184 3.942-1.89-1.35-4.428-2.754-7.128-3.942-2.322 1.566-4.482 3.294-6.588 5.184Zm65.514 41.688c1.998-1.08 3.834-2.376 5.508-3.834 8.856-7.722 11.07-21.6 6.696-36.072-6.534-2.862-15.498-5.454-24.678-7.02-2.322 1.566-4.482 3.294-6.588 5.184 3.888.702 7.722 1.566 11.394 2.484-1.728 1.026-3.348 2.052-4.968 3.186.378 9.342.378 18.738.054 28.08-1.404 1.026-2.754 2.16-4.104 3.402 4.482 2.106 10.476 3.78 16.686 4.59Zm-8.208-9.018c1.134-.648 2.214-1.35 3.24-2.106-.324-9.072-.378-18.252-.054-27.378 3.078.918 5.94 1.89 8.478 2.916 1.404.54 1.674.864 2.214 2.268 2.808 8.64 2.214 19.98-1.836 27.648-4.374-.81-8.532-1.998-12.042-3.348Zm55.353 9.018c2.322-1.566 4.482-3.24 6.588-5.184-2.754-.81-5.454-1.782-7.776-2.7 1.08-.702 2.16-1.35 3.132-2.106.27-4.05.324-8.316.324-13.392 0-6.75-.324-13.014-.81-18.414-5.076-2.106-12.096-3.996-19.278-5.13-2.322 1.566-4.482 3.294-6.588 5.184 3.942.648 7.83 1.458 11.34 2.43-.918.54-1.728 1.08-2.538 1.674-1.296 8.802-3.834 19.386-7.668 28.998-1.782-.594-3.672-1.35-4.914-2.106-.702 2.322-1.512 5.562-2.052 8.478 2.214 1.134 5.454 2.052 8.586 2.43 4.806-9.882 8.694-26.082 9.99-39.042 1.566.432 3.024.918 4.374 1.404 1.404.594 1.62.864 1.782 2.376.432 4.86.648 9.666.648 14.526 0 4.806-.216 10.26-.54 13.554-1.458 1.08-2.862 2.268-4.212 3.51 2.592 1.188 6.048 2.484 9.612 3.51Zm32.052.108c2.376-1.296 4.59-2.862 6.588-4.644-.918-.324-2.214-.864-3.402-1.512-1.35-.756-1.512-1.08-1.512-2.592v-19.44c0-3.78.108-7.56.216-11.286 1.458-1.026 2.808-2.16 4.104-3.348-5.4-1.998-11.016-3.456-16.74-4.32-1.998 1.08-3.834 2.376-5.508 3.834-5.886 5.184-8.802 15.012-5.076 22.626 3.078 1.35 7.56 2.646 11.286 3.51-1.728 2.862-3.942 5.994-6.696 8.964-2.322-.702-4.806-1.728-6.48-2.646-.702 2.322-1.512 5.562-2.052 8.478 2.214 1.134 5.454 2.052 8.586 2.43 4.374-5.346 8.586-13.446 11.232-20.952 0 5.778-.108 11.61-.27 17.388 1.836 1.404 4.158 2.862 5.724 3.51Zm-14.958-26.676c-2.214-5.184-1.89-11.286.162-14.796 4.482.864 8.802 2.16 12.42 3.618-1.134.702-2.268 1.458-3.348 2.214.216 3.996.27 8.046.27 12.096v.756c-2.592-.54-5.022-1.188-7.128-1.782-1.404-.486-1.728-.756-2.376-2.106ZM19.2723 228.642c3.78-1.674 7.722-4.05 10.584-6.48 3.078-13.716 3.834-33.804 2.214-46.278-2.43 1.08-5.4 3.024-7.56 4.86.972 7.938 1.242 18.738.54 28.404-5.4-1.188-10.584-2.808-14.526-4.482 3.1319-6.102 4.374-14.958 3.348-21.114 1.566-1.134 3.078-2.376 4.536-3.726-3.456-1.512-7.56-2.862-11.55605-3.996-2.322 1.566-4.482 3.24-6.588 5.184 3.456.972 6.966 2.106 10.04405 3.348-1.24205.756-2.48405 1.512-3.72605 2.376 1.35 6.102.432 16.254-2.322 23.274 4.212 1.836 9.77395 3.51 15.55205 4.59 1.782-1.188 3.51-2.484 5.13-3.888-.378 4.428-.918 8.586-1.728 12.096-5.13-2.052-10.53-3.672-15.06605-4.482-2.322 1.566-4.482 3.24-6.588 5.184 5.346.972 11.71805 2.862 17.71205 5.13Zm28.8018-5.886c2.322-1.566 4.482-3.24 6.588-5.184-3.132-.81-6.21-1.782-8.748-2.754 1.08-.648 2.16-1.35 3.186-2.106-.108-3.348-.216-6.642-.216-9.99 0-9.666 1.62-15.876 4.482-20.196 3.564.486 8.748 2.376 8.424 4.104-1.89 10.206-1.89 24.894-1.134 32.778 1.566 1.242 4.374 2.808 5.94 3.51 2.322-1.296 4.698-2.97 6.696-4.806-4.806-2.268-5.022-2.592-5.292-4.59-.864-5.778-.972-17.172.81-27.378 1.188-.864 2.754-2.052 3.888-3.132-4.212-3.348-11.826-6.534-17.604-7.128-2.862 3.294-5.184 7.398-6.48 10.962 0-2.592.27-6.048.486-7.506-1.836-1.296-4.32-2.538-6.912-3.456-2.322 1.566-4.482 3.294-6.588 5.184 2.268.864 4.482 1.89 6.102 2.916 0 10.584-.054 21.276-.216 31.86-1.404 1.08-2.754 2.16-4.104 3.402 2.862 1.188 6.75 2.484 10.692 3.51Zm49.2623-36.612c2.9696 8.262 2.592 18.522-.216 23.922-3.618-.702-7.074-1.674-10.206-2.754-.054-8.64.054-17.28.216-25.92 2.916.756 5.67 1.62 7.938 2.484 1.404.54 1.674.864 2.268 2.268Zm-23.922-5.076c2.268.864 4.482 1.89 6.102 2.916.216 7.668.27 15.336.27 23.058-1.458 1.08-2.916 2.268-4.32 3.564 1.296.648 2.754 1.296 4.32 1.836-.054 5.022-.162 10.044-.27 15.066 2.7-.81 5.238-1.728 7.668-2.754l-.216-10.152c2.052.432 4.158.864 6.264 1.134 1.998-1.08 3.834-2.376 5.508-3.834 7.1816-6.264 9.3416-21.438 5.0756-32.346-3.078-1.404-7.1816-2.7-11.5016-3.672-1.836 1.242-3.51 2.538-5.184 3.942-1.89-1.35-4.428-2.754-7.128-3.942-2.322 1.566-4.482 3.294-6.588 5.184Zm47.3326 41.634c1.782-1.728 3.456-3.618 4.968-5.724-2.808-.432-5.562-.972-8.154-1.566 1.512-2.592 3.078-5.724 4.536-9.234 3.24.594 6.48 1.188 9.342 1.89.864-.918 1.674-2.052 2.484-3.24-.108 4.05-.27 8.208-.54 10.908-1.458 1.08-2.862 2.268-4.212 3.51 2.592 1.188 6.048 2.484 9.612 3.51 2.322-1.566 4.482-3.24 6.588-5.184-2.754-.81-5.454-1.782-7.776-2.7 1.08-.702 2.16-1.35 3.132-2.106.27-4.05.324-8.316.324-13.392 0-6.75-.324-13.014-.81-18.414-5.076-2.106-12.096-3.996-19.278-5.13-2.322 1.566-4.482 3.294-6.588 5.184 4.212.702 8.316 1.566 12.042 2.646-1.188.594-2.268 1.296-3.402 2.052-.54 4.32-1.62 9.396-3.024 14.526-1.944-.27-3.78-.54-5.508-.702-1.404 1.512-2.7 3.294-3.888 5.184 2.43.216 5.076.54 7.776.918-.972 3.132-2.106 6.264-3.24 9.18l-2.16-.594c-1.782 1.728-3.456 3.618-4.968 5.724 3.672 1.08 8.208 2.052 12.744 2.754Zm3.348-21.762c1.998-5.508 3.672-11.394 4.644-16.578.972.27 1.89.594 2.754.918 1.404.594 1.62.864 1.782 2.376.432 4.86.648 9.666.648 14.526v.972c-3.024-.81-6.426-1.566-9.828-2.214Zm41.002 21.816c1.998-1.08 3.834-2.376 5.508-3.834 5.778-5.022 8.586-12.042 6.966-20.088-2.052-1.242-4.806-2.484-7.614-3.456 5.778-4.968 7.29-10.746 5.724-16.038-2.916-1.296-6.804-2.538-10.962-3.456-1.836 1.242-3.51 2.538-5.184 3.942-1.89-1.35-4.428-2.754-7.128-3.942-2.322 1.566-4.482 3.294-6.588 5.184 2.268.864 4.482 1.89 6.102 2.916.378 10.26.378 20.52.054 30.78-1.404 1.026-2.754 2.16-4.104 3.402 4.59 2.106 10.854 3.78 17.226 4.59Zm-8.694-9.018c1.08-.648 2.16-1.35 3.186-2.106-.378-10.098-.378-20.142-.054-30.24 2.7.702 5.292 1.512 7.398 2.268 1.404.594 1.674.864 1.944 2.322.54 3.456.162 7.29-1.242 9.288-2.052 1.296-3.996 2.646-5.886 4.212 2.592.81 5.13 1.89 7.182 2.916 1.35.756 1.566 1.08 1.782 2.592.486 3.888.162 8.64-1.728 12.15-4.59-.864-8.964-2.052-12.582-3.402Zm53.875 9.018c2.322-1.566 4.482-3.24 6.588-5.184-2.754-.81-5.454-1.782-7.776-2.7 1.08-.702 2.16-1.35 3.132-2.106.27-4.05.324-8.316.324-13.392 0-6.75-.324-13.014-.81-18.414-5.076-2.106-12.096-3.996-19.278-5.13-2.322 1.566-4.482 3.294-6.588 5.184 3.942.648 7.83 1.458 11.34 2.43-.918.54-1.728 1.08-2.538 1.674-1.296 8.802-3.834 19.386-7.668 28.998-1.782-.594-3.672-1.35-4.914-2.106-.702 2.322-1.512 5.562-2.052 8.478 2.214 1.134 5.454 2.052 8.586 2.43 4.806-9.882 8.694-26.082 9.99-39.042 1.566.432 3.024.918 4.374 1.404 1.404.594 1.62.864 1.782 2.376.432 4.86.648 9.666.648 14.526 0 4.806-.216 10.26-.54 13.554-1.458 1.08-2.862 2.268-4.212 3.51 2.592 1.188 6.048 2.484 9.612 3.51Zm29.46 0c2.322-1.566 4.482-3.24 6.588-5.184-7.992-1.512-15.714-3.618-21.708-5.886 1.458-.864 2.808-1.728 4.104-2.7.162-2.538.27-5.184.324-8.046 3.834.054 8.424.324 11.988.648 1.404-1.674 2.7-3.726 3.888-5.994-3.996-.432-9.234-.648-13.284-.648-.918 1.134-1.782 2.376-2.592 3.726v-1.998c0-5.4-.216-10.422-.594-14.904 3.456 1.08 7.236 1.998 10.854 2.7 2.322-1.566 4.482-3.24 6.588-5.184-4.428-.918-9.126-2.16-13.176-3.456-3.672 1.998-8.316 4.968-11.61 7.668.54 5.346.81 10.638.81 15.984 0 5.022-.27 10.746-.648 13.662-1.404 1.026-2.754 2.16-4.104 3.402 6.102 2.484 14.202 4.752 22.572 6.21Zm13.489-46.926c-2.322 1.566-4.482 3.24-6.588 5.184 3.402.972 6.912 2.106 9.99 3.348-1.242.702-2.43 1.512-3.564 2.322.108 2.808.162 5.616.216 8.424l-2.214-.162c-1.404 1.512-2.7 3.294-3.888 5.184 1.944.108 3.996.216 6.156.378.054 5.076-.054 10.206-.216 15.336-1.404 1.026-2.754 2.16-4.104 3.402 2.592 1.188 6.048 2.484 9.612 3.51 2.322-1.566 4.482-3.24 6.588-5.184-2.754-.81-5.454-1.782-7.776-2.7 1.134-.702 2.214-1.404 3.294-2.16-.162-3.888-.216-7.722-.27-11.61 3.78.378 7.506.81 10.8 1.296.702-.756 1.404-1.674 2.052-2.592 0 6.48-.054 13.068-.27 19.548 1.836 1.404 4.158 2.862 5.724 3.51 2.376-1.296 4.59-2.862 6.588-4.644-.918-.324-2.214-.864-3.402-1.512-1.35-.756-1.512-1.08-1.512-2.592v-19.44c0-6.048.108-12.042.27-18.036-2.7 1.404-5.238 2.916-7.668 4.644.216 5.4.27 10.8.27 16.254-3.942-.702-8.478-1.35-12.852-1.782 0-4.212.108-8.37.216-12.528 1.404-1.026 2.754-2.16 4.104-3.402-3.456-1.512-7.56-2.862-11.556-3.996Zm62.155 47.034c2.376-1.296 4.59-2.862 6.588-4.644-.918-.324-2.214-.864-3.402-1.512-1.35-.756-1.512-1.08-1.512-2.592v-19.44c0-6.048.108-12.042.27-18.036-2.7 1.404-5.238 2.916-7.668 4.644.216 5.994.27 11.988.27 18.036 0 6.048-.054 12.15-.27 18.198-5.454-1.242-10.8-2.916-14.688-4.644 3.294-8.37 4.59-20.844 3.51-29.268 1.566-1.188 3.078-2.43 4.536-3.78-3.456-1.512-7.56-2.862-11.556-3.996-2.322 1.566-4.482 3.24-6.588 5.184 3.456.972 6.966 2.106 10.044 3.348-1.242.756-2.484 1.512-3.726 2.376 1.35 8.262.432 22.032-2.322 31.536 4.05 1.836 9.45 3.51 15.012 4.59 1.836-1.242 3.564-2.538 5.238-3.942 1.89 1.566 4.482 3.24 6.264 3.942Zm31.467 0c2.376-1.296 4.59-2.862 6.588-4.644-.918-.324-2.214-.864-3.402-1.512-1.35-.756-1.512-1.08-1.512-2.592v-19.44c0-3.78.108-7.56.216-11.286 1.458-1.026 2.808-2.16 4.104-3.348-5.4-1.998-11.016-3.456-16.74-4.32-1.998 1.08-3.834 2.376-5.508 3.834-5.886 5.184-8.802 15.012-5.076 22.626 3.078 1.35 7.56 2.646 11.286 3.51-1.728 2.862-3.942 5.994-6.696 8.964-2.322-.702-4.806-1.728-6.48-2.646-.702 2.322-1.512 5.562-2.052 8.478 2.214 1.134 5.454 2.052 8.586 2.43 4.374-5.346 8.586-13.446 11.232-20.952 0 5.778-.108 11.61-.27 17.388 1.836 1.404 4.158 2.862 5.724 3.51Zm-14.958-26.676c-2.214-5.184-1.89-11.286.162-14.796 4.482.864 8.802 2.16 12.42 3.618-1.134.702-2.268 1.458-3.348 2.214.216 3.996.27 8.046.27 12.096v.756c-2.592-.54-5.022-1.188-7.128-1.782-1.404-.486-1.728-.756-2.376-2.106ZM30.6131 229.83c-3.672 1.728-7.02 3.564-10.098 5.886-1.566 5.4-2.322 13.284-2.322 22.302 0 4.59.27 9.234.81 13.5 4.266 2.214 10.044 4.212 16.038 5.4 2.322-1.566 4.482-3.294 6.588-5.184-5.076-1.134-10.044-2.754-13.932-4.482-1.35-.594-1.566-.918-1.782-2.43-.378-3.564-.594-7.29-.594-11.07 0-6.264.432-12.528 1.134-17.928 3.402 1.08 7.02 1.944 10.53 2.646 2.322-1.566 4.482-3.24 6.588-5.184-4.374-.918-8.964-2.16-12.96-3.456Zm42.0284 46.926c2.322-1.566 4.482-3.24 6.588-5.184-2.754-.81-5.454-1.782-7.776-2.7 1.08-.702 2.16-1.35 3.132-2.106.27-4.05.324-8.316.324-13.392 0-6.75-.324-13.014-.81-18.414-5.076-2.106-12.096-3.996-19.278-5.13-2.322 1.566-4.482 3.294-6.588 5.184 3.942.648 7.83 1.458 11.34 2.43-.918.54-1.728 1.08-2.538 1.674-1.296 8.802-3.834 19.386-7.668 28.998-1.782-.594-3.672-1.35-4.914-2.106-.702 2.322-1.512 5.562-2.052 8.478 2.214 1.134 5.454 2.052 8.586 2.43 4.806-9.882 8.694-26.082 9.99-39.042 1.566.432 3.024.918 4.374 1.404 1.404.594 1.62.864 1.782 2.376.432 4.86.648 9.666.648 14.526 0 4.806-.216 10.26-.54 13.554-1.458 1.08-2.862 2.268-4.212 3.51 2.592 1.188 6.048 2.484 9.612 3.51Zm21.8456-46.926c-3.672 1.728-7.02 3.564-10.098 5.886-1.566 5.4-2.322 13.284-2.322 22.302 0 4.752.27 9.612.81 14.04 4.104 1.998 9.72 3.78 15.498 4.86 3.6719-1.728 7.0199-3.564 10.0979-5.886 1.566-5.4 2.322-13.284 2.322-22.302 0-4.752-.27-9.612-.81-14.04-4.104-1.998-9.72-3.78-15.4979-4.86Zm-5.292 23.922c0-6.372.432-12.744 1.188-18.198 3.996.918 7.776 2.16 10.9079 3.402 1.35.594 1.566.918 1.782 2.43.378 3.726.594 7.668.594 11.61 0 6.372-.432 12.69-1.188 18.198-3.9959-.972-7.7759-2.16-10.9079-3.402-1.35-.594-1.566-.918-1.782-2.43-.378-3.726-.594-7.668-.594-11.61Zm66.6739 23.004c2.322-1.566 4.482-3.24 6.588-5.184-1.242-.432-2.646-1.026-3.888-1.836-.702-3.618-.486-12.042.108-15.984-2.754-1.458-6.48-2.862-9.774-3.888 3.348-2.376 7.83-5.886 11.448-8.964-2.484-4.59-5.076-8.154-7.668-11.016-2.43 1.458-4.698 3.024-6.912 4.806 1.836 1.674 3.618 3.888 5.4 6.534.864 1.296.81 1.62-.27 2.7-2.808 2.808-5.994 5.724-8.802 8.046 0-7.668.108-15.336.27-22.95-2.7.918-5.238 1.89-7.668 3.024.162 6.48.27 12.96.27 19.44-7.83-2.7-9.666-3.564-9.666-5.778 0-1.998.432-8.208.918-13.392-1.512-1.08-3.402-1.944-5.022-2.43-2.322 1.566-4.482 3.24-6.588 5.184 1.458.486 3.078 1.242 4.536 2.16 0 3.456-.324 10.314-.756 14.58 2.376 1.458 5.562 2.862 8.37 3.834-2.862 1.188-6.21 2.754-8.964 4.158.216 6.102.216 11.88-.108 17.118 2.538-1.134 5.13-2.538 7.668-4.266.27-3.024.324-8.1.108-12.744 2.97-2.106 6.48-4.374 9.504-6.156 0 8.262-.054 16.524-.27 24.786 2.7-.918 5.238-1.89 7.668-3.024-.162-6.966-.27-13.986-.27-21.006 2.7.756 5.724 1.89 8.1 2.97 1.35.648 1.566.972 1.35 2.484-.486 4.968-.432 11.988.054 14.85 1.296.864 2.916 1.566 4.266 1.944Zm14.249-46.926c-2.322 1.566-4.482 3.24-6.588 5.184 3.402.972 6.912 2.106 9.99 3.348-1.242.702-2.43 1.512-3.564 2.322.108 2.808.162 5.616.216 8.424l-2.214-.162c-1.404 1.512-2.7 3.294-3.888 5.184 1.944.108 3.996.216 6.156.378.054 5.076-.054 10.206-.216 15.336-1.404 1.026-2.754 2.16-4.104 3.402 2.592 1.188 6.048 2.484 9.612 3.51 2.322-1.566 4.482-3.24 6.588-5.184-2.754-.81-5.454-1.782-7.776-2.7 1.134-.702 2.214-1.404 3.294-2.16-.162-3.888-.216-7.722-.27-11.61 3.78.378 7.506.81 10.8 1.296.702-.756 1.404-1.674 2.052-2.592 0 6.48-.054 13.068-.27 19.548 1.836 1.404 4.158 2.862 5.724 3.51 2.376-1.296 4.59-2.862 6.588-4.644-.918-.324-2.214-.864-3.402-1.512-1.35-.756-1.512-1.08-1.512-2.592v-19.44c0-6.048.108-12.042.27-18.036-2.7 1.404-5.238 2.916-7.668 4.644.216 5.4.27 10.8.27 16.254-3.942-.702-8.478-1.35-12.852-1.782 0-4.212.108-8.37.216-12.528 1.404-1.026 2.754-2.16 4.104-3.402-3.456-1.512-7.56-2.862-11.556-3.996Zm49.302 46.926c1.998-1.08 3.834-2.376 5.508-3.834 6.156-5.346 8.586-13.986 6.966-23.328-3.078-1.296-7.506-2.484-11.664-3.024-1.728 1.026-3.402 2.16-4.968 3.402 0-5.4.054-10.746.27-16.092-1.89-1.404-4.482-2.808-7.182-3.996-2.322 1.566-4.482 3.294-6.588 5.184 2.268.864 4.482 1.89 6.102 2.916.378 10.368.378 20.682.054 31.05-1.404 1.026-2.754 2.16-4.104 3.402 4.158 1.998 9.828 3.564 15.606 4.32Zm-7.128-8.694c1.134-.702 2.214-1.404 3.24-2.16-.162-4.806-.27-9.612-.27-14.418 2.862.486 5.616 1.188 7.884 1.944 1.404.54 1.674.81 1.836 2.322.54 4.86.27 10.908-1.782 15.336-3.942-.81-7.722-1.836-10.908-3.024Zm16.956-33.048c3.402.972 6.912 2.106 9.99 3.348-1.242.702-2.43 1.512-3.564 2.322.378 9.72.378 19.602.054 29.322-1.404 1.026-2.754 2.16-4.104 3.402 2.592 1.188 6.048 2.484 9.612 3.51 2.322-1.566 4.482-3.24 6.588-5.184-2.754-.81-5.454-1.782-7.776-2.7 1.134-.702 2.214-1.404 3.294-2.16-.378-9.882-.378-19.872-.054-29.646 1.404-1.026 2.754-2.16 4.104-3.402-3.456-1.512-7.56-2.862-11.556-3.996-2.322 1.566-4.482 3.24-6.588 5.184Zm30.713 41.742c2.322-1.566 4.482-3.24 6.588-5.184-3.132-.81-6.21-1.782-8.748-2.754 1.08-.648 2.16-1.35 3.186-2.106-.108-3.348-.216-6.642-.216-9.99 0-9.666 1.62-15.876 4.482-20.196 2.7.432 5.724 1.728 5.724 3.024v19.494c0 5.832-.108 11.772-.324 17.604 2.7-.81 5.238-1.728 7.668-2.754-.162-5.724-.27-11.448-.27-17.172 0-9.612 1.62-15.876 4.482-20.142 2.97.54 7.128 2.376 6.804 4.05-1.89 10.206-1.89 24.894-1.134 32.778 1.566 1.242 4.374 2.808 5.94 3.51 2.322-1.296 4.698-2.97 6.696-4.806-4.806-2.268-5.022-2.592-5.292-4.59-.864-5.778-.972-17.172.81-27.378 1.188-.864 2.754-2.052 3.888-3.132-3.834-3.348-10.746-6.534-15.984-7.128-2.862 3.294-5.184 7.398-6.48 10.962.108-2.376.432-4.752.81-7.128-2.754-1.674-7.83-3.402-11.61-3.834-2.862 3.294-5.184 7.398-6.48 10.962 0-2.592.27-6.048.486-7.506-1.836-1.296-4.32-2.538-6.912-3.456-2.322 1.566-4.482 3.294-6.588 5.184 2.268.864 4.482 1.89 6.102 2.916 0 10.584-.054 21.276-.216 31.86-1.404 1.08-2.754 2.16-4.104 3.402 2.862 1.188 6.75 2.484 10.692 3.51Zm71.188.108c2.376-1.296 4.59-2.862 6.588-4.644-.918-.324-2.214-.864-3.402-1.512-1.35-.756-1.512-1.08-1.512-2.592v-19.44c0-6.048.108-12.042.27-18.036-2.7 1.404-5.238 2.916-7.668 4.644.216 5.994.27 11.988.27 18.036 0 6.048-.054 12.15-.27 18.198-5.454-1.242-10.8-2.916-14.688-4.644 3.294-8.37 4.59-20.844 3.51-29.268 1.566-1.188 3.078-2.43 4.536-3.78-3.456-1.512-7.56-2.862-11.556-3.996-2.322 1.566-4.482 3.24-6.588 5.184 3.456.972 6.966 2.106 10.044 3.348-1.242.756-2.484 1.512-3.726 2.376 1.35 8.262.432 22.032-2.322 31.536 4.05 1.836 9.45 3.51 15.012 4.59 1.836-1.242 3.564-2.538 5.238-3.942 1.89 1.566 4.482 3.24 6.264 3.942ZM37.3245 309.588c.864-1.026 1.674-2.214 2.484-3.51v.972c0 6.318-.432 12.636-1.188 18.09-4.644-.918-9.126-2.268-12.474-3.78-1.944 1.728-3.78 3.618-5.508 5.724 3.672 1.674 8.748 3.024 13.878 3.672 3.672-1.728 7.02-3.564 10.098-5.886 1.566-5.346 2.322-13.176 2.322-22.086 0-5.13-.324-10.368-1.026-15.12-4.482-1.566-10.53-2.97-16.902-3.78-2.322 1.566-4.482 3.294-6.588 5.184 5.346.756 10.584 1.89 14.688 3.078 1.458.432 1.728.702 1.944 2.214.324 2.916.594 5.994.702 9.072-3.78-.324-8.262-.486-11.826-.486-1.404 1.728-2.7 3.78-3.888 5.994 4.05 0 9.288.27 13.284.648Zm25.2252 21.168c2.322-1.566 4.482-3.24 6.588-5.184-3.132-.81-6.21-1.782-8.748-2.754 1.08-.648 2.16-1.35 3.186-2.106-.108-3.348-.216-6.642-.216-9.99 0-9.666 1.62-15.876 4.482-20.196 2.7.432 5.724 1.728 5.724 3.024v19.494c0 5.832-.108 11.772-.324 17.604 2.7-.81 5.238-1.728 7.668-2.754-.162-5.724-.27-11.448-.27-17.172 0-9.612 1.62-15.876 4.482-20.142 2.97.54 7.128 2.376 6.804 4.05-1.89 10.206-1.89 24.894-1.134 32.778 1.566 1.242 4.374 2.808 5.94 3.51 2.322-1.296 4.6983-2.97 6.6963-4.806-4.8063-2.268-5.0223-2.592-5.2923-4.59-.864-5.778-.972-17.172.81-27.378 1.1883-.864 2.7543-2.052 3.8883-3.132-3.8343-3.348-10.7463-6.534-15.9843-7.128-2.862 3.294-5.184 7.398-6.48 10.962.108-2.376.432-4.752.81-7.128-2.754-1.674-7.83-3.402-11.61-3.834-2.862 3.294-5.184 7.398-6.48 10.962 0-2.592.27-6.048.486-7.506-1.836-1.296-4.32-2.538-6.912-3.456-2.322 1.566-4.482 3.294-6.588 5.184 2.268.864 4.482 1.89 6.102 2.916 0 10.584-.054 21.276-.216 31.86-1.404 1.08-2.754 2.16-4.104 3.402 2.862 1.188 6.75 2.484 10.692 3.51Zm55.8523-46.926c-3.672 1.728-7.02 3.564-10.098 5.886-1.566 5.4-2.322 13.284-2.322 22.302 0 4.752.27 9.612.81 14.04 4.104 1.998 9.72 3.78 15.498 4.86 3.672-1.728 7.02-3.564 10.098-5.886 1.566-5.4 2.322-13.284 2.322-22.302 0-4.752-.27-9.612-.81-14.04-4.104-1.998-9.72-3.78-15.498-4.86Zm-5.292 23.922c0-6.372.432-12.744 1.188-18.198 3.996.918 7.776 2.16 10.908 3.402 1.35.594 1.566.918 1.782 2.43.378 3.726.594 7.668.594 11.61 0 6.372-.432 12.69-1.188 18.198-3.996-.972-7.776-2.16-10.908-3.402-1.35-.594-1.566-.918-1.782-2.43-.378-3.726-.594-7.668-.594-11.61Zm55.064 23.112c2.376-1.296 4.59-2.862 6.588-4.644-.918-.324-2.214-.864-3.402-1.512-1.35-.756-1.512-1.08-1.512-2.592v-19.44c0-6.048.108-12.042.27-18.036-2.7 1.404-5.238 2.916-7.668 4.644.216 5.994.27 11.988.27 18.036 0 6.048-.054 12.15-.27 18.198-5.454-1.242-10.8-2.916-14.688-4.644 3.294-8.37 4.59-20.844 3.51-29.268 1.566-1.188 3.078-2.43 4.536-3.78-3.456-1.512-7.56-2.862-11.556-3.996-2.322 1.566-4.482 3.24-6.588 5.184 3.456.972 6.966 2.106 10.044 3.348-1.242.756-2.484 1.512-3.726 2.376 1.35 8.262.432 22.032-2.322 31.536 4.05 1.836 9.45 3.51 15.012 4.59 1.836-1.242 3.564-2.538 5.238-3.942 1.89 1.566 4.482 3.24 6.264 3.942Zm-10.746 4.752c3.672.324 9.018 1.674 13.608 3.564.972-1.404 2.106-3.402 2.916-4.968-4.104-1.674-8.802-2.592-13.068-2.862-1.242 1.242-2.43 2.7-3.456 4.266Zm47.343-4.752c2.376-1.296 4.59-2.862 6.588-4.644-.918-.324-2.214-.864-3.402-1.512-1.35-.756-1.512-1.08-1.512-2.592v-19.44c0-6.048.108-12.042.27-18.036-2.7 1.404-5.238 2.916-7.668 4.644.216 5.994.27 11.988.27 18.036 0 6.048-.054 12.15-.27 18.198-5.454-1.242-10.8-2.916-14.688-4.644 3.294-8.37 4.59-20.844 3.51-29.268 1.566-1.188 3.078-2.43 4.536-3.78-3.456-1.512-7.56-2.862-11.556-3.996-2.322 1.566-4.482 3.24-6.588 5.184 3.456.972 6.966 2.106 10.044 3.348-1.242.756-2.484 1.512-3.726 2.376 1.35 8.262.432 22.032-2.322 31.536 4.05 1.836 9.45 3.51 15.012 4.59 1.836-1.242 3.564-2.538 5.238-3.942 1.89 1.566 4.482 3.24 6.264 3.942Zm31.468 0c2.376-1.296 4.59-2.862 6.588-4.644-.918-.324-2.214-.864-3.402-1.512-1.35-.756-1.512-1.08-1.512-2.592v-19.44c0-3.78.108-7.56.216-11.286 1.458-1.026 2.808-2.16 4.104-3.348-5.4-1.998-11.016-3.456-16.74-4.32-1.998 1.08-3.834 2.376-5.508 3.834-5.886 5.184-8.802 15.012-5.076 22.626 3.078 1.35 7.56 2.646 11.286 3.51-1.728 2.862-3.942 5.994-6.696 8.964-2.322-.702-4.806-1.728-6.48-2.646-.702 2.322-1.512 5.562-2.052 8.478 2.214 1.134 5.454 2.052 8.586 2.43 4.374-5.346 8.586-13.446 11.232-20.952 0 5.778-.108 11.61-.27 17.388 1.836 1.404 4.158 2.862 5.724 3.51Zm-14.958-26.676c-2.214-5.184-1.89-11.286.162-14.796 4.482.864 8.802 2.16 12.42 3.618-1.134.702-2.268 1.458-3.348 2.214.216 3.996.27 8.046.27 12.096v.756c-2.592-.54-5.022-1.188-7.128-1.782-1.404-.486-1.728-.756-2.376-2.106Zm33.696 26.568c2.322-1.566 4.482-3.24 6.588-5.184-3.132-.81-6.21-1.782-8.748-2.754 1.08-.648 2.16-1.35 3.186-2.106-.108-3.348-.216-6.642-.216-9.99 0-9.666 1.62-15.876 4.482-20.196 2.7.432 5.724 1.728 5.724 3.024v19.494c0 5.832-.108 11.772-.324 17.604 2.7-.81 5.238-1.728 7.668-2.754-.162-5.724-.27-11.448-.27-17.172 0-9.612 1.62-15.876 4.482-20.142 2.97.54 7.128 2.376 6.804 4.05-1.89 10.206-1.89 24.894-1.134 32.778 1.566 1.242 4.374 2.808 5.94 3.51 2.322-1.296 4.698-2.97 6.696-4.806-4.806-2.268-5.022-2.592-5.292-4.59-.864-5.778-.972-17.172.81-27.378 1.188-.864 2.754-2.052 3.888-3.132-3.834-3.348-10.746-6.534-15.984-7.128-2.862 3.294-5.184 7.398-6.48 10.962.108-2.376.432-4.752.81-7.128-2.754-1.674-7.83-3.402-11.61-3.834-2.862 3.294-5.184 7.398-6.48 10.962 0-2.592.27-6.048.486-7.506-1.836-1.296-4.32-2.538-6.912-3.456-2.322 1.566-4.482 3.294-6.588 5.184 2.268.864 4.482 1.89 6.102 2.916 0 10.584-.054 21.276-.216 31.86-1.404 1.08-2.754 2.16-4.104 3.402 2.862 1.188 6.75 2.484 10.692 3.51Zm71.189.108c2.376-1.296 4.59-2.862 6.588-4.644-.918-.324-2.214-.864-3.402-1.512-1.35-.756-1.512-1.08-1.512-2.592v-19.44c0-6.048.108-12.042.27-18.036-2.7 1.404-5.238 2.916-7.668 4.644.216 5.994.27 11.988.27 18.036 0 6.048-.054 12.15-.27 18.198-5.454-1.242-10.8-2.916-14.688-4.644 3.294-8.37 4.59-20.844 3.51-29.268 1.566-1.188 3.078-2.43 4.536-3.78-3.456-1.512-7.56-2.862-11.556-3.996-2.322 1.566-4.482 3.24-6.588 5.184 3.456.972 6.966 2.106 10.044 3.348-1.242.756-2.484 1.512-3.726 2.376 1.35 8.262.432 22.032-2.322 31.536 4.05 1.836 9.45 3.51 15.012 4.59 1.836-1.242 3.564-2.538 5.238-3.942 1.89 1.566 4.482 3.24 6.264 3.942ZM174.06 42.648c10.53-3.942 13.878-8.208 13.878-13.662 0-5.508-3.618-8.91-9.774-11.34 2.646-2.646 5.508-6.048 7.722-9.072.81-2.376 1.566-5.292 1.998-7.236-5.508-.648002-13.77-1.188002-19.386-1.2420012C167.148 1.932 165.582 5.172 164.772 7.494c4.59 0 10.746.216 15.282.54-2.538 4.914-5.832 10.314-8.802 14.85 7.722 1.458 10.962 5.022 10.962 8.532 0 2.43-.972 4.59-4.428 6.372-3.294-1.35-6.21-3.024-8.478-4.698-2.214 1.944-4.158 3.996-5.508 5.994 2.754 1.674 6.804 3.078 10.26 3.564Z"/>
</svg>
