<svg xmlns="http://www.w3.org/2000/svg" width="366" height="291" fill="none">
  <path fill="#E2D2BB" d="M26.8091 160.264c-2.684-.44-4.642-1.584-5.874-3.432-1.1-1.672-1.672-3.718-1.716-6.138h4.158c-.088 2.772.308 4.796 1.188 6.072.88 1.276 1.848 2.024 2.904 2.244 1.452.132 2.75-.132 3.894-.792 1.188-.704 2.178-1.694 2.97-2.97.792-1.32 1.386-2.838 1.782-4.554.44-1.716.66-3.542.66-5.478 0-1.232-.11-2.42-.33-3.564-.22-1.188-.572-2.244-1.056-3.168-.484-.924-1.122-1.65-1.914-2.178-.748-.572-1.672-.858-2.772-.858-.528 0-1.122.088-1.782.264-.616.132-1.276.374-1.98.726-.66.352-1.056.572-1.188.66-.572.352-1.144.638-1.716.858-.572.22-1.012.33-1.32.33-.44 0-.814-.154-1.122-.462-.22-.22-.33-.528-.33-.924 0-1.32 1.98-3.212 5.94-5.676 2.112-1.408 3.74-3.08 4.884-5.016 1.188-1.98 1.782-3.894 1.782-5.742 0-1.672-.55-2.992-1.65-3.96-1.056-.968-2.354-1.496-3.894-1.584-1.848.22-3.19 1.034-4.026 2.442-.792 1.408-1.188 3.168-1.188 5.28 0 .352.022.858.066 1.518.044.66.132 1.496.264 2.508l-4.29-2.31c0-.044-.022-.132-.066-.264v-.33c-.044-.176-.066-.374-.066-.594v-.462c0-1.188.242-2.332.726-3.432s1.144-2.068 1.98-2.904c.88-.836 1.87-1.496 2.97-1.98 1.144-.484 2.354-.726 3.63-.726.616 0 1.32.066 2.112.198.836.088 1.562.242 2.178.462 1.76.66 3.146 1.606 4.158 2.838 1.056 1.232 1.584 2.706 1.584 4.422-.044 1.32-.264 2.442-.66 3.366-.352.88-.836 1.672-1.452 2.376s-1.364 1.32-2.244 1.848c-.88.528-1.87 1.078-2.97 1.65-.484.264-.946.506-1.386.726-.396.22-.748.44-1.056.66-1.012.616-1.87 1.166-2.574 1.65-.704.44-1.078.638-1.122.594.264.528.44.792.528.792.132 0 .33-.044.594-.132l.924-.264c.352-.088.682-.176.99-.264.352-.132.594-.22.726-.264.792-.264 1.716-.396 2.772-.396 1.496 0 2.86.308 4.092.924 1.276.572 2.354 1.386 3.234 2.442.924 1.012 1.628 2.222 2.112 3.63.528 1.408.792 2.926.792 4.554 0 2.068-.352 4.048-1.056 5.94-.66 1.892-1.628 3.542-2.904 4.95-1.276 1.364-2.838 2.42-4.686 3.168-1.848.704-3.916.946-6.204.726ZM61.5602 113.8h4.884V160h-4.884v-21.846l-11.55-.066V160h-4.884v-46.2h4.884v22.704l11.55-.066V113.8Zm25.146-.132 4.884.132V160h-4.884v-20.79c-.352-.264-.77-.484-1.254-.66-.44-.176-.836-.264-1.188-.264-.836 0-1.518.264-2.046.792-.528.528-.792 1.232-.792 2.112 0 .484.286 1.496.858 3.036l-4.95-2.97c.748 2.86 1.122 5.434 1.122 7.722 0 3.476-.836 7.15-2.508 11.022h-6.6c1.848-2.288 3.322-4.818 4.422-7.59 1.1-2.772 1.65-5.698 1.65-8.778 0-3.96-.946-7.986-2.838-12.078-1.54-3.3-2.31-6.182-2.31-8.646 0-3.036 1.012-5.324 3.036-6.864 2.068-1.584 5.17-2.376 9.306-2.376h4.092Zm-12.672 13.002c0 1.54.242 3.344.726 5.412.484 2.024 1.166 4.422 2.046 7.194.088.308.154.594.198.858l.264.792c.088-1.54.616-2.75 1.584-3.63 1.012-.924 2.222-1.386 3.63-1.386 1.54 0 2.948.462 4.224 1.386v-22.044c-2.156 0-4.158.33-6.006.99-1.848.616-3.344 1.716-4.488 3.3-1.452 1.98-2.178 4.356-2.178 7.128Zm28.0108 1.584v.726-.726ZM118.017 160h-4.884v-8.844c-.044-1.584-.088-2.904-.132-3.96 0-1.1-.044-2.002-.132-2.706-.044-1.276-.352-2.53-.924-3.762-.616-1.32-1.54-2.53-2.772-3.63-.176-.132-.352-.286-.528-.462-.132-.176-.286-.33-.462-.462-1.452-1.32-2.618-2.53-3.498-3.63-.88-1.1-1.694-2.42-2.442-3.96-.132-.176-.198-.286-.198-.33v-.132.132c-.088-.088-.132.044-.132.396.044.308.088.418.132.33V160h-4.8835v-46.2h4.8835v2.904c.264 4.268.77 7.634 1.518 10.098.748 2.42 1.562 4.136 2.442 5.148.264.352.594.66.99.924 1.056-.572 1.914-1.232 2.574-1.98.66-.792 1.188-1.672 1.584-2.64.396-.968.682-2.002.858-3.102.22-1.144.396-2.376.528-3.696.132-1.672.264-3.08.396-4.224.176-1.144.484-2.288.924-3.432h6.996c-1.276.748-2.2 1.672-2.772 2.772-.528 1.1-.99 2.574-1.386 4.422-.528 2.288-1.1 4.202-1.716 5.742-.572 1.54-1.408 2.992-2.508 4.356-.616.66-1.254 1.232-1.914 1.716-.616.484-1.364.902-2.244 1.254.352.264.704.55 1.056.858.352.308.726.594 1.122.858 1.98 1.54 3.586 3.256 4.818 5.148 1.232 1.892 1.98 3.784 2.244 5.676.308 1.672.462 4.312.462 7.92V160Zm30.511-6.468c-2.728 4.356-5.918 6.534-9.57 6.534-2.552.088-4.84-.594-6.864-2.046-1.98-1.496-3.652-3.476-5.016-5.94-1.364-2.464-2.398-5.258-3.102-8.382-.66-3.168-.968-6.38-.924-9.636.132-2.2.418-4.51.858-6.93.44-2.464 1.166-4.708 2.178-6.732s2.354-3.696 4.026-5.016c1.716-1.32 3.894-1.98 6.534-1.98 2.948 0 5.566 1.078 7.854 3.234 2.332 2.112 4.18 4.95 5.544 8.514.792 2.068 1.342 4.334 1.65 6.798.308 2.464.374 4.972.198 7.524-.132 2.508-.506 4.972-1.122 7.392-.572 2.42-1.342 4.642-2.31 6.666h.066Zm-7.458 3.168c1.716.044 3.08-.418 4.092-1.386 1.056-.968 1.848-2.156 2.376-3.564.528-1.452.858-2.97.99-4.554.176-1.628.264-3.08.264-4.356 0-2.684-.33-5.346-.99-7.986-.616-2.64-1.452-5.28-2.508-7.92-1.188-2.86-2.618-5.302-4.29-7.326-1.628-2.024-3.432-3.212-5.412-3.564-1.496-.264-2.772-.176-3.828.264-1.012.44-1.87 1.1-2.574 1.98-.66.88-1.166 1.958-1.518 3.234-.352 1.232-.616 2.53-.792 3.894-.132 1.364-.198 2.728-.198 4.092.044 1.364.11 2.596.198 3.696.176 2.816.66 5.654 1.452 8.514.792 2.816 1.804 5.346 3.036 7.59 1.276 2.244 2.728 4.07 4.356 5.478 1.628 1.364 3.41 2.002 5.346 1.914Zm44.559-42.9V160h-4.884v-34.65c-.616 1.144-1.298 2.31-2.046 3.498-.704 1.144-1.452 2.354-2.244 3.63-1.232 1.98-2.288 3.762-3.168 5.346-.88 1.54-1.584 2.97-2.112 4.29l.066-.066c-.22.792-.484 1.672-.792 2.64-.264.924-.506 1.76-.726 2.508h-1.32l-11.022-29.898.198 18.348c.088 2.508.198 4.708.33 6.6.132 1.892.264 3.454.396 4.686.44 2.772 1.034 5.324 1.782 7.656.792 2.288 1.562 4.092 2.31 5.412h-6.336v-46.002h.132l-.066-.198h5.676l8.976 25.542.99-1.98c.396-.748.858-1.562 1.386-2.442.88-1.584 1.694-3.168 2.442-4.752.792-1.584 1.474-3.014 2.046-4.29.528-1.408 1.056-3.124 1.584-5.148.528-2.068 1.034-4.378 1.518-6.93h4.884Zm28.895 30.822v10.494c-.308.396-.748.88-1.32 1.452-.572.528-1.276 1.056-2.112 1.584-.792.528-1.738.99-2.838 1.386-1.056.396-2.266.594-3.63.594v-.066c-3.828-.132-6.974-1.672-9.438-4.62-1.232-1.496-2.288-3.234-3.168-5.214-.88-1.98-1.562-4.026-2.046-6.138-.572-2.464-.858-5.192-.858-8.184 0-2.816.33-5.632.99-8.448.66-2.816 1.672-5.302 3.036-7.458 1.408-2.156 3.168-3.806 5.28-4.95 2.156-1.188 4.708-1.54 7.656-1.056 1.848.308 3.498.902 4.95 1.782 1.496.836 2.42 1.826 2.772 2.97l.132 8.514-1.056.066c-.044-1.628-.506-3.278-1.386-4.95-.836-1.716-1.914-3.146-3.234-4.29-1.32-1.188-2.772-1.98-4.356-2.376-1.54-.396-3.058-.132-4.554.792-.924.572-1.694 1.408-2.31 2.508-.616 1.056-1.122 2.266-1.518 3.63-.352 1.364-.616 2.816-.792 4.356-.176 1.496-.264 2.97-.264 4.422 0 1.98.088 3.916.264 5.808.176 1.892.44 3.828.792 5.808v-.066c.836 4.136 2.112 7.81 3.828 11.022 1.452 2.816 3.366 4.312 5.742 4.488 1.584-.22 2.86-.726 3.828-1.518s1.738-1.804 2.31-3.036c.616-1.232 1.078-2.64 1.386-4.224.308-1.584.594-3.3.858-5.148l1.056.066Zm4.655-30.822h23.034l2.178 8.778h-1.518c-.528-1.408-1.056-2.552-1.584-3.432-.484-.88-1.078-1.584-1.782-2.112-.66-.528-1.496-.902-2.508-1.122-1.012-.264-2.266-.462-3.762-.594V160h-4.884v-44.748c-1.584.132-2.882.33-3.894.594-1.012.22-1.87.594-2.574 1.122-.704.484-1.298 1.188-1.782 2.112-.484.88-.99 2.046-1.518 3.498h-1.584l2.178-8.778Zm52.093 35.706c0 1.408-.264 2.75-.792 4.026-.484 1.276-1.188 2.398-2.112 3.366-.88.968-1.936 1.738-3.168 2.31-1.188.528-2.508.792-3.96.792-1.76 0-3.322-.418-4.686-1.254-1.364-.88-2.42-1.958-3.168-3.234v-2.376c1.012 1.54 2.068 2.684 3.168 3.432 1.144.748 2.244 1.122 3.3 1.122.396 0 1.078-.11 2.046-.33 1.408-.396 2.486-1.276 3.234-2.64.748-1.408 1.122-3.036 1.122-4.884 0-1.1-.088-1.936-.264-2.508-.616-2.684-1.584-5.016-2.904-6.996-1.276-2.024-3.014-4.092-5.214-6.204-.616-.572-1.166-1.078-1.65-1.518-.44-.44-.858-.88-1.254-1.32l-1.056-1.32c-.308-.44-.638-.968-.99-1.584V160h-4.884v-46.2h4.488c.616-.088 1.298-.11 2.046-.066.792.044 1.452.066 1.98.066 3.608 0 6.468.594 8.58 1.782 2.112 1.144 3.366 3.102 3.762 5.874v-.066c.044.132.066.308.066.528v.726c0 2.464-.88 4.84-2.64 7.128-.792 1.012-1.65 1.914-2.574 2.706-.88.748-1.826 1.43-2.838 2.046.22.22.528.462.924.726.44.264.968.594 1.584.99h-.066c1.848 1.232 3.432 2.772 4.752 4.62 1.364 1.716 2.288 3.564 2.772 5.544.264 1.012.396 2.046.396 3.102Zm-12.342-16.434c.088.088.198.176.33.264.176.088.33.176.462.264 1.1-.88 2.09-2.024 2.97-3.432 1.1-1.892 1.65-3.938 1.65-6.138 0-2.156-.572-4.048-1.716-5.676-1.1-1.628-2.64-2.618-4.62-2.97-.88-.132-1.738-.198-2.574-.198h-1.056c-.484-.044-.968-.044-1.452 0v.528c.044 2.464.154 4.576.33 6.336.176 1.716.462 3.234.858 4.554.44 1.276 1.034 2.42 1.782 3.432.792 1.012 1.804 2.024 3.036 3.036Zm41.32 20.46c-2.728 4.356-5.918 6.534-9.57 6.534-2.552.088-4.84-.594-6.864-2.046-1.98-1.496-3.652-3.476-5.016-5.94-1.364-2.464-2.398-5.258-3.102-8.382-.66-3.168-.968-6.38-.924-9.636.132-2.2.418-4.51.858-6.93.44-2.464 1.166-4.708 2.178-6.732s2.354-3.696 4.026-5.016c1.716-1.32 3.894-1.98 6.534-1.98 2.948 0 5.566 1.078 7.854 3.234 2.332 2.112 4.18 4.95 5.544 8.514.792 2.068 1.342 4.334 1.65 6.798.308 2.464.374 4.972.198 7.524-.132 2.508-.506 4.972-1.122 7.392-.572 2.42-1.342 4.642-2.31 6.666h.066Zm-7.458 3.168c1.716.044 3.08-.418 4.092-1.386 1.056-.968 1.848-2.156 2.376-3.564.528-1.452.858-2.97.99-4.554.176-1.628.264-3.08.264-4.356 0-2.684-.33-5.346-.99-7.986-.616-2.64-1.452-5.28-2.508-7.92-1.188-2.86-2.618-5.302-4.29-7.326-1.628-2.024-3.432-3.212-5.412-3.564-1.496-.264-2.772-.176-3.828.264-1.012.44-1.87 1.1-2.574 1.98-.66.88-1.166 1.958-1.518 3.234-.352 1.232-.616 2.53-.792 3.894-.132 1.364-.198 2.728-.198 4.092.044 1.364.11 2.596.198 3.696.176 2.816.66 5.654 1.452 8.514.792 2.816 1.804 5.346 3.036 7.59 1.276 2.244 2.728 4.07 4.356 5.478 1.628 1.364 3.41 2.002 5.346 1.914Zm53.152-12.078v10.494c-.308.396-.748.88-1.32 1.452-.572.528-1.276 1.056-2.112 1.584-.792.528-1.738.99-2.838 1.386-1.056.396-2.266.594-3.63.594v-.066c-3.828-.132-6.974-1.672-9.438-4.62-1.232-1.496-2.288-3.234-3.168-5.214-.88-1.98-1.562-4.026-2.046-6.138-.572-2.464-.858-5.192-.858-8.184 0-2.816.33-5.632.99-8.448.66-2.816 1.672-5.302 3.036-7.458 1.408-2.156 3.168-3.806 5.28-4.95 2.156-1.188 4.708-1.54 7.656-1.056 1.848.308 3.498.902 4.95 1.782 1.496.836 2.42 1.826 2.772 2.97l.132 8.514-1.056.066c-.044-1.628-.506-3.278-1.386-4.95-.836-1.716-1.914-3.146-3.234-4.29-1.32-1.188-2.772-1.98-4.356-2.376-1.54-.396-3.058-.132-4.554.792-.924.572-1.694 1.408-2.31 2.508-.616 1.056-1.122 2.266-1.518 3.63-.352 1.364-.616 2.816-.792 4.356-.176 1.496-.264 2.97-.264 4.422 0 1.98.088 3.916.264 5.808.176 1.892.44 3.828.792 5.808v-.066c.836 4.136 2.112 7.81 3.828 11.022 1.452 2.816 3.366 4.312 5.742 4.488 1.584-.22 2.86-.726 3.828-1.518s1.738-1.804 2.31-3.036c.616-1.232 1.078-2.64 1.386-4.224.308-1.584.594-3.3.858-5.148l1.056.066ZM21.4391 172.734V219h-4.884l.066-44.616-11.61598-.066V219H.121117v-46.266H21.4391ZM25.7796 219v-46.2h4.488c.616-.088 1.298-.11 2.046-.066h1.98c8.228 0 12.342 3.036 12.342 9.108 0 1.452-.33 2.904-.99 4.356-.66 1.408-1.386 2.64-2.1779 3.696-.2201.308-.5061.66-.8581 1.056-.308.396-.638.814-.99 1.254-.308.352-.616.726-.924 1.122-.308.352-.638.748-.99 1.188l-1.782 2.046c-1.364 1.584-2.662 3.08-3.894 4.488-1.232 1.364-2.354 2.882-3.366 4.554V219h-4.884Zm9.834-22.704c.22-.22.396-.44.528-.66l.396-.66c.44-.616.77-1.1.99-1.452.22-.352.374-.572.462-.66 1.188-1.716 2.09-3.432 2.706-5.148.66-1.716.99-3.3.99-4.752 0-.528-.022-.858-.066-.99-.176-1.628-.55-2.97-1.122-4.026-.528-1.056-1.298-1.87-2.31-2.442-.88-.484-2.024-.836-3.432-1.056-1.408-.22-2.772-.286-4.092-.198v28.314c.572-.792 1.32-1.738 2.244-2.838.924-1.144 1.826-2.288 2.706-3.432Zm39.9852 16.236c-2.728 4.356-5.918 6.534-9.57 6.534-2.552.088-4.84-.594-6.864-2.046-1.98-1.496-3.652-3.476-5.016-5.94-1.364-2.464-2.398-5.258-3.102-8.382-.66-3.168-.968-6.38-.924-9.636.132-2.2.418-4.51.858-6.93.44-2.464 1.166-4.708 2.178-6.732s2.354-3.696 4.026-5.016c1.716-1.32 3.894-1.98 6.534-1.98 2.948 0 5.566 1.078 7.854 3.234 2.332 2.112 4.18 4.95 5.544 8.514.792 2.068 1.342 4.334 1.65 6.798.308 2.464.374 4.972.198 7.524-.132 2.508-.506 4.972-1.122 7.392-.572 2.42-1.342 4.642-2.31 6.666h.066Zm-7.458 3.168c1.716.044 3.08-.418 4.092-1.386 1.056-.968 1.848-2.156 2.376-3.564.528-1.452.858-2.97.99-4.554.176-1.628.264-3.08.264-4.356 0-2.684-.33-5.346-.99-7.986-.616-2.64-1.452-5.28-2.508-7.92-1.188-2.86-2.618-5.302-4.29-7.326-1.628-2.024-3.432-3.212-5.412-3.564-1.496-.264-2.772-.176-3.828.264-1.012.44-1.87 1.1-2.574 1.98-.66.88-1.166 1.958-1.518 3.234-.352 1.232-.616 2.53-.792 3.894-.132 1.364-.198 2.728-.198 4.092.044 1.364.11 2.596.198 3.696.176 2.816.66 5.654 1.452 8.514.792 2.816 1.804 5.346 3.036 7.59 1.276 2.244 2.728 4.07 4.356 5.478 1.628 1.364 3.41 2.002 5.346 1.914Zm39.9392-12.078v10.494c-.308.396-.748.88-1.32 1.452-.572.528-1.276 1.056-2.112 1.584-.792.528-1.738.99-2.838 1.386-1.056.396-2.2659.594-3.6299.594v-.066c-3.828-.132-6.974-1.672-9.438-4.62-1.232-1.496-2.288-3.234-3.168-5.214-.88-1.98-1.562-4.026-2.046-6.138-.572-2.464-.858-5.192-.858-8.184 0-2.816.33-5.632.99-8.448.66-2.816 1.672-5.302 3.036-7.458 1.408-2.156 3.168-3.806 5.28-4.95 2.156-1.188 4.708-1.54 7.656-1.056 1.8479.308 3.4979.902 4.9499 1.782 1.496.836 2.42 1.826 2.772 2.97l.132 8.514-1.056.066c-.044-1.628-.506-3.278-1.386-4.95-.836-1.716-1.914-3.146-3.234-4.29-1.32-1.188-2.7719-1.98-4.3559-2.376-1.54-.396-3.058-.132-4.554.792-.924.572-1.694 1.408-2.31 2.508-.616 1.056-1.122 2.266-1.518 3.63-.352 1.364-.616 2.816-.792 4.356-.176 1.496-.264 2.97-.264 4.422 0 1.98.088 3.916.264 5.808.176 1.892.44 3.828.792 5.808v-.066c.836 4.136 2.112 7.81 3.828 11.022 1.452 2.816 3.366 4.312 5.742 4.488 1.5839-.22 2.8599-.726 3.8279-1.518s1.738-1.804 2.31-3.036c.616-1.232 1.078-2.64 1.386-4.224.308-1.584.594-3.3.858-5.148l1.056.066Zm4.655-30.822h23.034l2.178 8.778h-1.518c-.528-1.408-1.056-2.552-1.584-3.432-.484-.88-1.078-1.584-1.782-2.112-.66-.528-1.496-.902-2.508-1.122-1.012-.264-2.266-.462-3.762-.594V219h-4.884v-44.748c-1.584.132-2.882.33-3.894.594-1.012.22-1.87.594-2.574 1.122-.704.484-1.298 1.188-1.782 2.112-.484.88-.99 2.046-1.518 3.498h-1.584l2.178-8.778ZM141.86 219v-46.2h4.488c.616-.088 1.298-.11 2.046-.066h1.98c8.228 0 12.342 3.036 12.342 9.108 0 1.452-.33 2.904-.99 4.356-.66 1.408-1.386 2.64-2.178 3.696-.22.308-.506.66-.858 1.056-.308.396-.638.814-.99 1.254-.308.352-.616.726-.924 1.122-.308.352-.638.748-.99 1.188l-1.782 2.046c-1.364 1.584-2.662 3.08-3.894 4.488-1.232 1.364-2.354 2.882-3.366 4.554V219h-4.884Zm9.834-22.704c.22-.22.396-.44.528-.66l.396-.66c.44-.616.77-1.1.99-1.452.22-.352.374-.572.462-.66 1.188-1.716 2.09-3.432 2.706-5.148.66-1.716.99-3.3.99-4.752 0-.528-.022-.858-.066-.99-.176-1.628-.55-2.97-1.122-4.026-.528-1.056-1.298-1.87-2.31-2.442-.88-.484-2.024-.836-3.432-1.056-1.408-.22-2.772-.286-4.092-.198v28.314c.572-.792 1.32-1.738 2.244-2.838.924-1.144 1.826-2.288 2.706-3.432Zm31.273-23.628 4.884.132V219h-4.884v-20.79c-.352-.264-.77-.484-1.254-.66-.44-.176-.836-.264-1.188-.264-.836 0-1.518.264-2.046.792-.528.528-.792 1.232-.792 2.112 0 .484.286 1.496.858 3.036l-4.95-2.97c.748 2.86 1.122 5.434 1.122 7.722 0 3.476-.836 7.15-2.508 11.022h-6.6c1.848-2.288 3.322-4.818 4.422-7.59 1.1-2.772 1.65-5.698 1.65-8.778 0-3.96-.946-7.986-2.838-12.078-1.54-3.3-2.31-6.182-2.31-8.646 0-3.036 1.012-5.324 3.036-6.864 2.068-1.584 5.17-2.376 9.306-2.376h4.092Zm-12.672 13.002c0 1.54.242 3.344.726 5.412.484 2.024 1.166 4.422 2.046 7.194.088.308.154.594.198.858l.264.792c.088-1.54.616-2.75 1.584-3.63 1.012-.924 2.222-1.386 3.63-1.386 1.54 0 2.948.462 4.224 1.386v-22.044c-2.156 0-4.158.33-6.006.99-1.848.616-3.344 1.716-4.488 3.3-1.452 1.98-2.178 4.356-2.178 7.128Zm38.637-12.87h4.884V219h-4.884v-21.846l-11.55-.066V219h-4.884v-46.2h4.884v22.704l11.55-.066V172.8Zm33.726 30.822v10.494c-.308.396-.748.88-1.32 1.452-.572.528-1.276 1.056-2.112 1.584-.792.528-1.738.99-2.838 1.386-1.056.396-2.266.594-3.63.594v-.066c-3.828-.132-6.974-1.672-9.438-4.62-1.232-1.496-2.288-3.234-3.168-5.214-.88-1.98-1.562-4.026-2.046-6.138-.572-2.464-.858-5.192-.858-8.184 0-2.816.33-5.632.99-8.448.66-2.816 1.672-5.302 3.036-7.458 1.408-2.156 3.168-3.806 5.28-4.95 2.156-1.188 4.708-1.54 7.656-1.056 1.848.308 3.498.902 4.95 1.782 1.496.836 2.42 1.826 2.772 2.97l.132 8.514-1.056.066c-.044-1.628-.506-3.278-1.386-4.95-.836-1.716-1.914-3.146-3.234-4.29-1.32-1.188-2.772-1.98-4.356-2.376-1.54-.396-3.058-.132-4.554.792-.924.572-1.694 1.408-2.31 2.508-.616 1.056-1.122 2.266-1.518 3.63-.352 1.364-.616 2.816-.792 4.356-.176 1.496-.264 2.97-.264 4.422 0 1.98.088 3.916.264 5.808.176 1.892.44 3.828.792 5.808v-.066c.836 4.136 2.112 7.81 3.828 11.022 1.452 2.816 3.366 4.312 5.742 4.488 1.584-.22 2.86-.726 3.828-1.518s1.738-1.804 2.31-3.036c.616-1.232 1.078-2.64 1.386-4.224.308-1.584.594-3.3.858-5.148l1.056.066Zm4.655-30.822h23.034l2.178 8.778h-1.518c-.528-1.408-1.056-2.552-1.584-3.432-.484-.88-1.078-1.584-1.782-2.112-.66-.528-1.496-.902-2.508-1.122-1.012-.264-2.266-.462-3.762-.594V219h-4.884v-44.748c-1.584.132-2.882.33-3.894.594-1.012.22-1.87.594-2.574 1.122-.704.484-1.298 1.188-1.782 2.112-.484.88-.99 2.046-1.518 3.498h-1.584l2.178-8.778Zm52.093 35.706c0 1.408-.264 2.75-.792 4.026-.484 1.276-1.188 2.398-2.112 3.366-.88.968-1.936 1.738-3.168 2.31-1.188.528-2.508.792-3.96.792-1.76 0-3.322-.418-4.686-1.254-1.364-.88-2.42-1.958-3.168-3.234v-2.376c1.012 1.54 2.068 2.684 3.168 3.432 1.144.748 2.244 1.122 3.3 1.122.396 0 1.078-.11 2.046-.33 1.408-.396 2.486-1.276 3.234-2.64.748-1.408 1.122-3.036 1.122-4.884 0-1.1-.088-1.936-.264-2.508-.616-2.684-1.584-5.016-2.904-6.996-1.276-2.024-3.014-4.092-5.214-6.204-.616-.572-1.166-1.078-1.65-1.518-.44-.44-.858-.88-1.254-1.32l-1.056-1.32c-.308-.44-.638-.968-.99-1.584V219h-4.884v-46.2h4.488c.616-.088 1.298-.11 2.046-.066.792.044 1.452.066 1.98.066 3.608 0 6.468.594 8.58 1.782 2.112 1.144 3.366 3.102 3.762 5.874v-.066c.044.132.066.308.066.528v.726c0 2.464-.88 4.84-2.64 7.128-.792 1.012-1.65 1.914-2.574 2.706-.88.748-1.826 1.43-2.838 2.046.22.22.528.462.924.726.44.264.968.594 1.584.99h-.066c1.848 1.232 3.432 2.772 4.752 4.62 1.364 1.716 2.288 3.564 2.772 5.544.264 1.012.396 2.046.396 3.102Zm-12.342-16.434c.088.088.198.176.33.264.176.088.33.176.462.264 1.1-.88 2.09-2.024 2.97-3.432 1.1-1.892 1.65-3.938 1.65-6.138 0-2.156-.572-4.048-1.716-5.676-1.1-1.628-2.64-2.618-4.62-2.97-.88-.132-1.738-.198-2.574-.198h-1.056c-.484-.044-.968-.044-1.452 0v.528c.044 2.464.154 4.576.33 6.336.176 1.716.462 3.234.858 4.554.44 1.276 1.034 2.42 1.782 3.432.792 1.012 1.804 2.024 3.036 3.036Zm41.32 20.46c-2.728 4.356-5.918 6.534-9.57 6.534-2.552.088-4.84-.594-6.864-2.046-1.98-1.496-3.652-3.476-5.016-5.94-1.364-2.464-2.398-5.258-3.102-8.382-.66-3.168-.968-6.38-.924-9.636.132-2.2.418-4.51.858-6.93.44-2.464 1.166-4.708 2.178-6.732s2.354-3.696 4.026-5.016c1.716-1.32 3.894-1.98 6.534-1.98 2.948 0 5.566 1.078 7.854 3.234 2.332 2.112 4.18 4.95 5.544 8.514.792 2.068 1.342 4.334 1.65 6.798.308 2.464.374 4.972.198 7.524-.132 2.508-.506 4.972-1.122 7.392-.572 2.42-1.342 4.642-2.31 6.666h.066Zm-7.458 3.168c1.716.044 3.08-.418 4.092-1.386 1.056-.968 1.848-2.156 2.376-3.564.528-1.452.858-2.97.99-4.554.176-1.628.264-3.08.264-4.356 0-2.684-.33-5.346-.99-7.986-.616-2.64-1.452-5.28-2.508-7.92-1.188-2.86-2.618-5.302-4.29-7.326-1.628-2.024-3.432-3.212-5.412-3.564-1.496-.264-2.772-.176-3.828.264-1.012.44-1.87 1.1-2.574 1.98-.66.88-1.166 1.958-1.518 3.234-.352 1.232-.616 2.53-.792 3.894-.132 1.364-.198 2.728-.198 4.092.044 1.364.11 2.596.198 3.696.176 2.816.66 5.654 1.452 8.514.792 2.816 1.804 5.346 3.036 7.59 1.276 2.244 2.728 4.07 4.356 5.478 1.628 1.364 3.41 2.002 5.346 1.914Zm44.559-42.9V219h-4.884v-34.65c-.616 1.144-1.298 2.31-2.046 3.498-.704 1.144-1.452 2.354-2.244 3.63-1.232 1.98-2.288 3.762-3.168 5.346-.88 1.54-1.584 2.97-2.112 4.29l.066-.066c-.22.792-.484 1.672-.792 2.64-.264.924-.506 1.76-.726 2.508h-1.32l-11.022-29.898.198 18.348c.088 2.508.198 4.708.33 6.6.132 1.892.264 3.454.396 4.686.44 2.772 1.034 5.324 1.782 7.656.792 2.288 1.562 4.092 2.31 5.412h-6.336v-46.002h.132l-.066-.198h5.676l8.976 25.542.99-1.98c.396-.748.858-1.562 1.386-2.442.88-1.584 1.694-3.168 2.442-4.752.792-1.584 1.474-3.014 2.046-4.29.528-1.408 1.056-3.124 1.584-5.148.528-2.068 1.034-4.378 1.518-6.93h4.884Zm-252.188 94.706c0 1.408-.264 2.75-.792 4.026-.484 1.276-1.188 2.398-2.112 3.366-.88.968-1.936 1.738-3.168 2.31-1.188.528-2.508.792-3.96.792-1.76 0-3.3215-.418-4.6855-1.254-1.364-.88-2.42-1.958-3.168-3.234v-2.376c1.012 1.54 2.068 2.684 3.168 3.432 1.144.748 2.2435 1.122 3.2995 1.122.396 0 1.078-.11 2.046-.33 1.408-.396 2.486-1.276 3.234-2.64.748-1.408 1.122-3.036 1.122-4.884 0-1.1-.088-1.936-.264-2.508-.616-2.684-1.584-5.016-2.904-6.996-1.276-2.024-3.014-4.092-5.2135-6.204-.616-.572-1.166-1.078-1.65-1.518-.44-.44-.858-.88-1.254-1.32l-1.056-1.32c-.308-.44-.638-.968-.99-1.584V278h-4.884v-46.2h4.488c.616-.088 1.298-.11 2.046-.066.792.044 1.452.066 1.98.066 3.6075 0 6.4675.594 8.5795 1.782 2.112 1.144 3.366 3.102 3.762 5.874v-.066c.044.132.066.308.066.528v.726c0 2.464-.88 4.84-2.64 7.128-.792 1.012-1.65 1.914-2.574 2.706-.88.748-1.826 1.43-2.838 2.046.22.22.528.462.924.726.44.264.968.594 1.584.99h-.066c1.848 1.232 3.432 2.772 4.752 4.62 1.364 1.716 2.288 3.564 2.772 5.544.264 1.012.396 2.046.396 3.102Zm-12.342-16.434c.088.088.198.176.33.264.176.088.33.176.462.264 1.1-.88 2.09-2.024 2.97-3.432 1.1-1.892 1.65-3.938 1.65-6.138 0-2.156-.572-4.048-1.716-5.676-1.1-1.628-2.64-2.618-4.62-2.97-.8795-.132-1.7375-.198-2.5735-.198h-1.056c-.484-.044-.968-.044-1.452 0v.528c.044 2.464.154 4.576.33 6.336.176 1.716.462 3.234.858 4.554.44 1.276 1.034 2.42 1.782 3.432.792 1.012 1.804 2.024 3.0355 3.036Zm41.321 20.46c-2.728 4.356-5.918 6.534-9.57 6.534-2.552.088-4.84-.594-6.864-2.046-1.98-1.496-3.652-3.476-5.016-5.94-1.364-2.464-2.398-5.258-3.102-8.382-.66-3.168-.968-6.38-.924-9.636.132-2.2.418-4.51.858-6.93.44-2.464 1.166-4.708 2.178-6.732s2.354-3.696 4.026-5.016c1.716-1.32 3.894-1.98 6.534-1.98 2.948 0 5.566 1.078 7.854 3.234 2.332 2.112 4.18 4.95 5.544 8.514.792 2.068 1.342 4.334 1.65 6.798.308 2.464.374 4.972.198 7.524-.132 2.508-.506 4.972-1.122 7.392-.572 2.42-1.342 4.642-2.31 6.666h.066Zm-7.458 3.168c1.716.044 3.08-.418 4.092-1.386 1.056-.968 1.848-2.156 2.376-3.564.528-1.452.858-2.97.99-4.554.176-1.628.264-3.08.264-4.356 0-2.684-.33-5.346-.99-7.986-.616-2.64-1.452-5.28-2.508-7.92-1.188-2.86-2.618-5.302-4.29-7.326-1.628-2.024-3.432-3.212-5.412-3.564-1.496-.264-2.772-.176-3.828.264-1.012.44-1.87 1.1-2.574 1.98-.66.88-1.166 1.958-1.518 3.234-.352 1.232-.616 2.53-.792 3.894-.132 1.364-.198 2.728-.198 4.092.044 1.364.11 2.596.198 3.696.176 2.816.66 5.654 1.452 8.514.792 2.816 1.804 5.346 3.036 7.59 1.276 2.244 2.728 4.07 4.356 5.478 1.628 1.364 3.41 2.002 5.346 1.914Zm20.337-28.446v.726-.726ZM171.127 278h-4.884v-8.844c-.044-1.584-.088-2.904-.132-3.96 0-1.1-.044-2.002-.132-2.706-.044-1.276-.352-2.53-.924-3.762-.616-1.32-1.54-2.53-2.772-3.63-.176-.132-.352-.286-.528-.462-.132-.176-.286-.33-.462-.462-1.452-1.32-2.618-2.53-3.498-3.63-.88-1.1-1.694-2.42-2.442-3.96-.132-.176-.198-.286-.198-.33v-.132.132c-.088-.088-.132.044-.132.396.044.308.088.418.132.33V278h-4.884v-46.2h4.884v2.904c.264 4.268.77 7.634 1.518 10.098.748 2.42 1.562 4.136 2.442 5.148.264.352.594.66.99.924 1.056-.572 1.914-1.232 2.574-1.98.66-.792 1.188-1.672 1.584-2.64.396-.968.682-2.002.858-3.102.22-1.144.396-2.376.528-3.696.132-1.672.264-3.08.396-4.224.176-1.144.484-2.288.924-3.432h6.996c-1.276.748-2.2 1.672-2.772 2.772-.528 1.1-.99 2.574-1.386 4.422-.528 2.288-1.1 4.202-1.716 5.742-.572 1.54-1.408 2.992-2.508 4.356-.616.66-1.254 1.232-1.914 1.716-.616.484-1.364.902-2.244 1.254.352.264.704.55 1.056.858.352.308.726.594 1.122.858 1.98 1.54 3.586 3.256 4.818 5.148 1.232 1.892 1.98 3.784 2.244 5.676.308 1.672.462 4.312.462 7.92V278Zm5.892 0v-46.2h4.488c.616-.088 1.298-.11 2.046-.066h1.98c8.228 0 12.342 3.036 12.342 9.108 0 1.452-.33 2.904-.99 4.356-.66 1.408-1.386 2.64-2.178 3.696-.22.308-.506.66-.858 1.056-.308.396-.638.814-.99 1.254-.308.352-.616.726-.924 1.122-.308.352-.638.748-.99 1.188l-1.782 2.046c-1.364 1.584-2.662 3.08-3.894 4.488-1.232 1.364-2.354 2.882-3.366 4.554V278h-4.884Zm9.834-22.704c.22-.22.396-.44.528-.66l.396-.66c.44-.616.77-1.1.99-1.452.22-.352.374-.572.462-.66 1.188-1.716 2.09-3.432 2.706-5.148.66-1.716.99-3.3.99-4.752 0-.528-.022-.858-.066-.99-.176-1.628-.55-2.97-1.122-4.026-.528-1.056-1.298-1.87-2.31-2.442-.88-.484-2.024-.836-3.432-1.056-1.408-.22-2.772-.286-4.092-.198v28.314c.572-.792 1.32-1.738 2.244-2.838.924-1.144 1.826-2.288 2.706-3.432Zm37.081-23.496c.924 3.564 1.386 7.282 1.386 11.154 0 4.928-.66 10.252-1.98 15.972-1.276 5.676-3.08 11.55-5.412 17.622l-.858-1.716c1.452-4.048 2.552-8.184 3.3-12.408.748-4.224 1.122-8.338 1.122-12.342 0-7.172-1.254-13.266-3.762-18.282h6.204Zm-16.962 0c-.088.748-.132 1.386-.132 1.914v1.716c-.044 3.74.242 7.7.858 11.88.616 4.136 1.43 8.14 2.442 12.012 1.012 3.872 2.156 7.414 3.432 10.626 1.32 3.168 2.662 5.654 4.026 7.458-.704 1.936-1.496 3.718-2.376 5.346-.836 1.672-1.87 3.102-3.102 4.29-1.232 1.232-2.728 2.178-4.488 2.838-1.76.66-3.872.946-6.336.858v-5.082c4.312 0 7.568-.726 9.768-2.178.924-.66 1.76-1.452 2.508-2.376.792-.924 1.452-1.958 1.98-3.102h-2.64c-1.716-2.684-3.278-5.698-4.686-9.042-1.364-3.344-2.53-6.952-3.498-10.824-.968-3.916-1.716-8.074-2.244-12.474-.528-4.4-.792-9.02-.792-13.86h5.28Zm27.457 46.2h-4.95v-46.2h17.82l2.244 8.778h-1.452c-.616-1.496-1.276-2.684-1.98-3.564-.66-.88-1.496-1.562-2.508-2.046-.968-.484-2.2-.836-3.696-1.056-1.452-.22-3.278-.418-5.478-.594V278Zm26.879-2.904c0-.748.264-1.408.792-1.98.572-.572 1.276-.858 2.112-.858.748 0 1.408.286 1.98.858.572.572.858 1.232.858 1.98 0 .836-.286 1.54-.858 2.112-.572.528-1.232.792-1.98.792-.836 0-1.54-.264-2.112-.792-.528-.572-.792-1.276-.792-2.112Zm2.706-42.042c-2.156.22-3.85 1.166-5.082 2.838-1.188 1.672-1.782 3.674-1.782 6.006 0 1.056.154 2.112.462 3.168.308 1.012.726 1.98 1.254 2.904.572.924 1.276 1.76 2.112 2.508.836.748 1.782 1.342 2.838 1.782l-2.442 3.498c-1.144-.44-2.178-1.056-3.102-1.848-.924-.792-1.694-1.694-2.31-2.706-.616-1.056-1.1-2.178-1.452-3.366-.308-1.232-.462-2.486-.462-3.762 0-1.496.22-2.97.66-4.422.484-1.452 1.144-2.75 1.98-3.894.88-1.144 1.936-2.068 3.168-2.772 1.232-.748 2.618-1.188 4.158-1.32v1.386Zm.594-1.32c1.32-.044 2.552.198 3.696.726 1.188.484 2.222 1.21 3.102 2.178.88.924 1.562 2.068 2.046 3.432.528 1.32.792 2.772.792 4.356 0 3.608-1.254 7.458-3.762 11.55l-.99 1.32c-.396.484-.836 1.056-1.32 1.716l-.594.792c-1.54 1.848-2.684 3.366-3.432 4.554-.748 1.144-1.122 2.244-1.122 3.3 0 .264.022.506.066.726.044.176.11.352.198.528.44.748 1.408 1.078 2.904.99v1.584c-2.2.176-3.762-.418-4.686-1.782l.066.066c-.616-.792-.924-1.738-.924-2.838 0-.572.066-1.122.198-1.65.132-.528.33-1.122.594-1.782.308-.66.704-1.408 1.188-2.244.484-.836 1.078-1.826 1.782-2.97.132-.22.242-.418.33-.594l.396-.66c.264-.528.55-1.056.858-1.584.352-.572.682-1.1.99-1.584.44-.66.836-1.474 1.188-2.442.352-1.012.726-2.09 1.122-3.234.836-2.376 1.254-4.51 1.254-6.402 0-2.156-.528-3.806-1.584-4.95-1.056-1.188-2.508-1.738-4.356-1.65v-1.452ZM192.789 37.034h-2.376V47h-4.884v-9.966h-13.662l5.61-11.682h1.32l-3.96 9.174h1.254c1.98 0 3.762-.022 5.346-.066 1.584-.088 2.948-.176 4.092-.264V7.4l3.63-6.600003h1.254V33.14c.484-.176.902-.33 1.254-.462.396-.176.77-.374 1.122-.594v4.95Z"/>
</svg>
