<svg xmlns="http://www.w3.org/2000/svg" width="306" height="298" fill="none">
  <path fill="#E2D2BB" d="M36.046 93.366c-2.592 0-4.806 1.836-5.292 4.374l-6.318 32.886c-.432 2.268 1.296 4.374 3.618 4.374 2.592 0 4.806-1.836 5.346-4.374l2.646-12.852h.27c2.214 0 2.916 2.16 3.024 7.182.054 2.322.108 4.212.216 5.778.162 2.484 2.43 4.266 4.914 4.266 2.268 0 3.888-2.052 3.672-4.32-.162-1.674-.27-3.672-.378-6.264-.324-6.75-1.242-10.368-2.808-12.042l9.288-14.742c1.134-1.836-.162-4.266-2.322-4.266-3.078 0-5.94 1.728-7.29 4.482l-6.804 13.176h-.81L39.61 97.74c.432-2.268-1.296-4.374-3.564-4.374Zm33.197 26.622h-5.238l2.97-8.586c.756-2.106 2.16-7.02 3.078-10.098h.108c-.108 3.078-.432 7.884-.54 10.152l-.378 8.532Zm-7.344 6.588h7.02l-.108 3.996c-.108 2.43 1.836 4.428 4.212 4.428 2.484 0 4.428-1.998 4.428-4.428V98.766c0-2.97-2.376-5.4-5.346-5.4-3.24 0-6.156 1.998-7.398 5.022l-13.014 32.508c-.81 1.944.648 4.104 2.754 4.104 2.646 0 5.022-1.674 5.94-4.158l1.512-4.266Zm33.2095-33.21c-2.592 0-4.806 1.836-5.292 4.374l-6.318 32.886c-.432 2.268 1.296 4.374 3.618 4.374 2.592 0 4.806-1.836 5.346-4.374l2.646-12.852h.27c2.214 0 2.916 2.16 3.024 7.182.054 2.322.108 4.212.216 5.778.162 2.484 2.4305 4.266 4.9145 4.266 2.268 0 3.888-2.052 3.672-4.32-.162-1.674-.27-3.672-.378-6.264-.324-6.75-1.242-10.368-2.808-12.042l9.288-14.742c1.134-1.836-.162-4.266-2.322-4.266-3.078 0-5.94 1.728-7.29 4.482l-6.8045 13.176h-.81l2.592-13.284c.432-2.268-1.296-4.374-3.564-4.374Zm43.3485 0c-2.646 0-4.914 1.89-5.4 4.482l-6.264 32.67c-.432 2.322 1.35 4.482 3.726 4.482 2.646 0 4.914-1.89 5.4-4.482l2.376-12.312h6.912l-2.268 12.312c-.432 2.322 1.35 4.482 3.726 4.482 2.646 0 4.968-1.89 5.454-4.482l6.21-32.67c.486-2.322-1.296-4.482-3.672-4.482-2.646 0-4.968 1.89-5.454 4.482l-2.268 12.042h-7.074l2.322-12.042c.432-2.322-1.35-4.482-3.726-4.482Zm37.257 26.622h-5.238l2.97-8.586c.756-2.106 2.16-7.02 3.078-10.098h.108c-.108 3.078-.432 7.884-.54 10.152l-.378 8.532Zm-7.344 6.588h7.02l-.108 3.996c-.108 2.43 1.836 4.428 4.212 4.428 2.484 0 4.428-1.998 4.428-4.428V98.766c0-2.97-2.376-5.4-5.346-5.4-3.24 0-6.156 1.998-7.398 5.022l-13.014 32.508c-.81 1.944.648 4.104 2.754 4.104 2.646 0 5.022-1.674 5.94-4.158l1.512-4.266ZM205.413 83.7c-1.458 0-2.754 1.188-2.43 2.592.756 2.916 3.078 4.86 7.668 4.86 4.644 0 7.128-1.944 8.586-4.86.756-1.566-.81-2.592-2.268-2.592-2.754 0-3.294 3.402-6.102 3.402-2.538 0-2.97-3.402-5.454-3.402Zm-4.158 9.666c-2.43 0-4.536 1.728-4.968 4.158l-6.318 33.264c-.432 2.16 1.242 4.212 3.456 4.212 2.646 0 5.13-1.458 6.426-3.726 4.05-7.182 9.234-16.254 11.664-22.464h.216c-1.188 4.86-3.348 13.932-4.914 22.086-.486 2.106 1.134 4.104 3.294 4.104 2.43 0 4.482-1.728 4.968-4.104l6.372-33.318c.432-2.214-1.242-4.212-3.456-4.212-2.646 0-5.076 1.458-6.318 3.726l-6.156 11.232c-1.512 2.646-3.456 6.048-5.94 11.502h-.216c1.62-5.562 3.888-14.202 5.292-22.302.432-2.16-1.242-4.158-3.402-4.158Zm31.642 8.64-5.508 28.512c-.432 2.322 1.35 4.482 3.672 4.482 2.646 0 4.968-1.89 5.454-4.482l5.508-28.512h2.7c2.538 0 4.752-1.782 5.238-4.32.432-2.214-1.296-4.32-3.564-4.32h-14.634c-2.538 0-4.752 1.836-5.238 4.32-.432 2.268 1.296 4.32 3.564 4.32h2.808Zm27.473-8.64c-2.43 0-4.536 1.728-4.968 4.158l-6.318 33.264c-.432 2.16 1.242 4.212 3.51 4.212 2.592 0 5.076-1.458 6.372-3.726l5.778-10.314c2.7-4.752 4.59-9.072 5.886-12.15h.27c-1.188 4.59-2.7 10.854-4.32 19.008l-.648 3.078c-.432 2.106 1.134 4.104 3.294 4.104 2.43 0 4.536-1.728 4.968-4.104l6.372-33.318c.432-2.214-1.242-4.212-3.456-4.212-2.592 0-5.022 1.458-6.318 3.726l-6.156 11.232c-1.458 2.646-3.456 6.048-5.94 11.502h-.216c1.458-5.13 3.294-11.88 4.806-19.71l.486-2.592c.432-2.16-1.188-4.158-3.402-4.158Zm-228.9024 54h-5.0759c-5.7781 0-10.7461 4.158-11.8261 9.828l-5.23795 27.324C8.89565 186.84 10.6776 189 13.0536 189c2.646 0 4.914-1.89 5.4-4.482l5.562-29.106h6.7501l-5.5621 29.106c-.432 2.322 1.35 4.482 3.726 4.482 2.646 0 4.914-1.89 5.4-4.482l5.238-27.324c.972-5.13-2.916-9.828-8.1-9.828Zm23.2454 34.182h-.054c-2.538 0-2.808-2.862-2.808-4.644 0-7.398 2.754-22.032 7.776-22.032 2.214 0 2.592 2.592 2.592 4.158 0 5.184-2.322 22.518-7.506 22.518Zm-1.35 7.938h.054c3.888 0 7.02-1.404 9.558-3.888 5.724-5.454 8.64-16.2 8.64-25.542 0-4.86-1.296-13.176-10.8-13.176-4.05 0-7.182 1.566-9.72 3.996-5.832 5.616-8.64 16.146-8.64 24.84 0 4.59 1.404 13.77 10.908 13.77Zm35.6442-28.566 1.026-5.454h5.616l-4.86 25.434h-8.424c3.456-6.534 5.184-12.69 6.642-19.98Zm7.398-13.554h-3.132c-5.778 0-10.746 4.158-11.772 9.828-.81 4.428-1.944 8.964-3.51 13.338-1.242 3.51-2.808 6.804-4.698 10.314-1.782.162-3.186 1.566-3.402 3.348l-1.458 10.638c-.27 1.782 1.134 3.456 2.97 3.456 2.052 0 3.834-1.458 4.32-3.402l1.35-5.886h16.686l-.972 5.67c-.324 1.89 1.134 3.618 3.078 3.618 2.106 0 3.942-1.512 4.4278-3.564l2.376-10.098c.378-1.782-.81-3.402-2.6998-3.726l4.5358-23.706c1.026-5.13-2.916-9.828-8.0998-9.828Zm28.3558 13.554 1.026-5.454h5.616l-4.86 25.434h-8.424c3.456-6.534 5.184-12.69 6.642-19.98Zm7.398-13.554h-3.132c-5.778 0-10.746 4.158-11.772 9.828-.81 4.428-1.944 8.964-3.51 13.338-1.242 3.51-2.808 6.804-4.698 10.314-1.782.162-3.186 1.566-3.402 3.348l-1.458 10.638c-.27 1.782 1.134 3.456 2.97 3.456 2.052 0 3.834-1.458 4.32-3.402l1.35-5.886h16.686l-.972 5.67c-.324 1.89 1.134 3.618 3.078 3.618 2.106 0 3.942-1.512 4.428-3.564l2.376-10.098c.378-1.782-.81-3.402-2.7-3.726l4.536-23.706c1.026-5.13-2.916-9.828-8.1-9.828Zm31.958 20.034c.378-1.998-1.134-3.834-3.132-3.834h-4.968l1.728-8.154h4.914c2.376 0 4.428-1.674 4.914-3.996.432-2.106-1.188-4.05-3.294-4.05h-5.076c-5.292 0-9.882 3.78-10.908 9.018l-4.428 23.274c-.918 4.86 2.754 9.342 7.722 9.342h5.4c2.376 0 4.428-1.674 4.914-4.05.432-2.106-1.188-4.05-3.348-4.05h-5.832l1.944-9.666h4.806c2.268 0 4.212-1.62 4.644-3.834Zm17.624-.324 2.376-12.366c.378-.108.972-.108 1.674-.108 2.376 0 3.564 1.674 3.564 4.104 0 3.132-1.242 8.37-6.534 8.37h-1.08Zm-7.182-9.288-5.13 26.838c-.432 2.268 1.296 4.374 3.618 4.374 2.592 0 4.806-1.836 5.292-4.374l1.944-10.098h1.62c3.51 0 7.776-1.08 10.746-3.456 2.754-2.214 5.832-6.696 5.832-13.014 0-2.16-.81-5.346-2.646-7.344-2.592-2.754-6.588-3.402-9.396-3.51-6.048-.216-10.746 4.698-11.88 10.584Zm31.996-10.422c-2.214 0-3.834 2.052-3.402 4.212l3.186 15.174c-3.348 1.674-5.778 4.644-8.046 11.124-.81 2.268-1.782 4.86-2.754 7.128-.81 1.836.486 3.996 2.538 3.996 2.808 0 5.454-1.566 6.48-4.212.648-1.728 1.296-3.672 1.836-5.346 1.89-5.508 3.834-7.992 5.616-7.992h.702l-2.7 13.284c-.486 2.214 1.188 4.266 3.456 4.266 2.538 0 4.698-1.782 5.184-4.266l2.43-12.96h.378c1.62 0 2.538 2.16 2.646 7.668.054 2.052.108 3.726.162 5.238.162 2.538 2.484 4.32 5.022 4.32 2.214 0 3.78-2.052 3.564-4.266-.162-1.89-.27-4.266-.378-7.506-.216-4.374-1.08-8.154-2.916-10.206l10.206-15.552c1.188-1.782-.054-4.104-2.16-4.104-3.024 0-5.778 1.674-7.182 4.32l-7.074 13.338h-1.08l2.754-13.446c.432-2.16-1.242-4.212-3.456-4.212-2.484 0-4.644 1.782-5.076 4.212l-2.592 13.446h-.972l-1.566-13.392c-.27-2.43-2.376-4.266-4.806-4.266Zm44.885 0c-2.592 0-4.806 1.836-5.292 4.374l-6.318 32.886c-.432 2.268 1.296 4.374 3.618 4.374 2.592 0 4.806-1.836 5.346-4.374l2.646-12.852h.27c2.214 0 2.916 2.16 3.024 7.182.054 2.322.108 4.212.216 5.778.162 2.484 2.43 4.266 4.914 4.266 2.268 0 3.888-2.052 3.672-4.32-.162-1.674-.27-3.672-.378-6.264-.324-6.75-1.242-10.368-2.808-12.042l9.288-14.742c1.134-1.836-.162-4.266-2.322-4.266-3.078 0-5.94 1.728-7.29 4.482l-6.804 13.176h-.81l2.592-13.284c.432-2.268-1.296-4.374-3.564-4.374Zm25.57 0c-2.592 0-4.482 2.376-3.942 4.86l4.752 22.194c.108.702.054 1.404-.324 2.484-.702 1.836-2.214 3.942-3.996 4.698-1.782.702-3.726 1.674-3.942 3.564-.27 1.944.918 4.32 3.294 4.32 3.942 0 7.02-1.62 9.558-4.536 2.862-3.402 5.13-8.154 7.614-13.446l9.234-19.548c1.026-2.106-.54-4.59-2.862-4.59-3.024 0-5.778 1.944-6.75 4.806-1.512 4.59-4.374 11.556-5.238 15.444h-.324c-.054-3.834-1.188-10.746-1.566-15.336-.324-2.808-2.7-4.914-5.508-4.914ZM13.015 217.782l1.782-9.774c.54-.216 1.296-.216 1.944-.216 2.592 0 3.24 2.376 3.24 4.104 0 3.456-1.944 5.886-6.102 5.886h-.864Zm-3.56395 18.306 2.26795-11.61h1.242c2.916 0 4.374 1.89 4.374 5.076 0 3.888-2.592 6.588-6.318 6.588-.54 0-1.07995 0-1.56595-.054Zm-3.996-24.3-4.05 21.114c-.972003 5.292 2.754 10.422 8.1 10.26 5.66995-.216 9.50395-1.512 12.41995-3.78 2.484-2.052 4.428-5.4 4.428-8.91s-1.404-7.398-5.454-8.802v-.216c4.158-1.296 7.884-5.4 7.884-10.422 0-2.592-.756-5.022-2.592-6.75-2.376-2.268-5.616-2.916-8.856-3.078-5.994-.216-10.74595 4.644-11.87995 10.584Zm50.93885-10.422c-2.43 0-4.536 1.728-4.968 4.158l-6.318 33.264c-.432 2.16 1.242 4.212 3.51 4.212 2.592 0 5.076-1.458 6.372-3.726l5.778-10.314c2.7-4.752 4.59-9.072 5.886-12.15h.27c-1.188 4.59-2.7 10.854-4.32 19.008l-.648 3.078c-.432 2.106 1.134 4.104 3.294 4.104 2.43 0 4.536-1.728 4.968-4.104l6.372-33.318c.432-2.214-1.242-4.212-3.456-4.212-2.592 0-5.022 1.458-6.318 3.726l-6.156 11.232c-1.458 2.646-3.456 6.048-5.94 11.502h-.216c1.458-5.13 3.294-11.88 4.806-19.71l.486-2.592c.432-2.16-1.188-4.158-3.402-4.158Zm34.2335 0c-2.646 0-4.914 1.89-5.4 4.482l-6.264 32.67c-.432 2.322 1.35 4.482 3.726 4.482 2.646 0 4.914-1.89 5.4-4.482l2.376-12.312h6.912l-2.268 12.312c-.432 2.322 1.35 4.482 3.726 4.482 2.6456 0 4.9676-1.89 5.4536-4.482l6.21-32.67c.486-2.322-1.296-4.482-3.672-4.482-2.646 0-4.968 1.89-5.454 4.482l-2.2676 12.042h-7.074l2.322-12.042c.432-2.322-1.35-4.482-3.726-4.482Zm31.3166 8.64-5.508 28.512c-.432 2.322 1.35 4.482 3.672 4.482 2.646 0 4.968-1.89 5.454-4.482l5.508-28.512h2.7c2.538 0 4.752-1.782 5.238-4.32.432-2.214-1.296-4.32-3.564-4.32H120.81c-2.538 0-4.752 1.836-5.238 4.32-.432 2.268 1.296 4.32 3.564 4.32h2.808Zm37.031 11.394c.378-1.998-1.134-3.834-3.132-3.834h-4.968l1.728-8.154h4.914c2.376 0 4.428-1.674 4.914-3.996.432-2.106-1.188-4.05-3.294-4.05h-5.076c-5.292 0-9.882 3.78-10.908 9.018l-4.428 23.274c-.918 4.86 2.754 9.342 7.722 9.342h5.4c2.376 0 4.428-1.674 4.914-4.05.432-2.106-1.188-4.05-3.348-4.05h-5.832l1.944-9.666h4.806c2.268 0 4.212-1.62 4.644-3.834Zm17.625-.324 2.376-12.366c.378-.108.972-.108 1.674-.108 2.376 0 3.564 1.674 3.564 4.104 0 3.132-1.242 8.37-6.534 8.37h-1.08Zm-7.182-9.288-5.13 26.838c-.432 2.268 1.296 4.374 3.618 4.374 2.592 0 4.806-1.836 5.292-4.374l1.944-10.098h1.62c3.51 0 7.776-1.08 10.746-3.456 2.754-2.214 5.832-6.696 5.832-13.014 0-2.16-.81-5.346-2.646-7.344-2.592-2.754-6.588-3.402-9.396-3.51-6.048-.216-10.746 4.698-11.88 10.584Zm37.33-10.422c-2.646 0-4.914 1.89-5.4 4.482l-6.264 32.67c-.432 2.322 1.35 4.482 3.726 4.482 2.646 0 4.914-1.89 5.4-4.482l2.376-12.312h6.912l-2.268 12.312c-.432 2.322 1.35 4.482 3.726 4.482 2.646 0 4.968-1.89 5.454-4.482l6.21-32.67c.486-2.322-1.296-4.482-3.672-4.482-2.646 0-4.968 1.89-5.454 4.482l-2.268 12.042h-7.074l2.322-12.042c.432-2.322-1.35-4.482-3.726-4.482Zm43.089 20.034c.378-1.998-1.134-3.834-3.132-3.834h-4.968l1.728-8.154h4.914c2.376 0 4.428-1.674 4.914-3.996.432-2.106-1.188-4.05-3.294-4.05h-5.076c-5.292 0-9.882 3.78-10.908 9.018l-4.428 23.274c-.918 4.86 2.754 9.342 7.722 9.342h5.4c2.376 0 4.428-1.674 4.914-4.05.432-2.106-1.188-4.05-3.348-4.05h-5.832l1.944-9.666h4.806c2.268 0 4.212-1.62 4.644-3.834Zm14.384-11.394-5.508 28.512c-.432 2.322 1.35 4.482 3.672 4.482 2.646 0 4.968-1.89 5.454-4.482l5.508-28.512h2.7c2.538 0 4.752-1.782 5.238-4.32.432-2.214-1.296-4.32-3.564-4.32h-14.634c-2.538 0-4.752 1.836-5.238 4.32-.432 2.268 1.296 4.32 3.564 4.32h2.808Zm37.032 11.394c.378-1.998-1.134-3.834-3.132-3.834h-4.968l1.728-8.154h4.914c2.376 0 4.428-1.674 4.914-3.996.432-2.106-1.188-4.05-3.294-4.05h-5.076c-5.292 0-9.882 3.78-10.908 9.018l-4.428 23.274c-.918 4.86 2.754 9.342 7.722 9.342h5.4c2.376 0 4.428-1.674 4.914-4.05.432-2.106-1.188-4.05-3.348-4.05h-5.832l1.944-9.666h4.806c2.268 0 4.212-1.62 4.644-3.834ZM30.2649 290.034l2.214-12.42c.648-.216 1.08-.27 1.674-.27 2.916 0 3.726 2.7 3.726 5.184 0 4.104-2.538 7.614-5.994 7.614-.54 0-1.188 0-1.62-.108Zm14.58-34.668h-7.074c-5.778 0-10.746 4.158-11.826 9.828l-4.158 21.87c-.972 5.292 2.754 10.476 8.154 10.26 5.886-.216 10.962-2.106 14.148-5.886 2.16-2.538 3.402-5.94 3.402-10.26 0-6.048-4.104-10.962-10.098-10.962-1.188 0-2.322.054-3.51.378l1.296-6.75h8.262c2.484 0 4.59-1.782 4.968-4.212.378-2.268-1.35-4.266-3.564-4.266ZM72.6756 275.4c.378-1.998-1.134-3.834-3.132-3.834h-4.968l1.728-8.154h4.914c2.376 0 4.428-1.674 4.914-3.996.432-2.106-1.188-4.05-3.294-4.05h-5.076c-5.292 0-9.882 3.78-10.908 9.018l-4.428 23.274c-.918 4.86 2.754 9.342 7.722 9.342h5.4c2.376 0 4.428-1.674 4.914-4.05.432-2.106-1.188-4.05-3.348-4.05h-5.832l1.944-9.666h4.806c2.268 0 4.212-1.62 4.644-3.834Zm24.4282 17.172c.108-1.998-1.674-3.456-3.672-3.402h-.27c-3.618 0-5.022-3.078-5.022-7.776 0-6.588 1.89-11.556 4.266-14.796 1.458-1.89 3.564-3.132 5.292-3.294 2.268-.216 4.6442-1.188 5.2922-3.402.702-2.16-.378-4.698-2.7-4.86-.3242 0-.7022-.054-1.0262-.054-4.536 0-9.234 1.62-12.906 5.346-4.482 4.536-7.938 12.042-7.938 22.95 0 3.942 1.296 14.094 12.636 14.094.648 0 1.242 0 1.836-.054 2.43-.108 4.05-2.322 4.212-4.752Zm27.8092-37.206h-5.076c-5.778 0-10.746 4.158-11.826 9.828l-5.238 27.324c-.432 2.322 1.35 4.482 3.726 4.482 2.646 0 4.914-1.89 5.4-4.482l5.562-29.106h6.75l-5.562 29.106c-.432 2.322 1.35 4.482 3.726 4.482 2.646 0 4.914-1.89 5.4-4.482l5.238-27.324c.972-5.13-2.916-9.828-8.1-9.828Zm32.587 0h-3.186c-5.832 0-10.8 4.104-11.934 9.774l-1.782 8.64c-1.512 6.318-2.916 11.772-6.102 14.418-1.728 1.404-3.186 3.402-2.808 5.616.432 2.214 2.43 3.996 4.644 3.294 1.782-.594 3.078-1.566 4.266-2.646 5.076-4.644 7.182-13.77 8.802-21.438l1.998-9.612h5.454l-5.562 29.052c-.432 2.376 1.35 4.536 3.726 4.536 2.7 0 4.968-1.89 5.454-4.536l5.184-27.27c.918-5.13-2.97-9.828-8.154-9.828Zm25.57 26.622h-5.238l2.97-8.586c.756-2.106 2.16-7.02 3.078-10.098h.108c-.108 3.078-.432 7.884-.54 10.152l-.378 8.532Zm-7.344 6.588h7.02l-.108 3.996c-.108 2.43 1.836 4.428 4.212 4.428 2.484 0 4.428-1.998 4.428-4.428v-31.806c0-2.97-2.376-5.4-5.346-5.4-3.24 0-6.156 1.998-7.398 5.022l-13.014 32.508c-.81 1.944.648 4.104 2.754 4.104 2.646 0 5.022-1.674 5.94-4.158l1.512-4.266Zm27.982-24.57-5.508 28.512c-.432 2.322 1.35 4.482 3.672 4.482 2.646 0 4.968-1.89 5.454-4.482l5.508-28.512h2.7c2.538 0 4.752-1.782 5.238-4.32.432-2.214-1.296-4.32-3.564-4.32h-14.634c-2.538 0-4.752 1.836-5.238 4.32-.432 2.268 1.296 4.32 3.564 4.32h2.808Zm27.852-8.64c-2.646 0-4.914 1.89-5.4 4.482l-6.264 32.67c-.432 2.322 1.35 4.482 3.726 4.482 2.646 0 4.914-1.89 5.4-4.482l2.376-12.312h6.912l-2.268 12.312c-.432 2.322 1.35 4.482 3.726 4.482 2.646 0 4.968-1.89 5.454-4.482l6.21-32.67c.486-2.322-1.296-4.482-3.672-4.482-2.646 0-4.968 1.89-5.454 4.482l-2.268 12.042h-7.074l2.322-12.042c.432-2.322-1.35-4.482-3.726-4.482Zm34.934 34.182h-.054c-2.538 0-2.808-2.862-2.808-4.644 0-7.398 2.754-22.032 7.776-22.032 2.214 0 2.592 2.592 2.592 4.158 0 5.184-2.322 22.518-7.506 22.518Zm-1.35 7.938h.054c3.888 0 7.02-1.404 9.558-3.888 5.724-5.454 8.64-16.2 8.64-25.542 0-4.86-1.296-13.176-10.8-13.176-4.05 0-7.182 1.566-9.72 3.996-5.832 5.616-8.64 16.146-8.64 24.84 0 4.59 1.404 13.77 10.908 13.77ZM151.743 22.772c2.268 0 3.132 1.998 3.132 4.428 0 4.698-1.512 12.69-5.778 12.69h-.054c-2.322 0-3.078-2.808-3.078-5.724 0-1.62.108-4.698.864-7.128 1.188-2.484 3.132-4.266 4.914-4.266ZM160.707.739997C156.441 1.496 152.229 3.494 148.557 6.842c-5.022 4.536-10.638 13.932-10.638 25.542 0 6.588 2.43 13.77 10.584 13.77 8.964 0 14.904-9.504 14.904-19.548 0-4.266-1.89-10.098-8.046-10.206-2.43 0-4.86 1.134-6.588 3.078-.054.054-.108.108-.216.108-.054 0-.108-.054-.054-.162 2.322-5.724 6.102-9.558 10.962-11.07 2.106-.648 3.942-2.214 4.32-4.374.324-1.89-1.188-3.618001-3.078-3.240003Z"/>
</svg>
