<svg xmlns="http://www.w3.org/2000/svg" width="361" height="293" fill="none">
  <path fill="#E2D2BB" d="M90.281 116.216c.64-.16.96-.544.96-1.152V97.928c0-.64.32-.96.96-.96h13.2c.64 0 .96.32.96.96v38.112c0 .64-.32.96-.96.96h-13.68c-.64 0-.96-.32-.96-.96 0-1.056.16-2.096.48-3.12.352-1.056.736-2.112 1.152-3.168.416-1.056.784-2.112 1.104-3.168.352-1.088.528-2.176.528-3.264 0-1.344-.304-2.304-.912-2.88-.576-.608-1.472-.912-2.688-.912-4.48 0-6.72 3.904-6.72 11.712v4.8c0 .64-.32.96-.96.96h-12.72c-.64 0-.96-.32-.96-.96V97.928c0-.64.32-.96.96-.96h13.2c.64 0 .96.32.96.96v6.384c0 2.432-.224 4.656-.672 6.672-.416 1.984-.896 3.936-1.44 5.856-.512 1.92-.992 3.872-1.44 5.856-.448 1.952-.704 4.128-.768 6.528 0 .512.256.768.768.768.416 0 .656-.272.72-.816.128-1.984.368-3.712.72-5.184.384-1.472.928-2.72 1.632-3.744.704-1.056 1.584-1.904 2.64-2.544 1.088-.672 2.4-1.168 3.936-1.488Zm52.316-19.248c.672 0 1.008.336 1.008 1.008v38.016c0 .672-.336 1.008-1.008 1.008h-13.104c-.672 0-1.008-.336-1.008-1.008.032-1.952.048-4 .048-6.144.032-2.176.032-4.336 0-6.48 0-2.144-.016-4.224-.048-6.24-.032-2.048-.096-3.936-.192-5.664-.096-1.76-.224-3.296-.384-4.608-.128-1.344-.304-2.384-.528-3.12-.32-1.024-.784-1.536-1.392-1.536-.576 0-1.152.48-1.728 1.44-.48.8-.992 1.936-1.536 3.408-.544 1.44-1.04 3.024-1.488 4.752-.416 1.696-.768 3.44-1.056 5.232-.288 1.792-.432 3.408-.432 4.848 0 1.216.112 2.096.336 2.64.224.512.592.768 1.104.768.448 0 .88-.192 1.296-.576.416-.384.752-.912 1.008-1.584s.768-1.008 1.536-1.008c.736 0 1.152.32 1.248.96.128.736.224 1.472.288 2.208.064.704.096 1.392.096 2.064 0 1.632-.208 3.104-.624 4.416-.416 1.28-1.024 2.384-1.824 3.312-.768.928-1.696 1.632-2.784 2.112-1.088.512-2.304.768-3.648.768-2.72 0-4.832-.976-6.336-2.928-1.472-1.952-2.208-4.704-2.208-8.256 0-2.208.208-4.416.624-6.624.448-2.208 1.056-4.32 1.824-6.336.768-2.048 1.664-3.952 2.688-5.712 1.056-1.792 2.176-3.328 3.36-4.608 1.216-1.312 2.464-2.336 3.744-3.072 1.312-.768 2.608-1.152 3.888-1.152 1.088 0 1.952.288 2.592.864.672.576 1.2 1.456 1.584 2.64.384 1.184.656 2.688.816 4.512.16 1.824.288 4 .384 6.528 0 .544.256.816.768.816s.768-.256.768-.768c0-3.04-.176-5.52-.528-7.44-.32-1.92-.688-3.456-1.104-4.608-.416-1.184-.8-2.064-1.152-2.64-.32-.608-.48-1.072-.48-1.392 0-.256.096-.448.288-.576.192-.16.416-.24.672-.24h12.624Zm37.65 40.992c-1.6 0-2.976-.256-4.128-.768-1.152-.48-2.048-1.184-2.688-2.112-.608-.96-.96-2.112-1.056-3.456-.064-1.376.192-2.928.768-4.656.256-.8.496-1.696.72-2.688.224-1.024.416-2.064.576-3.12.192-1.088.336-2.16.432-3.216.096-1.056.144-2.032.144-2.928 0-.512-.256-.768-.768-.768s-.768.272-.768.816c-.16 3.2-.576 6.192-1.248 8.976-.64 2.784-1.568 5.216-2.784 7.296-1.184 2.048-2.656 3.664-4.416 4.848-1.728 1.184-3.76 1.776-6.096 1.776-1.632 0-3.104-.304-4.416-.912-1.28-.608-2.368-1.552-3.264-2.832-.864-1.312-1.52-2.96-1.968-4.944-.448-2.016-.624-4.4-.528-7.152.064-1.856.128-3.536.192-5.04.096-1.536.192-3.04.288-4.512.096-1.472.176-2.96.24-4.464.096-1.536.176-3.232.24-5.088.032-1.12-.08-1.936-.336-2.448-.256-.544-.848-.896-1.776-1.056-.352-.064-.624-.224-.816-.48-.16-.256-.256-.528-.288-.816 0-.288.064-.56.192-.816.16-.288.416-.48.768-.576 1.632-.544 3.632-.816 6-.816 2.08 0 3.856.192 5.328.576 1.504.384 2.72 1.024 3.648 1.92.928.864 1.584 2 1.968 3.408.384 1.408.528 3.136.432 5.184-.064 1.472-.144 2.8-.24 3.984-.064 1.184-.144 2.352-.24 3.504-.096 1.152-.192 2.32-.288 3.504-.064 1.184-.128 2.512-.192 3.984-.064 1.76-.096 3.248-.096 4.464 0 1.216.048 2.208.144 2.976.096.768.256 1.328.48 1.68.224.32.528.48.912.48.704 0 1.408-.544 2.112-1.632.704-1.088 1.328-2.528 1.871-4.32.576-1.792 1.025-3.824 1.345-6.096.352-2.272.528-4.592.528-6.96V97.928c0-.64.32-.96.96-.96h13.2c.64 0 .96.32.96.96V112.904c0 3.392-.08 6.928-.24 10.608-.128 2.816-.096 4.88.096 6.192.192 1.312.656 1.968 1.392 1.968.704 0 1.408-.544 2.112-1.632.704-1.088 1.328-2.528 1.872-4.32.576-1.792 1.024-3.824 1.344-6.096.352-2.272.528-4.592.528-6.96l-.144-14.736c0-.64.32-.96.96-.96h12.576c.64 0 .96.32.96.96l.768 38.112c0 .64-.32.96-.96.96h-13.68c-.64 0-.96-.32-.96-.96 0-1.184.224-2.448.672-3.792.448-1.376.944-2.896 1.488-4.56.544-1.696 1.04-3.568 1.488-5.616.448-2.08.672-4.432.672-7.056 0-.512-.256-.768-.768-.768s-.768.272-.768.816c-.16 2.976-.512 5.776-1.057 8.4-.511 2.624-1.279 4.944-2.303 6.96-.992 2.016-2.256 3.68-3.792 4.992-1.536 1.28-3.36 2.08-5.472 2.4-.352.064-.832.096-1.44.096-.576.032-1.04.048-1.392.048Zm49.854-38.112c-1.056 0-1.808.544-2.256 1.632-.416 1.056-.656 2.448-.72 4.176-.032 1.728.064 3.68.288 5.856.256 2.144.512 4.24.768 6.288.288 2.048.528 4.08.72 6.096.224 2.016.272 3.728.144 5.136-.224 2.816-1.328 4.944-3.312 6.384-1.952 1.408-5.024 2.112-9.216 2.112-1.216 0-2.304-.064-3.264-.192-.928-.128-1.808-.336-2.64-.624-.288-.096-.496-.272-.624-.528-.128-.288-.176-.576-.144-.864.032-.32.144-.592.336-.816.224-.256.528-.416.912-.48.928-.16 1.552-.496 1.872-1.008.352-.544.576-1.376.672-2.496.192-1.856.336-3.536.432-5.04.096-1.504.176-2.896.24-4.176.064-1.28.112-2.496.144-3.648.064-1.152.144-2.16.24-3.024.128-1.248.288-2.56.48-3.936s.48-2.72.864-4.032c.384-1.312.864-2.544 1.44-3.696.576-1.184 1.312-2.208 2.208-3.072.896-.896 1.936-1.6 3.12-2.112 1.216-.544 2.64-.816 4.272-.816h7.776c1.632 0 3.056.272 4.272.816 1.216.512 2.256 1.216 3.12 2.112.864.864 1.584 1.888 2.16 3.072.608 1.152 1.104 2.384 1.488 3.696.384 1.312.672 2.656.864 4.032.224 1.376.384 2.688.48 3.936.096.864.16 1.872.192 3.024.064 1.152.128 2.368.192 3.648.064 1.28.144 2.672.24 4.176s.24 3.184.432 5.04c.096 1.12.304 1.952.624 2.496.352.512.992.848 1.92 1.008.384.064.672.224.864.48.224.224.352.496.384.816.032.288-.016.576-.144.864-.128.256-.336.432-.624.528-.832.288-1.728.496-2.688.624-.928.128-2 .192-3.216.192-2.112 0-3.936-.176-5.472-.528-1.504-.352-2.768-.88-3.792-1.584-.992-.736-1.76-1.632-2.304-2.688-.512-1.056-.832-2.288-.96-3.696-.096-1.408-.048-3.12.144-5.136s.416-4.048.672-6.096c.288-2.048.544-4.144.768-6.288.256-2.176.352-4.128.288-5.856-.032-1.728-.272-3.12-.72-4.176-.416-1.088-1.152-1.632-2.208-1.632h-1.728Zm34.456 38.112c-1.632 0-3.088-.304-4.368-.912-1.28-.608-2.368-1.552-3.264-2.832-.896-1.312-1.568-2.96-2.016-4.944-.448-2.016-.624-4.4-.528-7.152.064-1.856.128-3.536.192-5.04.096-1.536.192-3.04.288-4.512.096-1.472.176-2.96.24-4.464.096-1.536.176-3.232.24-5.088.032-1.12-.08-1.936-.336-2.448-.256-.544-.848-.896-1.776-1.056-.352-.064-.624-.208-.816-.432-.16-.256-.256-.528-.288-.816 0-.32.08-.608.24-.864.16-.288.4-.48.72-.576 1.6-.544 3.6-.816 6-.816 2.112 0 3.904.192 5.376.576 1.472.384 2.656 1.024 3.552 1.92.928.864 1.584 2 1.968 3.408.416 1.408.576 3.136.48 5.184-.064 1.472-.144 2.8-.24 3.984-.064 1.184-.144 2.352-.24 3.504-.096 1.152-.192 2.32-.288 3.504-.064 1.184-.128 2.512-.192 3.984-.128 3.488-.112 5.968.048 7.44.192 1.44.656 2.16 1.392 2.16.736 0 1.44-.544 2.112-1.632.704-1.088 1.328-2.528 1.872-4.32.576-1.792 1.024-3.824 1.344-6.096.352-2.272.528-4.592.528-6.96V97.928c0-.64.32-.96.96-.96h13.2c.64 0 .96.32.96.96v38.112c0 .64-.32.96-.96.96h-13.68c-.64 0-.96-.32-.96-.96 0-1.216.224-2.496.672-3.84.448-1.344.944-2.848 1.488-4.512.544-1.696 1.04-3.568 1.488-5.616.448-2.08.672-4.432.672-7.056 0-.512-.256-.768-.768-.768s-.768.272-.768.816c-.16 3.2-.576 6.192-1.248 8.976-.64 2.784-1.568 5.216-2.784 7.296-1.184 2.048-2.656 3.664-4.416 4.848-1.728 1.184-3.76 1.776-6.096 1.776Zm-183.5773 6.048c1.632 0 3.088.304 4.368.912 1.312.608 2.4 1.568 3.264 2.88.896 1.28 1.568 2.928 2.016 4.944.448 1.984.624 4.352.528 7.104-.064 1.856-.144 3.552-.24 5.088-.064 1.504-.144 2.992-.24 4.464-.096 1.472-.192 2.976-.288 4.512-.064 1.504-.128 3.184-.192 5.04-.032 1.12.08 1.952.336 2.496.256.512.848.848 1.776 1.008.352.064.608.224.768.48.192.224.288.496.288.816.032.288-.032.576-.192.864-.16.256-.4.432-.72.528-1.6.544-3.6.816-6 .816-2.112 0-3.904-.192-5.376-.576-1.472-.384-2.672-1.008-3.6-1.872-.896-.896-1.552-2.048-1.968-3.456-.384-1.408-.528-3.136-.432-5.184.064-1.472.128-2.8.192-3.984.096-1.184.192-2.352.288-3.504.096-1.152.176-2.32.24-3.504.096-1.184.176-2.512.24-3.984.064-1.76.096-3.248.096-4.464 0-1.216-.048-2.208-.144-2.976-.096-.768-.256-1.312-.48-1.632-.224-.352-.528-.528-.912-.528-.704 0-1.408.544-2.112 1.632-.704 1.088-1.344 2.528-1.92 4.32-.544 1.792-.992 3.824-1.344 6.096-.32 2.272-.48 4.592-.48 6.96v14.736c0 .64-.32.96-.96.96h-13.2c-.64 0-.96-.32-.96-.96v-38.112c0-.64.32-.96.96-.96h13.68c.64 0 .96.32.96.96 0 1.184-.224 2.464-.672 3.84-.448 1.344-.944 2.864-1.488 4.56-.544 1.664-1.04 3.536-1.488 5.616-.448 2.048-.672 4.384-.672 7.008 0 .512.256.768.768.768s.768-.272.768-.816c.16-3.2.56-6.192 1.2-8.976.672-2.784 1.6-5.2 2.784-7.248 1.216-2.08 2.688-3.712 4.416-4.896 1.76-1.184 3.808-1.776 6.144-1.776Zm28.7703 35.52c.064 1.12.368 1.92.912 2.4.544.448 1.264.672 2.16.672 1.12 0 1.984-.288 2.592-.864.608-.576 1.12-1.296 1.536-2.16.416-.896.8-1.856 1.152-2.88.352-1.024.816-1.968 1.392-2.832.576-.896 1.344-1.632 2.304-2.208.96-.576 2.24-.864 3.84-.864.576 0 .864.32.864.96v12.288c0 .64-.288.96-.864.96H95.8297c-.64 0-.96-.32-.96-.96v-38.112c0-.64.32-.96.96-.96H125.11c.928 0 1.392.48 1.392 1.44 0 1.824-.4 3.376-1.2 4.656-.768 1.248-1.744 2.32-2.928 3.216-1.152.896-2.416 1.648-3.792 2.256-1.376.608-2.656 1.168-3.84 1.68-1.152.48-2.128.96-2.928 1.44-.768.48-1.152 1.024-1.152 1.632 0 .384.144.704.432.96.288.256.672.384 1.152.384.48 0 1.04-.128 1.68-.384l1.92-.864c.64-.32 1.248-.608 1.824-.864.608-.288 1.104-.432 1.488-.432.64 0 .96.4.96 1.2v8.64c0 .224-.128.464-.384.72-.224.224-.544.432-.96.624-.384.192-.832.352-1.344.48-.512.096-1.024.144-1.536.144-1.792 0-3.36-.544-4.704-1.632-1.344-1.12-2.272-2.592-2.784-4.416.256 2.24.496 4.528.72 6.864.256 2.336.464 4.608.624 6.816Zm-1.728-17.136c.096-1.568.464-2.864 1.104-3.888.672-1.024 1.392-1.952 2.16-2.784.768-.832 1.456-1.664 2.064-2.496.608-.864.912-1.888.912-3.072 0-1.856-1.088-2.784-3.264-2.784-1.376 0-2.336.4-2.88 1.2-.512.768-.768 2.192-.768 4.272 0 1.216.064 2.64.192 4.272.128 1.632.288 3.392.48 5.28Zm36.468 16.416v5.232c0 .64-.32.96-.96.96h-13.2c-.64 0-.96-.32-.96-.96v-38.112c0-.64.32-.96.96-.96h7.776c1.536 0 3.072.016 4.608.048H151.834c2.816 0 5.216.224 7.2.672 1.984.448 3.6 1.136 4.848 2.064 1.248.896 2.16 2.016 2.736 3.36.576 1.344.864 2.928.864 4.752 0 1.664-.24 3.152-.72 4.464-.48 1.312-1.248 2.448-2.304 3.408-1.056.928-2.416 1.696-4.08 2.304-1.632.608-3.616 1.056-5.952 1.344-.8.096-1.68.208-2.64.336-.96.128-1.888.368-2.784.72-.864.32-1.648.784-2.352 1.392-.704.608-1.216 1.456-1.536 2.544-.192.672-.352 1.584-.48 2.736-.096 1.12-.144 2.352-.144 3.696Zm.96-31.44c-.64 0-.96.32-.96.96v10.416c0 .896-.032 1.696-.096 2.4-.032.672-.112 1.328-.24 1.968-.128.608-.304 1.248-.528 1.92-.224.672-.512 1.424-.864 2.256-.448 1.056-.816 2.032-1.104 2.928-.256.896-.464 1.792-.624 2.688-.16.864-.272 1.776-.336 2.736-.064.96-.096 2.048-.096 3.264 0 .512.24.768.72.768s.72-.272.72-.816c.032-2.24.224-4.096.576-5.568.352-1.504.8-2.752 1.344-3.744.544-.992 1.152-1.792 1.824-2.4.704-.64 1.408-1.2 2.112-1.68.704-.48 1.392-.96 2.064-1.44.704-.48 1.312-1.072 1.824-1.776.544-.704.976-1.584 1.296-2.64.32-1.088.48-2.464.48-4.128 0-2.848-.624-4.896-1.872-6.144-1.248-1.248-3.328-1.904-6.24-1.968Zm50.964 12.336c-1.088.512-1.024.864.192 1.056 4 .64 6.896 1.904 8.688 3.792 1.792 1.856 2.688 4.464 2.688 7.824 0 2.208-.384 4.112-1.152 5.712-.736 1.568-1.904 2.864-3.504 3.888-1.568 1.024-3.584 1.792-6.048 2.304-2.432.48-5.328.72-8.688.72h-17.76c-.64 0-.96-.32-.96-.96v-38.112c0-.64.32-.96.96-.96h24.48c1.6 0 3.104.192 4.512.576 1.44.384 2.64 1.04 3.6 1.968.96.928 1.44 2.304 1.44 4.128 0 1.248-.24 2.272-.72 3.072-.448.8-1.072 1.488-1.872 2.064-.768.576-1.664 1.088-2.688 1.536-.992.448-2.048.912-3.168 1.392Zm-10.464-12.336c-.64 0-.96.304-.96.912v9.024c0 .832-.016 1.552-.048 2.16-.032.576-.096 1.12-.192 1.632-.064.48-.176.96-.336 1.44-.16.448-.368.976-.624 1.584-.992 2.368-1.712 4.704-2.16 7.008-.416 2.304-.624 4.896-.624 7.776 0 .512.256.768.768.768s.768-.272.768-.816c.032-2.848.304-5.28.816-7.296.512-2.048 1.136-3.808 1.872-5.28.768-1.504 1.584-2.8 2.448-3.888.864-1.12 1.664-2.176 2.4-3.168s1.344-2.016 1.824-3.072.72-2.272.72-3.648c0-.8-.112-1.52-.336-2.16-.192-.64-.544-1.168-1.056-1.584-.512-.448-1.2-.784-2.064-1.008-.832-.256-1.904-.384-3.216-.384Zm-.96 34.176c0 .576.32.864.96.864 1.376 0 2.576-.24 3.6-.72s1.872-1.152 2.544-2.016c.672-.896 1.168-1.952 1.488-3.168.32-1.216.48-2.56.48-4.032 0-1.888-.256-3.568-.768-5.04-.512-1.504-1.184-2.704-2.016-3.6-.192-.192-.416-.288-.672-.288-.288 0-.544.112-.768.336-.704.704-1.36 1.52-1.968 2.448-.576.928-1.088 2-1.536 3.216-.416 1.184-.752 2.544-1.008 4.08-.224 1.536-.336 3.264-.336 5.184v2.736Zm52.878-11.952c-.96 2.272-2.208 4.384-3.744 6.336s-3.232 3.648-5.088 5.088c-1.856 1.44-3.792 2.576-5.808 3.408-2.016.8-4 1.2-5.952 1.2-1.088 0-2.144-.144-3.168-.432-.256-.064-.464-.192-.624-.384-.16-.192-.24-.416-.24-.672v-12.624c0-.64.32-.96.96-.96.32 0 .704.16 1.152.48.48.288 1.008.672 1.584 1.152.608.448 1.264.944 1.968 1.488.736.544 1.488 1.056 2.256 1.536.8.448 1.632.832 2.496 1.152.864.288 1.744.432 2.64.432.992 0 1.888-.208 2.688-.624.8-.416 1.568-.944 2.304-1.584.32-.288.448-.528.384-.72-.064-.192-.32-.288-.768-.288h-8.544c-.64 0-1.088-.32-1.344-.96l-11.52-26.688c-.128-.288-.128-.512 0-.672.128-.192.336-.288.624-.288h13.296c.288 0 .624.096 1.008.288.416.16.672.384.768.672l8.736 22.32c.32.832.624 1.248.912 1.248.352 0 .64-.304.864-.912.224-.64.336-1.44.336-2.4 0-1.408-.208-2.704-.624-3.888-.416-1.216-.848-2.64-1.296-4.272-.416-1.664-.768-3.328-1.056-4.992-.256-1.696-.256-3.312 0-4.848.224-1.216.608-2.048 1.152-2.496.544-.48 1.376-.72 2.496-.72h11.232c.256 0 .432.064.528.192.096.128.096.304 0 .528-1.024 2.432-1.968 4.656-2.832 6.672-.832 2.016-1.648 3.984-2.448 5.904-.8 1.888-1.632 3.648-2.496 5.28-.832 1.6-1.776 3.616-2.832 6.048Zm40.247 15.456c-1.344 0-2.592-.448-3.744-1.344-1.152-.928-2.192-2.16-3.12-3.696-.896-1.536-1.664-3.296-2.304-5.28-.608-1.984-1.04-4.048-1.296-6.192-2.24 1.632-3.36 5.2-3.36 10.704v4.8c0 .64-.32.96-.96.96h-12.72c-.64 0-.96-.32-.96-.96v-38.112c0-.64.32-.96.96-.96h13.2c.64 0 .96.32.96.96v6.384c0 2.432-.224 4.656-.672 6.672-.416 1.984-.896 3.936-1.44 5.856-.512 1.888-.992 3.824-1.44 5.808-.448 1.984-.704 4.176-.768 6.576 0 .512.256.768.768.768.416 0 .656-.272.72-.816.192-3.104.688-5.6 1.488-7.488.832-1.888 2.16-3.312 3.984-4.272v-.912c0-3.328.48-6.256 1.44-8.784.96-2.56 2.32-4.704 4.08-6.432 1.76-1.728 3.856-3.024 6.288-3.888 2.432-.896 5.136-1.344 8.112-1.344 2.912 0 5.584.448 8.016 1.344 2.432.864 4.512 2.16 6.24 3.888 1.76 1.728 3.12 3.872 4.08 6.432.96 2.528 1.44 5.456 1.44 8.784 0 2.496-.272 4.976-.816 7.44-.544 2.432-1.296 4.624-2.256 6.576-.96 1.952-2.096 3.536-3.408 4.752-1.28 1.184-2.688 1.776-4.224 1.776h-18.288Zm6.432-8.688c.256.704.64 1.232 1.152 1.584.544.32 1.088.48 1.632.48.544 0 1.056-.16 1.536-.48.512-.32.896-.8 1.152-1.44.352-.864.624-2.448.816-4.752.192-2.304.288-5.088.288-8.352 0-4.032-.096-7.184-.288-9.456-.16-2.304-.4-3.888-.72-4.752-.256-.8-.656-1.392-1.2-1.776-.544-.384-1.12-.576-1.728-.576-.288 0-.576.048-.864.144-.256.064-.48.176-.672.336-.192.16-.32.368-.384.624-.032.256.048.544.24.864-.16.416-.368 1.008-.624 1.776-.224.768-.448 1.744-.672 2.928-.192 1.152-.368 2.512-.528 4.08-.16 1.568-.24 3.36-.24 5.376 0 1.632.032 3.168.096 4.608.064 1.408.144 2.704.24 3.888.096 1.152.208 2.16.336 3.024.128.832.272 1.456.432 1.872ZM11.0737 233c-1.53601 0-2.96001-.592-4.27201-1.776-1.312-1.216-2.448-2.8-3.408-4.752-.928-1.952-1.664-4.144-2.208-6.576-.544002-2.464-.816002-4.944-.816002-7.44 0-3.328.48-6.256 1.440002-8.784.96-2.56 2.32-4.704 4.08-6.432 1.76-1.728 3.856-3.024 6.28801-3.888 2.432-.896 5.136-1.344 8.112-1.344 2.912 0 5.584.448 8.016 1.344 2.432.864 4.512 2.16 6.24 3.888 1.76 1.728 3.12 3.872 4.08 6.432.96 2.528 1.44 5.456 1.44 8.784 0 2.496-.272 4.976-.816 7.44-.544 2.432-1.296 4.624-2.256 6.576-.96 1.952-2.096 3.536-3.408 4.752-1.28 1.184-2.688 1.776-4.224 1.776h-18.288Zm6.432-8.688c.256.704.64 1.232 1.152 1.584.544.32 1.088.48 1.632.48.544 0 1.056-.16 1.536-.48.512-.32.896-.8 1.152-1.44.352-.864.624-2.448.816-4.752.192-2.336.288-5.12.288-8.352 0-4-.096-7.152-.288-9.456-.16-2.304-.4-3.888-.72-4.752-.256-.8-.656-1.392-1.2-1.776-.544-.384-1.12-.576-1.728-.576-.544 0-1.056.16-1.536.48-.48.32-.848.816-1.104 1.488-.32.832-.592 2.4-.816 4.704-.192 2.272-.288 5.424-.288 9.456 0 1.632.032 3.168.096 4.608.064 1.408.144 2.704.24 3.888.096 1.152.208 2.144.336 2.976.128.832.272 1.472.432 1.92Zm52.7865-32.304c1.632 0 3.088.304 4.368.912 1.312.608 2.4 1.568 3.264 2.88.896 1.28 1.568 2.928 2.016 4.944.448 1.984.624 4.352.528 7.104-.064 1.856-.144 3.552-.24 5.088-.064 1.504-.144 2.992-.24 4.464-.096 1.472-.192 2.976-.288 4.512-.064 1.504-.128 3.184-.192 5.04-.032 1.12.08 1.952.336 2.496.256.512.848.848 1.776 1.008.352.064.608.224.768.48.192.224.288.496.288.816.032.288-.032.576-.192.864-.16.256-.4.432-.72.528-1.6.544-3.6.816-6 .816-2.112 0-3.904-.192-5.376-.576-1.472-.384-2.672-1.008-3.6-1.872-.896-.896-1.552-2.048-1.968-3.456-.384-1.408-.528-3.136-.432-5.184.064-1.472.128-2.8.192-3.984.096-1.184.192-2.352.288-3.504.096-1.152.176-2.32.24-3.504.096-1.184.176-2.512.24-3.984.064-1.76.096-3.248.096-4.464 0-1.216-.048-2.208-.144-2.976-.096-.768-.256-1.312-.48-1.632-.224-.352-.528-.528-.912-.528-.704 0-1.408.544-2.112 1.632-.704 1.088-1.344 2.528-1.92 4.32-.544 1.792-.992 3.824-1.344 6.096-.32 2.272-.48 4.592-.48 6.96v14.736c0 .64-.32.96-.96.96h-13.2c-.64 0-.96-.32-.96-.96v-38.112c0-.64.32-.96.96-.96h13.68c.64 0 .96.32.96.96 0 1.184-.224 2.464-.672 3.84-.448 1.344-.944 2.864-1.488 4.56-.544 1.664-1.04 3.536-1.488 5.616-.448 2.048-.672 4.384-.672 7.008 0 .512.256.768.768.768s.768-.272.768-.816c.16-3.2.56-6.192 1.2-8.976.672-2.784 1.6-5.2 2.784-7.248 1.216-2.08 2.688-3.712 4.416-4.896 1.76-1.184 3.808-1.776 6.144-1.776ZM94.8862 233c-1.536 0-2.96-.592-4.272-1.776-1.312-1.216-2.448-2.8-3.408-4.752-.928-1.952-1.664-4.144-2.208-6.576-.544-2.464-.816-4.944-.816-7.44 0-3.328.48-6.256 1.44-8.784.96-2.56 2.32-4.704 4.08-6.432 1.76-1.728 3.856-3.024 6.288-3.888 2.432-.896 5.1358-1.344 8.1118-1.344 2.912 0 5.584.448 8.016 1.344 2.432.864 4.512 2.16 6.24 3.888 1.76 1.728 3.12 3.872 4.08 6.432.96 2.528 1.44 5.456 1.44 8.784 0 2.496-.272 4.976-.816 7.44-.544 2.432-1.296 4.624-2.256 6.576-.96 1.952-2.096 3.536-3.408 4.752-1.28 1.184-2.688 1.776-4.224 1.776H94.8862Zm6.4318-8.688c.256.704.64 1.232 1.152 1.584.544.32 1.088.48 1.632.48.544 0 1.056-.16 1.536-.48.512-.32.896-.8 1.152-1.44.352-.864.624-2.448.816-4.752.192-2.336.288-5.12.288-8.352 0-4-.096-7.152-.288-9.456-.16-2.304-.4-3.888-.72-4.752-.256-.8-.656-1.392-1.2-1.776-.544-.384-1.12-.576-1.728-.576-.544 0-1.056.16-1.536.48-.48.32-.848.816-1.104 1.488-.32.832-.592 2.4-.816 4.704-.192 2.272-.288 5.424-.288 9.456 0 1.632.032 3.168.096 4.608.064 1.408.144 2.704.24 3.888.096 1.152.208 2.144.336 2.976.128.832.272 1.472.432 1.92Zm40.547 2.496v5.232c0 .64-.32.96-.96.96h-13.2c-.64 0-.96-.32-.96-.96v-38.112c0-.64.32-.96.96-.96h7.776c1.536 0 3.072.016 4.608.048H149.209c2.816 0 5.216.224 7.2.672 1.984.448 3.6 1.136 4.848 2.064 1.248.896 2.16 2.016 2.736 3.36.576 1.344.864 2.928.864 4.752 0 1.664-.24 3.152-.72 4.464-.48 1.312-1.248 2.448-2.304 3.408-1.056.928-2.416 1.696-4.08 2.304-1.632.608-3.616 1.056-5.952 1.344-.8.096-1.68.208-2.64.336-.96.128-1.888.368-2.784.72-.864.32-1.648.784-2.352 1.392-.704.608-1.216 1.456-1.536 2.544-.192.672-.352 1.584-.48 2.736-.096 1.12-.144 2.352-.144 3.696Zm.96-31.44c-.64 0-.96.32-.96.96v10.416c0 .896-.032 1.696-.096 2.4-.032.672-.112 1.328-.24 1.968-.128.608-.304 1.248-.528 1.92-.224.672-.512 1.424-.864 2.256-.448 1.056-.816 2.032-1.104 2.928-.256.896-.464 1.792-.624 2.688-.16.864-.272 1.776-.336 2.736-.064.96-.096 2.048-.096 3.264 0 .512.24.768.72.768s.72-.272.72-.816c.032-2.24.224-4.096.576-5.568.352-1.504.8-2.752 1.344-3.744.544-.992 1.152-1.792 1.824-2.4.704-.64 1.408-1.2 2.112-1.68.704-.48 1.392-.96 2.064-1.44.704-.48 1.312-1.072 1.824-1.776.544-.704.976-1.584 1.296-2.64.32-1.088.48-2.464.48-4.128 0-2.848-.624-4.896-1.872-6.144-1.248-1.248-3.328-1.904-6.24-1.968Zm51.684 22.224c-.96 2.272-2.208 4.384-3.744 6.336s-3.232 3.648-5.088 5.088c-1.856 1.44-3.792 2.576-5.808 3.408-2.016.8-4 1.2-5.952 1.2-1.088 0-2.144-.144-3.168-.432-.256-.064-.464-.192-.624-.384-.16-.192-.24-.416-.24-.672v-12.624c0-.64.32-.96.96-.96.32 0 .704.16 1.152.48.48.288 1.008.672 1.584 1.152.608.448 1.264.944 1.968 1.488.736.544 1.488 1.056 2.256 1.536.8.448 1.632.832 2.496 1.152.864.288 1.744.432 2.64.432.992 0 1.888-.208 2.688-.624.8-.416 1.568-.944 2.304-1.584.32-.288.448-.528.384-.72-.064-.192-.32-.288-.768-.288h-8.544c-.64 0-1.088-.32-1.344-.96l-11.52-26.688c-.128-.288-.128-.512 0-.672.128-.192.336-.288.624-.288h13.296c.288 0 .624.096 1.008.288.416.16.672.384.768.672l8.736 22.32c.32.832.624 1.248.912 1.248.352 0 .64-.304.864-.912.224-.64.336-1.44.336-2.4 0-1.408-.208-2.704-.624-3.888-.416-1.216-.848-2.64-1.296-4.272-.416-1.664-.768-3.328-1.056-4.992-.256-1.696-.256-3.312 0-4.848.224-1.216.608-2.048 1.152-2.496.544-.48 1.376-.72 2.496-.72h11.232c.256 0 .432.064.528.192.096.128.096.304 0 .528-1.024 2.432-1.968 4.656-2.832 6.672-.832 2.016-1.648 3.984-2.448 5.904-.8 1.888-1.632 3.648-2.496 5.28-.832 1.6-1.776 3.616-2.832 6.048Zm11.543 10.752c0-1.984.496-3.392 1.488-4.224 1.024-.864 2.72-1.296 5.088-1.296 2.4 0 4.096.432 5.088 1.296 1.024.832 1.536 2.24 1.536 4.224 0 2.016-.512 3.456-1.536 4.32-.992.864-2.688 1.296-5.088 1.296-2.368 0-4.064-.432-5.088-1.296-.992-.864-1.488-2.304-1.488-4.32Zm60.775-16.368v-3.36c0-.544-.16-.832-.48-.864-.32-.032-.528.272-.624.912-.032.224-.064.512-.096.864-.032.32-.08.656-.144 1.008-.032.32-.08.64-.144.96-.032.32-.064.576-.096.768-.704 2.912-1.984 5.136-3.84 6.672-1.824 1.504-4.144 2.32-6.96 2.448-1.76.064-3.408-.064-4.944-.384-1.504-.32-2.832-.944-3.984-1.872-1.12-.96-2.032-2.256-2.736-3.888-.704-1.664-1.136-3.776-1.296-6.336-.064-1.696-.048-3.328.048-4.896s.176-3.232.24-4.992c.032-1.12-.08-1.936-.336-2.448-.256-.544-.848-.896-1.776-1.056-.352-.064-.624-.224-.816-.48-.16-.256-.256-.528-.288-.816 0-.288.064-.56.192-.816.16-.288.416-.48.768-.576 1.632-.544 3.632-.816 6-.816 2.08 0 3.856.192 5.328.576 1.472.352 2.656.96 3.552 1.824.928.864 1.584 2 1.968 3.408.384 1.408.528 3.136.432 5.184-.032.832-.064 1.808-.096 2.928 0 1.12-.016 2.048-.048 2.784-.032 1.056-.032 2.032 0 2.928.032.864.112 1.616.24 2.256.16.608.4 1.104.72 1.488.32.352.752.528 1.296.528 1.024 0 1.84-.464 2.448-1.392.64-.96 1.136-2.24 1.488-3.84.224-1.024.4-2.208.528-3.552.16-1.344.272-2.752.336-4.224.064-1.504.096-3.024.096-4.56.032-1.536.048-3.008.048-4.416 0-.64.32-.96.96-.96h12.576c.64 0 .96.32.96.96v38.112c0 .64-.32.96-.96.96h-13.68c-.64 0-.96-.32-.96-.96 0-1.152.192-2.384.576-3.696.416-1.312.864-2.768 1.344-4.368.512-1.6.976-3.376 1.392-5.328.448-1.984.704-4.208.768-6.672ZM306.733 233h-14.16c-.64 0-.96-.32-.96-.96.064-2.528.24-5.248.528-8.16.288-2.944.576-5.856.864-8.736.32-2.88.608-5.616.864-8.208.256-2.624.384-4.88.384-6.768 0-1.824-.144-3.072-.432-3.744-.256-.704-.688-1.056-1.296-1.056-.64 0-1.088.288-1.344.864-.256.576-.48 1.312-.672 2.208-.16.864-.368 1.808-.624 2.832-.224 1.024-.64 1.984-1.248 2.88-.608.864-1.472 1.584-2.592 2.16-1.12.576-2.624.864-4.512.864-.672 0-1.008-.32-1.008-.96v-12.288c0-.64.336-.96 1.008-.96h36.24c.672 0 1.008.32 1.008.96v12.288c0 .64-.336.96-1.008.96-1.92 0-3.44-.288-4.56-.864-1.088-.576-1.936-1.296-2.544-2.16-.608-.896-1.04-1.856-1.296-2.88-.224-1.024-.432-1.968-.624-2.832-.16-.896-.368-1.632-.624-2.208-.256-.576-.704-.864-1.344-.864-.608 0-1.056.352-1.344 1.056-.256.672-.384 1.92-.384 3.744 0 1.888.128 4.144.384 6.768.256 2.592.528 5.328.816 8.208.32 2.88.624 5.792.912 8.736.288 2.912.464 5.632.528 8.16 0 .64-.32.96-.96.96Zm24.919 0c-1.536 0-2.96-.592-4.272-1.776-1.312-1.216-2.448-2.8-3.408-4.752-.928-1.952-1.664-4.144-2.208-6.576-.544-2.464-.816-4.944-.816-7.44 0-3.328.48-6.256 1.44-8.784.96-2.56 2.32-4.704 4.08-6.432 1.76-1.728 3.856-3.024 6.288-3.888 2.432-.896 5.136-1.344 8.112-1.344 2.912 0 5.584.448 8.016 1.344 2.432.864 4.512 2.16 6.24 3.888 1.76 1.728 3.12 3.872 4.08 6.432.96 2.528 1.44 5.456 1.44 8.784 0 2.496-.272 4.976-.816 7.44-.544 2.432-1.296 4.624-2.256 6.576-.96 1.952-2.096 3.536-3.408 4.752-1.28 1.184-2.688 1.776-4.224 1.776h-18.288Zm6.432-8.688c.256.704.64 1.232 1.152 1.584.544.32 1.088.48 1.632.48.544 0 1.056-.16 1.536-.48.512-.32.896-.8 1.152-1.44.352-.864.624-2.448.816-4.752.192-2.336.288-5.12.288-8.352 0-4-.096-7.152-.288-9.456-.16-2.304-.4-3.888-.72-4.752-.256-.8-.656-1.392-1.2-1.776-.544-.384-1.12-.576-1.728-.576-.544 0-1.056.16-1.536.48-.48.32-.848.816-1.104 1.488-.32.832-.592 2.4-.816 4.704-.192 2.272-.288 5.424-.288 9.456 0 1.632.032 3.168.096 4.608.064 1.408.144 2.704.24 3.888.096 1.152.208 2.144.336 2.976.128.832.272 1.472.432 1.92ZM52.5751 242.024c0-.64.32-.96.96-.96h13.584c.672 0 1.008.32 1.008.96v36.528h3.36c.672 0 1.008.32 1.008.96v12.24c0 .608-.336.912-1.008.912-1.984 0-3.552-.288-4.704-.864-1.12-.576-2-1.296-2.64-2.16-.608-.864-1.04-1.808-1.296-2.832-.256-.992-.48-1.92-.672-2.784-.16-.864-.384-1.584-.672-2.16-.256-.576-.704-.864-1.344-.864h-20.304c-.576.32-.976.816-1.2 1.488-.224.704-.432 1.488-.624 2.352-.192.864-.432 1.76-.72 2.688-.256.928-.72 1.76-1.392 2.496-.64.768-1.552 1.392-2.736 1.872-1.152.512-2.704.768-4.656.768-.672 0-1.008-.304-1.008-.912v-12.24c0-.64.336-.96 1.008-.96h7.344c-1.952-.8-3.488-2.048-4.608-3.744-1.088-1.728-1.6-3.792-1.536-6.192.064-1.888.432-3.568 1.104-5.04.672-1.472 1.52-2.768 2.544-3.888 1.056-1.12 2.208-2.08 3.456-2.88 1.248-.832 2.464-1.536 3.648-2.112 1.216-.576 2.32-1.056 3.312-1.44 1.024-.416 1.824-.768 2.4-1.056.448-.224.608-.448.48-.672-.096-.256-.384-.4-.864-.432-.544 0-1.216.112-2.016.336-.768.224-1.568.464-2.4.72-.832.256-1.632.496-2.4.72-.768.192-1.408.272-1.92.24-.96 0-1.424-.416-1.392-1.248l-.048-9.552c0-.352.224-.624.672-.816.448-.192.976-.32 1.584-.384.64-.096 1.28-.144 1.92-.144h1.488c3.072 0 5.568.528 7.488 1.584 1.92 1.056 3.088 2.4 3.504 4.032.256 1.088.272 2.064.048 2.928-.192.832-.512 1.648-.96 2.448-.448.8-.992 1.648-1.632 2.544-.608.864-1.2 1.856-1.776 2.976-.544 1.12-1.04 2.432-1.488 3.936-.416 1.504-.656 3.28-.72 5.328-.064 1.248-.016 2.48.144 3.696.16 1.216.352 2.336.576 3.36.256 1.024.544 1.952.864 2.784.32.832.624 1.488.912 1.968h4.32v-36.528Zm55.5219-1.056c.672 0 1.008.336 1.008 1.008v38.016c0 .672-.336 1.008-1.008 1.008H94.9929c-.672 0-1.008-.336-1.008-1.008.032-1.952.048-4 .048-6.144.032-2.176.032-4.336 0-6.48 0-2.144-.016-4.224-.048-6.24-.032-2.048-.096-3.936-.192-5.664-.096-1.76-.224-3.296-.384-4.608-.128-1.344-.304-2.384-.528-3.12-.32-1.024-.784-1.536-1.392-1.536-.576 0-1.152.48-1.728 1.44-.48.8-.992 1.936-1.536 3.408-.544 1.44-1.04 3.024-1.488 4.752-.416 1.696-.768 3.44-1.056 5.232-.288 1.792-.432 3.408-.432 4.848 0 1.216.112 2.096.336 2.64.224.512.592.768 1.104.768.448 0 .88-.192 1.296-.576.416-.384.752-.912 1.008-1.584s.768-1.008 1.536-1.008c.736 0 1.152.32 1.248.96.128.736.224 1.472.288 2.208.064.704.096 1.392.096 2.064 0 1.632-.208 3.104-.624 4.416-.416 1.28-1.024 2.384-1.824 3.312-.768.928-1.696 1.632-2.784 2.112-1.088.512-2.304.768-3.648.768-2.72 0-4.832-.976-6.336-2.928-1.472-1.952-2.208-4.704-2.208-8.256 0-2.208.208-4.416.624-6.624.448-2.208 1.056-4.32 1.824-6.336.768-2.048 1.664-3.952 2.688-5.712 1.056-1.792 2.176-3.328 3.36-4.608 1.216-1.312 2.464-2.336 3.744-3.072 1.312-.768 2.608-1.152 3.888-1.152 1.088 0 1.952.288 2.592.864.672.576 1.2 1.456 1.584 2.64.384 1.184.656 2.688.816 4.512.16 1.824.288 4 .384 6.528 0 .544.256.816.768.816s.768-.256.768-.768c0-3.04-.176-5.52-.528-7.44-.32-1.92-.688-3.456-1.104-4.608-.416-1.184-.8-2.064-1.152-2.64-.32-.608-.48-1.072-.48-1.392 0-.256.096-.448.288-.576.192-.16.416-.24.672-.24h12.6241Zm22.77 2.88c-1.056 0-1.808.544-2.256 1.632-.416 1.056-.656 2.448-.72 4.176-.032 1.728.064 3.68.288 5.856.256 2.144.512 4.24.768 6.288.288 2.048.528 4.08.72 6.096.224 2.016.272 3.728.144 5.136-.224 2.816-1.328 4.944-3.312 6.384-1.952 1.408-5.024 2.112-9.216 2.112-1.216 0-2.304-.064-3.264-.192-.928-.128-1.808-.336-2.64-.624-.288-.096-.496-.272-.624-.528-.128-.288-.176-.576-.144-.864.032-.32.144-.592.336-.816.224-.256.528-.416.912-.48.928-.16 1.552-.496 1.871-1.008.353-.544.577-1.376.673-2.496.192-1.856.336-3.536.432-5.04.096-1.504.176-2.896.24-4.176.064-1.28.112-2.496.144-3.648.064-1.152.144-2.16.24-3.024.128-1.248.288-2.56.48-3.936s.48-2.72.864-4.032c.384-1.312.864-2.544 1.44-3.696.576-1.184 1.312-2.208 2.208-3.072.896-.896 1.936-1.6 3.12-2.112 1.216-.544 2.64-.816 4.272-.816h7.776c1.632 0 3.056.272 4.272.816 1.216.512 2.256 1.216 3.12 2.112.864.864 1.584 1.888 2.16 3.072.608 1.152 1.104 2.384 1.488 3.696.384 1.312.672 2.656.864 4.032.224 1.376.384 2.688.48 3.936.096.864.16 1.872.192 3.024.064 1.152.128 2.368.192 3.648.064 1.28.144 2.672.24 4.176s.24 3.184.432 5.04c.096 1.12.304 1.952.624 2.496.352.512.992.848 1.92 1.008.384.064.672.224.864.48.224.224.352.496.384.816.032.288-.016.576-.144.864-.128.256-.336.432-.624.528-.832.288-1.728.496-2.688.624-.928.128-2 .192-3.216.192-2.112 0-3.936-.176-5.472-.528-1.504-.352-2.768-.88-3.792-1.584-.992-.736-1.76-1.632-2.304-2.688-.512-1.056-.832-2.288-.96-3.696-.096-1.408-.048-3.12.144-5.136s.416-4.048.672-6.096c.288-2.048.544-4.144.767-6.288.257-2.176.353-4.128.289-5.856-.032-1.728-.272-3.12-.721-4.176-.415-1.088-1.151-1.632-2.207-1.632h-1.728Zm38.584 3.312c0 1.344.048 2.592.144 3.744.128 1.12.288 2.016.48 2.688.32 1.088.832 1.936 1.536 2.544.704.608 1.488 1.088 2.352 1.44.896.32 1.824.544 2.784.672.96.128 1.84.24 2.64.336 2.336.288 4.32.736 5.952 1.344 1.664.608 3.024 1.392 4.08 2.352 1.056.928 1.824 2.048 2.304 3.36.48 1.312.72 2.8.72 4.464 0 1.824-.288 3.408-.864 4.752-.576 1.344-1.488 2.48-2.736 3.408-1.248.896-2.864 1.568-4.848 2.016-1.984.448-4.384.672-7.2.672h-4.896c-1.28 0-2.688.016-4.224.048h-12.384c-.64 0-.96-.32-.96-.96v-38.112c0-.64.32-.96.96-.96h13.2c.64 0 .96.32.96.96v5.232Zm.96 31.44c2.912-.064 4.992-.72 6.24-1.968 1.248-1.248 1.872-3.296 1.872-6.144 0-1.664-.16-3.024-.48-4.08-.32-1.088-.752-1.984-1.296-2.688-.512-.704-1.12-1.296-1.824-1.776-.672-.48-1.36-.96-2.064-1.44s-1.408-1.024-2.112-1.632c-.672-.64-1.28-1.456-1.824-2.448s-.992-2.224-1.344-3.696c-.352-1.504-.544-3.376-.576-5.616 0-.544-.24-.816-.72-.816s-.72.256-.72.768c0 1.216.032 2.304.096 3.264s.176 1.888.336 2.784c.16.864.368 1.744.624 2.64.288.896.656 1.872 1.104 2.928.352.832.64 1.584.864 2.256.224.672.4 1.328.528 1.968.128.608.208 1.264.24 1.968.064.672.096 1.456.096 2.352v10.416c0 .64.32.96.96.96Zm58.164 3.36c-1.6 0-2.976-.256-4.128-.768-1.152-.48-2.048-1.184-2.688-2.112-.608-.96-.96-2.112-1.056-3.456-.064-1.376.192-2.928.768-4.656.256-.8.496-1.696.72-2.688.224-1.024.416-2.064.576-3.12.192-1.088.336-2.16.432-3.216.096-1.056.144-2.032.144-2.928 0-.512-.256-.768-.768-.768s-.768.272-.768.816c-.16 3.2-.576 6.192-1.248 8.976-.64 2.784-1.568 5.216-2.784 7.296-1.184 2.048-2.656 3.664-4.416 4.848-1.728 1.184-3.76 1.776-6.096 1.776-1.632 0-3.104-.304-4.416-.912-1.28-.608-2.368-1.552-3.264-2.832-.864-1.312-1.52-2.96-1.968-4.944-.448-2.016-.624-4.4-.528-7.152.064-1.856.128-3.536.192-5.04.096-1.536.192-3.04.288-4.512.096-1.472.176-2.96.24-4.464.096-1.536.176-3.232.24-5.088.032-1.12-.08-1.936-.336-2.448-.256-.544-.848-.896-1.776-1.056-.352-.064-.624-.224-.816-.48-.16-.256-.256-.528-.288-.816 0-.288.064-.56.192-.816.16-.288.416-.48.768-.576 1.632-.544 3.632-.816 6-.816 2.08 0 3.856.192 5.328.576 1.504.384 2.72 1.024 3.648 1.92.928.864 1.584 2 1.968 3.408.384 1.408.528 3.136.432 5.184-.064 1.472-.144 2.8-.24 3.984-.064 1.184-.144 2.352-.24 3.504-.096 1.152-.192 2.32-.288 3.504-.064 1.184-.128 2.512-.192 3.984-.064 1.76-.096 3.248-.096 4.464 0 1.216.048 2.208.144 2.976.096.768.256 1.328.48 1.68.224.32.528.48.912.48.704 0 1.408-.544 2.112-1.632.704-1.088 1.328-2.528 1.872-4.32.576-1.792 1.024-3.824 1.344-6.096.352-2.272.528-4.592.528-6.96v-14.736c0-.64.32-.96.96-.96h13.2c.64 0 .96.32.96.96V256.904c0 3.392-.08 6.928-.24 10.608-.128 2.816-.096 4.88.096 6.192.192 1.312.656 1.968 1.392 1.968.704 0 1.408-.544 2.112-1.632.704-1.088 1.328-2.528 1.872-4.32.576-1.792 1.024-3.824 1.344-6.096.352-2.272.528-4.592.528-6.96l-.144-14.736c0-.64.32-.96.96-.96h12.576c.64 0 .96.32.96.96l.768 38.112c0 .64-.32.96-.96.96h-13.68c-.64 0-.96-.32-.96-.96 0-1.184.224-2.448.672-3.792.448-1.376.944-2.896 1.488-4.56.544-1.696 1.04-3.568 1.488-5.616.448-2.08.672-4.432.672-7.056 0-.512-.256-.768-.768-.768s-.768.272-.768.816c-.16 2.976-.512 5.776-1.056 8.4-.512 2.624-1.28 4.944-2.304 6.96-.992 2.016-2.256 3.68-3.792 4.992-1.536 1.28-3.36 2.08-5.472 2.4-.352.064-.832.096-1.44.096-.576.032-1.04.048-1.392.048Zm45.87-6.432c.064 1.12.368 1.92.912 2.4.544.448 1.264.672 2.16.672 1.12 0 1.984-.288 2.592-.864.608-.576 1.12-1.296 1.536-2.16.416-.896.8-1.856 1.152-2.88.352-1.024.816-1.968 1.392-2.832.576-.896 1.344-1.632 2.304-2.208.96-.576 2.24-.864 3.84-.864.576 0 .864.32.864.96v12.288c0 .64-.288.96-.864.96h-29.808c-.64 0-.96-.32-.96-.96v-38.112c0-.64.32-.96.96-.96h29.28c.928 0 1.392.48 1.392 1.44 0 1.824-.4 3.376-1.2 4.656-.768 1.248-1.744 2.32-2.928 3.216-1.152.896-2.416 1.648-3.792 2.256-1.376.608-2.656 1.168-3.84 1.68-1.152.48-2.128.96-2.928 1.44-.768.48-1.152 1.024-1.152 1.632 0 .384.144.704.432.96.288.256.672.384 1.152.384.48 0 1.04-.128 1.68-.384l1.92-.864c.64-.32 1.248-.608 1.824-.864.608-.288 1.104-.432 1.488-.432.64 0 .96.4.96 1.2v8.64c0 .224-.128.464-.384.72-.224.224-.544.432-.96.624-.384.192-.832.352-1.344.48-.512.096-1.024.144-1.536.144-1.792 0-3.36-.544-4.704-1.632-1.344-1.12-2.272-2.592-2.784-4.416.256 2.24.496 4.528.72 6.864.256 2.336.464 4.608.624 6.816Zm-1.728-17.136c.096-1.568.464-2.864 1.104-3.888.672-1.024 1.392-1.952 2.16-2.784.768-.832 1.456-1.664 2.064-2.496.608-.864.912-1.888.912-3.072 0-1.856-1.088-2.784-3.264-2.784-1.376 0-2.336.4-2.88 1.2-.512.768-.768 2.192-.768 4.272 0 1.216.064 2.64.192 4.272.128 1.632.288 3.392.48 5.28Zm37.812 8.736c-.288 0-.528-.08-.72-.24-.192-.192-.272-.432-.24-.72.096-1.6.352-2.912.768-3.936.416-1.024.912-1.904 1.488-2.64.576-.768 1.184-1.44 1.824-2.016.672-.576 1.28-1.216 1.824-1.92.576-.704 1.04-1.536 1.392-2.496.384-.96.576-2.176.576-3.648 0-4.096-1.52-6.144-4.56-6.144-1.568 0-2.8.528-3.696 1.584-.896 1.056-1.344 2.496-1.344 4.32 0 1.12.16 2.048.48 2.784.352.736.832 1.232 1.44 1.488.352.128.592.32.72.576.16.224.224.464.192.72-.032.224-.144.432-.336.624-.16.16-.384.272-.672.336-.512.064-1.008.112-1.488.144-.48.032-.944.048-1.392.048-4.064 0-7.04-.56-8.928-1.68-1.888-1.12-2.832-2.88-2.832-5.28 0-1.44.352-2.672 1.056-3.696.736-1.024 1.872-1.856 3.408-2.496 1.568-.64 3.568-1.104 6-1.392 2.432-.32 5.36-.48 8.784-.48.736 0 1.68.032 2.832.096 1.152.032 2.384.144 3.696.336 1.312.192 2.624.512 3.936.96 1.312.416 2.496 1.008 3.552 1.776 1.056.736 1.92 1.696 2.592 2.88.672 1.152 1.008 2.56 1.008 4.224 0 1.824-.4 3.312-1.2 4.464-.8 1.12-1.808 2.048-3.024 2.784-1.216.704-2.544 1.296-3.984 1.776-1.44.448-2.816.928-4.128 1.44-1.28.48-2.4 1.056-3.36 1.728-.928.672-1.504 1.584-1.728 2.736-.096.64-.448.96-1.056.96h-2.88Zm-5.28 8.304c0-1.984.496-3.392 1.488-4.224 1.024-.864 2.704-1.296 5.04-1.296 2.4 0 4.096.432 5.088 1.296 1.024.832 1.536 2.24 1.536 4.224 0 2.016-.512 3.456-1.536 4.32-.992.832-2.688 1.248-5.088 1.248-2.336 0-4.016-.416-5.04-1.248-.992-.864-1.488-2.304-1.488-4.32ZM166.534.319999h27.936V12.416c-1.6.512-3.024 1.536-4.272 3.072-.544.672-1.072 1.488-1.584 2.448s-.976 2.112-1.392 3.456c-.384 1.344-.704 2.896-.96 4.656-.224 1.76-.336 3.76-.336 6h-15.744c0-3.52.432-6.608 1.296-9.264.896-2.688 2.128-4.928 3.696-6.72 1.6-1.824 3.52-3.184 5.76-4.08 2.24-.928 4.736-1.392 7.488-1.392v-.72h-21.888V.319999Z"/>
</svg>
