<svg xmlns="http://www.w3.org/2000/svg" width="327" height="311" fill="none">
  <path fill="#7583A5" d="M67.7144 122.88c-1.44 12.06-8.22 16.2-16.26 16.2-9.36-.48-16.08-7.8-16.08-19.2 0-11.4 6.3-18.96 16.38-18.96 6.9 0 12.42 3.54 14.16 10.5h1.44l-1.26-9.06c-3.66-2.4-8.46-4.2-14.4-4.2-13.2 0-21.78 8.76-21.78 21.78 0 13.2 8.94 21.9 21.48 21.9 8.28 0 13.74-3.84 16.92-9.06l.78-9.9h-1.38Zm19.1859-18.48c.06-1.44 1.2-2.64 2.58-2.64H102.68c1.38 0 2.58 1.26 2.64 2.76v32.28c-.06 1.44-1.26 2.64-2.7 2.64h-1.14V141h12.54l-.18-1.56h-1.08c-1.44 0-2.64-1.2-2.7-2.64v-33.6c.06-1.38 1.26-2.52 2.7-2.52h1.14v-1.62H78.2603v1.62h1.14c1.44 0 2.64 1.2 2.7 2.64v26.46c-.06.78-.24 1.56-.48 2.34-.72 2.34-1.92 4.38-3.6 5.76-.84.66-2.22 1.14-4.08 1.5v1.56c5.1 0 7.56-1.32 9.66-3.48 1.02-1.14 1.86-2.4 2.46-3.9.3-.66.48-1.38.6-2.1l.24-.24v-1.08c.06-.48.06-.96.06-1.44l-.06-24.3Zm61.2257 26.16h-1.62c-1.74 4.5-4.2 7.68-10.08 7.68h-7.86v-16.62h9.42c1.2.06 2.28 1.14 2.28 2.4v1.38h1.56v-10.2h-1.56v1.32c0 1.38-1.02 2.4-2.4 2.46h-9.36v-17.1h11.4c1.62.18 2.82 1.38 2.82 3v1.56h1.56V97.8c-1.32.66-5.1 1.32-7.5 1.32h-17.64v1.56h1.26c1.68 0 3.06 1.26 3.24 2.88v32.76c-.18 1.86-1.44 3.24-3.3 3.24h-1.26v1.56h25.2l3.84-10.56Zm40.269 7.38c-.36-.48-.54-1.02-.6-1.62V103.2c.06-1.38 1.26-2.52 2.7-2.52h1.14v-1.62l-29.16-.12v1.62h1.14c1.44 0 2.64 1.2 2.7 2.64l-6.48 33.12c-.06.6-.24 1.14-.6 1.56h-6.72l-2.76 10.8h1.62c.9-2.22 2.1-4.14 3-5.52.48-.66 1.26-1.2 2.34-1.62.78-.3 1.5-.48 2.28-.54h28.92c1.14.06 2.16.24 3.06.54 2.16.78 2.7 2.16 3.84 4.02.54.96 1.08 1.98 1.5 3.12h1.62l-2.76-10.74h-6.78Zm-5.34-1.62c-.06.6-.24 1.14-.6 1.62l-18.06-.06c-.3-.42-.48-.96-.54-1.56l6.48-32.04c.06-1.44 1.2-2.64 2.58-2.64l7.5.12c1.38 0 2.58 1.26 2.64 2.76v31.8ZM219.691 99v1.56h.9c1.74 0 3.18 1.5 3.24 3.24l-6.36 19.44c-6-13.08-9.12-20.16-9.42-21.3-.24-1.14.54-1.62 2.4-1.5h.78V99h-12.66v1.5h1.26c.9 0 1.8.42 2.7 1.32.96.9 5.4 9.84 13.26 26.82l-.18.78c-1.14 3.12-2.1 5.16-2.94 6.18-.78 1.02-1.8 1.86-2.94 2.64-1.14.72-3.66 1.08-7.44 1.08v1.74c4.86.06 7.92-.12 9.24-.6 1.32-.54 2.52-1.38 3.6-2.58 2.16-2.46 3.24-5.7 4.02-8.28l8.22-25.8c.72-1.74 1.98-3.24 3.72-3.24h1.26V99h-12.66Zm29.842 40.38h-1.26c-1.86 0-3.12-1.44-3.3-3.18v-15.24h6.12c.06 2.94.6 5.58 1.56 7.98 3.24 7.98 10.38 12.9 20.04 12.9 12.72 0 21.6-8.7 21.6-21.84s-8.88-21.84-21.6-21.84c-9.66 0-16.8 4.92-20.04 12.9-.9 2.22-1.38 4.68-1.56 7.26h-6.12v-14.64c.18-1.74 1.44-3.24 3.3-3.24h1.26v-1.56h-13.86v1.56h1.26c1.86 0 3.12 1.5 3.3 3.24v32.52c-.18 1.74-1.44 3.18-3.3 3.18h-1.26v1.56h13.86v-1.56Zm23.16-.3c-9.66 0-16.08-7.62-16.08-19.08v-.84c.06-2.58.48-4.86 1.14-6.96 2.22-6.96 7.74-11.28 14.94-11.28 9.72 0 16.14 7.62 16.14 19.08 0 11.46-6.42 19.08-16.14 19.08ZM64.0879 153.06h-12.54v1.56h1.14c1.44 0 2.64 1.2 2.7 2.64v32.28c-.06 1.5-1.26 2.76-2.64 2.76h-8.94c-.66 0-1.26-.24-1.8-.78-.36-.36-.6-.78-.72-1.32v-33.36c.06-.06.06-.06.06-.12.06-.3.24-.6.42-.9.06-.06.06-.12.12-.18l.36-.36c.06-.06.12-.06.18-.12.12-.06.24-.18.3-.24.18-.06.42-.18.66-.24.12 0 .24 0 .3-.06h1.38l.18-1.56h-12.66v1.56h1.38c.6.06 1.14.36 1.62.78.54.54.78 1.14.84 1.86v33l-.06.12c-.06.06-.06.18-.12.3-.06.06-.06.18-.12.3-.06.06-.12.18-.18.24s-.18.18-.24.3c-.3.3-.66.54-1.08.66-.06.06-.18.06-.3.12h-9.72c-.48-.12-.9-.36-1.32-.78l-.12-.12c-.24-.3-.42-.54-.54-.84 0-.06 0-.18-.06-.24 0-.18 0-.3-.06-.48v-32.58c.06-.6.24-1.14.6-1.62l.24-.24c.54-.54 1.14-.78 1.86-.78h1.14v-1.56h-12.48v1.56h1.38c.06 0 .18 0 .24.06h.12c.06.06.18.06.3.12.18.06.36.18.54.24.12.12.24.24.42.36.48.48.78 1.08.84 1.74v33.6c0 .18 0 .3-.06.48l-.06.18-.24.6c-.06.18-.18.3-.36.48l-.12.12c-.18.18-.42.36-.66.54h-.06c-.36.18-.72.24-1.14.24h-1.14V195h44.04c.9.06 1.68.24 2.34.48 2.16.78 2.7 2.16 3.84 4.02.54.96 1.08 1.98 1.5 3.12h1.62l-2.76-10.26h-3.78c-.3-.42-.48-.96-.54-1.5v-33.6c.06-1.44 1.26-2.64 2.7-2.64h1.08l.18-1.56Zm5.7131-.06v1.56h1.56c1.62 0 3 1.38 3.06 3v30.42c0 1.86-.12 3.84-.3 5.34-.06.9-.18 1.74-.3 2.58h1.32l31.26-33.36v27.9c-.18 1.68-1.44 3.06-3.12 3.06h-1.56v1.56h13.08v-1.56h-1.56c-1.68 0-3.06-1.38-3.12-3.12V159.9c0-1.98.12-3.96.3-5.4l.3-2.4h-1.38l-31.26 33.36v-27.9c.18-1.68 1.44-3.06 3.18-3.06h1.56v-1.56l-13.02.06Zm48.809.06v1.56h1.56c1.62 0 3 1.38 3.06 3v30.36c0 1.86-.12 3.84-.3 5.34-.06.9-.18 1.74-.3 2.58h1.32l31.26-33.36v27.9c-.18 1.68-1.44 3.06-3.12 3.06h-1.56v1.56h13.08v-1.56h-1.56c-1.68 0-3.06-1.38-3.12-3.12V159.9c0-1.98.12-3.96.3-5.4l.3-2.4h-1.38l-31.26 33.36v-27.84c.18-1.68 1.44-3.06 3.18-3.06h1.56V153l-13.02.06Zm28.74-10.14c-.66 1.62-2.82 3.24-5.64 3.24s-4.98-1.62-5.64-3.24h-.6c0 3.36 2.82 6.18 6.18 6.18s6.18-2.82 6.18-6.18h-.48Zm86.308 10.14h-12.54v1.56h1.14c1.44 0 2.64 1.2 2.7 2.64v32.28c-.06 1.5-1.26 2.76-2.64 2.76h-8.94c-.66 0-1.26-.24-1.8-.78-.36-.36-.6-.78-.72-1.32v-33.36c.06-.06.06-.06.06-.12.06-.3.24-.6.42-.9.06-.06.06-.12.12-.18l.24-.24.12-.12c.06-.06.12-.06.18-.12.12-.06.24-.18.3-.24.18-.06.42-.18.66-.24.12 0 .24 0 .3-.06H214.638l.18-1.56h-12.66v1.56h1.38c.6.06 1.14.36 1.62.78.54.54.78 1.14.84 1.86v33l-.06.12c-.06.06-.06.18-.12.3-.06.06-.06.18-.12.3-.06.06-.12.18-.18.24s-.18.18-.24.3c-.3.3-.66.54-1.08.66-.06.06-.18.06-.3.12h-9.72c-.48-.12-.9-.36-1.32-.78l-.12-.12c-.24-.3-.42-.54-.54-.84 0-.06 0-.18-.06-.24 0-.18 0-.3-.06-.48v-32.58c.06-.6.24-1.14.6-1.62l.24-.24c.54-.54 1.14-.78 1.86-.78h1.14v-1.56h-12.48v1.56h1.38c.06 0 .18 0 .24.06h.12c.06.06.18.06.3.12.18.06.36.18.54.24.12.12.24.24.42.36.48.48.78 1.08.84 1.74V190.74c0 .18 0 .3-.06.48l-.06.18c-.06.18-.18.42-.24.6s-.18.3-.36.48l-.12.12c-.18.18-.42.36-.66.54h-.06c-.36.18-.72.24-1.14.24h-1.14V195h50.1v-1.62h-1.14c-1.44 0-2.64-1.14-2.7-2.52v-33.6c.06-1.44 1.26-2.64 2.7-2.64h1.08l.18-1.56Zm23.71-.9h-1.32c0 .9-.54 2.46-1.08 3.84-.3.78-.66 1.62-1.08 2.52l-13.32 31.5h.06c-1.14 2.4-3.06 3.36-4.68 3.36h-1.02v1.56h12.78v-1.56h-1.02c-1.02 0-2.04-.72-2.04-1.98 0-.3.06-.66.18-1.08v.06l3.84-9.72h15.06l3.66 9.66c.12.36.18.72.18 1.08 0 1.26-.96 1.92-1.98 1.92h-1.02v1.56h14.22v-1.56h-1.02c-1.62 0-3.54-.96-4.68-3.42v.06l-15.72-37.8Zm-7.68 25.74 6.66-16.92 6.36 16.92h-13.02Zm59.634-14.46-3.72-10.44h-25.2v1.56h1.26c1.86 0 3.12 1.44 3.3 3.18v32.46c-.18 1.74-1.44 3.18-3.3 3.18h-1.26V195h13.86v-1.62h-1.26c-1.86 0-3.12-1.44-3.3-3.18v-34.44h7.92c5.88 0 8.34 3.18 10.08 7.68h1.62ZM.418047 207v1.56H1.61805c1.86 0 3.3 1.44 3.3 3.18v32.58c-.18 1.74-1.44 3.18-3.3 3.18H.358047v1.56H15.178c9.12 0 14.16-4.5 14.16-11.52 0-5.52-3.3-9.9-8.82-11.4 2.82-1.44 5.22-4.38 5.22-8.76 0-6.18-4.8-10.14-13.2-10.32L.418047 207Zm9.300003 39v-18.54c2.33995.06 4.19995.18 5.63995.36 4.56.72 8.64 3.18 8.64 9.42 0 5.52-3.42 8.64-9 8.82L9.71805 246Zm4.13995-20.28c-1.02.18-2.4.24-4.13995.24V210H12.358c5.28 0 8.04 2.82 8.04 7.8 0 5.28-3.36 7.32-6.54 7.92ZM48.4143 207v1.56h1.56c1.62 0 3 1.38 3.06 3v30.42c0 1.86-.12 3.84-.3 5.34-.06.9-.18 1.74-.3 2.58h1.32l31.26-33.36v27.9c-.18 1.68-1.44 3.06-3.12 3.06h-1.56v1.56h13.08v-1.56h-1.56c-1.68 0-3.06-1.38-3.12-3.12V213.9c0-1.98.12-3.96.3-5.4l.3-2.4h-1.38l-31.26 33.36v-27.9c.18-1.68 1.44-3.06 3.18-3.06h1.56v-1.56l-13.02.06Zm92.6687 42v-1.56h-1.2c-1.86 0-3.12-1.44-3.3-3.18V211.8c.18-1.74 1.44-3.24 3.3-3.24h1.2V207h-13.8v1.56h1.26c1.74 0 3.18 1.44 3.24 3.12v15.12h-22.98v-15.12c.18-1.74 1.44-3.24 3.3-3.24h1.26v-1.56H99.5029v1.56h1.2601c1.86 0 3.12 1.5 3.3 3.24v32.52c-.18 1.74-1.44 3.18-3.3 3.18h-1.2601v1.56h13.8601v-1.56h-1.26c-1.86 0-3.12-1.44-3.3-3.18v-14.64h22.98v14.7c-.06 1.68-1.5 3.12-3.24 3.12h-1.26v1.56l13.8.06Zm12.268-42.06c-2.46 0-6.12-.66-7.56-1.32v8.64h1.62v-1.56c0-1.62 1.2-2.88 2.82-2.94h10.62v34.62c-.06 1.74-1.5 3.12-3.18 3.12h-1.26v1.56h13.86v-1.56h-1.26c-1.86 0-3.12-1.44-3.3-3.18v-34.56h10.68c1.62.06 2.82 1.32 2.82 2.94v1.56h1.56v-8.64c-1.32.66-5.1 1.32-7.5 1.32h-19.92Zm60.37 31.62h-1.62c-1.74 4.5-4.2 7.68-10.08 7.68h-7.86v-16.62h9.42c1.2.06 2.28 1.14 2.28 2.4v1.38h1.56v-10.2h-1.56v1.32c0 1.38-1.02 2.4-2.4 2.46h-9.36v-17.1h11.4c1.62.18 2.82 1.38 2.82 3v1.56h1.56v-8.64c-1.32.66-5.1 1.32-7.5 1.32h-17.64v1.56h1.26c1.68 0 3.06 1.26 3.24 2.88v32.76c-.18 1.86-1.44 3.24-3.3 3.24h-1.26v1.56h25.2l3.84-10.56Zm33.609-21.12L243.61 207h-25.2v1.56h1.26c1.86 0 3.12 1.44 3.3 3.18v32.46c-.18 1.74-1.44 3.18-3.3 3.18h-1.26V249h13.86v-1.62h-1.26c-1.86 0-3.12-1.44-3.3-3.18v-34.44h7.92c5.88 0 8.34 3.18 10.08 7.68h1.62ZM252.6 207v1.62h1.26c1.68 0 3.06 1.26 3.24 2.88v32.76c-.18 1.74-1.44 3.18-3.3 3.18h-1.26V249h13.86v-1.56h-1.26c-1.86 0-3.12-1.44-3.3-3.18v-34.5h6.3c4.62 0 7.14 3.3 7.32 8.52v.48c0 1.14-.12 2.1-.3 2.88v-.06c-1.8 5.34-6.36 6.24-9.3 6.24-.78 0-1.32-.06-1.74-.18-.24-.06-.48-.12-.66-.18v.84c2.1 1.14 3.42 1.62 5.34 1.62 6.24-.24 11.94-3.72 12-11.1 0-7.38-4.68-11.82-12.6-11.82h-15.6Zm52.287-.84h-1.32c0 .9-.54 2.46-1.08 3.84-.3.78-.66 1.62-1.08 2.52l-13.32 31.5h.06c-1.14 2.4-3.06 3.36-4.68 3.36h-1.02v1.56h12.78v-1.56h-1.02c-1.02 0-2.04-.72-2.04-1.98 0-.3.06-.66.18-1.08v.06l3.84-9.72h15.06l3.66 9.66c.12.36.18.72.18 1.08 0 1.26-.96 1.92-1.98 1.92h-1.02v1.56h14.22v-1.56h-1.02c-1.62 0-3.54-.96-4.68-3.42v.06l-15.72-37.8Zm-7.68 25.74 6.66-16.92 6.36 16.92h-13.02Zm-168.282 29.16h-12.54v1.56h1.14c1.44 0 2.64 1.2 2.7 2.64v32.28c-.06 1.5-1.26 2.76-2.64 2.76h-13.2c-1.38 0-2.52-1.2-2.58-2.64v-32.4c.06-1.44 1.26-2.64 2.7-2.64h1.14v-1.56H93.1647v1.56h1.14c1.44 0 2.64 1.2 2.7 2.64v33.48c-.06 1.44-1.26 2.64-2.7 2.64h-1.14V303h28.5003c2.94 0 5.16.78 6.06 2.16.96 1.38 2.16 3.3 3.06 5.52h1.62l-2.76-10.26h-4.08c-.36-.42-.54-.96-.6-1.56v-33.6c.06-1.44 1.26-2.64 2.7-2.64h1.08l.18-1.56Zm6.413-.06v1.56h1.56c1.62 0 3 1.38 3.06 3v30.42c0 1.86-.12 3.84-.3 5.34-.06.9-.18 1.74-.3 2.58h1.32l31.26-33.36v27.9c-.18 1.68-1.44 3.06-3.12 3.06h-1.56v1.56h13.08v-1.56h-1.56c-1.68 0-3.06-1.38-3.12-3.12V267.9c0-1.98.12-3.96.3-5.4l.3-2.4h-1.38l-31.26 33.36v-27.9c.18-1.68 1.44-3.06 3.18-3.06h1.56v-1.56l-13.02.06Zm48.809 0v1.56h1.56c1.62 0 3 1.38 3.06 3v30.42c0 1.86-.12 3.84-.3 5.34-.06.9-.18 1.74-.3 2.58h1.32l31.26-33.36v27.9c-.18 1.68-1.44 3.06-3.12 3.06h-1.56v1.56h13.08v-1.56h-1.56c-1.68 0-3.06-1.38-3.12-3.12V267.9c0-1.98.12-3.96.3-5.4l.3-2.4h-1.38l-31.26 33.36v-27.9c.18-1.68 1.44-3.06 3.18-3.06h1.56v-1.56l-13.02.06ZM172.547 10.54c0-6.54-4.56-10.380003-10.8-10.380003h-.24C154.607.339998 150.467 4.6 150.467 10.42c0 4.38 2.34 7.8 5.94 10.5-5.1 2.58-7.8 5.94-8.04 10.92v.54c0 6.9 5.34 11.4 13.2 11.4 7.98 0 13.14-4.68 13.14-11.58 0-6.3-4.44-9.3-8.64-11.58 4.26-1.98 6.48-5.52 6.48-10.08Zm-10.92 30.54c-4.86 0-7.8-3.36-7.86-8.58.18-4.5 2.4-7.62 5.34-9.72.72.42 1.14.66 1.92 1.08l1.26.6c3.3 1.74 7.02 3.48 7.02 8.64 0 4.02-2.34 7.98-7.68 7.98Zm.06-22.68c-3.78-2.16-5.82-4.98-5.82-8.76 0-3.66 2.1-6.78 5.76-6.78 3.42 0 5.58 2.7 5.58 7.2 0 3.18-1.08 6.3-4.5 8.94l-1.02-.6Z"/>
</svg>
