<svg xmlns="http://www.w3.org/2000/svg" width="296" height="272" fill="none">
  <path fill="#E2D2BB" d="M5.5 124h15v5h5v5h-5v-5h-15v30h15v-5h5v5h-5v5h-15v-5h-5v-30h5v-5Zm30 5v30h15v-30h-15Zm0-5h15v5h5v30h-5v5h-15v-5h-5v-30h5v-5Zm30 20v15h15v-15h-15Zm0-15v10h15v-10h-15Zm-5-5h20v5h5v10h-5v5h5v15h-5v5h-20v-40Zm30 0h25v5h-20v10h15v5h-15v15h20v5h-25v-40Zm30 0h25v5h-10v35h-5v-35h-10v-5Zm50 0h5v40h-5v-40Zm-15 20v15h5v-15h-5Zm-5-20h5v15h5v5h5v15h-5v5h-10v-40Zm70 5v30h5v-30h-5Zm-5-5h15v35h5v15h-5v-10h-15v10h-5v-15h5v-35Zm25 40v-5h5v-35h20v40h-5v-35h-10v30h-5v5h-5Zm35-35v15h15v-15h-15Zm0-5h20v40h-5v-15h-5v5h-5v5h-5v5h-5v-5h5v-5h5v-5h-5v-5h-5v-15h5v-5Zm-200 54h5v10h5v-10h5v10h5v-10h5v10h-5v5h-5v10h5v5h5v10h-5v-10h-5v10h-5v-10h-5v10h-5v-10h5v-5h5v-10h-5v-5h-5v-10Zm30 0h5v25h5v-10h5v-10h5v-5h5v40h-5v-25h-5v10h-5v10h-5v5h-5v-40Zm35 0h15v5h5v10h-5v5h5v15h-5v5h-15v-5h-5v-5h5v5h15v-15h-15v-5h15v-10h-15v5h-5v-5h5v-5Zm25 0h5v15h15v-15h5v40h-5v-20h-15v20h-5v-40Zm30 0h5v25h5v-10h5v-10h5v-5h5v40h-5v-25h-5v10h-5v10h-5v5h-5v-40Zm-175 74v15h15v-15h-15Zm0-15v10h15v-10h-15Zm-5-5h20v5h5v10h-5v5h5v15h-5v5h-20v-40Zm60 0h5v25h5v-10h5v-10h5v-5h5v40h-5v-25h-5v10h-5v10h-5v5h-5v-40Zm35 0h15v5h5v10h-5v5h5v15h-5v5h-15v-5h-5v-5h5v5h15v-15h-15v-5h15v-10h-15v5h-5v-5h5v-5Zm30 5v15h15v-15h-15Zm-5-5h20v5h5v15h-5v5h-15v15h-5v-40Zm40 5v10h-5v5h15v-5h-5v-10h-5Zm0-5h5v5h5v10h5v25h-5v-15h-15v15h-5v-25h5v-10h5v-5Zm20 0h5v25h5v-10h5v-10h5v-5h5v40h-5v-25h-5v10h-5v10h-5v5h-5v-40Zm30 40v-5h5v-35h20v40h-5v-35h-10v30h-5v5h-5Zm30-40h25v5h-20v10h15v5h-15v15h20v5h-25v-40ZM155.5 35v5h-15v-5h-5v-5h5v5h15Zm0 0V20h-5v5h-10v-5h-5V5h5V-.0000012h15V5h5v30h-5Zm0-30h-15v15h10v-5h5V5Z"/>
</svg>
