<svg xmlns="http://www.w3.org/2000/svg" width="413" height="173" fill="none">
  <path fill="#F2F4F3" d="M58.6609 84.4h.3c.32 0 .6-.12.84-.36s.44-.52.6-.84c.2-.32.34-.66.42-1.02.08-.4.12-.76.12-1.08V49.12c0-.28-.04-.6-.12-.96-.08-.36-.22-.7-.42-1.02-.16-.32-.36-.58-.6-.78-.24-.24-.5-.36-.78-.36h-.3v-.6h8.52v.6h-.3c-.32 0-.6.12-.84.36-.24.2-.46.46-.66.78-.16.32-.3.66-.42 1.02-.08.36-.12.68-.12.96v12.42l13.92-13.86c.32-.32.48-.7.48-1.14 0-.36-.16-.54-.48-.54v-.6h6.48v.6c-.8.04-1.52.28-2.16.72-.6.44-1.26 1.02-1.98 1.74l-14.22 14.22c2.6.08 4.7.64 6.3 1.68 1.6 1.04 2.86 2.48 3.78 4.32l4.74 9.6c.28.6.64 1.26 1.08 1.98.48.68 1 1.34 1.56 1.98.6.6 1.26 1.12 1.98 1.56.72.4 1.48.6 2.28.6v.6h-3c-1.16 0-2.16-.16-3-.48-.84-.36-1.58-.82-2.22-1.38-.6-.6-1.14-1.26-1.62-1.98-.44-.72-.84-1.44-1.2-2.16l-4.86-9.66c-.76-1.48-1.82-2.6-3.18-3.36-1.32-.8-2.88-1.24-4.68-1.32V81.1c0 .32.04.66.12 1.02.08.36.2.72.36 1.08.16.32.36.6.6.84.24.2.5.32.78.36h.42v.6h-8.52v-.6Zm56.4941 0h.3c.96 0 1.44-.44 1.44-1.32 0-.32-.06-.66-.18-1.02l-5.4-14.58h-10.5l-5.2198 14.34c-.12.32-.18.62-.18.9 0 .52.14.94.42 1.26.28.28.58.42.9.42h.3v.6h-6.66v-.6h.3c.52 0 1.02-.3 1.5-.9.52-.64.94-1.38 1.26-2.22l13.7398-36.6 13.44 36.24c.28.8.66 1.58 1.14 2.34.52.76 1.18 1.14 1.98 1.14h.3v.6h-8.88v-.6Zm-13.74-18.96h9.24l-4.62-12.54-4.62 12.54Zm26.211 18.96h.3c.32 0 .6-.12.84-.36s.44-.52.6-.84c.2-.32.34-.66.42-1.02.08-.4.12-.76.12-1.08V49.12c0-.28-.04-.6-.12-.96-.08-.36-.22-.7-.42-1.02-.16-.32-.36-.58-.6-.78-.24-.24-.5-.36-.78-.36h-.3v-.6h8.52v.6h-.3c-.32 0-.6.12-.84.36-.24.2-.46.46-.66.78-.16.32-.3.66-.42 1.02-.08.36-.12.68-.12.96v12.42l13.92-13.86c.32-.32.48-.7.48-1.14 0-.36-.16-.54-.48-.54v-.6h6.48v.6c-.8.04-1.52.28-2.16.72-.6.44-1.26 1.02-1.98 1.74l-14.22 14.22c2.6.08 4.7.64 6.3 1.68 1.6 1.04 2.86 2.48 3.78 4.32l4.74 9.6c.28.6.64 1.26 1.08 1.98.48.68 1 1.34 1.56 1.98.6.6 1.26 1.12 1.98 1.56.72.4 1.48.6 2.28.6v.6h-3c-1.16 0-2.16-.16-3-.48-.84-.36-1.58-.82-2.22-1.38-.6-.6-1.14-1.26-1.62-1.98-.44-.72-.84-1.44-1.2-2.16l-4.86-9.66c-.76-1.48-1.82-2.6-3.18-3.36-1.32-.8-2.88-1.24-4.68-1.32V81.1c0 .32.04.66.12 1.02.08.36.2.72.36 1.08.16.32.36.6.6.84.24.2.5.32.78.36h.42v.6h-8.52v-.6Zm73.1 0h.3c.28 0 .54-.1.78-.3.24-.24.44-.52.6-.84.2-.36.34-.72.42-1.08.08-.4.12-.76.12-1.08V64.78h-19.2V81.1c0 .32.04.68.12 1.08.08.36.2.7.36 1.02.16.32.34.6.54.84.24.24.52.36.84.36h.3v.6h-8.4v-.6h.3c.28 0 .54-.1.78-.3.24-.24.44-.52.6-.84.2-.36.34-.72.42-1.08.08-.4.12-.76.12-1.08V49.12c0-.28-.04-.6-.12-.96-.08-.36-.2-.7-.36-1.02-.16-.32-.36-.58-.6-.78-.24-.24-.52-.36-.84-.36h-.3v-.6h8.4v.6h-.3c-.32 0-.6.12-.84.36-.24.2-.44.46-.6.78-.12.32-.22.66-.3 1.02-.08.36-.12.68-.12.96v13.56h19.2V49.12c0-.28-.04-.6-.12-.96-.08-.36-.2-.7-.36-1.02-.16-.32-.36-.58-.6-.78-.24-.24-.52-.36-.84-.36h-.3v-.6h8.4v.6h-.3c-.32 0-.6.12-.84.36-.24.2-.44.46-.6.78-.12.32-.22.66-.3 1.02-.08.36-.12.68-.12.96V81.1c0 .32.04.68.12 1.08.12.36.26.7.42 1.02.16.32.34.6.54.84.24.24.5.36.78.36h.3v.6h-8.4v-.6Zm36.304 0h.3c.96 0 1.44-.44 1.44-1.32 0-.32-.06-.66-.18-1.02l-5.4-14.58h-10.5l-5.22 14.34c-.12.32-.18.62-.18.9 0 .52.14.94.42 1.26.28.28.58.42.9.42h.3v.6h-6.66v-.6h.3c.52 0 1.02-.3 1.5-.9.52-.64.94-1.38 1.26-2.22l13.74-36.6 13.44 36.24c.28.8.66 1.58 1.14 2.34.52.76 1.18 1.14 1.98 1.14h.3v.6h-8.88v-.6Zm-13.74-18.96h9.24l-4.62-12.54-4.62 12.54Zm49.071-27.9c0 .68-.16 1.38-.48 2.1-.32.72-.78 1.4-1.38 2.04-.56.64-1.26 1.16-2.1 1.56-.8.4-1.7.6-2.7.6-.96 0-1.86-.18-2.7-.54-.8-.4-1.5-.9-2.1-1.5-.6-.6-1.08-1.28-1.44-2.04-.36-.76-.54-1.5-.54-2.22h.36c.04.24.16.58.36 1.02.24.44.6.88 1.08 1.32.48.44 1.12.82 1.92 1.14.8.32 1.8.48 3 .48 1.24 0 2.24-.16 3-.48.8-.32 1.44-.7 1.92-1.14.48-.44.82-.88 1.02-1.32.2-.44.34-.78.42-1.02h.36Zm1.02 46.86h.3c.32 0 .6-.1.84-.3.24-.24.44-.52.6-.84.2-.36.34-.72.42-1.08.08-.4.12-.76.12-1.08V53.62l-19.92 26.94v.54c0 .32.04.68.12 1.08.12.36.26.7.42 1.02.16.32.36.6.6.84s.52.36.84.36h.3v.6h-8.52v-.6h.3c.32 0 .6-.1.84-.3.24-.24.44-.52.6-.84.2-.36.34-.72.42-1.08.08-.4.12-.76.12-1.08V49.12c0-.28-.04-.6-.12-.96-.08-.36-.22-.7-.42-1.02-.16-.32-.36-.58-.6-.78-.24-.24-.52-.36-.84-.36h-.3v-.6h8.52v.6h-.48c-.28.04-.54.18-.78.42-.2.24-.38.52-.54.84-.16.28-.28.6-.36.96-.08.32-.12.62-.12.9v27.72l19.92-26.94v-.78c0-.28-.04-.6-.12-.96-.08-.36-.22-.7-.42-1.02-.16-.32-.36-.58-.6-.78-.24-.24-.52-.36-.84-.36h-.3v-.6h8.52v.6h-.3c-.32 0-.6.12-.84.36-.24.2-.44.46-.6.78-.16.32-.3.66-.42 1.02-.08.36-.12.68-.12.96V81.1c0 .32.04.66.12 1.02.12.36.26.72.42 1.08.16.32.36.6.6.84s.52.36.84.36h.3v.6h-8.52v-.6Zm29.386 0h.3v.6h-8.52v-.6h.3c.32 0 .6-.12.84-.36s.44-.52.6-.84c.2-.32.34-.66.42-1.02.08-.4.12-.76.12-1.08V47.62h-6.96c-.64 0-1.2.14-1.68.42-.48.28-.88.64-1.2 1.08-.32.4-.56.86-.72 1.38-.16.48-.24.96-.24 1.44h-.6V45.4h26.94v6.54h-.6c0-.48-.08-.96-.24-1.44-.16-.52-.4-.98-.72-1.38-.32-.44-.72-.8-1.2-1.08s-1.04-.42-1.68-.42h-7.08V81.1c0 .32.04.68.12 1.08.08.36.2.7.36 1.02.2.32.4.6.6.84.24.24.52.36.84.36Zm36.766 0h.3c.32 0 .6-.1.84-.3.24-.24.44-.52.6-.84.2-.36.34-.72.42-1.08.08-.4.12-.76.12-1.08V53.62l-19.92 26.94v.54c0 .32.04.68.12 1.08.12.36.26.7.42 1.02.16.32.36.6.6.84s.52.36.84.36h.3v.6h-8.52v-.6h.3c.32 0 .6-.1.84-.3.24-.24.44-.52.6-.84.2-.36.34-.72.42-1.08.08-.4.12-.76.12-1.08V49.12c0-.28-.04-.6-.12-.96-.08-.36-.22-.7-.42-1.02-.16-.32-.36-.58-.6-.78-.24-.24-.52-.36-.84-.36h-.3v-.6h8.52v.6h-.48c-.28.04-.54.18-.78.42-.2.24-.38.52-.54.84-.16.28-.28.6-.36.96-.08.32-.12.62-.12.9v27.72l19.92-26.94v-.78c0-.28-.04-.6-.12-.96-.08-.36-.22-.7-.42-1.02-.16-.32-.36-.58-.6-.78-.24-.24-.52-.36-.84-.36h-.3v-.6h8.52v.6h-.3c-.32 0-.6.12-.84.36-.24.2-.44.46-.6.78-.16.32-.3.66-.42 1.02-.08.36-.12.68-.12.96V81.1c0 .32.04.66.12 1.02.12.36.26.72.42 1.08.16.32.36.6.6.84s.52.36.84.36h.3v.6h-8.52v-.6Zm-194.695 52.5v7.5h-.6c-.04-.52-.18-1.1-.42-1.74-.24-.64-.58-1.24-1.02-1.8-.4-.52-.88-.96-1.44-1.32-.56-.36-1.18-.54-1.86-.54h-27.66c-.68 0-1.3.18-1.86.54-.56.4-1.06.86-1.5 1.38-.4.56-.74 1.16-1.02 1.8-.24.64-.38 1.2-.42 1.68h-.6v-7.5h2.64c1.28 0 2.18-.74 2.7-2.22l13.8-36.18 13.92 36c.28.6.66 1.16 1.14 1.68.48.48 1.04.72 1.68.72h2.52Zm-31.74 0h23.1l-11.58-29.82-11.52 29.82Zm36.558-37.5h8.52c4.44 0 7.8.86 10.08 2.58 2.32 1.68 3.48 4.08 3.48 7.2 0 1.68-.4 3.18-1.2 4.5-.8 1.32-1.86 2.44-3.18 3.36-1.28.88-2.74 1.56-4.38 2.04-1.6.48-3.2.72-4.8.72h-2.28v15.3c0 .32.04.68.12 1.08.08.36.2.7.36 1.02.2.32.4.6.6.84.24.24.52.36.84.36h.3v.6h-8.46v-.6h.3c.28 0 .54-.12.78-.36s.44-.52.6-.84c.16-.32.28-.66.36-1.02.08-.4.12-.76.12-1.08v-31.98c0-.56-.16-1.2-.48-1.92-.32-.72-.78-1.12-1.38-1.2h-.3v-.6Zm6.24 2.1v16.2h1.8c1.6 0 3.02-.22 4.26-.66 1.28-.44 2.34-1.02 3.18-1.74.84-.72 1.48-1.54 1.92-2.46.44-.92.66-1.86.66-2.82 0-1.16-.2-2.24-.6-3.24-.36-1.04-.98-1.94-1.86-2.7-.84-.8-1.96-1.42-3.36-1.86-1.4-.48-3.12-.72-5.16-.72h-.84Zm18.669-2.1h8.34v.6h-.36c-.44 0-.74.14-.9.42-.16.24-.24.5-.24.78 0 .2.02.38.06.54.04.16.08.28.12.36l10.26 22.44 9.18-21.78c.04-.08.1-.24.18-.48.08-.28.12-.54.12-.78 0-.56-.2-.94-.6-1.14-.4-.24-.7-.36-.9-.36v-.6h6.42v.6c-.72 0-1.28.2-1.68.6-.36.36-.64.74-.84 1.14l-14.4 34.44c-.48 1.16-1.12 2.02-1.92 2.58-.8.52-1.66.78-2.58.78-.6 0-1.14-.1-1.62-.3-.48-.16-.9-.36-1.26-.6s-.64-.46-.84-.66l-.24-.3 1.5-3.3c.32.76.74 1.36 1.26 1.8.52.4 1.06.6 1.62.6.36 0 .72-.12 1.08-.36.4-.28.74-.7 1.02-1.26l2.34-5.7-12.48-27.54c-.56-1.2-1.44-1.84-2.64-1.92v-.6Zm34.436 1.08h.54c.32 0 .68-.04 1.08-.12.4-.12.82-.26 1.26-.42.76-.24 1.66-.48 2.7-.72 1.04-.28 2.3-.42 3.78-.42 1.88 0 3.54.26 4.98.78 1.48.52 2.72 1.22 3.72 2.1 1.04.88 1.82 1.9 2.34 3.06.52 1.16.78 2.4.78 3.72 0 1.88-.54 3.56-1.62 5.04-1.04 1.44-2.52 2.66-4.44 3.66 2.72 1.2 4.7 2.74 5.94 4.62 1.28 1.84 1.92 3.84 1.92 6 0 1.56-.34 3.06-1.02 4.5-.64 1.44-1.58 2.7-2.82 3.78-1.24 1.08-2.76 1.94-4.56 2.58-1.8.64-3.86.96-6.18.96-1.68 0-3.04-.14-4.08-.42-1.04-.28-1.94-.58-2.7-.9-.48-.2-.94-.36-1.38-.48-.4-.12-.82-.18-1.26-.18h-.54v-6.66h.6c.36 1.12.84 2.1 1.44 2.94.64.8 1.36 1.46 2.16 1.98s1.66.92 2.58 1.2c.92.24 1.86.36 2.82.36 1.24 0 2.46-.2 3.66-.6 1.24-.44 2.32-1.04 3.24-1.8.96-.76 1.72-1.68 2.28-2.76.6-1.12.9-2.36.9-3.72 0-1.36-.26-2.66-.78-3.9-.52-1.28-1.26-2.38-2.22-3.3-.92-.92-2.02-1.66-3.3-2.22-1.28-.56-2.68-.84-4.2-.84h-2.16v-2.04h2.46c1.2 0 2.34-.16 3.42-.48 1.08-.36 2.02-.86 2.82-1.5.84-.68 1.5-1.48 1.98-2.4.48-.92.72-1.98.72-3.18 0-1.2-.24-2.28-.72-3.24-.48-.96-1.12-1.76-1.92-2.4-.76-.68-1.64-1.2-2.64-1.56-.96-.36-1.96-.54-3-.54-.84 0-1.66.12-2.46.36s-1.56.62-2.28 1.14c-.72.52-1.36 1.16-1.92 1.92-.56.76-1 1.68-1.32 2.76h-.6v-6.66Zm28.254 37.92h.3c.32 0 .6-.1.84-.3.24-.24.44-.52.6-.84.2-.32.34-.66.42-1.02.12-.36.18-.7.18-1.02v-32.1c0-.28-.06-.6-.18-.96-.08-.36-.22-.7-.42-1.02-.16-.32-.36-.58-.6-.78-.24-.24-.52-.36-.84-.36h-.3v-.6h23.1v5.58h-.6c-.08-.92-.44-1.72-1.08-2.4-.64-.72-1.64-1.08-3-1.08h-12.06v15.18h9.96c.92 0 1.68-.28 2.28-.84.64-.56.96-1.22.96-1.98h.6v7.5h-.6c0-.72-.3-1.34-.9-1.86-.6-.52-1.38-.78-2.34-.78h-9.96v18.18h13.14c.76 0 1.42-.18 1.98-.54.56-.36 1.02-.78 1.38-1.26.4-.52.68-1.06.84-1.62.2-.6.3-1.1.3-1.5h.6V139h-24.6v-.6Zm51.981-46.86c0 .68-.16 1.38-.48 2.1-.32.72-.78 1.4-1.38 2.04-.56.64-1.26 1.16-2.1 1.56-.8.4-1.7.6-2.7.6-.96 0-1.86-.18-2.7-.54-.8-.4-1.5-.9-2.1-1.5-.6-.6-1.08-1.28-1.44-2.04-.36-.76-.54-1.5-.54-2.22h.36c.04.24.16.58.36 1.02.24.44.6.88 1.08 1.32.48.44 1.12.82 1.92 1.14.8.32 1.8.48 3 .48 1.24 0 2.24-.16 3-.48.8-.32 1.44-.7 1.92-1.14.48-.44.82-.88 1.02-1.32.2-.44.34-.78.42-1.02h.36Zm1.02 46.86h.3c.32 0 .6-.1.84-.3.24-.24.44-.52.6-.84.2-.36.34-.72.42-1.08.08-.4.12-.76.12-1.08v-27.48l-19.92 26.94v.54c0 .32.04.68.12 1.08.12.36.26.7.42 1.02.16.32.36.6.6.84s.52.36.84.36h.3v.6h-8.52v-.6h.3c.32 0 .6-.1.84-.3.24-.24.44-.52.6-.84.2-.36.34-.72.42-1.08.08-.4.12-.76.12-1.08v-31.98c0-.28-.04-.6-.12-.96-.08-.36-.22-.7-.42-1.02-.16-.32-.36-.58-.6-.78-.24-.24-.52-.36-.84-.36h-.3v-.6h8.52v.6h-.48c-.28.04-.54.18-.78.42-.2.24-.38.52-.54.84-.16.28-.28.6-.36.96-.08.32-.12.62-.12.9v27.72l19.92-26.94v-.78c0-.28-.04-.6-.12-.96-.08-.36-.22-.7-.42-1.02-.16-.32-.36-.58-.6-.78-.24-.24-.52-.36-.84-.36h-.3v-.6h8.52v.6h-.3c-.32 0-.6.12-.84.36-.24.2-.44.46-.6.78-.16.32-.3.66-.42 1.02-.08.36-.12.68-.12.96v31.98c0 .32.04.66.12 1.02.12.36.26.72.42 1.08.16.32.36.6.6.84s.52.36.84.36h.3v.6h-8.52v-.6Z"/>
  <path stroke="#F2F4F3" stroke-width="3" d="M411.5 86.5c0 11.4235-5.521 22.44-15.783 32.604-10.269 10.169-25.203 19.396-43.779 27.177-37.145 15.56-88.564 25.219-145.438 25.219-56.874 0-108.2932-9.659-145.438-25.219-18.5756-7.781-33.5104-17.008-43.7787-27.177C7.02056 108.94 1.5 97.9235 1.5 86.5s5.52056-22.4401 15.7833-32.6039C27.5516 43.7268 42.4864 34.4998 61.062 26.7188 98.2068 11.1593 149.626 1.5 206.5 1.5c56.874 0 108.293 9.6593 145.438 25.2188 18.576 7.781 33.51 17.008 43.779 27.1773C405.979 64.0599 411.5 75.0765 411.5 86.5Z"/>
</svg>
