<svg xmlns="http://www.w3.org/2000/svg" width="384" height="236" fill="none">
  <path fill="#E2D2BB" d="m44.2207 36.0137-4.6875 6.1816c0 .2735-.0195.5078-.0586.7031-.0195.1758-.0684.3418-.1465.4981-.0781.1562-.1953.3223-.3515.498-.1368.1563-.3125.3516-.5274.586-1.0937 1.1133-2.0117 1.9629-2.7539 2.5488-.7422.5859-1.416.8789-2.0215.8789-.2929 0-.5468-.127-.7617-.3809-.2148-.2343-.3223-.5273-.3223-.8789 0-.4687.2735-1.0937.8204-1.875l8.5839-10.664c-.5078-.8008-.7617-1.6114-.7617-2.4317 0-.8398.2344-1.5625.7031-2.1679.4688-.625 1.0254-1.1328 1.67-1.5235.6445-.3711 2.373-1.3086 5.1855-2.8125 2.1094-2.7929 3.6426-4.9218 4.5996-6.3867.9571-1.4648 1.4356-2.3437 1.4356-2.6367 0-.2149-.0782-.3613-.2344-.4395-.1367-.0976-.3125-.1464-.5273-.1464-.3907 0-1.1426.1757-2.2559.5273s-2.5684.8887-4.3652 1.6113c-1.7774.7031-3.877 1.6114-6.2989 2.7246-2.4218 1.1133-5.1269 2.4317-8.1152 3.9551-.2734.1563-.5762.2344-.9082.2344-.4102 0-.8008-.127-1.1719-.3809-.3711-.2734-.5566-.6933-.5566-1.2597 0-.3125.039-.6055.1172-.8789.0781-.2735.166-.5567.2636-.8497.1172-.3125.2442-.6542.3809-1.0253.1367-.3907.2637-.8497.3809-1.377.0976-.4297.2343-.8789.4101-1.3477.1953-.4687.5078-.957.9375-1.4648.4492-.5078 1.0547-1.0449 1.8164-1.6113s1.7676-1.1719 3.0176-1.8164c.1953-.0977.3516-.1758.4687-.2344.1368-.0781.2833-.1172.4395-.1172.0586 0 .1172.0195.1758.0586.0586.0391.0879.0977.0879.1758 0 .039-.0782.1074-.2344.2051-.1367.0976-.332.2539-.5859.4687-.2344.1953-.5176.4688-.8496.8203-.3321.3321-.6836.7617-1.0547 1.2891 2.9297-1.0156 5.4004-1.8653 7.4121-2.5488 2.0312-.7032 3.7597-1.2598 5.1855-1.67 1.4453-.4297 2.666-.7324 3.6621-.9082 1.0157-.19528 1.9629-.29294 2.8418-.29294.5078 0 .9571.21484 1.3477.64454.4101.4297.7422.9082.9961 1.4355.2734.5274.4785 1.0254.6152 1.4942.1367.4492.2051.7129.2051.791 0 .5078-.2149 1.0742-.6445 1.6992l-4.6875 7.0313c1.875-.9375 3.5156-1.7578 4.9218-2.461 1.4258-.7031 2.666-1.3379 3.7207-1.9043l6.709-3.5449c1.2891-.6836 2.2949-1.2207 3.0176-1.6113.7227-.3906 1.2695-.6738 1.6406-.8496.3906-.1953.6543-.3125.791-.3516.1563-.0586.3028-.0879.4395-.0879.1953 0 .3516.0488.4687.1465.1368.0781.2051.2051.2051.3809 0 .1953-.0976.4785-.2929.8496-.1758.3711-.42.7812-.7325 1.2304-.3125.4493-.664.9082-1.0547 1.377-.3711.4687-.7519.8984-1.1425 1.2891-.3907.3906-.7715.7128-1.1426.9668-.3711.2343-.6836.3515-.9375.3515-.1367 0-.3028-.0293-.4981-.0879-.1953-.0781-.3808-.1465-.5566-.2051-.8008.4102-1.7285.879-2.7832 1.4063-1.0547.5273-2.168 1.084-3.3399 1.6699-1.1718.586-2.3632 1.1817-3.5742 1.7871-1.2109.586-2.3828 1.1524-3.5156 1.6992-1.1133.5469-2.1484 1.0547-3.1055 1.5235-.957.4687-1.7578.8594-2.4023 1.1719l-2.5195 3.7793 14.8535 10.0781c1.4258.957 2.4121 1.6894 2.959 2.1972.5468.5079.9961 1.0938 1.3476 1.7579.3711.6445.5567 1.416.5567 2.3144 0 .293-.0196.5859-.0586.8789-.0391.3125-.1075.586-.2051.8203-.0781.2539-.1856.459-.3223.6153-.1367.1562-.3027.2343-.498.2343-.3711 0-1.0352-.332-1.9922-.9961-.957-.6445-2.2852-1.5527-3.9844-2.7246L44.2207 36.0137Zm51.7676-1.084c-2.3438.0781-4.0625.1172-5.1563.1172-1.6797 0-4.0039-.0391-6.9726-.1172-.625.6836-1.3867 1.4941-2.2852 2.4316-.8984.918-1.748 1.7774-2.5488 2.5782-.8008.7812-1.4942 1.455-2.0801 2.0214-.5664.5469-1.0351 1.0059-1.4062 1.377-2.168 2.1094-3.584 3.4863-4.2481 4.1309-.6445.6445-1.3281 1.2207-2.0508 1.7285-.7226.5273-1.3867.791-1.9922.791-.6835 0-1.0253-.3125-1.0253-.9375 0-.6836.4882-1.7383 1.4648-3.1641.9766-1.4258 2.0801-2.6855 3.3105-3.7793 1.2305-1.0937 2.2364-1.6406 3.0176-1.6406.2149 0 .5176.0977.9082.293l5.5664-5.9473c-.7031-.0977-1.6211-.1563-2.7539-.1758-1.1328-.039-1.8945-.1269-2.2851-.2637-.3907-.1367-.586-.4687-.586-.996 0-.8399.8985-2.1582 2.6953-3.9551.9766-.9961 1.8946-1.6309 2.754-1.9043.8593-.2735 2.5-.4199 4.9218-.4395-1.4258.1953-2.4414.4297-3.0468.7031-.586.254-.9083.6446-.9668 1.1719H84.6504c.7812-.0195 1.3574-.039 1.7285-.0586 3.2031-3.125 6.1133-5.8398 8.7305-8.1445 2.6172-2.3242 5.3706-4.5215 8.2616-6.5918 2.91-2.0898 6.006-4.0039 9.287-5.74218.645.83984.967 1.71878.967 2.63668 0 .7618-.254 1.6407-.762 2.6368-.488.996-1.543 2.871-3.164 5.625-1.601 2.7343-3.232 5.6445-4.892 8.7304.547 0 .996.0098 1.347.0293.371 0 .762.0098 1.172.0293 1.113 0 1.787.0195 2.022.0586.254.0391.381.2344.381.5859 0 .1563-.157.4395-.469.8497-.293.3906-.821 1.0546-1.582 1.9921-.762.918-1.504 1.8555-2.227 2.8125l-4.306.3516c-2.2856 4.2969-3.4282 6.7188-3.4282 7.2656 0 .8008.4199 1.2012 1.2598 1.2012.4101 0 2.1094-.8594 5.0974-2.5781l-.234 1.5527c-1.602 1.2109-2.852 2.168-3.75 2.8711-.8791.6836-1.6505 1.2598-2.3146 1.7285-.6445.4492-1.2402.7813-1.7871.9961-.5274.2344-1.0645.3516-1.6113.3516-.6446 0-1.2793-.3028-1.9043-.9082-.625-.586-.9375-1.4258-.9375-2.5196 0-.4492.166-1.0839.498-1.9043.332-.8398.6836-1.6406 1.0547-2.4023.3906-.7617 1.3574-2.5879 2.9004-5.4785Zm-5.5371-6.6504 9.4922-.1758c1.1136-1.8945 2.0116-3.4277 2.6956-4.5996.703-1.1719 1.465-2.4414 2.285-3.8086.84-1.3867 1.553-2.5586 2.138-3.5156.606-.957 1.27-2.041 1.993-3.252-1.407.8789-2.842 1.8555-4.307 2.9297-1.465 1.0742-3.115 2.3731-4.9511 3.8965-1.836 1.5039-3.4668 2.9102-4.8926 4.2188-1.4258 1.289-2.9102 2.7246-4.4531 4.3066Zm31.2308 7.7344-4.688 6.1816c0 .2735-.019.5078-.058.7031-.02.1758-.069.3418-.147.4981-.078.1562-.195.3223-.351.498-.137.1563-.313.3516-.528.586-1.094 1.1133-2.012 1.9629-2.754 2.5488-.742.5859-1.416.8789-2.021.8789-.293 0-.547-.127-.762-.3809-.215-.2343-.322-.5273-.322-.8789 0-.4687.273-1.0937.82-1.875l8.584-10.664c-.508-.8008-.762-1.6114-.762-2.4317 0-.8398.235-1.5625.703-2.1679.469-.625 1.026-1.1328 1.67-1.5235.645-.3711 2.373-1.3086 5.186-2.8125 2.109-2.7929 3.643-4.9218 4.6-6.3867.957-1.4648 1.435-2.3437 1.435-2.6367 0-.2149-.078-.3613-.234-.4395-.137-.0976-.313-.1464-.528-.1464-.39 0-1.142.1757-2.255.5273-1.114.3516-2.569.8887-4.366 1.6113-1.777.7031-3.877 1.6114-6.299 2.7246-2.421 1.1133-5.126 2.4317-8.115 3.9551-.273.1563-.576.2344-.908.2344-.41 0-.801-.127-1.172-.3809-.371-.2734-.556-.6933-.556-1.2597 0-.3125.039-.6055.117-.8789.078-.2735.166-.5567.263-.8497.118-.3125.245-.6542.381-1.0253.137-.3907.264-.8497.381-1.377.098-.4297.234-.8789.41-1.3477.196-.4687.508-.957.938-1.4648.449-.5078 1.054-1.0449 1.816-1.6113s1.768-1.1719 3.018-1.8164c.195-.0977.351-.1758.468-.2344.137-.0781.284-.1172.44-.1172.059 0 .117.0195.176.0586.058.0391.088.0977.088.1758 0 .039-.079.1074-.235.2051-.136.0976-.332.2539-.586.4687-.234.1953-.517.4688-.849.8203-.332.3321-.684.7617-1.055 1.2891 2.93-1.0156 5.4-1.8653 7.412-2.5488 2.031-.7032 3.76-1.2598 5.186-1.67 1.445-.4297 2.666-.7324 3.662-.9082 1.015-.19528 1.963-.29294 2.842-.29294.507 0 .957.21484 1.347.64454.41.4297.742.9082.996 1.4355.274.5274.479 1.0254.616 1.4942.136.4492.205.7129.205.791 0 .5078-.215 1.0742-.645 1.6992l-4.687 7.0313c1.875-.9375 3.515-1.7578 4.921-2.461 1.426-.7031 2.666-1.3379 3.721-1.9043l6.709-3.5449c1.289-.6836 2.295-1.2207 3.018-1.6113.722-.3906 1.269-.6738 1.64-.8496.391-.1953.655-.3125.791-.3516.157-.0586.303-.0879.44-.0879.195 0 .351.0488.469.1465.136.0781.205.2051.205.3809 0 .1953-.098.4785-.293.8496-.176.3711-.42.7812-.733 1.2304-.312.4493-.664.9082-1.054 1.377-.372.4687-.752.8984-1.143 1.2891-.391.3906-.771.7128-1.143.9668-.371.2343-.683.3515-.937.3515-.137 0-.303-.0293-.498-.0879-.195-.0781-.381-.1465-.557-.2051-.801.4102-1.728.879-2.783 1.4063-1.055.5273-2.168 1.084-3.34 1.6699-1.172.586-2.363 1.1817-3.574 1.7871-1.211.586-2.383 1.1524-3.516 1.6992-1.113.5469-2.148 1.0547-3.105 1.5235-.957.4687-1.758.8594-2.402 1.1719l-2.52 3.7793 14.854 10.0781c1.425.957 2.412 1.6894 2.959 2.1972.546.5079.996 1.0938 1.347 1.7579.371.6445.557 1.416.557 2.3144 0 .293-.02.5859-.059.8789-.039.3125-.107.586-.205.8203-.078.2539-.185.459-.322.6153-.137.1562-.303.2343-.498.2343-.371 0-1.035-.332-1.992-.9961-.957-.6445-2.286-1.5527-3.985-2.7246l-15.849-10.6347Zm49.248-14.7364-6.299 3.3106c-.977.4883-1.631.7324-1.963.7324-.606 0-1.045-.1855-1.318-.5566-.293-.3907-.44-.9864-.44-1.7871 0-.918.195-1.9727.586-3.1641.391-1.2109.84-2.0996 1.348-2.666.527-.586 1.758-1.3867 3.691-2.4024 1.953-1.0351 4.297-2.0703 7.031-3.1054 2.735-1.0352 5.586-1.89456 8.555-2.57815 2.969-.6836 5.684-1.02539 8.145-1.02539 1.718 0 2.988.27343 3.808.82031.821.54687 1.231 1.99223 1.231 4.33593 0 1.2695-.44 2.6856-1.319 4.2481-.859 1.5429-1.904 3.0468-3.134 4.5117-1.211 1.4648-3.467 4.0625-6.768 7.7929 1.758-.2734 3.047-.4492 3.867-.5273.82-.0781 2.354-.2441 4.6-.498 2.597-3.75 4.697-6.7383 6.299-8.9649 1.601-2.2461 2.959-4.1016 4.072-5.5664 1.113-1.4844 1.777-2.334 1.992-2.5488.391-.4492.713-.6153.967-.4981.273.0977.41.4981.41 1.2012 0 .8008-.088 1.4551-.264 1.9629-.156.5078-.41 1.0156-.761 1.5234-.352.4883-.537.752-.557.791-.508.8399-1.24 1.9434-2.197 3.3106-.957 1.3476-1.895 2.6855-2.813 4.0137-.918 1.3281-1.963 2.9004-3.135 4.7168 2.188.0781 4.346.3613 6.475.8496l-5.273 7.1484c-1.446-.1953-3.37-.293-5.772-.293-.586 1.1719-1.045 2.0899-1.377 2.7539-.312.6641-.586 1.2989-.82 1.9043-.215.586-.322 1.1328-.322 1.6407 0 .3125.087.7324.263 1.2597.196.5078.293.8008.293.8789 0 .3907-.293.8106-.879 1.2598-.566.4297-1.24.8105-2.021 1.1426-.762.332-1.358.498-1.787.498-.723 0-1.084-.5469-1.084-1.6406 0-2.2656 1.162-5.4199 3.486-9.4629-3.086.2539-6.631.7129-10.635 1.377-1.152 1.5234-2.197 2.9687-3.134 4.3359-.938 1.3672-1.709 2.5195-2.315 3.457-.586.9375-1.025 1.5625-1.318 1.875-.274.3125-.576.4688-.908.4688-.567 0-1.045-.2442-1.436-.7324-.176-.1954-.293-.3907-.352-.586-.039-.1953-.058-.4101-.058-.6445v-.6152c0-.2344.127-.5762.381-1.0254.254-.4493.859-1.3379 1.816-2.666.957-1.3477 1.66-2.3633 2.109-3.0469-.507.0586-1.162.0879-1.962.0879-1.016 0-1.846-.1856-2.491-.5567-.625-.3711-.937-.8301-.937-1.3769 0-.625.166-1.2891.498-1.9922.332-.7227.762-1.3184 1.289-1.7871.527-.4883 1.055-.7324 1.582-.7324.352 0 .771.1074 1.26.3222l7.558-1.875c4.219-4.5703 7.364-8.1836 9.434-10.8398 2.07-2.6563 3.105-4.3653 3.105-5.127 0-.4297-.117-.7812-.351-1.0547-.235-.2929-.567-.5175-.996-.6738-.41-.1562-.889-.2344-1.436-.2344-.644 0-1.67.1758-3.076.5274-1.387.3515-3.047.8691-4.98 1.5527-1.934.6836-4.346 1.6309-7.237 2.8418-2.148.8789-3.222 1.4356-3.222 1.6699 0 .2735.146.4492.439.5274.293.0781.664.1367 1.113.1758.469.039.703.1074.703.205 0 .0782-.117.1856-.351.3223-.215.1367-.518.3027-.908.498Zm58.183 13.6524c-2.343.0781-4.062.1172-5.156.1172-1.68 0-4.004-.0391-6.973-.1172-.625.6836-1.386 1.4941-2.285 2.4316-.898.918-1.748 1.7774-2.549 2.5782-.8.7812-1.494 1.455-2.08 2.0214-.566.5469-1.035 1.0059-1.406 1.377-2.168 2.1094-3.584 3.4863-4.248 4.1309-.645.6445-1.328 1.2207-2.051 1.7285-.722.5273-1.386.791-1.992.791-.684 0-1.025-.3125-1.025-.9375 0-.6836.488-1.7383 1.464-3.1641.977-1.4258 2.081-2.6855 3.311-3.7793 1.231-1.0937 2.236-1.6406 3.018-1.6406.214 0 .517.0977.908.293l5.566-5.9473c-.703-.0977-1.621-.1563-2.754-.1758-1.132-.039-1.894-.1269-2.285-.2637-.39-.1367-.586-.4687-.586-.996 0-.8399.899-2.1582 2.696-3.9551.976-.9961 1.894-1.6309 2.753-1.9043.86-.2735 2.5-.4199 4.922-.4395-1.425.1953-2.441.4297-3.047.7031-.585.254-.908.6446-.966 1.1719h3.427c.782-.0195 1.358-.039 1.729-.0586 3.203-3.125 6.113-5.8398 8.73-8.1445 2.618-2.3242 5.371-4.5215 8.262-6.5918 2.91-2.0898 6.006-4.0039 9.287-5.74218.645.83984.967 1.71878.967 2.63668 0 .7618-.254 1.6407-.762 2.6368-.488.996-1.543 2.871-3.164 5.625-1.601 2.7343-3.232 5.6445-4.892 8.7304.547 0 .996.0098 1.347.0293.371 0 .762.0098 1.172.0293 1.113 0 1.787.0195 2.022.0586.254.0391.381.2344.381.5859 0 .1563-.157.4395-.469.8497-.293.3906-.821 1.0546-1.582 1.9921-.762.918-1.504 1.8555-2.227 2.8125l-4.306.3516c-2.286 4.2969-3.428 6.7188-3.428 7.2656 0 .8008.42 1.2012 1.26 1.2012.41 0 2.109-.8594 5.097-2.5781l-.234 1.5527c-1.602 1.2109-2.852 2.168-3.75 2.8711-.879.6836-1.651 1.2598-2.315 1.7285-.644.4492-1.24.7813-1.787.9961-.527.2344-1.064.3516-1.611.3516-.645 0-1.279-.3028-1.904-.9082-.625-.586-.938-1.4258-.938-2.5196 0-.4492.166-1.0839.498-1.9043.332-.8398.684-1.6406 1.055-2.4023.391-.7617 1.357-2.5879 2.9-5.4785Zm-5.537-6.6504 9.492-.1758c1.114-1.8945 2.012-3.4277 2.696-4.5996.703-1.1719 1.465-2.4414 2.285-3.8086.84-1.3867 1.553-2.5586 2.139-3.5156.605-.957 1.269-2.041 1.992-3.252-1.407.8789-2.842 1.8555-4.307 2.9297-1.465 1.0742-3.115 2.3731-4.951 3.8965-1.836 1.5039-3.467 2.9102-4.893 4.2188-1.425 1.289-2.91 2.7246-4.453 4.3066Zm53.467-4.3652c-1.914 2.8125-3.525 5.3613-4.834 7.6464-1.309 2.2852-2.295 4.2383-2.959 5.8594-.645 1.6016-.967 2.793-.967 3.5742 0 1.4454.635 2.168 1.905 2.168 1.347 0 4.394-1.8359 9.14-5.5078l-.058 2.0215c-5.489 5.6054-9.512 8.4082-12.071 8.4082-3.047 0-4.57-1.582-4.57-4.7461 0-1.8945.928-4.5801 2.783-8.0567 1.856-3.4765 4.688-7.9687 8.496-13.4765-4.472 4.8828-8.213 8.8965-11.22 12.041-2.989 3.1445-6.084 6.1914-9.288 9.1406-.761.7227-1.455 1.3867-2.08 1.9922-.625.586-1.25 1.0547-1.875 1.4063-.625.332-1.308.498-2.05.498-1.153 0-2.11-.4492-2.872-1.3476-.761-.8985-1.142-2.168-1.142-3.8086 0-1.0547.312-2.2754.937-3.6621.625-1.4063 1.573-3.0372 2.842-4.8926 1.27-1.8555 2.832-3.8867 4.688-6.0938 3.007-3.6133 5.088-6.1621 6.24-7.6465 1.152-1.4843 1.728-2.4316 1.728-2.8418 0-.2929-.156-.4394-.468-.4394-.371 0-.996.1758-1.875.5273-.86.3321-2.002.8887-3.428 1.67-1.426.7617-3.262 1.8554-5.508 3.2812-1.68 1.0547-3.34 1.9141-4.98 2.5781-1.621.6446-2.764.9668-3.428.9668-.391 0-.713-.1074-.967-.3222-.273-.2149-.41-.4883-.41-.8204 0-.4687.205-1.2304.615-2.2851.41-1.0742.947-2.1777 1.612-3.3106.644-1.1523 1.22-2.0117 1.728-2.5781 1.406-1.5625 3.33-2.9394 5.772-4.1308 2.441-1.1914 4.951-2.10941 7.529-2.75394 2.578-.64454 4.707-.9668 6.387-.9668 1.25 0 2.158.21484 2.724.64453.586.41016.879 1.09375.879 2.05081 0 2.0898-.264 3.7109-.791 4.8633-.527 1.1328-1.406 2.6074-2.637 4.4238-.449.7031-1.123 1.6699-2.021 2.9004-.879 1.2109-1.778 2.4023-2.695 3.5742-.899 1.1523-1.641 2.1191-2.227 2.9004-.586.7812-1.191 1.6406-1.816 2.5781-1.7 2.5-2.774 4.1113-3.223 4.834-.449.7226-.674 1.3476-.674 1.875 0 .6836.322 1.0254.967 1.0254.586 0 1.152-.2051 1.699-.6153.547-.4296 1.719-1.4257 3.516-2.9882 2.07-1.7774 4.082-3.6426 6.035-5.5957 1.953-1.9532 3.73-3.8086 5.332-5.5664 1.601-1.7774 3.633-4.0723 6.094-6.8848 2.754-3.2031 4.511-5.2051 5.273-6.0059.762-.8007 1.387-1.2011 1.875-1.2011.43 0 .811.3515 1.143 1.0546.351.6836.527 1.6504.527 2.9004 0 .6641-.342 1.5528-1.025 2.6661-.664 1.0937-2.1 3.2519-4.307 6.4746ZM268.195.359375c.489 0 1.094.361328 1.817 1.083985.742.70312 1.445 1.21094 2.109 1.52344.684.29297 1.475.43945 2.373.43945 1.641 0 3.262-.63477 4.863-1.9043.723-.605466 1.26-.9082 1.612-.9082.351 0 .644.126953.879.380859.254.253911.381.605471.381 1.054691 0 .76172-.391 1.60156-1.172 2.51953-.762.89844-1.797 1.66992-3.106 2.31445-1.289.625-2.617.9375-3.984.9375-2.031 0-3.75-.64453-5.156-1.93359-1.407-1.28907-2.11-2.54883-2.11-3.7793 0-.46875.137-.86914.41-1.201171.293-.351563.655-.527344 1.084-.527344ZM302.531 41.1699l.967.7324c-.254.5469-.498 1.0254-.732 1.4356-.235.4101-.518.9082-.85 1.4941-.332.586-.586 1.0254-.762 1.3184-1.465 2.5586-2.842 3.8379-4.131 3.8379-.546 0-1.015-.2149-1.406-.6445-.39-.4297-.586-1.0157-.586-1.7579 0-1.0547.371-2.5 1.114-4.3359.761-1.8359 1.923-4.0918 3.486-6.7676 1.582-2.6953 3.564-5.7422 5.947-9.1406 2.383-3.3984 5.068-6.9824 8.057-10.752-1.719-.2539-3.76-.3808-6.123-.3808-2.715 0-5.742.3027-9.082.9082-3.321.6055-6.221 1.3086-8.701 2.1094-2.461.7812-3.692 1.3574-3.692 1.7285 0 .1367.049.2344.147.2929.097.0391.254.0782.468.1172.235.0196.528.0489.879.0879 2.285.3125 3.428.6641 3.428 1.0547 0 .1953-.498.293-1.494.293-.996-.0196-2.197-.0293-3.604-.0293-1.113 0-1.923-.0391-2.431-.1172-.489-.0977-.821-.2637-.996-.4981-.157-.2539-.235-.6347-.235-1.1425 0-.3321.098-1.0547.293-2.168.371-2.0703.938-3.7305 1.699-4.9805.782-1.25 1.963-2.2656 3.545-3.0468 1.602-.8008 3.799-1.43559 6.592-1.90434 4.688-.80078 8.565-1.20117 11.631-1.20117 2.266 0 4.053.09766 5.361.29297 1.309.17578 2.266.43945 2.871.79102.625.35156 1.016.70312 1.172 1.05468.176.33204.401.91794.674 1.75784l.908 2.6953c.059.1758.108.3223.147.4394.039.0977.068.2051.088.3223.039.1172.058.2246.058.3223 0 .7617-.176 1.4453-.527 2.0508-.332.6054-.957 1.5136-1.875 2.7246-.898 1.2109-1.563 2.1582-1.992 2.8418-5.039 8.1836-8.477 14.2382-10.313 18.164Zm46.407-17.2558c-1.915 2.8125-3.526 5.3613-4.834 7.6464-1.309 2.2852-2.295 4.2383-2.959 5.8594-.645 1.6016-.967 2.793-.967 3.5742 0 1.4454.634 2.168 1.904 2.168 1.348 0 4.395-1.8359 9.141-5.5078l-.059 2.0215c-5.488 5.6054-9.512 8.4082-12.07 8.4082-3.047 0-4.571-1.582-4.571-4.7461 0-1.8945.928-4.5801 2.784-8.0567 1.855-3.4765 4.687-7.9687 8.496-13.4765-4.473 4.8828-8.213 8.8965-11.221 12.041-2.988 3.1445-6.084 6.1914-9.287 9.1406-.762.7227-1.455 1.3867-2.08 1.9922-.625.586-1.25 1.0547-1.875 1.4063-.625.332-1.309.498-2.051.498-1.152 0-2.109-.4492-2.871-1.3476-.762-.8985-1.143-2.168-1.143-3.8086 0-1.0547.313-2.2754.938-3.6621.625-1.4063 1.572-3.0372 2.842-4.8926 1.269-1.8555 2.832-3.8867 4.687-6.0938 3.008-3.6133 5.088-6.1621 6.24-7.6465 1.153-1.4843 1.729-2.4316 1.729-2.8418 0-.2929-.156-.4394-.469-.4394-.371 0-.996.1758-1.875.5273-.859.3321-2.002.8887-3.428 1.67-1.425.7617-3.261 1.8554-5.507 3.2812-1.68 1.0547-3.34 1.9141-4.981 2.5781-1.621.6446-2.763.9668-3.428.9668-.39 0-.712-.1074-.966-.3222-.274-.2149-.411-.4883-.411-.8204 0-.4687.206-1.2304.616-2.2851.41-1.0742.947-2.1777 1.611-3.3106.645-1.1523 1.221-2.0117 1.729-2.5781 1.406-1.5625 3.33-2.9394 5.771-4.1308 2.441-1.1914 4.951-2.10941 7.529-2.75394 2.578-.64454 4.707-.9668 6.387-.9668 1.25 0 2.158.21484 2.725.64453.586.41016.879 1.09375.879 2.05081 0 2.0898-.264 3.7109-.791 4.8633-.528 1.1328-1.407 2.6074-2.637 4.4238-.449.7031-1.123 1.6699-2.022 2.9004-.879 1.2109-1.777 2.4023-2.695 3.5742-.898 1.1523-1.641 2.1191-2.227 2.9004-.585.7812-1.191 1.6406-1.816 2.5781-1.699 2.5-2.773 4.1113-3.223 4.834-.449.7226-.673 1.3476-.673 1.875 0 .6836.322 1.0254.966 1.0254.586 0 1.153-.2051 1.7-.6153.546-.4296 1.718-1.4257 3.515-2.9882 2.071-1.7774 4.082-3.6426 6.035-5.5957 1.954-1.9532 3.731-3.8086 5.332-5.5664 1.602-1.7774 3.633-4.0723 6.094-6.8848 2.754-3.2031 4.512-5.2051 5.274-6.0059.761-.8007 1.386-1.2011 1.875-1.2011.429 0 .81.3515 1.142 1.0546.352.6836.528 1.6504.528 2.9004 0 .6641-.342 1.5528-1.026 2.6661-.664 1.0937-2.099 3.2519-4.306 6.4746ZM34.875 101.902c-.1562.274-.293.528-.4102.762-.1171.234-.2343.459-.3515.674-1.1719 2.226-2.2071 3.887-3.1055 4.98-.8789 1.114-1.748 1.67-2.6074 1.67-.6055 0-1.084-.224-1.4356-.674-.3515-.429-.5273-1.054-.5273-1.875 0-1.015.4102-2.49 1.2305-4.423.8398-1.954 2.0508-4.2582 3.6328-6.9144 1.582-2.6758 3.5254-5.6641 5.8301-8.9649 2.3046-3.3008 4.9316-6.8164 7.8808-10.5469-.8789-.1367-1.8262-.2343-2.8418-.2929-.9961-.0586-2.0898-.0879-3.2812-.0879-1.7188 0-3.5547.1172-5.5078.3515-1.2891 3.0079-3.3204 6.6114-6.0938 10.8106-2.7734 4.1797-6.3672 8.916-10.7812 14.2089.0195.156.0488.332.0879.527.039.176.0585.352.0585.528-.039.156-.1269.332-.2636.527-.1172.176-.2539.371-.4102.586l-2.9297 3.691c-.3515.43-.664.645-.9375.645-.1953 0-.4004-.078-.6152-.234l-1.72852-1.407c-.25391-.195-.38086-.4-.38086-.615.01953-.098.15625-.371.41016-.82.27342-.469.80082-1.172 1.58202-2.11 1.7188-2.07 3.4375-4.2378 5.1563-6.5035 1.7382-2.2656 3.3984-4.5215 4.9804-6.7675 1.6016-2.2461 3.086-4.4336 4.4532-6.5625 1.3671-2.129 2.5488-4.0918 3.5449-5.8887-1.6797.332-3.252.6836-4.7168 1.0547-1.4649.3711-2.7442.7324-3.8379 1.084-1.0938.3515-1.9629.6835-2.6074.996-.625.293-.9375.5372-.9375.7325 0 .1953.1171.3027.3515.3222.2539 0 .6348.0293 1.1426.0879 1.1719.1563 2.0313.3321 2.5781.5274.5664.1953.8496.3711.8496.5273-.0195.1953-.5175.293-1.4941.293-1.6406-.0586-2.9395-.0879-3.8965-.0879-.9375 0-1.6504-.0391-2.1387-.1172-.4882-.0781-.8105-.2344-.9668-.4687-.1367-.2344-.2148-.6055-.2343-1.1133 0-.1563.0195-.4102.0586-.7617.039-.3711.1171-.8399.2343-1.4063.3321-1.543.7227-2.8516 1.1719-3.9258.4688-1.0937 1.1328-2.0215 1.9922-2.7832.8594-.7617 1.9727-1.3867 3.3398-1.875 1.3868-.5078 3.1543-.957 5.3028-1.3476 2.3633-.3907 4.5019-.6836 6.416-.8789 1.9336-.2149 3.6719-.3223 5.2148-.3223 2.2852 0 4.0723.0976 5.3614.293 1.3086.1757 2.2754.4394 2.9004.791.3125.1758.5566.3418.7324.498.1758.1563.3125.3321.4101.5274.1172.1953.2149.4394.293.7324.0977.2734.2246.625.3809 1.0547l.9082 2.6953c.0976.3125.166.5762.205.791.0391.1953.0684.3809.0879.5566-.0195.2735-.0781.5762-.1757.9082-.0977.3321-.2149.625-.3516.879-.1367.2539-.3809.6347-.7324 1.1425-.3516.5078-.7325 1.045-1.1426 1.6114-.4102.5468-.8008 1.0839-1.1719 1.6113-.3711.5078-.6445.9082-.8203 1.2012-2.5586 4.1406-4.6875 7.7148-6.3867 10.7226-1.6992 2.9883-3.0078 5.4688-3.9258 7.4415l.9668.732Zm29.0039-24.9606c.5273-.1367 1.0547-.2734 1.582-.4102.5469-.1367 1.0938-.2539 1.6407-.3515.5664-.0977 1.1132-.1465 1.6406-.1465 1.1328 0 2.0996.2539 2.9004.7617.8203.5078 1.4258 1.2012 1.8164 2.0801.4101.8594.6152 1.7969.6152 2.8125 0 1.582-.293 3.3984-.8789 5.4492-.5664 2.0313-1.3867 4.1016-2.4609 6.211-1.0742 2.1093-2.334 4.1015-3.7793 5.9765-1.9727 2.5388-4.3457 4.5898-7.1192 6.1528-2.7539 1.543-5.2832 2.314-7.5879 2.314-1.6992 0-3.2031-.459-4.5117-1.377-1.289-.937-2.3047-2.285-3.0468-4.043-.7227-1.777-1.084-3.8573-1.084-6.2401 0-3.2032.8691-6.4063 2.6074-9.6094 1.7578-3.2227 3.9648-6.1328 6.6211-8.7305 2.6758-2.6172 5.3711-4.707 8.0859-6.2695 2.7149-1.582 4.9219-2.3731 6.6211-2.3731 1.3867 0 2.4512.4297 3.1934 1.2891.7422.8398 1.4355 2.207 2.0801 4.1016-1.8165.0586-3.3985.2832-4.7461.6738-1.3477.3711-2.7442.9473-4.1895 1.7285Zm-7.3828 5.9473c-1.3672 1.4648-2.7539 3.3593-4.1602 5.6836-1.3867 2.3047-2.5097 4.5703-3.3691 6.7968-.8594 2.2266-1.2891 3.9258-1.2891 5.0979 0 2.91 1.3575 4.365 4.0723 4.365 1.8945 0 4.3359-1.279 7.3242-3.838 3.0078-2.5585 5.6153-5.6346 7.8223-9.2284 2.2265-3.6133 3.3398-6.8945 3.3398-9.8437 0-2.168-.8593-3.252-2.5781-3.252-1.3281 0-2.9492.5274-4.8633 1.5821-1.914 1.0546-3.75 2.5488-5.5078 4.4824-.625.7031-1.8652 2.4218-3.7207 5.1562.3516-1.8359 1.3281-4.1699 2.9297-7.0019Zm22.2656-1.6407c0 .1368.127.2051.3809.2051.1758 0 .9668-.1172 2.373-.3515 1.4258-.2344 2.7149-.3614 3.8672-.3809-1.289.3516-2.4023.7129-3.3398 1.084-.918.3515-1.875.7519-2.8711 1.2012-.9766.4296-1.6797.7226-2.1094.8789-.4297.1367-.8008.205-1.1133.205-.9961 0-1.4941-.6445-1.4941-1.9336 0-3.3203.8398-5.6542 2.5195-7.0019.6836-.5469 1.7774-1.1914 3.2813-1.9336 1.5234-.7617 3.2324-1.4746 5.1269-2.1387 1.9141-.6836 4.0137-1.2695 6.2988-1.7578 2.2852-.4883 4.5411-.7324 6.7676-.7324 2.2848 0 4.3848.332 6.2988.9961 1.914.6641 3.516 1.6016 4.805 2.8125 1.289 1.1914 2.275 2.6562 2.959 4.3945.703 1.7383 1.054 3.6914 1.054 5.8594 0 3.3008-.957 6.5039-2.871 9.6094-1.894 3.1054-4.433 5.8496-7.617 8.2323-3.1639 2.363-6.7382 4.238-10.7225 5.625-3.9844 1.387-7.9102 2.08-11.7774 2.08-.7226 0-1.2988-.078-1.7285-.234-.4101-.156-.7031-.469-.8789-.938-.1758-.449-.2637-1.123-.2637-2.021 0-1.113.0879-2.022.2637-2.725.1758-.703.4688-1.513.8789-2.4314 2.8125-6.2305 7.7051-14.0723 14.6777-23.5254-1.4062.1562-2.9492.459-4.6289.9082-1.6796.4297-3.2714.9082-4.7754 1.4355-1.5039.5274-2.7734 1.0352-3.8085 1.5235-1.0352.4882-1.5528.8398-1.5528 1.0546Zm15.6153-5.0976c0 .0391.039.2637.1171.6738.0782.3906.1172.7324.1172 1.0254 0 .4492-.2343 1.084-.7031 1.9043-.4492.8008-1.3477 2.2363-2.6953 4.3066-1.3477 2.0704-2.5 3.8868-3.457 5.4493-.9571 1.5625-2.0899 3.5742-3.3985 6.0351-.4101.7813-.6933 1.3086-.8496 1.5821-.1562.2734-.4101.7226-.7617 1.3476-.332.625-.5762 1.1621-.7324 1.6114-.1563.449-.2344.791-.2344 1.025 0 .508.2734.869.8203 1.084.5664.196 1.3672.293 2.4024.293 2.6562 0 5.4687-.478 8.4375-1.435 2.9687-.977 5.7519-2.3245 8.3495-4.0432 2.617-1.7188 4.707-3.6621 6.27-5.8301 1.562-2.168 2.343-4.4336 2.343-6.7969 0-2.6953-.986-4.7656-2.959-6.2109-1.972-1.4649-4.843-2.1973-8.6129-2.1973-1.5821 0-3.0664.0586-4.4531.1758Zm23.174 5.0976c0 .1368.127.2051.381.2051.175 0 .966-.1172 2.373-.3515 1.425-.2344 2.715-.3614 3.867-.3809-1.289.3516-2.402.7129-3.34 1.084-.918.3515-1.875.7519-2.871 1.2012-.977.4296-1.68.7226-2.109.8789-.43.1367-.801.205-1.114.205-.996 0-1.494-.6445-1.494-1.9336 0-3.3203.84-5.6542 2.52-7.0019.683-.5469 1.777-1.1914 3.281-1.9336 1.523-.7617 3.232-1.4746 5.127-2.1387 1.914-.6836 4.014-1.2695 6.299-1.7578 2.285-.4883 4.541-.7324 6.767-.7324 2.285 0 4.385.332 6.299.9961 1.914.6641 3.516 1.6016 4.805 2.8125 1.289 1.1914 2.275 2.6562 2.959 4.3945.703 1.7383 1.054 3.6914 1.054 5.8594 0 3.3008-.957 6.5039-2.871 9.6094-1.894 3.1054-4.433 5.8496-7.617 8.2323-3.164 2.363-6.738 4.238-10.722 5.625-3.985 1.387-7.911 2.08-11.778 2.08-.722 0-1.299-.078-1.728-.234-.41-.156-.703-.469-.879-.938-.176-.449-.264-1.123-.264-2.021 0-1.113.088-2.022.264-2.725.176-.703.469-1.513.879-2.4314 2.812-6.2305 7.705-14.0723 14.677-23.5254-1.406.1562-2.949.459-4.628.9082-1.68.4297-3.272.9082-4.776 1.4355-1.504.5274-2.773 1.0352-3.808 1.5235-1.036.4882-1.553.8398-1.553 1.0546Zm15.615-5.0976c0 .0391.039.2637.117.6738.078.3906.117.7324.117 1.0254 0 .4492-.234 1.084-.703 1.9043-.449.8008-1.347 2.2363-2.695 4.3066-1.348 2.0704-2.5 3.8868-3.457 5.4493-.957 1.5625-2.09 3.5742-3.399 6.0351-.41.7813-.693 1.3086-.849 1.5821-.156.2734-.41.7226-.762 1.3476-.332.625-.576 1.1621-.732 1.6114-.157.449-.235.791-.235 1.025 0 .508.274.869.821 1.084.566.196 1.367.293 2.402.293 2.656 0 5.469-.478 8.438-1.435 2.968-.977 5.751-2.3245 8.349-4.0432 2.617-1.7188 4.707-3.6621 6.27-5.8301 1.562-2.168 2.343-4.4336 2.343-6.7969 0-2.6953-.986-4.7656-2.959-6.2109-1.972-1.4649-4.843-2.1973-8.613-2.1973-1.582 0-3.066.0586-4.453.1758Zm59.121-6.0645v1.9922c0 .8203-.166 1.3379-.498 1.5528-.312.2148-1.494.791-3.545 1.7285-2.031.9375-3.984 2.041-5.859 3.3105.722-1.0547 1.377-1.8359 1.963-2.3437.605-.5078 1.416-1.1426 2.431-1.9043-.879-.3516-2.099-.5274-3.662-.5274-2.422 0-5.039.4785-7.851 1.4356-2.793.957-5.176 2.0996-7.149 3.4277-1.953 1.3281-2.929 2.4414-2.929 3.3399 0 .4687.292.8593.878 1.1718.606.293 1.563.5274 2.872.7032 1.328.1562 2.978.2636 4.951.3222 1.972.0586 4.404.0879 7.295.0879 2.109 0 3.466.0781 4.072.2344.605.1562.908.5176.908 1.084 0 .7226-.361 1.5527-1.084 2.4902-.703.918-1.641 1.4648-2.812 1.6406-1.817.293-3.262.5469-4.336.7618-1.075.1953-2.354.5371-3.838 1.0253-1.465.4883-3.096 1.1914-4.893 2.1094-2.676 1.4063-4.765 2.832-6.269 4.2774-1.504 1.4453-2.256 2.7241-2.256 3.8381 0 .957.537 1.709 1.611 2.256 1.074.527 2.617.791 4.629.791 6.934 0 13.994-3.116 21.182-9.3461.039 1.9141-.176 3.6035-.645 5.0681-.449 1.446-1.377 2.832-2.783 4.16-1.172 1.114-2.891 2.178-5.156 3.194-2.246 1.015-4.707 1.826-7.383 2.431-2.656.606-5.156.909-7.5.909-2.715 0-4.961-.655-6.738-1.963-1.778-1.289-2.666-3.008-2.666-5.156 0-1.563.429-3.116 1.289-4.6587.859-1.543 2.177-3.0176 3.955-4.4238 1.777-1.4258 4.023-2.7149 6.738-3.8672 2.734-1.1524 5.879-2.0606 9.434-2.7246.507-.0977.761-.2539.761-.4688 0-.2344-.302-.3711-.908-.4101-.586-.0586-1.68-.0977-3.281-.1172-1.582-.0196-2.979-.0879-4.19-.2051-1.211-.1172-2.49-.3711-3.837-.7617-1.387-.4297-2.461-1.1817-3.223-2.2559-.742-1.0742-1.113-2.2656-1.113-3.5742 0-1.6797.605-3.3691 1.816-5.0684 1.211-1.6992 2.92-3.2324 5.127-4.5996 2.207-1.3672 4.873-2.4609 7.998-3.2812 3.145-.8399 6.582-1.2598 10.312-1.2598 2.149 0 3.643.127 4.483.3809.859.2344 1.357.5566 1.494.9668.137.3906.205 1.1328.205 2.2265Zm10.108 19.5118 8.935-13.3301c-2.031.0781-4.17.3711-6.416.8789-2.246.5078-4.17 1.0547-5.771 1.6406-1.602.5664-3.038 1.1133-4.307 1.6406-1.25.5078-2.148.8692-2.695 1.084-.137 0-.274-.0488-.411-.1465-.136-.0976-.205-.2148-.205-.3515 0-.1563.45-1.1133 1.348-2.8711.918-1.7578 1.992-3.6426 3.223-5.6543 6.836-2.4414 12.871-3.6621 18.105-3.6621 6.055 0 10.254 1.289 12.598 3.8672.84.8984 1.484 2.0117 1.933 3.3398.469 1.3086.704 2.6074.704 3.8965 0 2.9297-.616 5.5957-1.846 7.998-1.211 2.3828-2.949 4.4532-5.215 6.211-2.266 1.7578-4.932 3.1054-7.998 4.0429-3.066.918-6.426 1.377-10.078 1.377-.645 0-1.963-.1172-3.955-.3516l-2.637 4.805c.273.41.41.742.41.996 0 .605-.137 1.113-.41 1.523-.391.586-.908 1.358-1.553 2.315-.644.957-1.084 1.592-1.318 1.904-.215.312-.469.586-.762.82-.273.235-.547.352-.82.352-.566 0-.928-.176-1.084-.527-.156-.333-.234-.801-.234-1.407 0-.859.419-2.217 1.259-4.072.86-1.875 2.149-4.355 3.867-7.4414-.917-.3516-1.63-.8105-2.138-1.3769-.508-.5665-.762-1.1231-.762-1.67 0-1.2109.693-2.3339 2.08-3.3691 1.387-1.0352 3.438-1.8555 6.153-2.4609Zm3.046.791-1.67 2.8125c.743.039 1.397.0781 1.963.1172.586.039 1.075.0586 1.465.0586 3.418 0 6.377-.459 8.877-1.377 2.52-.918 4.512-2.0508 5.977-3.3984 1.484-1.3672 2.558-2.7344 3.222-4.1016.664-1.3672.996-2.5098.996-3.4277 0-1.2696-.507-2.2657-1.523-2.9883-1.016-.7227-2.48-1.211-4.394-1.4649-1.895-.2734-4.346-.4101-7.354-.4101.039.2148.059.4785.059.791 0 1.0156-.538 2.3535-1.612 4.0137l-5.097 7.998 3.838-.4394c.312 0 .468.1465.468.4394 0 .2539-.254.4297-.761.5274l-4.454.8496Zm94.014 9.1699c-2.363 2.6364-4.629 4.9804-6.797 7.0314-2.148 2.031-4.238 3.74-6.269 5.127-2.012 1.406-3.985 2.471-5.918 3.193-1.914.723-3.809 1.084-5.684 1.084-2.461 0-4.277-.723-5.449-2.168-1.152-1.426-1.729-3.428-1.729-6.006 0-1.347.147-2.851.44-4.511.293-1.68.781-3.3793 1.465-5.0981-1.426 1.7774-2.823 3.3891-4.19 4.8341-1.347 1.445-2.627 2.685-3.838 3.721-1.191 1.015-2.285 1.806-3.281 2.373-.976.566-1.797.849-2.461.849-.508 0-.908-.205-1.201-.615-.293-.391-.439-.928-.439-1.611 0-.84.341-2.11 1.025-3.809.683-1.699 1.689-3.74 3.017-6.1229 1.348-2.4024 2.999-5.0977 4.952-8.086 1.972-3.0078 4.248-6.2304 6.826-9.6679-.723.5859-1.631 1.4062-2.725 2.4609-1.094 1.0547-2.295 2.2461-3.603 3.5742-1.289 1.3086-2.647 2.7149-4.073 4.2188-1.425 1.4844-2.832 2.9687-4.218 4.4531-1.367 1.4648-2.686 2.8809-3.955 4.248-1.25 1.3668-2.364 2.5878-3.34 3.6618-1.914 2.11-3.721 3.975-5.42 5.596-1.699 1.641-3.379 3.018-5.039 4.131-1.641 1.113-3.301 1.953-4.981 2.519-1.66.586-3.408.879-5.244.879-.683 0-1.338-.088-1.963-.263-.625-.157-1.172-.401-1.64-.733-.469-.332-.84-.742-1.114-1.23-.293-.469-.439-1.016-.439-1.641 0-.41.068-.849.205-1.318.137-.449.43-1.074.879-1.875.371-.645.771-1.172 1.201-1.582.43-.41.879-.723 1.348-.938.449-.215.908-.361 1.377-.439.468-.078.927-.117 1.377-.117.507 0 .761.097.761.293 0 .097-.058.185-.175.263-.118.059-.235.108-.352.147-.566.215-.996.39-1.289.527-.293.117-.44.283-.44.498 0 .117.059.235.176.352.098.117.283.224.557.322.293.117.684.205 1.172.264.488.058 1.123.088 1.904.088 1.231 0 2.412-.137 3.545-.411 1.152-.273 2.295-.713 3.428-1.318 1.133-.625 2.275-1.426 3.427-2.402 1.153-.977 2.344-2.178 3.575-3.604 1.211-1.3865 2.295-2.8319 3.252-4.3358.976-1.5039 1.836-3.0078 2.578-4.5117.742-1.5039 1.377-2.9785 1.904-4.4238.527-1.4453.957-2.8125 1.289-4.1016.352-1.3086.606-2.5.762-3.5742.156-1.0937.234-2.0312.234-2.8125 0-1.2695-.215-2.2949-.644-3.0762-.41-.8007-1.084-1.5234-2.022-2.1679-.722.2539-1.553.6933-2.49 1.3183-.938.625-1.895 1.3574-2.871 2.1973-.957.8398-1.904 1.748-2.842 2.7246-.918.957-1.738 1.9141-2.461 2.8711-.723.957-1.308 1.8652-1.758 2.7246-.429.8594-.644 1.5918-.644 2.1973 0 .1757.049.3222.146.4394.098.1172.283.1758.557.1758.508 0 1.269-.2734 2.285-.8203.254-.0977.41-.1465.469-.1465.039 0 .088.0195.146.0586.059.0195.088.0781.088.1758 0 .1562-.176.4394-.527.8496-.352.3906-.918.9277-1.699 1.6113-1.465 1.2891-2.559 1.9336-3.282 1.9336-.273 0-.644-.1465-1.113-.4394-.469-.293-.928-.6543-1.377-1.084-.449-.4492-.84-.9278-1.172-1.4356-.332-.5078-.498-.9668-.498-1.3769 0-.1367.01-.2246.03-.2637.214-1.0352.673-2.1875 1.376-3.457.723-1.2696 1.602-2.5489 2.637-3.8379 1.055-1.3086 2.227-2.5781 3.516-3.8086 1.289-1.2305 2.607-2.3242 3.955-3.2813 1.367-.957 2.715-1.7285 4.043-2.3144 1.328-.586 2.568-.8789 3.721-.8789 1.308 0 2.49.2148 3.545.6445 1.054.4102 1.943 1.0254 2.666 1.8457.742.8008 1.308 1.7871 1.699 2.959.39 1.1523.586 2.4609.586 3.9258 0 1.4844-.254 3.2324-.762 5.2441-.488 2.0117-1.348 4.1406-2.578 6.3867 1.055-1.1523 2.178-2.3339 3.369-3.5449 1.211-1.2109 2.412-2.3828 3.603-3.5156 1.211-1.1524 2.383-2.2363 3.516-3.252 1.152-1.0156 2.197-1.9043 3.135-2.666.957-.7617 1.777-1.3574 2.461-1.7871.683-.4492 1.162-.6738 1.435-.6738.118 0 .235.0683.352.2051.117.1172.225.2734.322.4687.098.1953.176.4102.235.6445.058.2344.087.459.087.6739 0 .332-.058.6836-.175 1.0547-.118.3711-.254.7031-.41.9961-.157.2539-.411.6347-.762 1.1425-.352.5078-.723 1.045-1.113 1.6114-.391.5468-.772 1.0839-1.143 1.6113-.371.5078-.645.9082-.82 1.2012-1.27 2.0507-2.481 4.0625-3.633 6.0351-1.133 1.9727-2.188 3.8379-3.164 5.5957-.957 1.7383-1.807 3.3301-2.549 4.7754-.742 1.4449-1.348 2.6559-1.816 3.6329.507-.391 1.259-1.025 2.255-1.904.996-.899 2.1-1.9242 3.311-3.0765 1.23-1.1719 2.5-2.4219 3.809-3.75 1.328-1.3477 2.568-2.6661 3.72-3.9551.938-1.4649 2.002-2.9492 3.194-4.4532 1.191-1.5234 2.49-3.1152 3.896-4.7753 2.109-2.4414 4.121-4.502 6.035-6.1817 1.934-1.6992 3.731-3.0762 5.391-4.1308 1.66-1.0547 3.144-1.8164 4.453-2.2852 1.328-.4687 2.432-.7031 3.311-.7031 1.191 0 2.128.4492 2.812 1.3476.703.8985 1.055 2.1387 1.055 3.7207 0 .7813-.088 1.6114-.264 2.4903-.312 1.5039-.908 3.0957-1.787 4.7754-.879 1.6601-1.904 3.3105-3.076 4.9511-1.172 1.6211-2.432 3.1836-3.78 4.6875-1.328 1.4844-2.617 2.793-3.867 3.9258-1.23 1.1328-2.343 2.041-3.34 2.7246-.996.6641-1.748.9961-2.255.9961-.645 0-1.153-.2441-1.524-.7324-.371-.4883-.557-1.0449-.557-1.6699 0-.4883.176-1.084.528-1.7871.371-.7032.83-1.4356 1.377-2.1973.547-.7617 1.142-1.5137 1.787-2.2559.644-.7617 1.26-1.4453 1.846-2.0507.605-.6055 1.132-1.0938 1.582-1.4649.449-.3711.742-.5566.879-.5566.097 0 .146.0488.146.1465 0 .0976-.039.2441-.117.4394-.059.1758-.127.3711-.205.5859-.078.1954-.156.3711-.235.5274-.058.1562-.088.2441-.088.2637 0 .0976.049.1465.147.1465.176 0 .498-.2247.967-.6739.469-.4687 1.015-1.0742 1.64-1.8164s1.28-1.582 1.963-2.5195c.703-.957 1.358-1.9141 1.963-2.8711.625-.957 1.162-1.8848 1.612-2.7832.449-.8985.742-1.6797.878-2.3438.079-.2929.118-.6347.118-1.0254 0-1.0156-.411-1.5234-1.231-1.5234-.644 0-1.455.2832-2.431.8496-.958.5469-2.022 1.3086-3.194 2.2852-1.152.957-2.383 2.0898-3.691 3.3984-1.289 1.3086-2.578 2.7246-3.867 4.2481-1.27 1.5234-2.51 3.1152-3.721 4.7754-1.192 1.6601-2.285 3.3203-3.281 4.9804-.977 1.6602-1.827 3.291-2.549 4.8926-.703 1.6016-1.201 3.0957-1.494 4.4822-.196.938-.342 1.787-.44 2.549-.097.762-.146 1.484-.146 2.168 0 1.582.293 2.773.879 3.574.605.821 1.611 1.231 3.017 1.231 2.852 0 6.055-1.104 9.61-3.311 3.574-2.187 7.539-5.439 11.894-9.7557v1.9043Zm13.447-3.5449-4.687 6.1813c0 .274-.02.508-.059.703-.019.176-.068.342-.146.498-.078.157-.196.323-.352.499-.137.156-.312.351-.527.585-1.094 1.114-2.012 1.963-2.754 2.549-.742.586-1.416.879-2.022.879-.293 0-.546-.127-.761-.381-.215-.234-.323-.527-.323-.879 0-.468.274-1.093.821-1.875l8.584-10.6636c-.508-.8008-.762-1.6114-.762-2.4317 0-.8398.234-1.5625.703-2.1679.469-.625 1.026-1.1328 1.67-1.5235.645-.3711 2.373-1.3086 5.186-2.8125 2.109-2.7929 3.642-4.9218 4.599-6.3867.957-1.4648 1.436-2.3437 1.436-2.6367 0-.2149-.078-.3613-.235-.4395-.136-.0976-.312-.1464-.527-.1464-.391 0-1.142.1757-2.256.5273-1.113.3516-2.568.8887-4.365 1.6113-1.777.7031-3.877 1.6114-6.299 2.7246-2.422 1.1133-5.127 2.4317-8.115 3.9551-.273.1563-.576.2344-.908.2344-.41 0-.801-.127-1.172-.3809-.371-.2734-.557-.6933-.557-1.2597 0-.3125.039-.6055.117-.8789.079-.2735.166-.5567.264-.8497.117-.3125.244-.6542.381-1.0253.137-.3907.264-.8497.381-1.377.097-.4297.234-.8789.41-1.3477.195-.4687.508-.957.937-1.4648.45-.5078 1.055-1.0449 1.817-1.6113s1.767-1.1719 3.017-1.8164c.196-.0977.352-.1758.469-.2344.137-.0781.283-.1172.44-.1172.058 0 .117.0195.175.0586.059.0391.088.0977.088.1758 0 .039-.078.1074-.234.2051-.137.0976-.332.2539-.586.4687-.234.1953-.518.4688-.85.8203-.332.3321-.683.7617-1.054 1.2891 2.929-1.0156 5.4-1.8653 7.412-2.5488 2.031-.7032 3.76-1.2598 5.185-1.67 1.446-.4297 2.666-.7324 3.662-.9082 1.016-.1953 1.963-.2929 2.842-.2929.508 0 .957.2148 1.348.6445.41.4297.742.9082.996 1.4355.273.5274.479 1.0254.615 1.4942.137.4492.205.7129.205.791 0 .5078-.215 1.0742-.644 1.6992l-4.688 7.0313c1.875-.9375 3.516-1.7578 4.922-2.461 1.426-.7031 2.666-1.3379 3.721-1.9043l6.709-3.5449c1.289-.6836 2.295-1.2207 3.017-1.6113.723-.3906 1.27-.6738 1.641-.8496.391-.1953.654-.3125.791-.3516.156-.0586.303-.0879.44-.0879.195 0 .351.0488.468.1465.137.0781.205.2051.205.3809 0 .1953-.097.4785-.293.8496-.175.3711-.42.7812-.732 1.2304-.313.4493-.664.9082-1.055 1.377-.371.4687-.752.8984-1.142 1.2891-.391.3906-.772.7128-1.143.9668-.371.2343-.683.3515-.937.3515-.137 0-.303-.0293-.498-.0879-.196-.0781-.381-.1465-.557-.2051-.801.4102-1.729.879-2.783 1.4063-1.055.5273-2.168 1.084-3.34 1.6699-1.172.586-2.363 1.1817-3.574 1.7871-1.211.586-2.383 1.1524-3.516 1.6992-1.113.5469-2.148 1.0547-3.105 1.5235-.957.4687-1.758.8594-2.403 1.1719l-2.519 3.7793 14.853 10.0783c1.426.957 2.412 1.689 2.959 2.197.547.508.996 1.094 1.348 1.758.371.644.556 1.416.556 2.314 0 .293-.019.586-.058.879-.039.313-.108.586-.205.821-.078.253-.186.459-.322.615-.137.156-.303.234-.498.234-.372 0-1.036-.332-1.993-.996-.957-.644-2.285-1.553-3.984-2.725l-15.85-10.6343Zm21.827-9.4043.527-3.4278c.176-1.1718.488-2.1289.937-2.8711.45-.7421 1.241-1.5527 2.373-2.4316 1.114-.8984 2.852-2.168 5.215-3.8086 5.684-3.9648 10.108-5.9473 13.272-5.9473.957 0 1.631.1954 2.021.586.41.3906.615 1.0742.615 2.0508 0 .6836-.263 1.6211-.791 2.8125-.507 1.1914-1.455 3.0761-2.841 5.6543-1.368 2.5781-2.578 4.8925-3.633 6.9433-.86 1.6797-1.836 3.4668-2.93 5.3613-1.094 1.875-1.826 3.1641-2.197 3.8672-.371.7032-.557 1.2305-.557 1.5821 0 .3906.127.7324.381 1.0254.254.2734.567.4101.938.4101.507 0 1.074-.2734 1.699-.8203.644-.5469 1.894-1.7285 3.75-3.5449.898-.8985 1.855-1.9629 2.871-3.1934 1.035-1.2304 2.314-2.8125 3.838-4.7461 1.523-1.9336 2.929-3.7304 4.219-5.3906.8-1.0352 1.523-1.9629 2.168-2.7832.644-.8203 1.191-1.4453 1.64-1.875.469-.4492.84-.6738 1.113-.6738.235 0 .616.2929 1.143.8789l.703.9082c.527.7422.791 1.2793.791 1.6113 0 .3906-.732 1.8262-2.197 4.3067-1.445 2.4609-2.676 4.5996-3.692 6.416-1.015 1.7968-2.334 4.4043-3.955 7.8222-1.601 3.398-3.144 7.178-4.629 11.338 3.965-2.988 6.68-4.981 8.145-5.977 1.465-1.015 2.529-1.523 3.193-1.523.45 0 .674.185.674.557 0 .41-.215.947-.644 1.611-.43.644-1.006 1.367-1.729 2.168-.722.781-1.816 1.914-3.281 3.398-1.445 1.504-3.027 3.125-4.746 4.864-1.055 1.074-2.08 2.324-3.076 3.75-.996 1.425-1.768 2.529-2.315 3.31-.547.781-1.045 1.231-1.494 1.348-.664.195-1.269.049-1.816-.44-.547-.488-.821-1.259-.821-2.314 0-.742.371-2.276 1.114-4.6.761-2.324 1.904-5.215 3.427-8.672.899-2.07 1.817-4.023 2.754-5.859.938-1.8555 2.012-3.8867 3.223-6.0937 1.23-2.2266 2.432-4.336 3.603-6.3282 1.172-1.9921 2.168-3.6914 2.989-5.0976-1.953 2.5586-3.897 5.0488-5.83 7.4707-1.914 2.4023-4.063 4.9414-6.446 7.6172-2.363 2.6566-4.756 5.1466-7.177 7.4706-1.055.996-1.817 1.67-2.286 2.022-.449.371-1.044.556-1.787.556-.468 0-.927-.166-1.377-.498-.429-.312-.791-.722-1.084-1.23-.293-.528-.439-1.035-.439-1.524 0-.82.117-1.543.351-2.168.254-.625.684-1.562 1.29-2.8122 2.656-5.3711 4.589-9.0528 5.8-11.0449 4.336-6.9532 6.504-10.8497 6.504-11.6895 0-.2734-.097-.4883-.293-.6445-.195-.1758-.439-.2637-.732-.2637-.547 0-1.201.2441-1.963.7324-.762.4688-1.719 1.1719-2.871 2.1094s-2.559 2.0605-4.219 3.3691c-1.641 1.3086-3.369 2.5586-5.185 3.75-.723.4688-1.534 1.0254-2.432 1.67-.918.6445-1.445.9668-1.582.9668-.274 0-.41-.1368-.41-.4102 0-.2539.058-.791.176-1.6113ZM15.9492 147.195l-1.4941 1.758c1.7383.156 3.291.371 4.6582.645 1.3672.254 2.6269.547 3.7793.879 1.1719.312 2.1972.644 3.0762.996 3.0859 1.289 4.6289 3.086 4.6289 5.39 0 1.407-.6446 2.783-1.9336 4.131-1.2891 1.348-2.9688 2.549-5.0391 3.604-2.0508 1.054-4.1699 1.875-6.3574 2.461-2.168.605-4.1406.908-5.918.908-2.96874 0-5.28319-.547-6.94335-1.641-1.66016-1.113-2.49023-2.627-2.49023-4.541 0-1.328.50781-2.89 1.52343-4.687 1.01563-1.797 2.58789-4.034 4.7168-6.709-1.60156-.078-2.73437-.313-3.39844-.703-.66406-.411-.99609-.977-.99609-1.7 0-.449.12695-.791.38086-1.025.2539-.234.5957-.4 1.02539-.498.42969-.117 1.25-.254 2.46094-.41 1.23047-.157 2.80269-.352 4.71679-.586 2.1289-2.617 4.0332-4.58 5.7129-5.889 1.6992-1.328 3.5156-2.09 5.4492-2.285.1563-.02.3223-.029.4981-.029.1953 0 .2929.048.2929.146 0 .117-.2246.43-.6738.938-.4297.507-1.1426 1.318-2.1387 2.431-.9765 1.114-2.1386 2.432-3.4863 3.955 3.6719-.488 6.6699-1.045 8.9941-1.67 2.3438-.644 4.1114-1.406 5.3028-2.285 1.1914-.879 1.7871-1.855 1.7871-2.929 0-1.309-.6348-2.256-1.9043-2.842-1.2695-.586-3.2129-.879-5.8301-.879-1.4453 0-3.1055.146-4.9805.439-1.8554.293-3.5449.625-5.0683.996-1.5039.372-2.8516.772-4.043 1.202-1.1719.41-1.7578.713-1.7578.908 0 .058.0586.117.1758.176.957.351 1.4355.644 1.4355.879 0 .312-1.4648.917-4.3945 1.816-2.92969.879-4.90235 1.318-5.91797 1.318-.72266 0-1.083986-.361-1.083986-1.084 0-.859.781246-2.402 2.343746-4.629 1.58203-2.246 3.01758-3.681 4.30664-4.306.44922-.215 1.49415-.557 3.13477-1.026 1.6406-.468 3.4375-.918 5.3906-1.347 1.9727-.43 3.9746-.791 6.0059-1.084 2.0312-.293 3.8281-.44 5.3906-.44 3.6914 0 6.4649.664 8.3203 1.992 1.8555 1.309 2.7832 2.959 2.7832 4.952 0 1.347-.4297 2.646-1.289 3.896-.8399 1.25-2.1582 2.432-3.9551 3.545s-4.1406 2.09-7.0313 2.93c-2.8711.84-6.2597 1.484-10.166 1.933Zm-3.1054 3.78c-1.0157 1.211-1.9239 2.285-2.7247 3.222-.78121.918-1.34762 1.67-1.69918 2.256-.33203.567-.49804 1.143-.49804 1.729 0 .937.47851 1.777 1.43554 2.519.97658.723 2.37308 1.084 4.18948 1.084 1.6797 0 3.4668-.293 5.3613-.879 1.9141-.605 3.5156-1.386 4.8047-2.344 1.3086-.957 1.9629-1.923 1.9629-2.9 0-.84-.4785-1.533-1.4356-2.08-.957-.547-2.4121-1.025-4.3652-1.436-1.9531-.429-4.2969-.82-7.0312-1.171Zm72.539-7.061c-1.914 2.813-3.5254 5.361-4.834 7.647-1.3086 2.285-2.2949 4.238-2.959 5.859-.6445 1.601-.9668 2.793-.9668 3.574 0 1.445.6348 2.168 1.9043 2.168 1.3477 0 4.3946-1.836 9.1407-5.508l-.0586 2.022c-5.4883 5.605-9.5117 8.408-12.0703 8.408-3.0469 0-4.5703-1.582-4.5703-4.746 0-1.895.9277-4.58 2.7832-8.057 1.8554-3.476 4.6875-7.969 8.496-13.476-4.4726 4.883-8.2128 8.896-11.2207 12.041-2.9882 3.144-6.0839 6.191-9.2871 9.14-.7617.723-1.455 1.387-2.08 1.993-.625.585-1.25 1.054-1.875 1.406-.625.332-1.3086.498-2.0508.498-1.1524 0-2.1094-.449-2.8711-1.348-.7617-.898-1.1426-2.168-1.1426-3.808 0-1.055.3125-2.276.9375-3.663.625-1.406 1.5723-3.037 2.8418-4.892 1.2695-1.856 2.832-3.887 4.6875-6.094 3.0078-3.613 5.0879-6.162 6.2402-7.646 1.1524-1.485 1.7285-2.432 1.7285-2.842 0-.293-.1562-.44-.4687-.44-.3711 0-.9961.176-1.875.528-.8594.332-2.002.888-3.4277 1.67-1.4258.761-3.2618 1.855-5.5078 3.281-1.6797 1.055-3.3399 1.914-4.9805 2.578-1.6211.645-2.7637.967-3.4277.967-.3907 0-.7129-.108-.9668-.322-.2735-.215-.4102-.489-.4102-.821 0-.469.2051-1.23.6152-2.285.4102-1.074.9473-2.178 1.6114-3.31.6445-1.153 1.2207-2.012 1.7285-2.579 1.4062-1.562 3.3301-2.939 5.7715-4.13 2.4414-1.192 4.9511-2.11 7.5293-2.754 2.5781-.645 4.707-.967 6.3867-.967 1.25 0 2.1582.215 2.7246.644.5859.411.8789 1.094.8789 2.051 0 2.09-.2637 3.711-.791 4.863-.5274 1.133-1.4063 2.608-2.6367 4.424-.4493.703-1.1231 1.67-2.0215 2.901-.8789 1.211-1.7774 2.402-2.6953 3.574-.8985 1.152-1.6407 2.119-2.2266 2.9-.5859.782-1.1914 1.641-1.8164 2.578-1.6992 2.5-2.7734 4.112-3.2227 4.834-.4492.723-.6738 1.348-.6738 1.875 0 .684.3223 1.026.9668 1.026.5859 0 1.1523-.205 1.6992-.615.5469-.43 1.7188-1.426 3.5156-2.989 2.0704-1.777 4.0821-3.642 6.0352-5.595 1.9531-1.954 3.7305-3.809 5.332-5.567 1.6016-1.777 3.6328-4.072 6.0938-6.885 2.7539-3.203 4.5117-5.205 5.2734-6.005.7617-.801 1.3867-1.202 1.875-1.202.4297 0 .8106.352 1.1426 1.055.3516.684.5273 1.65.5273 2.9 0 .665-.3418 1.553-1.0253 2.666-.6641 1.094-2.0997 3.252-4.3067 6.475Zm8.2617-2.637-6.2988 3.311c-.9766.488-1.6309.732-1.9629.732-.6055 0-1.0449-.185-1.3183-.556-.293-.391-.4395-.987-.4395-1.787 0-.918.1953-1.973.5859-3.165.3907-1.21.8399-2.099 1.3477-2.666.5273-.585 1.7578-1.386 3.6914-2.402 1.9531-1.035 4.2969-2.07 7.0312-3.105 2.7344-1.035 5.5858-1.895 8.5548-2.578 2.969-.684 5.684-1.026 8.144-1.026 1.719 0 2.989.274 3.809.82.82.547 1.231 1.993 1.231 4.336 0 1.27-.44 2.686-1.319 4.248-.859 1.543-1.904 3.047-3.135 4.512-1.211 1.465-3.466 4.063-6.767 7.793 1.758-.273 3.047-.449 3.867-.527.82-.078 2.354-.244 4.6-.498 2.597-3.75 4.697-6.739 6.298-8.965 1.602-2.246 2.959-4.102 4.073-5.566 1.113-1.485 1.777-2.334 1.992-2.549.391-.45.713-.616.967-.498.273.097.41.498.41 1.201 0 .801-.088 1.455-.264 1.963-.156.507-.41 1.015-.762 1.523-.351.488-.537.752-.556.791-.508.84-1.24 1.943-2.197 3.311-.957 1.347-1.895 2.685-2.813 4.013-.918 1.328-1.963 2.901-3.135 4.717 2.188.078 4.346.361 6.475.85l-5.274 7.148c-1.445-.195-3.369-.293-5.771-.293l-1.377 2.754c-.312.664-.586 1.299-.82 1.904-.215.586-.323 1.133-.323 1.641 0 .313.088.732.264 1.26.195.508.293.801.293.879 0 .39-.293.81-.879 1.259-.566.43-1.24.811-2.021 1.143-.762.332-1.358.498-1.787.498-.723 0-1.084-.547-1.084-1.641 0-2.265 1.162-5.419 3.486-9.462-3.086.254-6.631.712-10.6348 1.377-1.1524 1.523-2.1973 2.968-3.1348 4.335-.9375 1.368-1.709 2.52-2.3144 3.458-.586.937-1.0254 1.562-1.3184 1.875-.2734.312-.5762.468-.9082.468-.5664 0-1.0449-.244-1.4356-.732-.1757-.195-.2929-.391-.3515-.586-.0391-.195-.0586-.41-.0586-.645v-.615c0-.234.1269-.576.3808-1.025.254-.449.8594-1.338 1.8165-2.666.957-1.348 1.6601-2.364 2.1093-3.047-.5078.058-1.1621.088-1.9629.088-1.0156 0-1.8457-.186-2.4902-.557-.625-.371-.9375-.83-.9375-1.377 0-.625.166-1.289.4981-1.992.332-.723.7617-1.318 1.289-1.787.5274-.488 1.0547-.733 1.582-.733.3516 0 .7715.108 1.2598.323l7.5584-1.875c4.219-4.571 7.363-8.184 9.434-10.84 2.07-2.656 3.105-4.365 3.105-5.127 0-.43-.117-.781-.351-1.055-.235-.293-.567-.517-.996-.674-.411-.156-.889-.234-1.436-.234-.644 0-1.67.176-3.076.527-1.387.352-3.047.87-4.981 1.553-1.933.684-4.3453 1.631-7.2359 2.842-2.1484.879-3.2227 1.435-3.2227 1.67 0 .273.1465.449.4395.527.293.078.6641.137 1.1133.176.4687.039.7031.107.7031.205 0 .078-.1172.186-.3516.322-.2148.137-.5175.303-.9082.498ZM149.66 161.17l.967.732c-.254.547-.498 1.026-.732 1.436-.235.41-.518.908-.85 1.494-.332.586-.586 1.025-.762 1.318-1.465 2.559-2.842 3.838-4.131 3.838-.547 0-1.015-.215-1.406-.644-.391-.43-.586-1.016-.586-1.758 0-1.055.371-2.5 1.113-4.336.762-1.836 1.924-4.092 3.487-6.768 1.582-2.695 3.564-5.742 5.947-9.14 2.383-3.399 5.068-6.983 8.057-10.752-1.719-.254-3.76-.381-6.123-.381-2.715 0-5.743.303-9.082.908-3.321.606-6.221 1.309-8.702 2.11-2.461.781-3.691 1.357-3.691 1.728 0 .137.049.234.146.293.098.039.254.078.469.117.235.02.528.049.879.088 2.285.313 3.428.664 3.428 1.055 0 .195-.498.293-1.494.293-.996-.02-2.198-.03-3.604-.03-1.113 0-1.924-.039-2.431-.117-.489-.097-.821-.263-.997-.498-.156-.254-.234-.635-.234-1.142 0-.332.098-1.055.293-2.168.371-2.071.938-3.731 1.699-4.981.782-1.25 1.963-2.265 3.545-3.047 1.602-.8 3.799-1.435 6.592-1.904 4.688-.801 8.564-1.201 11.631-1.201 2.266 0 4.053.098 5.361.293 1.309.176 2.266.439 2.871.791.625.351 1.016.703 1.172 1.055.176.332.401.918.674 1.757l.908 2.696c.059.175.108.322.147.439.039.098.068.205.088.322.039.118.058.225.058.323 0 .761-.176 1.445-.527 2.05-.332.606-.957 1.514-1.875 2.725-.899 1.211-1.563 2.158-1.992 2.842-5.039 8.183-8.477 14.238-10.313 18.164Zm49.512-31.084v1.992c0 .82-.166 1.338-.498 1.553-.313.215-1.494.791-3.545 1.728-2.031.938-3.984 2.041-5.859 3.311.722-1.055 1.376-1.836 1.962-2.344.606-.508 1.416-1.142 2.432-1.904-.879-.352-2.1-.527-3.662-.527-2.422 0-5.039.478-7.852 1.435-2.793.957-5.175 2.1-7.148 3.428-1.953 1.328-2.93 2.441-2.93 3.34 0 .468.293.859.879 1.172.606.292 1.563.527 2.871.703 1.328.156 2.979.263 4.951.322 1.973.059 4.405.088 7.295.088 2.11 0 3.467.078 4.073.234.605.156.908.518.908 1.084 0 .723-.361 1.553-1.084 2.49-.703.918-1.641 1.465-2.813 1.641-1.816.293-3.261.547-4.336.762-1.074.195-2.353.537-3.837 1.025-1.465.488-3.096 1.192-4.893 2.11-2.676 1.406-4.766 2.832-6.27 4.277-1.504 1.445-2.255 2.724-2.255 3.838 0 .957.537 1.709 1.611 2.256 1.074.527 2.617.791 4.629.791 6.933 0 13.994-3.116 21.181-9.346.039 1.914-.175 3.603-.644 5.068-.449 1.446-1.377 2.832-2.783 4.16-1.172 1.114-2.891 2.178-5.157 3.194-2.246 1.015-4.707 1.826-7.382 2.431-2.657.606-5.157.909-7.5.909-2.715 0-4.961-.655-6.739-1.963-1.777-1.289-2.666-3.008-2.666-5.156 0-1.563.43-3.116 1.289-4.659.86-1.543 2.178-3.017 3.955-4.424 1.778-1.425 4.024-2.714 6.739-3.867 2.734-1.152 5.879-2.06 9.433-2.724.508-.098.762-.254.762-.469 0-.234-.303-.371-.908-.41-.586-.059-1.68-.098-3.281-.117-1.582-.02-2.979-.088-4.19-.206-1.211-.117-2.49-.371-3.838-.761-1.386-.43-2.461-1.182-3.222-2.256-.743-1.074-1.114-2.266-1.114-3.574 0-1.68.606-3.369 1.817-5.069 1.211-1.699 2.92-3.232 5.127-4.599s4.873-2.461 7.998-3.282c3.144-.839 6.582-1.259 10.312-1.259 2.149 0 3.643.127 4.483.381.859.234 1.357.556 1.494.966.137.391.205 1.133.205 2.227Zm10.107 19.512 8.936-13.33c-2.031.078-4.17.371-6.416.878-2.246.508-4.17 1.055-5.772 1.641-1.601.567-3.037 1.113-4.306 1.641-1.25.508-2.149.869-2.696 1.084-.136 0-.273-.049-.41-.147-.136-.097-.205-.215-.205-.351 0-.157.449-1.114 1.348-2.871.918-1.758 1.992-3.643 3.222-5.655 6.836-2.441 12.872-3.662 18.106-3.662 6.055 0 10.254 1.289 12.598 3.867.839.899 1.484 2.012 1.933 3.34.469 1.309.703 2.608.703 3.897 0 2.929-.615 5.595-1.845 7.998-1.211 2.383-2.95 4.453-5.215 6.211-2.266 1.757-4.932 3.105-7.998 4.043-3.067.918-6.426 1.377-10.078 1.377-.645 0-1.963-.118-3.955-.352l-2.637 4.805c.273.41.41.742.41.996 0 .605-.137 1.113-.41 1.523-.391.586-.908 1.358-1.553 2.315-.644.957-1.084 1.592-1.318 1.904-.215.312-.469.586-.762.82-.273.235-.547.352-.82.352-.567 0-.928-.176-1.084-.527-.157-.333-.235-.801-.235-1.407 0-.859.42-2.217 1.26-4.072.859-1.875 2.149-4.355 3.867-7.441-.918-.352-1.631-.811-2.138-1.377-.508-.567-.762-1.123-.762-1.67 0-1.211.693-2.334 2.08-3.369 1.387-1.036 3.437-1.856 6.152-2.461Zm3.047.791-1.67 2.812c.742.039 1.397.078 1.963.117.586.039 1.074.059 1.465.059 3.418 0 6.377-.459 8.877-1.377 2.519-.918 4.512-2.051 5.977-3.398 1.484-1.368 2.558-2.735 3.222-4.102.664-1.367.996-2.51.996-3.428 0-1.269-.508-2.265-1.523-2.988-1.016-.723-2.481-1.211-4.395-1.465-1.894-.273-4.345-.41-7.353-.41.039.215.058.479.058.791 0 1.016-.537 2.354-1.611 4.014l-5.098 7.998 3.838-.44c.313 0 .469.147.469.44 0 .254-.254.429-.762.527l-4.453.85Zm28.916-9.112-6.299 3.311c-.976.488-1.631.732-1.963.732-.605 0-1.044-.185-1.318-.556-.293-.391-.439-.987-.439-1.787 0-.918.195-1.973.586-3.165.39-1.21.839-2.099 1.347-2.666.528-.585 1.758-1.386 3.692-2.402 1.953-1.035 4.297-2.07 7.031-3.105 2.734-1.035 5.586-1.895 8.555-2.578 2.968-.684 5.683-1.026 8.144-1.026 1.719 0 2.988.274 3.809.82.82.547 1.23 1.993 1.23 4.336 0 1.27-.439 2.686-1.318 4.248-.86 1.543-1.904 3.047-3.135 4.512-1.211 1.465-3.467 4.063-6.768 7.793 1.758-.273 3.047-.449 3.868-.527.82-.078 2.353-.244 4.599-.498 2.598-3.75 4.698-6.739 6.299-8.965 1.602-2.246 2.959-4.102 4.072-5.566 1.114-1.485 1.778-2.334 1.993-2.549.39-.45.712-.616.966-.498.274.097.411.498.411 1.201 0 .801-.088 1.455-.264 1.963-.156.507-.41 1.015-.762 1.523-.351.488-.537.752-.557.791-.507.84-1.24 1.943-2.197 3.311-.957 1.347-1.894 2.685-2.812 4.013-.918 1.328-1.963 2.901-3.135 4.717 2.187.078 4.346.361 6.475.85l-5.274 7.148c-1.445-.195-3.369-.293-5.771-.293l-1.377 2.754c-.313.664-.586 1.299-.821 1.904-.214.586-.322 1.133-.322 1.641 0 .313.088.732.264 1.26.195.508.293.801.293.879 0 .39-.293.81-.879 1.259-.567.43-1.24.811-2.022 1.143-.761.332-1.357.498-1.787.498-.722 0-1.084-.547-1.084-1.641 0-2.265 1.162-5.419 3.487-9.462-3.086.254-6.631.712-10.635 1.377-1.153 1.523-2.197 2.968-3.135 4.335-.937 1.368-1.709 2.52-2.314 3.458-.586.937-1.026 1.562-1.319 1.875-.273.312-.576.468-.908.468-.566 0-1.045-.244-1.436-.732-.175-.195-.292-.391-.351-.586-.039-.195-.059-.41-.059-.645v-.615c0-.234.127-.576.381-1.025.254-.449.86-1.338 1.817-2.666.957-1.348 1.66-2.364 2.109-3.047-.508.058-1.162.088-1.963.088-1.016 0-1.846-.186-2.49-.557-.625-.371-.938-.83-.938-1.377 0-.625.166-1.289.498-1.992.332-.723.762-1.318 1.289-1.787.528-.488 1.055-.733 1.583-.733.351 0 .771.108 1.259.323l7.559-1.875c4.219-4.571 7.363-8.184 9.433-10.84 2.071-2.656 3.106-4.365 3.106-5.127 0-.43-.117-.781-.352-1.055-.234-.293-.566-.517-.996-.674-.41-.156-.888-.234-1.435-.234-.645 0-1.67.176-3.076.527-1.387.352-3.047.87-4.981 1.553-1.934.684-4.346 1.631-7.236 2.842-2.149.879-3.223 1.435-3.223 1.67 0 .273.147.449.44.527.293.078.664.137 1.113.176.469.039.703.107.703.205 0 .078-.117.186-.352.322-.214.137-.517.303-.908.498Zm71.133-11.191v1.992c0 .82-.166 1.338-.498 1.553-.313.215-1.494.791-3.545 1.728-2.031.938-3.984 2.041-5.859 3.311.722-1.055 1.377-1.836 1.963-2.344.605-.508 1.416-1.142 2.431-1.904-.879-.352-2.099-.527-3.662-.527-2.422 0-5.039.478-7.851 1.435-2.793.957-5.176 2.1-7.149 3.428-1.953 1.328-2.93 2.441-2.93 3.34 0 .468.293.859.879 1.172.606.292 1.563.527 2.871.703 1.329.156 2.979.263 4.952.322 1.972.059 4.404.088 7.294.088 2.11 0 3.467.078 4.073.234.605.156.908.518.908 1.084 0 .723-.361 1.553-1.084 2.49-.703.918-1.641 1.465-2.813 1.641-1.816.293-3.261.547-4.335.762-1.075.195-2.354.537-3.838 1.025-1.465.488-3.096 1.192-4.893 2.11-2.676 1.406-4.766 2.832-6.269 4.277-1.504 1.445-2.256 2.724-2.256 3.838 0 .957.537 1.709 1.611 2.256 1.074.527 2.617.791 4.629.791 6.934 0 13.994-3.116 21.182-9.346.039 1.914-.176 3.603-.645 5.068-.449 1.446-1.377 2.832-2.783 4.16-1.172 1.114-2.891 2.178-5.156 3.194-2.247 1.015-4.707 1.826-7.383 2.431-2.657.606-5.157.909-7.5.909-2.715 0-4.961-.655-6.739-1.963-1.777-1.289-2.666-3.008-2.666-5.156 0-1.563.43-3.116 1.29-4.659.859-1.543 2.177-3.017 3.955-4.424 1.777-1.425 4.023-2.714 6.738-3.867 2.734-1.152 5.879-2.06 9.433-2.724.508-.098.762-.254.762-.469 0-.234-.303-.371-.908-.41-.586-.059-1.68-.098-3.281-.117-1.582-.02-2.979-.088-4.19-.206-1.211-.117-2.49-.371-3.838-.761-1.386-.43-2.461-1.182-3.222-2.256-.742-1.074-1.114-2.266-1.114-3.574 0-1.68.606-3.369 1.817-5.069 1.211-1.699 2.92-3.232 5.127-4.599s4.873-2.461 7.998-3.282c3.144-.839 6.582-1.259 10.312-1.259 2.149 0 3.643.127 4.483.381.859.234 1.357.556 1.494.966.137.391.205 1.133.205 2.227Zm21.797 31.084.967.732c-.254.547-.498 1.026-.733 1.436-.234.41-.517.908-.849 1.494-.332.586-.586 1.025-.762 1.318-1.465 2.559-2.842 3.838-4.131 3.838-.547 0-1.016-.215-1.406-.644-.391-.43-.586-1.016-.586-1.758 0-1.055.371-2.5 1.113-4.336.762-1.836 1.924-4.092 3.486-6.768 1.583-2.695 3.565-5.742 5.948-9.14 2.383-3.399 5.068-6.983 8.056-10.752-1.718-.254-3.759-.381-6.123-.381-2.714 0-5.742.303-9.082.908-3.32.606-6.22 1.309-8.701 2.11-2.461.781-3.691 1.357-3.691 1.728 0 .137.049.234.146.293.098.039.254.078.469.117.234.02.527.049.879.088 2.285.313 3.428.664 3.428 1.055 0 .195-.498.293-1.495.293-.996-.02-2.197-.03-3.603-.03-1.113 0-1.924-.039-2.432-.117-.488-.097-.82-.263-.996-.498-.156-.254-.234-.635-.234-1.142 0-.332.098-1.055.293-2.168.371-2.071.937-3.731 1.699-4.981.781-1.25 1.963-2.265 3.545-3.047 1.602-.8 3.799-1.435 6.592-1.904 4.687-.801 8.564-1.201 11.631-1.201 2.265 0 4.052.098 5.361.293 1.309.176 2.266.439 2.871.791.625.351 1.016.703 1.172 1.055.176.332.4.918.674 1.757l.908 2.696c.059.175.107.322.146.439.039.098.069.205.088.322.039.118.059.225.059.323 0 .761-.176 1.445-.527 2.05-.332.606-.957 1.514-1.875 2.725-.899 1.211-1.563 2.158-1.993 2.842-5.039 8.183-8.476 14.238-10.312 18.164Zm49.512-31.084v1.992c0 .82-.166 1.338-.498 1.553-.313.215-1.495.791-3.545 1.728-2.032.938-3.985 2.041-5.86 3.311.723-1.055 1.377-1.836 1.963-2.344.606-.508 1.416-1.142 2.432-1.904-.879-.352-2.1-.527-3.662-.527-2.422 0-5.039.478-7.852 1.435-2.793.957-5.176 2.1-7.148 3.428-1.953 1.328-2.93 2.441-2.93 3.34 0 .468.293.859.879 1.172.605.292 1.562.527 2.871.703 1.328.156 2.978.263 4.951.322 1.973.059 4.404.088 7.295.088 2.109 0 3.467.078 4.072.234.606.156.909.518.909 1.084 0 .723-.362 1.553-1.084 2.49-.704.918-1.641 1.465-2.813 1.641-1.816.293-3.262.547-4.336.762-1.074.195-2.353.537-3.838 1.025-1.465.488-3.095 1.192-4.892 2.11-2.676 1.406-4.766 2.832-6.27 4.277-1.504 1.445-2.256 2.724-2.256 3.838 0 .957.537 1.709 1.612 2.256 1.074.527 2.617.791 4.628.791 6.934 0 13.995-3.116 21.182-9.346.039 1.914-.176 3.603-.644 5.068-.45 1.446-1.377 2.832-2.784 4.16-1.171 1.114-2.89 2.178-5.156 3.194-2.246 1.015-4.707 1.826-7.383 2.431-2.656.606-5.156.909-7.5.909-2.715 0-4.961-.655-6.738-1.963-1.777-1.289-2.666-3.008-2.666-5.156 0-1.563.43-3.116 1.289-4.659.859-1.543 2.178-3.017 3.955-4.424 1.778-1.425 4.024-2.714 6.738-3.867 2.735-1.152 5.879-2.06 9.434-2.724.508-.098.762-.254.762-.469 0-.234-.303-.371-.908-.41-.586-.059-1.68-.098-3.282-.117-1.582-.02-2.978-.088-4.189-.206-1.211-.117-2.49-.371-3.838-.761-1.387-.43-2.461-1.182-3.223-2.256-.742-1.074-1.113-2.266-1.113-3.574 0-1.68.606-3.369 1.816-5.069 1.211-1.699 2.92-3.232 5.127-4.599s4.873-2.461 7.998-3.282c3.145-.839 6.582-1.259 10.313-1.259 2.148 0 3.643.127 4.482.381.86.234 1.358.556 1.495.966.136.391.205 1.133.205 2.227ZM69.4746 195.652c.0977.43.1465.743.1465.938 0 .488-.1856.82-.5566.996-.3711.176-.9278.264-1.67.264h-.5859c-.1953 0-.4004-.02-.6152-.059-.1954-.02-.586-.059-1.1719-.117-.586-.078-1.2988-.166-2.1387-.264-.8398-.117-1.7871-.234-2.8418-.351-1.0547-.118-2.1387-.225-3.2519-.323-1.1133-.097-2.2364-.185-3.3692-.263-1.1133-.078-2.1679-.127-3.164-.147-.918.977-1.8653 2.002-2.8418 3.076-.9571 1.055-1.9239 2.178-2.9004 3.369-.9571 1.192-1.8946 2.461-2.8125 3.809-.8985 1.328-1.7481 2.754-2.5489 4.277 1.0352-1.113 2.0215-2.08 2.959-2.9.9571-.84 1.9629-1.523 3.0176-2.051 1.0742-.547 2.2559-.957 3.5449-1.23 1.2891-.274 2.793-.41 4.5117-.41 1.2305 0 2.334.117 3.3106.351.9961.235 1.8359.615 2.5195 1.143.7032.508 1.2403 1.181 1.6114 2.021.371.84.5566 1.856.5566 3.047 0 .508-.0391 1.045-.1172 1.611-.0586.567-.1465 1.153-.2637 1.758-.2734 1.328-.7812 2.588-1.5234 3.78-.7227 1.191-1.5918 2.294-2.6074 3.31-1.0157.996-2.1387 1.895-3.3692 2.695-1.2109.801-2.4511 1.485-3.7207 2.051-1.25.567-2.4804.996-3.6914 1.289-1.2109.313-2.3242.469-3.3398.469-1.4258 0-2.7344-.225-3.9258-.674-1.1914-.429-2.2168-1.055-3.0762-1.875-.8593-.84-1.5332-1.865-2.0215-3.076-.4687-1.23-.7031-2.627-.7031-4.189 0-1.192.127-2.364.3809-3.516.3711-1.699 1.0547-3.389 2.0508-5.068 1.0156-1.68 2.207-3.301 3.5742-4.864 1.3672-1.562 2.8418-3.037 4.4238-4.424 1.582-1.406 3.1348-2.666 4.6582-3.779-1.6992.117-3.3691.313-5.0098.586-1.6406.254-3.1054.527-4.3945.82-1.289.293-2.334.577-3.1348.85-.8007.273-1.2011.479-1.2011.615 0 .157.1172.254.3515.293.2344.02.6055.078 1.1133.176 1.1133.234 1.9336.459 2.461.674.5468.195.83.351.8496.469-.0586.136-.3125.205-.7618.205h-.3222c-.1172 0-.2539-.01-.4102-.03-1.6211-.156-2.9004-.263-3.8379-.322-.9179-.078-1.6113-.166-2.08-.264-.4688-.117-.7715-.283-.9082-.498-.1172-.214-.1758-.556-.1758-1.025 0-.137.0195-.352.0586-.645.0586-.292.166-.703.3222-1.23.4102-1.328.8789-2.451 1.4063-3.369.5273-.918 1.2305-1.68 2.1094-2.285.8984-.625 2.0312-1.114 3.3984-1.465 1.3867-.352 3.1445-.625 5.2734-.82 1.4844-.137 2.8809-.225 4.1895-.264 1.3086-.059 2.5488-.088 3.7207-.088 1.0937 0 2.2168.039 3.3691.117 1.1719.059 2.3242.156 3.4571.293 1.1328.117 2.2168.254 3.2519.41 1.0547.157 2.002.323 2.8418.498.8399.157 1.5527.323 2.1387.498.5859.157.9961.303 1.2305.44.2148.137.4003.283.5566.439.1562.137.293.303.4101.498.1172.196.2247.43.3223.703.1172.274.2344.596.3516.967l.6152 2.08ZM57.082 211.648c0-.429-.1172-.888-.3515-1.377-.2344-.488-.586-.937-1.0547-1.347-.4688-.41-1.0645-.752-1.7871-1.026-.7032-.273-1.5332-.41-2.4903-.41-.7812 0-1.6211.137-2.5195.41-.8789.274-1.7578.655-2.6367 1.143-.8789.469-1.7383 1.025-2.5781 1.67-.8203.625-1.5723 1.309-2.2559 2.051-.6836.722-1.2598 1.484-1.7285 2.285-.4688.781-.7813 1.562-.9375 2.344-.0977.449-.1758.888-.2344 1.318-.039.43-.0586.859-.0586 1.289 0 .645.0684 1.26.2051 1.846.1367.586.3516 1.103.6445 1.552.3125.43.7129.782 1.2012 1.055.5078.254 1.123.381 1.8457.381.957 0 1.9824-.254 3.0762-.762 1.0937-.508 2.1875-1.162 3.2812-1.963 1.0938-.82 2.1387-1.728 3.1348-2.724 1.0156-.996 1.9141-1.983 2.6953-2.959.7813-.977 1.3965-1.885 1.8457-2.725.4688-.859.7031-1.543.7031-2.051Zm47.9-21.562v1.992c0 .82-.166 1.338-.498 1.553-.312.215-1.494.791-3.545 1.728-2.0308.938-3.9839 2.041-5.8589 3.311.7226-1.055 1.3769-1.836 1.9629-2.344.6054-.508 1.416-1.142 2.4316-1.904-.8789-.352-2.0996-.527-3.6621-.527-2.4219 0-5.0391.478-7.8516 1.435-2.7929.957-5.1757 2.1-7.1484 3.428-1.9531 1.328-2.9297 2.441-2.9297 3.34 0 .468.293.859.8789 1.172.6055.292 1.5625.527 2.8711.703 1.3281.156 2.9785.263 4.9512.322 1.9726.059 4.4043.088 7.2949.088 2.1094 0 3.4668.078 4.0723.234.6054.156.9082.518.9082 1.084 0 .723-.3614 1.553-1.084 2.49-.7031.918-1.6406 1.465-2.8125 1.641-1.8164.293-3.2617.547-4.3359.762-1.0743.195-2.3536.537-3.8379 1.025-1.4649.488-3.0957 1.192-4.8926 2.11-2.6758 1.406-4.7656 2.832-6.2695 4.277-1.504 1.445-2.2559 2.724-2.2559 3.838 0 .957.5371 1.709 1.6113 2.256 1.0742.527 2.6172.791 4.6289.791 6.9336 0 13.9942-3.116 21.1817-9.346.039 1.914-.176 3.603-.645 5.068-.4488 1.446-1.3765 2.832-2.7828 4.16-1.1718 1.114-2.8906 2.178-5.1562 3.194-2.2461 1.015-4.707 1.826-7.3828 2.431-2.6563.606-5.1563.909-7.5.909-2.7149 0-4.961-.655-6.7383-1.963-1.7774-1.289-2.666-3.008-2.666-5.156 0-1.563.4297-3.116 1.289-4.659.8594-1.543 2.1778-3.017 3.9551-4.424 1.7774-1.425 4.0235-2.714 6.7383-3.867 2.7344-1.152 5.8789-2.06 9.4336-2.724.5078-.098.7617-.254.7617-.469 0-.234-.3027-.371-.9082-.41-.5859-.059-1.6797-.098-3.2812-.117-1.5821-.02-2.9786-.088-4.1895-.206-1.2109-.117-2.4902-.371-3.8379-.761-1.3867-.43-2.4609-1.182-3.2226-2.256-.7422-1.074-1.1133-2.266-1.1133-3.574 0-1.68.6054-3.369 1.8164-5.069 1.2109-1.699 2.9199-3.232 5.1269-4.599 2.2071-1.367 4.8731-2.461 7.9981-3.282 3.1445-.839 6.582-1.259 10.3125-1.259 2.1482 0 3.6422.127 4.4822.381.86.234 1.358.556 1.494.966.137.391.205 1.133.205 2.227Zm34.834 27.568v1.905c-3.281 3.652-6.298 6.66-9.052 9.023-2.735 2.383-5.41 4.209-8.028 5.479-2.617 1.289-5.146 1.933-7.588 1.933-2.109 0-3.925-.42-5.449-1.26-1.504-.839-2.646-2.07-3.428-3.691-.761-1.602-1.142-3.506-1.142-5.713 0-1.738.273-3.574.82-5.508.567-1.953 1.377-3.916 2.432-5.888 1.055-1.993 2.344-4.043 3.867-6.153 1.543-2.109 3.35-4.326 5.42-6.65 2.148-2.402 4.268-4.473 6.357-6.211 2.09-1.758 3.985-3.135 5.684-4.131 1.699-.996 3.271-1.738 4.717-2.227 1.465-.488 2.676-.732 3.633-.732.976 0 1.806.234 2.49.703.683.469 1.211 1.153 1.582 2.051.371.898.557 1.934.557 3.105 0 2.207-.752 4.668-2.256 7.383-1.504 2.696-3.379 5.303-5.625 7.823-2.246 2.519-4.395 4.58-6.446 6.181-2.031 1.582-3.496 2.373-4.394 2.373-.606 0-1.172-.234-1.699-.703-.508-.488-.762-1.035-.762-1.641 0-1.113.586-2.46 1.758-4.043 1.191-1.582 2.48-3.027 3.867-4.335 1.406-1.329 2.246-1.993 2.519-1.993.137 0 .205.059.205.176 0 .176-.107.479-.322.908-.195.43-.293.694-.293.791 0 .157.059.235.176.235.332 0 1.289-.889 2.871-2.666 1.582-1.778 3.027-3.731 4.336-5.86 1.328-2.148 1.992-3.906 1.992-5.273 0-.566-.127-.996-.381-1.289-.234-.313-.595-.469-1.084-.469-1.367 0-3.447 1.113-6.24 3.34-2.773 2.207-5.625 5.029-8.555 8.467-2.91 3.418-5.341 6.953-7.294 10.605-1.954 3.653-2.93 6.865-2.93 9.639 0 1.601.234 2.939.703 4.014.488 1.074 1.191 1.904 2.109 2.49.938.586 2.061.879 3.369.879 2.833 0 6.045-1.104 9.639-3.311 3.594-2.207 7.549-5.459 11.865-9.756Zm24.844 4.248c-.156.274-.293.528-.41.762-.117.234-.234.459-.352.674-1.171 2.226-2.207 3.887-3.105 4.98-.879 1.114-1.748 1.67-2.607 1.67-.606 0-1.084-.224-1.436-.674-.352-.429-.527-1.054-.527-1.875 0-1.015.41-2.49 1.23-4.423.84-1.954 2.051-4.258 3.633-6.914 1.582-2.676 3.525-5.664 5.83-8.965s4.932-6.817 7.881-10.547c-.879-.137-1.826-.235-2.842-.293-.996-.059-2.09-.088-3.281-.088-1.719 0-3.555.117-5.508.352-1.289 3.007-3.32 6.611-6.094 10.81-2.773 4.18-6.367 8.916-10.781 14.209.02.156.049.332.088.527.039.176.059.352.059.528-.04.156-.127.332-.264.527-.117.176-.254.371-.41.586l-2.93 3.691c-.352.43-.664.645-.938.645-.195 0-.4-.078-.615-.234l-1.728-1.407c-.254-.195-.381-.4-.381-.615.019-.098.156-.371.41-.82.273-.469.801-1.172 1.582-2.11 1.719-2.07 3.438-4.238 5.156-6.503 1.739-2.266 3.399-4.522 4.981-6.768 1.601-2.246 3.086-4.434 4.453-6.563 1.367-2.128 2.549-4.091 3.545-5.888-1.68.332-3.252.683-4.717 1.054-1.465.372-2.744.733-3.838 1.084-1.094.352-1.963.684-2.607.997-.625.293-.938.537-.938.732 0 .195.117.303.352.322.254 0 .635.03 1.142.088 1.172.156 2.032.332 2.578.527.567.196.85.372.85.528-.019.195-.517.293-1.494.293-1.641-.059-2.939-.088-3.897-.088-.937 0-1.65-.039-2.138-.117-.488-.078-.811-.235-.967-.469-.137-.234-.215-.606-.234-1.113 0-.157.019-.41.058-.762.039-.371.117-.84.235-1.406.332-1.543.722-2.852 1.171-3.926.469-1.094 1.133-2.022 1.993-2.783.859-.762 1.972-1.387 3.34-1.875 1.386-.508 3.154-.957 5.302-1.348 2.364-.391 4.502-.684 6.416-.879 1.934-.215 3.672-.322 5.215-.322 2.285 0 4.072.098 5.361.293 1.309.176 2.276.439 2.901.791.312.176.556.342.732.498.176.156.313.332.41.527.118.196.215.44.293.733.098.273.225.625.381 1.054l.908 2.696c.098.312.166.576.205.791.04.195.069.381.088.556-.019.274-.078.577-.175.909-.098.332-.215.625-.352.878-.137.254-.381.635-.732 1.143-.352.508-.733 1.045-1.143 1.611-.41.547-.801 1.084-1.172 1.612-.371.507-.644.908-.82 1.201-2.559 4.14-4.688 7.715-6.387 10.723-1.699 2.988-3.008 5.468-3.926 7.441l.967.732Zm43.799-2.05c-3.34 3.378-6.143 5.957-8.408 7.734-2.266 1.777-4.102 2.666-5.508 2.666-1.113 0-1.953-.361-2.52-1.084-.566-.703-.849-1.67-.849-2.9 0-1.016.244-2.286.732-3.809.489-1.543 1.201-3.271 2.139-5.186.957-1.914 2.119-3.994 3.486-6.24 1.367-2.265 2.93-4.619 4.688-7.06.429-.606.801-1.123 1.113-1.553.313-.449.566-.84.762-1.172.215-.352.371-.644.468-.879.098-.254.147-.488.147-.703 0-.41-.156-.684-.469-.82-.312-.157-.635-.235-.967-.235-.351 0-.722.108-1.113.323-.39.214-.859.566-1.406 1.054-.527.469-1.162 1.094-1.904 1.875-.723.782-1.592 1.739-2.608 2.871-1.64 1.817-3.349 3.643-5.127 5.479-1.758 1.836-3.613 3.691-5.566 5.566-1.953 1.875-4.024 3.789-6.211 5.742-2.168 1.934-4.473 3.917-6.914 5.948-.352.293-.703.586-1.055.879-.332.312-.664.586-.996.82-.332.234-.654.43-.967.586-.332.156-.654.234-.967.234-.703 0-1.054-.312-1.054-.937s.508-1.68 1.523-3.164c.469-.703.987-1.377 1.553-2.022.547-.664 1.103-1.24 1.67-1.728.566-.508 1.103-.908 1.611-1.201.528-.313.996-.469 1.406-.469.235 0 .538.097.909.293 2.031-1.934 3.877-3.662 5.537-5.186 1.66-1.543 3.193-2.988 4.599-4.336 1.426-1.367 2.754-2.685 3.985-3.955 1.25-1.289 2.47-2.646 3.662-4.072 3.594-4.316 6.514-7.568 8.76-9.756 2.265-2.187 3.935-3.281 5.009-3.281.235.039.557.303.967.791.391.508.781 1.006 1.172 1.494.391.488.742.957 1.055 1.406.332.43.595.83.791 1.201.215.372.322.694.322.967 0 .039-.01.078-.029.117v.088c-.215.996-.625 2.022-1.231 3.076-.605 1.036-1.435 2.286-2.49 3.75-1.836 2.5-3.418 4.707-4.746 6.622-1.328 1.894-2.432 3.574-3.311 5.039-.859 1.464-1.494 2.754-1.904 3.867-.41 1.113-.615 2.129-.615 3.047 0 1.328.683 1.992 2.051 1.992.468 0 1.015-.147 1.64-.44.625-.293 1.309-.703 2.051-1.23.762-.547 1.563-1.191 2.402-1.934.86-.742 1.748-1.562 2.666-2.461l.059 2.286Zm22.969-4.922c-2.344.078-4.063.117-5.157.117-1.679 0-4.003-.039-6.972-.117-.625.683-1.387 1.494-2.285 2.431-.899.918-1.748 1.778-2.549 2.578-.801.782-1.494 1.456-2.08 2.022-.567.547-1.035 1.006-1.406 1.377-2.168 2.109-3.584 3.486-4.249 4.131-.644.644-1.328 1.22-2.05 1.728-.723.528-1.387.791-1.992.791-.684 0-1.026-.312-1.026-.937 0-.684.488-1.739 1.465-3.164.977-1.426 2.08-2.686 3.311-3.78 1.23-1.093 2.236-1.64 3.017-1.64.215 0 .518.097.908.293l5.567-5.948c-.703-.097-1.621-.156-2.754-.175-1.133-.039-1.895-.127-2.285-.264-.391-.137-.586-.469-.586-.996 0-.84.898-2.158 2.695-3.955.977-.996 1.895-1.631 2.754-1.904.859-.274 2.5-.42 4.922-.44-1.426.195-2.442.43-3.047.703-.586.254-.908.645-.967 1.172h3.428c.781-.019 1.357-.039 1.728-.058 3.203-3.125 6.114-5.84 8.731-8.145 2.617-2.324 5.371-4.521 8.262-6.592 2.91-2.09 6.005-4.004 9.287-5.742.644.84.966 1.719.966 2.637 0 .761-.253 1.64-.761 2.636-.489.997-1.543 2.872-3.164 5.625-1.602 2.735-3.233 5.645-4.893 8.731.547 0 .996.01 1.348.029.371 0 .761.01 1.172.03 1.113 0 1.787.019 2.021.058.254.039.381.234.381.586 0 .156-.156.44-.469.85-.293.39-.82 1.054-1.582 1.992-.762.918-1.504 1.855-2.226 2.812l-4.307.352c-2.285 4.297-3.428 6.719-3.428 7.266 0 .8.42 1.201 1.26 1.201.41 0 2.109-.86 5.098-2.578l-.235 1.552c-1.601 1.211-2.851 2.168-3.75 2.871-.879.684-1.65 1.26-2.314 1.729-.645.449-1.24.781-1.787.996-.528.234-1.065.352-1.612.352-.644 0-1.279-.303-1.904-.909-.625-.586-.937-1.425-.937-2.519 0-.449.166-1.084.498-1.904.332-.84.683-1.641 1.054-2.403.391-.762 1.358-2.588 2.901-5.478Zm-5.537-6.651 9.492-.175c1.113-1.895 2.012-3.428 2.695-4.6.703-1.172 1.465-2.442 2.285-3.809.84-1.386 1.553-2.558 2.139-3.515.605-.957 1.269-2.041 1.992-3.252-1.406.879-2.842 1.855-4.306 2.929-1.465 1.075-3.116 2.373-4.952 3.897-1.836 1.504-3.466 2.91-4.892 4.219-1.426 1.289-2.91 2.724-4.453 4.306Zm41.455 12.891.966.732c-.253.547-.498 1.026-.732 1.436-.234.41-.518.908-.85 1.494-.332.586-.585 1.025-.761 1.318-1.465 2.559-2.842 3.838-4.131 3.838-.547 0-1.016-.215-1.406-.644-.391-.43-.586-1.016-.586-1.758 0-1.055.371-2.5 1.113-4.336.762-1.836 1.924-4.092 3.486-6.768 1.582-2.695 3.565-5.742 5.948-9.14 2.382-3.399 5.068-6.983 8.056-10.752-1.719-.254-3.76-.381-6.123-.381-2.715 0-5.742.303-9.082.908-3.32.606-6.221 1.309-8.701 2.11-2.461.781-3.691 1.357-3.691 1.728 0 .137.048.234.146.293.098.039.254.078.469.117.234.02.527.049.879.088 2.285.313 3.427.664 3.427 1.055 0 .195-.498.293-1.494.293-.996-.02-2.197-.03-3.603-.03-1.114 0-1.924-.039-2.432-.117-.488-.097-.82-.263-.996-.498-.156-.254-.234-.635-.234-1.142 0-.332.097-1.055.293-2.168.371-2.071.937-3.731 1.699-4.981.781-1.25 1.963-2.265 3.545-3.047 1.601-.8 3.799-1.435 6.592-1.904 4.687-.801 8.564-1.201 11.63-1.201 2.266 0 4.053.098 5.362.293 1.308.176 2.265.439 2.871.791.625.351 1.015.703 1.172 1.055.176.332.4.918.674 1.757l.908 2.696c.058.175.107.322.146.439.039.098.069.205.088.322.039.118.059.225.059.323 0 .761-.176 1.445-.528 2.05-.332.606-.957 1.514-1.875 2.725-.898 1.211-1.562 2.158-1.992 2.842-5.039 8.183-8.476 14.238-10.312 18.164Zm17.168-19.893-6.299 3.311c-.977.488-1.631.732-1.963.732-.606 0-1.045-.185-1.318-.556-.293-.391-.44-.987-.44-1.787 0-.918.195-1.973.586-3.165.391-1.21.84-2.099 1.348-2.666.527-.585 1.758-1.386 3.691-2.402 1.953-1.035 4.297-2.07 7.031-3.105 2.735-1.035 5.586-1.895 8.555-2.578 2.969-.684 5.684-1.026 8.145-1.026 1.718 0 2.988.274 3.808.82.821.547 1.231 1.993 1.231 4.336 0 1.27-.44 2.686-1.319 4.248-.859 1.543-1.904 3.047-3.134 4.512-1.211 1.465-3.467 4.063-6.768 7.793 1.758-.273 3.047-.449 3.867-.527.82-.078 2.354-.244 4.6-.498 2.597-3.75 4.697-6.739 6.299-8.965 1.601-2.246 2.959-4.102 4.072-5.566 1.113-1.485 1.777-2.334 1.992-2.549.391-.45.713-.616.967-.498.273.097.41.498.41 1.201 0 .801-.088 1.455-.264 1.963-.156.507-.41 1.015-.761 1.523-.352.488-.538.752-.557.791-.508.84-1.24 1.943-2.197 3.311-.957 1.347-1.895 2.685-2.813 4.013-.918 1.328-1.963 2.901-3.135 4.717 2.188.078 4.346.361 6.475.85l-5.273 7.148c-1.446-.195-3.37-.293-5.772-.293l-1.377 2.754c-.312.664-.586 1.299-.82 1.904-.215.586-.322 1.133-.322 1.641 0 .313.087.732.263 1.26.196.508.293.801.293.879 0 .39-.293.81-.879 1.259-.566.43-1.24.811-2.021 1.143-.762.332-1.358.498-1.787.498-.723 0-1.084-.547-1.084-1.641 0-2.265 1.162-5.419 3.486-9.462-3.086.254-6.631.712-10.635 1.377-1.152 1.523-2.197 2.968-3.134 4.335-.938 1.368-1.709 2.52-2.315 3.458-.586.937-1.025 1.562-1.318 1.875-.274.312-.576.468-.908.468-.567 0-1.045-.244-1.436-.732-.176-.195-.293-.391-.352-.586-.039-.195-.058-.41-.058-.645v-.615c0-.234.127-.576.381-1.025.254-.449.859-1.338 1.816-2.666.957-1.348 1.66-2.364 2.109-3.047-.507.058-1.162.088-1.962.088-1.016 0-1.846-.186-2.491-.557-.625-.371-.937-.83-.937-1.377 0-.625.166-1.289.498-1.992.332-.723.762-1.318 1.289-1.787.527-.488 1.055-.733 1.582-.733.352 0 .771.108 1.26.323l7.558-1.875c4.219-4.571 7.364-8.184 9.434-10.84 2.07-2.656 3.105-4.365 3.105-5.127 0-.43-.117-.781-.351-1.055-.235-.293-.567-.517-.996-.674-.41-.156-.889-.234-1.436-.234-.644 0-1.67.176-3.076.527-1.387.352-3.047.87-4.98 1.553-1.934.684-4.346 1.631-7.237 2.842-2.148.879-3.222 1.435-3.222 1.67 0 .273.146.449.439.527.293.078.664.137 1.113.176.469.039.703.107.703.205 0 .078-.117.186-.351.322-.215.137-.518.303-.908.498Zm54.697-4.336c.527-.136 1.055-.273 1.582-.41.547-.136 1.094-.254 1.641-.351.566-.098 1.113-.147 1.64-.147 1.133 0 2.1.254 2.901.762.82.508 1.425 1.201 1.816 2.08.41.859.615 1.797.615 2.813 0 1.582-.293 3.398-.879 5.449-.566 2.031-1.386 4.101-2.461 6.211-1.074 2.109-2.334 4.101-3.779 5.976-1.973 2.539-4.346 4.59-7.119 6.153-2.754 1.543-5.283 2.314-7.588 2.314-1.699 0-3.203-.459-4.512-1.377-1.289-.937-2.304-2.285-3.047-4.043-.722-1.777-1.083-3.857-1.083-6.24 0-3.203.869-6.406 2.607-9.61 1.758-3.222 3.965-6.132 6.621-8.73 2.676-2.617 5.371-4.707 8.086-6.27 2.715-1.582 4.922-2.373 6.621-2.373 1.387 0 2.451.43 3.193 1.29.743.839 1.436 2.207 2.08 4.101-1.816.059-3.398.283-4.746.674-1.347.371-2.744.947-4.189 1.728Zm-7.383 5.948c-1.367 1.465-2.754 3.359-4.16 5.683-1.387 2.305-2.51 4.571-3.369 6.797-.86 2.227-1.289 3.926-1.289 5.098 0 2.91 1.357 4.365 4.072 4.365 1.895 0 4.336-1.279 7.324-3.838 3.008-2.558 5.615-5.635 7.823-9.228 2.226-3.614 3.339-6.895 3.339-9.844 0-2.168-.859-3.252-2.578-3.252-1.328 0-2.949.527-4.863 1.582-1.914 1.055-3.75 2.549-5.508 4.482-.625.704-1.865 2.422-3.721 5.157.352-1.836 1.329-4.17 2.93-7.002Z"/>
</svg>
