<svg width="455" height="455" viewBox="0 0 455 455" fill="none" xmlns="http://www.w3.org/2000/svg">
<rect width="455" height="455" fill="#2B2129"/>
<path d="M97 157H110.5V161.5H115V166H110.5V161.5H97V188.5H110.5V184H115V188.5H110.5V193H97V188.5H92.5V161.5H97V157ZM124 161.5V188.5H137.5V161.5H124ZM124 157H137.5V161.5H142V188.5H137.5V193H124V188.5H119.5V161.5H124V157ZM151 175V188.5H164.5V175H151ZM151 161.5V170.5H164.5V161.5H151ZM146.5 157H164.5V161.5H169V170.5H164.5V175H169V188.5H164.5V193H146.5V157ZM173.5 157H196V161.5H178V170.5H191.5V175H178V188.5H196V193H173.5V157ZM200.5 157H223V161.5H214V193H209.5V161.5H200.5V157ZM245.5 157H250V193H245.5V157ZM232 175V188.5H236.5V175H232ZM227.5 157H232V170.5H236.5V175H241V188.5H236.5V193H227.5V157ZM290.5 161.5V188.5H295V161.5H290.5ZM286 157H299.5V188.5H304V202H299.5V193H286V202H281.5V188.5H286V157ZM308.5 193V188.5H313V157H331V193H326.5V161.5H317.5V188.5H313V193H308.5ZM340 161.5V175H353.5V161.5H340ZM340 157H358V193H353.5V179.5H349V184H344.5V188.5H340V193H335.5V188.5H340V184H344.5V179.5H340V175H335.5V161.5H340V157ZM160 206H164.5V215H169V206H173.5V215H178V206H182.5V215H178V219.5H173.5V228.5H178V233H182.5V242H178V233H173.5V242H169V233H164.5V242H160V233H164.5V228.5H169V219.5H164.5V215H160V206ZM187 206H191.5V228.5H196V219.5H200.5V210.5H205V206H209.5V242H205V219.5H200.5V228.5H196V237.5H191.5V242H187V206ZM218.5 206H232V210.5H236.5V219.5H232V224H236.5V237.5H232V242H218.5V237.5H214V233H218.5V237.5H232V224H218.5V219.5H232V210.5H218.5V215H214V210.5H218.5V206ZM241 206H245.5V219.5H259V206H263.5V242H259V224H245.5V242H241V206ZM268 206H272.5V228.5H277V219.5H281.5V210.5H286V206H290.5V242H286V219.5H281.5V228.5H277V237.5H272.5V242H268V206ZM110.5 273V286.5H124V273H110.5ZM110.5 259.5V268.5H124V259.5H110.5ZM106 255H124V259.5H128.5V268.5H124V273H128.5V286.5H124V291H106V255ZM160 255H164.5V277.5H169V268.5H173.5V259.5H178V255H182.5V291H178V268.5H173.5V277.5H169V286.5H164.5V291H160V255ZM191.5 255H205V259.5H209.5V268.5H205V273H209.5V286.5H205V291H191.5V286.5H187V282H191.5V286.5H205V273H191.5V268.5H205V259.5H191.5V264H187V259.5H191.5V255ZM218.5 259.5V273H232V259.5H218.5ZM214 255H232V259.5H236.5V273H232V277.5H218.5V291H214V255ZM250 259.5V268.5H245.5V273H259V268.5H254.5V259.5H250ZM250 255H254.5V259.5H259V268.5H263.5V291H259V277.5H245.5V291H241V268.5H245.5V259.5H250V255ZM268 255H272.5V277.5H277V268.5H281.5V259.5H286V255H290.5V291H286V268.5H281.5V277.5H277V286.5H272.5V291H268V255ZM295 291V286.5H299.5V255H317.5V291H313V259.5H304V286.5H299.5V291H295ZM322 255H344.5V259.5H326.5V268.5H340V273H326.5V286.5H344.5V291H322V255Z" fill="#E2D2BB"/>
<path d="M128.582 383.2V393H127.462V385.818H127.406L126.062 393H124.606L123.234 385.818H123.178V393H122.058V383.2H123.738L125.306 391.334H125.362L126.902 383.2H128.582ZM135.276 386H136.522L132.952 396.08H131.72L132.868 392.874L130.152 386H131.482L133.442 391.264H133.498L135.276 386ZM144.476 391.992H144.966V394.792H143.86V393H139.142V394.792H138.036V391.992H138.47C139.044 391.992 139.534 391.614 139.618 390.522L139.982 386H144.476V391.992ZM140.262 391.992H143.23V386.994H141.158L140.892 390.508C140.822 391.208 140.598 391.67 140.262 391.936V391.992ZM149.91 385.86C151.52 385.86 152.752 387.162 152.752 389.486C152.752 391.824 151.52 393.126 149.882 393.126C149.056 393.126 148.286 392.692 147.95 392.16H147.894V396.08H146.676V386H147.894V386.098L147.852 386.896H147.908C148.216 386.364 149.028 385.86 149.91 385.86ZM149.7 392.09C150.708 392.09 151.534 391.096 151.534 389.486C151.534 387.89 150.708 386.896 149.7 386.896C148.692 386.896 147.894 387.834 147.894 389.486C147.894 391.152 148.692 392.09 149.7 392.09ZM157.695 393.14C155.819 393.14 154.587 391.67 154.587 389.5C154.587 387.33 155.819 385.86 157.695 385.86C159.557 385.86 160.803 387.33 160.803 389.5C160.803 391.67 159.557 393.14 157.695 393.14ZM157.695 392.09C158.885 392.09 159.585 390.9 159.585 389.5C159.585 388.086 158.885 386.896 157.695 386.896C156.505 386.896 155.805 388.086 155.805 389.5C155.805 390.9 156.505 392.09 157.695 392.09ZM167.497 388.31C167.315 387.512 166.755 386.91 165.887 386.91C164.585 386.91 163.885 388.086 163.885 389.514C163.885 391.04 164.641 392.076 165.915 392.076C166.783 392.076 167.329 391.516 167.497 390.76L168.729 390.928C168.505 392.23 167.455 393.126 165.873 393.126C163.815 393.126 162.653 391.614 162.653 389.486C162.653 387.428 163.843 385.86 165.859 385.86C167.399 385.86 168.477 386.742 168.729 388.142L167.497 388.31ZM176.963 386V387.008H174.513V393H173.267V387.008H170.817V386H176.963ZM182.215 388.184C184.105 388.184 184.931 389.136 184.931 390.592C184.931 392.02 184.105 393 182.215 393H179.163V386H180.381V388.184H182.215ZM182.201 392.02C183.111 392.02 183.685 391.53 183.685 390.592C183.685 389.668 183.111 389.164 182.201 389.164H180.381V392.02H182.201ZM200.614 393L199.886 390.494H196.456L195.728 393H194.482L197.408 383.2H198.92L201.846 393H200.614ZM196.75 389.444H199.578L198.192 384.642H198.136L196.75 389.444ZM209.198 386V393H207.98V386.994H205.46V391.418C205.46 392.454 204.774 393.14 203.71 393.14C203.234 393.14 202.912 393.042 202.59 392.902V391.88C202.87 392.034 203.178 392.104 203.486 392.104C203.99 392.104 204.242 391.712 204.242 391.292V386H209.198ZM217.082 386V393H215.906V387.722H215.85L213.106 393H211.608V386H212.798V391.292H212.854L215.584 386H217.082ZM224.069 389.29V389.346C224.811 389.612 225.301 390.172 225.301 391.068C225.301 392.524 223.873 393.112 222.403 393.112C220.807 393.112 219.561 392.44 219.435 391.082L220.709 390.914C220.793 391.67 221.423 392.118 222.375 392.118C223.285 392.118 224.055 391.768 224.055 391.012C224.055 390.312 223.481 389.864 222.627 389.864H221.829V388.912H222.557C223.369 388.912 223.817 388.52 223.817 387.932C223.817 387.26 223.215 386.854 222.431 386.854C221.633 386.854 220.947 387.232 220.835 387.96L219.561 387.806C219.687 386.546 220.961 385.86 222.417 385.86C223.887 385.86 225.063 386.602 225.063 387.806C225.063 388.548 224.643 389.038 224.069 389.29ZM229.125 388.184C231.015 388.184 231.841 389.136 231.841 390.592C231.841 392.02 231.015 393 229.125 393H227.221V386H228.439V388.184H229.125ZM232.639 386H233.857V393H232.639V386ZM229.111 392.02C230.021 392.02 230.595 391.53 230.595 390.592C230.595 389.668 230.021 389.164 229.111 389.164H228.439V392.02H229.111ZM237.821 391.39H239.445V393.28C239.445 394.428 238.927 394.904 237.933 394.904H237.611V393.952H237.821C238.353 393.952 238.661 393.714 238.661 393H237.821V391.39ZM257.942 383.2V393H256.738V385.146H256.682L253.322 393H251.698V383.2H252.916V391.082H252.972L256.318 383.2H257.942ZM265.868 386V393H264.65V386.994H262.13V391.418C262.13 392.454 261.444 393.14 260.38 393.14C259.904 393.14 259.582 393.042 259.26 392.902V391.88C259.54 392.034 259.848 392.104 260.156 392.104C260.66 392.104 260.912 391.712 260.912 391.292V386H265.868ZM271.26 388.184C273.15 388.184 273.976 389.136 273.976 390.592C273.976 392.02 273.15 393 271.26 393H268.208V386H269.426V388.184H271.26ZM271.246 392.02C272.156 392.02 272.73 391.53 272.73 390.592C272.73 389.668 272.156 389.164 271.246 389.164H269.426V392.02H271.246ZM281.845 386V393H280.669V387.722H280.613L277.869 393H276.371V386H277.561V391.292H277.617L280.347 386H281.845ZM298.033 386V393H296.857V387.722H296.801L294.057 393H292.559V386H293.749V391.292H293.805L296.535 386H298.033ZM313.94 393L313.212 390.494H309.782L309.054 393H307.808L310.734 383.2H312.246L315.172 393H313.94ZM310.076 389.444H312.904L311.518 384.642H311.462L310.076 389.444ZM321.292 388.31C321.11 387.512 320.55 386.91 319.682 386.91C318.38 386.91 317.68 388.086 317.68 389.514C317.68 391.04 318.436 392.076 319.71 392.076C320.578 392.076 321.124 391.516 321.292 390.76L322.524 390.928C322.3 392.23 321.25 393.126 319.668 393.126C317.61 393.126 316.448 391.614 316.448 389.486C316.448 387.428 317.638 385.86 319.654 385.86C321.194 385.86 322.272 386.742 322.524 388.142L321.292 388.31ZM330.408 386V393H329.232V387.722H329.176L326.432 393H324.934V386H326.124V391.292H326.18L328.91 386H330.408ZM163.499 406.388C164.339 406.654 164.745 407.382 164.745 408.124C164.745 409.16 164.073 410 162.337 410H158.977V403H162.085C163.709 403 164.451 403.742 164.451 404.89C164.451 405.576 164.045 406.08 163.499 406.332V406.388ZM161.959 403.966H160.153V405.954H161.987C162.729 405.954 163.247 405.73 163.247 404.932C163.247 404.148 162.729 403.966 161.959 403.966ZM162.169 409.034C162.995 409.034 163.513 408.796 163.513 408.012C163.513 407.312 163.051 406.92 162.141 406.92H160.153V409.034H162.169ZM179.435 403H180.695V410H179.435V406.836H179.379C179.281 407.074 178.679 407.886 177.475 407.886C176.103 407.886 174.969 407.2 174.969 405.17V403.014H176.187V404.96C176.187 406.332 176.761 406.85 177.601 406.85C178.567 406.85 179.435 406.094 179.435 404.694V403ZM186.184 409.076C186.982 409.076 187.542 408.684 187.85 407.97L189.068 408.138C188.774 409.342 187.598 410.126 186.17 410.126C184.196 410.126 182.894 408.67 182.894 406.542C182.894 404.316 184.21 402.86 186.072 402.86C187.738 402.86 189.068 404.05 189.068 405.94C189.068 406.136 189.026 406.43 188.984 406.612H184.084C184.126 408.25 185.064 409.076 186.184 409.076ZM186.1 403.882C185.12 403.882 184.42 404.568 184.182 405.632H187.864C187.78 404.554 187.08 403.882 186.1 403.882ZM197.204 403V404.008H194.754V410H193.508V404.008H191.058V403H197.204ZM200.804 405.184C202.694 405.184 203.52 406.136 203.52 407.592C203.52 409.02 202.694 410 200.804 410H198.9V403H200.118V405.184H200.804ZM204.318 403H205.536V410H204.318V403ZM200.79 409.02C201.7 409.02 202.274 408.53 202.274 407.592C202.274 406.668 201.7 406.164 200.79 406.164H200.118V409.02H200.79ZM210.62 402.86C212.23 402.86 213.462 404.162 213.462 406.486C213.462 408.824 212.23 410.126 210.592 410.126C209.766 410.126 208.996 409.692 208.66 409.16H208.604V413.08H207.386V403H208.604V403.098L208.562 403.896H208.618C208.926 403.364 209.738 402.86 210.62 402.86ZM210.41 409.09C211.418 409.09 212.244 408.096 212.244 406.486C212.244 404.89 211.418 403.896 210.41 403.896C209.402 403.896 208.604 404.834 208.604 406.486C208.604 408.152 209.402 409.09 210.41 409.09ZM217.775 400.186V401.558H216.319V400.186H217.775ZM220.491 400.186V401.558H219.035V400.186H220.491ZM218.559 409.076C219.357 409.076 219.917 408.684 220.225 407.97L221.443 408.138C221.149 409.342 219.973 410.126 218.545 410.126C216.571 410.126 215.269 408.67 215.269 406.542C215.269 404.316 216.585 402.86 218.447 402.86C220.113 402.86 221.443 404.05 221.443 405.94C221.443 406.136 221.401 406.43 221.359 406.612H216.459C216.501 408.25 217.439 409.076 218.559 409.076ZM218.475 403.882C217.495 403.882 216.795 404.568 216.557 405.632H220.239C220.155 404.554 219.455 403.882 218.475 403.882ZM229.775 410H228.347L226.527 407.312H226.471L224.665 410H223.237L225.799 406.36L223.447 403H224.875L226.471 405.394H226.527L228.137 403H229.565L227.213 406.36L229.775 410ZM245.319 408.124C245.319 408.852 245.375 409.622 245.487 409.888V410H244.325C244.269 409.776 244.199 409.482 244.171 409.118H244.115C243.765 409.706 243.065 410.126 242.071 410.126C240.727 410.126 239.705 409.454 239.705 408.054C239.705 406.738 240.699 405.828 242.393 405.828C243.023 405.828 243.611 406.01 244.115 406.318V405.548C244.115 404.344 243.317 403.896 242.519 403.896C241.777 403.896 241.147 404.274 240.923 405.002L239.705 404.834C239.887 403.644 241.077 402.86 242.463 402.86C243.905 402.86 245.319 403.518 245.319 405.52V408.124ZM242.197 409.104C243.163 409.104 244.073 408.53 244.115 407.27C243.583 406.962 242.953 406.808 242.477 406.808C241.539 406.808 240.923 407.27 240.923 408.04C240.923 408.81 241.483 409.104 242.197 409.104ZM251.018 403.308C252.6 403.308 253.916 404.512 253.916 406.71C253.916 408.936 252.67 410.14 250.92 410.14C248.988 410.14 247.672 408.768 247.672 405.338C247.672 401.754 249.478 400.2 251.452 400.2H252.334C252.908 400.2 253.286 400.158 253.524 400.032H253.608V401.124C253.328 401.222 252.866 401.278 252.264 401.278H251.494C250.01 401.278 249.03 402.496 248.862 404.652H248.918C249.366 403.7 250.08 403.308 251.018 403.308ZM250.892 409.076C251.956 409.076 252.684 408.306 252.684 406.724C252.684 405.142 251.956 404.358 250.892 404.358C249.828 404.358 249.1 405.156 249.1 406.724C249.1 408.292 249.828 409.076 250.892 409.076ZM260.498 406.29V406.346C261.24 406.612 261.73 407.172 261.73 408.068C261.73 409.524 260.302 410.112 258.832 410.112C257.236 410.112 255.99 409.44 255.864 408.082L257.138 407.914C257.222 408.67 257.852 409.118 258.804 409.118C259.714 409.118 260.484 408.768 260.484 408.012C260.484 407.312 259.91 406.864 259.056 406.864H258.258V405.912H258.986C259.798 405.912 260.246 405.52 260.246 404.932C260.246 404.26 259.644 403.854 258.86 403.854C258.062 403.854 257.376 404.232 257.264 404.96L255.99 404.806C256.116 403.546 257.39 402.86 258.846 402.86C260.316 402.86 261.492 403.602 261.492 404.806C261.492 405.548 261.072 406.038 260.498 406.29ZM269.6 408.124C269.6 408.852 269.656 409.622 269.768 409.888V410H268.606C268.55 409.776 268.48 409.482 268.452 409.118H268.396C268.046 409.706 267.346 410.126 266.352 410.126C265.008 410.126 263.986 409.454 263.986 408.054C263.986 406.738 264.98 405.828 266.674 405.828C267.304 405.828 267.892 406.01 268.396 406.318V405.548C268.396 404.344 267.598 403.896 266.8 403.896C266.058 403.896 265.428 404.274 265.204 405.002L263.986 404.834C264.168 403.644 265.358 402.86 266.744 402.86C268.186 402.86 269.6 403.518 269.6 405.52V408.124ZM266.478 409.104C267.444 409.104 268.354 408.53 268.396 407.27C267.864 406.962 267.234 406.808 266.758 406.808C265.82 406.808 265.204 407.27 265.204 408.04C265.204 408.81 265.764 409.104 266.478 409.104ZM277.736 408.992H278.184V411.792H277.078V410H272.388V403H273.648V408.992H276.49V403H277.736V408.992ZM285.787 408.124C285.787 408.852 285.843 409.622 285.955 409.888V410H284.793C284.737 409.776 284.667 409.482 284.639 409.118H284.583C284.233 409.706 283.533 410.126 282.539 410.126C281.195 410.126 280.173 409.454 280.173 408.054C280.173 406.738 281.167 405.828 282.861 405.828C283.491 405.828 284.079 406.01 284.583 406.318V405.548C284.583 404.344 283.785 403.896 282.987 403.896C282.245 403.896 281.615 404.274 281.391 405.002L280.173 404.834C280.355 403.644 281.545 402.86 282.931 402.86C284.373 402.86 285.787 403.518 285.787 405.52V408.124ZM282.665 409.104C283.631 409.104 284.541 408.53 284.583 407.27C284.051 406.962 283.421 406.808 282.945 406.808C282.007 406.808 281.391 407.27 281.391 408.04C281.391 408.81 281.951 409.104 282.665 409.104ZM294.525 410H293.097L291.277 407.312H291.221L289.415 410H287.987L290.549 406.36L288.197 403H289.625L291.221 405.394H291.277L292.887 403H294.315L291.963 406.36L294.525 410Z" fill="#E2D2BB"/>
<circle cx="227.5" cy="39.5" r="10.5" fill="#E2D2BB"/>
<path d="M227.224 40.514C225.32 40.514 223.654 39.268 223.654 37.294C223.654 35.208 225.32 34.06 227.238 34.06C229.562 34.06 231.298 35.376 231.298 38.82C231.298 42.502 229.422 44.14 227.112 44.14C225.6 44.14 223.934 43.44 223.654 41.662L225.292 41.466C225.46 42.152 226.076 42.67 227.084 42.67C228.246 42.67 229.59 41.662 229.744 39.31H229.688C229.142 40.108 228.302 40.514 227.224 40.514ZM227.336 35.488C226.132 35.488 225.292 36.104 225.292 37.28C225.292 38.442 226.132 39.1 227.336 39.1C228.554 39.1 229.394 38.442 229.394 37.28C229.394 36.146 228.442 35.488 227.336 35.488Z" fill="#2B2129"/>
</svg>
