<svg xmlns="http://www.w3.org/2000/svg" fill="none" viewBox="0 0 455 455">
  <path fill="#2B2129" d="M0 0h455v455H0z"/>
  <path fill="#E2D2BB" d="M97 157h13.5v4.5h4.5v4.5h-4.5v-4.5H97v27h13.5V184h4.5v4.5h-4.5v4.5H97v-4.5h-4.5v-27H97V157Zm27 4.5v27h13.5v-27H124Zm0-4.5h13.5v4.5h4.5v27h-4.5v4.5H124v-4.5h-4.5v-27h4.5V157Zm27 18v13.5h13.5V175H151Zm0-13.5v9h13.5v-9H151Zm-4.5-4.5h18v4.5h4.5v9h-4.5v4.5h4.5v13.5h-4.5v4.5h-18v-36Zm27 0H196v4.5h-18v9h13.5v4.5H178v13.5h18v4.5h-22.5v-36Zm27 0H223v4.5h-9V193h-4.5v-31.5h-9V157Zm45 0h4.5v36h-4.5v-36ZM232 175v13.5h4.5V175H232Zm-4.5-18h4.5v13.5h4.5v4.5h4.5v13.5h-4.5v4.5h-9v-36Zm63 4.5v27h4.5v-27h-4.5ZM286 157h13.5v31.5h4.5V202h-4.5v-9H286v9h-4.5v-13.5h4.5V157Zm22.5 36v-4.5h4.5V157h18v36h-4.5v-31.5h-9v27H313v4.5h-4.5Zm31.5-31.5V175h13.5v-13.5H340Zm0-4.5h18v36h-4.5v-13.5H349v4.5h-4.5v4.5H340v4.5h-4.5v-4.5h4.5V184h4.5v-4.5H340V175h-4.5v-13.5h4.5V157Zm-180 49h4.5v9h4.5v-9h4.5v9h4.5v-9h4.5v9H178v4.5h-4.5v9h4.5v4.5h4.5v9H178v-9h-4.5v9H169v-9h-4.5v9H160v-9h4.5v-4.5h4.5v-9h-4.5V215H160v-9Zm27 0h4.5v22.5h4.5v-9h4.5v-9h4.5V206h4.5v36H205v-22.5h-4.5v9H196v9h-4.5v4.5H187v-36Zm31.5 0H232v4.5h4.5v9H232v4.5h4.5v13.5H232v4.5h-13.5v-4.5H214V233h4.5v4.5H232V224h-13.5v-4.5H232v-9h-13.5v4.5H214v-4.5h4.5V206Zm22.5 0h4.5v13.5H259V206h4.5v36H259v-18h-13.5v18H241v-36Zm27 0h4.5v22.5h4.5v-9h4.5v-9h4.5V206h4.5v36H286v-22.5h-4.5v9H277v9h-4.5v4.5H268v-36Zm-157.5 67v13.5H124V273h-13.5Zm0-13.5v9H124v-9h-13.5ZM106 255h18v4.5h4.5v9H124v4.5h4.5v13.5H124v4.5h-18v-36Zm54 0h4.5v22.5h4.5v-9h4.5v-9h4.5V255h4.5v36H178v-22.5h-4.5v9H169v9h-4.5v4.5H160v-36Zm31.5 0H205v4.5h4.5v9H205v4.5h4.5v13.5H205v4.5h-13.5v-4.5H187V282h4.5v4.5H205V273h-13.5v-4.5H205v-9h-13.5v4.5H187v-4.5h4.5V255Zm27 4.5V273H232v-13.5h-13.5ZM214 255h18v4.5h4.5V273H232v4.5h-13.5V291H214v-36Zm36 4.5v9h-4.5v4.5H259v-4.5h-4.5v-9H250Zm0-4.5h4.5v4.5h4.5v9h4.5V291H259v-13.5h-13.5V291H241v-22.5h4.5v-9h4.5V255Zm18 0h4.5v22.5h4.5v-9h4.5v-9h4.5V255h4.5v36H286v-22.5h-4.5v9H277v9h-4.5v4.5H268v-36Zm27 36v-4.5h4.5V255h18v36H313v-31.5h-9v27h-4.5v4.5H295Zm27-36h22.5v4.5h-18v9H340v4.5h-13.5v13.5h18v4.5H322v-36ZM148.817 383.2v9.8h-1.12v-7.182h-.056L146.297 393h-1.456l-1.372-7.182h-.056V393h-1.12v-9.8h1.68l1.568 8.134h.056l1.54-8.134h1.68Zm6.694 2.8h1.246l-3.57 10.08h-1.232l1.148-3.206-2.716-6.874h1.33l1.96 5.264h.056l1.778-5.264Zm9.199 5.992h.49v2.8h-1.106V393h-4.718v1.792h-1.106v-2.8h.434c.574 0 1.064-.378 1.148-1.47l.364-4.522h4.494v5.992Zm-4.214 0h2.968v-4.998h-2.072l-.266 3.514c-.07.7-.294 1.162-.63 1.428v.056Zm9.648-6.132c1.61 0 2.842 1.302 2.842 3.626 0 2.338-1.232 3.64-2.87 3.64-.826 0-1.596-.434-1.932-.966h-.056v3.92h-1.218V386h1.218v.098l-.042.798h.056c.308-.532 1.12-1.036 2.002-1.036Zm-.21 6.23c1.008 0 1.834-.994 1.834-2.604 0-1.596-.826-2.59-1.834-2.59s-1.806.938-1.806 2.59c0 1.666.798 2.604 1.806 2.604Zm7.996 1.05c-1.876 0-3.108-1.47-3.108-3.64s1.232-3.64 3.108-3.64c1.862 0 3.108 1.47 3.108 3.64s-1.246 3.64-3.108 3.64Zm0-1.05c1.19 0 1.89-1.19 1.89-2.59 0-1.414-.7-2.604-1.89-2.604s-1.89 1.19-1.89 2.604c0 1.4.7 2.59 1.89 2.59Zm9.802-3.78c-.182-.798-.742-1.4-1.61-1.4-1.302 0-2.002 1.176-2.002 2.604 0 1.526.756 2.562 2.03 2.562.868 0 1.414-.56 1.582-1.316l1.232.168c-.224 1.302-1.274 2.198-2.856 2.198-2.058 0-3.22-1.512-3.22-3.64 0-2.058 1.19-3.626 3.206-3.626 1.54 0 2.618.882 2.87 2.282l-1.232.168Zm9.465-2.31v1.008h-2.45V393h-1.246v-5.992h-2.45V386h6.146Zm5.252 2.184c1.89 0 2.716.952 2.716 2.408 0 1.428-.826 2.408-2.716 2.408h-3.052v-7h1.218v2.184h1.834Zm-.014 3.836c.91 0 1.484-.49 1.484-1.428 0-.924-.574-1.428-1.484-1.428h-1.82v2.856h1.82Zm18.414.98-.728-2.506h-3.43l-.728 2.506h-1.246l2.926-9.8h1.512l2.926 9.8h-1.232Zm-3.864-3.556h2.828l-1.386-4.802h-.056l-1.386 4.802ZM229.432 386v7h-1.218v-6.006h-2.52v4.424c0 1.036-.686 1.722-1.75 1.722-.476 0-.798-.098-1.12-.238v-1.022c.28.154.588.224.896.224.504 0 .756-.392.756-.812V386h4.956Zm7.884 0v7h-1.176v-5.278h-.056L233.34 393h-1.498v-7h1.19v5.292h.056l2.73-5.292h1.498Zm6.988 3.29v.056c.742.266 1.232.826 1.232 1.722 0 1.456-1.428 2.044-2.898 2.044-1.596 0-2.842-.672-2.968-2.03l1.274-.168c.084.756.714 1.204 1.666 1.204.91 0 1.68-.35 1.68-1.106 0-.7-.574-1.148-1.428-1.148h-.798v-.952h.728c.812 0 1.26-.392 1.26-.98 0-.672-.602-1.078-1.386-1.078-.798 0-1.484.378-1.596 1.106l-1.274-.154c.126-1.26 1.4-1.946 2.856-1.946 1.47 0 2.646.742 2.646 1.946 0 .742-.42 1.232-.994 1.484Zm5.056-1.106c1.89 0 2.716.952 2.716 2.408 0 1.428-.826 2.408-2.716 2.408h-1.904v-7h1.218v2.184h.686Zm3.514-2.184h1.218v7h-1.218v-7Zm-3.528 6.02c.91 0 1.484-.49 1.484-1.428 0-.924-.574-1.428-1.484-1.428h-.672v2.856h.672Zm20.345-6.02v7h-1.176v-5.278h-.056L265.715 393h-1.498v-7h1.19v5.292h.056l2.73-5.292h1.498Zm16.58-2.8v9.8h-1.204v-7.854h-.056l-3.36 7.854h-1.624v-9.8h1.218v7.882h.056l3.346-7.882h1.624Zm7.925 2.8v7h-1.218v-6.006h-2.52v4.424c0 1.036-.686 1.722-1.75 1.722-.476 0-.798-.098-1.12-.238v-1.022c.28.154.588.224.896.224.504 0 .756-.392.756-.812V386h4.956Zm5.392 2.184c1.89 0 2.716.952 2.716 2.408 0 1.428-.826 2.408-2.716 2.408h-3.052v-7h1.218v2.184h1.834Zm-.014 3.836c.91 0 1.484-.49 1.484-1.428 0-.924-.574-1.428-1.484-1.428h-1.82v2.856h1.82Zm10.599-6.02v7h-1.176v-5.278h-.056L306.197 393h-1.498v-7h1.19v5.292h.056l2.73-5.292h1.498Zm-146.674 20.388c.84.266 1.246.994 1.246 1.736 0 1.036-.672 1.876-2.408 1.876h-3.36v-7h3.108c1.624 0 2.366.742 2.366 1.89 0 .686-.406 1.19-.952 1.442v.056Zm-1.54-2.422h-1.806v1.988h1.834c.742 0 1.26-.224 1.26-1.022 0-.784-.518-.966-1.288-.966Zm.21 5.068c.826 0 1.344-.238 1.344-1.022 0-.7-.462-1.092-1.372-1.092h-1.988v2.114h2.016ZM179.435 403h1.26v7h-1.26v-3.164h-.056c-.098.238-.7 1.05-1.904 1.05-1.372 0-2.506-.686-2.506-2.716v-2.156h1.218v1.946c0 1.372.574 1.89 1.414 1.89.966 0 1.834-.756 1.834-2.156V403Zm6.749 6.076c.798 0 1.358-.392 1.666-1.106l1.218.168c-.294 1.204-1.47 1.988-2.898 1.988-1.974 0-3.276-1.456-3.276-3.584 0-2.226 1.316-3.682 3.178-3.682 1.666 0 2.996 1.19 2.996 3.08 0 .196-.042.49-.084.672h-4.9c.042 1.638.98 2.464 2.1 2.464Zm-.084-5.194c-.98 0-1.68.686-1.918 1.75h3.682c-.084-1.078-.784-1.75-1.764-1.75Zm11.104-.882v1.008h-2.45V410h-1.246v-5.992h-2.45V403h6.146Zm3.6 2.184c1.89 0 2.716.952 2.716 2.408 0 1.428-.826 2.408-2.716 2.408H198.9v-7h1.218v2.184h.686Zm3.514-2.184h1.218v7h-1.218v-7Zm-3.528 6.02c.91 0 1.484-.49 1.484-1.428 0-.924-.574-1.428-1.484-1.428h-.672v2.856h.672Zm9.83-6.16c1.61 0 2.842 1.302 2.842 3.626 0 2.338-1.232 3.64-2.87 3.64-.826 0-1.596-.434-1.932-.966h-.056v3.92h-1.218V403h1.218v.098l-.042.798h.056c.308-.532 1.12-1.036 2.002-1.036Zm-.21 6.23c1.008 0 1.834-.994 1.834-2.604 0-1.596-.826-2.59-1.834-2.59s-1.806.938-1.806 2.59c0 1.666.798 2.604 1.806 2.604Zm7.365-8.904v1.372h-1.456v-1.372h1.456Zm2.716 0v1.372h-1.456v-1.372h1.456Zm-1.932 8.89c.798 0 1.358-.392 1.666-1.106l1.218.168c-.294 1.204-1.47 1.988-2.898 1.988-1.974 0-3.276-1.456-3.276-3.584 0-2.226 1.316-3.682 3.178-3.682 1.666 0 2.996 1.19 2.996 3.08 0 .196-.042.49-.084.672h-4.9c.042 1.638.98 2.464 2.1 2.464Zm-.084-5.194c-.98 0-1.68.686-1.918 1.75h3.682c-.084-1.078-.784-1.75-1.764-1.75Zm11.3 6.118h-1.428l-1.82-2.688h-.056L224.665 410h-1.428l2.562-3.64-2.352-3.36h1.428l1.596 2.394h.056l1.61-2.394h1.428l-2.352 3.36 2.562 3.64Zm15.544-1.876c0 .728.056 1.498.168 1.764V410h-1.162c-.056-.224-.126-.518-.154-.882h-.056c-.35.588-1.05 1.008-2.044 1.008-1.344 0-2.366-.672-2.366-2.072 0-1.316.994-2.226 2.688-2.226.63 0 1.218.182 1.722.49v-.77c0-1.204-.798-1.652-1.596-1.652-.742 0-1.372.378-1.596 1.106l-1.218-.168c.182-1.19 1.372-1.974 2.758-1.974 1.442 0 2.856.658 2.856 2.66v2.604Zm-3.122.98c.966 0 1.876-.574 1.918-1.834-.532-.308-1.162-.462-1.638-.462-.938 0-1.554.462-1.554 1.232s.56 1.064 1.274 1.064Zm8.821-5.796c1.582 0 2.898 1.204 2.898 3.402 0 2.226-1.246 3.43-2.996 3.43-1.932 0-3.248-1.372-3.248-4.802 0-3.584 1.806-5.138 3.78-5.138h.882c.574 0 .952-.042 1.19-.168h.084v1.092c-.28.098-.742.154-1.344.154h-.77c-1.484 0-2.464 1.218-2.632 3.374h.056c.448-.952 1.162-1.344 2.1-1.344Zm-.126 5.768c1.064 0 1.792-.77 1.792-2.352 0-1.582-.728-2.366-1.792-2.366s-1.792.798-1.792 2.366.728 2.352 1.792 2.352Zm9.606-2.786v.056c.742.266 1.232.826 1.232 1.722 0 1.456-1.428 2.044-2.898 2.044-1.596 0-2.842-.672-2.968-2.03l1.274-.168c.084.756.714 1.204 1.666 1.204.91 0 1.68-.35 1.68-1.106 0-.7-.574-1.148-1.428-1.148h-.798v-.952h.728c.812 0 1.26-.392 1.26-.98 0-.672-.602-1.078-1.386-1.078-.798 0-1.484.378-1.596 1.106l-1.274-.154c.126-1.26 1.4-1.946 2.856-1.946 1.47 0 2.646.742 2.646 1.946 0 .742-.42 1.232-.994 1.484Zm9.102 1.834c0 .728.056 1.498.168 1.764V410h-1.162c-.056-.224-.126-.518-.154-.882h-.056c-.35.588-1.05 1.008-2.044 1.008-1.344 0-2.366-.672-2.366-2.072 0-1.316.994-2.226 2.688-2.226.63 0 1.218.182 1.722.49v-.77c0-1.204-.798-1.652-1.596-1.652-.742 0-1.372.378-1.596 1.106l-1.218-.168c.182-1.19 1.372-1.974 2.758-1.974 1.442 0 2.856.658 2.856 2.66v2.604Zm-3.122.98c.966 0 1.876-.574 1.918-1.834-.532-.308-1.162-.462-1.638-.462-.938 0-1.554.462-1.554 1.232s.56 1.064 1.274 1.064Zm11.258-.112h.448v2.8h-1.106V410h-4.69v-7h1.26v5.992h2.842V403h1.246v5.992Zm8.051-.868c0 .728.056 1.498.168 1.764V410h-1.162c-.056-.224-.126-.518-.154-.882h-.056c-.35.588-1.05 1.008-2.044 1.008-1.344 0-2.366-.672-2.366-2.072 0-1.316.994-2.226 2.688-2.226.63 0 1.218.182 1.722.49v-.77c0-1.204-.798-1.652-1.596-1.652-.742 0-1.372.378-1.596 1.106l-1.218-.168c.182-1.19 1.372-1.974 2.758-1.974 1.442 0 2.856.658 2.856 2.66v2.604Zm-3.122.98c.966 0 1.876-.574 1.918-1.834-.532-.308-1.162-.462-1.638-.462-.938 0-1.554.462-1.554 1.232s.56 1.064 1.274 1.064Zm11.86.896h-1.428l-1.82-2.688h-.056L289.415 410h-1.428l2.562-3.64-2.352-3.36h1.428l1.596 2.394h.056l1.61-2.394h1.428l-2.352 3.36 2.562 3.64Z"/>
  <circle cx="227.5" cy="39.5" r="10.5" fill="#E2D2BB"/>
  <path fill="#2B2129" d="M227.224 40.514c-1.904 0-3.57-1.246-3.57-3.22 0-2.086 1.666-3.234 3.584-3.234 2.324 0 4.06 1.316 4.06 4.76 0 3.682-1.876 5.32-4.186 5.32-1.512 0-3.178-.7-3.458-2.478l1.638-.196c.168.686.784 1.204 1.792 1.204 1.162 0 2.506-1.008 2.66-3.36h-.056c-.546.798-1.386 1.204-2.464 1.204Zm.112-5.026c-1.204 0-2.044.616-2.044 1.792 0 1.162.84 1.82 2.044 1.82 1.218 0 2.058-.658 2.058-1.82 0-1.134-.952-1.792-2.058-1.792Z"/>
</svg>