<svg xmlns="http://www.w3.org/2000/svg" fill="none" viewBox="0 0 455 455">
  <path fill="#7D6779" d="M0 0h455v455H0z"/>
  <path fill="#E2D2BB" d="M64.127 180.614v-12.852c0-1.08-.162-2.088-.486-3.024-.324-.936-.9-1.782-1.728-2.538h11.448c-.828.756-1.404 1.602-1.728 2.538-.324.936-.486 1.944-.486 3.024v26.676c0 1.08.162 2.088.486 3.024.324.936.9 1.782 1.728 2.538H61.913c.828-.756 1.404-1.602 1.728-2.538.324-.936.486-1.944.486-3.024V181.91c-1.044.36-2.196.54-3.456.54-1.512 0-2.934-.216-4.266-.648-1.296-.432-2.43-1.098-3.402-1.998-.936-.936-1.674-2.106-2.214-3.51-.504-1.44-.738-3.168-.702-5.184v-3.348c0-1.08-.162-2.088-.486-3.024-.324-.936-.9-1.782-1.728-2.538h11.448c-.828.756-1.404 1.602-1.728 2.538-.324.936-.486 1.944-.486 3.024v5.508c-.144 2.592.252 4.608 1.188 6.048.936 1.404 2.52 1.944 4.752 1.62.36-.072.72-.18 1.08-.324Zm33.4851-3.024c-.468-1.62-.99-3.222-1.566-4.806-.54-1.584-1.116-3.024-1.728-4.32-.612-1.332-1.26-2.466-1.944-3.402-.684-.936-1.368-1.548-2.052-1.836v31.212c0 1.08.162 2.088.486 3.024.324.936.9 1.782 1.728 2.538h-11.448c.828-.756 1.404-1.602 1.728-2.538.324-.936.486-1.944.486-3.024v-31.212c-.72.288-1.422.9-2.106 1.836-.648.936-1.296 2.07-1.944 3.402-.612 1.296-1.188 2.736-1.728 4.32s-1.044 3.186-1.512 4.806l-.432-.054.54-15.336h21.384l.54 15.336-.432.054Zm2.9549 2.97c0-6.156 1.098-10.836 3.294-14.04 2.196-3.24 5.148-4.86 8.856-4.86 1.836 0 3.492.504 4.968 1.512 1.512 1.008 2.79 2.412 3.834 4.212 1.08 1.764 1.908 3.87 2.484 6.318.576 2.448.864 5.094.864 7.938 0 6.156-1.098 10.854-3.294 14.094-2.196 3.204-5.148 4.806-8.856 4.806-1.836 0-3.51-.504-5.022-1.512-1.476-1.008-2.754-2.394-3.834-4.158-1.044-1.8-1.854-3.924-2.43-6.372-.576-2.448-.864-5.094-.864-7.938Zm5.67-11.124c0 2.232.126 4.5.378 6.804.288 2.304.666 4.536 1.134 6.696.468 2.16 1.008 4.194 1.62 6.102.648 1.908 1.332 3.582 2.052 5.022.756 1.404 1.53 2.52 2.322 3.348.792.792 1.584 1.188 2.376 1.188 2.052-.072 3.078-2.016 3.078-5.832 0-2.232-.144-4.5-.432-6.804-.252-2.304-.612-4.536-1.08-6.696-.468-2.16-1.008-4.176-1.62-6.048-.612-1.908-1.296-3.564-2.052-4.968-.72-1.44-1.476-2.574-2.268-3.402-.792-.828-1.584-1.242-2.376-1.242-1.044 0-1.836.504-2.376 1.512-.504.972-.756 2.412-.756 4.32Zm57.102-7.236c-.828.756-1.404 1.602-1.728 2.538-.324.936-.486 1.944-.486 3.024v26.676c0 1.08.162 2.088.486 3.024.324.936.9 1.782 1.728 2.538h-11.448c.828-.756 1.404-1.602 1.728-2.538.324-.936.486-1.944.486-3.024V163.28h-7.074l.054 31.158c0 1.08.162 2.088.486 3.024.324.936.9 1.782 1.728 2.538h-11.448c.828-.756 1.404-1.602 1.728-2.538.324-.936.486-1.944.486-3.024v-26.676c0-1.08-.162-2.088-.486-3.024-.324-.936-.9-1.782-1.728-2.538h25.488Zm2.144 18.36c0-6.156 1.098-10.836 3.294-14.04 2.196-3.24 5.148-4.86 8.856-4.86 1.836 0 3.492.504 4.968 1.512 1.512 1.008 2.79 2.412 3.834 4.212 1.08 1.764 1.908 3.87 2.484 6.318.576 2.448.864 5.094.864 7.938 0 6.156-1.098 10.854-3.294 14.094-2.196 3.204-5.148 4.806-8.856 4.806-1.836 0-3.51-.504-5.022-1.512-1.476-1.008-2.754-2.394-3.834-4.158-1.044-1.8-1.854-3.924-2.43-6.372-.576-2.448-.864-5.094-.864-7.938Zm5.67-11.124c0 2.232.126 4.5.378 6.804.288 2.304.666 4.536 1.134 6.696.468 2.16 1.008 4.194 1.62 6.102.648 1.908 1.332 3.582 2.052 5.022.756 1.404 1.53 2.52 2.322 3.348.792.792 1.584 1.188 2.376 1.188 2.052-.072 3.078-2.016 3.078-5.832 0-2.232-.144-4.5-.432-6.804-.252-2.304-.612-4.536-1.08-6.696-.468-2.16-1.008-4.176-1.62-6.048-.612-1.908-1.296-3.564-2.052-4.968-.72-1.44-1.476-2.574-2.268-3.402-.792-.828-1.584-1.242-2.376-1.242-1.044 0-1.836.504-2.376 1.512-.504.972-.756 2.412-.756 4.32Zm20.803 11.232c0-2.916.27-5.544.81-7.884.576-2.376 1.386-4.374 2.43-5.994 1.044-1.656 2.304-2.934 3.78-3.834 1.512-.9 3.222-1.35 5.13-1.35 1.044 0 2.034.144 2.97.432.936.252 1.818.54 2.646.864.54.216 1.08.27 1.62.162.576-.108 1.08-.324 1.512-.648l-1.026 14.688-.378-.054c-.468-1.512-1.044-3.06-1.728-4.644-.648-1.62-1.404-3.078-2.268-4.374-.864-1.332-1.836-2.43-2.916-3.294-1.08-.864-2.286-1.296-3.618-1.296-.612 0-1.134.18-1.566.54-.432.36-.792.864-1.08 1.512-.252.612-.45 1.332-.594 2.16-.108.828-.162 1.728-.162 2.7 0 3.096.198 6.102.594 9.018.432 2.916 1.062 5.508 1.89 7.776.828 2.232 1.854 4.032 3.078 5.4 1.224 1.332 2.664 1.998 4.32 1.998 1.62 0 2.898-.864 3.834-2.592.972-1.764 1.656-4.518 2.052-8.262l.594.054c-.18 2.808-.486 5.256-.918 7.344-.432 2.088-1.044 3.834-1.836 5.238-.792 1.404-1.8 2.466-3.024 3.186-1.188.684-2.61 1.026-4.266 1.026-1.728 0-3.312-.522-4.752-1.566s-2.7-2.466-3.78-4.266c-1.044-1.8-1.872-3.906-2.484-6.318-.576-2.412-.864-4.986-.864-7.722ZM216.643 200l2.862-39.15h.432l12.474 23.544 9.774-23.544h.54l2.862 39.15h-9.396c1.332-1.08 1.944-2.502 1.836-4.266l-1.188-18.9-7.02 16.902h-.432l-9.774-18.522-.432 5.994c-.144 2.052-.108 3.924.108 5.616.216 1.692.648 3.276 1.296 4.752.684 1.44 1.584 2.808 2.7 4.104 1.116 1.296 2.484 2.592 4.104 3.888l-.054.432h-10.692Zm31.422-19.44c0-6.156 1.098-10.836 3.294-14.04 2.196-3.24 5.148-4.86 8.856-4.86 1.836 0 3.492.504 4.968 1.512 1.512 1.008 2.79 2.412 3.834 4.212 1.08 1.764 1.908 3.87 2.484 6.318.576 2.448.864 5.094.864 7.938 0 6.156-1.098 10.854-3.294 14.094-2.196 3.204-5.148 4.806-8.856 4.806-1.836 0-3.51-.504-5.022-1.512-1.476-1.008-2.754-2.394-3.834-4.158-1.044-1.8-1.854-3.924-2.43-6.372-.576-2.448-.864-5.094-.864-7.938Zm5.67-11.124c0 2.232.126 4.5.378 6.804.288 2.304.666 4.536 1.134 6.696.468 2.16 1.008 4.194 1.62 6.102.648 1.908 1.332 3.582 2.052 5.022.756 1.404 1.53 2.52 2.322 3.348.792.792 1.584 1.188 2.376 1.188 2.052-.072 3.078-2.016 3.078-5.832 0-2.232-.144-4.5-.432-6.804-.252-2.304-.612-4.536-1.08-6.696-.468-2.16-1.008-4.176-1.62-6.048-.612-1.908-1.296-3.564-2.052-4.968-.72-1.44-1.476-2.574-2.268-3.402-.792-.828-1.584-1.242-2.376-1.242-1.044 0-1.836.504-2.376 1.512-.504.972-.756 2.412-.756 4.32Zm43.213 8.154c-.468-1.62-.99-3.222-1.566-4.806-.54-1.584-1.116-3.024-1.728-4.32-.612-1.332-1.26-2.466-1.944-3.402-.684-.936-1.368-1.548-2.052-1.836v31.212c0 1.08.162 2.088.486 3.024.324.936.9 1.782 1.728 2.538h-11.448c.828-.756 1.404-1.602 1.728-2.538.324-.936.486-1.944.486-3.024v-31.212c-.72.288-1.422.9-2.106 1.836-.648.936-1.296 2.07-1.944 3.402-.612 1.296-1.188 2.736-1.728 4.32s-1.044 3.186-1.512 4.806l-.432-.054.54-15.336h21.384l.54 15.336-.432.054Zm13.377-15.39c1.476 0 2.88.18 4.212.54 1.368.324 2.556.9 3.564 1.728 1.044.828 1.854 1.926 2.43 3.294.612 1.368.918 3.078.918 5.13 0 1.692-.27 3.294-.81 4.806-.504 1.512-1.278 2.772-2.322 3.78-1.008 1.008-2.286 1.71-3.834 2.106-1.548.36-3.33.234-5.346-.378v11.232c0 1.08.162 2.088.486 3.024.324.936.9 1.782 1.728 2.538h-11.448c.828-.756 1.404-1.602 1.728-2.538.324-.936.486-1.944.486-3.024v-26.676c0-1.08-.162-2.088-.486-3.024-.324-.936-.9-1.782-1.728-2.538h10.422Zm-1.188 19.872c1.836.216 3.15-.414 3.942-1.89.828-1.476 1.242-3.816 1.242-7.02 0-3.204-.396-5.67-1.188-7.398-.792-1.728-2.124-2.592-3.996-2.592v18.9Zm34.307-4.806c-.54-1.692-1.152-3.312-1.836-4.86-.648-1.584-1.386-3.006-2.214-4.266-.828-1.26-1.764-2.322-2.808-3.186-1.008-.864-2.142-1.458-3.402-1.782v15.39l5.076-7.02.378.054 1.188 17.064-.378.054-5.994-8.802-.27.108v18.954c1.08-.216 2.106-.72 3.078-1.512s1.854-1.782 2.646-2.97c.828-1.188 1.566-2.502 2.214-3.942.684-1.476 1.278-3.006 1.782-4.59l.432.054-.594 13.986H323.95c.828-.756 1.404-1.602 1.728-2.538.324-.936.486-1.944.486-3.024v-26.676c0-1.08-.162-2.088-.486-3.024-.324-.936-.9-1.782-1.728-2.538h19.494l.432 15.012-.432.054Zm25.645.324c-.468-1.62-.99-3.222-1.566-4.806-.54-1.584-1.116-3.024-1.728-4.32-.612-1.332-1.26-2.466-1.944-3.402-.684-.936-1.368-1.548-2.052-1.836v31.212c0 1.08.162 2.088.486 3.024.324.936.9 1.782 1.728 2.538h-11.448c.828-.756 1.404-1.602 1.728-2.538.324-.936.486-1.944.486-3.024v-31.212c-.72.288-1.422.9-2.106 1.836-.648.936-1.296 2.07-1.944 3.402-.612 1.296-1.188 2.736-1.728 4.32s-1.044 3.186-1.512 4.806l-.432-.054.54-15.336h21.384l.54 15.336-.432.054Zm12.189 21.438c2.268 0 3.888-.828 4.86-2.484.972-1.656 1.458-4.104 1.458-7.344 0-1.656-.108-3.168-.324-4.536-.18-1.368-.522-2.538-1.026-3.51-.468-.972-1.116-1.728-1.944-2.268-.792-.576-1.8-.864-3.024-.864v21.006Zm0-22.032c1.512 0 3.06.198 4.644.594 1.62.396 3.078 1.062 4.374 1.998 1.296.9 2.358 2.106 3.186 3.618.828 1.512 1.242 3.348 1.242 5.508v.918c0 .36-.018.63-.054.81-.108 1.764-.486 3.258-1.134 4.482-.612 1.188-1.404 2.16-2.376 2.916-.972.756-2.106 1.314-3.402 1.674-1.296.324-2.682.486-4.158.486h-11.556c.828-.756 1.404-1.602 1.728-2.538.324-.936.486-1.944.486-3.024v-26.676c0-1.08-.162-2.088-.486-3.024-.324-.936-.9-1.782-1.728-2.538h11.448c-.828.756-1.404 1.602-1.728 2.538-.324.936-.486 1.944-.486 3.024v9.234Zm16.954 19.926c0-1.08.342-1.926 1.026-2.538.72-.648 1.548-.972 2.484-.972.936 0 1.746.324 2.43.972.72.648 1.08 1.548 1.08 2.7 0 2.052-.612 3.96-1.836 5.724-1.224 1.8-2.862 3.186-4.914 4.158l-.216-.486c1.26-.684 2.268-1.638 3.024-2.862.792-1.188 1.314-2.322 1.566-3.402-.288.144-.666.216-1.134.216-.936 0-1.764-.306-2.484-.918-.684-.648-1.026-1.512-1.026-2.592ZM52.9473 229.614v-12.852c0-1.08-.162-2.088-.486-3.024-.324-.936-.9-1.782-1.728-2.538h11.448c-.828.756-1.404 1.602-1.728 2.538-.324.936-.486 1.944-.486 3.024v26.676c0 1.08.162 2.088.486 3.024.324.936.9 1.782 1.728 2.538h-11.448c.828-.756 1.404-1.602 1.728-2.538.324-.936.486-1.944.486-3.024V230.91c-1.044.36-2.196.54-3.456.54-1.512 0-2.934-.216-4.266-.648-1.296-.432-2.43-1.098-3.402-1.998-.936-.936-1.674-2.106-2.214-3.51-.504-1.44-.738-3.168-.702-5.184v-3.348c0-1.08-.162-2.088-.486-3.024-.324-.936-.9-1.782-1.728-2.538h11.448c-.828.756-1.404 1.602-1.728 2.538-.324.936-.486 1.944-.486 3.024v5.508c-.144 2.592.252 4.608 1.188 6.048.936 1.404 2.52 1.944 4.752 1.62.36-.072.72-.18 1.08-.324Zm33.4851-3.024c-.468-1.62-.99-3.222-1.566-4.806-.54-1.584-1.116-3.024-1.728-4.32-.612-1.332-1.26-2.466-1.944-3.402-.684-.936-1.368-1.548-2.052-1.836v31.212c0 1.08.162 2.088.486 3.024.324.936.9 1.782 1.728 2.538h-11.448c.828-.756 1.404-1.602 1.728-2.538.324-.936.486-1.944.486-3.024v-31.212c-.72.288-1.422.9-2.106 1.836-.648.936-1.296 2.07-1.944 3.402-.612 1.296-1.188 2.736-1.728 4.32s-1.044 3.186-1.512 4.806l-.432-.054.54-15.336h21.384l.54 15.336-.432.054Zm2.9552 2.97c0-6.156 1.098-10.836 3.294-14.04 2.196-3.24 5.148-4.86 8.8564-4.86 1.836 0 3.492.504 4.968 1.512 1.512 1.008 2.79 2.412 3.834 4.212 1.08 1.764 1.908 3.87 2.484 6.318.576 2.448.864 5.094.864 7.938 0 6.156-1.098 10.854-3.294 14.094-2.196 3.204-5.148 4.806-8.856 4.806-1.8364 0-3.5104-.504-5.0224-1.512-1.476-1.008-2.754-2.394-3.834-4.158-1.044-1.8-1.854-3.924-2.43-6.372-.576-2.448-.864-5.094-.864-7.938Zm5.67-11.124c0 2.232.126 4.5.378 6.804.288 2.304.666 4.536 1.134 6.696.468 2.16 1.008 4.194 1.62 6.102.648 1.908 1.332 3.582 2.0524 5.022.756 1.404 1.53 2.52 2.322 3.348.792.792 1.584 1.188 2.376 1.188 2.052-.072 3.078-2.016 3.078-5.832 0-2.232-.144-4.5-.432-6.804-.252-2.304-.612-4.536-1.08-6.696-.468-2.16-1.008-4.176-1.62-6.048-.612-1.908-1.296-3.564-2.052-4.968-.72-1.44-1.476-2.574-2.268-3.402-.7924-.828-1.5844-1.242-2.3764-1.242-1.044 0-1.836.504-2.376 1.512-.504.972-.756 2.412-.756 4.32Zm30.0364 29.592c2.268 0 3.888-.828 4.86-2.484.972-1.656 1.458-4.104 1.458-7.344 0-1.656-.108-3.168-.324-4.536-.18-1.368-.522-2.538-1.026-3.51-.468-.972-1.116-1.728-1.944-2.268-.792-.576-1.8-.864-3.024-.864v21.006Zm0-35.91v13.878c1.512 0 3.06.198 4.644.594 1.62.396 3.078 1.062 4.374 1.998 1.296.9 2.358 2.106 3.186 3.618.828 1.512 1.242 3.348 1.242 5.508v.918c0 .36-.018.63-.054.81-.108 1.764-.486 3.258-1.134 4.482-.612 1.188-1.404 2.16-2.376 2.916-.972.756-2.106 1.314-3.402 1.674-1.296.324-2.682.486-4.158.486H115.86c.828-.756 1.404-1.602 1.728-2.538.324-.936.486-1.944.486-3.024v-26.676c0-1.08-.162-2.088-.486-3.024-.324-.936-.9-1.782-1.728-2.538h20.412l.432 14.688-.432.054c-.72-1.764-1.422-3.456-2.106-5.076-.684-1.62-1.458-3.06-2.322-4.32-.828-1.26-1.782-2.286-2.862-3.078-1.08-.792-2.376-1.242-3.888-1.35Zm24.838 35.91c2.268 0 3.888-.828 4.86-2.484.972-1.656 1.458-4.104 1.458-7.344 0-1.656-.108-3.168-.324-4.536-.18-1.368-.522-2.538-1.026-3.51-.468-.972-1.116-1.728-1.944-2.268-.792-.576-1.8-.864-3.024-.864v21.006Zm0-22.032c1.512 0 3.06.198 4.644.594 1.62.396 3.078 1.062 4.374 1.998 1.296.9 2.358 2.106 3.186 3.618.828 1.512 1.242 3.348 1.242 5.508v.918c0 .36-.018.63-.054.81-.108 1.764-.486 3.258-1.134 4.482-.612 1.188-1.404 2.16-2.376 2.916-.972.756-2.106 1.314-3.402 1.674-1.296.324-2.682.486-4.158.486h-11.556c.828-.756 1.404-1.602 1.728-2.538.324-.936.486-1.944.486-3.024v-26.676c0-1.08-.162-2.088-.486-3.024-.324-.936-.9-1.782-1.728-2.538h11.448c-.828.756-1.404 1.602-1.728 2.538-.324.936-.486 1.944-.486 3.024v9.234Zm23.814 17.442c0 1.08.162 2.088.486 3.024.324.936.9 1.782 1.728 2.538h-11.448c.828-.756 1.404-1.602 1.728-2.538.324-.936.486-1.944.486-3.024v-26.676c0-1.08-.162-2.088-.486-3.024-.324-.936-.9-1.782-1.728-2.538h11.448c-.828.756-1.404 1.602-1.728 2.538-.324.936-.486 1.944-.486 3.024v26.676Zm38.636 0c0 1.08.162 2.088.486 3.024.324.936.9 1.782 1.728 2.538h-11.448c.828-.756 1.404-1.602 1.728-2.538.324-.936.486-1.944.486-3.024v-13.932h-7.02v13.932c0 1.08.162 2.088.486 3.024.324.936.9 1.782 1.728 2.538h-11.448c.828-.756 1.404-1.602 1.728-2.538.324-.936.486-1.944.486-3.024v-26.676c0-1.08-.162-2.088-.486-3.024-.324-.936-.9-1.782-1.728-2.538h11.448c-.828.756-1.404 1.602-1.728 2.538-.324.936-.486 1.944-.486 3.024v11.448h7.02v-11.448c0-1.08-.162-2.088-.486-3.024-.324-.936-.9-1.782-1.728-2.538h11.448c-.828.756-1.404 1.602-1.728 2.538-.324.936-.486 1.944-.486 3.024v26.676Zm23.853-17.172c-.54-1.692-1.152-3.312-1.836-4.86-.648-1.584-1.386-3.006-2.214-4.266-.828-1.26-1.764-2.322-2.808-3.186-1.008-.864-2.142-1.458-3.402-1.782v15.39l5.076-7.02.378.054 1.188 17.064-.378.054-5.994-8.802-.27.108v18.954c1.08-.216 2.106-.72 3.078-1.512s1.854-1.782 2.646-2.97c.828-1.188 1.566-2.502 2.214-3.942.684-1.476 1.278-3.006 1.782-4.59l.432.054-.594 13.986h-18.792c.828-.756 1.404-1.602 1.728-2.538.324-.936.486-1.944.486-3.024v-26.676c0-1.08-.162-2.088-.486-3.024-.324-.936-.9-1.782-1.728-2.538h19.494l.432 15.012-.432.054Zm26.509 17.172c0 1.08.162 2.088.486 3.024.324.936.9 1.782 1.728 2.538H253.51c.828-.756 1.404-1.602 1.728-2.538.324-.936.486-1.944.486-3.024v-13.932h-7.02v13.932c0 1.08.162 2.088.486 3.024.324.936.9 1.782 1.728 2.538H239.47c.828-.756 1.404-1.602 1.728-2.538.324-.936.486-1.944.486-3.024v-26.676c0-1.08-.162-2.088-.486-3.024-.324-.936-.9-1.782-1.728-2.538h11.448c-.828.756-1.404 1.602-1.728 2.538-.324.936-.486 1.944-.486 3.024v11.448h7.02v-11.448c0-1.08-.162-2.088-.486-3.024-.324-.936-.9-1.782-1.728-2.538h11.448c-.828.756-1.404 1.602-1.728 2.538-.324.936-.486 1.944-.486 3.024v26.676ZM290.052 249h-9.612c.396-.396.702-.9.918-1.512.252-.648.234-1.512-.054-2.592l-2.484-9.072h-7.236c-.324 1.224-.414 2.466-.27 3.726.18 1.26.54 2.466 1.08 3.618.54 1.116 1.206 2.16 1.998 3.132.792.936 1.656 1.692 2.592 2.268l-.054.432h-10.422l11.394-39.69h.54l11.61 39.69Zm-18.09-14.472h6.48l-3.24-11.718-3.24 11.718Zm34.08-22.194h-5.562c.072 1.728.09 3.636.054 5.724s-.144 4.23-.324 6.426c-.144 2.196-.378 4.428-.702 6.696-.324 2.232-.738 4.392-1.242 6.48-.468 2.052-1.062 3.996-1.782 5.832-.684 1.8-1.494 3.366-2.43 4.698l11.934-.216c0-.036.018-.072.054-.108v-35.532Zm-13.446 35.856c.792-1.116 1.512-2.466 2.16-4.05.684-1.62 1.278-3.348 1.782-5.184.54-1.872.99-3.816 1.35-5.832.36-2.052.648-4.05.864-5.994.216-1.98.36-3.852.432-5.616.072-1.8.054-3.402-.054-4.806-.108-1.368-.288-2.484-.54-3.348-.252-.864-.576-1.584-.972-2.16l17.658.054c-.828.756-1.404 1.602-1.728 2.538-.324.936-.486 1.944-.486 3.024v31.32l3.51-.108.432 12.204-.432.054c-.54-1.692-1.116-3.186-1.728-4.482-.576-1.26-1.242-2.34-1.998-3.24-.72-.9-1.566-1.638-2.538-2.214-.936-.576-2.034-1.026-3.294-1.35h-7.56c-1.26.324-2.376.774-3.348 1.35-.972.576-1.836 1.314-2.592 2.214-.756.9-1.44 1.98-2.052 3.24-.612 1.296-1.188 2.79-1.728 4.482l-.432-.054.432-12.096 2.862.054Zm25.29-18.63c0-6.156 1.098-10.836 3.294-14.04 2.196-3.24 5.148-4.86 8.856-4.86 1.836 0 3.492.504 4.968 1.512 1.512 1.008 2.79 2.412 3.834 4.212 1.08 1.764 1.908 3.87 2.484 6.318.576 2.448.864 5.094.864 7.938 0 6.156-1.098 10.854-3.294 14.094-2.196 3.204-5.148 4.806-8.856 4.806-1.836 0-3.51-.504-5.022-1.512-1.476-1.008-2.754-2.394-3.834-4.158-1.044-1.8-1.854-3.924-2.43-6.372-.576-2.448-.864-5.094-.864-7.938Zm5.67-11.124c0 2.232.126 4.5.378 6.804.288 2.304.666 4.536 1.134 6.696.468 2.16 1.008 4.194 1.62 6.102.648 1.908 1.332 3.582 2.052 5.022.756 1.404 1.53 2.52 2.322 3.348.792.792 1.584 1.188 2.376 1.188 2.052-.072 3.078-2.016 3.078-5.832 0-2.232-.144-4.5-.432-6.804-.252-2.304-.612-4.536-1.08-6.696-.468-2.16-1.008-4.176-1.62-6.048-.612-1.908-1.296-3.564-2.052-4.968-.72-1.44-1.476-2.574-2.268-3.402-.792-.828-1.584-1.242-2.376-1.242-1.044 0-1.836.504-2.376 1.512-.504.972-.756 2.412-.756 4.32Zm21.396 13.986c.072.468.144.99.216 1.566.072.54.162 1.116.27 1.728.216 1.08.432 2.142.648 3.186.216 1.008.468 1.8.756 2.376.324.576.684.828 1.08.756.432-.072.954-.702 1.566-1.89.504-.972.954-2.322 1.35-4.05.396-1.728.72-3.636.972-5.724.288-2.124.486-4.32.594-6.588.144-2.304.198-4.5.162-6.588-.036-1.188-.18-2.268-.432-3.24-.216-1.008-.63-1.926-1.242-2.754l18.9.054c-.828.756-1.386 1.602-1.674 2.538-.288.936-.468 1.944-.54 3.024l.054 26.622c0 1.08.162 2.088.486 3.024.324.936.9 1.782 1.728 2.538h-11.448c.828-.756 1.404-1.602 1.728-2.538.324-.936.486-1.944.486-3.024v-31.104h-6.372c0 1.08-.036 2.43-.108 4.05-.036 1.584-.108 3.348-.216 5.292-.108 1.908-.27 3.906-.486 5.994-.216 2.088-.486 4.14-.81 6.156-.324 2.016-.738 3.96-1.242 5.832-.468 1.836-1.044 3.474-1.728 4.914-.648 1.404-1.404 2.538-2.268 3.402-.864.864-1.854 1.35-2.97 1.458-.252.036-.414.036-.486 0-.036 0-.18-.036-.432-.108l1.458-16.902Zm45.466-6.48c-.612-1.656-1.242-3.24-1.89-4.752-.612-1.548-1.314-2.934-2.106-4.158-.756-1.26-1.602-2.304-2.538-3.132-.936-.864-1.998-1.458-3.186-1.782v31.32c0 1.08.162 2.088.486 3.024.324.936.9 1.782 1.728 2.538h-11.448c.828-.756 1.404-1.602 1.728-2.538.324-.936.486-1.944.486-3.024v-26.676c0-1.08-.162-2.088-.486-3.024-.324-.936-.9-1.782-1.728-2.538h18.954l.432 14.688-.432.054Zm3.036 3.618c0-6.156 1.098-10.836 3.294-14.04 2.196-3.24 5.148-4.86 8.856-4.86 1.836 0 3.492.504 4.968 1.512 1.512 1.008 2.79 2.412 3.834 4.212 1.08 1.764 1.908 3.87 2.484 6.318.576 2.448.864 5.094.864 7.938 0 6.156-1.098 10.854-3.294 14.094-2.196 3.204-5.148 4.806-8.856 4.806-1.836 0-3.51-.504-5.022-1.512-1.476-1.008-2.754-2.394-3.834-4.158-1.044-1.8-1.854-3.924-2.43-6.372-.576-2.448-.864-5.094-.864-7.938Zm5.67-11.124c0 2.232.126 4.5.378 6.804.288 2.304.666 4.536 1.134 6.696.468 2.16 1.008 4.194 1.62 6.102.648 1.908 1.332 3.582 2.052 5.022.756 1.404 1.53 2.52 2.322 3.348.792.792 1.584 1.188 2.376 1.188 2.052-.072 3.078-2.016 3.078-5.832 0-2.232-.144-4.5-.432-6.804-.252-2.304-.612-4.536-1.08-6.696-.468-2.16-1.008-4.176-1.62-6.048-.612-1.908-1.296-3.564-2.052-4.968-.72-1.44-1.476-2.574-2.268-3.402-.792-.828-1.584-1.242-2.376-1.242-1.044 0-1.836.504-2.376 1.512-.504.972-.756 2.412-.756 4.32ZM114.753 278.56c0-6.156 1.098-10.836 3.294-14.04 2.196-3.24 5.148-4.86 8.856-4.86 1.836 0 3.492.504 4.968 1.512 1.512 1.008 2.79 2.412 3.834 4.212 1.08 1.764 1.908 3.87 2.484 6.318.576 2.448.864 5.094.864 7.938 0 6.156-1.098 10.854-3.294 14.094-2.196 3.204-5.148 4.806-8.856 4.806-1.836 0-3.51-.504-5.022-1.512-1.476-1.008-2.754-2.394-3.834-4.158-1.044-1.8-1.854-3.924-2.43-6.372-.576-2.448-.864-5.094-.864-7.938Zm5.67-11.124c0 2.232.126 4.5.378 6.804.288 2.304.666 4.536 1.134 6.696.468 2.16 1.008 4.194 1.62 6.102.648 1.908 1.332 3.582 2.052 5.022.756 1.404 1.53 2.52 2.322 3.348.792.792 1.584 1.188 2.376 1.188 2.052-.072 3.078-2.016 3.078-5.832 0-2.232-.144-4.5-.432-6.804-.252-2.304-.612-4.536-1.08-6.696-.468-2.16-1.008-4.176-1.62-6.048-.612-1.908-1.296-3.564-2.052-4.968-.72-1.44-1.476-2.574-2.268-3.402-.792-.828-1.584-1.242-2.376-1.242-1.044 0-1.836.504-2.376 1.512-.504.972-.756 2.412-.756 4.32Zm43.213 8.154c-.468-1.62-.99-3.222-1.566-4.806-.54-1.584-1.116-3.024-1.728-4.32-.612-1.332-1.26-2.466-1.944-3.402-.684-.936-1.368-1.548-2.052-1.836v31.212c0 1.08.162 2.088.486 3.024.324.936.9 1.782 1.728 2.538h-11.448c.828-.756 1.404-1.602 1.728-2.538.324-.936.486-1.944.486-3.024v-31.212c-.72.288-1.422.9-2.106 1.836-.648.936-1.296 2.07-1.944 3.402-.612 1.296-1.188 2.736-1.728 4.32s-1.044 3.186-1.512 4.806l-.432-.054.54-15.336h21.384l.54 15.336-.432.054Zm17.643.702c1.188.288 2.268.702 3.24 1.242.972.54 1.8 1.26 2.484 2.16.72.864 1.278 1.926 1.674 3.186.396 1.224.594 2.664.594 4.32 0 2.016-.288 3.708-.864 5.076-.576 1.368-1.368 2.484-2.376 3.348-1.008.828-2.196 1.44-3.564 1.836-1.332.36-2.772.54-4.32.54h-11.556c.828-.756 1.404-1.602 1.728-2.538.324-.936.486-1.944.486-3.024v-26.676c0-1.08-.162-2.088-.486-3.024-.324-.936-.9-1.782-1.728-2.538h11.448c1.512 0 2.916.162 4.212.486 1.332.288 2.466.774 3.402 1.458.972.684 1.728 1.548 2.268 2.592.54 1.044.81 2.286.81 3.726 0 1.152-.198 2.196-.594 3.132-.396.9-.936 1.674-1.62 2.322-.648.648-1.44 1.188-2.376 1.62-.9.396-1.854.648-2.862.756Zm.324-7.614c0-5.004-1.926-7.506-5.778-7.506v13.824c2.232.396 3.744.054 4.536-1.026.828-1.08 1.242-2.844 1.242-5.292Zm-5.778 28.35c2.268 0 3.888-.828 4.86-2.484.972-1.692 1.458-4.14 1.458-7.344 0-1.656-.09-3.078-.27-4.266-.144-1.224-.45-2.25-.918-3.078-.468-.864-1.116-1.566-1.944-2.106-.792-.576-1.854-1.062-3.186-1.458v20.736Zm16.83-15.606c.072.468.144.99.216 1.566.072.54.162 1.116.27 1.728.216 1.08.432 2.142.648 3.186.216 1.008.468 1.8.756 2.376.324.576.684.828 1.08.756.432-.072.954-.702 1.566-1.89.504-.972.954-2.322 1.35-4.05.396-1.728.72-3.636.972-5.724.288-2.124.486-4.32.594-6.588.144-2.304.198-4.5.162-6.588-.036-1.188-.18-2.268-.432-3.24-.216-1.008-.63-1.926-1.242-2.754l18.9.054c-.828.756-1.386 1.602-1.674 2.538-.288.936-.468 1.944-.54 3.024l.054 26.622c0 1.08.162 2.088.486 3.024.324.936.9 1.782 1.728 2.538h-11.448c.828-.756 1.404-1.602 1.728-2.538.324-.936.486-1.944.486-3.024v-31.104h-6.372c0 1.08-.036 2.43-.108 4.05-.036 1.584-.108 3.348-.216 5.292-.108 1.908-.27 3.906-.486 5.994-.216 2.088-.486 4.14-.81 6.156-.324 2.016-.738 3.96-1.242 5.832-.468 1.836-1.044 3.474-1.728 4.914-.648 1.404-1.404 2.538-2.268 3.402-.864.864-1.854 1.35-2.97 1.458-.252.036-.414.036-.486 0-.036 0-.18-.036-.432-.108l1.458-16.902Zm46.006-6.156c-.54-1.692-1.152-3.312-1.836-4.86-.648-1.584-1.386-3.006-2.214-4.266-.828-1.26-1.764-2.322-2.808-3.186-1.008-.864-2.142-1.458-3.402-1.782v15.39l5.076-7.02.378.054 1.188 17.064-.378.054-5.994-8.802-.27.108v18.954c1.08-.216 2.106-.72 3.078-1.512s1.854-1.782 2.646-2.97c.828-1.188 1.566-2.502 2.214-3.942.684-1.476 1.278-3.006 1.782-4.59l.432.054-.594 13.986h-18.792c.828-.756 1.404-1.602 1.728-2.538.324-.936.486-1.944.486-3.024v-26.676c0-1.08-.162-2.088-.486-3.024-.324-.936-.9-1.782-1.728-2.538h19.494l.432 15.012-.432.054Zm18.948 3.348v-12.852c0-1.08-.162-2.088-.486-3.024-.324-.936-.9-1.782-1.728-2.538h11.448c-.828.756-1.404 1.602-1.728 2.538-.324.936-.486 1.944-.486 3.024v26.676c0 1.08.162 2.088.486 3.024.324.936.9 1.782 1.728 2.538h-11.448c.828-.756 1.404-1.602 1.728-2.538.324-.936.486-1.944.486-3.024V279.91c-1.044.36-2.196.54-3.456.54-1.512 0-2.934-.216-4.266-.648-1.296-.432-2.43-1.098-3.402-1.998-.936-.936-1.674-2.106-2.214-3.51-.504-1.44-.738-3.168-.702-5.184v-3.348c0-1.08-.162-2.088-.486-3.024-.324-.936-.9-1.782-1.728-2.538h11.448c-.828.756-1.404 1.602-1.728 2.538-.324.936-.486 1.944-.486 3.024v5.508c-.144 2.592.252 4.608 1.188 6.048.936 1.404 2.52 1.944 4.752 1.62.36-.072.72-.18 1.08-.324Zm20.309 18.414c2.268 0 3.888-.828 4.86-2.484.972-1.656 1.458-4.104 1.458-7.344 0-1.656-.108-3.168-.324-4.536-.18-1.368-.522-2.538-1.026-3.51-.468-.972-1.116-1.728-1.944-2.268-.792-.576-1.8-.864-3.024-.864v21.006Zm0-22.032c1.512 0 3.06.198 4.644.594 1.62.396 3.078 1.062 4.374 1.998 1.296.9 2.358 2.106 3.186 3.618.828 1.512 1.242 3.348 1.242 5.508v.918c0 .36-.018.63-.054.81-.108 1.764-.486 3.258-1.134 4.482-.612 1.188-1.404 2.16-2.376 2.916-.972.756-2.106 1.314-3.402 1.674-1.296.324-2.682.486-4.158.486h-11.556c.828-.756 1.404-1.602 1.728-2.538.324-.936.486-1.944.486-3.024v-26.676c0-1.08-.162-2.088-.486-3.024-.324-.936-.9-1.782-1.728-2.538h11.448c-.828.756-1.404 1.602-1.728 2.538-.324.936-.486 1.944-.486 3.024v9.234Zm15.604 3.672c0-2.916.27-5.544.81-7.884.576-2.376 1.386-4.374 2.43-5.994 1.044-1.656 2.304-2.934 3.78-3.834 1.512-.9 3.222-1.35 5.13-1.35 1.044 0 2.034.144 2.97.432.936.252 1.818.54 2.646.864.54.216 1.08.27 1.62.162.576-.108 1.08-.324 1.512-.648l-1.026 14.688-.378-.054c-.468-1.512-1.044-3.06-1.728-4.644-.648-1.62-1.404-3.078-2.268-4.374-.864-1.332-1.836-2.43-2.916-3.294-1.08-.864-2.286-1.296-3.618-1.296-.612 0-1.134.18-1.566.54-.432.36-.792.864-1.08 1.512-.252.612-.45 1.332-.594 2.16-.108.828-.162 1.728-.162 2.7 0 3.096.198 6.102.594 9.018.432 2.916 1.062 5.508 1.89 7.776.828 2.232 1.854 4.032 3.078 5.4 1.224 1.332 2.664 1.998 4.32 1.998 1.62 0 2.898-.864 3.834-2.592.972-1.764 1.656-4.518 2.052-8.262l.594.054c-.18 2.808-.486 5.256-.918 7.344-.432 2.088-1.044 3.834-1.836 5.238-.792 1.404-1.8 2.466-3.024 3.186-1.188.684-2.61 1.026-4.266 1.026-1.728 0-3.312-.522-4.752-1.566s-2.7-2.466-3.78-4.266c-1.044-1.8-1.872-3.906-2.484-6.318-.576-2.412-.864-4.986-.864-7.722Zm34.624-1.89c-1.332.18-2.628.126-3.888-.162-1.224-.288-2.322-.774-3.294-1.458-.936-.72-1.692-1.62-2.268-2.7-.54-1.116-.81-2.376-.81-3.78 0-1.44.27-2.7.81-3.78.576-1.08 1.35-1.962 2.322-2.646.972-.684 2.106-1.188 3.402-1.512 1.332-.36 2.754-.54 4.266-.54h11.772c-.828.756-1.404 1.602-1.728 2.538-.324.936-.486 1.944-.486 3.024v26.676c0 1.08.162 2.088.486 3.024.324.936.9 1.782 1.728 2.538H329.01c.828-.756 1.404-1.602 1.728-2.538.324-.936.486-1.944.486-3.024v-16.146c-.684.468-1.278.99-1.782 1.566-.504.576-1.008 1.278-1.512 2.106-.468.792-.972 1.746-1.512 2.862-.504 1.08-1.08 2.394-1.728 3.942l-5.994 13.986-.486-.054 1.998-23.328c1.512.18 2.916.198 4.212.054 1.332-.144 2.574-.36 3.726-.648Zm-3.024-8.1c0 2.448.468 4.284 1.404 5.508.936 1.224 2.502 1.548 4.698.972v-13.986c-2.16 0-3.726.63-4.698 1.89-.936 1.26-1.404 3.132-1.404 5.616ZM100.051 391.908V383.2h-4.8299l-.588 7.21c-.098 1.134-.602 1.498-1.176 1.498h-.196v3.486h1.106V393h5.25v2.394h1.1199v-3.486h-.686Zm-4.7599 0v-.056c.322-.322.532-.798.588-1.47l.504-6.118h2.45v7.644h-3.542Zm12.4339-.784v-2.604c0-2.002-1.414-2.66-2.856-2.66-1.386 0-2.576.784-2.758 1.974l1.218.168c.224-.728.854-1.106 1.596-1.106.798 0 1.596.448 1.596 1.652v.77c-.504-.308-1.092-.49-1.722-.49-1.694 0-2.688.91-2.688 2.226 0 1.4 1.022 2.072 2.366 2.072.994 0 1.694-.42 2.044-1.008h.056c.028.364.098.658.154.882h1.162v-.112c-.112-.266-.168-1.036-.168-1.764Zm-3.122.98c-.714 0-1.274-.294-1.274-1.064s.616-1.232 1.554-1.232c.476 0 1.106.154 1.638.462-.042 1.26-.952 1.834-1.918 1.834Zm10.11-6.104v2.996h-3.038V386h-1.26v7h1.26v-3.01h3.038V393h1.246v-7h-1.246Zm9.297 0h-1.498l-2.73 5.292h-.056V386h-1.19v7h1.498l2.744-5.278h.056V393h1.176v-7Zm6.89 0v2.996h-3.038V386h-1.26v7h1.26v-3.01h3.038V393h1.246v-7H130.9Zm9.2 5.124v-2.604c0-2.002-1.414-2.66-2.856-2.66-1.386 0-2.576.784-2.758 1.974l1.218.168c.224-.728.854-1.106 1.596-1.106.798 0 1.596.448 1.596 1.652v.77c-.504-.308-1.092-.49-1.722-.49-1.694 0-2.688.91-2.688 2.226 0 1.4 1.022 2.072 2.366 2.072.994 0 1.694-.42 2.044-1.008h.056c.028.364.098.658.154.882h1.162v-.112c-.112-.266-.168-1.036-.168-1.764Zm-3.122.98c-.714 0-1.274-.294-1.274-1.064s.616-1.232 1.554-1.232c.476 0 1.106.154 1.638.462-.042 1.26-.952 1.834-1.918 1.834ZM156.329 386h-5.348v7h1.26v-6.006h2.842V393h1.246v-7Zm5.42 7.14c1.862 0 3.108-1.47 3.108-3.64s-1.246-3.64-3.108-3.64c-1.876 0-3.108 1.47-3.108 3.64s1.232 3.64 3.108 3.64Zm0-1.05c-1.19 0-1.89-1.19-1.89-2.59 0-1.414.7-2.604 1.89-2.604s1.89 1.19 1.89 2.604c0 1.4-.7 2.59-1.89 2.59Zm11.062-.098V386h-4.494l-.364 4.522c-.084 1.092-.574 1.47-1.148 1.47h-.434v2.8h1.106V393h4.718v1.792h1.106v-2.8h-.49Zm-4.214 0v-.056c.336-.266.56-.728.63-1.428l.266-3.514h2.072v4.998h-2.968Zm9.578-5.684c-.938 0-1.652.392-2.1 1.344h-.056c.168-2.156 1.148-3.374 2.632-3.374h.77c.602 0 1.064-.056 1.344-.154v-1.092h-.084c-.238.126-.616.168-1.19.168h-.882c-1.974 0-3.78 1.554-3.78 5.138 0 3.43 1.316 4.802 3.248 4.802 1.75 0 2.996-1.204 2.996-3.43 0-2.198-1.316-3.402-2.898-3.402Zm-.126 5.768c-1.064 0-1.792-.784-1.792-2.352 0-1.568.728-2.366 1.792-2.366s1.792.784 1.792 2.366-.728 2.352-1.792 2.352Zm7.981 1.064c1.862 0 3.108-1.47 3.108-3.64s-1.246-3.64-3.108-3.64c-1.876 0-3.108 1.47-3.108 3.64s1.232 3.64 3.108 3.64Zm0-1.05c-1.19 0-1.89-1.19-1.89-2.59 0-1.414.7-2.604 1.89-2.604s1.89 1.19 1.89 2.604c0 1.4-.7 2.59-1.89 2.59Zm8.402-6.23c-.882 0-1.694.504-2.002 1.036h-.056l.042-.798V386h-1.218v10.08h1.218v-3.92h.056c.336.532 1.106.966 1.932.966 1.638 0 2.87-1.302 2.87-3.64 0-2.324-1.232-3.626-2.842-3.626Zm-.21 6.23c-1.008 0-1.806-.938-1.806-2.604 0-1.652.798-2.59 1.806-2.59s1.834.994 1.834 2.59c0 1.61-.826 2.604-1.834 2.604Zm7.492-2.828 3.57-3.262h-1.666l-2.744 2.548h-.056V386h-1.232v7h1.232v-2.884h.056l2.94 2.884h1.652l-3.752-3.738Zm11.23 1.862v-2.604c0-2.002-1.414-2.66-2.856-2.66-1.386 0-2.576.784-2.758 1.974l1.218.168c.224-.728.854-1.106 1.596-1.106.798 0 1.596.448 1.596 1.652v.77c-.504-.308-1.092-.49-1.722-.49-1.694 0-2.688.91-2.688 2.226 0 1.4 1.022 2.072 2.366 2.072.994 0 1.694-.42 2.044-1.008h.056c.028.364.098.658.154.882h1.162v-.112c-.112-.266-.168-1.036-.168-1.764Zm-3.122.98c-.714 0-1.274-.294-1.274-1.064s.616-1.232 1.554-1.232c.476 0 1.106.154 1.638.462-.042 1.26-.952 1.834-1.918 1.834Zm18.427-6.244c-.588 0-.952.378-1.106.686h-.056v-3.626h-1.176v3.626h-.056c-.154-.308-.518-.686-1.106-.686-1.036 0-1.82.966-1.82 3.64 0 2.674.784 3.64 1.778 3.64.658 0 1.036-.434 1.148-.714h.056v3.01h1.176v-3.01h.056c.112.28.49.714 1.148.714.994 0 1.778-.966 1.778-3.64 0-2.674-.784-3.64-1.82-3.64Zm-3.178 6.286c-.588 0-.938-.56-.938-2.646 0-2.1.35-2.66.938-2.66.532 0 .84.56.84 2.66 0 2.086-.308 2.646-.84 2.646Zm2.856 0c-.532 0-.84-.56-.84-2.646 0-2.1.308-2.66.84-2.66.588 0 .938.56.938 2.66 0 2.086-.35 2.646-.938 2.646Zm9.396-6.146h-1.498l-2.73 5.292h-.056V386h-1.19v7h1.498l2.744-5.278h.056V393h1.176v-7Zm8.304 0h-4.956v5.292c0 .42-.252.812-.756.812-.308 0-.616-.07-.896-.224v1.022c.322.14.644.238 1.12.238 1.064 0 1.75-.686 1.75-1.722v-4.424h2.52V393h1.218v-7Zm5.391 2.184h-1.834V386h-1.218v7h3.052c1.89 0 2.716-.98 2.716-2.408 0-1.456-.826-2.408-2.716-2.408Zm-.014 3.836h-1.82v-2.856h1.82c.91 0 1.484.504 1.484 1.428 0 .938-.574 1.428-1.484 1.428Zm11.118-6.02h-1.596l-1.624 5.586h-.056l-1.61-5.586h-1.61v7h1.12v-4.984h.056L258.23 393h1.302l1.428-5.012h.056V393h1.106v-7Zm4.846 7.14c1.862 0 3.108-1.47 3.108-3.64s-1.246-3.64-3.108-3.64c-1.876 0-3.108 1.47-3.108 3.64s1.232 3.64 3.108 3.64Zm0-1.05c-1.19 0-1.89-1.19-1.89-2.59 0-1.414.7-2.604 1.89-2.604s1.89 1.19 1.89 2.604c0 1.4-.7 2.59-1.89 2.59Zm9.844-2.702v-.056c.546-.252.952-.756.952-1.442 0-1.148-.742-1.89-2.366-1.89h-3.108v7h3.36c1.736 0 2.408-.84 2.408-1.876 0-.742-.406-1.47-1.246-1.736Zm-1.54-2.422c.77 0 1.288.182 1.288.966 0 .798-.518 1.022-1.26 1.022h-1.834v-1.988h1.806Zm.21 5.068h-2.016v-2.114h1.988c.91 0 1.372.392 1.372 1.092 0 .784-.518 1.022-1.344 1.022Zm17.475-3.724 1.232-.168c-.252-1.4-1.33-2.282-2.87-2.282-2.016 0-3.206 1.568-3.206 3.626 0 2.128 1.162 3.64 3.22 3.64 1.582 0 2.632-.896 2.856-2.198l-1.232-.168c-.168.756-.714 1.316-1.582 1.316-1.274 0-2.03-1.036-2.03-2.562 0-1.428.7-2.604 2.002-2.604.868 0 1.428.602 1.61 1.4Zm16.342-2.31-1.778 5.264h-.056l-1.96-5.264h-1.33l2.716 6.874-1.148 3.206h1.232l3.57-10.08h-1.246Zm9.171 0h-4.956v5.292c0 .42-.252.812-.756.812-.308 0-.616-.07-.896-.224v1.022c.322.14.644.238 1.12.238 1.064 0 1.75-.686 1.75-1.722v-4.424h2.52V393h1.218v-7Zm5.392 2.184h-1.834V386h-1.218v7h3.052c1.89 0 2.716-.98 2.716-2.408 0-1.456-.826-2.408-2.716-2.408Zm-.014 3.836h-1.82v-2.856h1.82c.91 0 1.484.504 1.484 1.428 0 .938-.574 1.428-1.484 1.428Zm10.95-6.02h-6.146v1.008h2.45V393h1.246v-5.992h2.45V386Zm5.322-.14c-.882 0-1.694.504-2.002 1.036h-.056l.042-.798V386h-1.218v10.08h1.218v-3.92h.056c.336.532 1.106.966 1.932.966 1.638 0 2.87-1.302 2.87-3.64 0-2.324-1.232-3.626-2.842-3.626Zm-.21 6.23c-1.008 0-1.806-.938-1.806-2.604 0-1.652.798-2.59 1.806-2.59s1.834.994 1.834 2.59c0 1.61-.826 2.604-1.834 2.604Zm10.627-.966v-2.604c0-2.002-1.414-2.66-2.856-2.66-1.386 0-2.576.784-2.758 1.974l1.218.168c.224-.728.854-1.106 1.596-1.106.798 0 1.596.448 1.596 1.652v.77c-.504-.308-1.092-.49-1.722-.49-1.694 0-2.688.91-2.688 2.226 0 1.4 1.022 2.072 2.366 2.072.994 0 1.694-.42 2.044-1.008h.056c.028.364.098.658.154.882h1.162v-.112c-.112-.266-.168-1.036-.168-1.764Zm-3.122.98c-.714 0-1.274-.294-1.274-1.064s.616-1.232 1.554-1.232c.476 0 1.106.154 1.638.462-.042 1.26-.952 1.834-1.918 1.834Zm6.204-3.808v1.05h4.76v-1.05h-4.76ZM76.2608 406.262l3.57-3.262h-1.666l-2.744 2.548h-.056V403h-1.232v7h1.232v-2.884h.056l2.94 2.884h1.652l-3.752-3.738Zm8.5977 3.878c1.862 0 3.108-1.47 3.108-3.64s-1.246-3.64-3.108-3.64c-1.876 0-3.108 1.47-3.108 3.64s1.232 3.64 3.108 3.64Zm0-1.05c-1.19 0-1.89-1.19-1.89-2.59 0-1.414.7-2.604 1.89-2.604s1.89 1.19 1.89 2.604c0 1.4-.7 2.59-1.89 2.59Zm8.4018-6.23c-.882 0-1.694.504-2.002 1.036h-.056l.042-.798V403h-1.218v10.08h1.218v-3.92h.056c.336.532 1.1059.966 1.932.966 1.638 0 2.8699-1.302 2.8699-3.64 0-2.324-1.2319-3.626-2.8419-3.626Zm-.21 6.23c-1.008 0-1.806-.938-1.806-2.604 0-1.652.798-2.59 1.806-2.59s1.834.994 1.834 2.59c0 1.61-.826 2.604-1.834 2.604Zm7.9957 1.05c1.862 0 3.108-1.47 3.108-3.64s-1.246-3.64-3.108-3.64c-1.876 0-3.108 1.47-3.108 3.64s1.232 3.64 3.108 3.64Zm0-1.05c-1.19 0-1.89-1.19-1.89-2.59 0-1.414.7-2.604 1.89-2.604s1.89 1.19 1.89 2.604c0 1.4-.7 2.59-1.89 2.59ZM112.22 403h-6.146v1.008h2.45V410h1.246v-5.992h2.45V403Zm4.51 3.262L120.3 403h-1.666l-2.744 2.548h-.056V403h-1.232v7h1.232v-2.884h.056l2.94 2.884h1.652l-3.752-3.738ZM128.057 403h-1.498l-2.73 5.292h-.056V403h-1.19v7h1.498l2.744-5.278h.056V410h1.176v-7Zm8.612 0h-1.596l-1.624 5.586h-.056l-1.61-5.586h-1.61v7h1.12v-4.984h.056l1.428 4.984h1.302l1.428-5.012h.056V410h1.106v-7Zm7.576 0h-1.498l-2.73 5.292h-.056V403h-1.19v7h1.498l2.744-5.278h.056V410h1.176v-7Zm13.765-.14c-.882 0-1.694.504-2.002 1.036h-.056l.042-.798V403h-1.218v10.08h1.218v-3.92h.056c.336.532 1.106.966 1.932.966 1.638 0 2.87-1.302 2.87-3.64 0-2.324-1.232-3.626-2.842-3.626Zm-.21 6.23c-1.008 0-1.806-.938-1.806-2.604 0-1.652.798-2.59 1.806-2.59s1.834.994 1.834 2.59c0 1.61-.826 2.604-1.834 2.604Zm8.15-.014c-1.12 0-2.058-.826-2.1-2.464h4.9c.042-.182.084-.476.084-.672 0-1.89-1.33-3.08-2.996-3.08-1.862 0-3.178 1.456-3.178 3.682 0 2.128 1.302 3.584 3.276 3.584 1.428 0 2.604-.784 2.898-1.988l-1.218-.168c-.308.714-.868 1.106-1.666 1.106Zm-.084-5.194c.98 0 1.68.672 1.764 1.75h-3.682c.238-1.064.938-1.75 1.918-1.75Zm10.698 5.11V403h-1.246v5.992h-2.842V403h-1.26v7h4.69v1.792h1.106v-2.8h-.448Zm5.574.084c-1.12 0-2.058-.826-2.1-2.464h4.9c.042-.182.084-.476.084-.672 0-1.89-1.33-3.08-2.996-3.08-1.862 0-3.178 1.456-3.178 3.682 0 2.128 1.302 3.584 3.276 3.584 1.428 0 2.604-.784 2.898-1.988l-1.218-.168c-.308.714-.868 1.106-1.666 1.106Zm-.085-5.194c.981 0 1.681.672 1.765 1.75h-3.682c.238-1.064.938-1.75 1.917-1.75Zm9.55-.882v2.996h-3.038V403h-1.26v7h1.26v-3.01h3.038V410h1.246v-7h-1.246Zm8.192 3.29c.574-.252.994-.742.994-1.484 0-1.204-1.176-1.946-2.646-1.946-1.456 0-2.73.686-2.856 1.946l1.274.154c.112-.728.798-1.106 1.596-1.106.784 0 1.386.406 1.386 1.078 0 .588-.448.98-1.26.98h-.728v.952h.798c.854 0 1.428.448 1.428 1.148 0 .756-.77 1.106-1.68 1.106-.952 0-1.582-.448-1.666-1.204l-1.274.168c.126 1.358 1.372 2.03 2.968 2.03 1.47 0 2.898-.588 2.898-2.044 0-.896-.49-1.456-1.232-1.722v-.056Zm9.2-3.29h-1.498l-2.73 5.292h-.056V403h-1.19v7h1.498l2.744-5.278h.056V410h1.176v-7Zm8.15 0h-3.22c-1.68 0-2.576.826-2.576 2.086 0 .91.336 1.442 1.064 1.806v.056c-.546.182-.742.658-.784 1.232l-.042.644c-.028.42-.056.826-.196 1.078V410h1.232c.126-.322.154-.658.196-1.106l.042-.616c.042-.588.476-1.036 1.26-1.036h1.82V410h1.204v-7Zm-3.08 3.262c-.784 0-1.484-.294-1.484-1.148 0-.84.7-1.134 1.484-1.134h1.876v2.282h-1.876ZM225.7 403h-1.596l-1.624 5.586h-.056l-1.61-5.586h-1.61v7h1.12v-4.984h.056l1.428 4.984h1.302l1.428-5.012h.056V410h1.106v-7Zm7.576 0h-1.498l-2.73 5.292h-.056V403h-1.19v7h1.498l2.744-5.278h.056V410h1.176v-7Zm15.208 3.388v-.056c.546-.252.952-.756.952-1.442 0-1.148-.742-1.89-2.366-1.89h-3.108v7h3.36c1.736 0 2.408-.84 2.408-1.876 0-.742-.406-1.47-1.246-1.736Zm-1.54-2.422c.77 0 1.288.182 1.288.966 0 .798-.518 1.022-1.26 1.022h-1.834v-1.988h1.806Zm.21 5.068h-2.016v-2.114h1.988c.91 0 1.372.392 1.372 1.092 0 .784-.518 1.022-1.344 1.022ZM266.001 403h-6.146v1.008h2.45V410h1.246v-5.992h2.45V403Zm6.764 3.388v-.056c.546-.252.952-.756.952-1.442 0-1.148-.742-1.89-2.366-1.89h-3.108v7h3.36c1.736 0 2.408-.84 2.408-1.876 0-.742-.406-1.47-1.246-1.736Zm-1.54-2.422c.77 0 1.288.182 1.288.966 0 .798-.518 1.022-1.26 1.022h-1.834v-1.988h1.806Zm.21 5.068h-2.016v-2.114h1.988c.91 0 1.372.392 1.372 1.092 0 .784-.518 1.022-1.344 1.022ZM281.839 403h-1.498l-2.73 5.292h-.056V403h-1.19v7h1.498l2.744-5.278h.056V410h1.176v-7Zm8.443 0h-6.146v1.008h2.45V410h1.246v-5.992h2.45V403Zm8.094 0h-6.146v1.008h2.45V410h1.246v-5.992h2.45V403Zm5.168 6.076c-1.12 0-2.058-.826-2.1-2.464h4.9c.042-.182.084-.476.084-.672 0-1.89-1.33-3.08-2.996-3.08-1.862 0-3.178 1.456-3.178 3.682 0 2.128 1.302 3.584 3.276 3.584 1.428 0 2.604-.784 2.898-1.988l-1.218-.168c-.308.714-.868 1.106-1.666 1.106Zm-.084-5.194c.98 0 1.68.672 1.764 1.75h-3.682c.238-1.064.938-1.75 1.918-1.75Zm8.332-1.022c-.882 0-1.694.504-2.002 1.036h-.056l.042-.798V403h-1.218v10.08h1.218v-3.92h.056c.336.532 1.106.966 1.932.966 1.638 0 2.869-1.302 2.869-3.64 0-2.324-1.231-3.626-2.841-3.626Zm-.21 6.23c-1.008 0-1.806-.938-1.806-2.604 0-1.652.798-2.59 1.806-2.59s1.834.994 1.834 2.59c0 1.61-.826 2.604-1.834 2.604Zm5.615-3.794v1.05h4.76v-1.05h-4.76Zm12.224-2.436c-.588 0-.952.378-1.106.686h-.056v-3.626h-1.176v3.626h-.056c-.154-.308-.518-.686-1.106-.686-1.036 0-1.82.966-1.82 3.64 0 2.674.784 3.64 1.778 3.64.658 0 1.036-.434 1.148-.714h.056v3.01h1.176v-3.01h.056c.112.28.49.714 1.148.714.994 0 1.778-.966 1.778-3.64 0-2.674-.784-3.64-1.82-3.64Zm-3.178 6.286c-.588 0-.938-.56-.938-2.646 0-2.1.35-2.66.938-2.66.532 0 .84.56.84 2.66 0 2.086-.308 2.646-.84 2.646Zm2.856 0c-.532 0-.84-.56-.84-2.646 0-2.1.308-2.66.84-2.66.588 0 .938.56.938 2.66 0 2.086-.35 2.646-.938 2.646Zm6.666.994c1.862 0 3.108-1.47 3.108-3.64s-1.246-3.64-3.108-3.64c-1.876 0-3.108 1.47-3.108 3.64s1.232 3.64 3.108 3.64Zm0-1.05c-1.19 0-1.89-1.19-1.89-2.59 0-1.414.7-2.604 1.89-2.604s1.89 1.19 1.89 2.604c0 1.4-.7 2.59-1.89 2.59Zm8.402-6.23c-.882 0-1.694.504-2.002 1.036h-.056l.042-.798V403h-1.218v10.08h1.218v-3.92h.056c.336.532 1.105.966 1.932.966 1.638 0 2.869-1.302 2.869-3.64 0-2.324-1.231-3.626-2.841-3.626Zm-.21 6.23c-1.008 0-1.806-.938-1.806-2.604 0-1.652.798-2.59 1.806-2.59s1.834.994 1.834 2.59c0 1.61-.826 2.604-1.834 2.604ZM355.2 403h-1.596l-1.624 5.586h-.056l-1.61-5.586h-1.61v7h1.12v-4.984h.056l1.428 4.984h1.302l1.428-5.012h.056V410h1.106v-7Zm7.478 5.124v-2.604c0-2.002-1.414-2.66-2.856-2.66-1.386 0-2.576.784-2.758 1.974l1.218.168c.224-.728.854-1.106 1.596-1.106.798 0 1.596.448 1.596 1.652v.77c-.504-.308-1.092-.49-1.722-.49-1.694 0-2.688.91-2.688 2.226 0 1.4 1.022 2.072 2.366 2.072.994 0 1.694-.42 2.044-1.008h.056c.028.364.098.658.154.882h1.162v-.112c-.112-.266-.168-1.036-.168-1.764Zm-3.122.98c-.714 0-1.274-.294-1.274-1.064s.616-1.232 1.554-1.232c.476 0 1.106.154 1.638.462-.042 1.26-.952 1.834-1.918 1.834ZM371.22 403h-6.146v1.008h2.45V410h1.246v-5.992h2.45V403Zm5.168 6.076c-1.12 0-2.058-.826-2.1-2.464h4.9c.042-.182.084-.476.084-.672 0-1.89-1.33-3.08-2.996-3.08-1.862 0-3.178 1.456-3.178 3.682 0 2.128 1.302 3.584 3.276 3.584 1.428 0 2.604-.784 2.898-1.988l-1.218-.168c-.308.714-.868 1.106-1.666 1.106Zm-.085-5.194c.981 0 1.681.672 1.765 1.75h-3.682c.238-1.064.938-1.75 1.917-1.75Z"/>
  <circle cx="227.5" cy="39.5" r="10.5" fill="#E2D2BB"/>
  <path fill="#7D6779" d="M231.13 44h-7.266v-1.078l3.85-3.514c1.036-.924 1.526-1.456 1.526-2.408 0-.966-.686-1.568-1.694-1.568-1.26 0-1.918.854-1.988 2.156l-1.582-.196c.028-2.072 1.372-3.332 3.626-3.332 2.142 0 3.276 1.246 3.276 2.898 0 1.386-.63 2.1-1.834 3.178l-2.59 2.422v.056h4.676V44Z"/>
</svg>