<svg xmlns="http://www.w3.org/2000/svg" fill="none" viewBox="0 0 455 455">
  <path fill="#E2D2BB" d="M0 0h455v455H0z"/>
  <path fill="#7583A5" d="M182.94 148.802v13.932c.162 1.566 1.296 2.862 2.97 2.862h1.134V167H174.57v-1.404h1.134c1.674 0 2.808-1.296 2.97-2.862v-29.268c-.162-1.566-1.296-2.916-2.97-2.916h-1.134v-1.404h12.474v1.404h-1.134c-1.674 0-2.808 1.35-2.97 2.916v14.202l12.852-15.336c.216-.27.324-.486.324-.756 0-.594-.432-1.026-1.242-1.026h-.972v-1.35h12.042v1.35h-.648c-2.16 0-4.104.918-5.346 2.376l-12.852 14.04 14.904 16.686c1.296 1.35 2.7 1.89 5.022 1.944V167h-2.646c-1.512 0-5.724-.108-8.316-3.132l-13.122-15.066Zm44.778-20.358 14.148 34.02v-.054c1.026 2.214 2.754 3.078 4.212 3.078h.918v1.404h-12.798v-1.404h.918c.918 0 1.782-.594 1.782-1.728 0-.324-.054-.648-.162-.972l-3.294-8.694h-13.554l-3.456 8.748v-.054c-.108.378-.162.702-.162.972 0 1.134.918 1.782 1.836 1.782h.918v1.404h-11.502v-1.404h.918c1.458 0 3.186-.864 4.212-3.024h-.054l11.988-28.35c.378-.81.702-1.566.972-2.268.486-1.242.972-2.646.972-3.456h1.188Zm-6.912 23.166h11.718l-5.724-15.228-5.994 15.228Zm36.068-2.808v13.932c.162 1.566 1.296 2.862 2.97 2.862h1.134V167h-12.474v-1.404h1.134c1.674 0 2.808-1.296 2.97-2.862v-29.268c-.162-1.566-1.296-2.916-2.97-2.916h-1.134v-1.404h12.474v1.404h-1.134c-1.674 0-2.808 1.35-2.97 2.916v14.202l12.852-15.336c.216-.27.324-.486.324-.756 0-.594-.432-1.026-1.242-1.026h-.972v-1.35h12.042v1.35h-.648c-2.16 0-4.104.918-5.346 2.376l-12.852 14.04 14.904 16.686c1.296 1.35 2.7 1.89 5.022 1.944V167h-2.646c-1.512 0-5.724-.108-8.316-3.132l-13.122-15.066ZM101.959 178.2l10.908.054c7.56.162 11.88 3.726 11.88 9.288 0 3.942-2.16 6.588-4.698 7.884 4.968 1.35 7.938 5.292 7.938 10.26 0 6.318-4.536 10.368-12.744 10.368h-13.338v-1.404h1.134c1.674 0 2.808-1.296 2.97-2.862v-29.322c0-1.566-1.296-2.862-2.97-2.862h-1.08V178.2Zm8.37 35.1 4.752.054c5.022-.162 8.1-2.97 8.1-7.938 0-5.616-3.672-7.83-7.776-8.478-1.296-.162-2.97-.27-5.076-.324V213.3Zm3.726-18.252c2.862-.54 5.886-2.376 5.886-7.128 0-4.482-2.484-7.02-7.236-7.02h-2.376v14.364c1.566 0 2.808-.054 3.726-.216Zm29.588-11.988.054 21.87c0 .432 0 .864-.054 1.296v.972l-.216.216c-.108.648-.27 1.296-.54 1.89-.54 1.35-1.296 2.484-2.214 3.51-1.89 1.944-4.104 3.132-8.694 3.132v-1.404c1.674-.324 2.916-.756 3.672-1.35 1.512-1.242 2.592-3.078 3.24-5.184.216-.702.378-1.404.432-2.106v-23.814c-.054-1.296-1.134-2.376-2.43-2.376h-1.026v-1.458h32.076v1.458h-1.026c-1.296 0-2.376 1.026-2.43 2.268v30.24c.054 1.296 1.134 2.376 2.43 2.376h.972l.162 1.404h-11.286v-1.404h1.026c1.296 0 2.376-1.08 2.43-2.376v-29.052c-.054-1.35-1.134-2.484-2.376-2.484h-11.88c-1.242 0-2.268 1.08-2.322 2.376Zm27.563-4.86 11.718-.054v1.404h-1.404c-1.566 0-2.7 1.242-2.862 2.754v25.11l28.134-30.024h1.242l-.27 2.16c-.162 1.296-.27 3.078-.27 4.86v27.432c.054 1.566 1.296 2.808 2.808 2.808h1.404v1.404h-11.772v-1.404h1.404c1.512 0 2.646-1.242 2.808-2.754v-25.11l-28.134 30.024h-1.188c.108-.756.216-1.512.27-2.322.162-1.35.27-3.132.27-4.806v-27.378c-.054-1.458-1.296-2.7-2.754-2.7h-1.404V178.2Zm50.516-.054h17.928c2.16 0 5.562-.594 6.75-1.188v7.776h-1.404v-1.404c0-1.458-1.08-2.592-2.538-2.646h-9.612v31.104c.162 1.566 1.296 2.862 2.97 2.862h1.134v1.404h-12.474v-1.404h1.134c1.512 0 2.808-1.242 2.862-2.808v-31.158h-9.558c-1.458.054-2.538 1.188-2.538 2.646v1.404h-1.458v-7.776c1.296.594 4.59 1.188 6.804 1.188ZM264.283 216h-14.04v-1.458h1.134c1.512 0 2.754-1.134 2.916-2.592v-29.484c-.162-1.566-1.296-2.862-2.97-2.862h-1.134V178.2h12.474v1.404h-1.134c-1.674 0-2.808 1.296-2.97 2.862v31.05h5.67c4.158 0 6.426-2.97 6.588-7.668v-.432c0-1.026-.108-1.89-.27-2.592v.054c-1.62-4.806-5.724-5.616-8.37-5.616-.702 0-1.188.054-1.566.162-.216.054-.432.108-.594.162v-.756c1.89-1.026 3.078-1.458 4.806-1.458 5.616.216 10.746 3.348 10.8 9.99 0 6.642-4.212 10.638-11.34 10.638Zm51.146-16.308h1.242l-.702 8.91c-2.862 4.698-7.776 8.154-15.228 8.154-11.286 0-19.332-7.83-19.332-19.71 0-11.718 7.722-19.602 19.602-19.602 5.346 0 9.666 1.62 12.96 3.78l1.134 8.154h-1.296c-1.566-6.264-6.534-9.45-12.744-9.45-9.072 0-14.742 6.804-14.742 17.064s6.048 16.848 14.472 17.28c7.236 0 13.338-3.726 14.634-14.58Zm24.557-21.33 14.688-.162v1.404h-1.134c-1.674 0-2.808 1.35-2.97 2.916v29.268c.162 1.566 1.296 2.862 2.97 2.862h1.134v1.404h-12.42v-1.404h1.134c1.674 0 2.808-1.296 2.97-2.862v-13.824c-1.458 0-2.376.108-2.808.324-.378.162-.756.432-1.134.756-.324.324-.648.702-.972 1.134-.27.378-.864 1.188-1.674 2.376-.81 1.134-1.62 2.268-2.43 3.348-1.728 2.43-3.51 4.968-3.78 5.4-1.674 2.106-4.428 4.806-9.504 4.806h-3.348v-1.404c3.402 0 5.184-1.512 7.29-3.834 1.026-1.08 2.7-3.24 4.05-5.13.81-1.134 1.674-2.268 2.484-3.51.81-1.026 1.782-2.268 2.808-3.078-4.59-.702-8.1-5.508-8.1-10.422 0-6.48 4.05-10.368 10.746-10.368Zm3.348 18.252h3.024v-15.822h-.27c-.594 0-1.35-.054-2.376-.054-1.08 0-2.268.054-3.51.108-3.672.216-5.886 3.024-6.048 7.56v.486c0 1.026.108 1.89.27 2.538 1.404 4.428 5.238 5.13 7.83 5.13.378.054.756.054 1.08.054ZM64.4384 227.2l10.908.054c7.56.162 11.88 3.726 11.88 9.288 0 3.942-2.16 6.588-4.698 7.884 4.968 1.35 7.938 5.292 7.938 10.26 0 6.318-4.536 10.368-12.744 10.368h-13.338v-1.404h1.134c1.674 0 2.808-1.296 2.97-2.862v-29.322c0-1.566-1.296-2.862-2.97-2.862h-1.08V227.2Zm8.37 35.1 4.752.054c5.022-.162 8.1-2.97 8.1-7.938 0-5.616-3.672-7.83-7.776-8.478-1.296-.162-2.97-.27-5.076-.324V262.3Zm3.726-18.252c2.862-.54 5.886-2.376 5.886-7.128 0-4.482-2.484-7.02-7.236-7.02h-2.376v14.364c1.566 0 2.808-.054 3.726-.216Zm70.1426-17.604 4.05 34.236c.378 1.782 1.782 2.916 3.456 2.916h1.296V265h-12.366v-1.35h1.296c.864 0 1.62-.81 1.62-1.674v-.108l-2.214-24.894-10.422 23.112c-.27.594-.54 1.242-.756 1.89-.432 1.134-.864 2.538-1.026 3.78h-1.134l-12.96-28.026-2.16 24.138v.108c0 .864.756 1.674 1.62 1.674h1.242V265h-11.124v-1.404h1.296c1.674 0 3.078-1.134 3.456-2.916l3.996-34.236h1.134l14.418 31.212 14.148-31.212h1.134Zm38.754 29.16-3.456 9.504h-22.68v-1.404h1.134c1.674 0 2.808-1.242 2.97-2.916v-29.484c-.162-1.458-1.404-2.592-2.916-2.592h-1.134v-1.404h15.876c2.16 0 5.562-.594 6.75-1.188v7.776h-1.404v-1.404c0-1.458-1.08-2.538-2.538-2.7h-10.26v15.39h8.424c1.242-.054 2.16-.972 2.16-2.214v-1.188h1.404v9.18h-1.404v-1.242c0-1.134-.972-2.106-2.052-2.16h-8.478v14.958h7.074c5.292 0 7.506-2.862 9.072-6.912h1.458Zm39.374-6.912h1.242l-.702 8.91c-2.862 4.698-7.776 8.154-15.228 8.154-11.286 0-19.332-7.83-19.332-19.71 0-11.718 7.722-19.602 19.602-19.602 5.346 0 9.666 1.62 12.96 3.78l1.134 8.154h-1.296c-1.566-6.264-6.534-9.45-12.744-9.45-9.072 0-14.742 6.804-14.742 17.064s6.048 16.848 14.472 17.28c7.236 0 13.338-3.726 14.634-14.58Zm11.867-21.546H254.6c2.16 0 5.562-.594 6.75-1.188v7.776h-1.404v-1.404c0-1.458-1.08-2.592-2.538-2.646h-9.612v31.104c.162 1.566 1.296 2.862 2.97 2.862h1.134v1.404h-12.474v-1.404h1.134c1.512 0 2.808-1.242 2.862-2.808v-31.158h-9.558c-1.458.054-2.538 1.188-2.538 2.646v1.404h-1.458v-7.776c1.296.594 4.59 1.188 6.804 1.188ZM302.939 265l-12.42-.054v-1.404h1.134c1.566 0 2.862-1.296 2.916-2.808v-13.23h-20.682v13.176c.162 1.566 1.296 2.862 2.97 2.862h1.134v1.404h-12.474v-1.404h1.134c1.674 0 2.808-1.296 2.97-2.862v-29.268c-.162-1.566-1.296-2.916-2.97-2.916h-1.134v-1.404h12.474v1.404h-1.134c-1.674 0-2.808 1.35-2.97 2.916v13.608h20.682v-13.608c-.054-1.512-1.35-2.808-2.916-2.808h-1.134V227.2h12.42v1.404h-1.08c-1.674 0-2.808 1.35-2.97 2.916v29.214c.162 1.566 1.296 2.862 2.97 2.862h1.08V265Zm20.222 0h-14.04v-1.458h1.134c1.512 0 2.754-1.134 2.916-2.592v-29.484c-.162-1.566-1.296-2.862-2.97-2.862h-1.134V227.2h12.474v1.404h-1.134c-1.674 0-2.808 1.296-2.97 2.862v31.05h5.67c4.158 0 6.426-2.97 6.588-7.668v-.432c0-1.026-.108-1.89-.27-2.592v.054c-1.62-4.806-5.724-5.616-8.37-5.616-.702 0-1.188.054-1.566.162-.216.054-.432.108-.594.162v-.756c1.89-1.026 3.078-1.458 4.806-1.458 5.616.216 10.746 3.348 10.8 9.99 0 6.642-4.212 10.638-11.34 10.638Zm24.246-1.458v1.404h-12.474v-1.404h1.134c1.674 0 2.808-1.296 2.97-2.862v-29.268c-.162-1.566-1.296-2.916-2.97-2.916h-1.134v-1.404h12.474v1.404h-1.134c-1.674 0-2.808 1.35-2.97 2.916v29.268c.162 1.566 1.296 2.862 2.97 2.862h1.134Zm3.439-36.288 11.718-.054v1.404h-1.404c-1.566 0-2.7 1.242-2.862 2.754v25.056l28.134-30.024h1.242l-.27 2.16c-.162 1.296-.27 3.078-.27 4.86v27.432c.054 1.566 1.296 2.808 2.808 2.808h1.404v1.404h-11.772v-1.404h1.404c1.512 0 2.646-1.242 2.808-2.754v-25.11l-28.134 30.024h-1.188c.108-.756.216-1.512.27-2.322.162-1.35.27-3.132.27-4.806v-27.324c-.054-1.458-1.296-2.7-2.754-2.7h-1.404v-1.404Zm25.866-9.126h.432c0 3.024-2.538 5.562-5.562 5.562-3.024 0-5.562-2.538-5.562-5.562h.54c.594 1.458 2.538 2.916 5.076 2.916s4.482-1.458 5.076-2.916ZM88.0973 295.802v13.932c.162 1.566 1.296 2.862 2.97 2.862h1.134V314h-12.474v-1.404h1.134c1.674 0 2.808-1.296 2.97-2.862v-29.268c-.162-1.566-1.296-2.916-2.97-2.916h-1.134v-1.404h12.474v1.404h-1.134c-1.674 0-2.808 1.35-2.97 2.916v14.202l12.8517-15.336c.216-.27.324-.486.324-.756 0-.594-.432-1.026-1.242-1.026h-.9717v-1.35h12.0417v1.35h-.648c-2.16 0-4.104.918-5.346 2.376l-12.8517 14.04 14.9037 16.686c1.296 1.35 2.7 1.89 5.022 1.944V314h-2.646c-1.512 0-5.724-.108-8.316-3.132l-13.1217-15.066Zm48.0727-20.358c11.448 0 19.44 7.83 19.44 19.656 0 11.826-7.992 19.656-19.44 19.656s-19.44-7.83-19.44-19.656c0-11.826 7.992-19.656 19.44-19.656Zm0 36.828c8.748 0 14.526-6.858 14.526-17.172s-5.778-17.172-14.526-17.172c-8.694 0-14.472 6.858-14.472 17.172s5.778 17.172 14.472 17.172ZM199.29 314l-12.42-.054v-1.404h1.134c1.566 0 2.862-1.296 2.916-2.808v-13.23h-20.682v13.176c.162 1.566 1.296 2.862 2.97 2.862h1.134v1.404h-12.474v-1.404h1.134c1.674 0 2.808-1.296 2.97-2.862v-29.268c-.162-1.566-1.296-2.916-2.97-2.916h-1.134v-1.404h12.474v1.404h-1.134c-1.674 0-2.808 1.35-2.97 2.916v13.608h20.682v-13.608c-.054-1.512-1.35-2.808-2.916-2.808h-1.134V276.2h12.42v1.404h-1.08c-1.674 0-2.808 1.35-2.97 2.916v29.214c.162 1.566 1.296 2.862 2.97 2.862h1.08V314Zm11.041-37.854h17.928c2.16 0 5.562-.594 6.75-1.188v7.776h-1.404v-1.404c0-1.458-1.08-2.592-2.538-2.646h-9.612v31.104c.162 1.566 1.296 2.862 2.97 2.862h1.134v1.404h-12.474v-1.404h1.134c1.512 0 2.808-1.242 2.862-2.808v-31.158h-9.558c-1.458.054-2.538 1.188-2.538 2.646v1.404h-1.458v-7.776c1.296.594 4.59 1.188 6.804 1.188Zm54.333 28.458-3.456 9.504h-22.68v-1.404h1.134c1.674 0 2.808-1.242 2.97-2.916v-29.484c-.162-1.458-1.404-2.592-2.916-2.592h-1.134v-1.404h15.876c2.16 0 5.562-.594 6.75-1.188v7.776h-1.404v-1.404c0-1.458-1.08-2.538-2.538-2.7h-10.26v15.39h8.424c1.242-.054 2.16-.972 2.16-2.214v-1.188h1.404v9.18h-1.404v-1.242c0-1.134-.972-2.106-2.052-2.16h-8.478v14.958h7.074c5.292 0 7.506-2.862 9.072-6.912h1.458Zm12.644-8.802v13.932c.162 1.566 1.296 2.862 2.97 2.862h1.134V314h-12.474v-1.404h1.134c1.674 0 2.808-1.296 2.97-2.862v-29.268c-.162-1.566-1.296-2.916-2.97-2.916h-1.134v-1.404h12.474v1.404h-1.134c-1.674 0-2.808 1.35-2.97 2.916v14.202l12.852-15.336c.216-.27.324-.486.324-.756 0-.594-.432-1.026-1.242-1.026h-.972v-1.35h12.042v1.35h-.648c-2.16 0-4.104.918-5.346 2.376l-12.852 14.04 14.904 16.686c1.296 1.35 2.7 1.89 5.022 1.944V314h-2.646c-1.512 0-5.724-.108-8.316-3.132l-13.122-15.066Zm62.22 1.89h1.242l-.702 8.91c-2.862 4.698-7.776 8.154-15.228 8.154-11.286 0-19.332-7.83-19.332-19.71 0-11.718 7.722-19.602 19.602-19.602 5.346 0 9.666 1.62 12.96 3.78l1.134 8.154h-1.296c-1.566-6.264-6.534-9.45-12.744-9.45-9.072 0-14.742 6.804-14.742 17.064s6.048 16.848 14.472 17.28c7.236 0 13.338-3.726 14.634-14.58Zm11.868-21.546h17.928c2.16 0 5.562-.594 6.75-1.188v7.776h-1.404v-1.404c0-1.458-1.08-2.592-2.538-2.646h-9.612v31.104c.162 1.566 1.296 2.862 2.97 2.862h1.134v1.404H354.15v-1.404h1.134c1.512 0 2.808-1.242 2.862-2.808v-31.158h-9.558c-1.458.054-2.538 1.188-2.538 2.646v1.404h-1.458v-7.776c1.296.594 4.59 1.188 6.804 1.188ZM86.6225 383.2h1.232v9.8h-1.232v-4.396h-.056c-.434.546-1.12.952-2.198.952-1.218 0-2.632-.56-2.632-2.73V383.2h1.246v3.416c0 1.484.882 1.862 1.694 1.862 1.036 0 1.946-.63 1.946-2.016V383.2Zm9.4098 2.8v1.008h-2.45V393h-1.246v-5.992h-2.45V386h6.146Zm5.0137 7.14c-1.876 0-3.108-1.47-3.108-3.64s1.232-3.64 3.108-3.64c1.862 0 3.108 1.47 3.108 3.64s-1.246 3.64-3.108 3.64Zm0-1.05c1.19 0 1.89-1.19 1.89-2.59 0-1.414-.7-2.604-1.89-2.604s-1.89 1.19-1.89 2.604c0 1.4.7 2.59 1.89 2.59Zm19.156-.098h.49v2.8h-1.106V393h-4.718v1.792h-1.106v-2.8h.434c.574 0 1.064-.378 1.148-1.47l.364-4.522h4.494v5.992Zm-4.214 0h2.968v-4.998h-2.073l-.265 3.514c-.07.7-.294 1.162-.63 1.428v.056Zm9.493.084c.798 0 1.358-.392 1.666-1.106l1.218.168c-.294 1.204-1.47 1.988-2.898 1.988-1.974 0-3.276-1.456-3.276-3.584 0-2.226 1.316-3.682 3.178-3.682 1.666 0 2.996 1.19 2.996 3.08 0 .196-.042.49-.084.672h-4.9c.042 1.638.98 2.464 2.1 2.464Zm-.084-5.194c-.98 0-1.68.686-1.918 1.75h3.682c-.084-1.078-.784-1.75-1.764-1.75Zm10.964-.882v7h-1.218v-6.006h-2.52v4.424c0 1.036-.686 1.722-1.75 1.722-.476 0-.798-.098-1.12-.238v-1.022c.28.154.588.224.896.224.504 0 .756-.392.756-.812V386h4.956Zm7.786 5.124c0 .728.056 1.498.168 1.764V393h-1.162c-.056-.224-.126-.518-.154-.882h-.056c-.35.588-1.05 1.008-2.044 1.008-1.344 0-2.366-.672-2.366-2.072 0-1.316.994-2.226 2.688-2.226.63 0 1.218.182 1.722.49v-.77c0-1.204-.798-1.652-1.596-1.652-.742 0-1.372.378-1.596 1.106l-1.218-.168c.182-1.19 1.372-1.974 2.758-1.974 1.442 0 2.856.658 2.856 2.66v2.604Zm-3.122.98c.966 0 1.876-.574 1.918-1.834-.532-.308-1.162-.462-1.638-.462-.938 0-1.554.462-1.554 1.232s.56 1.064 1.274 1.064ZM152.689 386v1.008h-2.45V393h-1.246v-5.992h-2.45V386h6.146Zm5.251 2.184c1.89 0 2.716.952 2.716 2.408 0 1.428-.826 2.408-2.716 2.408h-3.052v-7h1.218v2.184h1.834Zm-.014 3.836c.91 0 1.484-.49 1.484-1.428 0-.924-.574-1.428-1.484-1.428h-1.82v2.856h1.82Zm18.932-.028h.49v2.8h-1.106V393h-4.718v1.792h-1.106v-2.8h.434c.574 0 1.064-.378 1.148-1.47l.364-4.522h4.494v5.992Zm-4.214 0h2.968v-4.998h-2.072l-.266 3.514c-.07.7-.294 1.162-.63 1.428v.056Zm12.28-5.992v7h-1.218v-6.006h-2.52v4.424c0 1.036-.686 1.722-1.75 1.722-.476 0-.798-.098-1.12-.238v-1.022c.28.154.588.224.896.224.504 0 .756-.392.756-.812V386h4.956Zm7.939 0v7h-1.204v-2.758h-1.82c-.784 0-1.218.448-1.26 1.036l-.042.616c-.042.448-.07.784-.196 1.106h-1.232v-.098c.14-.252.168-.658.196-1.078l.042-.644c.042-.574.238-1.05.784-1.232v-.056c-.728-.364-1.064-.896-1.064-1.806 0-1.26.896-2.086 2.576-2.086h3.22Zm-3.08 3.262h1.876v-2.282h-1.876c-.784 0-1.484.294-1.484 1.134 0 .854.7 1.148 1.484 1.148ZM209.345 386v1.008h-2.45V393h-1.246v-5.992h-2.45V386h6.146Zm5.014 7.14c-1.876 0-3.108-1.47-3.108-3.64s1.232-3.64 3.108-3.64c1.862 0 3.108 1.47 3.108 3.64s-1.246 3.64-3.108 3.64Zm0-1.05c1.19 0 1.89-1.19 1.89-2.59 0-1.414-.7-2.604-1.89-2.604s-1.89 1.19-1.89 2.604c0 1.4.7 2.59 1.89 2.59ZM224.86 386v1.008h-3.262V393h-1.232v-7h4.494Zm5.686 7.14c-1.876 0-3.108-1.47-3.108-3.64s1.232-3.64 3.108-3.64c1.862 0 3.108 1.47 3.108 3.64s-1.246 3.64-3.108 3.64Zm0-1.05c1.19 0 1.89-1.19 1.89-2.59 0-1.414-.7-2.604-1.89-2.604s-1.89 1.19-1.89 2.604c0 1.4.7 2.59 1.89 2.59Zm7.282-.7h1.624v1.89c0 1.148-.518 1.624-1.512 1.624h-.322v-.952h.21c.532 0 .84-.238.84-.952h-.84v-1.61Zm18.497-5.39h1.26v7h-1.26v-3.164h-.056c-.098.238-.7 1.05-1.904 1.05-1.372 0-2.506-.686-2.506-2.716v-2.156h1.218v1.946c0 1.372.574 1.89 1.414 1.89.966 0 1.834-.756 1.834-2.156V386Zm9.676 0v1.008h-2.45V393h-1.246v-5.992h-2.45V386h6.146Zm5.014 7.14c-1.876 0-3.108-1.47-3.108-3.64s1.232-3.64 3.108-3.64c1.862 0 3.108 1.47 3.108 3.64s-1.246 3.64-3.108 3.64Zm0-1.05c1.19 0 1.89-1.19 1.89-2.59 0-1.414-.7-2.604-1.89-2.604s-1.89 1.19-1.89 2.604c0 1.4.7 2.59 1.89 2.59Zm8.332-5.782c1.582 0 2.898 1.204 2.898 3.402 0 2.226-1.246 3.43-2.996 3.43-1.932 0-3.248-1.372-3.248-4.802 0-3.584 1.806-5.138 3.78-5.138h.882c.574 0 .952-.042 1.19-.168h.084v1.092c-.28.098-.742.154-1.344.154h-.77c-1.484 0-2.464 1.218-2.632 3.374h.056c.448-.952 1.162-1.344 2.1-1.344Zm-.126 5.768c1.064 0 1.792-.77 1.792-2.352 0-1.582-.728-2.366-1.792-2.366s-1.792.798-1.792 2.366.728 2.352 1.792 2.352Zm6.567-3.892c1.89 0 2.716.952 2.716 2.408 0 1.428-.826 2.408-2.716 2.408h-1.904v-7h1.218v2.184h.686Zm3.514-2.184h1.218v7h-1.218v-7Zm-3.528 6.02c.91 0 1.484-.49 1.484-1.428 0-.924-.574-1.428-1.484-1.428h-.672v2.856h.672Zm17.77.056c.798 0 1.358-.392 1.666-1.106l1.218.168c-.294 1.204-1.47 1.988-2.898 1.988-1.974 0-3.276-1.456-3.276-3.584 0-2.226 1.316-3.682 3.178-3.682 1.666 0 2.996 1.19 2.996 3.08 0 .196-.042.49-.084.672h-4.9c.042 1.638.98 2.464 2.1 2.464Zm-.084-5.194c-.98 0-1.68.686-1.918 1.75h3.682c-.084-1.078-.784-1.75-1.764-1.75Zm11.272 5.11h.434v2.8h-1.106V393h-5.81v-7h1.162v5.992h1.498V386h1.148v5.992h1.512V386h1.162v5.992Zm4.215-8.806v1.372h-1.456v-1.372h1.456Zm2.716 0v1.372h-1.456v-1.372h1.456Zm-1.932 8.89c.798 0 1.358-.392 1.666-1.106l1.218.168c-.294 1.204-1.47 1.988-2.898 1.988-1.974 0-3.276-1.456-3.276-3.584 0-2.226 1.316-3.682 3.178-3.682 1.666 0 2.996 1.19 2.996 3.08 0 .196-.042.49-.084.672h-4.9c.042 1.638.98 2.464 2.1 2.464Zm-.084-5.194c-.98 0-1.68.686-1.918 1.75h3.682c-.084-1.078-.784-1.75-1.764-1.75Zm19.058-.882v7h-1.218v-6.006h-2.52v4.424c0 1.036-.686 1.722-1.75 1.722-.476 0-.798-.098-1.12-.238v-1.022c.28.154.588.224.896.224.504 0 .756-.392.756-.812V386h4.956Zm7.016 0h1.246l-3.57 10.08h-1.232l1.147-3.206-2.715-6.874h1.33l1.96 5.264h.056l1.778-5.264Zm7.729 0h1.26v7h-1.26v-3.164h-.056c-.098.238-.7 1.05-1.904 1.05-1.372 0-2.506-.686-2.506-2.716v-2.156h1.218v1.946c0 1.372.574 1.89 1.414 1.89.966 0 1.834-.756 1.834-2.156V386Zm8.682 0h1.162v7h-6.482v-7h1.162v5.992h1.498V386h1.148v5.992h1.512V386Zm6.162 6.076c.798 0 1.358-.392 1.666-1.106l1.218.168c-.294 1.204-1.47 1.988-2.898 1.988-1.974 0-3.276-1.456-3.276-3.584 0-2.226 1.316-3.682 3.178-3.682 1.666 0 2.996 1.19 2.996 3.08 0 .196-.042.49-.084.672h-4.9c.042 1.638.98 2.464 2.1 2.464Zm-.084-5.194c-.98 0-1.68.686-1.918 1.75h3.682c-.084-1.078-.784-1.75-1.764-1.75ZM123.954 403v7h-1.246v-6.006h-2.842V410h-1.26v-7h5.348Zm5.42 7.14c-1.876 0-3.108-1.47-3.108-3.64s1.232-3.64 3.108-3.64c1.862 0 3.108 1.47 3.108 3.64s-1.246 3.64-3.108 3.64Zm0-1.05c1.19 0 1.89-1.19 1.89-2.59 0-1.414-.7-2.604-1.89-2.604s-1.89 1.19-1.89 2.604c0 1.4.7 2.59 1.89 2.59Zm9.62-6.09h1.246v7h-1.246v-3.01h-3.038V410h-1.26v-7h1.26v2.996h3.038V403Zm9.298 0v7h-1.176v-5.278h-.056L144.316 410h-1.498v-7h1.19v5.292h.056l2.73-5.292h1.498Zm8.611 0v7h-1.106v-5.012h-.056L154.313 410h-1.302l-1.428-4.984h-.056V410h-1.12v-7h1.61l1.61 5.586h.056l1.624-5.586h1.596Zm7.478 5.124c0 .728.056 1.498.168 1.764V410h-1.162c-.056-.224-.126-.518-.154-.882h-.056c-.35.588-1.05 1.008-2.044 1.008-1.344 0-2.366-.672-2.366-2.072 0-1.316.994-2.226 2.688-2.226.63 0 1.218.182 1.722.49v-.77c0-1.204-.798-1.652-1.596-1.652-.742 0-1.372.378-1.596 1.106l-1.218-.168c.182-1.19 1.372-1.974 2.758-1.974 1.442 0 2.856.658 2.856 2.66v2.604Zm-3.122.98c.966 0 1.876-.574 1.918-1.834-.532-.308-1.162-.462-1.638-.462-.938 0-1.554.462-1.554 1.232s.56 1.064 1.274 1.064ZM172.923 403v1.008h-2.45V410h-1.246v-5.992h-2.45V403h6.146Zm5.252 2.184c1.89 0 2.716.952 2.716 2.408 0 1.428-.826 2.408-2.716 2.408h-3.052v-7h1.218v2.184h1.834Zm-.014 3.836c.91 0 1.484-.49 1.484-1.428 0-.924-.574-1.428-1.484-1.428h-1.82v2.856h1.82Zm19.211-6.02v7h-1.106v-5.012h-.056L194.782 410h-1.302l-1.428-4.984h-.056V410h-1.12v-7h1.61l1.61 5.586h.056l1.624-5.586h1.596Zm5 6.076c.798 0 1.358-.392 1.666-1.106l1.218.168c-.294 1.204-1.47 1.988-2.898 1.988-1.974 0-3.276-1.456-3.276-3.584 0-2.226 1.316-3.682 3.178-3.682 1.666 0 2.996 1.19 2.996 3.08 0 .196-.042.49-.084.672h-4.9c.042 1.638.98 2.464 2.1 2.464Zm-.084-5.194c-.98 0-1.68.686-1.918 1.75h3.682c-.084-1.078-.784-1.75-1.764-1.75Zm9.732 1.428c-.182-.798-.742-1.4-1.61-1.4-1.302 0-2.002 1.176-2.002 2.604 0 1.526.756 2.562 2.03 2.562.868 0 1.414-.56 1.582-1.316l1.232.168c-.224 1.302-1.274 2.198-2.856 2.198-2.058 0-3.22-1.512-3.22-3.64 0-2.058 1.19-3.626 3.206-3.626 1.54 0 2.618.882 2.87 2.282l-1.232.168Zm9.465-2.31v1.008h-2.45V410h-1.246v-5.992h-2.45V403h6.146Zm6.54 0h1.246v7h-1.246v-3.01h-3.038V410h-1.26v-7h1.26v2.996h3.038V403Zm8.43 0h1.246l-3.57 10.08h-1.232l1.148-3.206-2.716-6.874h1.33l1.96 5.264h.056l1.778-5.264Zm7.436-.14c1.484 0 2.282 1.218 2.282 3.64s-.798 3.64-2.282 3.64c-1.386 0-2.156-1.05-2.254-3.15h-1.05V410h-1.26v-7h1.26v2.996h1.05c.098-2.086.882-3.136 2.254-3.136Zm0 6.23c.714 0 1.078-.868 1.078-2.59 0-1.736-.364-2.604-1.078-2.604-.714 0-1.078.854-1.078 2.604 0 1.736.364 2.59 1.078 2.59Zm14.983 1.05c-1.876 0-3.108-1.47-3.108-3.64s1.232-3.64 3.108-3.64c1.862 0 3.108 1.47 3.108 3.64s-1.246 3.64-3.108 3.64Zm0-1.05c1.19 0 1.89-1.19 1.89-2.59 0-1.414-.7-2.604-1.89-2.604s-1.89 1.19-1.89 2.604c0 1.4.7 2.59 1.89 2.59Zm8.332-5.782c1.582 0 2.898 1.204 2.898 3.402 0 2.226-1.246 3.43-2.996 3.43-1.932 0-3.248-1.372-3.248-4.802 0-3.584 1.806-5.138 3.78-5.138h.882c.574 0 .952-.042 1.19-.168h.084v1.092c-.28.098-.742.154-1.344.154h-.77c-1.484 0-2.464 1.218-2.632 3.374h.056c.448-.952 1.162-1.344 2.1-1.344Zm-.126 5.768c1.064 0 1.792-.77 1.792-2.352 0-1.582-.728-2.366-1.792-2.366s-1.792.798-1.792 2.366.728 2.352 1.792 2.352Zm9.69-3.766c-.182-.798-.742-1.4-1.61-1.4-1.302 0-2.002 1.176-2.002 2.604 0 1.526.756 2.562 2.03 2.562.868 0 1.414-.56 1.582-1.316l1.232.168c-.224 1.302-1.274 2.198-2.856 2.198-2.058 0-3.22-1.512-3.22-3.64 0-2.058 1.19-3.626 3.206-3.626 1.54 0 2.618.882 2.87 2.282l-1.232.168Zm9.465-2.31v1.008h-2.45V410h-1.246v-5.992h-2.45V403h6.146Zm7.646 5.124c0 .728.056 1.498.168 1.764V410h-1.162c-.056-.224-.126-.518-.154-.882h-.056c-.35.588-1.05 1.008-2.044 1.008-1.344 0-2.366-.672-2.366-2.072 0-1.316.994-2.226 2.688-2.226.63 0 1.218.182 1.722.49v-.77c0-1.204-.798-1.652-1.596-1.652-.742 0-1.372.378-1.596 1.106l-1.218-.168c.182-1.19 1.372-1.974 2.758-1.974 1.442 0 2.856.658 2.856 2.66v2.604Zm-3.122.98c.966 0 1.876-.574 1.918-1.834-.532-.308-1.162-.462-1.638-.462-.938 0-1.554.462-1.554 1.232s.56 1.064 1.274 1.064Zm10.11-6.104h1.246v7h-1.246v-3.01h-3.038V410h-1.26v-7h1.26v2.996h3.038V403Zm6.568 7.14c-1.876 0-3.108-1.47-3.108-3.64s1.232-3.64 3.108-3.64c1.862 0 3.108 1.47 3.108 3.64s-1.246 3.64-3.108 3.64Zm0-1.05c1.19 0 1.89-1.19 1.89-2.59 0-1.414-.7-2.604-1.89-2.604s-1.89 1.19-1.89 2.604c0 1.4.7 2.59 1.89 2.59Zm9.843-2.702c.84.266 1.246.994 1.246 1.736 0 1.036-.672 1.876-2.408 1.876h-3.36v-7h3.108c1.624 0 2.366.742 2.366 1.89 0 .686-.406 1.19-.952 1.442v.056Zm-1.54-2.422h-1.806v1.988h1.834c.742 0 1.26-.224 1.26-1.022 0-.784-.518-.966-1.288-.966Zm.21 5.068c.826 0 1.344-.238 1.344-1.022 0-.7-.462-1.092-1.372-1.092h-1.988v2.114h2.016Zm7.17-2.772 3.752 3.738h-1.652l-2.94-2.884h-.056V410h-1.232v-7h1.232v2.548h.056l2.744-2.548h1.666l-3.57 3.262ZM333.58 403h1.246l-3.57 10.08h-1.232l1.148-3.206-2.716-6.874h1.33l1.96 5.264h.056L333.58 403Z"/>
  <circle cx="227.5" cy="39.5" r="10.5" fill="#7583A5"/>
  <path fill="#E2D2BB" d="M229.744 39.03c.952.406 1.638 1.176 1.638 2.296 0 1.806-1.61 2.814-3.878 2.814-2.282 0-3.878-1.008-3.878-2.814 0-1.12.672-1.876 1.624-2.296v-.056c-.798-.35-1.344-1.008-1.344-2.086 0-1.82 1.652-2.828 3.598-2.828s3.598 1.008 3.598 2.828c0 1.064-.546 1.736-1.358 2.086v.056Zm-4.214-2.114c0 1.05.924 1.484 1.974 1.484 1.064 0 1.96-.434 1.96-1.484 0-.938-.896-1.512-1.96-1.512-1.05 0-1.974.588-1.974 1.512Zm1.974 5.88c1.4 0 2.226-.588 2.226-1.568 0-.84-.882-1.554-2.226-1.554-1.33 0-2.254.714-2.254 1.554 0 .966.854 1.568 2.254 1.568Z"/>
</svg>