<svg xmlns="http://www.w3.org/2000/svg" fill="none" viewBox="0 0 455 455">
  <path fill="#2B2129" d="M0 0h455v455H0z"/>
  <path fill="#E2D2BB" d="M87.5875 192.254v.726-.726ZM103.559 224h-4.8835v-8.844c-.044-1.584-.088-2.904-.132-3.96 0-1.1-.044-2.002-.132-2.706-.044-1.276-.352-2.53-.924-3.762-.616-1.32-1.54-2.53-2.772-3.63-.176-.132-.352-.286-.528-.462-.132-.176-.286-.33-.462-.462-1.452-1.32-2.618-2.53-3.498-3.63-.88-1.1-1.694-2.42-2.442-3.96-.132-.176-.198-.286-.198-.33v-.132.132c-.088-.088-.132.044-.132.396.044.308.088.418.132.33V224h-4.884v-46.2h4.884v2.904c.264 4.268.77 7.634 1.518 10.098.748 2.42 1.562 4.136 2.442 5.148.264.352.594.66.99.924 1.056-.572 1.914-1.232 2.574-1.98.66-.792 1.188-1.672 1.584-2.64.396-.968.682-2.002.858-3.102.22-1.144.396-2.376.528-3.696.132-1.672.264-3.08.396-4.224.176-1.144.484-2.288.924-3.432h6.9955c-1.276.748-2.2 1.672-2.772 2.772-.528 1.1-.99 2.574-1.386 4.422-.528 2.288-1.1 4.202-1.716 5.742-.5715 1.54-1.4075 2.992-2.5075 4.356-.616.66-1.254 1.232-1.914 1.716-.616.484-1.364.902-2.244 1.254.352.264.704.55 1.056.858.352.308.726.594 1.122.858 1.98 1.54 3.586 3.256 4.8175 5.148 1.232 1.892 1.98 3.784 2.244 5.676.308 1.672.462 4.312.462 7.92V224Zm21.799-46.332 4.884.132V224h-4.884v-20.79c-.352-.264-.77-.484-1.254-.66-.44-.176-.836-.264-1.188-.264-.836 0-1.518.264-2.046.792-.528.528-.792 1.232-.792 2.112 0 .484.286 1.496.858 3.036l-4.95-2.97c.748 2.86 1.122 5.434 1.122 7.722 0 3.476-.836 7.15-2.508 11.022H108c1.848-2.288 3.322-4.818 4.422-7.59 1.1-2.772 1.65-5.698 1.65-8.778 0-3.96-.946-7.986-2.838-12.078-1.54-3.3-2.31-6.182-2.31-8.646 0-3.036 1.012-5.324 3.036-6.864 2.068-1.584 5.17-2.376 9.306-2.376h4.092Zm-12.672 13.002c0 1.54.242 3.344.726 5.412.484 2.024 1.166 4.422 2.046 7.194.088.308.154.594.198.858l.264.792c.088-1.54.616-2.75 1.584-3.63 1.012-.924 2.222-1.386 3.63-1.386 1.54 0 2.948.462 4.224 1.386v-22.044c-2.156 0-4.158.33-6.006.99-1.848.616-3.344 1.716-4.488 3.3-1.452 1.98-2.178 4.356-2.178 7.128Zm28.011 1.584v.726-.726ZM156.669 224h-4.884v-8.844c-.044-1.584-.088-2.904-.132-3.96 0-1.1-.044-2.002-.132-2.706-.044-1.276-.352-2.53-.924-3.762-.616-1.32-1.54-2.53-2.772-3.63-.176-.132-.352-.286-.528-.462-.132-.176-.286-.33-.462-.462-1.452-1.32-2.618-2.53-3.498-3.63-.88-1.1-1.694-2.42-2.442-3.96-.132-.176-.198-.286-.198-.33v-.132.132c-.088-.088-.132.044-.132.396.044.308.088.418.132.33V224h-4.884v-46.2h4.884v2.904c.264 4.268.77 7.634 1.518 10.098.748 2.42 1.562 4.136 2.442 5.148.264.352.594.66.99.924 1.056-.572 1.914-1.232 2.574-1.98.66-.792 1.188-1.672 1.584-2.64.396-.968.682-2.002.858-3.102.22-1.144.396-2.376.528-3.696.132-1.672.264-3.08.396-4.224.176-1.144.484-2.288.924-3.432h6.996c-1.276.748-2.2 1.672-2.772 2.772-.528 1.1-.99 2.574-1.386 4.422-.528 2.288-1.1 4.202-1.716 5.742-.572 1.54-1.408 2.992-2.508 4.356-.616.66-1.254 1.232-1.914 1.716-.616.484-1.364.902-2.244 1.254.352.264.704.55 1.056.858.352.308.726.594 1.122.858 1.98 1.54 3.586 3.256 4.818 5.148 1.232 1.892 1.98 3.784 2.244 5.676.308 1.672.462 4.312.462 7.92V224Zm43.723-6.468c-2.728 4.356-5.918 6.534-9.57 6.534-2.552.088-4.84-.594-6.864-2.046-1.98-1.496-3.652-3.476-5.016-5.94-1.364-2.464-2.398-5.258-3.102-8.382-.66-3.168-.968-6.38-.924-9.636.132-2.2.418-4.51.858-6.93.44-2.464 1.166-4.708 2.178-6.732s2.354-3.696 4.026-5.016c1.716-1.32 3.894-1.98 6.534-1.98 2.948 0 5.566 1.078 7.854 3.234 2.332 2.112 4.18 4.95 5.544 8.514.792 2.068 1.342 4.334 1.65 6.798.308 2.464.374 4.972.198 7.524-.132 2.508-.506 4.972-1.122 7.392-.572 2.42-1.342 4.642-2.31 6.666h.066Zm-7.458 3.168c1.716.044 3.08-.418 4.092-1.386 1.056-.968 1.848-2.156 2.376-3.564.528-1.452.858-2.97.99-4.554.176-1.628.264-3.08.264-4.356 0-2.684-.33-5.346-.99-7.986-.616-2.64-1.452-5.28-2.508-7.92-1.188-2.86-2.618-5.302-4.29-7.326-1.628-2.024-3.432-3.212-5.412-3.564-1.496-.264-2.772-.176-3.828.264-1.012.44-1.87 1.1-2.574 1.98-.66.88-1.166 1.958-1.518 3.234-.352 1.232-.616 2.53-.792 3.894-.132 1.364-.198 2.728-.198 4.092.044 1.364.11 2.596.198 3.696.176 2.816.66 5.654 1.452 8.514.792 2.816 1.804 5.346 3.036 7.59 1.276 2.244 2.728 4.07 4.356 5.478 1.628 1.364 3.41 2.002 5.346 1.914Zm39.939-12.078v10.494c-.308.396-.748.88-1.32 1.452-.572.528-1.276 1.056-2.112 1.584-.792.528-1.738.99-2.838 1.386-1.056.396-2.266.594-3.63.594v-.066c-3.828-.132-6.974-1.672-9.438-4.62-1.232-1.496-2.288-3.234-3.168-5.214-.88-1.98-1.562-4.026-2.046-6.138-.572-2.464-.858-5.192-.858-8.184 0-2.816.33-5.632.99-8.448.66-2.816 1.672-5.302 3.036-7.458 1.408-2.156 3.168-3.806 5.28-4.95 2.156-1.188 4.708-1.54 7.656-1.056 1.848.308 3.498.902 4.95 1.782 1.496.836 2.42 1.826 2.772 2.97l.132 8.514-1.056.066c-.044-1.628-.506-3.278-1.386-4.95-.836-1.716-1.914-3.146-3.234-4.29-1.32-1.188-2.772-1.98-4.356-2.376-1.54-.396-3.058-.132-4.554.792-.924.572-1.694 1.408-2.31 2.508-.616 1.056-1.122 2.266-1.518 3.63-.352 1.364-.616 2.816-.792 4.356-.176 1.496-.264 2.97-.264 4.422 0 1.98.088 3.916.264 5.808.176 1.892.44 3.828.792 5.808v-.066c.836 4.136 2.112 7.81 3.828 11.022 1.452 2.816 3.366 4.312 5.742 4.488 1.584-.22 2.86-.726 3.828-1.518s1.738-1.804 2.31-3.036c.616-1.232 1.078-2.64 1.386-4.224.308-1.584.594-3.3.858-5.148l1.056.066Zm27.293 4.884c0 1.408-.264 2.75-.792 4.026-.484 1.276-1.188 2.398-2.112 3.366-.88.968-1.936 1.738-3.168 2.31-1.188.528-2.508.792-3.96.792-1.76 0-3.322-.418-4.686-1.254-1.364-.88-2.42-1.958-3.168-3.234v-2.376c1.012 1.54 2.068 2.684 3.168 3.432 1.144.748 2.244 1.122 3.3 1.122.396 0 1.078-.11 2.046-.33 1.408-.396 2.486-1.276 3.234-2.64.748-1.408 1.122-3.036 1.122-4.884 0-1.1-.088-1.936-.264-2.508-.616-2.684-1.584-5.016-2.904-6.996-1.276-2.024-3.014-4.092-5.214-6.204-.616-.572-1.166-1.078-1.65-1.518-.44-.44-.858-.88-1.254-1.32l-1.056-1.32c-.308-.44-.638-.968-.99-1.584V224h-4.884v-46.2h4.488c.616-.088 1.298-.11 2.046-.066.792.044 1.452.066 1.98.066 3.608 0 6.468.594 8.58 1.782 2.112 1.144 3.366 3.102 3.762 5.874v-.066c.044.132.066.308.066.528v.726c0 2.464-.88 4.84-2.64 7.128-.792 1.012-1.65 1.914-2.574 2.706-.88.748-1.826 1.43-2.838 2.046.22.22.528.462.924.726.44.264.968.594 1.584.99h-.066c1.848 1.232 3.432 2.772 4.752 4.62 1.364 1.716 2.288 3.564 2.772 5.544.264 1.012.396 2.046.396 3.102Zm-12.342-16.434c.088.088.198.176.33.264.176.088.33.176.462.264 1.1-.88 2.09-2.024 2.97-3.432 1.1-1.892 1.65-3.938 1.65-6.138 0-2.156-.572-4.048-1.716-5.676-1.1-1.628-2.64-2.618-4.62-2.97-.88-.132-1.738-.198-2.574-.198h-1.056c-.484-.044-.968-.044-1.452 0v.528c.044 2.464.154 4.576.33 6.336.176 1.716.462 3.234.858 4.554.44 1.276 1.034 2.42 1.782 3.432.792 1.012 1.804 2.024 3.036 3.036Zm41.32 20.46c-2.728 4.356-5.918 6.534-9.57 6.534-2.552.088-4.84-.594-6.864-2.046-1.98-1.496-3.652-3.476-5.016-5.94-1.364-2.464-2.398-5.258-3.102-8.382-.66-3.168-.968-6.38-.924-9.636.132-2.2.418-4.51.858-6.93.44-2.464 1.166-4.708 2.178-6.732s2.354-3.696 4.026-5.016c1.716-1.32 3.894-1.98 6.534-1.98 2.948 0 5.566 1.078 7.854 3.234 2.332 2.112 4.18 4.95 5.544 8.514.792 2.068 1.342 4.334 1.65 6.798.308 2.464.374 4.972.198 7.524-.132 2.508-.506 4.972-1.122 7.392-.572 2.42-1.342 4.642-2.31 6.666h.066Zm-7.458 3.168c1.716.044 3.08-.418 4.092-1.386 1.056-.968 1.848-2.156 2.376-3.564.528-1.452.858-2.97.99-4.554.176-1.628.264-3.08.264-4.356 0-2.684-.33-5.346-.99-7.986-.616-2.64-1.452-5.28-2.508-7.92-1.188-2.86-2.618-5.302-4.29-7.326-1.628-2.024-3.432-3.212-5.412-3.564-1.496-.264-2.772-.176-3.828.264-1.012.44-1.87 1.1-2.574 1.98-.66.88-1.166 1.958-1.518 3.234-.352 1.232-.616 2.53-.792 3.894-.132 1.364-.198 2.728-.198 4.092.044 1.364.11 2.596.198 3.696.176 2.816.66 5.654 1.452 8.514.792 2.816 1.804 5.346 3.036 7.59 1.276 2.244 2.728 4.07 4.356 5.478 1.628 1.364 3.41 2.002 5.346 1.914Zm31.623-42.9h4.884V224h-4.884v-37.092l-11.55 31.68V224h-4.884v-46.2h4.884v36.168l11.55-32.142V177.8Zm10.07 0h23.034l2.178 8.778h-1.518c-.528-1.408-1.056-2.552-1.584-3.432-.484-.88-1.078-1.584-1.782-2.112-.66-.528-1.496-.902-2.508-1.122-1.012-.264-2.266-.462-3.762-.594V224h-4.884v-44.748c-1.584.132-2.882.33-3.894.594-1.012.22-1.87.594-2.574 1.122-.704.484-1.298 1.188-1.782 2.112-.484.88-.99 2.046-1.518 3.498h-1.584l2.178-8.778Zm33.877-.132v13.398c1.012 1.672 2.134 3.212 3.366 4.62 1.232 1.364 2.53 2.838 3.894 4.422l1.782 2.046c.352.44.682.858.99 1.254l.924 1.056c.352.44.682.858.99 1.254.352.396.638.748.858 1.056.792 1.056 1.518 2.31 2.178 3.762.66 1.408.99 2.838.99 4.29 0 6.072-4.114 9.108-12.342 9.108-.528 0-1.188.022-1.98.066-.748 0-1.43-.044-2.046-.132h-4.488v-46.2h4.884Zm4.95 22.704c-.88-1.144-1.782-2.266-2.706-3.366-.924-1.144-1.672-2.112-2.244-2.904v28.314c1.32.088 2.684.022 4.092-.198 1.408-.22 2.552-.572 3.432-1.056 1.012-.572 1.782-1.386 2.31-2.442.572-1.056.946-2.398 1.122-4.026.044-.132.066-.462.066-.99 0-1.452-.33-3.036-.99-4.752-.616-1.716-1.518-3.432-2.706-5.148-.088-.088-.242-.308-.462-.66-.22-.352-.55-.836-.99-1.452l-.396-.66c-.132-.22-.308-.44-.528-.66ZM130.984 236.8V283H126.1v-34.65c-.616 1.144-1.298 2.31-2.046 3.498-.704 1.144-1.452 2.354-2.244 3.63-1.232 1.98-2.288 3.762-3.168 5.346-.88 1.54-1.584 2.97-2.112 4.29l.066-.066c-.22.792-.484 1.672-.792 2.64-.264.924-.506 1.76-.726 2.508h-1.32l-11.022-29.898.198 18.348c.088 2.508.198 4.708.33 6.6.132 1.892.264 3.454.396 4.686.44 2.772 1.034 5.324 1.782 7.656.792 2.288 1.562 4.092 2.31 5.412h-6.336v-46.002h.132l-.066-.198h5.676l8.976 25.542.99-1.98c.396-.748.858-1.562 1.386-2.442.88-1.584 1.694-3.168 2.442-4.752.792-1.584 1.474-3.014 2.046-4.29.528-1.408 1.056-3.124 1.584-5.148.528-2.068 1.034-4.378 1.518-6.93h4.884Zm9.162 44.748c1.936-.132 3.586-.308 4.95-.528 1.364-.264 2.53-.638 3.498-1.122 1.012-.528 1.87-1.232 2.574-2.112.704-.924 1.364-2.112 1.98-3.564h1.452L152.356 283h-17.16v-46.2h17.82l2.244 8.778h-1.452c-.616-1.496-1.232-2.684-1.848-3.564-.572-.924-1.32-1.628-2.244-2.112-.924-.484-2.112-.836-3.564-1.056-1.32-.176-3.322-.352-6.006-.528v17.688c.572-.484 1.21-.836 1.914-1.056.704-.264 1.386-.396 2.046-.396 1.408 0 2.618.484 3.63 1.452 1.056.924 1.672 2.266 1.848 4.026l-3.894 3.036c.132-1.672-.176-3.014-.924-4.026-.704-1.056-1.562-1.584-2.574-1.584-.792 0-1.474.264-2.046.792v23.298Zm43.775-13.926v10.494c-.308.396-.748.88-1.32 1.452-.572.528-1.276 1.056-2.112 1.584-.792.528-1.738.99-2.838 1.386-1.056.396-2.266.594-3.63.594v-.066c-3.828-.132-6.974-1.672-9.438-4.62-1.232-1.496-2.288-3.234-3.168-5.214-.88-1.98-1.562-4.026-2.046-6.138-.572-2.464-.858-5.192-.858-8.184 0-2.816.33-5.632.99-8.448.66-2.816 1.672-5.302 3.036-7.458 1.408-2.156 3.168-3.806 5.28-4.95 2.156-1.188 4.708-1.54 7.656-1.056 1.848.308 3.498.902 4.95 1.782 1.496.836 2.42 1.826 2.772 2.97l.132 8.514-1.056.066c-.044-1.628-.506-3.278-1.386-4.95-.836-1.716-1.914-3.146-3.234-4.29-1.32-1.188-2.772-1.98-4.356-2.376-1.54-.396-3.058-.132-4.554.792-.924.572-1.694 1.408-2.31 2.508-.616 1.056-1.122 2.266-1.518 3.63-.352 1.364-.616 2.816-.792 4.356-.176 1.496-.264 2.97-.264 4.422 0 1.98.088 3.916.264 5.808.176 1.892.44 3.828.792 5.808v-.066c.836 4.136 2.112 7.81 3.828 11.022 1.452 2.816 3.366 4.312 5.742 4.488 1.584-.22 2.86-.726 3.828-1.518s1.738-1.804 2.31-3.036c.616-1.232 1.078-2.64 1.386-4.224.308-1.584.594-3.3.858-5.148l1.056.066Zm4.654-30.822h23.034l2.178 8.778h-1.518c-.528-1.408-1.056-2.552-1.584-3.432-.484-.88-1.078-1.584-1.782-2.112-.66-.528-1.496-.902-2.508-1.122-1.012-.264-2.266-.462-3.762-.594V283h-4.884v-44.748c-1.584.132-2.882.33-3.894.594-1.012.22-1.87.594-2.574 1.122-.704.484-1.298 1.188-1.782 2.112-.484.88-.99 2.046-1.518 3.498h-1.584l2.178-8.778Zm44.636 0h4.884V283h-4.884v-21.846l-11.55-.066V283h-4.884v-46.2h4.884v22.704l11.55-.066V236.8Zm33.858 39.732c-2.728 4.356-5.918 6.534-9.57 6.534-2.552.088-4.84-.594-6.864-2.046-1.98-1.496-3.652-3.476-5.016-5.94-1.364-2.464-2.398-5.258-3.102-8.382-.66-3.168-.968-6.38-.924-9.636.132-2.2.418-4.51.858-6.93.44-2.464 1.166-4.708 2.178-6.732s2.354-3.696 4.026-5.016c1.716-1.32 3.894-1.98 6.534-1.98 2.948 0 5.566 1.078 7.854 3.234 2.332 2.112 4.18 4.95 5.544 8.514.792 2.068 1.342 4.334 1.65 6.798.308 2.464.374 4.972.198 7.524-.132 2.508-.506 4.972-1.122 7.392-.572 2.42-1.342 4.642-2.31 6.666h.066Zm-7.458 3.168c1.716.044 3.08-.418 4.092-1.386 1.056-.968 1.848-2.156 2.376-3.564.528-1.452.858-2.97.99-4.554.176-1.628.264-3.08.264-4.356 0-2.684-.33-5.346-.99-7.986-.616-2.64-1.452-5.28-2.508-7.92-1.188-2.86-2.618-5.302-4.29-7.326-1.628-2.024-3.432-3.212-5.412-3.564-1.496-.264-2.772-.176-3.828.264-1.012.44-1.87 1.1-2.574 1.98-.66.88-1.166 1.958-1.518 3.234-.352 1.232-.616 2.53-.792 3.894-.132 1.364-.198 2.728-.198 4.092.044 1.364.11 2.596.198 3.696.176 2.816.66 5.654 1.452 8.514.792 2.816 1.804 5.346 3.036 7.59 1.276 2.244 2.728 4.07 4.356 5.478 1.628 1.364 3.41 2.002 5.346 1.914Zm39.939-12.078v10.494c-.308.396-.748.88-1.32 1.452-.572.528-1.276 1.056-2.112 1.584-.792.528-1.738.99-2.838 1.386-1.056.396-2.266.594-3.63.594v-.066c-3.828-.132-6.974-1.672-9.438-4.62-1.232-1.496-2.288-3.234-3.168-5.214-.88-1.98-1.562-4.026-2.046-6.138-.572-2.464-.858-5.192-.858-8.184 0-2.816.33-5.632.99-8.448.66-2.816 1.672-5.302 3.036-7.458 1.408-2.156 3.168-3.806 5.28-4.95 2.156-1.188 4.708-1.54 7.656-1.056 1.848.308 3.498.902 4.95 1.782 1.496.836 2.42 1.826 2.772 2.97l.132 8.514-1.056.066c-.044-1.628-.506-3.278-1.386-4.95-.836-1.716-1.914-3.146-3.234-4.29-1.32-1.188-2.772-1.98-4.356-2.376-1.54-.396-3.058-.132-4.554.792-.924.572-1.694 1.408-2.31 2.508-.616 1.056-1.122 2.266-1.518 3.63-.352 1.364-.616 2.816-.792 4.356-.176 1.496-.264 2.97-.264 4.422 0 1.98.088 3.916.264 5.808.176 1.892.44 3.828.792 5.808v-.066c.836 4.136 2.112 7.81 3.828 11.022 1.452 2.816 3.366 4.312 5.742 4.488 1.584-.22 2.86-.726 3.828-1.518s1.738-1.804 2.31-3.036c.616-1.232 1.078-2.64 1.386-4.224.308-1.584.594-3.3.858-5.148l1.056.066Zm4.654-30.822h23.034l2.178 8.778h-1.518c-.528-1.408-1.056-2.552-1.584-3.432-.484-.88-1.078-1.584-1.782-2.112-.66-.528-1.496-.902-2.508-1.122-1.012-.264-2.266-.462-3.762-.594V283h-4.884v-44.748c-1.584.132-2.882.33-3.894.594-1.012.22-1.87.594-2.574 1.122-.704.484-1.298 1.188-1.782 2.112-.484.88-.99 2.046-1.518 3.498h-1.584l2.178-8.778Zm33.877-.132v13.398c1.012 1.672 2.134 3.212 3.366 4.62 1.232 1.364 2.53 2.838 3.894 4.422l1.782 2.046c.352.44.682.858.99 1.254l.924 1.056c.352.44.682.858.99 1.254.352.396.638.748.858 1.056.792 1.056 1.518 2.31 2.178 3.762.66 1.408.99 2.838.99 4.29 0 6.072-4.114 9.108-12.342 9.108-.528 0-1.188.022-1.98.066-.748 0-1.43-.044-2.046-.132h-4.488v-46.2h4.884Zm4.95 22.704c-.88-1.144-1.782-2.266-2.706-3.366-.924-1.144-1.672-2.112-2.244-2.904v28.314c1.32.088 2.684.022 4.092-.198 1.408-.22 2.552-.572 3.432-1.056 1.012-.572 1.782-1.386 2.31-2.442.572-1.056.946-2.398 1.122-4.026.044-.132.066-.462.066-.99 0-1.452-.33-3.036-.99-4.752-.616-1.716-1.518-3.432-2.706-5.148-.088-.088-.242-.308-.462-.66-.22-.352-.55-.836-.99-1.452l-.396-.66c-.132-.22-.308-.44-.528-.66ZM93.0137 383.2v9.8h-1.204v-7.854h-.056l-3.36 7.854h-1.624v-9.8h1.218v7.882h.056l3.346-7.882h1.624Zm7.9253 2.8v7h-1.2179v-6.006h-2.52v4.424c0 1.036-.686 1.722-1.75 1.722-.476 0-.798-.098-1.12-.238v-1.022c.28.154.588.224.896.224.504 0 .756-.392.756-.812V386h4.9559Zm5.392 2.184c1.89 0 2.716.952 2.716 2.408 0 1.428-.826 2.408-2.716 2.408h-3.052v-7h1.218v2.184h1.834Zm-.014 3.836c.91 0 1.484-.49 1.484-1.428 0-.924-.574-1.428-1.484-1.428h-1.82v2.856h1.82Zm10.656-6.02v7h-1.204v-2.758h-1.82c-.784 0-1.218.448-1.26 1.036l-.042.616c-.042.448-.07.784-.196 1.106h-1.232v-.098c.14-.252.168-.658.196-1.078l.042-.644c.042-.574.238-1.05.784-1.232v-.056c-.728-.364-1.064-.896-1.064-1.806 0-1.26.896-2.086 2.576-2.086h3.22Zm-3.08 3.262h1.876v-2.282h-1.876c-.784 0-1.484.294-1.484 1.134 0 .854.7 1.148 1.484 1.148Zm7.575 2.128h1.624v1.89c0 1.148-.518 1.624-1.512 1.624h-.322v-.952h.21c.532 0 .84-.238.84-.952h-.84v-1.61Zm20.108-8.19v9.8h-1.232v-8.708h-3.738V393h-1.246v-9.8h6.216Zm4.986 9.94c-1.876 0-3.108-1.47-3.108-3.64s1.232-3.64 3.108-3.64c1.862 0 3.108 1.47 3.108 3.64s-1.246 3.64-3.108 3.64Zm0-1.05c1.19 0 1.89-1.19 1.89-2.59 0-1.414-.7-2.604-1.89-2.604s-1.89 1.19-1.89 2.604c0 1.4.7 2.59 1.89 2.59Zm11.033-6.09v7h-1.218v-6.006h-2.52v4.424c0 1.036-.686 1.722-1.75 1.722-.476 0-.798-.098-1.12-.238v-1.022c.28.154.588.224.896.224.504 0 .756-.392.756-.812V386h4.956Zm7.884 0v7h-1.176v-5.278h-.056L161.503 393h-1.498v-7h1.19v5.292h.056l2.73-5.292h1.498Zm6.89 0h1.246v7h-1.246v-3.01h-3.038V393h-1.26v-7h1.26v2.996h3.038V386Zm9.2 5.124c0 .728.056 1.498.168 1.764V393h-1.162c-.056-.224-.126-.518-.154-.882h-.056c-.35.588-1.05 1.008-2.044 1.008-1.344 0-2.366-.672-2.366-2.072 0-1.316.994-2.226 2.688-2.226.63 0 1.218.182 1.722.49v-.77c0-1.204-.798-1.652-1.596-1.652-.742 0-1.372.378-1.596 1.106l-1.218-.168c.182-1.19 1.372-1.974 2.758-1.974 1.442 0 2.856.658 2.856 2.66v2.604Zm-3.122.98c.966 0 1.876-.574 1.918-1.834-.532-.308-1.162-.462-1.638-.462-.938 0-1.554.462-1.554 1.232s.56 1.064 1.274 1.064Zm7.771-.714h1.624v1.89c0 1.148-.518 1.624-1.512 1.624h-.322v-.952h.21c.532 0 .84-.238.84-.952h-.84v-1.61Zm20.052.518h.686v3.486h-1.12V393h-5.25v2.394h-1.106v-3.486h.196c.574 0 1.078-.364 1.176-1.498l.588-7.21h4.83v8.708Zm-4.76 0h3.542v-7.644h-2.45l-.504 6.118c-.056.672-.266 1.148-.588 1.47v.056Zm12.434-.784c0 .728.056 1.498.168 1.764V393h-1.162c-.056-.224-.126-.518-.154-.882h-.056c-.35.588-1.05 1.008-2.044 1.008-1.344 0-2.366-.672-2.366-2.072 0-1.316.994-2.226 2.688-2.226.63 0 1.218.182 1.722.49v-.77c0-1.204-.798-1.652-1.596-1.652-.742 0-1.372.378-1.596 1.106l-1.218-.168c.182-1.19 1.372-1.974 2.758-1.974 1.442 0 2.856.658 2.856 2.66v2.604Zm-3.122.98c.966 0 1.876-.574 1.918-1.834-.532-.308-1.162-.462-1.638-.462-.938 0-1.554.462-1.554 1.232s.56 1.064 1.274 1.064Zm8.891-6.244c1.61 0 2.842 1.302 2.842 3.626 0 2.338-1.232 3.64-2.87 3.64-.826 0-1.596-.434-1.932-.966h-.056v3.92h-1.218V386h1.218v.098l-.042.798h.056c.308-.532 1.12-1.036 2.002-1.036Zm-.21 6.23c1.008 0 1.834-.994 1.834-2.604 0-1.596-.826-2.59-1.834-2.59s-1.806.938-1.806 2.59c0 1.666.798 2.604 1.806 2.604Zm10.726-6.09v7h-1.176v-5.278h-.056L226.253 393h-1.498v-7h1.19v5.292h.056l2.73-5.292h1.498Zm8.15 0v7h-1.204v-2.758h-1.82c-.784 0-1.218.448-1.26 1.036l-.042.616c-.042.448-.07.784-.196 1.106h-1.232v-.098c.14-.252.168-.658.196-1.078l.042-.644c.042-.574.238-1.05.784-1.232v-.056c-.728-.364-1.064-.896-1.064-1.806 0-1.26.896-2.086 2.576-2.086h3.22Zm-3.08 3.262h1.876v-2.282h-1.876c-.784 0-1.484.294-1.484 1.134 0 .854.7 1.148 1.484 1.148ZM254.51 386v7h-1.176v-5.278h-.056L250.534 393h-1.498v-7h1.19v5.292h.056l2.73-5.292h1.498Zm16.58-2.8v9.8h-1.204v-7.854h-.056L266.47 393h-1.624v-9.8h1.218v7.882h.056l3.346-7.882h1.624Zm7.393 2.8v1.008h-3.262V393h-1.232v-7h4.494Zm5.686 7.14c-1.876 0-3.108-1.47-3.108-3.64s1.232-3.64 3.108-3.64c1.862 0 3.108 1.47 3.108 3.64s-1.246 3.64-3.108 3.64Zm0-1.05c1.19 0 1.89-1.19 1.89-2.59 0-1.414-.7-2.604-1.89-2.604s-1.89 1.19-1.89 2.604c0 1.4.7 2.59 1.89 2.59Zm8.402-6.23c1.61 0 2.842 1.302 2.842 3.626 0 2.338-1.232 3.64-2.87 3.64-.826 0-1.596-.434-1.932-.966h-.056v3.92h-1.218V386h1.218v.098l-.042.798h.056c.308-.532 1.12-1.036 2.002-1.036Zm-.21 6.23c1.008 0 1.834-.994 1.834-2.604 0-1.596-.826-2.59-1.834-2.59s-1.806.938-1.806 2.59c0 1.666.798 2.604 1.806 2.604Zm8.234-3.906c1.89 0 2.716.952 2.716 2.408 0 1.428-.826 2.408-2.716 2.408h-3.052v-7h1.218v2.184h1.834Zm-.014 3.836c.91 0 1.484-.49 1.484-1.428 0-.924-.574-1.428-1.484-1.428h-1.82v2.856h1.82Zm18.637-6.02v7h-1.246v-6.006h-2.842V393h-1.26v-7h5.348Zm5.728-.14c1.61 0 2.842 1.302 2.842 3.626 0 2.338-1.232 3.64-2.87 3.64-.826 0-1.596-.434-1.932-.966h-.056v3.92h-1.218V386h1.218v.098l-.042.798h.056c.308-.532 1.12-1.036 2.002-1.036Zm-.21 6.23c1.008 0 1.834-.994 1.834-2.604 0-1.596-.826-2.59-1.834-2.59s-1.806.938-1.806 2.59c0 1.666.798 2.604 1.806 2.604Zm7.996 1.05c-1.876 0-3.108-1.47-3.108-3.64s1.232-3.64 3.108-3.64c1.862 0 3.108 1.47 3.108 3.64s-1.246 3.64-3.108 3.64Zm0-1.05c1.19 0 1.89-1.19 1.89-2.59 0-1.414-.7-2.604-1.89-2.604s-1.89 1.19-1.89 2.604c0 1.4.7 2.59 1.89 2.59Zm19.267-6.09v1.008h-2.45V393h-1.246v-5.992h-2.45V386h6.146Zm5.014 7.14c-1.876 0-3.108-1.47-3.108-3.64s1.232-3.64 3.108-3.64c1.862 0 3.108 1.47 3.108 3.64s-1.246 3.64-3.108 3.64Zm0-1.05c1.19 0 1.89-1.19 1.89-2.59 0-1.414-.7-2.604-1.89-2.604s-1.89 1.19-1.89 2.604c0 1.4.7 2.59 1.89 2.59Zm7.282-.7h1.624v1.89c0 1.148-.518 1.624-1.512 1.624h-.322v-.952h.21c.532 0 .84-.238.84-.952h-.84v-1.61Zm-254.659 14.872 3.752 3.738h-1.652l-2.94-2.884h-.056V410h-1.232v-7h1.232v2.548h.056L111.54 403h1.666l-3.57 3.262Zm11.23 1.862c0 .728.056 1.498.168 1.764V410h-1.162c-.056-.224-.126-.518-.154-.882h-.056c-.35.588-1.05 1.008-2.044 1.008-1.344 0-2.366-.672-2.366-2.072 0-1.316.993-2.226 2.688-2.226.63 0 1.218.182 1.722.49v-.77c0-1.204-.798-1.652-1.596-1.652-.742 0-1.372.378-1.596 1.106l-1.218-.168c.182-1.19 1.372-1.974 2.758-1.974 1.442 0 2.856.658 2.856 2.66v2.604Zm-3.122.98c.966 0 1.876-.574 1.918-1.834-.532-.308-1.162-.462-1.638-.462-.938 0-1.554.462-1.554 1.232s.56 1.064 1.274 1.064Zm8.079-2.842 3.752 3.738h-1.652l-2.94-2.884h-.056V410h-1.232v-7h1.232v2.548h.056l2.744-2.548h1.666l-3.57 3.262Zm16.692 3.878c-1.876 0-3.108-1.47-3.108-3.64s1.232-3.64 3.108-3.64c1.862 0 3.108 1.47 3.108 3.64s-1.246 3.64-3.108 3.64Zm0-1.05c1.19 0 1.89-1.19 1.89-2.59 0-1.414-.7-2.604-1.89-2.604s-1.89 1.19-1.89 2.604c0 1.4.7 2.59 1.89 2.59Zm9.802-3.78c-.182-.798-.742-1.4-1.61-1.4-1.302 0-2.002 1.176-2.002 2.604 0 1.526.756 2.562 2.03 2.562.868 0 1.414-.56 1.582-1.316l1.232.168c-.224 1.302-1.274 2.198-2.856 2.198-2.058 0-3.22-1.512-3.22-3.64 0-2.058 1.19-3.626 3.205-3.626 1.541 0 2.619.882 2.871 2.282l-1.232.168Zm8.135 1.078c.84.266 1.246.994 1.246 1.736 0 1.036-.672 1.876-2.408 1.876h-3.36v-7h3.108c1.624 0 2.366.742 2.366 1.89 0 .686-.406 1.19-.952 1.442v.056Zm-1.54-2.422h-1.806v1.988h1.834c.742 0 1.26-.224 1.26-1.022 0-.784-.518-.966-1.288-.966Zm.21 5.068c.826 0 1.344-.238 1.344-1.022 0-.7-.462-1.092-1.372-1.092h-1.988v2.114h2.016Zm10.306-.91c0 .728.056 1.498.168 1.764V410h-1.162c-.056-.224-.126-.518-.154-.882h-.056c-.35.588-1.05 1.008-2.044 1.008-1.344 0-2.366-.672-2.366-2.072 0-1.316.994-2.226 2.688-2.226.63 0 1.218.182 1.722.49v-.77c0-1.204-.798-1.652-1.596-1.652-.742 0-1.372.378-1.596 1.106l-1.218-.168c.182-1.19 1.372-1.974 2.758-1.974 1.442 0 2.856.658 2.856 2.66v2.604Zm-3.122.98c.966 0 1.876-.574 1.918-1.834-.532-.308-1.162-.462-1.638-.462-.938 0-1.554.462-1.554 1.232s.56 1.064 1.274 1.064ZM177.62 403v7h-1.176v-5.278h-.056L173.644 410h-1.498v-7h1.19v5.292h.056l2.73-5.292h1.498Zm7.114 3.388c.84.266 1.246.994 1.246 1.736 0 1.036-.672 1.876-2.408 1.876h-3.36v-7h3.108c1.624 0 2.366.742 2.366 1.89 0 .686-.406 1.19-.952 1.442v.056Zm-1.54-2.422h-1.806v1.988h1.834c.742 0 1.26-.224 1.26-1.022 0-.784-.518-.966-1.288-.966Zm.21 5.068c.826 0 1.344-.238 1.344-1.022 0-.7-.462-1.092-1.372-1.092h-1.988v2.114h2.016Zm10.305-.91c0 .728.056 1.498.168 1.764V410h-1.162c-.056-.224-.126-.518-.154-.882h-.056c-.35.588-1.05 1.008-2.044 1.008-1.344 0-2.366-.672-2.366-2.072 0-1.316.994-2.226 2.688-2.226.63 0 1.218.182 1.722.49v-.77c0-1.204-.798-1.652-1.596-1.652-.742 0-1.372.378-1.596 1.106l-1.218-.168c.182-1.19 1.372-1.974 2.758-1.974 1.442 0 2.856.658 2.856 2.66v2.604Zm-3.122.98c.966 0 1.876-.574 1.918-1.834-.532-.308-1.162-.462-1.638-.462-.938 0-1.554.462-1.554 1.232s.56 1.064 1.274 1.064ZM202.251 403v1.008h-2.45V410h-1.246v-5.992h-2.45V403h6.146Zm5.252 2.184c1.89 0 2.716.952 2.716 2.408 0 1.428-.826 2.408-2.716 2.408h-3.052v-7h1.218v2.184h1.834Zm-.014 3.836c.91 0 1.484-.49 1.484-1.428 0-.924-.574-1.428-1.484-1.428h-1.82v2.856h1.82Zm9.578-3.71c-.182-.798-.742-1.4-1.61-1.4-1.302 0-2.002 1.176-2.002 2.604 0 1.526.756 2.562 2.03 2.562.868 0 1.414-.56 1.582-1.316l1.232.168c-.224 1.302-1.274 2.198-2.856 2.198-2.058 0-3.22-1.512-3.22-3.64 0-2.058 1.19-3.626 3.205-3.626 1.541 0 2.619.882 2.871 2.282l-1.232.168Zm9.171-2.31v7h-1.204v-2.758h-1.82c-.784 0-1.218.448-1.26 1.036l-.042.616c-.042.448-.07.784-.196 1.106h-1.232v-.098c.14-.252.168-.658.196-1.078l.042-.644c.042-.574.238-1.05.784-1.232v-.056c-.728-.364-1.064-.896-1.064-1.806 0-1.26.896-2.086 2.576-2.086h3.22Zm-3.08 3.262h1.876v-2.282h-1.876c-.784 0-1.484.294-1.484 1.134 0 .854.7 1.148 1.484 1.148Zm18.232.126c.84.266 1.246.994 1.246 1.736 0 1.036-.672 1.876-2.408 1.876h-3.36v-7h3.108c1.624 0 2.366.742 2.366 1.89 0 .686-.406 1.19-.952 1.442v.056Zm-1.54-2.422h-1.806v1.988h1.834c.742 0 1.26-.224 1.26-1.022 0-.784-.518-.966-1.288-.966Zm.21 5.068c.826 0 1.344-.238 1.344-1.022 0-.7-.462-1.092-1.372-1.092h-1.988v2.114h2.016ZM257.353 403h1.246v7h-1.246v-3.01h-3.038V410h-1.26v-7h1.26v2.996h3.038V403Zm6.568 7.14c-1.876 0-3.108-1.47-3.108-3.64s1.232-3.64 3.108-3.64c1.862 0 3.108 1.47 3.108 3.64s-1.246 3.64-3.108 3.64Zm0-1.05c1.19 0 1.89-1.19 1.89-2.59 0-1.414-.7-2.604-1.89-2.604s-1.89 1.19-1.89 2.604c0 1.4.7 2.59 1.89 2.59Zm9.844-2.702c.84.266 1.246.994 1.246 1.736 0 1.036-.672 1.876-2.408 1.876h-3.36v-7h3.108c1.624 0 2.366.742 2.366 1.89 0 .686-.406 1.19-.952 1.442v.056Zm-1.54-2.422h-1.806v1.988h1.834c.742 0 1.26-.224 1.26-1.022 0-.784-.518-.966-1.288-.966Zm.21 5.068c.826 0 1.344-.238 1.344-1.022 0-.7-.462-1.092-1.372-1.092h-1.988v2.114h2.016Zm7.674 1.106c-1.876 0-3.108-1.47-3.108-3.64s1.232-3.64 3.108-3.64c1.862 0 3.108 1.47 3.108 3.64s-1.246 3.64-3.108 3.64Zm0-1.05c1.19 0 1.89-1.19 1.89-2.59 0-1.414-.7-2.604-1.89-2.604s-1.89 1.19-1.89 2.604c0 1.4.7 2.59 1.89 2.59Zm9.885-8.932c0 1.05-.686 1.82-1.778 1.82-1.106 0-1.806-.77-1.806-1.82h.91c.028.588.308 1.008.896 1.008.574 0 .84-.42.868-1.008h.91Zm.938 2.842v7h-1.176v-5.278h-.056L286.956 410h-1.498v-7h1.19v5.292h.056l2.73-5.292h1.498Zm15.166 2.31c-.182-.798-.742-1.4-1.61-1.4-1.302 0-2.002 1.176-2.002 2.604 0 1.526.756 2.562 2.03 2.562.868 0 1.414-.56 1.582-1.316l1.232.168c-.224 1.302-1.274 2.198-2.856 2.198-2.058 0-3.22-1.512-3.22-3.64 0-2.058 1.19-3.626 3.206-3.626 1.54 0 2.618.882 2.87 2.282l-1.232.168Zm9.466-2.31v1.008h-2.45V410h-1.246v-5.992h-2.45V403h6.146Zm5.321-.14c1.61 0 2.842 1.302 2.842 3.626 0 2.338-1.232 3.64-2.87 3.64-.826 0-1.596-.434-1.932-.966h-.056v3.92h-1.218V403h1.218v.098l-.042.798h.056c.308-.532 1.12-1.036 2.002-1.036Zm-.21 6.23c1.008 0 1.834-.994 1.834-2.604 0-1.596-.826-2.59-1.834-2.59s-1.806.938-1.806 2.59c0 1.666.798 2.604 1.806 2.604Zm10.628-.966c0 .728.056 1.498.168 1.764V410h-1.162c-.056-.224-.126-.518-.154-.882h-.056c-.35.588-1.05 1.008-2.044 1.008-1.344 0-2.366-.672-2.366-2.072 0-1.316.994-2.226 2.688-2.226.63 0 1.218.182 1.722.49v-.77c0-1.204-.798-1.652-1.596-1.652-.742 0-1.372.378-1.596 1.106l-1.218-.168c.182-1.19 1.372-1.974 2.758-1.974 1.442 0 2.856.658 2.856 2.66v2.604Zm-3.122.98c.966 0 1.876-.574 1.918-1.834-.532-.308-1.162-.462-1.638-.462-.938 0-1.554.462-1.554 1.232s.56 1.064 1.274 1.064Zm10.11-6.104h1.246v7h-1.246v-3.01h-3.038V410h-1.26v-7h1.26v2.996h3.038V403Zm6.722 6.076c.798 0 1.358-.392 1.666-1.106l1.218.168c-.294 1.204-1.47 1.988-2.898 1.988-1.974 0-3.276-1.456-3.276-3.584 0-2.226 1.316-3.682 3.178-3.682 1.666 0 2.996 1.19 2.996 3.08 0 .196-.042.49-.085.672h-4.899c.042 1.638.98 2.464 2.1 2.464Zm-.085-5.194c-.979 0-1.679.686-1.917 1.75h3.682c-.084-1.078-.784-1.75-1.765-1.75Z"/>
  <circle cx="227.5" cy="39.5" r="10.5" fill="#E2D2BB"/>
  <path fill="#2B2129" d="M231.648 40.332v1.288h-1.778V44h-1.61v-2.38h-4.9v-.966l4.452-6.454h2.058v6.132h1.778Zm-6.3 0h2.912v-4.298h-.056l-2.856 4.242v.056Z"/>
</svg>