<svg xmlns="http://www.w3.org/2000/svg" fill="none" viewBox="0 0 455 455">
  <path fill="#7D6779" d="M0 0h455v455H0z"/>
  <path fill="#E2D2BB" d="M182.261 168.348v-3.78c0-.612-.18-.936-.54-.972-.36-.036-.594.306-.702 1.026-.036.252-.072.576-.108.972-.036.36-.09.738-.162 1.134-.036.36-.09.72-.162 1.08-.036.36-.072.648-.108.864-.792 3.276-2.232 5.778-4.32 7.506-2.052 1.692-4.662 2.61-7.83 2.754-1.98.072-3.834-.072-5.562-.432-1.692-.36-3.186-1.062-4.482-2.106-1.26-1.08-2.286-2.538-3.078-4.374-.792-1.872-1.278-4.248-1.458-7.128-.072-1.908-.054-3.744.054-5.508.108-1.764.198-3.636.27-5.616.036-1.26-.09-2.178-.378-2.754-.288-.612-.954-1.008-1.998-1.188-.396-.072-.702-.252-.918-.54-.18-.288-.288-.594-.324-.918 0-.324.072-.63.216-.918.18-.324.468-.54.864-.648 1.836-.612 4.086-.918 6.75-.918 2.34 0 4.338.216 5.994.648 1.656.396 2.988 1.08 3.996 2.052 1.044.972 1.782 2.25 2.214 3.834.432 1.584.594 3.528.486 5.832-.036.936-.072 2.034-.108 3.294 0 1.26-.018 2.304-.054 3.132-.036 1.188-.036 2.286 0 3.294.036.972.126 1.818.27 2.538.18.684.45 1.242.81 1.674.36.396.846.594 1.458.594 1.152 0 2.07-.522 2.754-1.566.72-1.08 1.278-2.52 1.674-4.32.252-1.152.45-2.484.594-3.996.18-1.512.306-3.096.378-4.752.072-1.692.108-3.402.108-5.13.036-1.728.054-3.384.054-4.968 0-.72.36-1.08 1.08-1.08h14.148c.72 0 1.08.36 1.08 1.08v42.876c0 .72-.36 1.08-1.08 1.08h-15.39c-.72 0-1.08-.36-1.08-1.08 0-1.296.216-2.682.648-4.158.468-1.476.972-3.114 1.512-4.914.576-1.8 1.098-3.798 1.566-5.994.504-2.232.792-4.734.864-7.506Zm32.96 17.496c.072 1.26.414 2.16 1.026 2.7.612.504 1.422.756 2.43.756 1.26 0 2.232-.324 2.916-.972.684-.648 1.26-1.458 1.728-2.43.468-1.008.9-2.088 1.296-3.24.396-1.152.918-2.214 1.566-3.186.648-1.008 1.512-1.836 2.592-2.484 1.08-.648 2.52-.972 4.32-.972.648 0 .972.36.972 1.08v13.824c0 .72-.324 1.08-.972 1.08h-33.534c-.72 0-1.08-.36-1.08-1.08v-42.876c0-.72.36-1.08 1.08-1.08h32.94c1.044 0 1.566.54 1.566 1.62 0 2.052-.45 3.798-1.35 5.238-.864 1.404-1.962 2.61-3.294 3.618-1.296 1.008-2.718 1.854-4.266 2.538-1.548.684-2.988 1.314-4.32 1.89-1.296.54-2.394 1.08-3.294 1.62-.864.54-1.296 1.152-1.296 1.836 0 .432.162.792.486 1.08.324.288.756.432 1.296.432s1.17-.144 1.89-.432l2.16-.972c.72-.36 1.404-.684 2.052-.972.684-.324 1.242-.486 1.674-.486.72 0 1.08.45 1.08 1.35v9.72c0 .252-.144.522-.432.81-.252.252-.612.486-1.08.702-.432.216-.936.396-1.512.54-.576.108-1.152.162-1.728.162-2.016 0-3.78-.612-5.292-1.836-1.512-1.26-2.556-2.916-3.132-4.968.288 2.52.558 5.094.81 7.722.288 2.628.522 5.184.702 7.668Zm-1.944-19.278c.108-1.764.522-3.222 1.242-4.374.756-1.152 1.566-2.196 2.43-3.132.864-.936 1.638-1.872 2.322-2.808.684-.972 1.026-2.124 1.026-3.456 0-2.088-1.224-3.132-3.672-3.132-1.548 0-2.628.45-3.24 1.35-.576.864-.864 2.466-.864 4.806 0 1.368.072 2.97.216 4.806.144 1.836.324 3.816.54 5.94Zm71.753-19.602c1.836 0 3.438.306 4.806.918 1.368.576 2.538 1.368 3.51 2.376 1.008.972 1.836 2.124 2.484 3.456.648 1.296 1.188 2.682 1.62 4.158.432 1.476.756 2.988.972 4.536.252 1.548.432 3.024.54 4.428.108 1.296.18 2.592.216 3.888.072 1.296.144 2.664.216 4.104.072 1.44.162 3.006.27 4.698.108 1.692.27 3.582.486 5.67.108 1.26.342 2.196.702 2.808.396.576 1.116.954 2.16 1.134.432.072.756.252.972.54.252.252.396.558.432.918.036.324-.018.648-.162.972-.144.288-.378.486-.702.594-.936.324-1.944.558-3.024.702-1.044.144-2.25.216-3.618.216-2.376 0-4.428-.198-6.156-.594-1.692-.396-3.114-.99-4.266-1.782-1.116-.828-1.98-1.836-2.592-3.024-.576-1.188-.936-2.574-1.08-4.158-.144-1.584-.108-3.51.108-5.778.252-2.268.522-4.626.81-7.074.324-2.484.612-4.932.864-7.344.288-2.448.396-4.644.324-6.588-.036-1.944-.306-3.51-.81-4.698-.468-1.224-1.296-1.836-2.484-1.836h-1.944c-1.116 0-1.926.54-2.43 1.62-.468 1.044-.756 2.448-.864 4.212-.072 1.728 0 3.708.216 5.94.216 2.196.468 4.464.756 6.804.288 2.304.558 4.572.81 6.804s.378 4.212.378 5.94v9.396c0 .72-.36 1.08-1.08 1.08h-14.85c-.72 0-1.08-.36-1.08-1.08v-9.396c0-1.728.126-3.708.378-5.94s.522-4.5.81-6.804c.288-2.34.54-4.608.756-6.804.216-2.232.27-4.212.162-5.94-.072-1.764-.36-3.168-.864-4.212-.468-1.08-1.26-1.62-2.376-1.62h-1.944c-1.188 0-2.034.612-2.538 1.836-.468 1.188-.738 2.754-.81 4.698-.036 1.944.072 4.14.324 6.588.288 2.412.576 4.86.864 7.344.324 2.448.594 4.806.81 7.074.252 2.268.306 4.194.162 5.778-.252 3.168-1.494 5.562-3.726 7.182-2.196 1.584-5.652 2.376-10.368 2.376-1.368 0-2.592-.072-3.672-.216-1.044-.144-2.034-.378-2.97-.702-.324-.108-.558-.306-.702-.594-.144-.324-.198-.648-.162-.972.036-.36.162-.666.378-.918.252-.288.594-.468 1.026-.54 1.044-.18 1.746-.558 2.106-1.134.396-.612.648-1.548.756-2.808.216-2.088.378-3.978.486-5.67.108-1.692.198-3.258.27-4.698.072-1.44.126-2.808.162-4.104.072-1.296.162-2.592.27-3.888.144-1.404.324-2.88.54-4.428.216-1.548.54-3.06.972-4.536.432-1.476.972-2.862 1.62-4.158.648-1.332 1.476-2.484 2.484-3.456 1.008-1.008 2.178-1.8 3.51-2.376 1.368-.612 2.97-.918 4.806-.918h5.346c1.332 0 2.538.234 3.618.702 1.08.468 1.998 1.134 2.754 1.998.792.864 1.404 1.908 1.836 3.132.432 1.188.648 2.52.648 3.996v11.556c0 .54.27.81.81.81s.81-.27.81-.81v-11.556c0-1.476.216-2.808.648-3.996.432-1.224 1.026-2.268 1.782-3.132.792-.864 1.728-1.53 2.808-1.998 1.08-.468 2.286-.702 3.618-.702h5.292Zm-162.022 91.152c-.036-1.764-.27-3.222-.702-4.374-.396-1.152-.918-2.088-1.566-2.808-.648-.72-1.368-1.26-2.16-1.62-.756-.36-1.512-.648-2.268-.864-.54-.18-1.152-.288-1.836-.324-.648-.072-1.332-.108-2.052-.108s-1.08-.36-1.08-1.08v-.756c0-.684.36-1.062 1.08-1.134 1.656-.108 3.096-.558 4.32-1.35 1.26-.792 2.286-1.8 3.078-3.024.828-1.26 1.404-2.664 1.728-4.212.36-1.548.468-3.132.324-4.752 0-1.764-.324-3.222-.972-4.374-.648-1.152-1.44-1.728-2.376-1.728-.9 0-1.674.27-2.322.81-.648.54-1.206 1.26-1.674 2.16-.468.864-.864 1.854-1.188 2.97-.288 1.116-.522 2.232-.702 3.348-.144 1.116-.252 2.196-.324 3.24-.036 1.044-.036 1.926 0 2.646 0 .468-.378.702-1.134.702H96.2237c-.756 0-1.134-.234-1.134-.702v-18.684c0-.756.378-1.134 1.134-1.134h15.2823c.756 0 1.134.378 1.134 1.134 0 .756-.234 1.386-.702 1.89-.468.468-.99 1.116-1.566 1.944-.576.828-1.098 2.016-1.566 3.564-.468 1.548-.702 3.762-.702 6.642 0 .36.288.54.864.54.576 0 .864-.198.864-.594 0-5.472 1.278-9.54 3.834-12.204 2.592-2.664 6.102-3.996 10.53-3.996 1.872 0 3.618.306 5.238.918 1.656.576 3.096 1.386 4.32 2.43 1.224 1.044 2.178 2.268 2.862 3.672.72 1.368 1.08 2.862 1.08 4.482 0 1.872-.36 3.546-1.08 5.022-.684 1.476-1.602 2.808-2.754 3.996-1.116 1.188-2.43 2.25-3.942 3.186-1.476.936-2.988 1.8-4.536 2.592 1.728.504 3.42 1.044 5.076 1.62 1.656.54 3.132 1.224 4.428 2.052 1.332.828 2.394 1.872 3.186 3.132.792 1.224 1.188 2.754 1.188 4.59 0 1.656-.378 3.042-1.134 4.158-.72 1.116-1.692 2.034-2.916 2.754-1.224.684-2.61 1.206-4.158 1.566-1.548.36-3.132.612-4.752.756-1.584.144-3.132.216-4.644.216-1.512.036-2.844.054-3.996.054-4.608 0-8.478-.198-11.61-.594-3.132-.396-5.67-.972-7.6143-1.728-1.908-.756-3.276-1.674-4.104-2.754-.828-1.08-1.242-2.304-1.242-3.672 0-1.44.396-2.7 1.188-3.78.792-1.116 1.872-2.034 3.24-2.754 1.368-.72 2.9343-1.26 4.6983-1.62 1.8-.36 3.708-.54 5.724-.54.54 0 1.098.018 1.674.054.612.036 1.224.09 1.836.162.72.108 1.08.486 1.08 1.134 0 .36-.09.684-.27.972-.18.252-.468.414-.864.486-.612.108-1.134.576-1.566 1.404-.396.792-.594 1.89-.594 3.294 0 1.008.126 1.944.378 2.808.252.864.666 1.62 1.242 2.268.576.648 1.332 1.17 2.268 1.566.936.36 2.088.54 3.456.54.972 0 1.854-.162 2.646-.486.792-.36 1.476-.828 2.052-1.404.576-.576 1.008-1.224 1.296-1.944.288-.756.432-1.548.432-2.376Zm57.079-37.152c.756 0 1.134.378 1.134 1.134v42.768c0 .756-.378 1.134-1.134 1.134h-14.742c-.756 0-1.134-.378-1.134-1.134.036-2.196.054-4.5.054-6.912.036-2.448.036-4.878 0-7.29 0-2.412-.018-4.752-.054-7.02-.036-2.304-.108-4.428-.216-6.372-.108-1.98-.252-3.708-.432-5.184-.144-1.512-.342-2.682-.594-3.51-.36-1.152-.882-1.728-1.566-1.728-.648 0-1.296.54-1.944 1.62-.54.9-1.116 2.178-1.728 3.834-.612 1.62-1.17 3.402-1.674 5.346-.468 1.908-.864 3.87-1.188 5.886-.324 2.016-.486 3.834-.486 5.454 0 1.368.126 2.358.378 2.97.252.576.666.864 1.242.864.504 0 .99-.216 1.458-.648.468-.432.846-1.026 1.134-1.782.288-.756.864-1.134 1.728-1.134.828 0 1.296.36 1.404 1.08.144.828.252 1.656.324 2.484.072.792.108 1.566.108 2.322 0 1.836-.234 3.492-.702 4.968-.468 1.44-1.152 2.682-2.052 3.726-.864 1.044-1.908 1.836-3.132 2.376-1.224.576-2.592.864-4.104.864-3.06 0-5.436-1.098-7.128-3.294-1.656-2.196-2.484-5.292-2.484-9.288 0-2.484.234-4.968.702-7.452.504-2.484 1.188-4.86 2.052-7.128.864-2.304 1.872-4.446 3.024-6.426 1.188-2.016 2.448-3.744 3.78-5.184 1.368-1.476 2.772-2.628 4.212-3.456 1.476-.864 2.934-1.296 4.374-1.296 1.224 0 2.196.324 2.916.972.756.648 1.35 1.638 1.782 2.97.432 1.332.738 3.024.918 5.076.18 2.052.324 4.5.432 7.344 0 .612.288.918.864.918.576 0 .864-.288.864-.864 0-3.42-.198-6.21-.594-8.37-.36-2.16-.774-3.888-1.242-5.184-.468-1.332-.9-2.322-1.296-2.97-.36-.684-.54-1.206-.54-1.566 0-.288.108-.504.324-.648.216-.18.468-.27.756-.27h14.202Zm28.261 21.654c.72-.18 1.08-.612 1.08-1.296v-19.278c0-.72.36-1.08 1.08-1.08h14.85c.72 0 1.08.36 1.08 1.08v42.876c0 .72-.36 1.08-1.08 1.08h-15.39c-.72 0-1.08-.36-1.08-1.08 0-1.188.18-2.358.54-3.51.396-1.188.828-2.376 1.296-3.564.468-1.188.882-2.376 1.242-3.564.396-1.224.594-2.448.594-3.672 0-1.512-.342-2.592-1.026-3.24-.648-.684-1.656-1.026-3.024-1.026-5.04 0-7.56 4.392-7.56 13.176v5.4c0 .72-.36 1.08-1.08 1.08h-14.31c-.72 0-1.08-.36-1.08-1.08v-42.876c0-.72.36-1.08 1.08-1.08h14.85c.72 0 1.08.36 1.08 1.08v7.182c0 2.736-.252 5.238-.756 7.506-.468 2.232-1.008 4.428-1.62 6.588-.576 2.16-1.116 4.356-1.62 6.588-.504 2.196-.792 4.644-.864 7.344 0 .576.288.864.864.864.468 0 .738-.306.81-.918.144-2.232.414-4.176.81-5.832.432-1.656 1.044-3.06 1.836-4.212.792-1.188 1.782-2.142 2.97-2.862 1.224-.756 2.7-1.314 4.428-1.674ZM242.472 219c.396 0 .792.018 1.188.054.432.036.648-.036.648-.216 0-.144-.27-.342-.81-.594-1.404-.684-2.772-1.278-4.104-1.782-1.296-.54-2.466-1.134-3.51-1.782-1.044-.684-1.89-1.494-2.538-2.43-.612-.972-.918-2.232-.918-3.78 0-2.052.54-3.6 1.62-4.644s2.412-1.782 3.996-2.214c1.62-.432 3.312-.648 5.076-.648h27.594c.72 0 1.08.36 1.08 1.08v42.876c0 .72-.36 1.08-1.08 1.08h-14.85c-.72 0-1.08-.36-1.08-1.08v-5.886c0-1.44-.072-2.826-.216-4.158-.144-1.368-.36-2.646-.648-3.834-.252-1.188-.576-2.25-.972-3.186-.36-.972-.756-1.782-1.188-2.43-.648-.9-1.314-1.35-1.998-1.35-1.116 0-1.674.936-1.674 2.808 0 .648.036 1.386.108 2.214.108.828.216 1.692.324 2.592.108.9.198 1.818.27 2.754.108.9.162 1.764.162 2.592 0 3.564-1.044 6.138-3.132 7.722-2.052 1.548-5.346 2.322-9.882 2.322-2.664 0-4.896-.306-6.696-.918-.36-.108-.63-.306-.81-.594-.18-.324-.27-.648-.27-.972.036-.36.144-.666.324-.918.216-.288.522-.468.918-.54.504-.072.918-.216 1.242-.432.36-.216.612-.558.756-1.026.18-.504.27-1.152.27-1.944.036-.828 0-1.89-.108-3.186-.216-2.484-.27-4.734-.162-6.75.108-2.052.396-3.708.864-4.968.684-1.8 1.926-3.222 3.726-4.266s3.96-1.566 6.48-1.566Zm11.232-15.336c-1.404 0-2.574.144-3.51.432-.9.252-1.602.63-2.106 1.134-.504.468-.864 1.062-1.08 1.782-.18.72-.27 1.53-.27 2.43 0 1.584.27 2.97.81 4.158.576 1.152 1.26 2.304 2.052 3.456.828 1.116 1.71 2.304 2.646 3.564.936 1.26 1.782 2.772 2.538 4.536.864 1.98 1.476 4.194 1.836 6.642.36 2.412.612 4.932.756 7.56 0 .612.288.918.864.918.576 0 .864-.288.864-.864 0-2.952-.234-5.526-.702-7.722-.432-2.232-.918-4.212-1.458-5.94-.54-1.764-1.044-3.348-1.512-4.752-.432-1.44-.648-2.826-.648-4.158v-12.204c0-.648-.36-.972-1.08-.972ZM303.594 246h-15.93c-.72 0-1.08-.36-1.08-1.08.072-2.844.27-5.904.594-9.18.324-3.312.648-6.588.972-9.828.36-3.24.684-6.318.972-9.234.288-2.952.432-5.49.432-7.614 0-2.052-.162-3.456-.486-4.212-.288-.792-.774-1.188-1.458-1.188-.72 0-1.224.324-1.512.972-.288.648-.54 1.476-.756 2.484-.18.972-.414 2.034-.702 3.186-.252 1.152-.72 2.232-1.404 3.24-.684.972-1.656 1.782-2.916 2.43-1.26.648-2.952.972-5.076.972-.756 0-1.134-.36-1.134-1.08v-13.824c0-.72.378-1.08 1.134-1.08h40.77c.756 0 1.134.36 1.134 1.08v13.824c0 .72-.378 1.08-1.134 1.08-2.16 0-3.87-.324-5.13-.972-1.224-.648-2.178-1.458-2.862-2.43-.684-1.008-1.17-2.088-1.458-3.24-.252-1.152-.486-2.214-.702-3.186-.18-1.008-.414-1.836-.702-2.484-.288-.648-.792-.972-1.512-.972-.684 0-1.188.396-1.512 1.188-.288.756-.432 2.16-.432 4.212 0 2.124.144 4.662.432 7.614.288 2.916.594 5.994.918 9.234.36 3.24.702 6.516 1.026 9.828.324 3.276.522 6.336.594 9.18 0 .72-.36 1.08-1.08 1.08Zm33.002-38.07c0 1.512.054 2.916.162 4.212.144 1.26.324 2.268.54 3.024.36 1.224.936 2.178 1.728 2.862.792.684 1.674 1.224 2.646 1.62 1.008.36 2.052.612 3.132.756 1.08.144 2.07.27 2.97.378 2.628.324 4.86.828 6.696 1.512 1.872.684 3.402 1.566 4.59 2.646 1.188 1.044 2.052 2.304 2.592 3.78s.81 3.15.81 5.022c0 2.052-.324 3.834-.972 5.346-.648 1.512-1.674 2.79-3.078 3.834-1.404 1.008-3.222 1.764-5.454 2.268-2.232.504-4.932.756-8.1.756h-5.508c-1.44 0-3.024.018-4.752.054h-13.932c-.72 0-1.08-.36-1.08-1.08v-42.876c0-.72.36-1.08 1.08-1.08h14.85c.72 0 1.08.36 1.08 1.08v5.886Zm1.08 35.37c3.276-.072 5.616-.81 7.02-2.214s2.106-3.708 2.106-6.912c0-1.872-.18-3.402-.54-4.59-.36-1.224-.846-2.232-1.458-3.024-.576-.792-1.26-1.458-2.052-1.998-.756-.54-1.53-1.08-2.322-1.62s-1.584-1.152-2.376-1.836c-.756-.72-1.44-1.638-2.052-2.754-.612-1.116-1.116-2.502-1.512-4.158-.396-1.692-.612-3.798-.648-6.318 0-.612-.27-.918-.81-.918s-.81.288-.81.864c0 1.368.036 2.592.108 3.672.072 1.08.198 2.124.378 3.132.18.972.414 1.962.702 2.97.324 1.008.738 2.106 1.242 3.294.396.936.72 1.782.972 2.538.252.756.45 1.494.594 2.214.144.684.234 1.422.27 2.214.072.756.108 1.638.108 2.646v11.718c0 .72.36 1.08 1.08 1.08ZM164.54 258.744c-1.404 0-2.7.288-3.888.864-1.188.576-2.214 1.404-3.078 2.484-.828 1.044-1.476 2.304-1.944 3.78-.468 1.44-.702 3.042-.702 4.806 0 2.268.396 4.356 1.188 6.264.792 1.872 1.908 3.474 3.348 4.806 1.476 1.332 3.222 2.376 5.238 3.132 2.016.72 4.266 1.08 6.75 1.08 2.232 0 4.122-.306 5.67-.918 1.548-.612 2.7-1.494 3.456-2.646.396-.612.918-.828 1.566-.648l.378.108c.684.18 1.026.63 1.026 1.35-.18 5.76-1.872 10.188-5.076 13.284-3.168 3.06-7.614 4.59-13.338 4.59-3.456 0-6.588-.558-9.396-1.674-2.772-1.116-5.166-2.7-7.182-4.752-1.98-2.088-3.51-4.59-4.59-7.506-1.08-2.916-1.62-6.156-1.62-9.72 0-3.132.396-6.066 1.188-8.802.828-2.736 1.944-5.112 3.348-7.128 1.44-2.016 3.114-3.6 5.022-4.752 1.908-1.188 3.96-1.782 6.156-1.782h17.982c2.16 0 3.852.558 5.076 1.674 1.224 1.116 1.836 2.43 1.836 3.942 0 1.188-.36 2.412-1.08 3.672-.684 1.26-1.566 2.43-2.646 3.51-1.08 1.044-2.268 1.908-3.564 2.592-1.296.684-2.52 1.026-3.672 1.026-.36 0-.648-.126-.864-.378-.216-.288-.324-.594-.324-.918 0-.324.072-.594.216-.81.144-.216.288-.45.432-.702.18-.288.324-.63.432-1.026.144-.432.216-.99.216-1.674 0-1.044-.198-1.998-.594-2.862-.36-.864-.882-1.602-1.566-2.214-.648-.648-1.44-1.152-2.376-1.512-.9-.36-1.908-.54-3.024-.54Zm38.473 35.1c.072 1.26.414 2.16 1.026 2.7.612.504 1.422.756 2.43.756 1.26 0 2.232-.324 2.916-.972.684-.648 1.26-1.458 1.728-2.43.468-1.008.9-2.088 1.296-3.24.396-1.152.918-2.214 1.566-3.186.648-1.008 1.512-1.836 2.592-2.484 1.08-.648 2.52-.972 4.32-.972.648 0 .972.36.972 1.08v13.824c0 .72-.324 1.08-.972 1.08h-33.534c-.72 0-1.08-.36-1.08-1.08v-42.876c0-.72.36-1.08 1.08-1.08h32.94c1.044 0 1.566.54 1.566 1.62 0 2.052-.45 3.798-1.35 5.238-.864 1.404-1.962 2.61-3.294 3.618-1.296 1.008-2.718 1.854-4.266 2.538-1.548.684-2.988 1.314-4.32 1.89-1.296.54-2.394 1.08-3.294 1.62-.864.54-1.296 1.152-1.296 1.836 0 .432.162.792.486 1.08.324.288.756.432 1.296.432s1.17-.144 1.89-.432l2.16-.972c.72-.36 1.404-.684 2.052-.972.684-.324 1.242-.486 1.674-.486.72 0 1.08.45 1.08 1.35v9.72c0 .252-.144.522-.432.81-.252.252-.612.486-1.08.702-.432.216-.936.396-1.512.54-.576.108-1.152.162-1.728.162-2.016 0-3.78-.612-5.292-1.836-1.512-1.26-2.556-2.916-3.132-4.968.288 2.52.558 5.094.81 7.722.288 2.628.522 5.184.702 7.668Zm-1.944-19.278c.108-1.764.522-3.222 1.242-4.374.756-1.152 1.566-2.196 2.43-3.132.864-.936 1.638-1.872 2.322-2.808.684-.972 1.026-2.124 1.026-3.456 0-2.088-1.224-3.132-3.672-3.132-1.548 0-2.628.45-3.24 1.35-.576.864-.864 2.466-.864 4.806 0 1.368.072 2.97.216 4.806.144 1.836.324 3.816.54 5.94Zm38.435-5.4c-.216-.54-.54-.756-.972-.648-.432.108-.612.486-.54 1.134.108.648.288 1.332.54 2.052.288.72.594 1.404.918 2.052.36.648.594 1.026.702 1.134.396.936.72 1.782.972 2.538.252.72.45 1.44.594 2.16.144.72.234 1.476.27 2.268.072.756.108 1.638.108 2.646v11.718c0 .72.36 1.08 1.08 1.08 3.276-.072 5.616-.81 7.02-2.214s2.106-3.708 2.106-6.912c0-2.952-.432-5.274-1.296-6.966-.864-1.728-1.908-3.024-3.132-3.888-1.008-.72-1.908-1.332-2.7-1.836-.792-.504-1.512-1.026-2.16-1.566-.648-.576-1.26-1.224-1.836-1.944-.576-.72-1.134-1.656-1.674-2.808Zm-.108-6.102c.288 2.34 1.008 4.248 2.16 5.724 1.152 1.476 2.43 2.646 3.834 3.51 1.44.828 2.88 1.422 4.32 1.782 1.476.36 2.664.594 3.564.702 5.256.648 9.018 2.034 11.286 4.158 2.268 2.088 3.402 5.022 3.402 8.802 0 2.052-.324 3.834-.972 5.346-.648 1.512-1.674 2.79-3.078 3.834-1.404 1.008-3.222 1.764-5.454 2.268-2.232.504-4.932.756-8.1.756h-5.508c-1.44 0-3.024.018-4.752.054h-13.932c-.72 0-1.08-.36-1.08-1.08v-42.876c0-.72.36-1.08 1.08-1.08h37.908c.756 0 1.134.36 1.134 1.08v13.824c0 .72-.378 1.08-1.134 1.08-1.692 0-3.096-.18-4.212-.54-1.116-.396-2.034-.9-2.754-1.512-.72-.612-1.278-1.296-1.674-2.052-.396-.792-.702-1.584-.918-2.376-.216-.792-.396-1.566-.54-2.322-.108-.792-.27-1.476-.486-2.052-.18-.612-.684-1.152-1.512-1.62-.828-.468-1.8-.81-2.916-1.026-1.116-.252-2.286-.342-3.51-.27-1.188.036-2.286.27-3.294.702-.972.396-1.746 1.026-2.322 1.89-.54.828-.72 1.926-.54 3.294Zm44.05 9.936c.396 0 .792.018 1.188.054.432.036.648-.036.648-.216 0-.144-.27-.342-.81-.594-1.404-.684-2.772-1.278-4.104-1.782-1.296-.54-2.466-1.134-3.51-1.782-1.044-.684-1.89-1.494-2.538-2.43-.612-.972-.918-2.232-.918-3.78 0-2.052.54-3.6 1.62-4.644s2.412-1.782 3.996-2.214c1.62-.432 3.312-.648 5.076-.648h27.594c.72 0 1.08.36 1.08 1.08v42.876c0 .72-.36 1.08-1.08 1.08h-14.85c-.72 0-1.08-.36-1.08-1.08v-5.886c0-1.44-.072-2.826-.216-4.158-.144-1.368-.36-2.646-.648-3.834-.252-1.188-.576-2.25-.972-3.186-.36-.972-.756-1.782-1.188-2.43-.648-.9-1.314-1.35-1.998-1.35-1.116 0-1.674.936-1.674 2.808 0 .648.036 1.386.108 2.214.108.828.216 1.692.324 2.592.108.9.198 1.818.27 2.754.108.9.162 1.764.162 2.592 0 3.564-1.044 6.138-3.132 7.722-2.052 1.548-5.346 2.322-9.882 2.322-2.664 0-4.896-.306-6.696-.918-.36-.108-.63-.306-.81-.594-.18-.324-.27-.648-.27-.972.036-.36.144-.666.324-.918.216-.288.522-.468.918-.54.504-.072.918-.216 1.242-.432.36-.216.612-.558.756-1.026.18-.504.27-1.152.27-1.944.036-.828 0-1.89-.108-3.186-.216-2.484-.27-4.734-.162-6.75.108-2.052.396-3.708.864-4.968.684-1.8 1.926-3.222 3.726-4.266s3.96-1.566 6.48-1.566Zm11.232-15.336c-1.404 0-2.574.144-3.51.432-.9.252-1.602.63-2.106 1.134-.504.468-.864 1.062-1.08 1.782-.18.72-.27 1.53-.27 2.43 0 1.584.27 2.97.81 4.158.576 1.152 1.26 2.304 2.052 3.456.828 1.116 1.71 2.304 2.646 3.564.936 1.26 1.782 2.772 2.538 4.536.864 1.98 1.476 4.194 1.836 6.642.36 2.412.612 4.932.756 7.56 0 .612.288.918.864.918.576 0 .864-.288.864-.864 0-2.952-.234-5.526-.702-7.722-.432-2.232-.918-4.212-1.458-5.94-.54-1.764-1.044-3.348-1.512-4.752-.432-1.44-.648-2.826-.648-4.158v-12.204c0-.648-.36-.972-1.08-.972ZM141.829 387.764l3.976 5.236h-1.596l-3.36-4.452h-.056V393h-1.204v-9.8h1.204v3.92h.056l3.01-3.92h1.596l-3.626 4.564Zm11.412 3.36c0 .728.056 1.498.168 1.764V393h-1.162c-.056-.224-.126-.518-.154-.882h-.056c-.35.588-1.05 1.008-2.044 1.008-1.344 0-2.366-.672-2.366-2.072 0-1.316.993-2.226 2.688-2.226.63 0 1.218.182 1.722.49v-.77c0-1.204-.798-1.652-1.596-1.652-.742 0-1.372.378-1.596 1.106l-1.218-.168c.182-1.19 1.372-1.974 2.758-1.974 1.442 0 2.856.658 2.856 2.66v2.604Zm-3.122.98c.966 0 1.876-.574 1.918-1.834-.532-.308-1.162-.462-1.638-.462-.938 0-1.554.462-1.554 1.232s.56 1.064 1.274 1.064Zm8.079-2.842L161.95 393h-1.652l-2.94-2.884h-.056V393h-1.232v-7h1.232v2.548h.056l2.744-2.548h1.666l-3.57 3.262ZM177.564 386v7h-1.246v-6.006h-2.842V393h-1.26v-7h5.348Zm5.574 6.076c.798 0 1.358-.392 1.666-1.106l1.218.168c-.294 1.204-1.47 1.988-2.898 1.988-1.974 0-3.276-1.456-3.276-3.584 0-2.226 1.316-3.682 3.178-3.682 1.666 0 2.996 1.19 2.996 3.08 0 .196-.042.49-.084.672h-4.9c.042 1.638.98 2.464 2.1 2.464Zm-.085-5.194c-.979 0-1.679.686-1.917 1.75h3.682c-.084-1.078-.784-1.75-1.765-1.75Zm8.332-1.022c1.61 0 2.842 1.302 2.842 3.626 0 2.338-1.232 3.64-2.87 3.64-.826 0-1.596-.434-1.932-.966h-.056v3.92h-1.218V386h1.218v.098l-.042.798h.056c.308-.532 1.12-1.036 2.002-1.036Zm-.21 6.23c1.008 0 1.834-.994 1.834-2.604 0-1.596-.826-2.59-1.834-2.59s-1.806.938-1.806 2.59c0 1.666.798 2.604 1.806 2.604Zm8.15-.014c.798 0 1.358-.392 1.666-1.106l1.218.168c-.294 1.204-1.47 1.988-2.898 1.988-1.974 0-3.276-1.456-3.276-3.584 0-2.226 1.316-3.682 3.178-3.682 1.666 0 2.996 1.19 2.996 3.08 0 .196-.042.49-.084.672h-4.9c.042 1.638.98 2.464 2.1 2.464Zm-.084-5.194c-.98 0-1.68.686-1.918 1.75h3.682c-.084-1.078-.784-1.75-1.764-1.75Zm7.52 2.38 3.752 3.738h-1.652l-2.94-2.884h-.056V393h-1.232v-7h1.232v2.548h.056l2.744-2.548h1.666l-3.57 3.262ZM218.299 386v7h-1.218v-6.006h-2.52v4.424c0 1.036-.686 1.722-1.75 1.722-.476 0-.798-.098-1.12-.238v-1.022c.28.154.588.224.896.224.504 0 .756-.392.756-.812V386h4.956Zm6.357-.14c1.484 0 2.282 1.218 2.282 3.64s-.798 3.64-2.282 3.64c-1.386 0-2.156-1.05-2.254-3.15h-1.05V393h-1.26v-7h1.26v2.996h1.05c.098-2.086.882-3.136 2.254-3.136Zm0 6.23c.714 0 1.078-.868 1.078-2.59 0-1.736-.364-2.604-1.078-2.604-.714 0-1.078.854-1.078 2.604 0 1.736.364 2.59 1.078 2.59Zm8.388-6.09h1.26v7h-1.26v-3.164h-.056c-.098.238-.7 1.05-1.904 1.05-1.372 0-2.506-.686-2.506-2.716v-2.156h1.218v1.946c0 1.372.574 1.89 1.414 1.89.966 0 1.834-.756 1.834-2.156V386Zm9.326 0v7h-1.176v-5.278h-.056L238.394 393h-1.498v-7h1.19v5.292h.056l2.73-5.292h1.498Zm8.444 0v1.008h-2.45V393h-1.246v-5.992h-2.45V386h6.146Zm5.251 2.184c1.89 0 2.716.952 2.716 2.408 0 1.428-.826 2.408-2.716 2.408h-3.052v-7h1.218v2.184h1.834Zm-.014 3.836c.91 0 1.484-.49 1.484-1.428 0-.924-.574-1.428-1.484-1.428h-1.82v2.856h1.82Zm17.672-3.71c-.182-.798-.742-1.4-1.61-1.4-1.302 0-2.002 1.176-2.002 2.604 0 1.526.756 2.562 2.03 2.562.868 0 1.414-.56 1.582-1.316l1.232.168c-.224 1.302-1.274 2.198-2.856 2.198-2.058 0-3.22-1.512-3.22-3.64 0-2.058 1.19-3.626 3.206-3.626 1.54 0 2.618.882 2.87 2.282l-1.232.168Zm6.54 3.766c.798 0 1.358-.392 1.666-1.106l1.218.168c-.294 1.204-1.47 1.988-2.898 1.988-1.974 0-3.276-1.456-3.276-3.584 0-2.226 1.316-3.682 3.178-3.682 1.666 0 2.996 1.19 2.996 3.08 0 .196-.042.49-.085.672h-4.899c.042 1.638.98 2.464 2.1 2.464Zm-.085-5.194c-.979 0-1.679.686-1.917 1.75h3.682c-.084-1.078-.784-1.75-1.765-1.75Zm8.262-.574c1.582 0 2.898 1.204 2.898 3.402 0 2.226-1.246 3.43-2.996 3.43-1.932 0-3.248-1.372-3.248-4.802 0-3.584 1.806-5.138 3.78-5.138h.882c.574 0 .952-.042 1.19-.168h.084v1.092c-.28.098-.742.154-1.344.154h-.77c-1.484 0-2.464 1.218-2.632 3.374h.056c.448-.952 1.162-1.344 2.1-1.344Zm-.126 5.768c1.064 0 1.792-.77 1.792-2.352 0-1.582-.728-2.366-1.792-2.366s-1.792.798-1.792 2.366.728 2.352 1.792 2.352ZM299.082 386v7h-1.204v-2.758h-1.82c-.784 0-1.218.448-1.26 1.036l-.042.616c-.042.448-.07.784-.196 1.106h-1.232v-.098c.14-.252.168-.658.196-1.078l.042-.644c.042-.574.238-1.05.784-1.232v-.056c-.728-.364-1.064-.896-1.064-1.806 0-1.26.896-2.086 2.576-2.086h3.22Zm-3.08 3.262h1.876v-2.282h-1.876c-.784 0-1.484.294-1.484 1.134 0 .854.7 1.148 1.484 1.148Zm18.232.126c.84.266 1.246.994 1.246 1.736 0 1.036-.672 1.876-2.408 1.876h-3.36v-7h3.108c1.624 0 2.366.742 2.366 1.89 0 .686-.406 1.19-.952 1.442v.056Zm-1.54-2.422h-1.806v1.988h1.834c.742 0 1.26-.224 1.26-1.022 0-.784-.518-.966-1.288-.966Zm.21 5.068c.826 0 1.344-.238 1.344-1.022 0-.7-.462-1.092-1.372-1.092h-1.988v2.114h2.016Zm-191.128 14.228 3.752 3.738h-1.652l-2.94-2.884h-.056V410h-1.232v-7h1.232v2.548h.056L123.68 403h1.666l-3.57 3.262Zm8.598 3.878c-1.876 0-3.108-1.47-3.108-3.64s1.232-3.64 3.108-3.64c1.862 0 3.108 1.47 3.108 3.64s-1.246 3.64-3.108 3.64Zm0-1.05c1.19 0 1.89-1.19 1.89-2.59 0-1.414-.7-2.604-1.89-2.604s-1.89 1.19-1.89 2.604c0 1.4.7 2.59 1.89 2.59Zm9.62-6.09h1.246v7h-1.246v-3.01h-3.038V410h-1.26v-7h1.26v2.996h3.038V403Zm8.276 2.31c-.182-.798-.742-1.4-1.61-1.4-1.302 0-2.002 1.176-2.002 2.604 0 1.526.756 2.562 2.03 2.562.868 0 1.414-.56 1.582-1.316l1.232.168c-.224 1.302-1.274 2.198-2.856 2.198-2.058 0-3.22-1.512-3.22-3.64 0-2.058 1.19-3.626 3.206-3.626 1.54 0 2.618.882 2.87 2.282l-1.232.168Zm9.465-2.31v1.008h-2.45V410h-1.246v-5.992h-2.45V403h6.146Zm5.322-.14c1.61 0 2.842 1.302 2.842 3.626 0 2.338-1.232 3.64-2.87 3.64-.826 0-1.596-.434-1.932-.966h-.056v3.92h-1.218V403h1.218v.098l-.042.798h.056c.308-.532 1.12-1.036 2.002-1.036Zm-.21 6.23c1.008 0 1.834-.994 1.834-2.604 0-1.596-.826-2.59-1.834-2.59s-1.806.938-1.806 2.59c0 1.666.798 2.604 1.806 2.604Zm9.858-6.09h1.246l-3.57 10.08h-1.232l1.148-3.206-2.716-6.874h1.33l1.96 5.264h.056l1.778-5.264Zm5.728 3.262 3.752 3.738h-1.652l-2.94-2.884h-.056V410h-1.232v-7h1.232v2.548h.056l2.744-2.548h1.666l-3.57 3.262ZM190.11 403v1.008h-2.45V410h-1.246v-5.992h-2.45V403h6.146Zm7.744 0v7h-1.176v-5.278h-.056L193.878 410h-1.498v-7h1.19v5.292h.056l2.73-5.292h1.498Zm7.114 3.388c.84.266 1.246.994 1.246 1.736 0 1.036-.672 1.876-2.408 1.876h-3.36v-7h3.108c1.624 0 2.366.742 2.366 1.89 0 .686-.406 1.19-.952 1.442v.056Zm-1.54-2.422h-1.806v1.988h1.834c.742 0 1.26-.224 1.26-1.022 0-.784-.518-.966-1.288-.966Zm.21 5.068c.826 0 1.344-.238 1.344-1.022 0-.7-.462-1.092-1.372-1.092h-1.988v2.114h2.016Zm9.2-6.034h1.246v7h-1.246v-3.01H209.8V410h-1.26v-7h1.26v2.996h3.038V403Zm8.429 0h1.246l-3.57 10.08h-1.232l1.148-3.206-2.716-6.874h1.33l1.96 5.264h.056l1.778-5.264Zm7.436-.14c1.484 0 2.282 1.218 2.282 3.64s-.798 3.64-2.282 3.64c-1.386 0-2.156-1.05-2.254-3.15h-1.05V410h-1.26v-7h1.26v2.996h1.05c.098-2.086.882-3.136 2.254-3.136Zm0 6.23c.714 0 1.078-.868 1.078-2.59 0-1.736-.364-2.604-1.078-2.604-.714 0-1.078.854-1.078 2.604 0 1.736.364 2.59 1.078 2.59Zm17.952-.098h.49v2.8h-1.106V410h-4.718v1.792h-1.106v-2.8h.434c.574 0 1.064-.378 1.148-1.47l.364-4.522h4.494v5.992Zm-4.214 0h2.968v-4.998h-2.072l-.266 3.514c-.07.7-.294 1.162-.63 1.428v.056Zm9.493.084c.798 0 1.358-.392 1.666-1.106l1.218.168c-.294 1.204-1.47 1.988-2.898 1.988-1.974 0-3.276-1.456-3.276-3.584 0-2.226 1.316-3.682 3.178-3.682 1.666 0 2.996 1.19 2.996 3.08 0 .196-.042.49-.084.672h-4.9c.042 1.638.98 2.464 2.1 2.464Zm-.084-5.194c-.98 0-1.68.686-1.918 1.75h3.682c-.084-1.078-.784-1.75-1.764-1.75Zm10.81-.882v7h-1.204v-2.758h-1.82c-.784 0-1.218.448-1.26 1.036l-.042.616c-.042.448-.07.784-.196 1.106h-1.232v-.098c.14-.252.168-.658.196-1.078l.042-.644c.042-.574.238-1.05.784-1.232v-.056c-.728-.364-1.064-.896-1.064-1.806 0-1.26.896-2.086 2.576-2.086h3.22Zm-3.08 3.262h1.876v-2.282h-1.876c-.784 0-1.484.294-1.484 1.134 0 .854.7 1.148 1.484 1.148ZM271.048 403v1.008h-2.45V410h-1.246v-5.992h-2.45V403h6.146Zm5.168 6.076c.798 0 1.358-.392 1.666-1.106l1.218.168c-.294 1.204-1.47 1.988-2.898 1.988-1.974 0-3.276-1.456-3.276-3.584 0-2.226 1.316-3.682 3.178-3.682 1.666 0 2.996 1.19 2.996 3.08 0 .196-.042.49-.084.672h-4.9c.042 1.638.98 2.464 2.1 2.464Zm-.084-5.194c-.98 0-1.68.686-1.918 1.75h3.682c-.084-1.078-.784-1.75-1.764-1.75Zm10.963-.882v7h-1.218v-6.006h-2.52v4.424c0 1.036-.686 1.722-1.75 1.722-.476 0-.798-.098-1.12-.238v-1.022c.28.154.588.224.896.224.504 0 .756-.392.756-.812V403h4.956Zm5.392 2.184c1.89 0 2.716.952 2.716 2.408 0 1.428-.826 2.408-2.716 2.408h-3.052v-7h1.218v2.184h1.834Zm-.014 3.836c.91 0 1.484-.49 1.484-1.428 0-.924-.574-1.428-1.484-1.428h-1.82v2.856h1.82Zm9.396-6.02h1.246v7h-1.246v-3.01h-3.038V410h-1.26v-7h1.26v2.996h3.038V403Zm6.568 7.14c-1.876 0-3.108-1.47-3.108-3.64s1.232-3.64 3.108-3.64c1.862 0 3.108 1.47 3.108 3.64s-1.246 3.64-3.108 3.64Zm0-1.05c1.19 0 1.89-1.19 1.89-2.59 0-1.414-.7-2.604-1.89-2.604s-1.89 1.19-1.89 2.604c0 1.4.7 2.59 1.89 2.59Zm9.801-3.78c-.182-.798-.742-1.4-1.61-1.4-1.302 0-2.002 1.176-2.002 2.604 0 1.526.756 2.562 2.03 2.562.868 0 1.414-.56 1.582-1.316l1.232.168c-.224 1.302-1.274 2.198-2.856 2.198-2.058 0-3.22-1.512-3.22-3.64 0-2.058 1.19-3.626 3.206-3.626 1.54 0 2.618.882 2.87 2.282l-1.232.168Zm9.466-2.31v1.008h-2.45V410h-1.246v-5.992h-2.45V403h6.146Zm5.252 2.184c1.89 0 2.716.952 2.716 2.408 0 1.428-.826 2.408-2.716 2.408h-3.052v-7h1.218v2.184h1.834Zm-.014 3.836c.91 0 1.484-.49 1.484-1.428 0-.924-.574-1.428-1.484-1.428h-1.82v2.856h1.82Z"/>
  <circle cx="227.5" cy="39.5" r="10.5" fill="#E2D2BB"/>
  <path fill="#7D6779" d="M223.99 34.2h6.944v1.19L226.902 44h-1.764l3.948-8.344V35.6h-5.096v-1.4Z"/>
</svg>