<svg xmlns="http://www.w3.org/2000/svg" fill="none" viewBox="0 0 309 559">
  <path stroke="#E2D2BB" stroke-linecap="round" stroke-width="3" d="M110.408 8.68935c-11.3671 0-22.7572-.23451-34.1205 0-6.4378.13286-11.7596 3.91185-17.5257 6.11545-5.0126 1.9157-10.785 1.4705-15.5784 4.2809-7.1223 4.1757-13.8856 8.862-18.2876 16.1623-6.5015 10.7818-8.9585 20.6742-11.5992 32.9362-1.8603 8.6384-4.43919 17.1467-6.34985 25.7723-1.33478 6.0258-.93132 13.3165-.93132 19.4825v31.669c0 26.096.71976 51.893-2.66695 77.754-1.05369 8.046-1.14298 16.684-1.14298 24.811 0 10.442-.48942 21.026.04233 31.451.5905 11.578 2.97863 23.04 3.72527 34.596.23438 3.628 1.51099 7.194 1.5663 10.79.10588 6.883 0 13.778 0 20.661 0 24.848 2.12129 51.423 10.8371 74.74 2.8281 7.566 7.846 14.163 11.8532 21.055 4.8737 8.382 10.2288 16.216 15.409 24.375 5.2037 8.195 12.1918 14.942 12.1918 25.335 0 4.932.8949 10.921-.1693 15.726-1.3072 5.901-2.8473 11.768-4.2333 17.647-2.0982 8.901-3.2173 17.638-3.2173 26.777 0 1.533-.3694 7.684.381 6.29 5.0707-9.418 8.2771-21.43 11.0065-31.756 2.5152-9.517 5.5445-19.15 7.6199-28.787.2064-.959 2.0779-7.399 2.7939-6.989 7.7761 4.458 14.6891 10.152 23.1136 13.629 7.7855 3.213 15.5865 5.44 23.6215 7.513 3.609.931 7.604.33 11.303.393 5.133.088 10.224.786 15.409.786 11.505 0 22.41-.639 33.697-3.145 9.69-2.151 19.64-3.395 28.955-7.076 9.527-3.765 19.146-7.161 28.363-11.794 8.053-4.049 16.885-6.719 21.42-15.376 3.505-6.69 9.995-11.965 13.885-18.609 4.809-8.214 9.509-16.76 12.7-25.772 3.083-8.705 6.529-16.815 8.805-25.947 3.041-12.204 5.229-24.488 7.62-36.824 3.333-17.194 3.81-34.496 3.81-52.113 0-17.677 1.524-35.135 1.524-52.724 0-12.963.762-26.078.762-39.183 0-18.581-4.572-36.666-4.572-55.301 0-15.631-.762-31.383-.762-47.089 0-17.077 1.13-33.9209-3.979-50.3216-3.947-12.6689-8.382-23.5361-18.711-32.0626-8.558-7.0641-17.689-9.1698-28.194-11.4447-10.934-2.3681-22.607-4.661-33.739-5.8097-4.159-.4291-8.157.0825-12.318-.8299-6.275-1.3758-12.204-3.5879-18.415-5.1545-9.759-2.4616-19.73-5.0413-29.421-7.81906-5.895-1.68975-11.971-2.12996-17.907-3.93138-5.647-1.71379-13.174-1.17941-19.05-1.17941-5.891 0-10.702.74041-16.044 2.31514-6.0064 1.77093-11.5939 4.76134-17.864 4.76134"/>
</svg>
