<svg width="296" height="168" viewBox="0 0 296 168" fill="none" xmlns="http://www.w3.org/2000/svg">
<path d="M21.9806 147.536C25.2546 139.555 30.1387 131.036 30.3647 122.244C24.6888 119.667 19.9501 112.021 16.9686 106.966C12.8335 99.9555 7.15452 93.668 3.33118 86.0419C1.24717 81.885 1 80.244 1 74.9984V60.1189C1 50.0643 9.12111 41.6886 15.6864 34.7771C17.9771 32.3657 20.014 29.3238 21.9806 26.6399C23.2336 24.9299 25.6653 24.6521 27.2258 23.2687C30.6831 20.2038 40.4003 16.4181 44.8262 15.9452C49.5519 15.4402 53.6141 12.9793 58.4636 12.8065C64.1733 12.6032 71.3336 11.2405 76.7634 9.43538C82.0946 7.66308 88.7648 6.68433 94.3638 6.52922C105.36 6.22457 116.46 4.73784 127.35 3.15807C157.521 -1.21861 185.749 1.87681 215.818 5.2505C229.62 6.79906 243.373 10.0466 256.731 13.8527C265.671 16.4003 274.625 21.6362 280.042 29.3135C282.612 32.9556 285.891 36.098 288.435 39.7757C290.519 42.7894 290.857 46.1736 292.631 49.1917C295.893 54.7427 294.891 62.545 294.729 68.8374C294.261 87.0288 289.862 102.98 277.128 116.15C262.199 131.59 246.932 147.063 228.407 158.463C213.44 167.673 196.517 167.709 179.335 166.368C153.908 164.384 128.986 160.914 104.038 156.139C88.1553 153.098 72.7009 150.26 57.6477 144.63C53.2239 142.976 45.0593 137.466 45.0593 132.075C45.0593 126.617 40.3097 134.72 37.9492 137.074C30.461 144.542 23.5065 152.611 14.8705 158.812C13.6303 159.703 11.4598 162.111 13.5884 159.045C16.2598 155.196 20.1604 151.974 21.9806 147.536Z" fill="#E2D2BB"/>
<path d="M30.3729 121.613C30.3729 130.629 25.3328 139.364 21.9806 147.536C20.1604 151.974 16.2598 155.196 13.5884 159.045C11.4598 162.111 13.6303 159.703 14.8705 158.812C23.5065 152.611 30.461 144.542 37.9492 137.074C40.3097 134.72 45.0593 126.617 45.0593 132.075C45.0593 137.466 53.2239 142.976 57.6477 144.63C72.7009 150.26 88.1553 153.098 104.038 156.139C128.986 160.914 153.908 164.384 179.335 166.368C196.517 167.709 213.44 167.673 228.407 158.463C246.932 147.063 262.199 131.59 277.128 116.15C289.862 102.98 294.261 87.0288 294.729 68.8374C294.891 62.545 295.893 54.7427 292.631 49.1917C290.857 46.1736 290.519 42.7894 288.435 39.7757C285.891 36.098 282.612 32.9556 280.042 29.3135C274.625 21.6362 265.671 16.4003 256.731 13.8527C243.373 10.0466 229.62 6.79906 215.818 5.2505C185.749 1.87681 157.521 -1.21861 127.35 3.15807C116.46 4.73784 105.36 6.22457 94.3638 6.52922C88.7648 6.68433 82.0946 7.66308 76.7634 9.43538C71.3336 11.2405 64.1733 12.6032 58.4636 12.8065C53.6141 12.9793 49.5519 15.4402 44.8262 15.9452C40.4003 16.4181 30.6831 20.2038 27.2258 23.2687C25.6653 24.6521 23.2336 24.9299 21.9806 26.6399C20.014 29.3238 17.9771 32.3657 15.6864 34.7771C9.12111 41.6886 1 50.0643 1 60.1189C1 65.0787 1 70.0386 1 74.9984C1 80.244 1.24717 81.885 3.33118 86.0419C7.15452 93.668 12.8335 99.9555 16.9686 106.966C20.1334 112.332 25.2781 120.617 31.4219 122.66" stroke="#E2D2BB" stroke-width="2" stroke-linecap="round"/>
</svg>
