<svg xmlns="http://www.w3.org/2000/svg" fill="none" viewBox="0 0 301 136">
  <path stroke="#E2D2BB" stroke-linecap="round" stroke-width="3" d="M272.567 4.62582C266.371 4.62582 260.933 2 254.829 2H65.4663C54.8064 2 43.7694 7.09338 33.618 9.9504c-9.4546 2.6609-23.3306 6.1034-28.50803 17.5784C2.52895 33.2492 2 41.1482 2 47.9519v9.8468c0 3.8186 2.77198 7.3072 3.10997 11.1597.5002 5.7015 6.60293 12.0943 9.32993 16.4114 3.2797 5.1922 7.1424 6.4274 11.4032 8.8257 4.8189 2.7125 10.9056 3.5798 16.0681 5.0328 4.4355 1.2487-1.8537 15.5117-3.1675 17.6517-3.3358 5.431-6.0193 10.495-10.8273 14.077-7.6858 5.726 6.7712 1.912 9.3299.292 6.4264-4.07 10.7487-10.109 16.3561-15.026 1.4853-1.302 3.9337-7.276 6.2199-4.96 2.0111 2.038 5.4018 3.213 8.0053 3.72 7.5324 1.468 17.4656 4.896 24.3614 8.826 11.543 6.578 28.141 9.482 40.89 9.482 24.268 0 49.917 1.634 73.372-7.586 19.528-7.675 40.884-9.774 58.629-23.924 2.53-2.0176 6.408-2.7203 8.524-5.2515 2.229-2.6663 4.952-4.976 7.775-6.5645 6.003-3.3793 9.608-10.2074 13.418-16.4114 8.061-13.1252 2.907-32.3091-2.015-46.0248-2.302-6.4129-6.592-15.8905-12.958-16.3384-3.344-.2353-9.59-3.44703-12.44-5.25167"/>
</svg>
