<svg width="296" height="146" viewBox="0 0 296 146" fill="none" xmlns="http://www.w3.org/2000/svg">
<path d="M208.509 1.85769C192.954 1.85769 177.354 1.57264 161.807 1.90534C149.349 2.17192 137.179 4.03005 124.773 4.47842C118.079 4.72033 110.749 4.82242 104.146 5.71731C93.338 7.18213 81.7225 8.85667 70.8626 9.62457C63.3271 10.1574 55.8386 13.2215 48.1852 13.913C40.8076 14.5796 33.5079 19.7583 27.0899 22.4423C23.2251 24.0586 20.855 26.5191 17.3626 28.4462C14.4052 30.078 10.272 31.3707 8.10416 33.7829C-0.487003 43.3427 -0.964452 58.834 4.93987 69.4248C13.0531 83.9778 30.2054 91.0135 48.7126 93.6308C56.2649 94.6988 63.8953 98.1753 71.39 98.7293C80.6117 99.411 89.6263 101.232 98.7553 102.16C107.209 103.019 108.522 113.189 110.416 119.171C112.992 127.301 113.581 135.079 113.581 143.377C113.581 148.54 115.387 139.88 115.924 138.231C117.835 132.363 119.909 126.516 119.909 120.219C119.909 117.503 119.909 114.787 119.909 112.071C119.909 110.722 120.211 109.102 119.851 107.783C119.219 105.473 118.411 106.11 122.019 106.925C126.808 108.007 132.504 107.354 137.43 107.354C147.567 107.354 157.705 107.354 167.842 107.354C176.044 107.354 184.078 107.372 192.219 106.449C201.143 105.436 209.592 102.097 218.002 99.6346C229.454 96.2821 240.895 92.0422 251.755 87.6269C258.936 84.7073 266.169 82.1268 272.03 77.5252C281.74 69.9015 295 60.05 295 48.1731C295 38.67 290.458 26.4786 280.761 20.3457C272.444 15.0857 260.538 11.3811 250.29 9.52927C242.786 8.17327 235.553 4.43077 227.495 4.43077C219.395 4.43077 211.598 1 203.236 1" stroke="#E2D2BB" stroke-width="2" stroke-linecap="round"/>
</svg>
