<svg xmlns="http://www.w3.org/2000/svg" fill="none" viewBox="0 0 303 328">
  <path fill="#E2D2BB" stroke="#E2D2BB" stroke-linecap="round" stroke-width="3" d="M113.555 3.97403c11.799-3.330499 25.919-1.20158 38.113-1.20158L143.968 2c5.762 0 11.261 1.54489 16.801 1.54489 2.543 0 4.665.77245 7 .77245 1.954 0 2.738-.157 4.201 1.20158.99.91991 2.689.01785 3.85.72953 3.326 2.03922 10.082 1.97791 13.651 2.31733 5.766.54848 9.97 1.00299 15.478 2.66062 3.318.9986 6.981 1.0872 10.384 1.5878 3.973.5845 7.845 1.979 11.862 2.2745 4.431.3259 8.564 2.1736 13.029 2.7464 5.645.7243 10.807 1.7169 16.295 3.3044 6.885 1.9914 14.529 1.3776 21.235 3.4331 1.09.3341 3.025 4.0952 4.122 5.0638 5.027 4.4369 9.965 11.0774 13.846 16.7363 2.323 3.3884 5.055 7.7212 5.055 12.0158v10.428c0 7.0413.767 14.7156-.544 21.5855-.785 4.1155.258 7.9737-1.245 12.016-.837 2.252-.311 5.498-.311 7.896 0 5.073 1.4 8.955 1.4 14.076 0 11.733-.91 22.26-2.8 33.73-1.193 7.24-2.714 14.299-3.85 21.542-.946 6.031-2.7 11.808-3.773 17.724-.74 4.084-2.873 6.609-4.666 10.256-4.856 9.875-7.744 20.881-13.223 30.383-4.542 7.875-8.932 15.786-13.69 23.517-3.253 5.284-8.053 10.806-13.068 14.075-3.044 1.985-6.356 4.215-9.022 6.781-2.104 2.023-4.763 2.796-7.001 4.677-4.701 3.952-10.748 6.814-16.101 9.57-2.041 1.051-4.818 3.108-6.961 3.519l-.24.046c-2.158.413-4.864.931-6.8 1.928-8.71 4.485-18.045 5.222-27.612 5.75-2.74.151-3.619 3.406-5.912 4.635-2.584 1.385-5.929.772-8.712.772h-25.279c-10.483 0-20.478-.087-30.102-4.806-9.8998-4.855-21.9682-4.251-32.0461-8.84-7.7158-3.514-16.9464-9.276-22.9458-15.707-3.5687-3.825-3.4887-1.439-4.5503 2.661-.8453 3.265-2.3968 6.456-4.1225 9.312-2.2418 3.711-5.1213 7.058-6.6893 11.287-2.3822 6.425-7.1768 10.868-10.4617 16.564-.4624.802-3.0252 3.854-2.139 1.116.4261-1.316 1.6551-2.983 1.7501-4.205.4266-5.493 2.4121-12.5 4.7447-17.252 1.791-3.648 1.9248-8.097 2.9557-12.016 1.0231-3.888 2.3511-7.883 3.5002-11.758 1.9513-6.579 5.4877-14.998 1.7113-21.371-.8886-1.499-2.8109-4.319-3.0725-6.051-.6064-4.015-4.6651-9.045-6.2614-12.788-1.6486-3.866-1.277-8.266-2.3335-12.23-1.4065-5.277-5.9116-9.77-7.3894-15.106-1.3551-4.894-3.0508-9.87-4.74469-14.676-1.84037-5.222-2.01622-10.757-3.15019-16.179l-.05095-.243c-1.46454-7.003-2.87388-13.741-3.44926-21.042-1.739411-22.072 1.43897-44.083 1.43897-66.2157 0-8.5176 2.07849-16.9364 3.34465-25.319.88361-5.85 2.19759-10.8631 4.35577-16.2214.9222-2.2893 1.4512-4.7832 2.2557-7.1236.8193-2.3833 2.6505-4.1708 3.5003-6.6087 1.3495-3.8717 5.3988-6.3864 7.8171-9.0548 4.1328-4.5603 10.5795-3.9487 15.4787-6.952 1.3274-.8137 3.0925-.7226 4.5114-1.2445 1.4309-.5263 2.3262-1.8871 4.2391-2.1886 4.3401-.6841 8.3565-3.0361 12.6008-4.0768 5.1727-1.2684 10.2254-1.5022 15.4787-2.3173 12.3436-1.9154 23.9994-5.27725 36.0134-8.66857Z"/>
</svg>
