<svg width="312" height="276" viewBox="0 0 312 276" fill="none" xmlns="http://www.w3.org/2000/svg">
<path d="M63.7297 9.752C58.858 10.033 52.4879 16.4678 49.5582 19.8995C45.9609 24.1134 42.6408 28.1852 39.2108 32.584C33.1975 40.2956 28.8951 50.4779 22.2275 57.4014C16.9296 62.9025 13.2691 70.976 11.3177 78.2479C8.30111 89.4895 4.6822 100.807 3.2197 112.441C-0.0706868 138.614 -4.7561 172.631 11.8801 195.937C20.3861 207.854 28.4193 219.363 39.4357 229.138C46.0738 235.027 55.4672 237.868 62.9424 242.484C76.3667 250.773 95.9684 254.421 111.53 254.948C128.087 255.508 144.421 257.518 161.131 256.933C165.88 256.767 171.771 255.076 175.302 252.19C176.78 250.982 179.917 255.008 181.151 255.72C184.397 257.592 190.098 262.596 192.061 265.867C192.968 267.38 200.47 275.96 200.383 273.588C200.211 268.854 197.379 262.197 195.322 257.926C194.543 256.308 192.492 252.596 192.285 250.977C191.964 248.455 189.354 248.991 194.085 248.991C199.697 248.991 204.988 247.307 210.506 247.006C222.774 246.338 235.497 240.037 246.947 236.086C254.303 233.548 262.299 227.857 268.429 223.181C274.527 218.53 281.485 214.404 286.425 208.512C293.389 200.205 306.525 188.088 307.682 176.745C308.926 164.541 311.44 151.936 308.919 139.574C306.586 128.132 301.455 117.323 298.347 106.043C295.505 95.731 290.047 83.014 282.376 75.2699C275.946 68.779 270.402 58.0606 261.343 54.6439C249.199 50.063 238.232 41.2758 227.039 34.79C215.508 28.1074 202.552 22.6877 189.474 19.8995C183.365 18.5972 176.996 16.558 171.028 14.7155C164.123 12.5835 156.95 11.6844 149.996 9.752C140.206 7.03165 128.719 6.67814 119.403 3.02374C113.88 0.856945 103.307 2.80314 97.3589 2.80314C92.2227 2.80314 87.0865 2.80314 81.9502 2.80314C73.6611 2.80314 65.3215 4.92873 60.693 11.7374" stroke="#E2D2BB" stroke-width="3" stroke-linecap="round"/>
</svg>
