<svg xmlns="http://www.w3.org/2000/svg" fill="none" viewBox="0 0 294 162">
  <path stroke="#E2D2BB" stroke-linecap="round" stroke-width="3" d="M205.13 6.73266c-15.428 0-30.617-2.36633-46.097-2.36633h-36.628C103.107 4.36633 84.2297 2 64.9704 2c-14.9439 0-26.3375.11826-39.2447 8.8737-11.2505 7.6317-22.19435 19.875-22.4255 34.509-.12386 7.8419-3.229908 16.7316.62294 24.1235C9.48118 80.1695 17.6456 88.1271 25.7257 96.6532c7.6775 8.1008 18.8789 13.0568 28.1565 18.9308 12.5359 7.937 27.253 11.959 41.7987 12.949 18.3991 1.253 40.0631 2.327 57.8701-2.892 5.712-1.674 13.894-.798 19.062-3.221 1.89-.887 4.248-4.485 4.485-.394.268 4.623 1.946 9.611 3.613 13.935 2.458 6.377 5.357 14.65 5.357 21.625 0 7.177 1.909-3.786 2.492-5.324 3.197-8.434 1.993-18.741 1.993-27.739 0-7.144 1.94-5.102 7.6-6.836 10.578-3.24 21.534-6.97 30.524-13.869 17.532-13.4548 38.576-22.0048 51.578-41.2136 4.816-7.1144 17.252-23.4702 8.971-32.2084-9.44-9.9603-20.897-12.8934-33.016-17.1559-8.653-3.0435-19.481-2.9579-28.655-2.9579-8.757 0-18.256-3.54954-26.91-3.54954"/>
</svg>
