<svg xmlns="http://www.w3.org/2000/svg" fill="none" viewBox="0 0 298 242">
  <path fill="#E2D2BB" stroke="#E2D2BB" stroke-linecap="round" stroke-width="3" d="M38.2379 16.3953C26.5425 13.4943 16.7495 2.32031 4.1012 2.32031L3 3.51536C8.09167 6.2782 9.60712 20.6093 9.60712 26.2213c0 7.596.83588 18.2748-1.95768 25.0961-1.86535 4.5548-.24469 13.0362-.24469 17.9257v26.2911c0 23.7888 5.19605 46.2928 16.15075 66.7898 12.1773 22.785 29.9242 44.231 49.3086 60.151 16.3227 13.405 33.3419 17.66 53.4689 17.66h32.791c12.464 0 26.088 1.286 38.174-2.921 12.06-4.198 27.602-7.952 37.807-16.2 9.222-7.452 17.828-15.175 25.817-24.166 8.761-9.86 13.033-21.217 19.821-32.266 4.125-6.715 5.852-14.427 9.666-21.246 3.05-5.451 5.402-12.681 5.506-19.121.199-12.315.222-24.162-1.957-36.2494-1.112-6.166-3.702-12.0489-5.996-17.793-2.263-5.6687-5.038-14.0241-8.809-18.5897-11.758-14.2321-28.114-24.2877-44.904-29.2123-14.533-4.2627-29.176-3.3196-44.292-3.3196-14.065 0-27.614 2.3901-41.601 2.3901-18.988 0-38.033.4682-57.0165 0-9.0543-.2233-18.0483-2.3901-27.2849-2.3901-7.9092 0-18.0947-.7402-25.8167-2.6557Z"/>
</svg>
