<svg xmlns="http://www.w3.org/2000/svg" fill="none" viewBox="0 0 304 260">
  <path stroke="#E2D2BB" stroke-linecap="round" stroke-width="3" d="M239.891 2c-.622 10.7884-7.936 21.7449-12.37 31.639-1.477 3.2952-3.845 12.0906-8.854 12.0906-23.324 0-46.54 2.034-69.922 2.034-18.527 0-37.031-1.017-55.469-1.017-9.5396 0-20.3977-1.2563-29.7526.5085-9.5578 1.8031-17.7477 5.1692-26.9531 7.6273-8.1496 2.1761-25.5861 11.9499-27.60415 19.8308-1.3711 5.3544-5.31188 10.3376-5.79428 15.9891C2.49537 98.6278 2 106.606 2 114.771c0 14.761 2.97577 26.764 7.03125 41.017 3.73535 13.129 7.38405 28.293 14.06255 40.566 4.2231 7.761 8.7745 15.228 14.6484 22.204 5.3733 6.381 11.3616 10.307 18.164 15.367 8.2774 6.157 20.6121 10.979 30.5339 14.746 4.4374 1.685 8.5633 4.021 13.0859 5.537 5.763 1.933 11.948 1.585 17.904 2.543 21.304 3.423 44.057-1.245 65.429-1.526 7.217-.095 13.994-.973 20.638-3.616 2.822-1.122 4.105-2.828 5.925-4.859 1.351-1.507 4.606-1.907 6.51-2.712 21.681-9.153 34.266-18.644 46.224-37.175 11.211-17.374 18.332-35.837 26.953-54.126C295.079 140.073 302 125.85 302 112.059V90.5328c0-6.9225-3.056-10.9757-4.687-17.345-3.141-12.265-23.357-23.0496-36.394-24.4637-2.853-.3096-13.319-.389-14.909-2.9945-1.801-2.953-.26-10.0216-.26-13.2205 0-9.8149-5.859-18.0528-5.859-27.45819"/>
</svg>
