<svg width="293" height="199" viewBox="0 0 293 199" fill="none" xmlns="http://www.w3.org/2000/svg">
<path d="M154.989 43.2941C156.549 44.6217 159.035 45.9491 160.663 47.579C174.154 47.6078 188.2 48.5303 202.087 48.5303C215.695 48.5303 228.417 49.582 241.666 52.55C249.259 54.2509 256.175 57.9993 263.475 60.4308C269.614 62.4756 275.543 64.9912 280.251 68.9991C292.621 79.5284 291.995 93.0495 291.995 107.081C291.995 116.458 290.821 124.987 288.142 134.108C285.275 143.871 282.307 147.774 273.23 153.783C263.091 160.496 250.986 166.107 238.808 169.492C220.182 174.669 201.961 181.657 184.068 188.427C160.491 197.347 137.952 198 112.676 198H112.324C97.4464 198 84.0336 198 70.0517 194.192C60.6419 191.629 50.1232 187.386 42.2157 182.45C19.628 168.35 8.96184 146.295 2.94691 123.953C0.114798 113.433 1.20716 102.325 1.20716 91.5835C1.20716 84.3228 3.04189 80.3448 7.91764 74.4469C15.7289 64.9979 26.9887 56.0129 40.9108 54.1896C64.3305 51.1226 88.3754 54.8967 111.868 56.1466C117.987 56.4721 124.53 57.7954 130.695 57.0457C131.974 56.8902 129.414 54.1158 128.955 53.2905C125.98 47.9441 123.703 41.4201 121.747 35.7307C118.145 25.2553 111.677 15.3514 108.575 4.78955C106.975 -0.657156 108.156 0.466167 112.054 3.78462C120.898 11.3124 129.446 18.6722 137.654 26.845C143.269 32.437 148.875 38.0892 154.989 43.2941Z" fill="#E2D2BB"/>
<path d="M162.259 50.4344C161.895 47.3401 157.366 45.3175 154.989 43.2941C148.875 38.0892 143.269 32.437 137.654 26.845C129.446 18.6722 120.898 11.3124 112.054 3.78462C108.156 0.466167 106.975 -0.657156 108.575 4.78955C111.677 15.3514 118.145 25.2553 121.747 35.7307C123.703 41.4201 125.98 47.9441 128.955 53.2905C129.414 54.1158 131.974 56.8902 130.695 57.0457C124.53 57.7954 117.987 56.4721 111.868 56.1466C88.3754 54.8967 64.3305 51.1226 40.9108 54.1896C26.9887 56.0129 15.7289 64.9979 7.91764 74.4469C3.04189 80.3448 1.20716 84.3228 1.20716 91.5835C1.20716 102.325 0.114798 113.433 2.94691 123.953C8.96184 146.295 19.628 168.35 42.2157 182.45C50.1232 187.386 60.6419 191.629 70.0517 194.192C84.1436 198.03 97.6575 198 112.676 198C137.952 198 160.491 197.347 184.068 188.427C201.961 181.657 220.182 174.669 238.808 169.492C250.986 166.107 263.091 160.496 273.23 153.783C282.307 147.774 285.275 143.871 288.142 134.108C290.821 124.987 291.995 116.458 291.995 107.081C291.995 93.0495 292.621 79.5284 280.251 68.9991C275.543 64.9912 269.614 62.4756 263.475 60.4308C256.175 57.9993 249.259 54.2509 241.666 52.55C228.417 49.582 215.695 48.5303 202.087 48.5303C187.98 48.5303 173.709 47.5783 160.022 47.5783" stroke="#E2D2BB" stroke-width="2" stroke-linecap="round"/>
</svg>
