<svg width="305" height="226" viewBox="0 0 305 226" fill="none" xmlns="http://www.w3.org/2000/svg">
<path d="M108.058 4.29907C127.999 4.29907 148.165 3.7243 168.185 3.7243L164.737 2C166.612 2 168.41 2.57477 170.197 2.57477C171.959 2.57477 173.379 3.7243 174.795 3.7243C177.875 3.7243 182.586 4.69633 185.556 5.57633C189.008 6.59908 193.653 6.59856 197.285 6.59816L197.499 6.59814C200.323 6.59814 202.607 7.74768 205.577 7.74768C208.959 7.74768 212.448 8.62189 215.827 8.92915C220.529 9.35661 225.103 11.5231 229.813 12.2181C234.23 12.8698 238.576 14.3063 242.778 15.7944C249.934 18.3289 257.882 18.4319 265.066 20.9673C271.168 23.1211 277.546 26.9482 283.141 30.3051L283.331 30.4191C284.091 30.8756 286.487 31.8778 287.035 32.5904C287.758 33.5308 287.977 36.3783 288.567 37.6675C293.961 49.436 298.864 61.5767 302.362 74.0695C303.357 77.6221 302.681 82.1003 302.681 85.7884V97.9863C302.681 105.496 300.927 112.709 300.414 120.147C300.085 124.923 298.031 129.574 297.061 134.324C296.622 136.476 296.266 138.634 295.752 140.775C295.35 142.451 294.095 143.747 293.613 145.437C292.827 148.185 291.109 150.415 290.036 153.036C288.622 156.494 286.34 160.443 284.161 163.51C281.086 167.837 277.947 172.808 275.539 177.496C274.263 179.982 272.63 183.2 273.336 185.67C274.453 189.581 274.518 193.346 274.518 197.485C274.518 206.302 274.459 215.079 273.943 223.86C273.912 224.386 268.062 218.571 267.493 217.091C266.428 214.324 262.902 210.951 260.979 208.661C259.479 206.876 257.884 205.142 256.125 203.616C254.919 202.569 253.254 199.958 251.686 199.497C250.266 199.079 248.635 200.022 247.44 200.646C244.914 201.967 242.544 202.901 239.712 203.392C234.269 204.336 228.913 205.445 223.491 206.49C215.519 208.025 206.643 208.342 198.52 208.342H120.224C100.297 208.342 79.8851 205.976 60.8954 199.72C56.5079 198.275 50.531 197.205 46.5582 194.899C43.5553 193.155 40.3144 188.471 38.2879 185.67C30.2591 174.574 23.5996 162.237 17.1017 150.2L16.7022 149.46C11.5656 139.946 8.1782 129.128 4.4085 118.997C2.54762 113.996 2.0775 108.801 2.0775 103.51C2.0775 96.7616 1.61732 89.9094 2.93965 83.2977C3.67871 79.6025 5.09112 75.9397 5.65383 72.3133C5.94779 70.4189 6.39513 68.5549 6.67564 66.6614C6.98465 64.5756 8.29662 63.412 8.97472 61.5204C10.8406 56.3156 12.2728 51.1214 14.4669 46.0017C16.603 41.0176 19.8148 36.5138 21.6196 31.377C22.5668 28.6812 22.8017 26.4343 24.717 24.2244C27.0836 21.4936 31.0036 19.037 33.9452 16.944C38.0759 14.0048 41.7614 11.1336 46.654 9.47198C49.2647 8.58531 51.8143 6.75512 54.3814 6.1511C56.5693 5.63631 58.7774 5.80574 60.9593 5.32088C67.6891 3.82538 74.5385 4.29907 81.4274 4.29907H108.058Z" fill="#E2D2BB" stroke="#E2D2BB" stroke-width="3" stroke-linecap="round"/>
</svg>
