<svg xmlns="http://www.w3.org/2000/svg" fill="none" viewBox="0 0 303 258">
  <path stroke="#E2D2BB" stroke-linecap="round" stroke-width="3" d="M245.371 18.5926c-12.797 0-25.458-3.7906-38.244-3.7906h-31.29c-12.973 0-27.593-2.4356-40.176-6.03692-4.918-1.40765-10.369-1.32163-15.231-3.08863-3.662-1.33056-8.545-3.34798-12.362-3.50982-8.8425-.37492-17.751 0-26.5998 0-10.5173 0-19.9663 7.26529-29.8006 10.74007-15.2439 5.3861-27.0005 14.0401-37.7474 28.4295-5.42454 7.2631-6.99276 14.3415-8.44347 23.9369C4.30021 73.0551 2 80.8204 2 88.7187c0 9.3479.27291 15.1173 2.75931 23.6563 2.93338 10.074 8.39869 21.063 15.34179 27.517 14.0062 13.019 30.1329 21.359 44.9768 32.852 2.2424 1.736 4.4217 4.194 7.0086 4.984 2.4647.752 7.1118.921 7.395 5.124.3482 5.167 0 10.689 0 15.864 0 10.946 1.0907 22.156-1.9867 32.431-1.6282 5.436-3.2242 10.354-5.4083 15.513-1.1534 2.725-2.5386 11.799-2.5386 8.705 0-3.724 2.3096-6.491 4.0286-9.407 4.4201-7.496 8.2609-15.229 11.9203-23.375 3.3127-7.374 7.548-17.092 7.8916-25.832.1317-3.35 0-6.753 0-10.108 0-1.258.6801.004.9934.702 1.0185 2.267 3.4704 2.892 5.2978 3.79 23.7854 11.689 48.2234 14.461 73.5084 14.461 21.941 0 46.697-3.757 65.671-18.953 14.263-11.423 29.505-22.028 42.935-35.169 6.283-6.148 13.411-12.55 16.225-22.392 3.123-10.924 2.98-25.564 2.98-37.2045 0-9.3777-1.132-19.1413-4.194-27.7977-4.476-12.6504-12.832-25.9419-24.117-29.1315-4.188-1.1839-7.904-7.6857-11.423-10.3188-4.691-3.5099-7.242-6.0369-12.914-6.0369"/>
</svg>
