<svg xmlns="http://www.w3.org/2000/svg" fill="none" viewBox="0 0 291 267">
  <path stroke="#E2D2BB" stroke-linecap="round" stroke-width="3" d="M185.649 2c-25.438 0-50.984.96878-76.48.96878H87.4247c-5.9724 0-10.0947 1.48117-15.662 3.33693C54.2411 12.1462 35.3471 20.8861 24.8305 36.6609c-2.9492 4.4239-6.601 8.0588-9.2035 12.8633-4.8352 8.9266-8.60966 17.8931-11.62536 27.6104-2.46451 7.9412-2.42196 16.3718-2.42196 24.5964 0 8.386-.44106 16.603 1.45318 24.812 3.85907 16.722 9.31774 32.729 21.90524 44.617 9.5691 9.038 17.2904 22.2 27.9871 29.925 4.3128 3.115 7.3175 7.493 11.8407 10.603 7.1169 4.893 14.4368 9.424 21.9591 13.671 11.1148 6.274 27.701 12.056 40.797 12.056h32.884c8.831 0 16.829-2.728 25.296-4.844 6.286-1.572 14.426-4.022 20.291-6.782 3.135-1.475 6.195-2.956 9.473-4.09 2.99-1.035 3.405-4.209 4.305-1.507 2.643 7.927 9.571 14.569 14.317 21.313 4.447 6.32 8.851 10.265 15.285 14.316 6.062 3.817 12.862 4.403 19.16 7.266 1.9.864 4.906.864 6.782 1.4 3.253.929 3.898.507 1.884-1.507-5.855-5.855-14.335-9.729-19.645-16.416-4.584-5.772-8.072-12.431-12.594-18.084-2.587-3.233-2.411-7.277.269-9.957 7.51-7.51 14.503-14.206 20.883-22.712 8.743-11.659 11.766-25.593 18.406-38.321 6.818-13.067 3.822-31.378 3.822-45.802V84.5619c0-6.4193-.228-14.7721-3.122-20.5597-5.609-11.2175-8.642-25.327-17.707-34.3919-6.904-6.9035-16.605-10.8892-24.919-15.7696-9.102-5.34224-13.82-9.90313-24.435-9.90313C205.403 3.93757 194.118 2 181.773 2"/>
</svg>
