<svg width="305" height="160" viewBox="0 0 305 160" fill="none" xmlns="http://www.w3.org/2000/svg">
<path d="M279.661 37.056C277.76 33.2466 281.939 31.9687 284.947 30.2465L302 2C299.88 2 295.917 7.05041 294.386 8.43113C290.274 12.139 284.66 17.4862 279.912 20.2846C276.947 22.0324 273.992 26.8418 270.284 26.8418C267.654 26.8418 264.07 23.7644 261.789 22.5544C253.971 18.4071 244.552 15.7435 235.926 12.7185C221.792 7.7622 204.839 4.14371 189.863 4.14371H164.377C158.572 4.14371 153.604 5.44561 147.89 6.16132C142.37 6.85269 136.841 6.06241 131.34 6.98097C117.093 9.36003 102.076 8.03153 87.6051 10.0704C71.476 12.343 55.4496 15.3712 39.3395 17.7626C24.9101 19.9044 13.0771 25.234 3.53363 35.9211C0.0829773 39.7852 3.53363 49.0171 3.53363 53.386C3.53363 59.2241 5.41986 65.4213 6.68002 71.1031C8.63812 79.9317 9.15778 86.8494 14.9236 94.4317C21.1692 102.645 26.989 111.022 33.4872 119.021C40.4143 127.548 50.3713 133.496 59.5393 139.197C71.3436 146.538 85.7825 153.606 99.3097 156.852C108.675 159.098 119.93 157.356 129.515 157.356C138.772 157.356 147.792 156.975 157.014 156.221C175.331 154.723 195.167 152.767 212.706 147.016C229.943 141.363 243.938 135.846 258.894 125.579C268.971 118.661 277.165 107.252 282.618 96.3232C289.208 83.1188 291.761 66.2558 287.275 51.8728C285.532 46.286 282.192 42.1279 279.661 37.056Z" fill="#E2D2BB" stroke="#E2D2BB" stroke-width="3" stroke-linecap="round"/>
</svg>
