<svg xmlns="http://www.w3.org/2000/svg" fill="none" viewBox="0 0 262 204">
  <path stroke="#E2D2BB" stroke-linecap="round" stroke-width="2" d="M181.472 30.0105H81.3255c-11.5275 0-23.3669 5.5101-34.1198 9.3637-10.1384 3.6334-18.9894 10.0882-27.2959 16.5854C8.79114 64.6564 1.09774 85.9472 1.09774 99.6569c0 11.0351-.890615 21.6521 2.705 32.1911 5.28633 15.496 16.84966 28.191 28.52546 39.414 13.9605 13.418 32.9979 17.712 50.6572 23.99 12.7282 4.526 27.9226 7.712 41.4356 7.712 12.487 0 26.766.758 38.239-4.652 15.971-7.531 31.021-17.236 45.616-27.295 13.404-9.238 25.664-18.597 36.21-30.845 6.335-7.357 14.075-20.969 15.492-30.845 1.855-12.9266 1.612-26.3067-4.364-38.5569-5.893-12.076-13.87-27.0895-29.264-27.5403-4.939-.1446-10.766 1.2929-5.594-3.8556 4.791-4.7691 12.44-9.754 14.939-15.9734 1.674-4.1667 4.426-9.1765 4.426-13.77012 0-.77277-.853-11.94783-3.32-7.65008-4.215 7.34363-14.832 12.5663-21.762 16.8914-4.004 2.4983-9.948 6.1691-14.755 6.7321-3.066.359-6.778 4.2201-9.959 4.4064-4.026.2357-8.139 0-12.173 0"/>
</svg>
