<svg xmlns="http://www.w3.org/2000/svg" fill="none" viewBox="0 0 304 179">
  <path stroke="#E2D2BB" stroke-linecap="round" stroke-width="3" d="M263.338 38.0909c.436-4.3569 4.474-8.8871 6.58-12.5119 3-5.1621 6.804-10.1264 9.46-15.4343 1.028-2.05456 7.629-11.98025 6.947-6.52993-.845 6.75163-5.999 13.43353-6.535 19.86373-.343 4.1036-2.245 10.0015-3.931 13.7904-2.139 4.8105 6.897 6.1705 8.866 8.6305 1.58 1.9724 7.158 5.698 9.415 6.9865 7.379 4.2135 7.86 16.7719 7.86 24.0192 0 18.3066-14.82 35.0859-25.501 48.7229-13.942 17.801-28.501 36.983-50.362 45.618-10.296 4.068-21.248 4.11-32.264 4.11-8.763 0-17.321 1.644-25.912 1.644h-21.434c-4.02 0-7.729-2.054-11.516-3.105-4.263-1.183-9.947-3.017-13.573-5.525-2.84-1.965-6.532-3.331-9.003-5.8-2.558-2.556-5.449-5.365-8.5-7.397-6.1191-4.076-11.2342-9.338-17.2749-13.517-6.4577-4.467-16.5527-3.301-24.0384-6.21-7.0942-2.757-13.9635-5.26-20.6109-8.996-6.7641-3.802-12.7643-8.67-18.8742-13.379-8.5182-6.566-12.4465-15.4188-18.09732-24.202-8.93692-13.8908 3.38666-36.2979 16.86342-42.513 22.7304-10.4825 46.1694-14.1472 71.1554-14.8407 7.7529-.2152 15.4199-.8219 23.2159-.8219 9.294 0 18.432 1.6439 27.694 1.6439 6.813 0 13.939.448 20.657 1.4612 6.372.9611 12.864-.022 19.285 1.0046 18.351 2.9338 36.103 6.5756 54.749 6.5756h13.162c3.694 0 9.871 1.6659 9.871-3.2878"/>
</svg>
