<svg xmlns="http://www.w3.org/2000/svg" fill="none" viewBox="0 0 577 698">
  <path stroke="#E2D2BB" stroke-linecap="round" stroke-width="3" d="M221.209 7.48871V41.2757c0 4.8683 1.147 11.5952-.107 16.2678-1.888 7.0366-4.441 6.7864-10.468 10.3522-27.258 16.1265-55.701 30.4825-83.643 44.9353-29.3507 15.182-55.051 31.98-76.9127 58.587-15.5245 18.894-28.8685 40.896-39.4178 63.365-8.20474 17.475-8.65269 37.376-8.65269 56.539v77.698c0 30.482 8.70949 59.038 13.03249 88.961 3.0239 20.933 8.8269 45.996 19.6554 63.934 4.3144 7.147 10.279 17.793 13.0325 25.71 3.335 9.589 12.2844 15.19 17.7326 23.435 5.8992 8.927 16.7763 19.085 24.9967 25.71 13.2085 10.644 24.4455 23.466 38.8835 32.763 43.451 27.979 91.669 50.91 141.968 59.838 61.909 10.988 137.791 13.04 189.184-31.739 30.808-26.843 52.595-60.883 66.017-100.906 7.415-22.112 17.441-44.087 22.54-66.892 3.288-14.706 6.562-30.979 11.43-45.049 4.936-14.268 3.522-31.984 6.837-46.983 6.834-30.935 7.691-63.76 7.691-95.445 0-20.859-.166-40.999-6.196-60.976-5.14-17.031-6.869-34.638-17.305-49.6-10.713-15.357-19.958-28.762-37.602-35.266-15.755-5.807-31.965-10.572-47.536-16.95-17.319-7.094-39.397-15.743-57.578-17.292-30.484-2.597-57.787-25.5358-88.664-28.6674-17.758-1.8011-35.206-1.1508-49.886-13.31-6.031-4.9955-21.608-7.3161-22.112-17.5192-.496-10.028-6.867-23.7251-11.11-32.7631-3.677-7.8314-6.824-20.23589-12.392-26.16494-1.161-1.23655-10.286-3.454044-7.691 0 3.42 4.55265 4.566 8.33254 10.042 11.83114"/>
</svg>
