<svg xmlns="http://www.w3.org/2000/svg" fill="none" viewBox="0 0 405 362">
  <path stroke="#E2D2BB" stroke-linecap="round" stroke-width="3" d="M84.6523 12.0706c-6.2939.3699-14.5235 8.8395-18.3085 13.3564-4.6474 5.5463-8.9368 10.9058-13.3681 16.6956C45.207 52.2728 39.6486 65.675 31.0346 74.7878 24.1901 82.0286 19.461 92.6551 16.94 102.227c-3.8972 14.796-8.5726 29.693-10.46203 45.005-4.25093 34.45-10.30413 79.223 11.18853 109.9 10.9891 15.685 21.3675 30.834 35.5998 43.699 8.5759 7.753 20.7115 11.492 30.3689 17.567 17.3428 10.91 42.6668 15.712 62.7718 16.405 21.39.737 42.492 3.384 64.08 2.613 6.136-.219 13.747-2.445 18.308-6.242 1.909-1.59 5.962 3.708 7.556 4.645 4.194 2.465 11.56 9.051 14.095 13.357 1.172 1.99 10.864 13.284 10.752 10.162-.222-6.232-3.881-14.994-6.538-20.615-1.007-2.13-3.657-7.015-3.924-9.146-.415-3.32-3.787-2.614 2.325-2.614 7.251 0 14.087-2.217 21.215-2.613 15.85-.88 32.287-9.172 47.079-14.373 9.503-3.34 19.834-10.831 27.753-16.985 7.878-6.122 16.867-11.554 23.249-19.309 8.997-10.933 25.969-26.882 27.463-41.812 1.608-16.063 4.855-32.654 1.598-48.925-3.015-15.061-9.642-29.288-13.658-44.134-3.672-13.574-10.723-30.312-20.634-40.5052-8.306-8.5434-15.469-22.6513-27.172-27.1485-15.69-6.0294-29.859-17.5954-44.318-26.1321C280.738 36.2303 264 29.0969 247.104 25.427c-7.892-1.7141-16.12-4.3982-23.83-6.8234-8.922-2.8061-18.188-3.9896-27.172-6.533-12.649-3.58062-27.488-4.04593-39.523-8.85594-7.137-2.85199-20.796-.29036-28.48-.29036h-19.907c-10.7092 0-21.4832 2.79776-27.4629 11.7595"/>
</svg>
