<svg xmlns="http://www.w3.org/2000/svg" fill="none" viewBox="0 0 364 357">
  <path stroke="#E2D2BB" stroke-linecap="round" stroke-width="3" d="M287.548 1.625c-.747 14.9092-9.526 30.0506-14.848 43.7239-1.773 4.5539-4.615 16.7088-10.628 16.7088-27.996 0-55.863 2.8108-83.93 2.8108-22.238 0-44.449-1.4054-66.581-1.4054-11.45 0-24.4836-1.7362-35.7125.7027-11.4726 2.4919-21.3031 7.1437-32.3527 10.5406-9.7822 3.0073-30.7118 16.5144-33.1341 27.4056-1.64578 7.399-6.37603 14.286-6.95506 22.096C2.59461 135.161 2 146.187 2 157.47c0 20.4 3.5719 36.987 8.4398 56.685 4.4837 18.143 8.8633 39.099 16.8797 56.06 5.0692 10.725 10.5323 21.045 17.583 30.685 6.4498 8.818 13.6377 14.244 21.8029 21.237 9.9356 8.509 24.7413 15.173 36.6506 20.378 5.326 2.329 10.279 5.557 15.708 7.652 6.917 2.671 14.341 2.191 21.49 3.514 25.573 4.731 52.884-1.72 78.537-2.108 8.663-.132 16.797-1.345 24.773-4.997 3.387-1.551 4.926-3.909 7.111-6.715 1.622-2.084 5.528-2.637 7.815-3.748 26.024-12.649 41.129-25.765 55.484-51.376 13.457-24.009 22.004-49.524 32.352-74.799 7.166-17.501 15.473-37.156 15.473-56.216v-29.748c0-9.567-3.668-15.168-5.626-23.97-3.77-16.9499-28.036-31.8538-43.684-33.8081-3.425-.4278-15.988-.5376-17.896-4.1382-2.162-4.0809-.312-13.8495-.312-18.2703 0-13.5638-7.033-24.9483-7.033-37.94616"/>
</svg>
