<svg xmlns="http://www.w3.org/2000/svg" fill="none" viewBox="0 0 453 303">
  <path stroke="#E2D2BB" stroke-linecap="round" stroke-width="3" d="M367.109 21.688c-19.184 0-38.165-4.4674-57.332-4.4674h-46.908c-19.447 0-41.364-2.8705-60.228-7.1148-7.373-1.65898-15.544-1.55761-22.833-3.64011-5.488-1.56813-12.809-3.94576-18.532-4.1365-13.255-.44186-26.61 0-39.875 0-15.767 0-29.9319 8.56251-44.6745 12.65771-22.8522 6.3478-40.4766 16.5469-56.5873 33.5056-8.132 8.56-10.48293 16.9022-12.65768 28.2109-1.76373 9.1714-5.21199 18.3232-5.21199 27.6316 0 11.017.40912 17.816 4.1365 27.88 4.39747 11.873 12.59047 24.824 22.99887 32.43 20.9968 15.344 45.1724 25.173 67.4249 38.718 3.3622 2.046 6.6282 4.943 10.5072 5.874 3.694.887 10.661 1.086 11.085 6.039.522 6.09 0 12.598 0 18.697 0 12.901 1.635 26.111-2.978 38.221-2.441 6.407-4.833 12.203-8.107 18.284-1.73 3.211-3.806 13.905-3.806 10.258 0-4.388 3.462-7.65 6.039-11.086 6.626-8.835 12.384-17.949 17.87-27.549 4.966-8.691 11.315-20.144 11.83-30.444.198-3.948 0-7.959 0-11.914 0-1.482 1.02.006 1.489.828 1.527 2.672 5.203 3.409 7.943 4.467 35.656 13.777 72.291 17.043 110.196 17.043 32.892 0 70.004-4.428 98.448-22.338 21.382-13.462 44.231-25.96 64.364-41.447 9.419-7.246 20.105-14.791 24.323-26.391 4.681-12.874 4.467-30.128 4.467-43.847 0-11.052-1.696-22.559-6.287-32.761-6.709-14.9091-19.237-30.5738-36.153-34.3329-6.279-1.3953-11.85-9.058-17.125-12.1613-7.032-4.1366-10.856-7.1148-19.359-7.1148"/>
</svg>
