<svg xmlns="http://www.w3.org/2000/svg" fill="none" viewBox="0 0 453 194">
  <path fill="#E2D2BB" d="M114.35 20.5716C153.989.752395 199.089 5.31497 242.545 5.86361c5.31-5.519503 9.349-4.83675 17.173-4.83675h17.102c12.517 0 26.283 1.02217 38.48 3.7325 18.587 4.13035 38.04 5.25374 56.532 11.19754 5.998 1.9279 12.036 3.8047 17.984 5.9041 6.069 2.1418 13.16 3.2306 18.935 6.0399 10.974 5.3389 25.382 10.4528 31.15 21.9878 3.066 6.132 6.22 12.1126 9.162 18.3233 3.359 7.0921 2.443 14.8721 2.443 22.5307 0 10.1553-1.716 16.9593-7.94 24.5663-10.106 12.352-22.486 21.814-35.358 31.082-11.922 8.584-24.09 22.35-38.548 26.603-22.373 6.58-44.784 11.841-67.662 16.694-33.248 7.052-65.394 1.183-97.387-8.415-21.198-6.359-41.322-17.835-60.943-27.824-14.238-7.249-27.547-16.758-40.312-26.331-8.2055-6.154-18.3065-12.498-24.4319-20.767-2.9778-4.019-11.1481-13.7081-16.4914-13.7081-14.8366 0-28.6912-.0428-42.8231-4.6147-4.3868-1.4193-14.85038-8.4499-17.3736-12.487-2.041838-3.2668-.81191-1.2215 1.56091-1.2215h8.61889c11.2487 0 22.5695-1.2216 34.0007-1.2216 5.3095 0 13.2582 1.3944 18.2558-.2714 1.8297-.6099 2.943-7.2245 3.8683-8.8902 4.9834-8.9697 8.4901-18.2622 15.9485-25.7203 8.3817-8.3815 19.3449-12.3868 29.8609-17.6446Z"/>
  <path stroke="#E2D2BB" stroke-linecap="round" stroke-width="2" d="M249.945 5.91304c-45.707 0-93.7-6.288223-135.595 14.65856-10.516 5.2578-21.4792 9.2631-29.8609 17.6446-7.4584 7.4581-10.9651 16.7506-15.9485 25.7203-.9253 1.6657-2.0386 8.2803-3.8683 8.8902-4.9976 1.6658-12.9463.2714-18.2558.2714-11.4312 0-22.752 1.2216-34.0007 1.2216H3.79691c-2.37282 0-3.602748-2.0453-1.56091 1.2215 2.52322 4.0371 12.9868 11.0677 17.3736 12.487 14.1319 4.5719 27.9865 4.6147 42.8231 4.6147 5.3433 0 13.5136 9.6891 16.4914 13.7081 6.1254 8.269 16.2264 14.613 24.4319 20.767 12.765 9.573 26.074 19.082 40.312 26.331 19.621 9.989 39.745 21.465 60.943 27.824 31.993 9.598 64.139 15.468 97.387 8.415 22.878-4.853 45.289-10.114 67.662-16.694 14.458-4.253 26.626-18.019 38.548-26.603 12.872-9.268 25.252-18.73 35.358-31.082 6.224-7.607 7.94-14.411 7.94-24.5663 0-7.6586.916-15.4386-2.443-22.5307-2.942-6.2107-6.096-12.1913-9.162-18.3233-5.768-11.535-20.176-16.6489-31.15-21.9878-5.775-2.8093-12.866-3.8981-18.935-6.0399-5.948-2.0994-11.986-3.9762-17.984-5.9041-18.492-5.9438-37.945-7.06719-56.532-11.19754-12.197-2.71033-25.963-3.7325-38.48-3.7325h-17.102c-8.379 0-12.417-.783074-18.324 6.10773"/>
</svg>
