<svg xmlns="http://www.w3.org/2000/svg" fill="none" viewBox="0 0 378 198">
  <path fill="#E2D2BB" stroke="#E2D2BB" stroke-linecap="round" stroke-width="3" d="M346.901 45.7632c-2.361-4.7174 2.828-6.2998 6.564-8.4325l21.178-34.97914c-2.633 0-7.555 6.25418-9.456 7.96404-5.106 4.5916-12.078 11.2133-17.974 14.6787-3.683 2.1645-7.353 8.1202-11.956 8.1202-3.266 0-7.717-3.811-10.55-5.3094-9.71-5.1358-21.406-8.4343-32.118-12.1802-17.552-6.13771-38.605-10.61867-57.204-10.61867h-31.649c-7.208 0-13.378 1.61221-20.474 2.49851-6.856.85616-13.722-.12249-20.553 1.01502-17.692 2.94614-36.341 1.30096-54.312 3.82584-20.0296 2.8142-39.932 6.5643-59.9382 9.5256-17.9192 2.6523-32.6139 9.2523-44.46539 22.4866-4.285189 4.7851 0 16.2175 0 21.6277 0 7.2296 2.34241 14.904 3.90732 21.94 2.43167 10.933 3.07707 19.4995 10.23717 28.8895 7.7561 10.171 14.9835 20.544 23.0533 30.45 8.6023 10.56 20.9674 17.925 32.3527 24.985 14.6591 9.091 32.5901 17.844 49.3881 21.862 11.631 2.783 25.607.625 37.511.625 11.496 0 22.697-.471 34.15-1.406 22.747-1.855 47.38-4.277 69.16-11.399 21.406-7 38.786-13.831 57.359-26.547 12.514-8.567 22.689-22.695 29.461-36.228 8.183-16.352 11.354-37.2341 5.783-55.0454-2.164-6.9183-6.312-12.0676-9.455-18.3484Z"/>
</svg>
