<svg xmlns="http://www.w3.org/2000/svg" fill="none" viewBox="0 0 290 227">
  <path stroke="#E2D2BB" stroke-linecap="round" stroke-width="2" d="M200.378 33.7783H89.8248c-12.7255 0-25.7951 6.11-37.6654 10.3832-11.1919 4.029-20.9626 11.1865-30.1323 18.3911C9.75309 72.1962 1.26024 95.805 1.26024 111.007c0 12.236-.983162 24.01 2.98609 35.697 5.83567 17.182 18.60057 31.26 31.48957 43.704 15.4112 14.879 36.4269 19.64 55.9213 26.602 14.0508 5.018 30.8238 8.551 45.7418 8.551 13.784 0 29.547.842 42.212-5.157 17.631-8.352 34.244-19.113 50.356-30.268 14.797-10.243 28.331-20.621 39.973-34.203 6.993-8.158 15.538-23.252 17.102-34.203 2.048-14.334 1.78-29.1706-4.818-42.7544-6.505-13.3909-15.311-30.0389-32.304-30.5387-5.452-.1604-11.885 1.4336-6.176-4.2754 5.288-5.2884 13.732-10.8159 16.491-17.7125 1.848-4.6203 4.886-10.1756 4.886-15.2693 0-.8569-.941-13.24862-3.664-8.48297-4.654 8.14317-16.374 13.93447-24.025 18.73037-4.419 2.7703-10.981 6.8408-16.287 7.465-3.385.3982-7.482 4.6796-10.995 4.8862-4.444.2614-8.984 0-13.437 0"/>
</svg>
