<svg xmlns="http://www.w3.org/2000/svg" fill="none" viewBox="0 0 329 194">
  <path stroke="#E2D2BB" stroke-linecap="round" stroke-width="3" d="M284.948 41.0899c.473-4.7189 4.847-9.6256 7.129-13.5516 3.249-5.5911 7.369-10.9678 10.246-16.7168 1.114-2.22531 8.263-12.97577 7.525-7.07255-.915 7.31265-6.498 14.54985-7.079 21.51425-.371 4.4446-2.432 10.8327-4.257 14.9364-2.318 5.2102 7.47 6.6832 9.603 9.3476 1.711 2.1363 7.753 6.1715 10.197 7.5671 7.994 4.5636 8.515 18.1655 8.515 26.015 0 19.8277-16.053 38.0017-27.622 52.7717-15.102 19.28-30.872 40.056-54.551 49.409-11.152 4.405-23.016 4.451-34.948 4.451-9.491 0-18.761 1.781-28.067 1.781h-23.216c-4.355 0-8.373-2.225-12.474-3.364-4.618-1.281-10.775-3.267-14.702-5.984-3.076-2.128-7.076-3.608-9.752-6.281-2.77-2.768-5.902-5.811-9.207-8.012-6.628-4.415-12.168-10.114-18.7116-14.64-6.9947-4.838-17.9294-3.576-26.0377-6.726-7.6842-2.986-15.1248-5.697-22.3251-9.744-7.3268-4.117-13.8259-9.39-20.444-14.491-9.2267-7.111-13.4817-16.7-19.60254-26.2127-9.68021-15.045 3.66834-39.314 18.26594-46.0455 24.6209-11.3536 50.0094-15.3228 77.074-16.0739 8.397-.2331 16.702-.8903 25.146-.8903 10.067 0 19.965 1.7805 29.998 1.7805 7.38 0 15.098.4853 22.375 1.5827 6.902 1.041 13.934-.0239 20.889 1.0881 19.877 3.1776 39.106 7.1219 59.303 7.1219h14.256c4.001 0 10.692 1.8044 10.692-3.5609"/>
</svg>
