<svg xmlns="http://www.w3.org/2000/svg" fill="none">
  <symbol id="small-logo">
    <path fill="currentColor" d="m21.854 10.553 6.084-.624C27.002 4.196 20.84 1.31 14.483 1.31c-6.708 0-12.714 2.379-12.714 8.073 0 5.616 5.694 7.176 13.065 8.229 5.577.819 6.825 2.223 6.825 3.783 0 2.223-2.925 3.003-6.63 3.003-3.822 0-7.41-1.326-8.034-4.212l-6.084.624c.585 5.772 6.747 8.58 13.923 8.58 6.279 0 13.182-1.794 13.182-8.112 0-4.797-4.095-7.644-12.402-8.814-5.499-.819-7.527-1.56-7.527-3.354 0-2.067 2.808-2.847 6.162-2.847 4.095 0 6.591 1.56 7.605 4.29ZM45.289 9.11c-4.056 0-6.552 2.067-7.059 3.081h-.156V.919999h-5.811V29h5.811v-9.126c0-4.251 3.003-6.318 6.084-6.318 3.081 0 4.914 1.716 4.914 5.733V29h5.811V18.119c0-6.786-4.602-9.009-9.594-9.009Zm35.076 13.728v-4.914c0-6.981-5.811-8.814-11.115-8.814-4.758 0-9.672 1.911-10.53 5.967l5.928.663c.819-1.599 2.613-2.262 4.758-2.262 2.418 0 5.382 1.092 5.382 4.446v.702c-1.872-1.053-3.705-1.677-6.435-1.677-5.967 0-9.516 2.73-9.516 6.474 0 4.134 3.549 5.967 8.112 5.967 3.822 0 6.513-1.131 7.956-2.808h.156c.156.975.351 1.794.507 2.418h5.382v-.429c-.39-.858-.585-3.159-.585-5.733Zm-12.363 2.223c-1.872 0-3.471-.273-3.471-1.794 0-1.404 1.638-2.262 4.446-2.262 1.833 0 3.744.468 5.577 1.248-.858 2.223-4.056 2.808-6.552 2.808ZM90.785 29V.919999h-5.811V29h5.811Zm16.052.39c6.981 0 11.973-3.978 11.973-10.14 0-6.162-4.992-10.14-11.973-10.14-7.0595 0-11.9735 3.978-11.9735 10.14 0 6.162 4.914 10.14 11.9735 10.14Zm0-4.407c-3.744 0-6.084-2.613-6.084-5.733 0-3.12 2.34-5.733 6.084-5.733 3.705 0 6.084 2.613 6.084 5.733 0 3.12-2.379 5.733-6.084 5.733ZM148.846 9.11c-3.393 0-5.85 1.521-7.059 3.393h-.156c-1.443-2.184-4.017-3.393-6.591-3.393-3.276 0-5.421 1.248-6.474 3.081h-.156l.195-2.262V9.5h-5.85V29h5.85v-9.399c0-4.329 2.184-6.201 4.68-6.201 2.886 0 3.9 2.613 3.9 5.655V29h5.889v-9.243c0-4.329 2.145-6.396 4.641-6.396 3.003 0 3.939 2.847 3.939 5.694V29h5.85V17.846c0-5.928-3.939-8.736-8.658-8.736ZM16.199 68.39c8.658 0 15.327-5.226 15.327-14.04s-6.669-14.04-15.327-14.04C7.58 40.31.911 45.536.911 54.35S7.58 68.39 16.199 68.39Zm0-4.914c-5.109 0-9.243-3.51-9.243-9.126s4.134-9.165 9.243-9.165c5.148 0 9.282 3.549 9.282 9.165s-4.134 9.126-9.282 9.126ZM41.9207 68V39.92h-5.811V68h5.811Zm25.4951-6.162v-4.914c0-6.981-5.811-8.814-11.115-8.814-4.758 0-9.672 1.911-10.53 5.967l5.928.663c.819-1.599 2.613-2.262 4.758-2.262 2.418 0 5.382 1.092 5.382 4.446v.702c-1.872-1.053-3.705-1.677-6.435-1.677-5.967 0-9.516 2.73-9.516 6.474 0 4.134 3.549 5.967 8.112 5.967 3.822 0 6.513-1.131 7.956-2.808h.156c.156.975.351 1.794.507 2.418h5.382v-.429c-.39-.858-.585-3.159-.585-5.733Zm-12.363 2.223c-1.872 0-3.471-.273-3.471-1.794 0-1.404 1.638-2.262 4.446-2.262 1.833 0 3.744.468 5.577 1.248-.858 2.223-4.056 2.808-6.552 2.808ZM98.0777 48.11c-3.393 0-5.85 1.521-7.059 3.393h-.156c-1.443-2.184-4.017-3.393-6.591-3.393-3.276 0-5.421 1.248-6.474 3.081h-.156l.195-2.262V48.5h-5.85V68h5.85v-9.399c0-4.329 2.184-6.201 4.68-6.201 2.886 0 3.9 2.613 3.9 5.655V68h5.889v-9.243c0-4.329 2.145-6.396 4.641-6.396 3.003 0 3.9393 2.847 3.9393 5.694V68h5.85V56.846c0-5.928-3.939-8.736-8.6583-8.736Z"/>
  </symbol>
  <symbol id="large-logo">
    <path fill="currentColor" d="m108.2 49.4 31.2-3.2c-4.8-29.4-36.4-44.20001-69-44.20001C36 1.99999 5.2 14.2 5.2 43.4c0 28.8 29.2 36.8 67 42.2 28.6 4.2 35 11.4 35 19.4 0 11.4-15 15.4-34 15.4-19.6 0-38-6.8-41.2-21.6L.8 102c3 29.6 34.6 44 71.4 44 32.2 0 67.6-9.2 67.6-41.6 0-24.6-21-39.2-63.6-45.2C48 55 37.6 51.2 37.6 42c0-10.6 14.4-14.6 31.6-14.6 21 0 33.8 8 39 22ZM228.38 42c-20.8 0-33.6 10.6-36.2 15.8h-.8V-.00000572h-29.8V144h29.8V97.2c0-21.8 15.4-32.4 31.2-32.4 15.8 0 25.2 8.8 25.2 29.4V144h29.8V88.2c0-34.8-23.6-46.2-49.2-46.2Zm179.876 70.4V87.2c0-35.8-29.8-45.2-57-45.2-24.4 0-49.6 9.8-54 30.6l30.4 3.4c4.2-8.2 13.4-11.6 24.4-11.6 12.4 0 27.6 5.6 27.6 22.8v3.6c-9.6-5.4-19-8.6-33-8.6-30.6 0-48.8 14-48.8 33.2 0 21.2 18.2 30.6 41.6 30.6 19.6 0 33.4-5.8 40.8-14.4h.8c.8 5 1.8 9.2 2.6 12.4h27.6v-2.2c-2-4.4-3-16.2-3-29.4Zm-63.4 11.4c-9.6 0-17.8-1.4-17.8-9.2 0-7.2 8.4-11.6 22.8-11.6 9.4 0 19.2 2.4 28.6 6.4-4.4 11.4-20.8 14.4-33.6 14.4ZM461.692 144V-.00000572h-29.8V144h29.8Zm82.316 2c35.8 0 61.4-20.4 61.4-52s-25.6-52-61.4-52c-36.2 0-61.4 20.4-61.4 52s25.2 52 61.4 52Zm0-22.6c-19.2 0-31.2-13.4-31.2-29.4 0-16 12-29.4 31.2-29.4 19 0 31.2 13.4 31.2 29.4 0 16-12.2 29.4-31.2 29.4ZM759.442 42c-17.4 0-30 7.8-36.2 17.4h-.8c-7.4-11.2-20.6-17.4-33.8-17.4-16.8 0-27.8 6.4-33.2 15.8h-.8l1-11.6V44h-30v100h30V95.8c0-22.2 11.2-31.8 24-31.8 14.8 0 20 13.4 20 29v51h30.2V96.6c0-22.2 11-32.8 23.8-32.8 15.4 0 20.2 14.6 20.2 29.2v51h30V86.8c0-30.4-20.2-44.8-44.4-44.8ZM79.2 306c44.4 0 78.6-26.8 78.6-72s-34.2-72-78.6-72C35 162 .8 188.8.8 234s34.2 72 78.4 72Zm0-25.2c-26.2 0-47.4-18-47.4-46.8 0-28.8 21.2-47 47.4-47 26.4 0 47.6 18.2 47.6 47s-21.2 46.8-47.6 46.8ZM211.106 304V160h-29.8v144h29.8Zm130.744-31.6v-25.2c0-35.8-29.8-45.2-57-45.2-24.4 0-49.6 9.8-54 30.6l30.4 3.4c4.2-8.2 13.4-11.6 24.4-11.6 12.4 0 27.6 5.6 27.6 22.8v3.6c-9.6-5.4-19-8.6-33-8.6-30.6 0-48.8 14-48.8 33.2 0 21.2 18.2 30.6 41.6 30.6 19.6 0 33.4-5.8 40.8-14.4h.8c.8 5 1.8 9.2 2.6 12.4h27.6v-2.2c-2-4.4-3-16.2-3-29.4Zm-63.4 11.4c-9.6 0-17.8-1.4-17.8-9.2 0-7.2 8.4-11.6 22.8-11.6 9.4 0 19.2 2.4 28.6 6.4-4.4 11.4-20.8 14.4-33.6 14.4ZM499.091 202c-17.4 0-30 7.8-36.2 17.4h-.8c-7.4-11.2-20.6-17.4-33.8-17.4-16.8 0-27.8 6.4-33.2 15.8h-.8l1-11.6V204h-30v100h30v-48.2c0-22.2 11.2-31.8 24-31.8 14.8 0 20 13.4 20 29v51h30.2v-47.4c0-22.2 11-32.8 23.8-32.8 15.4 0 20.2 14.6 20.2 29.2v51h30v-57.2c0-30.4-20.2-44.8-44.4-44.8Z"/>
  </symbol>

  <symbol id="star" viewBox="0 0 88 83">
    <path fill="#DE8E59" fill-rule="evenodd" d="M87.4668 39.6L58.2668 46.6L77.4669 69.4L59.6668 82.4L43.8668 57L28.0668 82.4L10.0668 69.4L29.4668 46.6L0.466797 39.6L7.26685 18.4L34.8668 29.8L32.6668 0H54.8668L52.6668 29.8L80.4668 18.4L87.4668 39.6Z" clip-rule="evenodd"/>
  </symbol>
</svg>