<svg xmlns="http://www.w3.org/2000/svg" width="292" height="107" fill="none">
  <path fill="#E2D2BB" d="M5.587 15.254v.726-.726ZM21.56 47h-4.884v-8.844a294.53 294.53 0 0 0-.132-3.96c0-1.1-.044-2.002-.133-2.706-.044-1.276-.352-2.53-.924-3.762-.616-1.32-1.54-2.53-2.771-3.63a4.956 4.956 0 0 1-.528-.462 2.298 2.298 0 0 0-.463-.462c-1.451-1.32-2.618-2.53-3.498-3.63-.88-1.1-1.694-2.42-2.442-3.96-.132-.176-.198-.286-.198-.33v-.132.132c-.088-.088-.132.044-.132.396.044.308.088.418.132.33V47H.703V.8h4.884v2.904c.264 4.268.77 7.634 1.518 10.098.748 2.42 1.562 4.136 2.442 5.148.264.352.595.66.99.924 1.056-.572 1.914-1.232 2.574-1.98a10.029 10.029 0 0 0 1.584-2.64 14.01 14.01 0 0 0 .858-3.102 41.46 41.46 0 0 0 .528-3.696c.133-1.672.265-3.08.396-4.224.177-1.144.485-2.288.924-3.432h6.997c-1.276.748-2.2 1.672-2.773 2.772-.527 1.1-.99 2.574-1.386 4.422-.527 2.288-1.1 4.202-1.716 5.742-.572 1.54-1.407 2.992-2.508 4.356a13.753 13.753 0 0 1-1.914 1.716c-.616.484-1.364.902-2.244 1.254.353.264.705.55 1.057.858.351.308.726.594 1.122.858 1.98 1.54 3.586 3.256 4.818 5.148 1.232 1.892 1.98 3.784 2.244 5.676.308 1.672.462 4.312.462 7.92V47ZM43.358.668 48.242.8V47h-4.884V26.21a4.822 4.822 0 0 0-1.255-.66c-.44-.176-.836-.264-1.188-.264-.835 0-1.517.264-2.045.792s-.792 1.232-.792 2.112c0 .484.285 1.496.857 3.036l-4.95-2.97c.748 2.86 1.123 5.434 1.123 7.722 0 3.476-.836 7.15-2.508 11.022H26a29.068 29.068 0 0 0 4.422-7.59c1.1-2.772 1.65-5.698 1.65-8.778 0-3.96-.947-7.986-2.839-12.078-1.54-3.3-2.31-6.182-2.31-8.646 0-3.036 1.013-5.324 3.037-6.864C32.027 1.46 35.13.668 39.265.668h4.092ZM30.686 13.67c0 1.54.241 3.344.726 5.412.483 2.024 1.166 4.422 2.046 7.194.087.308.154.594.198.858l.264.792c.087-1.54.615-2.75 1.584-3.63 1.012-.924 2.221-1.386 3.63-1.386 1.54 0 2.947.462 4.224 1.386V2.252c-2.156 0-4.158.33-6.006.99a8.867 8.867 0 0 0-4.488 3.3c-1.452 1.98-2.178 4.356-2.178 7.128Zm28.01 1.584v.726-.726ZM74.67 47h-4.884v-8.844a294.53 294.53 0 0 0-.132-3.96c0-1.1-.044-2.002-.132-2.706-.044-1.276-.352-2.53-.924-3.762-.616-1.32-1.54-2.53-2.772-3.63a4.956 4.956 0 0 1-.528-.462 2.298 2.298 0 0 0-.462-.462c-1.452-1.32-2.618-2.53-3.498-3.63-.88-1.1-1.694-2.42-2.442-3.96-.132-.176-.198-.286-.198-.33v-.132.132c-.088-.088-.132.044-.132.396.044.308.088.418.132.33V47h-4.884V.8h4.884v2.904c.264 4.268.77 7.634 1.518 10.098.748 2.42 1.562 4.136 2.442 5.148.264.352.594.66.99.924 1.056-.572 1.914-1.232 2.574-1.98a10.029 10.029 0 0 0 1.584-2.64 14.01 14.01 0 0 0 .858-3.102 41.46 41.46 0 0 0 .528-3.696c.132-1.672.264-3.08.396-4.224.176-1.144.484-2.288.924-3.432h6.996c-1.276.748-2.2 1.672-2.772 2.772-.528 1.1-.99 2.574-1.386 4.422-.528 2.288-1.1 4.202-1.716 5.742-.572 1.54-1.408 2.992-2.508 4.356a13.753 13.753 0 0 1-1.914 1.716c-.616.484-1.364.902-2.244 1.254.352.264.704.55 1.056.858.352.308.726.594 1.122.858 1.98 1.54 3.586 3.256 4.818 5.148 1.232 1.892 1.98 3.784 2.244 5.676.308 1.672.462 4.312.462 7.92V47Zm43.723-6.468c-2.728 4.356-5.918 6.534-9.57 6.534-2.552.088-4.84-.594-6.864-2.046-1.98-1.496-3.652-3.476-5.016-5.94-1.364-2.464-2.398-5.258-3.102-8.382a44.177 44.177 0 0 1-.924-9.636c.132-2.2.418-4.51.858-6.93.44-2.464 1.166-4.708 2.178-6.732s2.354-3.696 4.026-5.016c1.716-1.32 3.894-1.98 6.534-1.98 2.948 0 5.566 1.078 7.854 3.234 2.332 2.112 4.18 4.95 5.544 8.514.792 2.068 1.342 4.334 1.65 6.798.308 2.464.374 4.972.198 7.524a37.986 37.986 0 0 1-1.122 7.392c-.572 2.42-1.342 4.642-2.31 6.666h.066Zm-7.458 3.168c1.716.044 3.08-.418 4.092-1.386 1.056-.968 1.848-2.156 2.376-3.564.528-1.452.858-2.97.99-4.554.176-1.628.264-3.08.264-4.356 0-2.684-.33-5.346-.99-7.986a54.915 54.915 0 0 0-2.508-7.92c-1.188-2.86-2.618-5.302-4.29-7.326-1.628-2.024-3.432-3.212-5.412-3.564-1.496-.264-2.772-.176-3.828.264a6.653 6.653 0 0 0-2.574 1.98c-.66.88-1.166 1.958-1.518 3.234a26.508 26.508 0 0 0-.792 3.894 42.457 42.457 0 0 0-.198 4.092c.044 1.364.11 2.596.198 3.696a41.56 41.56 0 0 0 1.452 8.514c.792 2.816 1.804 5.346 3.036 7.59 1.276 2.244 2.728 4.07 4.356 5.478 1.628 1.364 3.41 2.002 5.346 1.914Zm39.939-12.078v10.494c-.308.396-.748.88-1.32 1.452-.572.528-1.276 1.056-2.112 1.584-.792.528-1.738.99-2.838 1.386-1.056.396-2.266.594-3.63.594v-.066c-3.828-.132-6.974-1.672-9.438-4.62-1.232-1.496-2.288-3.234-3.168-5.214a33.507 33.507 0 0 1-2.046-6.138c-.572-2.464-.858-5.192-.858-8.184 0-2.816.33-5.632.99-8.448.66-2.816 1.672-5.302 3.036-7.458 1.408-2.156 3.168-3.806 5.28-4.95 2.156-1.188 4.708-1.54 7.656-1.056 1.848.308 3.498.902 4.95 1.782 1.496.836 2.42 1.826 2.772 2.97l.132 8.514-1.056.066c-.044-1.628-.506-3.278-1.386-4.95-.836-1.716-1.914-3.146-3.234-4.29-1.32-1.188-2.772-1.98-4.356-2.376-1.54-.396-3.058-.132-4.554.792-.924.572-1.694 1.408-2.31 2.508-.616 1.056-1.122 2.266-1.518 3.63a31.948 31.948 0 0 0-.792 4.356 37.826 37.826 0 0 0-.264 4.422c0 1.98.088 3.916.264 5.808a70.5 70.5 0 0 0 .792 5.808v-.066c.836 4.136 2.112 7.81 3.828 11.022 1.452 2.816 3.366 4.312 5.742 4.488 1.584-.22 2.86-.726 3.828-1.518s1.738-1.804 2.31-3.036c.616-1.232 1.078-2.64 1.386-4.224.308-1.584.594-3.3.858-5.148l1.056.066Zm27.293 4.884c0 1.408-.264 2.75-.792 4.026a9.913 9.913 0 0 1-2.112 3.366 9.815 9.815 0 0 1-3.168 2.31c-1.188.528-2.508.792-3.96.792-1.76 0-3.322-.418-4.686-1.254-1.364-.88-2.42-1.958-3.168-3.234v-2.376c1.012 1.54 2.068 2.684 3.168 3.432 1.144.748 2.244 1.122 3.3 1.122.396 0 1.078-.11 2.046-.33 1.408-.396 2.486-1.276 3.234-2.64.748-1.408 1.122-3.036 1.122-4.884 0-1.1-.088-1.936-.264-2.508-.616-2.684-1.584-5.016-2.904-6.996-1.276-2.024-3.014-4.092-5.214-6.204a214.773 214.773 0 0 0-1.65-1.518c-.44-.44-.858-.88-1.254-1.32l-1.056-1.32c-.308-.44-.638-.968-.99-1.584V47h-4.884V.8h4.488a10.26 10.26 0 0 1 2.046-.066 36.82 36.82 0 0 0 1.98.066c3.608 0 6.468.594 8.58 1.782 2.112 1.144 3.366 3.102 3.762 5.874V8.39c.044.132.066.308.066.528v.726c0 2.464-.88 4.84-2.64 7.128a18.845 18.845 0 0 1-2.574 2.706c-.88.748-1.826 1.43-2.838 2.046.22.22.528.462.924.726.44.264.968.594 1.584.99h-.066a18.234 18.234 0 0 1 4.752 4.62c1.364 1.716 2.288 3.564 2.772 5.544.264 1.012.396 2.046.396 3.102Zm-12.342-16.434c.088.088.198.176.33.264.176.088.33.176.462.264 1.1-.88 2.09-2.024 2.97-3.432a12.003 12.003 0 0 0 1.65-6.138c0-2.156-.572-4.048-1.716-5.676-1.1-1.628-2.64-2.618-4.62-2.97a17.344 17.344 0 0 0-2.574-.198h-1.056a8.002 8.002 0 0 0-1.452 0v.528c.044 2.464.154 4.576.33 6.336.176 1.716.462 3.234.858 4.554a12.69 12.69 0 0 0 1.782 3.432c.792 1.012 1.804 2.024 3.036 3.036Zm41.32 20.46c-2.728 4.356-5.918 6.534-9.57 6.534-2.552.088-4.84-.594-6.864-2.046-1.98-1.496-3.652-3.476-5.016-5.94-1.364-2.464-2.398-5.258-3.102-8.382a44.177 44.177 0 0 1-.924-9.636c.132-2.2.418-4.51.858-6.93.44-2.464 1.166-4.708 2.178-6.732s2.354-3.696 4.026-5.016c1.716-1.32 3.894-1.98 6.534-1.98 2.948 0 5.566 1.078 7.854 3.234 2.332 2.112 4.18 4.95 5.544 8.514.792 2.068 1.342 4.334 1.65 6.798.308 2.464.374 4.972.198 7.524a37.986 37.986 0 0 1-1.122 7.392c-.572 2.42-1.342 4.642-2.31 6.666h.066Zm-7.458 3.168c1.716.044 3.08-.418 4.092-1.386 1.056-.968 1.848-2.156 2.376-3.564.528-1.452.858-2.97.99-4.554.176-1.628.264-3.08.264-4.356 0-2.684-.33-5.346-.99-7.986a54.915 54.915 0 0 0-2.508-7.92c-1.188-2.86-2.618-5.302-4.29-7.326-1.628-2.024-3.432-3.212-5.412-3.564-1.496-.264-2.772-.176-3.828.264a6.652 6.652 0 0 0-2.574 1.98c-.66.88-1.166 1.958-1.518 3.234a26.508 26.508 0 0 0-.792 3.894 42.457 42.457 0 0 0-.198 4.092c.044 1.364.11 2.596.198 3.696a41.56 41.56 0 0 0 1.452 8.514c.792 2.816 1.804 5.346 3.036 7.59 1.276 2.244 2.728 4.07 4.356 5.478 1.628 1.364 3.41 2.002 5.346 1.914ZM231.309.8h4.884V47h-4.884V9.908l-11.55 31.68V47h-4.884V.8h4.884v36.168l11.55-32.142V.8Zm10.07 0h23.034l2.178 8.778h-1.518c-.528-1.408-1.056-2.552-1.584-3.432-.484-.88-1.078-1.584-1.782-2.112-.66-.528-1.496-.902-2.508-1.122-1.012-.264-2.266-.462-3.762-.594V47h-4.884V2.252c-1.584.132-2.882.33-3.894.594-1.012.22-1.87.594-2.574 1.122-.704.484-1.298 1.188-1.782 2.112-.484.88-.99 2.046-1.518 3.498h-1.584L241.379.8Zm33.877-.132v13.398a32.74 32.74 0 0 0 3.366 4.62 249.54 249.54 0 0 1 3.894 4.422l1.782 2.046c.352.44.682.858.99 1.254l.924 1.056c.352.44.682.858.99 1.254.352.396.638.748.858 1.056.792 1.056 1.518 2.31 2.178 3.762.66 1.408.99 2.838.99 4.29 0 6.072-4.114 9.108-12.342 9.108-.528 0-1.188.022-1.98.066-.748 0-1.43-.044-2.046-.132h-4.488V.668h4.884Zm4.95 22.704a100.518 100.518 0 0 0-2.706-3.366 70.212 70.212 0 0 1-2.244-2.904v28.314a18.49 18.49 0 0 0 4.092-.198c1.408-.22 2.552-.572 3.432-1.056a5.633 5.633 0 0 0 2.31-2.442c.572-1.056.946-2.398 1.122-4.026.044-.132.066-.462.066-.99 0-1.452-.33-3.036-.99-4.752-.616-1.716-1.518-3.432-2.706-5.148-.088-.088-.242-.308-.462-.66-.22-.352-.55-.836-.99-1.452l-.396-.66a3.47 3.47 0 0 0-.528-.66ZM48.984 59.8V106H44.1V71.35a59.673 59.673 0 0 1-2.046 3.498c-.704 1.144-1.452 2.354-2.244 3.63a127.037 127.037 0 0 0-3.168 5.346c-.88 1.54-1.584 2.97-2.112 4.29l.066-.066c-.22.792-.484 1.672-.792 2.64-.264.924-.506 1.76-.726 2.508h-1.32L20.736 63.298l.198 18.348c.088 2.508.198 4.708.33 6.6.132 1.892.264 3.454.396 4.686.44 2.772 1.034 5.324 1.782 7.656.792 2.288 1.562 4.092 2.31 5.412h-6.336V59.998h.132l-.066-.198h5.676l8.976 25.542.99-1.98c.396-.748.858-1.562 1.386-2.442a81.06 81.06 0 0 0 2.442-4.752 113.732 113.732 0 0 0 2.046-4.29c.528-1.408 1.056-3.124 1.584-5.148A114.233 114.233 0 0 0 44.1 59.8h4.884Zm9.162 44.748c1.936-.132 3.586-.308 4.95-.528 1.364-.264 2.53-.638 3.498-1.122a7.992 7.992 0 0 0 2.574-2.112c.704-.924 1.364-2.112 1.98-3.564H72.6L70.356 106h-17.16V59.8h17.82l2.244 8.778h-1.452c-.616-1.496-1.232-2.684-1.848-3.564a5.74 5.74 0 0 0-2.244-2.112c-.924-.484-2.112-.836-3.564-1.056-1.32-.176-3.322-.352-6.006-.528v17.688a5.456 5.456 0 0 1 1.914-1.056c.704-.264 1.386-.396 2.046-.396 1.408 0 2.618.484 3.63 1.452 1.056.924 1.672 2.266 1.848 4.026l-3.894 3.036c.132-1.672-.176-3.014-.924-4.026-.704-1.056-1.562-1.584-2.574-1.584-.792 0-1.474.264-2.046.792v23.298Zm43.775-13.926v10.494c-.308.396-.748.88-1.32 1.452-.572.528-1.276 1.056-2.112 1.584-.792.528-1.738.99-2.838 1.386-1.056.396-2.266.594-3.63.594v-.066c-3.828-.132-6.974-1.672-9.438-4.62-1.232-1.496-2.288-3.234-3.168-5.214a33.507 33.507 0 0 1-2.046-6.138c-.572-2.464-.858-5.192-.858-8.184 0-2.816.33-5.632.99-8.448.66-2.816 1.672-5.302 3.036-7.458 1.408-2.156 3.168-3.806 5.28-4.95 2.156-1.188 4.708-1.54 7.656-1.056 1.848.308 3.498.902 4.95 1.782 1.496.836 2.42 1.826 2.772 2.97l.132 8.514-1.056.066c-.044-1.628-.506-3.278-1.386-4.95-.836-1.716-1.914-3.146-3.234-4.29-1.32-1.188-2.772-1.98-4.356-2.376-1.54-.396-3.058-.132-4.554.792-.924.572-1.694 1.408-2.31 2.508-.616 1.056-1.122 2.266-1.518 3.63A31.948 31.948 0 0 0 82.12 73a37.826 37.826 0 0 0-.264 4.422c0 1.98.088 3.916.264 5.808a70.5 70.5 0 0 0 .792 5.808v-.066c.836 4.136 2.112 7.81 3.828 11.022 1.452 2.816 3.366 4.312 5.742 4.488 1.584-.22 2.86-.726 3.828-1.518s1.738-1.804 2.31-3.036c.616-1.232 1.078-2.64 1.386-4.224.308-1.584.594-3.3.858-5.148l1.056.066Zm4.654-30.822h23.034l2.178 8.778h-1.518c-.528-1.408-1.056-2.552-1.584-3.432-.484-.88-1.078-1.584-1.782-2.112-.66-.528-1.496-.902-2.508-1.122-1.012-.264-2.266-.462-3.762-.594V106h-4.884V61.252c-1.584.132-2.882.33-3.894.594-1.012.22-1.87.594-2.574 1.122-.704.484-1.298 1.188-1.782 2.112-.484.88-.99 2.046-1.518 3.498h-1.584l2.178-8.778Zm44.636 0h4.884V106h-4.884V84.154l-11.55-.066V106h-4.884V59.8h4.884v22.704l11.55-.066V59.8Zm33.858 39.732c-2.728 4.356-5.918 6.534-9.57 6.534-2.552.088-4.84-.594-6.864-2.046-1.98-1.496-3.652-3.476-5.016-5.94-1.364-2.464-2.398-5.258-3.102-8.382a44.177 44.177 0 0 1-.924-9.636c.132-2.2.418-4.51.858-6.93.44-2.464 1.166-4.708 2.178-6.732s2.354-3.696 4.026-5.016c1.716-1.32 3.894-1.98 6.534-1.98 2.948 0 5.566 1.078 7.854 3.234 2.332 2.112 4.18 4.95 5.544 8.514.792 2.068 1.342 4.334 1.65 6.798.308 2.464.374 4.972.198 7.524a37.986 37.986 0 0 1-1.122 7.392c-.572 2.42-1.342 4.642-2.31 6.666h.066Zm-7.458 3.168c1.716.044 3.08-.418 4.092-1.386 1.056-.968 1.848-2.156 2.376-3.564.528-1.452.858-2.97.99-4.554.176-1.628.264-3.08.264-4.356 0-2.684-.33-5.346-.99-7.986a54.915 54.915 0 0 0-2.508-7.92c-1.188-2.86-2.618-5.302-4.29-7.326-1.628-2.024-3.432-3.212-5.412-3.564-1.496-.264-2.772-.176-3.828.264a6.652 6.652 0 0 0-2.574 1.98c-.66.88-1.166 1.958-1.518 3.234a26.508 26.508 0 0 0-.792 3.894 42.457 42.457 0 0 0-.198 4.092c.044 1.364.11 2.596.198 3.696a41.56 41.56 0 0 0 1.452 8.514c.792 2.816 1.804 5.346 3.036 7.59 1.276 2.244 2.728 4.07 4.356 5.478 1.628 1.364 3.41 2.002 5.346 1.914Zm39.939-12.078v10.494c-.308.396-.748.88-1.32 1.452-.572.528-1.276 1.056-2.112 1.584-.792.528-1.738.99-2.838 1.386-1.056.396-2.266.594-3.63.594v-.066c-3.828-.132-6.974-1.672-9.438-4.62-1.232-1.496-2.288-3.234-3.168-5.214a33.507 33.507 0 0 1-2.046-6.138c-.572-2.464-.858-5.192-.858-8.184 0-2.816.33-5.632.99-8.448.66-2.816 1.672-5.302 3.036-7.458 1.408-2.156 3.168-3.806 5.28-4.95 2.156-1.188 4.708-1.54 7.656-1.056 1.848.308 3.498.902 4.95 1.782 1.496.836 2.42 1.826 2.772 2.97l.132 8.514-1.056.066c-.044-1.628-.506-3.278-1.386-4.95-.836-1.716-1.914-3.146-3.234-4.29-1.32-1.188-2.772-1.98-4.356-2.376-1.54-.396-3.058-.132-4.554.792-.924.572-1.694 1.408-2.31 2.508-.616 1.056-1.122 2.266-1.518 3.63A31.948 31.948 0 0 0 197.75 73a37.826 37.826 0 0 0-.264 4.422c0 1.98.088 3.916.264 5.808a70.5 70.5 0 0 0 .792 5.808v-.066c.836 4.136 2.112 7.81 3.828 11.022 1.452 2.816 3.366 4.312 5.742 4.488 1.584-.22 2.86-.726 3.828-1.518s1.738-1.804 2.31-3.036c.616-1.232 1.078-2.64 1.386-4.224.308-1.584.594-3.3.858-5.148l1.056.066Zm4.654-30.822h23.034l2.178 8.778h-1.518c-.528-1.408-1.056-2.552-1.584-3.432-.484-.88-1.078-1.584-1.782-2.112-.66-.528-1.496-.902-2.508-1.122-1.012-.264-2.266-.462-3.762-.594V106h-4.884V61.252c-1.584.132-2.882.33-3.894.594-1.012.22-1.87.594-2.574 1.122-.704.484-1.298 1.188-1.782 2.112-.484.88-.99 2.046-1.518 3.498h-1.584l2.178-8.778Zm33.877-.132v13.398a32.74 32.74 0 0 0 3.366 4.62 249.54 249.54 0 0 1 3.894 4.422l1.782 2.046c.352.44.682.858.99 1.254l.924 1.056c.352.44.682.858.99 1.254.352.396.638.748.858 1.056.792 1.056 1.518 2.31 2.178 3.762.66 1.408.99 2.838.99 4.29 0 6.072-4.114 9.108-12.342 9.108-.528 0-1.188.022-1.98.066-.748 0-1.43-.044-2.046-.132h-4.488v-46.2h4.884Zm4.95 22.704a100.518 100.518 0 0 0-2.706-3.366 70.212 70.212 0 0 1-2.244-2.904v28.314a18.49 18.49 0 0 0 4.092-.198c1.408-.22 2.552-.572 3.432-1.056a5.633 5.633 0 0 0 2.31-2.442c.572-1.056.946-2.398 1.122-4.026.044-.132.066-.462.066-.99 0-1.452-.33-3.036-.99-4.752-.616-1.716-1.518-3.432-2.706-5.148-.088-.088-.242-.308-.462-.66-.22-.352-.55-.836-.99-1.452l-.396-.66a3.47 3.47 0 0 0-.528-.66Z"/>
</svg>
