<svg xmlns="http://www.w3.org/2000/svg" width="382" height="141" fill="none">
  <path fill="#E2D2BB" d="M28.127 20.614V7.762c0-1.08-.162-2.088-.486-3.024-.324-.936-.9-1.782-1.728-2.538h11.448c-.828.756-1.404 1.602-1.728 2.538a9.183 9.183 0 0 0-.486 3.024v26.676c0 1.08.162 2.088.486 3.024.324.936.9 1.782 1.728 2.538H25.913c.828-.756 1.404-1.602 1.728-2.538a9.183 9.183 0 0 0 .486-3.024V21.91c-1.044.36-2.196.54-3.456.54-1.512 0-2.934-.216-4.266-.648a9.247 9.247 0 0 1-3.402-1.998c-.936-.936-1.674-2.106-2.214-3.51-.504-1.44-.738-3.168-.702-5.184V7.762c0-1.08-.162-2.088-.486-3.024-.324-.936-.9-1.782-1.728-2.538h11.448c-.828.756-1.404 1.602-1.728 2.538a9.183 9.183 0 0 0-.486 3.024v5.508c-.144 2.592.252 4.608 1.188 6.048.936 1.404 2.52 1.944 4.752 1.62.36-.072.72-.18 1.08-.324Zm33.485-3.024a74.834 74.834 0 0 0-1.566-4.806 41.487 41.487 0 0 0-1.728-4.32c-.612-1.332-1.26-2.466-1.944-3.402-.684-.936-1.368-1.548-2.052-1.836v31.212c0 1.08.162 2.088.486 3.024.324.936.9 1.782 1.728 2.538H45.088c.828-.756 1.404-1.602 1.728-2.538a9.183 9.183 0 0 0 .486-3.024V3.226c-.72.288-1.422.9-2.106 1.836-.648.936-1.296 2.07-1.944 3.402a41.487 41.487 0 0 0-1.728 4.32 106.466 106.466 0 0 0-1.512 4.806l-.432-.054.54-15.336h21.384l.54 15.336-.432.054Zm2.955 2.97c0-6.156 1.098-10.836 3.294-14.04 2.196-3.24 5.148-4.86 8.856-4.86 1.836 0 3.492.504 4.968 1.512 1.512 1.008 2.79 2.412 3.834 4.212 1.08 1.764 1.908 3.87 2.484 6.318.576 2.448.864 5.094.864 7.938 0 6.156-1.098 10.854-3.294 14.094-2.196 3.204-5.148 4.806-8.856 4.806a8.86 8.86 0 0 1-5.022-1.512c-1.476-1.008-2.754-2.394-3.834-4.158-1.044-1.8-1.854-3.924-2.43-6.372-.576-2.448-.864-5.094-.864-7.938Zm5.67-11.124c0 2.232.126 4.5.378 6.804a76.318 76.318 0 0 0 1.134 6.696 65.178 65.178 0 0 0 1.62 6.102c.648 1.908 1.332 3.582 2.052 5.022.756 1.404 1.53 2.52 2.322 3.348.792.792 1.584 1.188 2.376 1.188 2.052-.072 3.078-2.016 3.078-5.832 0-2.232-.144-4.5-.432-6.804a64.963 64.963 0 0 0-1.08-6.696 61.163 61.163 0 0 0-1.62-6.048c-.612-1.908-1.296-3.564-2.052-4.968-.72-1.44-1.476-2.574-2.268-3.402-.792-.828-1.584-1.242-2.376-1.242-1.044 0-1.836.504-2.376 1.512-.504.972-.756 2.412-.756 4.32ZM127.34 2.2c-.828.756-1.404 1.602-1.728 2.538a9.183 9.183 0 0 0-.486 3.024v26.676c0 1.08.162 2.088.486 3.024.324.936.9 1.782 1.728 2.538h-11.448c.828-.756 1.404-1.602 1.728-2.538a9.183 9.183 0 0 0 .486-3.024V3.28h-7.074l.054 31.158c0 1.08.162 2.088.486 3.024.324.936.9 1.782 1.728 2.538h-11.448c.828-.756 1.404-1.602 1.728-2.538a9.183 9.183 0 0 0 .486-3.024V7.762c0-1.08-.162-2.088-.486-3.024-.324-.936-.9-1.782-1.728-2.538h25.488Zm2.144 18.36c0-6.156 1.098-10.836 3.294-14.04 2.196-3.24 5.148-4.86 8.856-4.86 1.836 0 3.492.504 4.968 1.512 1.512 1.008 2.79 2.412 3.834 4.212 1.08 1.764 1.908 3.87 2.484 6.318.576 2.448.864 5.094.864 7.938 0 6.156-1.098 10.854-3.294 14.094-2.196 3.204-5.148 4.806-8.856 4.806a8.86 8.86 0 0 1-5.022-1.512c-1.476-1.008-2.754-2.394-3.834-4.158-1.044-1.8-1.854-3.924-2.43-6.372-.576-2.448-.864-5.094-.864-7.938Zm5.67-11.124c0 2.232.126 4.5.378 6.804a76.318 76.318 0 0 0 1.134 6.696 65.178 65.178 0 0 0 1.62 6.102c.648 1.908 1.332 3.582 2.052 5.022.756 1.404 1.53 2.52 2.322 3.348.792.792 1.584 1.188 2.376 1.188 2.052-.072 3.078-2.016 3.078-5.832 0-2.232-.144-4.5-.432-6.804a64.963 64.963 0 0 0-1.08-6.696 61.163 61.163 0 0 0-1.62-6.048c-.612-1.908-1.296-3.564-2.052-4.968-.72-1.44-1.476-2.574-2.268-3.402-.792-.828-1.584-1.242-2.376-1.242-1.044 0-1.836.504-2.376 1.512-.504.972-.756 2.412-.756 4.32Zm20.803 11.232c0-2.916.27-5.544.81-7.884.576-2.376 1.386-4.374 2.43-5.994 1.044-1.656 2.304-2.934 3.78-3.834 1.512-.9 3.222-1.35 5.13-1.35 1.044 0 2.034.144 2.97.432.936.252 1.818.54 2.646.864a2.8 2.8 0 0 0 1.62.162 3.58 3.58 0 0 0 1.512-.648l-1.026 14.688-.378-.054a46.164 46.164 0 0 0-1.728-4.644c-.648-1.62-1.404-3.078-2.268-4.374-.864-1.332-1.836-2.43-2.916-3.294-1.08-.864-2.286-1.296-3.618-1.296-.612 0-1.134.18-1.566.54-.432.36-.792.864-1.08 1.512-.252.612-.45 1.332-.594 2.16a20.937 20.937 0 0 0-.162 2.7c0 3.096.198 6.102.594 9.018.432 2.916 1.062 5.508 1.89 7.776.828 2.232 1.854 4.032 3.078 5.4 1.224 1.332 2.664 1.998 4.32 1.998 1.62 0 2.898-.864 3.834-2.592.972-1.764 1.656-4.518 2.052-8.262l.594.054c-.18 2.808-.486 5.256-.918 7.344-.432 2.088-1.044 3.834-1.836 5.238-.792 1.404-1.8 2.466-3.024 3.186-1.188.684-2.61 1.026-4.266 1.026-1.728 0-3.312-.522-4.752-1.566s-2.7-2.466-3.78-4.266c-1.044-1.8-1.872-3.906-2.484-6.318-.576-2.412-.864-4.986-.864-7.722ZM180.643 40 183.505.85h.432l12.474 23.544L206.185.85h.54L209.587 40h-9.396c1.332-1.08 1.944-2.502 1.836-4.266l-1.188-18.9-7.02 16.902h-.432l-9.774-18.522-.432 5.994c-.144 2.052-.108 3.924.108 5.616a17.16 17.16 0 0 0 1.296 4.752 18.357 18.357 0 0 0 2.7 4.104c1.116 1.296 2.484 2.592 4.104 3.888l-.054.432h-10.692Zm31.422-19.44c0-6.156 1.098-10.836 3.294-14.04 2.196-3.24 5.148-4.86 8.856-4.86 1.836 0 3.492.504 4.968 1.512 1.512 1.008 2.79 2.412 3.834 4.212 1.08 1.764 1.908 3.87 2.484 6.318.576 2.448.864 5.094.864 7.938 0 6.156-1.098 10.854-3.294 14.094-2.196 3.204-5.148 4.806-8.856 4.806a8.86 8.86 0 0 1-5.022-1.512c-1.476-1.008-2.754-2.394-3.834-4.158-1.044-1.8-1.854-3.924-2.43-6.372-.576-2.448-.864-5.094-.864-7.938Zm5.67-11.124c0 2.232.126 4.5.378 6.804a76.318 76.318 0 0 0 1.134 6.696 65.178 65.178 0 0 0 1.62 6.102c.648 1.908 1.332 3.582 2.052 5.022.756 1.404 1.53 2.52 2.322 3.348.792.792 1.584 1.188 2.376 1.188 2.052-.072 3.078-2.016 3.078-5.832 0-2.232-.144-4.5-.432-6.804a64.963 64.963 0 0 0-1.08-6.696 61.163 61.163 0 0 0-1.62-6.048c-.612-1.908-1.296-3.564-2.052-4.968-.72-1.44-1.476-2.574-2.268-3.402-.792-.828-1.584-1.242-2.376-1.242-1.044 0-1.836.504-2.376 1.512-.504.972-.756 2.412-.756 4.32Zm43.213 8.154a74.834 74.834 0 0 0-1.566-4.806 41.487 41.487 0 0 0-1.728-4.32c-.612-1.332-1.26-2.466-1.944-3.402-.684-.936-1.368-1.548-2.052-1.836v31.212c0 1.08.162 2.088.486 3.024.324.936.9 1.782 1.728 2.538h-11.448c.828-.756 1.404-1.602 1.728-2.538a9.183 9.183 0 0 0 .486-3.024V3.226c-.72.288-1.422.9-2.106 1.836-.648.936-1.296 2.07-1.944 3.402a41.487 41.487 0 0 0-1.728 4.32 106.466 106.466 0 0 0-1.512 4.806l-.432-.054.54-15.336h21.384l.54 15.336-.432.054ZM274.325 2.2c1.476 0 2.88.18 4.212.54 1.368.324 2.556.9 3.564 1.728 1.044.828 1.854 1.926 2.43 3.294.612 1.368.918 3.078.918 5.13 0 1.692-.27 3.294-.81 4.806-.504 1.512-1.278 2.772-2.322 3.78-1.008 1.008-2.286 1.71-3.834 2.106-1.548.36-3.33.234-5.346-.378v11.232c0 1.08.162 2.088.486 3.024.324.936.9 1.782 1.728 2.538h-11.448c.828-.756 1.404-1.602 1.728-2.538a9.183 9.183 0 0 0 .486-3.024V7.762c0-1.08-.162-2.088-.486-3.024-.324-.936-.9-1.782-1.728-2.538h10.422Zm-1.188 19.872c1.836.216 3.15-.414 3.942-1.89.828-1.476 1.242-3.816 1.242-7.02 0-3.204-.396-5.67-1.188-7.398-.792-1.728-2.124-2.592-3.996-2.592v18.9Zm34.307-4.806a48.503 48.503 0 0 0-1.836-4.86c-.648-1.584-1.386-3.006-2.214-4.266-.828-1.26-1.764-2.322-2.808-3.186a8.37 8.37 0 0 0-3.402-1.782v15.39l5.076-7.02.378.054 1.188 17.064-.378.054-5.994-8.802-.27.108v18.954c1.08-.216 2.106-.72 3.078-1.512s1.854-1.782 2.646-2.97a24.346 24.346 0 0 0 2.214-3.942 39.099 39.099 0 0 0 1.782-4.59l.432.054L306.742 40H287.95c.828-.756 1.404-1.602 1.728-2.538a9.183 9.183 0 0 0 .486-3.024V7.762c0-1.08-.162-2.088-.486-3.024-.324-.936-.9-1.782-1.728-2.538h19.494l.432 15.012-.432.054Zm25.645.324a74.834 74.834 0 0 0-1.566-4.806 41.487 41.487 0 0 0-1.728-4.32c-.612-1.332-1.26-2.466-1.944-3.402-.684-.936-1.368-1.548-2.052-1.836v31.212c0 1.08.162 2.088.486 3.024.324.936.9 1.782 1.728 2.538h-11.448c.828-.756 1.404-1.602 1.728-2.538a9.183 9.183 0 0 0 .486-3.024V3.226c-.72.288-1.422.9-2.106 1.836-.648.936-1.296 2.07-1.944 3.402a41.487 41.487 0 0 0-1.728 4.32 106.466 106.466 0 0 0-1.512 4.806l-.432-.054.54-15.336h21.384l.54 15.336-.432.054Zm12.189 21.438c2.268 0 3.888-.828 4.86-2.484.972-1.656 1.458-4.104 1.458-7.344 0-1.656-.108-3.168-.324-4.536-.18-1.368-.522-2.538-1.026-3.51-.468-.972-1.116-1.728-1.944-2.268-.792-.576-1.8-.864-3.024-.864v21.006Zm0-22.032c1.512 0 3.06.198 4.644.594a12.433 12.433 0 0 1 4.374 1.998c1.296.9 2.358 2.106 3.186 3.618.828 1.512 1.242 3.348 1.242 5.508v.918c0 .36-.018.63-.054.81-.108 1.764-.486 3.258-1.134 4.482-.612 1.188-1.404 2.16-2.376 2.916-.972.756-2.106 1.314-3.402 1.674-1.296.324-2.682.486-4.158.486h-11.556c.828-.756 1.404-1.602 1.728-2.538a9.183 9.183 0 0 0 .486-3.024V7.762c0-1.08-.162-2.088-.486-3.024-.324-.936-.9-1.782-1.728-2.538h11.448c-.828.756-1.404 1.602-1.728 2.538a9.183 9.183 0 0 0-.486 3.024v9.234Zm16.954 19.926c0-1.08.342-1.926 1.026-2.538.72-.648 1.548-.972 2.484-.972.936 0 1.746.324 2.43.972.72.648 1.08 1.548 1.08 2.7 0 2.052-.612 3.96-1.836 5.724-1.224 1.8-2.862 3.186-4.914 4.158l-.216-.486a7.962 7.962 0 0 0 3.024-2.862c.792-1.188 1.314-2.322 1.566-3.402-.288.144-.666.216-1.134.216a3.724 3.724 0 0 1-2.484-.918c-.684-.648-1.026-1.512-1.026-2.592ZM16.947 69.614V56.762c0-1.08-.162-2.088-.486-3.024-.324-.936-.9-1.782-1.728-2.538h11.448c-.828.756-1.404 1.602-1.728 2.538a9.183 9.183 0 0 0-.486 3.024v26.676c0 1.08.162 2.088.486 3.024.324.936.9 1.782 1.728 2.538H14.733c.828-.756 1.404-1.602 1.728-2.538a9.183 9.183 0 0 0 .486-3.024V70.91c-1.044.36-2.196.54-3.456.54-1.512 0-2.934-.216-4.266-.648a9.247 9.247 0 0 1-3.402-1.998c-.936-.936-1.674-2.106-2.214-3.51-.504-1.44-.738-3.168-.702-5.184v-3.348c0-1.08-.162-2.088-.486-3.024-.324-.936-.9-1.782-1.728-2.538h11.448c-.828.756-1.404 1.602-1.728 2.538a9.183 9.183 0 0 0-.486 3.024v5.508c-.144 2.592.252 4.608 1.188 6.048.936 1.404 2.52 1.944 4.752 1.62.36-.072.72-.18 1.08-.324Zm33.485-3.024a74.834 74.834 0 0 0-1.566-4.806 41.487 41.487 0 0 0-1.728-4.32c-.612-1.332-1.26-2.466-1.944-3.402-.684-.936-1.368-1.548-2.052-1.836v31.212c0 1.08.162 2.088.486 3.024.324.936.9 1.782 1.728 2.538H33.908c.828-.756 1.404-1.602 1.728-2.538a9.183 9.183 0 0 0 .486-3.024V52.226c-.72.288-1.422.9-2.106 1.836-.648.936-1.296 2.07-1.944 3.402a41.487 41.487 0 0 0-1.728 4.32 106.466 106.466 0 0 0-1.512 4.806l-.432-.054.54-15.336h21.384l.54 15.336-.432.054Zm2.956 2.97c0-6.156 1.098-10.836 3.294-14.04 2.196-3.24 5.148-4.86 8.856-4.86 1.836 0 3.492.504 4.968 1.512 1.512 1.008 2.79 2.412 3.834 4.212 1.08 1.764 1.908 3.87 2.484 6.318.576 2.448.864 5.094.864 7.938 0 6.156-1.098 10.854-3.294 14.094-2.196 3.204-5.148 4.806-8.856 4.806a8.86 8.86 0 0 1-5.022-1.512c-1.476-1.008-2.754-2.394-3.834-4.158-1.044-1.8-1.854-3.924-2.43-6.372-.576-2.448-.864-5.094-.864-7.938Zm5.67-11.124c0 2.232.126 4.5.378 6.804a76.318 76.318 0 0 0 1.134 6.696 65.178 65.178 0 0 0 1.62 6.102c.648 1.908 1.332 3.582 2.052 5.022.756 1.404 1.53 2.52 2.322 3.348.792.792 1.584 1.188 2.376 1.188 2.052-.072 3.078-2.016 3.078-5.832 0-2.232-.144-4.5-.432-6.804a64.963 64.963 0 0 0-1.08-6.696 61.163 61.163 0 0 0-1.62-6.048c-.612-1.908-1.296-3.564-2.052-4.968-.72-1.44-1.476-2.574-2.268-3.402-.792-.828-1.584-1.242-2.376-1.242-1.044 0-1.836.504-2.376 1.512-.504.972-.756 2.412-.756 4.32Zm30.036 29.592c2.268 0 3.888-.828 4.86-2.484.972-1.656 1.458-4.104 1.458-7.344 0-1.656-.108-3.168-.324-4.536-.18-1.368-.522-2.538-1.026-3.51-.468-.972-1.116-1.728-1.944-2.268-.792-.576-1.8-.864-3.024-.864v21.006Zm0-35.91v13.878c1.512 0 3.06.198 4.644.594a12.433 12.433 0 0 1 4.374 1.998c1.296.9 2.358 2.106 3.186 3.618.828 1.512 1.242 3.348 1.242 5.508v.918c0 .36-.018.63-.054.81-.108 1.764-.486 3.258-1.134 4.482-.612 1.188-1.404 2.16-2.376 2.916-.972.756-2.106 1.314-3.402 1.674-1.296.324-2.682.486-4.158.486H79.86c.828-.756 1.404-1.602 1.728-2.538a9.183 9.183 0 0 0 .486-3.024V56.762c0-1.08-.162-2.088-.486-3.024-.324-.936-.9-1.782-1.728-2.538h20.412l.432 14.688-.432.054a453.238 453.238 0 0 0-2.106-5.076c-.684-1.62-1.458-3.06-2.322-4.32-.828-1.26-1.782-2.286-2.862-3.078-1.08-.792-2.376-1.242-3.888-1.35Zm24.838 35.91c2.268 0 3.888-.828 4.86-2.484.972-1.656 1.458-4.104 1.458-7.344 0-1.656-.108-3.168-.324-4.536-.18-1.368-.522-2.538-1.026-3.51-.468-.972-1.116-1.728-1.944-2.268-.792-.576-1.8-.864-3.024-.864v21.006Zm0-22.032c1.512 0 3.06.198 4.644.594a12.433 12.433 0 0 1 4.374 1.998c1.296.9 2.358 2.106 3.186 3.618.828 1.512 1.242 3.348 1.242 5.508v.918c0 .36-.018.63-.054.81-.108 1.764-.486 3.258-1.134 4.482-.612 1.188-1.404 2.16-2.376 2.916-.972.756-2.106 1.314-3.402 1.674-1.296.324-2.682.486-4.158.486h-11.556c.828-.756 1.404-1.602 1.728-2.538a9.183 9.183 0 0 0 .486-3.024V56.762c0-1.08-.162-2.088-.486-3.024-.324-.936-.9-1.782-1.728-2.538h11.448c-.828.756-1.404 1.602-1.728 2.538a9.183 9.183 0 0 0-.486 3.024v9.234Zm23.814 17.442c0 1.08.162 2.088.486 3.024.324.936.9 1.782 1.728 2.538h-11.448c.828-.756 1.404-1.602 1.728-2.538a9.183 9.183 0 0 0 .486-3.024V56.762c0-1.08-.162-2.088-.486-3.024-.324-.936-.9-1.782-1.728-2.538h11.448c-.828.756-1.404 1.602-1.728 2.538a9.183 9.183 0 0 0-.486 3.024v26.676Zm38.636 0c0 1.08.162 2.088.486 3.024.324.936.9 1.782 1.728 2.538h-11.448c.828-.756 1.404-1.602 1.728-2.538a9.183 9.183 0 0 0 .486-3.024V69.506h-7.02v13.932c0 1.08.162 2.088.486 3.024.324.936.9 1.782 1.728 2.538h-11.448c.828-.756 1.404-1.602 1.728-2.538a9.183 9.183 0 0 0 .486-3.024V56.762c0-1.08-.162-2.088-.486-3.024-.324-.936-.9-1.782-1.728-2.538h11.448c-.828.756-1.404 1.602-1.728 2.538a9.183 9.183 0 0 0-.486 3.024V68.21h7.02V56.762c0-1.08-.162-2.088-.486-3.024-.324-.936-.9-1.782-1.728-2.538h11.448c-.828.756-1.404 1.602-1.728 2.538a9.183 9.183 0 0 0-.486 3.024v26.676Zm23.853-17.172a48.503 48.503 0 0 0-1.836-4.86c-.648-1.584-1.386-3.006-2.214-4.266-.828-1.26-1.764-2.322-2.808-3.186a8.37 8.37 0 0 0-3.402-1.782v15.39l5.076-7.02.378.054 1.188 17.064-.378.054-5.994-8.802-.27.108v18.954c1.08-.216 2.106-.72 3.078-1.512s1.854-1.782 2.646-2.97a24.346 24.346 0 0 0 2.214-3.942 39.099 39.099 0 0 0 1.782-4.59l.432.054L199.533 89h-18.792c.828-.756 1.404-1.602 1.728-2.538a9.183 9.183 0 0 0 .486-3.024V56.762c0-1.08-.162-2.088-.486-3.024-.324-.936-.9-1.782-1.728-2.538h19.494l.432 15.012-.432.054Zm26.509 17.172c0 1.08.162 2.088.486 3.024.324.936.9 1.782 1.728 2.538H217.51c.828-.756 1.404-1.602 1.728-2.538a9.183 9.183 0 0 0 .486-3.024V69.506h-7.02v13.932c0 1.08.162 2.088.486 3.024.324.936.9 1.782 1.728 2.538H203.47c.828-.756 1.404-1.602 1.728-2.538a9.183 9.183 0 0 0 .486-3.024V56.762c0-1.08-.162-2.088-.486-3.024-.324-.936-.9-1.782-1.728-2.538h11.448c-.828.756-1.404 1.602-1.728 2.538a9.183 9.183 0 0 0-.486 3.024V68.21h7.02V56.762c0-1.08-.162-2.088-.486-3.024-.324-.936-.9-1.782-1.728-2.538h11.448c-.828.756-1.404 1.602-1.728 2.538a9.183 9.183 0 0 0-.486 3.024v26.676ZM254.052 89h-9.612c.396-.396.702-.9.918-1.512.252-.648.234-1.512-.054-2.592l-2.484-9.072h-7.236a9.999 9.999 0 0 0-.27 3.726c.18 1.26.54 2.466 1.08 3.618a15.924 15.924 0 0 0 1.998 3.132c.792.936 1.656 1.692 2.592 2.268l-.054.432h-10.422l11.394-39.69h.54L254.052 89Zm-18.09-14.472h6.48l-3.24-11.718-3.24 11.718Zm34.08-22.194h-5.562c.072 1.728.09 3.636.054 5.724a99.73 99.73 0 0 1-.324 6.426 88.12 88.12 0 0 1-.702 6.696 71.199 71.199 0 0 1-1.242 6.48 40.806 40.806 0 0 1-1.782 5.832c-.684 1.8-1.494 3.366-2.43 4.698l11.934-.216c0-.036.018-.072.054-.108V52.334ZM256.596 88.19c.792-1.116 1.512-2.466 2.16-4.05a41.687 41.687 0 0 0 1.782-5.184c.54-1.872.99-3.816 1.35-5.832.36-2.052.648-4.05.864-5.994.216-1.98.36-3.852.432-5.616.072-1.8.054-3.402-.054-4.806-.108-1.368-.288-2.484-.54-3.348-.252-.864-.576-1.584-.972-2.16l17.658.054c-.828.756-1.404 1.602-1.728 2.538a9.183 9.183 0 0 0-.486 3.024v31.32l3.51-.108.432 12.204-.432.054c-.54-1.692-1.116-3.186-1.728-4.482-.576-1.26-1.242-2.34-1.998-3.24a9.303 9.303 0 0 0-2.538-2.214c-.936-.576-2.034-1.026-3.294-1.35h-7.56c-1.26.324-2.376.774-3.348 1.35a10.09 10.09 0 0 0-2.592 2.214c-.756.9-1.44 1.98-2.052 3.24-.612 1.296-1.188 2.79-1.728 4.482l-.432-.054.432-12.096 2.862.054Zm25.29-18.63c0-6.156 1.098-10.836 3.294-14.04 2.196-3.24 5.148-4.86 8.856-4.86 1.836 0 3.492.504 4.968 1.512 1.512 1.008 2.79 2.412 3.834 4.212 1.08 1.764 1.908 3.87 2.484 6.318.576 2.448.864 5.094.864 7.938 0 6.156-1.098 10.854-3.294 14.094-2.196 3.204-5.148 4.806-8.856 4.806a8.86 8.86 0 0 1-5.022-1.512c-1.476-1.008-2.754-2.394-3.834-4.158-1.044-1.8-1.854-3.924-2.43-6.372-.576-2.448-.864-5.094-.864-7.938Zm5.67-11.124c0 2.232.126 4.5.378 6.804a76.318 76.318 0 0 0 1.134 6.696 65.178 65.178 0 0 0 1.62 6.102c.648 1.908 1.332 3.582 2.052 5.022.756 1.404 1.53 2.52 2.322 3.348.792.792 1.584 1.188 2.376 1.188 2.052-.072 3.078-2.016 3.078-5.832 0-2.232-.144-4.5-.432-6.804a64.963 64.963 0 0 0-1.08-6.696 61.163 61.163 0 0 0-1.62-6.048c-.612-1.908-1.296-3.564-2.052-4.968-.72-1.44-1.476-2.574-2.268-3.402-.792-.828-1.584-1.242-2.376-1.242-1.044 0-1.836.504-2.376 1.512-.504.972-.756 2.412-.756 4.32Zm21.396 13.986c.072.468.144.99.216 1.566.072.54.162 1.116.27 1.728.216 1.08.432 2.142.648 3.186.216 1.008.468 1.8.756 2.376.324.576.684.828 1.08.756.432-.072.954-.702 1.566-1.89.504-.972.954-2.322 1.35-4.05.396-1.728.72-3.636.972-5.724.288-2.124.486-4.32.594-6.588.144-2.304.198-4.5.162-6.588-.036-1.188-.18-2.268-.432-3.24a7.076 7.076 0 0 0-1.242-2.754l18.9.054c-.828.756-1.386 1.602-1.674 2.538a13.255 13.255 0 0 0-.54 3.024l.054 26.622c0 1.08.162 2.088.486 3.024.324.936.9 1.782 1.728 2.538h-11.448c.828-.756 1.404-1.602 1.728-2.538a9.183 9.183 0 0 0 .486-3.024V52.334h-6.372c0 1.08-.036 2.43-.108 4.05a162.886 162.886 0 0 1-.216 5.292c-.108 1.908-.27 3.906-.486 5.994-.216 2.088-.486 4.14-.81 6.156a57.548 57.548 0 0 1-1.242 5.832c-.468 1.836-1.044 3.474-1.728 4.914-.648 1.404-1.404 2.538-2.268 3.402-.864.864-1.854 1.35-2.97 1.458-.252.036-.414.036-.486 0-.036 0-.18-.036-.432-.108l1.458-16.902Zm45.466-6.48a100.573 100.573 0 0 0-1.89-4.752c-.612-1.548-1.314-2.934-2.106-4.158-.756-1.26-1.602-2.304-2.538-3.132a7.585 7.585 0 0 0-3.186-1.782v31.32c0 1.08.162 2.088.486 3.024.324.936.9 1.782 1.728 2.538h-11.448c.828-.756 1.404-1.602 1.728-2.538a9.183 9.183 0 0 0 .486-3.024V56.762c0-1.08-.162-2.088-.486-3.024-.324-.936-.9-1.782-1.728-2.538h18.954l.432 14.688-.432.054Zm3.036 3.618c0-6.156 1.098-10.836 3.294-14.04 2.196-3.24 5.148-4.86 8.856-4.86 1.836 0 3.492.504 4.968 1.512 1.512 1.008 2.79 2.412 3.834 4.212 1.08 1.764 1.908 3.87 2.484 6.318.576 2.448.864 5.094.864 7.938 0 6.156-1.098 10.854-3.294 14.094-2.196 3.204-5.148 4.806-8.856 4.806a8.86 8.86 0 0 1-5.022-1.512c-1.476-1.008-2.754-2.394-3.834-4.158-1.044-1.8-1.854-3.924-2.43-6.372-.576-2.448-.864-5.094-.864-7.938Zm5.67-11.124c0 2.232.126 4.5.378 6.804a76.318 76.318 0 0 0 1.134 6.696 65.178 65.178 0 0 0 1.62 6.102c.648 1.908 1.332 3.582 2.052 5.022.756 1.404 1.53 2.52 2.322 3.348.792.792 1.584 1.188 2.376 1.188 2.052-.072 3.078-2.016 3.078-5.832 0-2.232-.144-4.5-.432-6.804a64.963 64.963 0 0 0-1.08-6.696 61.163 61.163 0 0 0-1.62-6.048c-.612-1.908-1.296-3.564-2.052-4.968-.72-1.44-1.476-2.574-2.268-3.402-.792-.828-1.584-1.242-2.376-1.242-1.044 0-1.836.504-2.376 1.512-.504.972-.756 2.412-.756 4.32ZM78.753 118.56c0-6.156 1.098-10.836 3.294-14.04 2.196-3.24 5.148-4.86 8.856-4.86 1.836 0 3.492.504 4.968 1.512 1.512 1.008 2.79 2.412 3.834 4.212 1.08 1.764 1.908 3.87 2.484 6.318.576 2.448.864 5.094.864 7.938 0 6.156-1.098 10.854-3.294 14.094-2.196 3.204-5.148 4.806-8.856 4.806a8.86 8.86 0 0 1-5.022-1.512c-1.476-1.008-2.754-2.394-3.834-4.158-1.044-1.8-1.854-3.924-2.43-6.372-.576-2.448-.864-5.094-.864-7.938Zm5.67-11.124c0 2.232.126 4.5.378 6.804a76.318 76.318 0 0 0 1.134 6.696 65.178 65.178 0 0 0 1.62 6.102c.648 1.908 1.332 3.582 2.052 5.022.756 1.404 1.53 2.52 2.322 3.348.792.792 1.584 1.188 2.376 1.188 2.052-.072 3.078-2.016 3.078-5.832 0-2.232-.144-4.5-.432-6.804a64.963 64.963 0 0 0-1.08-6.696 61.163 61.163 0 0 0-1.62-6.048c-.612-1.908-1.296-3.564-2.052-4.968-.72-1.44-1.476-2.574-2.268-3.402-.792-.828-1.584-1.242-2.376-1.242-1.044 0-1.836.504-2.376 1.512-.504.972-.756 2.412-.756 4.32Zm43.213 8.154a74.834 74.834 0 0 0-1.566-4.806 41.487 41.487 0 0 0-1.728-4.32c-.612-1.332-1.26-2.466-1.944-3.402-.684-.936-1.368-1.548-2.052-1.836v31.212c0 1.08.162 2.088.486 3.024.324.936.9 1.782 1.728 2.538h-11.448c.828-.756 1.404-1.602 1.728-2.538a9.183 9.183 0 0 0 .486-3.024v-31.212c-.72.288-1.422.9-2.106 1.836-.648.936-1.296 2.07-1.944 3.402a41.487 41.487 0 0 0-1.728 4.32 106.466 106.466 0 0 0-1.512 4.806l-.432-.054.54-15.336h21.384l.54 15.336-.432.054Zm17.643.702a12.89 12.89 0 0 1 3.24 1.242c.972.54 1.8 1.26 2.484 2.16.72.864 1.278 1.926 1.674 3.186.396 1.224.594 2.664.594 4.32 0 2.016-.288 3.708-.864 5.076-.576 1.368-1.368 2.484-2.376 3.348-1.008.828-2.196 1.44-3.564 1.836-1.332.36-2.772.54-4.32.54h-11.556c.828-.756 1.404-1.602 1.728-2.538a9.183 9.183 0 0 0 .486-3.024v-26.676c0-1.08-.162-2.088-.486-3.024-.324-.936-.9-1.782-1.728-2.538h11.448c1.512 0 2.916.162 4.212.486 1.332.288 2.466.774 3.402 1.458a7.139 7.139 0 0 1 2.268 2.592c.54 1.044.81 2.286.81 3.726 0 1.152-.198 2.196-.594 3.132a7.095 7.095 0 0 1-1.62 2.322c-.648.648-1.44 1.188-2.376 1.62-.9.396-1.854.648-2.862.756Zm.324-7.614c0-5.004-1.926-7.506-5.778-7.506v13.824c2.232.396 3.744.054 4.536-1.026.828-1.08 1.242-2.844 1.242-5.292Zm-5.778 28.35c2.268 0 3.888-.828 4.86-2.484.972-1.692 1.458-4.14 1.458-7.344 0-1.656-.09-3.078-.27-4.266-.144-1.224-.45-2.25-.918-3.078a5.745 5.745 0 0 0-1.944-2.106c-.792-.576-1.854-1.062-3.186-1.458v20.736Zm16.83-15.606c.072.468.144.99.216 1.566.072.54.162 1.116.27 1.728.216 1.08.432 2.142.648 3.186.216 1.008.468 1.8.756 2.376.324.576.684.828 1.08.756.432-.072.954-.702 1.566-1.89.504-.972.954-2.322 1.35-4.05.396-1.728.72-3.636.972-5.724.288-2.124.486-4.32.594-6.588.144-2.304.198-4.5.162-6.588-.036-1.188-.18-2.268-.432-3.24a7.076 7.076 0 0 0-1.242-2.754l18.9.054c-.828.756-1.386 1.602-1.674 2.538a13.255 13.255 0 0 0-.54 3.024l.054 26.622c0 1.08.162 2.088.486 3.024.324.936.9 1.782 1.728 2.538h-11.448c.828-.756 1.404-1.602 1.728-2.538a9.183 9.183 0 0 0 .486-3.024v-31.104h-6.372c0 1.08-.036 2.43-.108 4.05a162.886 162.886 0 0 1-.216 5.292c-.108 1.908-.27 3.906-.486 5.994-.216 2.088-.486 4.14-.81 6.156a57.548 57.548 0 0 1-1.242 5.832c-.468 1.836-1.044 3.474-1.728 4.914-.648 1.404-1.404 2.538-2.268 3.402-.864.864-1.854 1.35-2.97 1.458-.252.036-.414.036-.486 0-.036 0-.18-.036-.432-.108l1.458-16.902Zm46.006-6.156a48.503 48.503 0 0 0-1.836-4.86c-.648-1.584-1.386-3.006-2.214-4.266-.828-1.26-1.764-2.322-2.808-3.186a8.37 8.37 0 0 0-3.402-1.782v15.39l5.076-7.02.378.054 1.188 17.064-.378.054-5.994-8.802-.27.108v18.954c1.08-.216 2.106-.72 3.078-1.512s1.854-1.782 2.646-2.97a24.346 24.346 0 0 0 2.214-3.942 39.099 39.099 0 0 0 1.782-4.59l.432.054-.594 13.986h-18.792c.828-.756 1.404-1.602 1.728-2.538a9.183 9.183 0 0 0 .486-3.024v-26.676c0-1.08-.162-2.088-.486-3.024-.324-.936-.9-1.782-1.728-2.538h19.494l.432 15.012-.432.054Zm18.948 3.348v-12.852c0-1.08-.162-2.088-.486-3.024-.324-.936-.9-1.782-1.728-2.538h11.448c-.828.756-1.404 1.602-1.728 2.538a9.183 9.183 0 0 0-.486 3.024v26.676c0 1.08.162 2.088.486 3.024.324.936.9 1.782 1.728 2.538h-11.448c.828-.756 1.404-1.602 1.728-2.538a9.183 9.183 0 0 0 .486-3.024V119.91c-1.044.36-2.196.54-3.456.54-1.512 0-2.934-.216-4.266-.648a9.247 9.247 0 0 1-3.402-1.998c-.936-.936-1.674-2.106-2.214-3.51-.504-1.44-.738-3.168-.702-5.184v-3.348c0-1.08-.162-2.088-.486-3.024-.324-.936-.9-1.782-1.728-2.538h11.448c-.828.756-1.404 1.602-1.728 2.538a9.183 9.183 0 0 0-.486 3.024v5.508c-.144 2.592.252 4.608 1.188 6.048.936 1.404 2.52 1.944 4.752 1.62.36-.072.72-.18 1.08-.324Zm20.309 18.414c2.268 0 3.888-.828 4.86-2.484.972-1.656 1.458-4.104 1.458-7.344 0-1.656-.108-3.168-.324-4.536-.18-1.368-.522-2.538-1.026-3.51-.468-.972-1.116-1.728-1.944-2.268-.792-.576-1.8-.864-3.024-.864v21.006Zm0-22.032c1.512 0 3.06.198 4.644.594a12.433 12.433 0 0 1 4.374 1.998c1.296.9 2.358 2.106 3.186 3.618.828 1.512 1.242 3.348 1.242 5.508v.918c0 .36-.018.63-.054.81-.108 1.764-.486 3.258-1.134 4.482-.612 1.188-1.404 2.16-2.376 2.916-.972.756-2.106 1.314-3.402 1.674-1.296.324-2.682.486-4.158.486h-11.556c.828-.756 1.404-1.602 1.728-2.538a9.183 9.183 0 0 0 .486-3.024v-26.676c0-1.08-.162-2.088-.486-3.024-.324-.936-.9-1.782-1.728-2.538h11.448c-.828.756-1.404 1.602-1.728 2.538a9.183 9.183 0 0 0-.486 3.024v9.234Zm15.604 3.672c0-2.916.27-5.544.81-7.884.576-2.376 1.386-4.374 2.43-5.994 1.044-1.656 2.304-2.934 3.78-3.834 1.512-.9 3.222-1.35 5.13-1.35 1.044 0 2.034.144 2.97.432.936.252 1.818.54 2.646.864a2.8 2.8 0 0 0 1.62.162 3.58 3.58 0 0 0 1.512-.648l-1.026 14.688-.378-.054a46.164 46.164 0 0 0-1.728-4.644c-.648-1.62-1.404-3.078-2.268-4.374-.864-1.332-1.836-2.43-2.916-3.294-1.08-.864-2.286-1.296-3.618-1.296-.612 0-1.134.18-1.566.54-.432.36-.792.864-1.08 1.512-.252.612-.45 1.332-.594 2.16a20.937 20.937 0 0 0-.162 2.7c0 3.096.198 6.102.594 9.018.432 2.916 1.062 5.508 1.89 7.776.828 2.232 1.854 4.032 3.078 5.4 1.224 1.332 2.664 1.998 4.32 1.998 1.62 0 2.898-.864 3.834-2.592.972-1.764 1.656-4.518 2.052-8.262l.594.054c-.18 2.808-.486 5.256-.918 7.344-.432 2.088-1.044 3.834-1.836 5.238-.792 1.404-1.8 2.466-3.024 3.186-1.188.684-2.61 1.026-4.266 1.026-1.728 0-3.312-.522-4.752-1.566s-2.7-2.466-3.78-4.266c-1.044-1.8-1.872-3.906-2.484-6.318-.576-2.412-.864-4.986-.864-7.722Zm34.624-1.89c-1.332.18-2.628.126-3.888-.162a9.405 9.405 0 0 1-3.294-1.458 8.266 8.266 0 0 1-2.268-2.7c-.54-1.116-.81-2.376-.81-3.78 0-1.44.27-2.7.81-3.78a7.496 7.496 0 0 1 2.322-2.646c.972-.684 2.106-1.188 3.402-1.512 1.332-.36 2.754-.54 4.266-.54h11.772c-.828.756-1.404 1.602-1.728 2.538a9.183 9.183 0 0 0-.486 3.024v26.676c0 1.08.162 2.088.486 3.024.324.936.9 1.782 1.728 2.538H293.01c.828-.756 1.404-1.602 1.728-2.538a9.183 9.183 0 0 0 .486-3.024v-16.146a9.416 9.416 0 0 0-1.782 1.566c-.504.576-1.008 1.278-1.512 2.106a39.626 39.626 0 0 0-1.512 2.862c-.504 1.08-1.08 2.394-1.728 3.942l-5.994 13.986-.486-.054 1.998-23.328c1.512.18 2.916.198 4.212.054a27.612 27.612 0 0 0 3.726-.648Zm-3.024-8.1c0 2.448.468 4.284 1.404 5.508.936 1.224 2.502 1.548 4.698.972v-13.986c-2.16 0-3.726.63-4.698 1.89-.936 1.26-1.404 3.132-1.404 5.616Z"/>
</svg>
