<svg xmlns="http://www.w3.org/2000/svg" width="309" height="95" fill="none">
  <path fill="#E2D2BB" d="M53.275 2.146h17.928c2.16 0 5.562-.594 6.75-1.188v7.776h-1.404V7.33c0-1.458-1.08-2.592-2.538-2.646h-9.612v31.104c.162 1.566 1.296 2.862 2.97 2.862h1.134v1.404H56.029V38.65h1.134c1.512 0 2.808-1.242 2.862-2.808V4.684h-9.558c-1.458.054-2.538 1.188-2.538 2.646v1.404H46.47V.958c1.296.594 4.59 1.188 6.804 1.188Zm48.393-.702c11.448 0 19.44 7.83 19.44 19.656 0 11.826-7.992 19.656-19.44 19.656s-19.44-7.83-19.44-19.656c0-11.826 7.992-19.656 19.44-19.656Zm0 36.828c8.748 0 14.526-6.858 14.526-17.172s-5.778-17.172-14.526-17.172c-8.694 0-14.472 6.858-14.472 17.172s5.778 17.172 14.472 17.172Zm25.05 6.534-.054-.378c3.24-1.026 2.592-3.672 1.728-4.806-.702-.81-1.782-1.728-1.188-3.078.594-1.512 3.186-1.62 4.05.486 1.728 4.05-1.188 7.614-4.536 7.776Zm25.518-38.394v-.108a3.63 3.63 0 0 0-.918-1.944c-.54-.594-1.242-.864-2.052-.864h-1.134V2.092h12.474v1.404h-1.134c-.81 0-1.512.27-2.052.864-.486.486-.756 1.08-.918 1.728v.162a91.169 91.169 0 0 0-.216 6.102v.432c.162 4.698 2.43 7.668 6.588 7.668h9.828V6.466c-.162-1.566-1.296-2.916-2.97-2.916h-1.134V2.146h12.474V3.55h-1.134c-1.674 0-2.808 1.35-2.97 2.916v29.268c.162 1.566 1.296 2.862 2.97 2.862h1.134V40h-12.474v-1.404h1.134c1.674 0 2.808-1.296 2.97-2.862V22.936h-9.882c-3.564 0-6.372-.918-8.37-2.808-1.944-1.89-2.7-6.426-2.214-13.716Zm38.306-4.266h17.928c2.16 0 5.562-.594 6.75-1.188v7.776h-1.404V7.33c0-1.458-1.08-2.592-2.538-2.646h-9.612v31.104c.162 1.566 1.296 2.862 2.97 2.862h1.134v1.404h-12.474V38.65h1.134c1.512 0 2.808-1.242 2.862-2.808V4.684h-9.558c-1.458.054-2.538 1.188-2.538 2.646v1.404h-1.458V.958c1.296.594 4.59 1.188 6.804 1.188Zm48.393-.702c11.448 0 19.44 7.83 19.44 19.656 0 11.826-7.992 19.656-19.44 19.656s-19.44-7.83-19.44-19.656c0-11.826 7.992-19.656 19.44-19.656Zm0 36.828c8.748 0 14.526-6.858 14.526-17.172s-5.778-17.172-14.526-17.172c-8.694 0-14.472 6.858-14.472 17.172s5.778 17.172 14.472 17.172ZM32.712 92.596 32.874 94H21.588v-1.404h1.026c1.296 0 2.376-1.08 2.43-2.376V61.168c-.054-1.35-1.134-2.484-2.376-2.484h-11.88c-1.242 0-2.268 1.08-2.322 2.376v29.16c.054 1.296 1.134 2.376 2.43 2.376h1.026V94H.69v-1.404h1.026c1.296 0 2.376-1.08 2.43-2.376V60.088c-.054-1.296-1.134-2.376-2.43-2.376H.69v-1.458h32.076v1.458H31.74c-1.296 0-2.376 1.026-2.43 2.268v30.24c.054 1.296 1.134 2.376 2.43 2.376h.972Zm25.819-37.152c11.448 0 19.44 7.83 19.44 19.656 0 11.826-7.992 19.656-19.44 19.656S39.09 86.926 39.09 75.1c0-11.826 7.992-19.656 19.44-19.656Zm0 36.828c8.748 0 14.526-6.858 14.526-17.172S67.279 57.928 58.53 57.928c-8.694 0-14.472 6.858-14.472 17.172s5.778 17.172 14.472 17.172Zm62.688-36.828 4.05 34.236c.378 1.782 1.782 2.916 3.456 2.916h1.296V94h-12.366v-1.35h1.296c.864 0 1.62-.81 1.62-1.674v-.108l-2.214-24.894-10.422 23.112c-.27.594-.54 1.242-.756 1.89-.432 1.134-.864 2.538-1.026 3.78h-1.134L92.059 66.73l-2.16 24.138v.108c0 .864.756 1.674 1.62 1.674h1.242V94H81.637v-1.404h1.296c1.674 0 3.078-1.134 3.456-2.916l3.996-34.236h1.134l14.418 31.212 14.148-31.212h1.134Zm32.814 0c11.448 0 19.44 7.83 19.44 19.656 0 11.826-7.992 19.656-19.44 19.656s-19.44-7.83-19.44-19.656c0-11.826 7.992-19.656 19.44-19.656Zm0 36.828c8.748 0 14.526-6.858 14.526-17.172s-5.778-17.172-14.526-17.172c-8.694 0-14.472 6.858-14.472 17.172s5.778 17.172 14.472 17.172Zm50.268-26.676h-1.458c-1.566-4.05-3.78-6.912-9.072-6.912h-7.128V89.68c.162 1.566 1.296 2.862 2.97 2.862h1.134V94h-12.474v-1.458h1.134c1.674 0 2.808-1.296 2.97-2.862V60.466c-.162-1.566-1.296-2.862-2.97-2.862h-1.134V56.2h22.68l3.348 9.396Zm21.321-10.152 14.148 34.02v-.054c1.026 2.214 2.754 3.078 4.212 3.078h.918v1.404h-12.798v-1.404h.918c.918 0 1.782-.594 1.782-1.728 0-.324-.054-.648-.162-.972l-3.294-8.694h-13.554l-3.456 8.748v-.054a3.63 3.63 0 0 0-.162.972c0 1.134.918 1.782 1.836 1.782h.918v1.404h-11.502v-1.404h.918c1.458 0 3.186-.864 4.212-3.024h-.054l11.988-28.35c.378-.81.702-1.566.972-2.268.486-1.242.972-2.646.972-3.456h1.188ZM218.71 78.61h11.718l-5.724-15.228-5.994 15.228Zm54.589 5.994-3.456 9.504h-22.68v-1.404h1.134c1.674 0 2.808-1.242 2.97-2.916V60.304a2.926 2.926 0 0 0-2.916-2.592h-1.134v-1.404h15.876c2.16 0 5.562-.594 6.75-1.188v7.776h-1.404v-1.404c0-1.458-1.08-2.538-2.538-2.7h-10.26v15.39h8.424c1.242-.054 2.16-.972 2.16-2.214V70.78h1.404v9.18h-1.404v-1.242c0-1.134-.972-2.106-2.052-2.16h-8.478v14.958h7.074c5.292 0 7.506-2.862 9.072-6.912h1.458Zm10.214-28.458h17.928c2.16 0 5.562-.594 6.75-1.188v7.776h-1.404V61.33c0-1.458-1.08-2.592-2.538-2.646h-9.612v31.104c.162 1.566 1.296 2.862 2.97 2.862h1.134v1.404h-12.474V92.65h1.134c1.512 0 2.808-1.242 2.862-2.808V58.684h-9.558c-1.458.054-2.538 1.188-2.538 2.646v1.404h-1.458v-7.776c1.296.594 4.59 1.188 6.804 1.188Z"/>
</svg>
