<svg xmlns="http://www.w3.org/2000/svg" width="266" height="134" fill="none">
  <path fill="#E2D2BB" d="M5 0h13.5v4.5H23V9h-4.5V4.5H5v27h13.5V27H23v4.5h-4.5V36H5v-4.5H.5v-27H5V0Zm27 4.5v27h13.5v-27H32ZM32 0h13.5v4.5H50v27h-4.5V36H32v-4.5h-4.5v-27H32V0Zm27 18v13.5h13.5V18H59Zm0-13.5v9h13.5v-9H59ZM54.5 0h18v4.5H77v9h-4.5V18H77v13.5h-4.5V36h-18V0Zm27 0H104v4.5H86v9h13.5V18H86v13.5h18V36H81.5V0Zm27 0H131v4.5h-9V36h-4.5V4.5h-9V0Zm45 0h4.5v36h-4.5V0ZM140 18v13.5h4.5V18H140Zm-4.5-18h4.5v13.5h4.5V18h4.5v13.5h-4.5V36h-9V0Zm63 4.5v27h4.5v-27h-4.5ZM194 0h13.5v31.5h4.5V45h-4.5v-9H194v9h-4.5V31.5h4.5V0Zm22.5 36v-4.5h4.5V0h18v36h-4.5V4.5h-9v27H221V36h-4.5ZM248 4.5V18h13.5V4.5H248Zm0-4.5h18v36h-4.5V22.5H257V27h-4.5v4.5H248V36h-4.5v-4.5h4.5V27h4.5v-4.5H248V18h-4.5V4.5h4.5V0ZM68 49h4.5v9H77v-9h4.5v9H86v-9h4.5v9H86v4.5h-4.5v9H86V76h4.5v9H86v-9h-4.5v9H77v-9h-4.5v9H68v-9h4.5v-4.5H77v-9h-4.5V58H68v-9Zm27 0h4.5v22.5h4.5v-9h4.5v-9h4.5V49h4.5v36H113V62.5h-4.5v9H104v9h-4.5V85H95V49Zm31.5 0H140v4.5h4.5v9H140V67h4.5v13.5H140V85h-13.5v-4.5H122V76h4.5v4.5H140V67h-13.5v-4.5H140v-9h-13.5V58H122v-4.5h4.5V49Zm22.5 0h4.5v13.5H167V49h4.5v36H167V67h-13.5v18H149V49Zm27 0h4.5v22.5h4.5v-9h4.5v-9h4.5V49h4.5v36H194V62.5h-4.5v9H185v9h-4.5V85H176V49ZM18.5 116v13.5H32V116H18.5Zm0-13.5v9H32v-9H18.5ZM14 98h18v4.5h4.5v9H32v4.5h4.5v13.5H32v4.5H14V98Zm54 0h4.5v22.5H77v-9h4.5v-9H86V98h4.5v36H86v-22.5h-4.5v9H77v9h-4.5v4.5H68V98Zm31.5 0H113v4.5h4.5v9H113v4.5h4.5v13.5H113v4.5H99.5v-4.5H95V125h4.5v4.5H113V116H99.5v-4.5H113v-9H99.5v4.5H95v-4.5h4.5V98Zm27 4.5V116H140v-13.5h-13.5ZM122 98h18v4.5h4.5V116H140v4.5h-13.5V134H122V98Zm36 4.5v9h-4.5v4.5H167v-4.5h-4.5v-9H158Zm0-4.5h4.5v4.5h4.5v9h4.5V134H167v-13.5h-13.5V134H149v-22.5h4.5v-9h4.5V98Zm18 0h4.5v22.5h4.5v-9h4.5v-9h4.5V98h4.5v36H194v-22.5h-4.5v9H185v9h-4.5v4.5H176V98Zm27 36v-4.5h4.5V98h18v36H221v-31.5h-9v27h-4.5v4.5H203Zm27-36h22.5v4.5h-18v9H248v4.5h-13.5v13.5h18v4.5H230V98Z"/>
</svg>
