<svg xmlns="http://www.w3.org/2000/svg" width="328" height="187" fill="none">
  <path fill="#7583A5" d="M118.94 20.802v13.932c.162 1.566 1.296 2.862 2.97 2.862h1.134V39H110.57v-1.404h1.134c1.674 0 2.808-1.296 2.97-2.862V5.466c-.162-1.566-1.296-2.916-2.97-2.916h-1.134V1.146h12.474V2.55h-1.134c-1.674 0-2.808 1.35-2.97 2.916v14.202l12.852-15.336c.216-.27.324-.486.324-.756 0-.594-.432-1.026-1.242-1.026h-.972V1.2h12.042v1.35h-.648c-2.16 0-4.104.918-5.346 2.376l-12.852 14.04 14.904 16.686c1.296 1.35 2.7 1.89 5.022 1.944V39h-2.646c-1.512 0-5.724-.108-8.316-3.132L118.94 20.802ZM163.718.444l14.148 34.02v-.054c1.026 2.214 2.754 3.078 4.212 3.078h.918v1.404h-12.798v-1.404h.918c.918 0 1.782-.594 1.782-1.728 0-.324-.054-.648-.162-.972l-3.294-8.694h-13.554l-3.456 8.748v-.054a3.63 3.63 0 0 0-.162.972c0 1.134.918 1.782 1.836 1.782h.918v1.404h-11.502v-1.404h.918c1.458 0 3.186-.864 4.212-3.024h-.054l11.988-28.35c.378-.81.702-1.566.972-2.268.486-1.242.972-2.646.972-3.456h1.188Zm-6.912 23.166h11.718L162.8 8.382l-5.994 15.228Zm36.068-2.808v13.932c.162 1.566 1.296 2.862 2.97 2.862h1.134V39h-12.474v-1.404h1.134c1.674 0 2.808-1.296 2.97-2.862V5.466c-.162-1.566-1.296-2.916-2.97-2.916h-1.134V1.146h12.474V2.55h-1.134c-1.674 0-2.808 1.35-2.97 2.916v14.202l12.852-15.336c.216-.27.324-.486.324-.756 0-.594-.432-1.026-1.242-1.026h-.972V1.2h12.042v1.35h-.648c-2.16 0-4.104.918-5.346 2.376l-12.852 14.04 14.904 16.686c1.296 1.35 2.7 1.89 5.022 1.944V39h-2.646c-1.512 0-5.724-.108-8.316-3.132l-13.122-15.066ZM37.959 50.2l10.908.054c7.56.162 11.88 3.726 11.88 9.288 0 3.942-2.16 6.588-4.698 7.884 4.968 1.35 7.938 5.292 7.938 10.26 0 6.318-4.536 10.368-12.744 10.368H37.905V86.65h1.134c1.674 0 2.808-1.296 2.97-2.862V54.466c0-1.566-1.296-2.862-2.97-2.862h-1.08V50.2Zm8.37 35.1 4.752.054c5.022-.162 8.1-2.97 8.1-7.938 0-5.616-3.672-7.83-7.776-8.478-1.296-.162-2.97-.27-5.076-.324V85.3Zm3.726-18.252c2.862-.54 5.886-2.376 5.886-7.128 0-4.482-2.484-7.02-7.236-7.02h-2.376v14.364c1.566 0 2.808-.054 3.726-.216ZM79.644 55.06l.053 21.87c0 .432 0 .864-.053 1.296v.972l-.217.216c-.108.648-.27 1.296-.54 1.89-.54 1.35-1.296 2.484-2.213 3.51-1.89 1.944-4.105 3.132-8.695 3.132v-1.404c1.674-.324 2.916-.756 3.672-1.35 1.513-1.242 2.593-3.078 3.24-5.184.216-.702.378-1.404.432-2.106V54.088c-.053-1.296-1.133-2.376-2.43-2.376h-1.025v-1.458h32.075v1.458h-1.026c-1.296 0-2.376 1.026-2.43 2.268v30.24c.054 1.296 1.134 2.376 2.43 2.376h.972l.162 1.404H92.766v-1.404h1.025c1.297 0 2.377-1.08 2.43-2.376V55.168c-.053-1.35-1.133-2.484-2.376-2.484h-11.88c-1.242 0-2.267 1.08-2.322 2.376Zm27.562-4.86 11.718-.054v1.404h-1.404c-1.566 0-2.7 1.242-2.862 2.754v25.11l28.134-30.024h1.242l-.27 2.16c-.162 1.296-.27 3.078-.27 4.86v27.432c.054 1.566 1.296 2.808 2.808 2.808h1.404v1.404h-11.772V86.65h1.404c1.512 0 2.646-1.242 2.808-2.754v-25.11L112.012 88.81h-1.188c.108-.756.216-1.512.27-2.322.162-1.35.27-3.132.27-4.806V54.304c-.054-1.458-1.296-2.7-2.754-2.7h-1.404V50.2Zm50.516-.054h17.928c2.16 0 5.562-.594 6.75-1.188v7.776h-1.404V55.33c0-1.458-1.08-2.592-2.538-2.646h-9.612v31.104c.162 1.566 1.296 2.862 2.97 2.862h1.134v1.404h-12.474V86.65h1.134c1.512 0 2.808-1.242 2.862-2.808V52.684h-9.558c-1.458.054-2.538 1.188-2.538 2.646v1.404h-1.458v-7.776c1.296.594 4.59 1.188 6.804 1.188ZM200.283 88h-14.04v-1.458h1.134a2.926 2.926 0 0 0 2.916-2.592V54.466c-.162-1.566-1.296-2.862-2.97-2.862h-1.134V50.2h12.474v1.404h-1.134c-1.674 0-2.808 1.296-2.97 2.862v31.05h5.67c4.158 0 6.426-2.97 6.588-7.668v-.432c0-1.026-.108-1.89-.27-2.592v.054c-1.62-4.806-5.724-5.616-8.37-5.616-.702 0-1.188.054-1.566.162a8.86 8.86 0 0 0-.594.162v-.756c1.89-1.026 3.078-1.458 4.806-1.458 5.616.216 10.746 3.348 10.8 9.99 0 6.642-4.212 10.638-11.34 10.638Zm51.146-16.308h1.242l-.702 8.91c-2.862 4.698-7.776 8.154-15.228 8.154-11.286 0-19.332-7.83-19.332-19.71 0-11.718 7.722-19.602 19.602-19.602 5.346 0 9.666 1.62 12.96 3.78l1.134 8.154h-1.296c-1.566-6.264-6.534-9.45-12.744-9.45-9.072 0-14.742 6.804-14.742 17.064s6.048 16.848 14.472 17.28c7.236 0 13.338-3.726 14.634-14.58Zm24.557-21.33 14.688-.162v1.404h-1.134c-1.674 0-2.808 1.35-2.97 2.916v29.268c.162 1.566 1.296 2.862 2.97 2.862h1.134v1.404h-12.42V86.65h1.134c1.674 0 2.808-1.296 2.97-2.862V69.964c-1.458 0-2.376.108-2.808.324-.378.162-.756.432-1.134.756-.324.324-.648.702-.972 1.134-.27.378-.864 1.188-1.674 2.376-.81 1.134-1.62 2.268-2.43 3.348-1.728 2.43-3.51 4.968-3.78 5.4-1.674 2.106-4.428 4.806-9.504 4.806h-3.348v-1.404c3.402 0 5.184-1.512 7.29-3.834 1.026-1.08 2.7-3.24 4.05-5.13.81-1.134 1.674-2.268 2.484-3.51.81-1.026 1.782-2.268 2.808-3.078-4.59-.702-8.1-5.508-8.1-10.422 0-6.48 4.05-10.368 10.746-10.368Zm3.348 18.252h3.024V52.792h-.27c-.594 0-1.35-.054-2.376-.054-1.08 0-2.268.054-3.51.108-3.672.216-5.886 3.024-6.048 7.56v.486c0 1.026.108 1.89.27 2.538 1.404 4.428 5.238 5.13 7.83 5.13.378.054.756.054 1.08.054ZM.438 99.2l10.908.054c7.56.162 11.88 3.726 11.88 9.288 0 3.942-2.16 6.588-4.698 7.884 4.968 1.35 7.938 5.292 7.938 10.26 0 6.318-4.536 10.368-12.744 10.368H.384v-1.404h1.134c1.674 0 2.808-1.296 2.97-2.862v-29.322c0-1.566-1.296-2.862-2.97-2.862H.438V99.2Zm8.37 35.1 4.752.054c5.022-.162 8.1-2.97 8.1-7.938 0-5.616-3.672-7.83-7.776-8.478-1.296-.162-2.97-.27-5.076-.324V134.3Zm3.726-18.252c2.862-.54 5.886-2.376 5.886-7.128 0-4.482-2.484-7.02-7.236-7.02H8.808v14.364c1.566 0 2.808-.054 3.726-.216Zm70.143-17.604 4.05 34.236c.378 1.782 1.782 2.916 3.456 2.916h1.296V137H79.113v-1.35h1.296c.864 0 1.62-.81 1.62-1.674v-.108l-2.214-24.894-10.422 23.112c-.27.594-.54 1.242-.756 1.89-.432 1.134-.864 2.538-1.026 3.78h-1.134l-12.96-28.026-2.16 24.138v.108c0 .864.756 1.674 1.62 1.674h1.242V137H43.095v-1.404h1.296c1.674 0 3.078-1.134 3.456-2.916l3.996-34.236h1.134l14.418 31.212 14.148-31.212h1.134Zm38.754 29.16-3.456 9.504h-22.68v-1.404h1.134c1.674 0 2.808-1.242 2.97-2.916v-29.484a2.926 2.926 0 0 0-2.916-2.592h-1.134v-1.404h15.876c2.16 0 5.562-.594 6.75-1.188v7.776h-1.404v-1.404c0-1.458-1.08-2.538-2.538-2.7h-10.26v15.39h8.424c1.242-.054 2.16-.972 2.16-2.214v-1.188h1.404v9.18h-1.404v-1.242c0-1.134-.972-2.106-2.052-2.16h-8.478v14.958h7.074c5.292 0 7.506-2.862 9.072-6.912h1.458Zm39.374-6.912h1.242l-.702 8.91c-2.862 4.698-7.776 8.154-15.228 8.154-11.286 0-19.332-7.83-19.332-19.71 0-11.718 7.722-19.602 19.602-19.602 5.346 0 9.666 1.62 12.96 3.78l1.134 8.154h-1.296c-1.566-6.264-6.534-9.45-12.744-9.45-9.072 0-14.742 6.804-14.742 17.064s6.048 16.848 14.472 17.28c7.236 0 13.338-3.726 14.634-14.58Zm11.867-21.546H190.6c2.16 0 5.562-.594 6.75-1.188v7.776h-1.404v-1.404c0-1.458-1.08-2.592-2.538-2.646h-9.612v31.104c.162 1.566 1.296 2.862 2.97 2.862h1.134v1.404h-12.474v-1.404h1.134c1.512 0 2.808-1.242 2.862-2.808v-31.158h-9.558c-1.458.054-2.538 1.188-2.538 2.646v1.404h-1.458v-7.776c1.296.594 4.59 1.188 6.804 1.188ZM238.939 137l-12.42-.054v-1.404h1.134c1.566 0 2.862-1.296 2.916-2.808v-13.23h-20.682v13.176c.162 1.566 1.296 2.862 2.97 2.862h1.134v1.404h-12.474v-1.404h1.134c1.674 0 2.808-1.296 2.97-2.862v-29.268c-.162-1.566-1.296-2.916-2.97-2.916h-1.134v-1.404h12.474v1.404h-1.134c-1.674 0-2.808 1.35-2.97 2.916v13.608h20.682v-13.608c-.054-1.512-1.35-2.808-2.916-2.808h-1.134V99.2h12.42v1.404h-1.08c-1.674 0-2.808 1.35-2.97 2.916v29.214c.162 1.566 1.296 2.862 2.97 2.862h1.08V137Zm20.222 0h-14.04v-1.458h1.134a2.926 2.926 0 0 0 2.916-2.592v-29.484c-.162-1.566-1.296-2.862-2.97-2.862h-1.134V99.2h12.474v1.404h-1.134c-1.674 0-2.808 1.296-2.97 2.862v31.05h5.67c4.158 0 6.426-2.97 6.588-7.668v-.432c0-1.026-.108-1.89-.27-2.592v.054c-1.62-4.806-5.724-5.616-8.37-5.616-.702 0-1.188.054-1.566.162a8.86 8.86 0 0 0-.594.162v-.756c1.89-1.026 3.078-1.458 4.806-1.458 5.616.216 10.746 3.348 10.8 9.99 0 6.642-4.212 10.638-11.34 10.638Zm24.246-1.458v1.404h-12.474v-1.404h1.134c1.674 0 2.808-1.296 2.97-2.862v-29.268c-.162-1.566-1.296-2.916-2.97-2.916h-1.134v-1.404h12.474v1.404h-1.134c-1.674 0-2.808 1.35-2.97 2.916v29.268c.162 1.566 1.296 2.862 2.97 2.862h1.134Zm3.439-36.288 11.718-.054v1.404h-1.404c-1.566 0-2.7 1.242-2.862 2.754v25.056l28.134-30.024h1.242l-.27 2.16c-.162 1.296-.27 3.078-.27 4.86v27.432c.054 1.566 1.296 2.808 2.808 2.808h1.404v1.404h-11.772v-1.404h1.404c1.512 0 2.646-1.242 2.808-2.754v-25.11l-28.134 30.024h-1.188c.108-.756.216-1.512.27-2.322.162-1.35.27-3.132.27-4.806v-27.324c-.054-1.458-1.296-2.7-2.754-2.7h-1.404v-1.404Zm25.866-9.126h.432c0 3.024-2.538 5.562-5.562 5.562-3.024 0-5.562-2.538-5.562-5.562h.54c.594 1.458 2.538 2.916 5.076 2.916s4.482-1.458 5.076-2.916ZM24.097 167.802v13.932c.162 1.566 1.296 2.862 2.97 2.862h1.134V186H15.727v-1.404h1.134c1.674 0 2.808-1.296 2.97-2.862v-29.268c-.162-1.566-1.296-2.916-2.97-2.916h-1.134v-1.404h12.474v1.404h-1.134c-1.674 0-2.808 1.35-2.97 2.916v14.202l12.852-15.336c.216-.27.324-.486.324-.756 0-.594-.432-1.026-1.242-1.026h-.972v-1.35h12.042v1.35h-.648c-2.16 0-4.104.918-5.346 2.376l-12.852 14.04 14.904 16.686c1.296 1.35 2.7 1.89 5.022 1.944V186h-2.646c-1.512 0-5.724-.108-8.316-3.132l-13.122-15.066Zm48.072-20.358c11.449 0 19.44 7.83 19.44 19.656 0 11.826-7.991 19.656-19.44 19.656-11.447 0-19.44-7.83-19.44-19.656 0-11.826 7.992-19.656 19.44-19.656Zm0 36.828c8.749 0 14.526-6.858 14.526-17.172s-5.777-17.172-14.525-17.172c-8.695 0-14.473 6.858-14.473 17.172s5.778 17.172 14.472 17.172ZM135.29 186l-12.42-.054v-1.404h1.134c1.566 0 2.862-1.296 2.916-2.808v-13.23h-20.682v13.176c.162 1.566 1.296 2.862 2.97 2.862h1.134v1.404H97.868v-1.404h1.134c1.674 0 2.808-1.296 2.97-2.862v-29.268c-.162-1.566-1.296-2.916-2.97-2.916h-1.134v-1.404h12.474v1.404h-1.134c-1.674 0-2.808 1.35-2.97 2.916v13.608h20.682v-13.608c-.054-1.512-1.35-2.808-2.916-2.808h-1.134V148.2h12.42v1.404h-1.08c-1.674 0-2.808 1.35-2.97 2.916v29.214c.162 1.566 1.296 2.862 2.97 2.862h1.08V186Zm11.041-37.854h17.928c2.16 0 5.562-.594 6.75-1.188v7.776h-1.404v-1.404c0-1.458-1.08-2.592-2.538-2.646h-9.612v31.104c.162 1.566 1.296 2.862 2.97 2.862h1.134v1.404h-12.474v-1.404h1.134c1.512 0 2.808-1.242 2.862-2.808v-31.158h-9.558c-1.458.054-2.538 1.188-2.538 2.646v1.404h-1.458v-7.776c1.296.594 4.59 1.188 6.804 1.188Zm54.333 28.458-3.456 9.504h-22.68v-1.404h1.134c1.674 0 2.808-1.242 2.97-2.916v-29.484a2.926 2.926 0 0 0-2.916-2.592h-1.134v-1.404h15.876c2.16 0 5.562-.594 6.75-1.188v7.776h-1.404v-1.404c0-1.458-1.08-2.538-2.538-2.7h-10.26v15.39h8.424c1.242-.054 2.16-.972 2.16-2.214v-1.188h1.404v9.18h-1.404v-1.242c0-1.134-.972-2.106-2.052-2.16h-8.478v14.958h7.074c5.292 0 7.506-2.862 9.072-6.912h1.458Zm12.644-8.802v13.932c.162 1.566 1.296 2.862 2.97 2.862h1.134V186h-12.474v-1.404h1.134c1.674 0 2.808-1.296 2.97-2.862v-29.268c-.162-1.566-1.296-2.916-2.97-2.916h-1.134v-1.404h12.474v1.404h-1.134c-1.674 0-2.808 1.35-2.97 2.916v14.202l12.852-15.336c.216-.27.324-.486.324-.756 0-.594-.432-1.026-1.242-1.026h-.972v-1.35h12.042v1.35h-.648c-2.16 0-4.104.918-5.346 2.376l-12.852 14.04 14.904 16.686c1.296 1.35 2.7 1.89 5.022 1.944V186h-2.646c-1.512 0-5.724-.108-8.316-3.132l-13.122-15.066Zm62.22 1.89h1.242l-.702 8.91c-2.862 4.698-7.776 8.154-15.228 8.154-11.286 0-19.332-7.83-19.332-19.71 0-11.718 7.722-19.602 19.602-19.602 5.346 0 9.666 1.62 12.96 3.78l1.134 8.154h-1.296c-1.566-6.264-6.534-9.45-12.744-9.45-9.072 0-14.742 6.804-14.742 17.064s6.048 16.848 14.472 17.28c7.236 0 13.338-3.726 14.634-14.58Zm11.868-21.546h17.928c2.16 0 5.562-.594 6.75-1.188v7.776h-1.404v-1.404c0-1.458-1.08-2.592-2.538-2.646h-9.612v31.104c.162 1.566 1.296 2.862 2.97 2.862h1.134v1.404H290.15v-1.404h1.134c1.512 0 2.808-1.242 2.862-2.808v-31.158h-9.558c-1.458.054-2.538 1.188-2.538 2.646v1.404h-1.458v-7.776c1.296.594 4.59 1.188 6.804 1.188Z"/>
</svg>
