<svg xmlns="http://www.w3.org/2000/svg" width="315" height="243" fill="none">
  <path fill="#DE8E59" d="M32.61 42.672c-3.505-.912-6.96-2.064-9.505-3.12 1.2-1.104 2.4-2.064 3.648-3.024.144-9.408.192-18.912.192-28.32-1.44-.912-3.408-1.824-5.424-2.592 1.872-1.68 3.792-3.216 5.856-4.608 2.304.816 4.512 1.92 6.144 3.072-.192 1.296-.432 4.368-.432 6.672 1.152-3.168 3.216-6.816 5.76-9.744 3.36.384 7.872 1.92 10.32 3.408-.336 2.112-.624 4.224-.72 6.336 1.152-3.168 3.216-6.816 5.76-9.744 4.656.528 10.8 3.36 14.208 6.336-1.008.96-2.4 2.016-3.456 2.784-1.584 9.072-1.488 19.2-.72 24.336.24 1.776.432 2.064 4.704 4.08-1.776 1.632-3.888 3.12-5.952 4.272-1.392-.624-3.888-2.016-5.28-3.12-.672-7.008-.672-20.064 1.008-29.136.288-1.488-3.408-3.12-6.048-3.6-2.544 3.792-3.984 9.36-3.984 17.904 0 5.088.096 10.176.24 15.264a66.807 66.807 0 0 1-6.816 2.448c.192-5.184.288-10.464.288-15.648V9.6c0-1.152-2.688-2.304-5.088-2.688-2.544 3.84-3.984 9.36-3.984 17.952 0 2.976.096 5.904.192 8.88a36.072 36.072 0 0 1-2.832 1.872c2.256.864 4.992 1.728 7.776 2.448a48.423 48.423 0 0 1-5.856 4.608Zm53.054 5.232c-5.328-2.016-10.992-3.696-15.744-4.56a48.423 48.423 0 0 1 5.856-4.608c4.032.72 8.832 2.16 13.392 3.984.72-3.12 1.2-6.816 1.536-10.752a45.514 45.514 0 0 1-4.56 3.456c-5.136-.96-10.08-2.448-13.824-4.08 2.448-6.24 3.264-15.264 2.064-20.688 1.104-.768 2.208-1.44 3.312-2.112-2.736-1.104-5.856-2.112-8.928-2.976A48.423 48.423 0 0 1 74.624.96c3.552 1.008 7.2 2.208 10.272 3.552a43.399 43.399 0 0 1-4.032 3.312c.912 5.472-.192 13.344-2.976 18.768C81.392 28.08 86 29.52 90.8 30.576c.624-8.592.384-18.192-.48-25.248 1.92-1.632 4.56-3.36 6.72-4.32 1.44 11.088.768 28.944-1.968 41.136-2.544 2.16-6.048 4.272-9.408 5.76Zm25.458-5.232c-4.224-.576-8.352-1.776-11.376-3.264a37.845 37.845 0 0 1 4.896-5.088c2.688 1.296 6.24 2.496 9.936 3.264 1.68-3.072 1.968-7.248 1.536-10.704-.192-1.344-.432-1.584-1.68-2.112a76.322 76.322 0 0 0-9.888-2.976 35.753 35.753 0 0 1 5.856-4.128l2.88.72c1.296-1.728 1.68-5.232 1.2-8.4-.24-1.296-.48-1.536-1.728-1.968-3.264-.96-7.344-1.824-11.568-2.4 1.824-1.728 3.744-3.264 5.856-4.608 5.136.672 9.888 1.776 13.488 3.072 1.44 4.848-.048 10.224-5.664 14.736 2.736.768 5.328 1.68 7.344 2.592 1.44 7.152-1.056 13.392-6.192 17.856a27.022 27.022 0 0 1-4.896 3.408Zm28.889 0c-5.136-.672-10.176-2.064-13.872-3.84 1.2-1.104 2.4-2.112 3.648-3.024.288-9.216.288-18.384-.048-27.6-1.44-.912-3.408-1.824-5.424-2.592 1.872-1.68 3.792-3.216 5.856-4.608 2.4 1.056 4.704 2.304 6.384 3.552-.192 4.752-.24 9.504-.24 14.304a39.867 39.867 0 0 1 4.416-3.024c3.696.48 7.632 1.536 10.368 2.688 1.44 8.304-.72 15.984-6.192 20.736a27.022 27.022 0 0 1-4.896 3.408Zm-6.336-7.728c2.832 1.056 6.192 1.968 9.696 2.688 1.824-3.936 2.064-9.312 1.584-13.632-.144-1.344-.384-1.584-1.632-2.064-2.016-.672-4.464-1.296-7.008-1.728 0 4.272.096 8.544.24 12.816a42.866 42.866 0 0 1-2.88 1.92Zm15.072-29.376A48.423 48.423 0 0 1 154.603.96c3.552 1.008 7.2 2.208 10.272 3.552a41.966 41.966 0 0 1-3.648 3.024 371.175 371.175 0 0 0 .048 26.352 61.5 61.5 0 0 1-2.928 1.92 82.317 82.317 0 0 0 6.912 2.4 48.423 48.423 0 0 1-5.856 4.608c-3.168-.912-6.24-2.064-8.544-3.12 1.2-1.104 2.4-2.112 3.648-3.024a363.01 363.01 0 0 0-.048-26.064c1.008-.72 2.064-1.44 3.168-2.064-2.736-1.104-5.856-2.112-8.88-2.976Zm28.596-1.488a459.816 459.816 0 0 0-.24 18.192c3.264-3.696 7.248-8.832 10.608-13.536a50.625 50.625 0 0 0-7.344-3.456 39.003 39.003 0 0 1 6.144-4.272c2.784 1.056 5.568 2.352 8.256 4.032-3.696 4.944-8.448 10.56-11.568 13.92 3.168.912 6.864 2.304 9.6 3.744-.528 3.408-.72 10.608-.096 13.728 1.104.72 2.352 1.248 3.456 1.632a48.423 48.423 0 0 1-5.856 4.608c-1.2-.336-2.64-.96-3.792-1.728-.48-2.688-.48-9.696.144-13.776-2.544-1.296-6.336-2.736-9.552-3.6.048 3.408.144 6.768.24 10.176a36.072 36.072 0 0 1-2.832 1.872c2.256.864 4.992 1.728 7.776 2.448a48.423 48.423 0 0 1-5.856 4.608c-3.504-.912-6.96-2.064-9.504-3.12 1.2-1.104 2.4-2.112 3.648-3.024a428.55 428.55 0 0 0-.048-28.32c-1.44-.912-3.408-1.824-5.424-2.592 1.872-1.68 3.792-3.216 5.856-4.608 2.4.816 4.704 1.92 6.384 3.072Zm31.193 38.544c-4.032-.624-8.064-1.488-11.328-2.448a37.754 37.754 0 0 1 4.416-5.088l1.92.528c1.008-2.592 2.016-5.376 2.88-8.16-2.4-.336-4.752-.624-6.912-.816 1.056-1.68 2.208-3.264 3.456-4.608 1.536.144 3.168.384 4.896.624 1.248-4.56 2.208-9.072 2.688-12.912 1.008-.672 1.968-1.296 3.024-1.824-3.312-.96-6.96-1.728-10.704-2.352 1.872-1.68 3.792-3.216 5.856-4.608 6.384 1.008 12.624 2.688 17.136 4.56.432 4.8.72 10.368.72 16.368 0 4.512-.048 8.304-.288 11.904-.864.672-1.824 1.248-2.784 1.872a82.317 82.317 0 0 0 6.912 2.4 48.423 48.423 0 0 1-5.856 4.608c-3.168-.912-6.24-2.064-8.544-3.12a46.041 46.041 0 0 1 3.744-3.12c.24-2.4.384-6.096.48-9.696-.72 1.056-1.44 2.064-2.208 2.88-2.544-.624-5.424-1.152-8.304-1.68-1.296 3.12-2.688 5.904-4.032 8.208 2.304.528 4.752 1.008 7.248 1.392a37.754 37.754 0 0 1-4.416 5.088Zm2.976-19.344c3.024.576 6.048 1.248 8.736 1.968v-.864c0-4.32-.192-8.592-.576-12.912-.144-1.344-.336-1.584-1.584-2.112a29.245 29.245 0 0 0-2.448-.816c-.864 4.608-2.352 9.84-4.128 14.736Zm45.998 19.392c-3.168-.912-6.24-2.064-8.544-3.12a46.041 46.041 0 0 1 3.744-3.12c.288-2.928.48-7.776.48-12.048 0-4.32-.192-8.592-.576-12.912-.144-1.344-.336-1.584-1.584-2.112a53.215 53.215 0 0 0-3.888-1.248c-1.152 11.52-4.608 25.92-8.88 34.704-2.784-.336-5.664-1.152-7.632-2.16.48-2.592 1.2-5.472 1.824-7.536 1.104.672 2.784 1.344 4.368 1.872 3.408-8.544 5.664-17.952 6.816-25.776a26.21 26.21 0 0 1 2.256-1.488c-3.121-.864-6.576-1.584-10.08-2.16 1.872-1.68 3.792-3.216 5.856-4.608 6.384 1.008 12.624 2.688 17.136 4.56.432 4.8.72 10.368.72 16.368 0 4.512-.048 8.304-.288 11.904-.864.672-1.824 1.248-2.784 1.872a82.317 82.317 0 0 0 6.912 2.4 48.423 48.423 0 0 1-5.856 4.608Zm23.066 0c-5.664-.72-11.232-2.208-15.312-4.08 1.2-1.104 2.4-2.112 3.648-3.024.288-9.12.288-18.24-.048-27.36-1.44-.912-3.408-1.824-5.424-2.592 1.872-1.68 3.792-3.216 5.856-4.608 2.4 1.056 4.704 2.304 6.384 3.552-.192 4.752-.24 9.504-.24 14.304a39.867 39.867 0 0 1 4.416-3.024c4.224.576 8.688 1.824 11.808 3.168 1.44 8.112-.768 15.552-6.192 20.256a27.022 27.022 0 0 1-4.896 3.408Zm-7.728-8.016c3.168 1.2 7.056 2.256 11.088 2.976 1.776-3.744 2.064-8.976 1.584-13.152-.144-1.344-.384-1.584-1.632-2.112-2.4-.864-5.376-1.632-8.448-2.16 0 4.176.096 8.4.24 12.576a36.072 36.072 0 0 1-2.832 1.872ZM7.452 48.96c3.552 1.008 7.2 2.208 10.272 3.552a41.966 41.966 0 0 1-3.648 3.024c-.096 3.696-.192 7.392-.192 11.136 3.888.384 7.92.96 11.424 1.584 0-4.848-.048-9.648-.24-14.448 2.16-1.536 4.416-2.88 6.816-4.128a592.235 592.235 0 0 0-.24 16.032v17.28c0 1.344.144 1.632 1.344 2.304a21.932 21.932 0 0 0 3.024 1.344 31.402 31.402 0 0 1-5.856 4.128c-1.392-.576-3.456-1.872-5.088-3.12.192-5.76.24-11.616.24-17.376-.576.816-1.2 1.632-1.824 2.304-2.928-.432-6.24-.816-9.6-1.152.048 3.456.096 6.864.24 10.32a61.5 61.5 0 0 1-2.928 1.92 82.317 82.317 0 0 0 6.912 2.4 48.423 48.423 0 0 1-5.856 4.608c-3.168-.912-6.24-2.064-8.544-3.12 1.2-1.104 2.4-2.112 3.648-3.024.144-4.56.24-9.12.192-13.632-1.92-.144-3.744-.24-5.472-.336 1.056-1.68 2.208-3.264 3.456-4.608l1.968.144c-.048-2.496-.096-4.992-.192-7.488 1.008-.72 2.064-1.44 3.168-2.064-2.736-1.104-5.856-2.112-8.88-2.976a48.423 48.423 0 0 1 5.856-4.608Zm43.824 41.712C46.14 90 41.1 88.608 37.404 86.832c1.2-1.104 2.4-2.112 3.648-3.024.288-9.216.288-18.384-.048-27.6-1.44-.912-3.408-1.824-5.424-2.592 1.872-1.68 3.792-3.216 5.856-4.608 2.4 1.056 4.704 2.304 6.384 3.552-.192 4.752-.24 9.504-.24 14.304a39.867 39.867 0 0 1 4.416-3.024c3.696.48 7.632 1.536 10.368 2.688 1.44 8.304-.72 15.984-6.192 20.736a27.022 27.022 0 0 1-4.896 3.408Zm-6.336-7.728c2.832 1.056 6.192 1.968 9.696 2.688C56.46 81.696 56.7 76.32 56.22 72c-.144-1.344-.384-1.584-1.632-2.064-2.016-.672-4.464-1.296-7.008-1.728 0 4.272.096 8.544.24 12.816a42.866 42.866 0 0 1-2.88 1.92Zm15.072-29.376a48.423 48.423 0 0 1 5.856-4.608c3.552 1.008 7.2 2.208 10.272 3.552a41.966 41.966 0 0 1-3.648 3.024 371.175 371.175 0 0 0 .048 26.352 61.5 61.5 0 0 1-2.928 1.92 82.317 82.317 0 0 0 6.912 2.4 48.423 48.423 0 0 1-5.856 4.608c-3.168-.912-6.24-2.064-8.544-3.12 1.2-1.104 2.4-2.112 3.648-3.024a363.01 363.01 0 0 0-.048-26.064c1.008-.72 2.064-1.44 3.168-2.064-2.736-1.104-5.856-2.112-8.88-2.976Zm43.188 37.2c-1.584-.624-3.888-2.112-5.568-3.504a56.169 56.169 0 0 1-4.656 3.504c-4.944-.96-9.744-2.448-13.344-4.08C82.08 78.24 82.896 66 81.696 58.656c1.104-.768 2.208-1.44 3.312-2.112-2.736-1.104-5.856-2.112-8.928-2.976a48.423 48.423 0 0 1 5.856-4.608c3.552 1.008 7.2 2.208 10.272 3.552a53.392 53.392 0 0 1-4.032 3.36c.96 7.488-.192 18.576-3.12 26.016 3.456 1.536 8.208 3.024 13.056 4.128.192-5.376.24-10.8.24-16.176 0-5.376-.048-10.704-.24-16.032 2.16-1.536 4.416-2.88 6.816-4.128a592.235 592.235 0 0 0-.24 16.032v17.28c0 1.344.144 1.632 1.344 2.304a21.932 21.932 0 0 0 3.024 1.344 31.402 31.402 0 0 1-5.856 4.128ZM86.928 43.296c1.152-1.2 2.832-2.544 4.272-3.504 1.488 2.304 3.072 3.264 4.848 3.264 1.584 0 3.12-.72 4.464-2.832.72.432 1.632 1.104 2.112 1.632-1.872 3.696-4.512 5.808-8.16 5.808-3.12 0-5.952-1.632-7.536-4.368ZM121.7 66.144c-1.008-2.688-1.872-7.44-1.968-11.136a39.583 39.583 0 0 1 6.816-6.048c7.056.48 15.216 1.776 21.744 3.648-.816 1.92-1.968 4.032-2.928 5.472-2.352-.72-4.848-1.344-7.44-1.92-.24 8.352-.192 16.752.096 25.104a29.637 29.637 0 0 1-2.88 1.872c2.592 1.008 5.616 2.064 8.784 2.928a48.423 48.423 0 0 1-5.856 4.608c-3.888-1.056-7.632-2.4-10.464-3.6 1.2-1.104 2.4-2.112 3.648-3.024.288-8.64.288-17.28-.048-25.92 1.248-.912 2.592-1.728 3.936-2.544-3.6-.672-7.296-1.2-10.992-1.632.336 2.736 1.008 5.808 2.112 8.64-1.296 1.392-3.408 2.976-4.56 3.552Zm43.183 29.76c-5.328-2.016-10.992-3.696-15.744-4.56a48.423 48.423 0 0 1 5.856-4.608c4.032.72 8.832 2.16 13.392 3.984.72-3.12 1.2-6.816 1.536-10.752a45.514 45.514 0 0 1-4.56 3.456c-5.136-.96-10.08-2.448-13.824-4.08 2.448-6.24 3.264-15.264 2.064-20.688 1.104-.768 2.208-1.44 3.312-2.112-2.736-1.104-5.856-2.112-8.928-2.976a48.423 48.423 0 0 1 5.856-4.608c3.552 1.008 7.2 2.208 10.272 3.552a43.399 43.399 0 0 1-4.032 3.312c.912 5.472-.192 13.344-2.976 18.768 3.504 1.488 8.112 2.928 12.912 3.984.624-8.592.384-18.192-.48-25.248 1.92-1.632 4.56-3.36 6.72-4.32 1.44 11.088.768 28.944-1.968 41.136-2.544 2.16-6.048 4.272-9.408 5.76Zm35.921-37.776c-.528-1.248-.768-1.536-2.016-2.016-2.016-.768-4.464-1.536-7.056-2.208-.144 7.68-.24 15.36-.192 23.04a67.393 67.393 0 0 0 9.072 2.448c2.496-4.8 2.832-13.92.192-21.264Zm-21.264-4.512c1.872-1.68 3.792-3.216 5.856-4.608 2.4 1.056 4.656 2.304 6.336 3.504a55.395 55.395 0 0 1 4.608-3.504c3.84.864 7.488 2.016 10.224 3.264 3.792 9.696 1.872 23.184-4.512 28.752a27.022 27.022 0 0 1-4.896 3.408c-1.872-.24-3.744-.624-5.568-1.008l.192 9.024a66.807 66.807 0 0 1-6.816 2.448c.096-4.464.192-8.928.24-13.392a31.845 31.845 0 0 1-3.84-1.632 46.265 46.265 0 0 1 3.84-3.168c0-6.864-.048-13.68-.24-20.496-1.44-.912-3.408-1.824-5.424-2.592Zm58.234 37.056c-5.52-.72-10.848-2.208-14.832-4.08 1.2-1.104 2.4-2.112 3.648-3.024.288-8.304.288-16.656-.048-24.96a69.19 69.19 0 0 1 4.416-2.832c-3.264-.816-6.672-1.584-10.128-2.208 1.872-1.68 3.792-3.216 5.856-4.608 8.16 1.392 16.128 3.696 21.936 6.24 3.888 12.864 1.92 25.2-5.952 32.064a27.022 27.022 0 0 1-4.896 3.408Zm-7.296-8.016c3.12 1.2 6.816 2.256 10.704 2.976 3.6-6.816 4.128-16.896 1.632-24.576-.48-1.248-.72-1.536-1.968-2.016-2.256-.912-4.8-1.776-7.536-2.592-.288 8.112-.24 16.272.048 24.336a29.637 29.637 0 0 1-2.88 1.872Zm49.203 8.016c-3.168-.912-6.24-2.064-8.544-3.12a46.041 46.041 0 0 1 3.744-3.12c.288-2.928.48-7.776.48-12.048 0-4.32-.192-8.592-.576-12.912-.144-1.344-.336-1.584-1.584-2.112a53.215 53.215 0 0 0-3.888-1.248c-1.152 11.52-4.608 25.92-8.88 34.704-2.784-.336-5.664-1.152-7.632-2.16.48-2.592 1.2-5.472 1.824-7.536 1.104.672 2.784 1.344 4.368 1.872 3.408-8.544 5.664-17.952 6.816-25.776a26.21 26.21 0 0 1 2.256-1.488c-3.12-.864-6.576-1.584-10.08-2.16 1.872-1.68 3.792-3.216 5.856-4.608 6.384 1.008 12.624 2.688 17.136 4.56.432 4.8.72 10.368.72 16.368 0 4.512-.048 8.304-.288 11.904-.864.672-1.824 1.248-2.784 1.872a82.317 82.317 0 0 0 6.912 2.4 48.423 48.423 0 0 1-5.856 4.608Zm28.491.096c-1.392-.576-3.456-1.872-5.088-3.12.144-5.136.24-10.32.24-15.456-2.352 6.672-6.096 13.872-9.984 18.624-2.784-.336-5.664-1.152-7.632-2.16.48-2.592 1.2-5.472 1.824-7.536 1.488.816 3.696 1.728 5.76 2.352 2.448-2.64 4.416-5.424 5.952-7.968-3.312-.768-7.296-1.92-10.032-3.12-3.312-6.768-.72-15.504 4.512-20.112a27.022 27.022 0 0 1 4.896-3.408 75.312 75.312 0 0 1 14.88 3.84c-1.152 1.056-2.352 2.064-3.648 2.976-.096 3.312-.192 6.672-.192 10.032v17.28c0 1.344.144 1.632 1.344 2.304a21.932 21.932 0 0 0 3.024 1.344 31.402 31.402 0 0 1-5.856 4.128Zm-13.296-23.712c.576 1.2.864 1.44 2.112 1.872 1.872.528 4.032 1.104 6.336 1.584v-.672c0-3.6-.048-7.2-.24-10.752a63.806 63.806 0 0 1 2.976-1.968c-3.216-1.296-7.056-2.448-11.04-3.216-1.824 3.12-2.112 8.544-.144 13.152ZM17.742 143.904c-5.328-2.016-10.992-3.696-15.744-4.56a48.423 48.423 0 0 1 5.856-4.608c4.032.72 8.832 2.16 13.392 3.984.72-3.12 1.2-6.816 1.536-10.752a45.514 45.514 0 0 1-4.56 3.456c-5.136-.96-10.08-2.448-13.824-4.08 2.448-6.24 3.264-15.264 2.064-20.688 1.104-.768 2.208-1.44 3.312-2.112-2.736-1.104-5.856-2.112-8.928-2.976a48.423 48.423 0 0 1 5.856-4.608c3.552 1.008 7.2 2.208 10.272 3.552a43.399 43.399 0 0 1-4.032 3.312c.912 5.472-.192 13.344-2.976 18.768 3.504 1.488 8.112 2.928 12.912 3.984.624-8.592.384-18.192-.48-25.248 1.92-1.632 4.56-3.36 6.72-4.32 1.44 11.088.768 28.944-1.968 41.136-2.544 2.16-6.048 4.272-9.408 5.76Zm25.602-5.232c-3.504-.912-6.96-2.064-9.504-3.12 1.2-1.104 2.4-2.064 3.648-3.024.144-9.408.192-18.912.192-28.32-1.44-.912-3.408-1.824-5.424-2.592 1.872-1.68 3.792-3.216 5.856-4.608 2.304.816 4.512 1.92 6.144 3.072-.192 1.296-.432 4.368-.432 6.672 1.152-3.168 3.216-6.816 5.76-9.744 5.136.528 11.904 3.36 15.648 6.336-1.008.96-2.4 2.016-3.456 2.784-1.584 9.072-1.488 19.2-.72 24.336.24 1.776.432 2.064 4.704 4.08-1.776 1.632-3.888 3.12-5.952 4.272-1.392-.624-3.888-2.016-5.28-3.12-.672-7.008-.672-20.064 1.008-29.136.288-1.536-4.32-3.216-7.488-3.648-2.544 3.84-3.984 9.36-3.984 17.952 0 2.976.096 5.904.192 8.88a36.072 36.072 0 0 1-2.832 1.872c2.256.864 4.992 1.728 7.776 2.448a48.423 48.423 0 0 1-5.856 4.608Zm43.788-32.544c-.528-1.248-.768-1.536-2.016-2.016-2.016-.768-4.464-1.536-7.056-2.208-.144 7.68-.24 15.36-.192 23.04a67.393 67.393 0 0 0 9.072 2.448c2.496-4.8 2.832-13.92.192-21.264Zm-21.264-4.512c1.872-1.68 3.792-3.216 5.856-4.608 2.4 1.056 4.656 2.304 6.336 3.504a55.395 55.395 0 0 1 4.608-3.504c3.84.864 7.488 2.016 10.224 3.264 3.792 9.696 1.872 23.184-4.512 28.752a27.022 27.022 0 0 1-4.896 3.408c-1.872-.24-3.744-.624-5.568-1.008l.192 9.024a66.807 66.807 0 0 1-6.816 2.448c.096-4.464.192-8.928.24-13.392a31.845 31.845 0 0 1-3.84-1.632 46.265 46.265 0 0 1 3.84-3.168c0-6.864-.048-13.68-.24-20.496-1.44-.912-3.408-1.824-5.424-2.592Zm42.074 37.008c-4.032-.624-8.064-1.488-11.328-2.448a37.748 37.748 0 0 1 4.416-5.088l1.92.528c1.008-2.592 2.016-5.376 2.88-8.16-2.4-.336-4.752-.624-6.912-.816 1.056-1.68 2.208-3.264 3.456-4.608 1.536.144 3.168.384 4.896.624 1.248-4.56 2.208-9.072 2.688-12.912 1.008-.672 1.968-1.296 3.024-1.824-3.312-.96-6.96-1.728-10.704-2.352 1.872-1.68 3.792-3.216 5.856-4.608 6.384 1.008 12.624 2.688 17.136 4.56.432 4.8.72 10.368.72 16.368 0 4.512-.048 8.304-.288 11.904-.864.672-1.824 1.248-2.784 1.872a82.317 82.317 0 0 0 6.912 2.4 48.423 48.423 0 0 1-5.856 4.608c-3.168-.912-6.24-2.064-8.544-3.12a46.041 46.041 0 0 1 3.744-3.12c.24-2.4.384-6.096.48-9.696-.72 1.056-1.44 2.064-2.208 2.88-2.544-.624-5.424-1.152-8.304-1.68-1.296 3.12-2.688 5.904-4.032 8.208 2.304.528 4.752 1.008 7.248 1.392a37.754 37.754 0 0 1-4.416 5.088Zm2.976-19.344c3.024.576 6.048 1.248 8.736 1.968v-.864c0-4.32-.192-8.592-.576-12.912-.144-1.344-.336-1.584-1.584-2.112a29.245 29.245 0 0 0-2.448-.816c-.864 4.608-2.352 9.84-4.128 14.736Zm36.446 19.392c-5.664-.72-11.232-2.208-15.312-4.08 1.2-1.104 2.4-2.112 3.648-3.024.288-9.12.288-18.24-.048-27.36-1.44-.912-3.408-1.824-5.424-2.592 1.872-1.68 3.792-3.216 5.856-4.608 2.4 1.056 4.656 2.304 6.336 3.504a55.395 55.395 0 0 1 4.608-3.504c3.696.816 7.152 1.92 9.744 3.072 1.392 4.704.048 9.84-5.088 14.256 2.496.864 4.944 1.968 6.768 3.072 1.44 7.152-1.056 13.392-6.192 17.856a27.022 27.022 0 0 1-4.896 3.408Zm-7.728-8.016c3.216 1.2 7.104 2.256 11.184 3.024 1.68-3.12 1.968-7.344 1.536-10.8-.192-1.344-.384-1.632-1.584-2.304a44.14 44.14 0 0 0-6.384-2.592c1.68-1.392 3.408-2.592 5.232-3.744 1.248-1.776 1.584-5.184 1.104-8.256-.24-1.296-.48-1.536-1.728-2.064a78.404 78.404 0 0 0-6.576-2.016 386.088 386.088 0 0 0 .048 26.88 36.072 36.072 0 0 1-2.832 1.872Zm47.889 8.016c-3.168-.912-6.24-2.064-8.544-3.12a46.041 46.041 0 0 1 3.744-3.12c.288-2.928.48-7.776.48-12.048 0-4.32-.192-8.592-.576-12.912-.144-1.344-.336-1.584-1.584-2.112a53.215 53.215 0 0 0-3.888-1.248c-1.152 11.52-4.608 25.92-8.88 34.704-2.784-.336-5.664-1.152-7.632-2.16.48-2.592 1.2-5.472 1.824-7.536 1.104.672 2.784 1.344 4.368 1.872 3.408-8.544 5.664-17.952 6.816-25.776a26.21 26.21 0 0 1 2.256-1.488c-3.12-.864-6.576-1.584-10.08-2.16 1.872-1.68 3.792-3.216 5.856-4.608 6.384 1.008 12.624 2.688 17.136 4.56.432 4.8.72 10.368.72 16.368 0 4.512-.048 8.304-.288 11.904-.864.672-1.824 1.248-2.784 1.872a82.317 82.317 0 0 0 6.912 2.4 48.423 48.423 0 0 1-5.856 4.608Zm26.186 0c-7.44-1.296-14.64-3.312-20.064-5.52 1.2-1.104 2.4-2.112 3.648-3.024.336-2.592.576-7.68.576-12.144 0-4.752-.24-9.456-.72-14.208 2.928-2.4 7.056-5.04 10.32-6.816a119.17 119.17 0 0 0 11.712 3.072 48.423 48.423 0 0 1-5.856 4.608c-3.216-.624-6.576-1.44-9.648-2.4.336 3.984.528 8.448.528 13.248v1.776c.72-1.2 1.488-2.304 2.304-3.312 3.6 0 8.256.192 11.808.576-1.056 2.016-2.208 3.84-3.456 5.328-3.168-.288-7.248-.528-10.656-.576a158.73 158.73 0 0 1-.288 7.152c-1.152.864-2.352 1.632-3.648 2.4 5.328 2.016 12.192 3.888 19.296 5.232a48.423 48.423 0 0 1-5.856 4.608Zm11.991-41.712c3.552 1.008 7.2 2.208 10.272 3.552a41.966 41.966 0 0 1-3.648 3.024c-.096 3.696-.192 7.392-.192 11.136 3.888.384 7.92.96 11.424 1.584 0-4.848-.048-9.648-.24-14.448 2.16-1.536 4.416-2.88 6.816-4.128a592.235 592.235 0 0 0-.24 16.032v17.28c0 1.344.144 1.632 1.344 2.304a21.932 21.932 0 0 0 3.024 1.344 31.402 31.402 0 0 1-5.856 4.128c-1.392-.576-3.456-1.872-5.088-3.12.192-5.76.24-11.616.24-17.376-.576.816-1.2 1.632-1.824 2.304-2.928-.432-6.24-.816-9.6-1.152.048 3.456.096 6.864.24 10.32a61.5 61.5 0 0 1-2.928 1.92 82.317 82.317 0 0 0 6.912 2.4 48.423 48.423 0 0 1-5.856 4.608c-3.168-.912-6.24-2.064-8.544-3.12 1.2-1.104 2.4-2.112 3.648-3.024.144-4.56.24-9.12.192-13.632-1.92-.144-3.744-.24-5.472-.336 1.056-1.68 2.208-3.264 3.456-4.608l1.968.144a389.77 389.77 0 0 0-.192-7.488c1.008-.72 2.064-1.44 3.168-2.064-2.736-1.104-5.856-2.112-8.88-2.976a48.423 48.423 0 0 1 5.856-4.608Zm55.248 41.808c-1.584-.624-3.888-2.112-5.568-3.504a56.169 56.169 0 0 1-4.656 3.504c-4.944-.96-9.744-2.448-13.344-4.08 2.448-8.448 3.264-20.688 2.064-28.032 1.104-.768 2.208-1.44 3.312-2.112-2.736-1.104-5.856-2.112-8.928-2.976a48.423 48.423 0 0 1 5.856-4.608c3.552 1.008 7.2 2.208 10.272 3.552a53.392 53.392 0 0 1-4.032 3.36c.96 7.488-.192 18.576-3.12 26.016 3.456 1.536 8.208 3.024 13.056 4.128.192-5.376.24-10.8.24-16.176 0-5.376-.048-10.704-.24-16.032 2.16-1.536 4.416-2.88 6.816-4.128a592.235 592.235 0 0 0-.24 16.032v17.28c0 1.344.144 1.632 1.344 2.304a21.932 21.932 0 0 0 3.024 1.344 31.402 31.402 0 0 1-5.856 4.128Zm27.972 0c-1.392-.576-3.456-1.872-5.088-3.12.144-5.136.24-10.32.24-15.456-2.352 6.672-6.096 13.872-9.984 18.624-2.784-.336-5.664-1.152-7.632-2.16.48-2.592 1.2-5.472 1.824-7.536 1.488.816 3.696 1.728 5.76 2.352 2.448-2.64 4.416-5.424 5.952-7.968-3.312-.768-7.296-1.92-10.032-3.12-3.312-6.768-.72-15.504 4.512-20.112a27.022 27.022 0 0 1 4.896-3.408 75.312 75.312 0 0 1 14.88 3.84c-1.152 1.056-2.352 2.064-3.648 2.976-.096 3.312-.192 6.672-.192 10.032v17.28c0 1.344.144 1.632 1.344 2.304a21.932 21.932 0 0 0 3.024 1.344 31.402 31.402 0 0 1-5.856 4.128Zm-13.296-23.712c.576 1.2.864 1.44 2.112 1.872 1.872.528 4.032 1.104 6.336 1.584v-.672c0-3.6-.048-7.2-.24-10.752a63.806 63.806 0 0 1 2.976-1.968c-3.216-1.296-7.056-2.448-11.04-3.216-1.824 3.12-2.112 8.544-.144 13.152ZM27.823 144.96a115.273 115.273 0 0 0 11.52 3.072 48.423 48.423 0 0 1-5.856 4.608c-3.12-.624-6.336-1.392-9.36-2.352-.624 4.8-1.008 10.368-1.008 15.936 0 3.36.192 6.672.528 9.84.192 1.344.384 1.632 1.584 2.16 3.456 1.536 7.872 2.976 12.384 3.984-1.872 1.68-3.792 3.216-5.856 4.608-5.328-1.056-10.464-2.832-14.256-4.8-.48-3.792-.72-7.92-.72-12 0-8.016.672-15.024 2.064-19.824 2.736-2.064 5.712-3.696 8.976-5.232Zm37.358 41.712c-3.168-.912-6.24-2.064-8.544-3.12a46.041 46.041 0 0 1 3.744-3.12c.288-2.928.48-7.776.48-12.048 0-4.32-.192-8.592-.576-12.912-.144-1.344-.336-1.584-1.584-2.112a53.215 53.215 0 0 0-3.888-1.248c-1.152 11.52-4.608 25.92-8.88 34.704-2.784-.336-5.664-1.152-7.632-2.16.48-2.592 1.2-5.472 1.824-7.536 1.104.672 2.784 1.344 4.368 1.872 3.408-8.544 5.664-17.952 6.816-25.776a26.21 26.21 0 0 1 2.256-1.488c-3.12-.864-6.576-1.584-10.08-2.16 1.872-1.68 3.792-3.216 5.856-4.608 6.384 1.008 12.624 2.688 17.136 4.56.432 4.8.72 10.368.72 16.368 0 4.512-.048 8.304-.288 11.904-.864.672-1.824 1.248-2.784 1.872a82.317 82.317 0 0 0 6.912 2.4 48.423 48.423 0 0 1-5.856 4.608ZM84.6 144.96c5.136.96 10.128 2.544 13.776 4.32.48 3.936.72 8.256.72 12.48 0 8.016-.672 15.024-2.064 19.824-2.736 2.064-5.712 3.696-8.976 5.232-5.136-.96-10.128-2.544-13.776-4.32-.48-3.936-.72-8.256-.72-12.48 0-8.016.672-15.024 2.064-19.824 2.736-2.064 5.712-3.696 8.976-5.232Zm-4.704 21.264c0 3.504.192 7.008.528 10.32.192 1.344.384 1.632 1.584 2.16 2.784 1.104 6.144 2.16 9.696 3.024.672-4.896 1.056-10.512 1.056-16.176 0-3.504-.192-7.008-.528-10.32-.192-1.344-.384-1.632-1.584-2.16a68.218 68.218 0 0 0-9.696-3.024c-.672 4.848-1.056 10.512-1.056 16.176Zm59.265 20.448c-1.2-.336-2.64-.96-3.792-1.728-.432-2.544-.48-8.784-.048-13.2.192-1.344 0-1.632-1.2-2.208-2.112-.96-4.8-1.968-7.2-2.64 0 6.24.096 12.48.24 18.672-2.16 1.008-4.416 1.872-6.816 2.688.192-7.344.24-14.688.24-22.032a126.136 126.136 0 0 0-8.448 5.472c.192 4.128.144 8.64-.096 11.328a44.01 44.01 0 0 1-6.816 3.792c.288-4.656.288-9.792.096-15.216a119.891 119.891 0 0 1 7.968-3.696c-2.496-.864-5.328-2.112-7.44-3.408.384-3.792.672-9.888.672-12.96a19.225 19.225 0 0 0-4.032-1.92 48.423 48.423 0 0 1 5.856-4.608c1.44.432 3.12 1.2 4.464 2.16-.432 4.608-.816 10.128-.816 11.904 0 1.968 1.632 2.736 8.592 5.136 0-5.76-.096-11.52-.24-17.28 2.16-1.008 4.416-1.872 6.816-2.688a959.794 959.794 0 0 0-.24 20.4c2.496-2.064 5.328-4.656 7.824-7.152.96-.96 1.008-1.248.24-2.4-1.584-2.352-3.168-4.32-4.8-5.808a54.003 54.003 0 0 1 6.144-4.272c2.304 2.544 4.608 5.712 6.816 9.792-3.216 2.736-7.2 5.856-10.176 7.968 2.928.912 6.24 2.16 8.688 3.456-.528 3.504-.72 10.992-.096 14.208 1.104.72 2.352 1.248 3.456 1.632a48.423 48.423 0 0 1-5.856 4.608Zm12.666-41.712c3.552 1.008 7.2 2.208 10.272 3.552a41.966 41.966 0 0 1-3.648 3.024c-.096 3.696-.192 7.392-.192 11.136 3.888.384 7.92.96 11.424 1.584 0-4.848-.048-9.648-.24-14.448 2.16-1.536 4.416-2.88 6.816-4.128a592.235 592.235 0 0 0-.24 16.032v17.28c0 1.344.144 1.632 1.344 2.304a21.932 21.932 0 0 0 3.024 1.344 31.402 31.402 0 0 1-5.856 4.128c-1.392-.576-3.456-1.872-5.088-3.12.192-5.76.24-11.616.24-17.376-.576.816-1.2 1.632-1.824 2.304-2.928-.432-6.24-.816-9.6-1.152.048 3.456.096 6.864.24 10.32a61.5 61.5 0 0 1-2.928 1.92 82.317 82.317 0 0 0 6.912 2.4 48.423 48.423 0 0 1-5.856 4.608c-3.168-.912-6.24-2.064-8.544-3.12 1.2-1.104 2.4-2.112 3.648-3.024.144-4.56.24-9.12.192-13.632-1.92-.144-3.744-.24-5.472-.336 1.056-1.68 2.208-3.264 3.456-4.608l1.968.144a389.77 389.77 0 0 0-.192-7.488c1.008-.72 2.064-1.44 3.168-2.064-2.736-1.104-5.856-2.112-8.88-2.976a48.423 48.423 0 0 1 5.856-4.608Zm43.824 41.712c-5.136-.672-10.176-2.064-13.872-3.84 1.2-1.104 2.4-2.112 3.648-3.024.288-9.216.288-18.384-.048-27.6-1.44-.912-3.408-1.824-5.424-2.592 1.872-1.68 3.792-3.216 5.856-4.608 2.4 1.056 4.704 2.304 6.384 3.552-.192 4.752-.24 9.504-.24 14.304a39.867 39.867 0 0 1 4.416-3.024c3.696.48 7.632 1.536 10.368 2.688 1.44 8.304-.72 15.984-6.192 20.736a27.022 27.022 0 0 1-4.896 3.408Zm-6.336-7.728c2.832 1.056 6.192 1.968 9.696 2.688 1.824-3.936 2.064-9.312 1.584-13.632-.144-1.344-.384-1.584-1.632-2.064-2.016-.672-4.464-1.296-7.008-1.728 0 4.272.096 8.544.24 12.816a42.866 42.866 0 0 1-2.88 1.92Zm15.072-29.376a48.423 48.423 0 0 1 5.856-4.608c3.552 1.008 7.2 2.208 10.272 3.552a41.966 41.966 0 0 1-3.648 3.024 371.175 371.175 0 0 0 .048 26.352 61.5 61.5 0 0 1-2.928 1.92 82.317 82.317 0 0 0 6.912 2.4 48.423 48.423 0 0 1-5.856 4.608c-3.168-.912-6.24-2.064-8.544-3.12 1.2-1.104 2.4-2.112 3.648-3.024a363.01 363.01 0 0 0-.048-26.064c1.008-.72 2.064-1.44 3.168-2.064-2.736-1.104-5.856-2.112-8.88-2.976Zm27.3 37.104c-3.504-.912-6.96-2.064-9.504-3.12 1.2-1.104 2.4-2.064 3.648-3.024.144-9.408.192-18.912.192-28.32-1.44-.912-3.408-1.824-5.424-2.592 1.872-1.68 3.792-3.216 5.856-4.608 2.304.816 4.512 1.92 6.144 3.072-.192 1.296-.432 4.368-.432 6.672 1.152-3.168 3.216-6.816 5.76-9.744 3.36.384 7.872 1.92 10.32 3.408-.336 2.112-.624 4.224-.72 6.336 1.152-3.168 3.216-6.816 5.76-9.744 4.656.528 10.8 3.36 14.208 6.336-1.008.96-2.4 2.016-3.456 2.784-1.584 9.072-1.488 19.2-.72 24.336.24 1.776.432 2.064 4.704 4.08-1.776 1.632-3.888 3.12-5.952 4.272-1.392-.624-3.888-2.016-5.28-3.12-.672-7.008-.672-20.064 1.008-29.136.288-1.488-3.408-3.12-6.048-3.6-2.544 3.792-3.984 9.36-3.984 17.904 0 5.088.096 10.176.24 15.264a66.807 66.807 0 0 1-6.816 2.448c.192-5.184.288-10.464.288-15.648V153.6c0-1.152-2.688-2.304-5.088-2.688-2.544 3.84-3.984 9.36-3.984 17.952 0 2.976.096 5.904.192 8.88a36.072 36.072 0 0 1-2.832 1.872c2.256.864 4.992 1.728 7.776 2.448a48.423 48.423 0 0 1-5.856 4.608Zm63.279.096c-1.584-.624-3.888-2.112-5.568-3.504a56.169 56.169 0 0 1-4.656 3.504c-4.944-.96-9.744-2.448-13.344-4.08 2.448-8.448 3.264-20.688 2.064-28.032 1.104-.768 2.208-1.44 3.312-2.112-2.736-1.104-5.856-2.112-8.928-2.976a48.423 48.423 0 0 1 5.856-4.608c3.552 1.008 7.2 2.208 10.272 3.552a53.392 53.392 0 0 1-4.032 3.36c.96 7.488-.192 18.576-3.12 26.016 3.456 1.536 8.208 3.024 13.056 4.128.192-5.376.24-10.8.24-16.176 0-5.376-.048-10.704-.24-16.032 2.16-1.536 4.416-2.88 6.816-4.128a592.235 592.235 0 0 0-.24 16.032v17.28c0 1.344.144 1.632 1.344 2.304a21.932 21.932 0 0 0 3.024 1.344 31.402 31.402 0 0 1-5.856 4.128ZM33.788 215.856c-3.552-.336-8.208-.576-11.808-.576 1.056-1.968 2.208-3.792 3.456-5.328 3.168 0 7.152.144 10.512.432-.096-2.736-.336-5.472-.624-8.064-.192-1.344-.432-1.584-1.728-1.968-3.648-1.056-8.304-2.064-13.056-2.736 1.872-1.68 3.792-3.216 5.856-4.608 5.664.72 11.04 1.968 15.024 3.36.624 4.224.912 8.88.912 13.44 0 7.92-.672 14.88-2.064 19.632-2.736 2.064-5.712 3.696-8.976 5.232-4.56-.576-9.072-1.776-12.336-3.264a44.82 44.82 0 0 1 4.896-5.088c2.976 1.344 6.96 2.544 11.088 3.36.672-4.848 1.056-10.464 1.056-16.08v-.864c-.72 1.152-1.44 2.208-2.208 3.12Zm22.423 18.816c-3.504-.912-6.96-2.064-9.504-3.12 1.2-1.104 2.4-2.064 3.648-3.024.144-9.408.192-18.912.192-28.32-1.44-.912-3.408-1.824-5.424-2.592 1.872-1.68 3.792-3.216 5.856-4.608 2.304.816 4.512 1.92 6.144 3.072-.192 1.296-.432 4.368-.432 6.672 1.152-3.168 3.216-6.816 5.76-9.744 3.36.384 7.872 1.92 10.32 3.408-.336 2.112-.624 4.224-.72 6.336 1.152-3.168 3.216-6.816 5.76-9.744 4.656.528 10.8 3.36 14.208 6.336-1.008.96-2.4 2.016-3.456 2.784-1.584 9.072-1.488 19.2-.72 24.336.24 1.776.432 2.064 4.704 4.08-1.776 1.632-3.888 3.12-5.952 4.272-1.392-.624-3.888-2.016-5.28-3.12-.672-7.008-.672-20.064 1.008-29.136.288-1.488-3.408-3.12-6.048-3.6-2.544 3.792-3.984 9.36-3.984 17.904 0 5.088.096 10.176.24 15.264a66.807 66.807 0 0 1-6.816 2.448c.192-5.184.288-10.464.288-15.648V201.6c0-1.152-2.688-2.304-5.088-2.688-2.544 3.84-3.984 9.36-3.984 17.952 0 2.976.096 5.904.192 8.88a36.072 36.072 0 0 1-2.832 1.872c2.256.864 4.992 1.728 7.776 2.448a48.423 48.423 0 0 1-5.856 4.608Zm49.646-41.712c5.136.96 10.128 2.544 13.776 4.32.48 3.936.72 8.256.72 12.48 0 8.016-.672 15.024-2.064 19.824-2.736 2.064-5.712 3.696-8.976 5.232-5.136-.96-10.128-2.544-13.776-4.32-.48-3.936-.72-8.256-.72-12.48 0-8.016.672-15.024 2.064-19.824 2.736-2.064 5.712-3.696 8.976-5.232Zm-4.704 21.264c0 3.504.192 7.008.528 10.32.192 1.344.384 1.632 1.584 2.16 2.784 1.104 6.144 2.16 9.696 3.024.672-4.896 1.056-10.512 1.056-16.176 0-3.504-.192-7.008-.528-10.32-.192-1.344-.384-1.632-1.584-2.16a68.218 68.218 0 0 0-9.696-3.024c-.672 4.848-1.056 10.512-1.056 16.176Zm48.946 20.544c-1.584-.624-3.888-2.112-5.568-3.504a56.169 56.169 0 0 1-4.656 3.504c-4.944-.96-9.744-2.448-13.344-4.08 2.448-8.448 3.264-20.688 2.064-28.032 1.104-.768 2.208-1.44 3.312-2.112-2.736-1.104-5.856-2.112-8.928-2.976a48.423 48.423 0 0 1 5.856-4.608c3.552 1.008 7.2 2.208 10.272 3.552a53.392 53.392 0 0 1-4.032 3.36c.96 7.488-.192 18.576-3.12 26.016 3.456 1.536 8.208 3.024 13.056 4.128.192-5.376.24-10.8.24-16.176 0-5.376-.048-10.704-.24-16.032 2.16-1.536 4.416-2.88 6.816-4.128a592.235 592.235 0 0 0-.24 16.032v17.28c0 1.344.144 1.632 1.344 2.304a21.932 21.932 0 0 0 3.024 1.344 31.402 31.402 0 0 1-5.856 4.128Zm-9.552 4.224a24.078 24.078 0 0 1 3.072-3.792c3.792.24 7.968 1.056 11.616 2.544-.72 1.392-1.728 3.168-2.592 4.416-4.08-1.68-8.832-2.88-12.096-3.168Zm42.083-4.224c-1.584-.624-3.888-2.112-5.568-3.504a56.169 56.169 0 0 1-4.656 3.504c-4.944-.96-9.744-2.448-13.344-4.08 2.448-8.448 3.264-20.688 2.064-28.032 1.104-.768 2.208-1.44 3.312-2.112-2.736-1.104-5.856-2.112-8.928-2.976a48.423 48.423 0 0 1 5.856-4.608c3.552 1.008 7.2 2.208 10.272 3.552a53.392 53.392 0 0 1-4.032 3.36c.96 7.488-.192 18.576-3.12 26.016 3.456 1.536 8.208 3.024 13.056 4.128.192-5.376.24-10.8.24-16.176 0-5.376-.048-10.704-.24-16.032 2.16-1.536 4.416-2.88 6.816-4.128a592.235 592.235 0 0 0-.24 16.032v17.28c0 1.344.144 1.632 1.344 2.304a21.932 21.932 0 0 0 3.024 1.344 31.402 31.402 0 0 1-5.856 4.128Zm27.971 0c-1.392-.576-3.456-1.872-5.088-3.12.144-5.136.24-10.32.24-15.456-2.352 6.672-6.096 13.872-9.984 18.624-2.784-.336-5.664-1.152-7.632-2.16.48-2.592 1.2-5.472 1.824-7.536 1.488.816 3.696 1.728 5.76 2.352 2.448-2.64 4.416-5.424 5.952-7.968-3.312-.768-7.296-1.92-10.032-3.12-3.312-6.768-.72-15.504 4.512-20.112a27.022 27.022 0 0 1 4.896-3.408 75.312 75.312 0 0 1 14.88 3.84c-1.152 1.056-2.352 2.064-3.648 2.976-.096 3.312-.192 6.672-.192 10.032v17.28c0 1.344.144 1.632 1.344 2.304a21.932 21.932 0 0 0 3.024 1.344 31.402 31.402 0 0 1-5.856 4.128Zm-13.296-23.712c.576 1.2.864 1.44 2.112 1.872 1.872.528 4.032 1.104 6.336 1.584v-.672c0-3.6-.048-7.2-.24-10.752a63.806 63.806 0 0 1 2.976-1.968c-3.216-1.296-7.056-2.448-11.04-3.216-1.824 3.12-2.112 8.544-.144 13.152Zm29.953 23.616c-3.504-.912-6.96-2.064-9.504-3.12 1.2-1.104 2.4-2.064 3.648-3.024.144-9.408.192-18.912.192-28.32-1.44-.912-3.408-1.824-5.424-2.592 1.872-1.68 3.792-3.216 5.856-4.608 2.304.816 4.512 1.92 6.144 3.072-.192 1.296-.432 4.368-.432 6.672 1.152-3.168 3.216-6.816 5.76-9.744 3.36.384 7.872 1.92 10.32 3.408-.336 2.112-.624 4.224-.72 6.336 1.152-3.168 3.216-6.816 5.76-9.744 4.656.528 10.8 3.36 14.208 6.336-1.008.96-2.4 2.016-3.456 2.784-1.584 9.072-1.488 19.2-.72 24.336.24 1.776.432 2.064 4.704 4.08-1.776 1.632-3.888 3.12-5.952 4.272-1.392-.624-3.888-2.016-5.28-3.12-.672-7.008-.672-20.064 1.008-29.136.288-1.488-3.408-3.12-6.048-3.6-2.544 3.792-3.984 9.36-3.984 17.904 0 5.088.096 10.176.24 15.264a66.807 66.807 0 0 1-6.816 2.448c.192-5.184.288-10.464.288-15.648V201.6c0-1.152-2.688-2.304-5.088-2.688-2.544 3.84-3.984 9.36-3.984 17.952 0 2.976.096 5.904.192 8.88a36.072 36.072 0 0 1-2.832 1.872c2.256.864 4.992 1.728 7.776 2.448a48.423 48.423 0 0 1-5.856 4.608Zm63.278.096c-1.584-.624-3.888-2.112-5.568-3.504a56.169 56.169 0 0 1-4.656 3.504c-4.944-.96-9.744-2.448-13.344-4.08 2.448-8.448 3.264-20.688 2.064-28.032 1.104-.768 2.208-1.44 3.312-2.112-2.736-1.104-5.856-2.112-8.928-2.976a48.423 48.423 0 0 1 5.856-4.608c3.552 1.008 7.2 2.208 10.272 3.552a53.392 53.392 0 0 1-4.032 3.36c.96 7.488-.192 18.576-3.12 26.016 3.456 1.536 8.208 3.024 13.056 4.128.192-5.376.24-10.8.24-16.176 0-5.376-.048-10.704-.24-16.032 2.16-1.536 4.416-2.88 6.816-4.128a592.235 592.235 0 0 0-.24 16.032v17.28c0 1.344.144 1.632 1.344 2.304a21.932 21.932 0 0 0 3.024 1.344 31.402 31.402 0 0 1-5.856 4.128Z"/>
</svg>
