<svg xmlns="http://www.w3.org/2000/svg" width="270" height="157" fill="none">
  <path fill="#E2D2BB" d="M89.261 23.348v-3.78c0-.612-.18-.936-.54-.972-.36-.036-.594.306-.702 1.026a19.81 19.81 0 0 0-.108.972c-.036.36-.09.738-.162 1.134-.036.36-.09.72-.162 1.08-.036.36-.072.648-.108.864-.792 3.276-2.232 5.778-4.32 7.506-2.052 1.692-4.662 2.61-7.83 2.754-1.98.072-3.834-.072-5.562-.432-1.692-.36-3.186-1.062-4.482-2.106-1.26-1.08-2.286-2.538-3.078-4.374-.792-1.872-1.278-4.248-1.458-7.128a55.766 55.766 0 0 1 .054-5.508c.108-1.764.198-3.636.27-5.616.036-1.26-.09-2.178-.378-2.754-.288-.612-.954-1.008-1.998-1.188-.396-.072-.702-.252-.918-.54a2.165 2.165 0 0 1-.324-.918c0-.324.072-.63.216-.918.18-.324.468-.54.864-.648 1.836-.612 4.086-.918 6.75-.918 2.34 0 4.338.216 5.994.648 1.656.396 2.988 1.08 3.996 2.052 1.044.972 1.782 2.25 2.214 3.834.432 1.584.594 3.528.486 5.832a339.17 339.17 0 0 0-.108 3.294c0 1.26-.018 2.304-.054 3.132a50.163 50.163 0 0 0 0 3.294c.036.972.126 1.818.27 2.538.18.684.45 1.242.81 1.674.36.396.846.594 1.458.594 1.152 0 2.07-.522 2.754-1.566.72-1.08 1.278-2.52 1.674-4.32.252-1.152.45-2.484.594-3.996.18-1.512.306-3.096.378-4.752.072-1.692.108-3.402.108-5.13.036-1.728.054-3.384.054-4.968 0-.72.36-1.08 1.08-1.08h14.148c.72 0 1.08.36 1.08 1.08V45.92c0 .72-.36 1.08-1.08 1.08h-15.39c-.72 0-1.08-.36-1.08-1.08 0-1.296.216-2.682.648-4.158.468-1.476.972-3.114 1.512-4.914.576-1.8 1.098-3.798 1.566-5.994.504-2.232.792-4.734.864-7.506Zm32.96 17.496c.072 1.26.414 2.16 1.026 2.7.612.504 1.422.756 2.43.756 1.26 0 2.232-.324 2.916-.972.684-.648 1.26-1.458 1.728-2.43.468-1.008.9-2.088 1.296-3.24a13.804 13.804 0 0 1 1.566-3.186c.648-1.008 1.512-1.836 2.592-2.484 1.08-.648 2.52-.972 4.32-.972.648 0 .972.36.972 1.08V45.92c0 .72-.324 1.08-.972 1.08h-33.534c-.72 0-1.08-.36-1.08-1.08V3.044c0-.72.36-1.08 1.08-1.08h32.94c1.044 0 1.566.54 1.566 1.62 0 2.052-.45 3.798-1.35 5.238a13.14 13.14 0 0 1-3.294 3.618 20.241 20.241 0 0 1-4.266 2.538 598.363 598.363 0 0 1-4.32 1.89c-1.296.54-2.394 1.08-3.294 1.62-.864.54-1.296 1.152-1.296 1.836 0 .432.162.792.486 1.08.324.288.756.432 1.296.432s1.17-.144 1.89-.432l2.16-.972c.72-.36 1.404-.684 2.052-.972.684-.324 1.242-.486 1.674-.486.72 0 1.08.45 1.08 1.35v9.72c0 .252-.144.522-.432.81-.252.252-.612.486-1.08.702a7.394 7.394 0 0 1-1.512.54 9.358 9.358 0 0 1-1.728.162c-2.016 0-3.78-.612-5.292-1.836-1.512-1.26-2.556-2.916-3.132-4.968.288 2.52.558 5.094.81 7.722.288 2.628.522 5.184.702 7.668Zm-1.944-19.278c.108-1.764.522-3.222 1.242-4.374a24.089 24.089 0 0 1 2.43-3.132 31.912 31.912 0 0 0 2.322-2.808c.684-.972 1.026-2.124 1.026-3.456 0-2.088-1.224-3.132-3.672-3.132-1.548 0-2.628.45-3.24 1.35-.576.864-.864 2.466-.864 4.806 0 1.368.072 2.97.216 4.806.144 1.836.324 3.816.54 5.94ZM192.03 1.964c1.836 0 3.438.306 4.806.918 1.368.576 2.538 1.368 3.51 2.376a12.11 12.11 0 0 1 2.484 3.456 24.941 24.941 0 0 1 1.62 4.158c.432 1.476.756 2.988.972 4.536.252 1.548.432 3.024.54 4.428.108 1.296.18 2.592.216 3.888.072 1.296.144 2.664.216 4.104.072 1.44.162 3.006.27 4.698a145.9 145.9 0 0 0 .486 5.67c.108 1.26.342 2.196.702 2.808.396.576 1.116.954 2.16 1.134.432.072.756.252.972.54.252.252.396.558.432.918.036.324-.018.648-.162.972a1.158 1.158 0 0 1-.702.594c-.936.324-1.944.558-3.024.702-1.044.144-2.25.216-3.618.216-2.376 0-4.428-.198-6.156-.594-1.692-.396-3.114-.99-4.266-1.782a8.685 8.685 0 0 1-2.592-3.024c-.576-1.188-.936-2.574-1.08-4.158-.144-1.584-.108-3.51.108-5.778.252-2.268.522-4.626.81-7.074.324-2.484.612-4.932.864-7.344.288-2.448.396-4.644.324-6.588-.036-1.944-.306-3.51-.81-4.698-.468-1.224-1.296-1.836-2.484-1.836h-1.944c-1.116 0-1.926.54-2.43 1.62-.468 1.044-.756 2.448-.864 4.212-.072 1.728 0 3.708.216 5.94.216 2.196.468 4.464.756 6.804.288 2.304.558 4.572.81 6.804s.378 4.212.378 5.94v9.396c0 .72-.36 1.08-1.08 1.08h-14.85c-.72 0-1.08-.36-1.08-1.08v-9.396c0-1.728.126-3.708.378-5.94s.522-4.5.81-6.804c.288-2.34.54-4.608.756-6.804.216-2.232.27-4.212.162-5.94-.072-1.764-.36-3.168-.864-4.212-.468-1.08-1.26-1.62-2.376-1.62h-1.944c-1.188 0-2.034.612-2.538 1.836-.468 1.188-.738 2.754-.81 4.698-.036 1.944.072 4.14.324 6.588.288 2.412.576 4.86.864 7.344.324 2.448.594 4.806.81 7.074.252 2.268.306 4.194.162 5.778-.252 3.168-1.494 5.562-3.726 7.182-2.196 1.584-5.652 2.376-10.368 2.376-1.368 0-2.592-.072-3.672-.216a15.555 15.555 0 0 1-2.97-.702 1.158 1.158 0 0 1-.702-.594 1.855 1.855 0 0 1-.162-.972 1.62 1.62 0 0 1 .378-.918c.252-.288.594-.468 1.026-.54 1.044-.18 1.746-.558 2.106-1.134.396-.612.648-1.548.756-2.808a145.9 145.9 0 0 0 .486-5.67c.108-1.692.198-3.258.27-4.698.072-1.44.126-2.808.162-4.104.072-1.296.162-2.592.27-3.888.144-1.404.324-2.88.54-4.428.216-1.548.54-3.06.972-4.536a24.941 24.941 0 0 1 1.62-4.158 12.11 12.11 0 0 1 2.484-3.456 11.204 11.204 0 0 1 3.51-2.376c1.368-.612 2.97-.918 4.806-.918h5.346c1.332 0 2.538.234 3.618.702a7.65 7.65 0 0 1 2.754 1.998c.792.864 1.404 1.908 1.836 3.132.432 1.188.648 2.52.648 3.996v11.556c0 .54.27.81.81.81s.81-.27.81-.81V11.792c0-1.476.216-2.808.648-3.996.432-1.224 1.026-2.268 1.782-3.132a8.177 8.177 0 0 1 2.808-1.998c1.08-.468 2.286-.702 3.618-.702h5.292ZM30.008 93.116c-.036-1.764-.27-3.222-.702-4.374-.396-1.152-.918-2.088-1.566-2.808-.648-.72-1.368-1.26-2.16-1.62a14.612 14.612 0 0 0-2.268-.864 6.96 6.96 0 0 0-1.836-.324 18.599 18.599 0 0 0-2.052-.108c-.72 0-1.08-.36-1.08-1.08v-.756c0-.684.36-1.062 1.08-1.134 1.656-.108 3.096-.558 4.32-1.35a9.875 9.875 0 0 0 3.078-3.024 12.11 12.11 0 0 0 1.728-4.212c.36-1.548.468-3.132.324-4.752 0-1.764-.324-3.222-.972-4.374-.648-1.152-1.44-1.728-2.376-1.728-.9 0-1.674.27-2.322.81-.648.54-1.206 1.26-1.674 2.16-.468.864-.864 1.854-1.188 2.97a36.921 36.921 0 0 0-.702 3.348 54.806 54.806 0 0 0-.324 3.24 32.154 32.154 0 0 0 0 2.646c0 .468-.378.702-1.134.702H3.224c-.756 0-1.134-.234-1.134-.702V57.098c0-.756.378-1.134 1.134-1.134h15.282c.756 0 1.134.378 1.134 1.134 0 .756-.234 1.386-.702 1.89-.468.468-.99 1.116-1.566 1.944-.576.828-1.098 2.016-1.566 3.564-.468 1.548-.702 3.762-.702 6.642 0 .36.288.54.864.54.576 0 .864-.198.864-.594 0-5.472 1.278-9.54 3.834-12.204 2.592-2.664 6.102-3.996 10.53-3.996 1.872 0 3.618.306 5.238.918 1.656.576 3.096 1.386 4.32 2.43a11.284 11.284 0 0 1 2.862 3.672c.72 1.368 1.08 2.862 1.08 4.482 0 1.872-.36 3.546-1.08 5.022a14.409 14.409 0 0 1-2.754 3.996c-1.116 1.188-2.43 2.25-3.942 3.186a56.627 56.627 0 0 1-4.536 2.592 104.6 104.6 0 0 1 5.076 1.62c1.656.54 3.132 1.224 4.428 2.052 1.332.828 2.394 1.872 3.186 3.132.792 1.224 1.188 2.754 1.188 4.59 0 1.656-.378 3.042-1.134 4.158-.72 1.116-1.692 2.034-2.916 2.754-1.224.684-2.61 1.206-4.158 1.566-1.548.36-3.132.612-4.752.756a51.296 51.296 0 0 1-4.644.216c-1.512.036-2.844.054-3.996.054-4.608 0-8.478-.198-11.61-.594-3.132-.396-5.67-.972-7.614-1.728-1.908-.756-3.276-1.674-4.104-2.754a5.878 5.878 0 0 1-1.242-3.672c0-1.44.396-2.7 1.188-3.78.792-1.116 1.872-2.034 3.24-2.754 1.368-.72 2.934-1.26 4.698-1.62 1.8-.36 3.708-.54 5.724-.54a31.584 31.584 0 0 1 3.51.216c.72.108 1.08.486 1.08 1.134 0 .36-.09.684-.27.972-.18.252-.468.414-.864.486-.612.108-1.134.576-1.566 1.404-.396.792-.594 1.89-.594 3.294 0 1.008.126 1.944.378 2.808.252.864.666 1.62 1.242 2.268.576.648 1.332 1.17 2.268 1.566.936.36 2.088.54 3.456.54.972 0 1.854-.162 2.646-.486a6.918 6.918 0 0 0 2.052-1.404 5.754 5.754 0 0 0 1.296-1.944 6.618 6.618 0 0 0 .432-2.376Zm57.079-37.152c.755 0 1.133.378 1.133 1.134v42.768c0 .756-.377 1.134-1.133 1.134H72.344c-.755 0-1.133-.378-1.133-1.134.035-2.196.053-4.5.053-6.912.037-2.448.037-4.878 0-7.29 0-2.412-.017-4.752-.053-7.02a160.74 160.74 0 0 0-.216-6.372 79.014 79.014 0 0 0-.433-5.184c-.144-1.512-.341-2.682-.593-3.51-.36-1.152-.882-1.728-1.566-1.728-.649 0-1.297.54-1.945 1.62-.54.9-1.115 2.178-1.727 3.834a52.3 52.3 0 0 0-1.674 5.346 73.976 73.976 0 0 0-1.189 5.886c-.324 2.016-.486 3.834-.486 5.454 0 1.368.127 2.358.379 2.97.252.576.665.864 1.241.864.505 0 .99-.216 1.458-.648.469-.432.847-1.026 1.135-1.782.287-.756.864-1.134 1.728-1.134.828 0 1.296.36 1.404 1.08a29.311 29.311 0 0 1 .431 4.806c0 1.836-.234 3.492-.701 4.968-.468 1.44-1.152 2.682-2.052 3.726a8.437 8.437 0 0 1-3.133 2.376c-1.224.576-2.591.864-4.103.864-3.06 0-5.436-1.098-7.128-3.294-1.656-2.196-2.484-5.292-2.484-9.288 0-2.484.233-4.968.701-7.452a45.275 45.275 0 0 1 2.052-7.128 42.246 42.246 0 0 1 3.024-6.426c1.188-2.016 2.448-3.744 3.78-5.184 1.369-1.476 2.773-2.628 4.213-3.456 1.475-.864 2.933-1.296 4.374-1.296 1.224 0 2.196.324 2.916.972.755.648 1.35 1.638 1.781 2.97.433 1.332.739 3.024.919 5.076.18 2.052.324 4.5.432 7.344 0 .612.288.918.864.918.576 0 .864-.288.864-.864 0-3.42-.199-6.21-.595-8.37-.36-2.16-.773-3.888-1.242-5.184-.468-1.332-.9-2.322-1.296-2.97-.36-.684-.54-1.206-.54-1.566 0-.288.108-.504.325-.648.215-.18.468-.27.755-.27h14.203Zm28.261 21.654c.72-.18 1.08-.612 1.08-1.296V57.044c0-.72.36-1.08 1.08-1.08h14.85c.72 0 1.08.36 1.08 1.08V99.92c0 .72-.36 1.08-1.08 1.08h-15.39c-.72 0-1.08-.36-1.08-1.08 0-1.188.18-2.358.54-3.51a70.858 70.858 0 0 1 1.296-3.564 46.575 46.575 0 0 0 1.242-3.564 11.87 11.87 0 0 0 .594-3.672c0-1.512-.342-2.592-1.026-3.24-.648-.684-1.656-1.026-3.024-1.026-5.04 0-7.56 4.392-7.56 13.176v5.4c0 .72-.36 1.08-1.08 1.08H92.56c-.72 0-1.08-.36-1.08-1.08V57.044c0-.72.36-1.08 1.08-1.08h14.85c.72 0 1.08.36 1.08 1.08v7.182c0 2.736-.252 5.238-.756 7.506a97.731 97.731 0 0 1-1.62 6.588 176.133 176.133 0 0 0-1.62 6.588c-.504 2.196-.792 4.644-.864 7.344 0 .576.288.864.864.864.468 0 .738-.306.81-.918.144-2.232.414-4.176.81-5.832.432-1.656 1.044-3.06 1.836-4.212a9.383 9.383 0 0 1 2.97-2.862c1.224-.756 2.7-1.314 4.428-1.674ZM149.472 74c.396 0 .792.018 1.188.054.432.036.648-.036.648-.216 0-.144-.27-.342-.81-.594a48.91 48.91 0 0 0-4.104-1.782 24.564 24.564 0 0 1-3.51-1.782c-1.044-.684-1.89-1.494-2.538-2.43-.612-.972-.918-2.232-.918-3.78 0-2.052.54-3.6 1.62-4.644s2.412-1.782 3.996-2.214a19.618 19.618 0 0 1 5.076-.648h27.594c.72 0 1.08.36 1.08 1.08V99.92c0 .72-.36 1.08-1.08 1.08h-14.85c-.72 0-1.08-.36-1.08-1.08v-5.886c0-1.44-.072-2.826-.216-4.158a29.31 29.31 0 0 0-.648-3.834c-.252-1.188-.576-2.25-.972-3.186-.36-.972-.756-1.782-1.188-2.43-.648-.9-1.314-1.35-1.998-1.35-1.116 0-1.674.936-1.674 2.808 0 .648.036 1.386.108 2.214.108.828.216 1.692.324 2.592.108.9.198 1.818.27 2.754.108.9.162 1.764.162 2.592 0 3.564-1.044 6.138-3.132 7.722-2.052 1.548-5.346 2.322-9.882 2.322-2.664 0-4.896-.306-6.696-.918-.36-.108-.63-.306-.81-.594a1.986 1.986 0 0 1-.27-.972c.036-.36.144-.666.324-.918.216-.288.522-.468.918-.54.504-.072.918-.216 1.242-.432.36-.216.612-.558.756-1.026.18-.504.27-1.152.27-1.944.036-.828 0-1.89-.108-3.186-.216-2.484-.27-4.734-.162-6.75.108-2.052.396-3.708.864-4.968.684-1.8 1.926-3.222 3.726-4.266s3.96-1.566 6.48-1.566Zm11.232-15.336c-1.404 0-2.574.144-3.51.432-.9.252-1.602.63-2.106 1.134-.504.468-.864 1.062-1.08 1.782-.18.72-.27 1.53-.27 2.43 0 1.584.27 2.97.81 4.158a29.016 29.016 0 0 0 2.052 3.456l2.646 3.564c.936 1.26 1.782 2.772 2.538 4.536.864 1.98 1.476 4.194 1.836 6.642.36 2.412.612 4.932.756 7.56 0 .612.288.918.864.918.576 0 .864-.288.864-.864 0-2.952-.234-5.526-.702-7.722-.432-2.232-.918-4.212-1.458-5.94a203.849 203.849 0 0 0-1.512-4.752c-.432-1.44-.648-2.826-.648-4.158V59.636c0-.648-.36-.972-1.08-.972ZM210.594 101h-15.93c-.72 0-1.08-.36-1.08-1.08.072-2.844.27-5.904.594-9.18.324-3.312.648-6.588.972-9.828.36-3.24.684-6.318.972-9.234.288-2.952.432-5.49.432-7.614 0-2.052-.162-3.456-.486-4.212-.288-.792-.774-1.188-1.458-1.188-.72 0-1.224.324-1.512.972-.288.648-.54 1.476-.756 2.484-.18.972-.414 2.034-.702 3.186a9.246 9.246 0 0 1-1.404 3.24c-.684.972-1.656 1.782-2.916 2.43-1.26.648-2.952.972-5.076.972-.756 0-1.134-.36-1.134-1.08V57.044c0-.72.378-1.08 1.134-1.08h40.77c.756 0 1.134.36 1.134 1.08v13.824c0 .72-.378 1.08-1.134 1.08-2.16 0-3.87-.324-5.13-.972-1.224-.648-2.178-1.458-2.862-2.43a10.092 10.092 0 0 1-1.458-3.24 990.554 990.554 0 0 0-.702-3.186c-.18-1.008-.414-1.836-.702-2.484-.288-.648-.792-.972-1.512-.972-.684 0-1.188.396-1.512 1.188-.288.756-.432 2.16-.432 4.212 0 2.124.144 4.662.432 7.614.288 2.916.594 5.994.918 9.234.36 3.24.702 6.516 1.026 9.828.324 3.276.522 6.336.594 9.18 0 .72-.36 1.08-1.08 1.08Zm33.002-38.07c0 1.512.054 2.916.162 4.212.144 1.26.324 2.268.54 3.024.36 1.224.936 2.178 1.728 2.862a9.512 9.512 0 0 0 2.646 1.62c1.008.36 2.052.612 3.132.756 1.08.144 2.07.27 2.97.378 2.628.324 4.86.828 6.696 1.512 1.872.684 3.402 1.566 4.59 2.646a9.138 9.138 0 0 1 2.592 3.78c.54 1.476.81 3.15.81 5.022 0 2.052-.324 3.834-.972 5.346-.648 1.512-1.674 2.79-3.078 3.834-1.404 1.008-3.222 1.764-5.454 2.268-2.232.504-4.932.756-8.1.756h-5.508c-1.44 0-3.024.018-4.752.054h-13.932c-.72 0-1.08-.36-1.08-1.08V57.044c0-.72.36-1.08 1.08-1.08h14.85c.72 0 1.08.36 1.08 1.08v5.886Zm1.08 35.37c3.276-.072 5.616-.81 7.02-2.214s2.106-3.708 2.106-6.912c0-1.872-.18-3.402-.54-4.59-.36-1.224-.846-2.232-1.458-3.024a8.317 8.317 0 0 0-2.052-1.998c-.756-.54-1.53-1.08-2.322-1.62a26.385 26.385 0 0 1-2.376-1.836c-.756-.72-1.44-1.638-2.052-2.754-.612-1.116-1.116-2.502-1.512-4.158-.396-1.692-.612-3.798-.648-6.318 0-.612-.27-.918-.81-.918s-.81.288-.81.864c0 1.368.036 2.592.108 3.672.072 1.08.198 2.124.378 3.132.18.972.414 1.962.702 2.97a39.296 39.296 0 0 0 1.242 3.294c.396.936.72 1.782.972 2.538.252.756.45 1.494.594 2.214.144.684.234 1.422.27 2.214.072.756.108 1.638.108 2.646V97.22c0 .72.36 1.08 1.08 1.08ZM71.54 113.744c-1.404 0-2.7.288-3.888.864-1.188.576-2.214 1.404-3.078 2.484-.828 1.044-1.476 2.304-1.944 3.78-.468 1.44-.702 3.042-.702 4.806 0 2.268.396 4.356 1.188 6.264.792 1.872 1.908 3.474 3.348 4.806 1.476 1.332 3.222 2.376 5.238 3.132 2.016.72 4.266 1.08 6.75 1.08 2.232 0 4.122-.306 5.67-.918 1.548-.612 2.7-1.494 3.456-2.646.396-.612.918-.828 1.566-.648l.378.108c.684.18 1.026.63 1.026 1.35-.18 5.76-1.872 10.188-5.076 13.284-3.168 3.06-7.614 4.59-13.338 4.59-3.456 0-6.588-.558-9.396-1.674-2.772-1.116-5.166-2.7-7.182-4.752-1.98-2.088-3.51-4.59-4.59-7.506-1.08-2.916-1.62-6.156-1.62-9.72 0-3.132.396-6.066 1.188-8.802.828-2.736 1.944-5.112 3.348-7.128 1.44-2.016 3.114-3.6 5.022-4.752 1.908-1.188 3.96-1.782 6.156-1.782h17.982c2.16 0 3.852.558 5.076 1.674 1.224 1.116 1.836 2.43 1.836 3.942 0 1.188-.36 2.412-1.08 3.672a15.245 15.245 0 0 1-2.646 3.51 15.558 15.558 0 0 1-3.564 2.592c-1.296.684-2.52 1.026-3.672 1.026-.36 0-.648-.126-.864-.378a1.504 1.504 0 0 1-.324-.918c0-.324.072-.594.216-.81.144-.216.288-.45.432-.702.18-.288.324-.63.432-1.026.144-.432.216-.99.216-1.674 0-1.044-.198-1.998-.594-2.862a6.055 6.055 0 0 0-1.566-2.214c-.648-.648-1.44-1.152-2.376-1.512-.9-.36-1.908-.54-3.024-.54Zm38.473 35.1c.072 1.26.414 2.16 1.026 2.7.612.504 1.422.756 2.43.756 1.26 0 2.232-.324 2.916-.972.684-.648 1.26-1.458 1.728-2.43.468-1.008.9-2.088 1.296-3.24a13.804 13.804 0 0 1 1.566-3.186c.648-1.008 1.512-1.836 2.592-2.484 1.08-.648 2.52-.972 4.32-.972.648 0 .972.36.972 1.08v13.824c0 .72-.324 1.08-.972 1.08H94.353c-.72 0-1.08-.36-1.08-1.08v-42.876c0-.72.36-1.08 1.08-1.08h32.94c1.044 0 1.566.54 1.566 1.62 0 2.052-.45 3.798-1.35 5.238a13.14 13.14 0 0 1-3.294 3.618 20.241 20.241 0 0 1-4.266 2.538 598.363 598.363 0 0 1-4.32 1.89c-1.296.54-2.394 1.08-3.294 1.62-.864.54-1.296 1.152-1.296 1.836 0 .432.162.792.486 1.08.324.288.756.432 1.296.432s1.17-.144 1.89-.432l2.16-.972c.72-.36 1.404-.684 2.052-.972.684-.324 1.242-.486 1.674-.486.72 0 1.08.45 1.08 1.35v9.72c0 .252-.144.522-.432.81-.252.252-.612.486-1.08.702a7.394 7.394 0 0 1-1.512.54 9.358 9.358 0 0 1-1.728.162c-2.016 0-3.78-.612-5.292-1.836-1.512-1.26-2.556-2.916-3.132-4.968.288 2.52.558 5.094.81 7.722.288 2.628.522 5.184.702 7.668Zm-1.944-19.278c.108-1.764.522-3.222 1.242-4.374a24.089 24.089 0 0 1 2.43-3.132 31.912 31.912 0 0 0 2.322-2.808c.684-.972 1.026-2.124 1.026-3.456 0-2.088-1.224-3.132-3.672-3.132-1.548 0-2.628.45-3.24 1.35-.576.864-.864 2.466-.864 4.806 0 1.368.072 2.97.216 4.806.144 1.836.324 3.816.54 5.94Zm38.435-5.4c-.216-.54-.54-.756-.972-.648-.432.108-.612.486-.54 1.134.108.648.288 1.332.54 2.052.288.72.594 1.404.918 2.052.36.648.594 1.026.702 1.134.396.936.72 1.782.972 2.538a15.039 15.039 0 0 1 .864 4.428c.072.756.108 1.638.108 2.646v11.718c0 .72.36 1.08 1.08 1.08 3.276-.072 5.616-.81 7.02-2.214s2.106-3.708 2.106-6.912c0-2.952-.432-5.274-1.296-6.966-.864-1.728-1.908-3.024-3.132-3.888a61.888 61.888 0 0 0-2.7-1.836 20.88 20.88 0 0 1-2.16-1.566 15.785 15.785 0 0 1-1.836-1.944c-.576-.72-1.134-1.656-1.674-2.808Zm-.108-6.102c.288 2.34 1.008 4.248 2.16 5.724 1.152 1.476 2.43 2.646 3.834 3.51 1.44.828 2.88 1.422 4.32 1.782 1.476.36 2.664.594 3.564.702 5.256.648 9.018 2.034 11.286 4.158 2.268 2.088 3.402 5.022 3.402 8.802 0 2.052-.324 3.834-.972 5.346-.648 1.512-1.674 2.79-3.078 3.834-1.404 1.008-3.222 1.764-5.454 2.268-2.232.504-4.932.756-8.1.756h-5.508c-1.44 0-3.024.018-4.752.054h-13.932c-.72 0-1.08-.36-1.08-1.08v-42.876c0-.72.36-1.08 1.08-1.08h37.908c.756 0 1.134.36 1.134 1.08v13.824c0 .72-.378 1.08-1.134 1.08-1.692 0-3.096-.18-4.212-.54-1.116-.396-2.034-.9-2.754-1.512-.72-.612-1.278-1.296-1.674-2.052a12.907 12.907 0 0 1-.918-2.376 30.572 30.572 0 0 1-.54-2.322c-.108-.792-.27-1.476-.486-2.052-.18-.612-.684-1.152-1.512-1.62-.828-.468-1.8-.81-2.916-1.026a12.526 12.526 0 0 0-3.51-.27c-1.188.036-2.286.27-3.294.702a4.99 4.99 0 0 0-2.322 1.89c-.54.828-.72 1.926-.54 3.294Zm44.05 9.936c.396 0 .792.018 1.188.054.432.036.648-.036.648-.216 0-.144-.27-.342-.81-.594a48.91 48.91 0 0 0-4.104-1.782 24.564 24.564 0 0 1-3.51-1.782c-1.044-.684-1.89-1.494-2.538-2.43-.612-.972-.918-2.232-.918-3.78 0-2.052.54-3.6 1.62-4.644s2.412-1.782 3.996-2.214a19.618 19.618 0 0 1 5.076-.648h27.594c.72 0 1.08.36 1.08 1.08v42.876c0 .72-.36 1.08-1.08 1.08h-14.85c-.72 0-1.08-.36-1.08-1.08v-5.886c0-1.44-.072-2.826-.216-4.158a29.31 29.31 0 0 0-.648-3.834c-.252-1.188-.576-2.25-.972-3.186-.36-.972-.756-1.782-1.188-2.43-.648-.9-1.314-1.35-1.998-1.35-1.116 0-1.674.936-1.674 2.808 0 .648.036 1.386.108 2.214.108.828.216 1.692.324 2.592.108.9.198 1.818.27 2.754.108.9.162 1.764.162 2.592 0 3.564-1.044 6.138-3.132 7.722-2.052 1.548-5.346 2.322-9.882 2.322-2.664 0-4.896-.306-6.696-.918-.36-.108-.63-.306-.81-.594a1.986 1.986 0 0 1-.27-.972c.036-.36.144-.666.324-.918.216-.288.522-.468.918-.54.504-.072.918-.216 1.242-.432.36-.216.612-.558.756-1.026.18-.504.27-1.152.27-1.944.036-.828 0-1.89-.108-3.186-.216-2.484-.27-4.734-.162-6.75.108-2.052.396-3.708.864-4.968.684-1.8 1.926-3.222 3.726-4.266s3.96-1.566 6.48-1.566Zm11.232-15.336c-1.404 0-2.574.144-3.51.432-.9.252-1.602.63-2.106 1.134-.504.468-.864 1.062-1.08 1.782-.18.72-.27 1.53-.27 2.43 0 1.584.27 2.97.81 4.158a29.016 29.016 0 0 0 2.052 3.456l2.646 3.564c.936 1.26 1.782 2.772 2.538 4.536.864 1.98 1.476 4.194 1.836 6.642.36 2.412.612 4.932.756 7.56 0 .612.288.918.864.918.576 0 .864-.288.864-.864 0-2.952-.234-5.526-.702-7.722-.432-2.232-.918-4.212-1.458-5.94a203.849 203.849 0 0 0-1.512-4.752c-.432-1.44-.648-2.826-.648-4.158v-12.204c0-.648-.36-.972-1.08-.972Z"/>
</svg>
